<?xml version="1.0" standalone="no"?><!DOCTYPE svg PUBLIC "-//W3C//DTD SVG 1.1//EN" "http://www.w3.org/Graphics/SVG/1.1/DTD/svg11.dtd"><svg t="1669256972864" class="icon" viewBox="0 0 1024 1024" version="1.1" xmlns="http://www.w3.org/2000/svg" p-id="21825" xmlns:xlink="http://www.w3.org/1999/xlink" width="200" height="200"><path d="M290.29 240.06c-27.61 0-50 22.39-50 50v525.83h303.36s-43.44-55.55-36.98-150.74c6.46-95.18 85.73-138.33 135.31-151.39 49.58-13.06 131.74 11.17 131.74 11.17V240.06H290.29z" fill="#E9F1FF" p-id="21826"></path><path d="M546.42 840.89H194.5c-41.36 0-75-33.65-75-75V190.06c0-41.35 33.64-75 75-75h531.99c41.35 0 75 33.65 75 75V512c0 13.81-11.19 25-25 25s-25-11.19-25-25V190.06c0-13.79-11.21-25-25-25H194.5c-13.79 0-25 11.21-25 25v575.83c0 13.79 11.21 25 25 25h351.92c13.81 0 25 11.19 25 25s-11.19 25-25 25z" fill="#2C5CCB" p-id="21827"></path><path d="M695.7 909.2c-117.83 0-213.7-95.86-213.7-213.7 0-57.08 22.23-110.74 62.59-151.11 40.36-40.36 94.03-62.59 151.11-62.59s110.74 22.23 151.11 62.59 62.59 94.03 62.59 151.11-22.23 110.74-62.59 151.11c-40.37 40.36-94.03 62.59-151.11 62.59z m0-377.4c-90.26 0-163.7 73.43-163.7 163.7 0 90.26 73.43 163.7 163.7 163.7 90.26 0 163.7-73.43 163.7-163.7-0.01-90.26-73.44-163.7-163.7-163.7z" fill="#2C5CCB" p-id="21828"></path><path d="M679.56 774.93a37.21 37.21 0 0 1-18.15-4.72 37.236 37.236 0 0 1-19.05-32.47v-84.47c0-13.46 7.3-25.9 19.05-32.47a37.212 37.212 0 0 1 37.64 0.79l68.67 42.24c11.09 6.82 17.71 18.67 17.71 31.69s-6.62 24.87-17.71 31.69l-68.67 42.24a37.391 37.391 0 0 1-19.49 5.48z m12.8-98.77v38.67l31.44-19.33-31.44-19.34zM342.46 483.02c-6.4 0-12.8-2.44-17.68-7.32L216.01 366.93a25 25 0 0 1-7.32-17.68 25 25 0 0 1 7.32-17.68L328.38 219.2c9.76-9.76 25.59-9.76 35.36 0 9.76 9.76 9.76 25.59 0 35.36l-94.69 94.69 91.09 91.09c9.76 9.76 9.76 25.59 0 35.36-4.88 4.88-11.28 7.32-17.68 7.32zM573.01 483.02c-6.4 0-12.8-2.44-17.68-7.32-9.76-9.76-9.76-25.59 0-35.36l94.69-94.69-91.09-91.09c-9.76-9.76-9.76-25.59 0-35.36 9.76-9.76 25.59-9.76 35.36 0l108.77 108.77c9.76 9.76 9.76 25.59 0 35.36L590.68 475.7a24.92 24.92 0 0 1-17.67 7.32zM415.75 487.5c-2.96 0-5.96-0.53-8.89-1.64-12.9-4.91-19.39-19.35-14.47-32.26l87.55-230.09c4.91-12.9 19.35-19.38 32.26-14.47 12.9 4.91 19.39 19.35 14.47 32.26l-87.55 230.09c-3.79 9.98-13.29 16.11-23.37 16.11z" fill="#2C5CCB" p-id="21829"></path></svg>
