<?xml version="1.0" standalone="no"?><!DOCTYPE svg PUBLIC "-//W3C//DTD SVG 1.1//EN" "http://www.w3.org/Graphics/SVG/1.1/DTD/svg11.dtd"><svg t="1669257210003" class="icon" viewBox="0 0 1024 1024" version="1.1" xmlns="http://www.w3.org/2000/svg" p-id="677" xmlns:xlink="http://www.w3.org/1999/xlink" width="200" height="200"><path d="M938.666667 42.666667a42.666667 42.666667 0 0 1 42.666666 42.666666v853.333334a42.666667 42.666667 0 0 1-42.666666 42.666666H85.333333a42.666667 42.666667 0 0 1-42.666666-42.666666V85.333333a42.666667 42.666667 0 0 1 42.666666-42.666666h853.333334z m-42.666667 298.666666H128v554.666667h768V341.333333zM382.890667 447.573333a21.333333 21.333333 0 0 1 30.122666-1.066666l31.232 29.098666a21.333333 21.333333 0 0 1 1.024 30.165334l-103.808 111.274666 103.808 111.36a21.333333 21.333333 0 0 1-1.024 30.122667l-31.232 29.098667a21.333333 21.333333 0 0 1-30.122666-1.024l-130.005334-139.392-14.464-13.482667a21.290667 21.290667 0 0 1-6.741333-16.64l0.128-3.626667a21.248 21.248 0 0 1 6.613333-13.056l14.421334-13.482666z m258.218666 0l130.005334 139.349334 14.464 13.482666c3.84 3.584 6.016 8.234667 6.613333 13.056l0.128 3.584a21.290667 21.290667 0 0 1-6.741333 16.682667l-14.506667 13.482667-129.962667 139.392a21.333333 21.333333 0 0 1-27.093333 3.413333l-3.029333-2.389333-31.232-29.098667a21.333333 21.333333 0 0 1-1.024-30.122667l103.765333-111.36-103.765333-111.274666a21.333333 21.333333 0 0 1 1.024-30.165334l31.232-29.098666a21.333333 21.333333 0 0 1 30.122666 1.066666zM896 128H128v128h768V128z" p-id="678" fill="#2C5CCB"></path></svg>