<?xml version="1.0" standalone="no"?><!DOCTYPE svg PUBLIC "-//W3C//DTD SVG 1.1//EN" "http://www.w3.org/Graphics/SVG/1.1/DTD/svg11.dtd"><svg t="1644549136260" class="icon" viewBox="0 0 1024 1024" version="1.1" xmlns="http://www.w3.org/2000/svg" p-id="4446" xmlns:xlink="http://www.w3.org/1999/xlink" width="128" height="128"><defs><style type="text/css"></style></defs><path d="M821.76 870.4s-5.12 33.28 5.12 48.64l43.52 30.72-2.56 10.24v15.36l10.24 2.56 15.36-2.56 2.56 5.12 7.68 10.24h10.24l10.24-23.04v-10.24l10.24-2.56s69.12-23.04 53.76-48.64l-5.12-2.56s-30.72 12.8-43.52 10.24c0 0-58.88 2.56-87.04-17.92l-30.72-25.6z" fill="#D77083" p-id="4447"></path><path d="M837.12 849.92s-28.16 0-10.24 28.16c0 0 28.16 30.72 81.92 38.4 0 0 79.36 0 84.48-25.6 0 0-2.56-30.72-25.6-28.16-23.04 7.68-130.56-12.8-130.56-12.8z" fill="#733D48" p-id="4448"></path><path d="M960 768s35.84 38.4 20.48 97.28c0 0-2.56 25.6-23.04 33.28 0 0-38.4 7.68-48.64 2.56 0 0-48.64-2.56-64-28.16 0 0-20.48-20.48-2.56-43.52 0 0 35.84-15.36 43.52-38.4 0 0 12.8-10.24 28.16-7.68 15.36 2.56 28.16 10.24 28.16 10.24s23.04-17.92 17.92-25.6z" fill="#D59D52" p-id="4449"></path><path d="M865.28 798.72s17.92 38.4 61.44 40.96c0 0 40.96 0 58.88-25.6l-15.36-38.4-28.16-7.68s-74.24-23.04-76.8 30.72z" fill="#DBAE62" p-id="4450"></path><path d="M960 768s17.92 23.04-5.12 28.16c0 0-23.04 5.12-35.84 0 0 0-79.36 23.04-58.88 89.6 0 0-15.36 0-23.04-38.4L844.8 768s107.52-20.48 115.2 0z" fill="#B88F4D" p-id="4451"></path><path d="M949.76 806.4s10.24 20.48 2.56 30.72c0 0-2.56 5.12 10.24 7.68 0 0 15.36-17.92-2.56-46.08 0 0-10.24-2.56-10.24 7.68z" fill="#FFFFFF" p-id="4452"></path><path d="M954.88 803.84m-5.12 0a5.12 5.12 0 1 0 10.24 0 5.12 5.12 0 1 0-10.24 0Z" fill="#FFFFFF" p-id="4453"></path><path d="M957.44 839.68m-5.12 0a5.12 5.12 0 1 0 10.24 0 5.12 5.12 0 1 0-10.24 0Z" fill="#FFFFFF" p-id="4454"></path><path d="M988.16 870.4s23.04-58.88-20.48-104.96h-7.68v12.8s25.6 28.16 17.92 61.44c0 0-2.56 28.16-7.68 40.96 0 0-17.92 17.92-38.4 17.92 0 0-43.52 0-79.36-20.48 0 0-17.92-20.48-10.24-43.52h-5.12c0-2.56-2.56-5.12-12.8 0 0 0 5.12 7.68-5.12 10.24 0 0-20.48 10.24-15.36 51.2 2.56 35.84 48.64 58.88 48.64 58.88s2.56 2.56 2.56 7.68-2.56 17.92 12.8 20.48c0 0 10.24 2.56 15.36-2.56 0 0 7.68 23.04 23.04 17.92 15.36-5.12 20.48-20.48 12.8-33.28 0 0 35.84-5.12 58.88-33.28 5.12 0 35.84-33.28 10.24-61.44z m-10.24 48.64c-5.12 7.68-15.36 30.72-51.2 38.4 0 0-20.48 0-28.16-2.56 0 0-20.48 7.68 2.56 5.12 0 0 17.92 0 15.36 12.8 0 0-2.56 12.8-7.68 12.8 0 0-5.12 5.12-12.8-10.24 0 0 2.56-5.12-7.68-5.12 0 0-17.92 7.68-17.92-10.24 0 0 5.12-10.24 10.24-12.8 0 0-51.2-15.36-58.88-58.88 0 0-5.12-10.24 2.56-7.68 35.84 33.28 79.36 38.4 79.36 38.4 38.4 5.12 71.68-10.24 71.68-10.24 2.56 2.56 5.12 5.12 2.56 10.24z m7.68-23.04s-2.56 5.12-5.12 7.68c-2.56 0-2.56 2.56-5.12 2.56-46.08 20.48-102.4 0-102.4 0-43.52-23.04-46.08-38.4-46.08-40.96 0-2.56 0-5.12 2.56-5.12 0 0 5.12-10.24 10.24-5.12 0 7.68 5.12 17.92 10.24 23.04 15.36 12.8 35.84 23.04 69.12 25.6 33.28 2.56 51.2-7.68 58.88-23.04 5.12 2.56 10.24 10.24 7.68 15.36z" p-id="4455"></path><path d="M35.84 563.2s15.36 125.44 112.64 207.36l115.2-99.84L435.2 665.6l220.16-125.44s133.12-84.48 128-179.2c0 0-145.92 66.56-179.2 46.08L547.84 435.2 486.4 478.72l-89.6 7.68-12.8 15.36-166.4 51.2s-23.04-71.68 53.76-192l25.6-40.96-110.08 51.2-2.56-25.6-12.8 2.56-20.48 64-23.04 7.68-64 110.08-7.68-17.92h-10.24v51.2h-10.24z" fill="#947BB0" p-id="4456"></path><path d="M757.76 460.8l23.04-7.68 28.16-40.96h10.24l17.92 2.56 7.68 15.36 15.36 15.36 28.16 7.68 25.6 10.24 23.04 20.48 10.24 15.36 12.8 23.04 10.24 35.84 7.68 25.6 5.12 17.92 5.12 15.36-2.56 23.04-7.68 17.92-10.24 12.8-25.6 7.68-7.68 7.68-33.28 5.12h-23.04l-15.36 10.24 2.56 12.8h15.36l28.16-7.68 28.16 2.56 17.92 15.36 7.68 7.68 2.56 17.92v25.6l-17.92 15.36-17.92-2.56-12.8-5.12-23.04 2.56-7.68 10.24-15.36 15.36-28.16 15.36-25.6 5.12-38.4 5.12-2.56 10.24v10.24l-5.12 20.48-15.36 20.48-15.36 23.04 30.72 2.56 28.16 5.12 12.8 15.36 5.12 15.36-5.12 12.8-17.92 15.36-40.96 2.56H384s-204.8 0-289.28-148.48-53.76-243.2-53.76-243.2l5.12-23.04s33.28 117.76 89.6 176.64l15.36 17.92s10.24-2.56 17.92-43.52c0 0 17.92-84.48 227.84-84.48l87.04-46.08 87.04-25.6 64-15.36 51.2-25.6 71.68-69.12z" fill="#D77083" p-id="4457"></path><path d="M870.4 555.52s15.36-23.04 46.08-7.68c0 0 30.72 17.92 10.24 58.88 0 0-12.8-2.56-23.04 0-2.56 0-61.44 2.56-33.28-51.2z" p-id="4458"></path><path d="M880.64 581.12s-7.68-7.68-2.56-17.92l-7.68-7.68s-12.8 15.36 10.24 33.28c0 0 10.24 7.68 33.28 7.68 0 0 7.68 2.56 7.68 5.12v-20.48s-5.12 12.8-12.8 12.8c0 0-17.92-2.56-28.16-12.8z" fill="#FFFFFF" p-id="4459"></path><path d="M901.12 568.32m-15.36 0a15.36 15.36 0 1 0 30.72 0 15.36 15.36 0 1 0-30.72 0Z" fill="#D19B52" p-id="4460"></path><path d="M888.32 558.08m-7.68 0a7.68 7.68 0 1 0 15.36 0 7.68 7.68 0 1 0-15.36 0Z" fill="#FFFFFF" p-id="4461"></path><path d="M312.32 153.6l2.56-25.6 66.56-48.64 30.72-15.36s40.96-35.84 99.84-35.84l71.68 7.68 51.2 17.92 38.4 23.04 30.72 15.36 38.4 25.6-7.68 46.08-7.68 33.28 10.24 46.08-15.36 23.04s-7.68 20.48-48.64 53.76l-23.04 43.52-40.96 51.2L537.6 460.8l-61.44 17.92-48.64 5.12L250.88 537.6l-33.28 15.36s-20.48-110.08 53.76-192l46.08-40.96s30.72-25.6 35.84-66.56l28.16 48.64 20.48-43.52c0-2.56 2.56-112.64-89.6-104.96z" fill="#E7DFAB" p-id="4462"></path><path d="M765.44 99.84L742.4 128l-7.68 25.6-5.12 58.88-7.68 53.76s-30.72 48.64-43.52 43.52l-10.24 23.04-5.12 17.92 40.96-35.84 53.76-23.04 30.72-12.8 12.8-25.6-12.8-48.64-2.56-30.72-15.36-5.12s-7.68-40.96 5.12-56.32l-10.24-12.8z" fill="#D19456" p-id="4463"></path><path d="M642.56 373.76s51.2-61.44 115.2-89.6v15.36l64-35.84h15.36l-5.12 33.28-17.92 23.04-20.48 33.28-33.28 23.04-69.12 25.6-66.56 15.36 17.92-43.52z" fill="#D77083" p-id="4464"></path><path d="M396.8 174.08s84.48-23.04 112.64 0c28.16 23.04 104.96-5.12 104.96-5.12l69.12 40.96-5.12 97.28s-7.68-64-81.92-71.68-71.68-20.48-117.76-43.52-35.84 2.56-81.92-17.92z" fill="#D89E52" p-id="4465"></path><path d="M396.8 174.08s10.24 30.72 61.44 33.28 215.04 87.04 151.04 156.16c0 0-10.24 76.8-74.24 94.72 0 0 51.2-66.56 17.92-138.24 0 0-7.68-58.88-79.36-76.8 2.56 0-43.52-20.48-76.8-69.12z" fill="#D89E52" p-id="4466"></path><path d="M445.44 273.92s25.6 79.36 69.12 92.16c0 0 51.2 46.08 5.12 79.36l-92.16 38.4-158.72 40.96-56.32 20.48s64-81.92 107.52-102.4c0 0 76.8-20.48 110.08-102.4l15.36-66.56z" fill="#D89E52" p-id="4467"></path><path d="M371.2 273.92s-17.92 76.8-94.72 151.04C238.08 460.8 230.4 506.88 222.72 540.16c0 0 20.48-71.68 76.8-117.76 33.28-28.16 69.12-71.68 71.68-148.48z" fill="#814879" p-id="4468"></path><path d="M437.76 496.64s48.64 2.56 66.56 17.92c0 0-15.36-12.8-28.16-17.92 0 0 76.8 10.24 107.52 23.04 0 0 35.84 7.68 56.32 0 0 0-56.32-2.56-79.36-17.92 0 0-46.08-17.92-74.24-15.36l-48.64 10.24z" fill="#785085" p-id="4469"></path><path d="M601.6 437.76s23.04-5.12 53.76 0c0 0 48.64 25.6 104.96-12.8 0 0-43.52 53.76-79.36 46.08 0 0-99.84-17.92-120.32-10.24 2.56 2.56 33.28-7.68 40.96-23.04z" fill="#E1CAC9" p-id="4470"></path><path d="M378.88 156.16s35.84-30.72 51.2-35.84c0 0 69.12-17.92 40.96 0l-12.8 15.36s25.6-12.8 53.76-10.24l-12.8 10.24s43.52-7.68 48.64 0c0 0 17.92 20.48 35.84 10.24 0 0-7.68 20.48-51.2-2.56 0 0-30.72 0 0 12.8-2.56 0-84.48-20.48-153.6 0z" fill="#FFFFFF" p-id="4471"></path><path d="M345.6 709.12s-35.84 5.12-35.84 58.88c0 0 7.68 43.52 40.96 56.32 0 0-15.36-66.56 7.68-112.64l-12.8-2.56z" fill="#A04F5D" p-id="4472"></path><path d="M675.84 724.48s-5.12 89.6 30.72 128c0 0 30.72 30.72 71.68 25.6 0 0 23.04-38.4-23.04-40.96 0 0-46.08-10.24-58.88-56.32-2.56 2.56-7.68-51.2-20.48-56.32z" fill="#9A505E" p-id="4473"></path><path d="M714.24 642.56s-17.92 71.68 58.88 92.16c0 0 61.44 7.68 79.36-25.6 0 0-64 12.8-97.28-20.48-2.56 0-38.4-25.6-40.96-46.08zM824.32 427.52s-48.64 30.72-12.8 64c0 0 7.68-35.84 15.36-46.08 10.24-10.24-2.56-17.92-2.56-17.92z" fill="#A04F5E" p-id="4474"></path><path d="M819.2 450.56s-12.8 28.16-7.68 38.4c0 0 7.68 17.92 12.8 15.36 0 0-12.8-25.6 2.56-48.64 0 0 12.8-17.92 0-43.52 0 2.56 5.12 20.48-7.68 38.4zM844.8 501.76s30.72-17.92 10.24-46.08c0 0 5.12 25.6-10.24 46.08zM714.24 640c0-2.56 0 0 0 0zM714.24 640c10.24 74.24 89.6 69.12 89.6 69.12-79.36-15.36-89.6-66.56-89.6-69.12z" p-id="4475"></path><path d="M985.6 591.36s-10.24-35.84-10.24-53.76c0 0-17.92-94.72-115.2-99.84 0 0-10.24-30.72-40.96-30.72 0 0-17.92 2.56-46.08 38.4-5.12 5.12-5.12-2.56-5.12-2.56 5.12-5.12 5.12-10.24 5.12-10.24 17.92-20.48 28.16-64 33.28-81.92 10.24-7.68 17.92-17.92 25.6-28.16l10.24-33.28s-5.12 0-10.24 7.68 17.92-40.96 10.24-53.76c0 0-30.72 15.36-33.28 23.04 0 0-7.68-46.08-17.92-69.12 0 0 0-33.28 10.24-38.4 0 0-10.24-12.8-25.6 10.24 0 0-17.92-17.92 7.68-66.56 0 0 5.12-10.24-20.48-2.56 0 0-20.48 20.48-23.04 25.6 0 0-10.24-12.8-15.36-28.16 0 0-2.56-2.56-5.12 0 0 0-5.12 7.68-7.68-7.68 0 0-10.24-17.92-15.36-17.92 0 0 2.56 12.8 0 12.8 0 0-2.56 0-10.24-5.12 0 0-38.4-25.6-97.28-38.4 0 0-12.8-5.12-17.92-7.68 0 0-2.56 0-5.12 2.56 0 0-10.24 0-17.92-2.56-28.16-12.8-40.96 0-40.96 0-145.92 0-192 94.72-192 94.72-15.36 15.36-2.56 25.6-2.56 25.6h23.04c97.28 61.44 35.84 120.32 35.84 120.32l-10.24-33.28c-23.04-23.04-15.36 0-15.36 0 7.68 35.84-17.92 58.88-17.92 58.88-76.8 23.04-133.12 56.32-133.12 56.32-15.36-2.56 7.68-25.6-10.24-23.04s-28.16 48.64-28.16 48.64C107.52 417.28 66.56 486.4 51.2 512c0-5.12-2.56-38.4-2.56-56.32 0 0-17.92 43.52-7.68 89.6 0 0-7.68 20.48-12.8 46.08 0 0 0 5.12-2.56 10.24v33.28c0 40.96 2.56 102.4 28.16 153.6 0 0 38.4 120.32 197.12 186.88 0 0 64 23.04 120.32 23.04h384s53.76 0 61.44-28.16c7.68-30.72-10.24-61.44-61.44-53.76 0 0-15.36 2.56 5.12-12.8 0 0 17.92-15.36 17.92-48.64 0 0-7.68-12.8 17.92-10.24 0 0 17.92 0 28.16-2.56 0 0 48.64-10.24 66.56-51.2 0 0 17.92-7.68 28.16 0 0 0 20.48 10.24 25.6 2.56 0 0 2.56-2.56 15.36-10.24 0 0 5.12 2.56 10.24-35.84 0 0 0-15.36-10.24-23.04 0 0-5.12-7.68-7.68-12.8 0 0-12.8-17.92-56.32-10.24 0 0-23.04 15.36-28.16 7.68-5.12-7.68 7.68-7.68 7.68-7.68s51.2-2.56 71.68-17.92c0 0 33.28-2.56 35.84-38.4 2.56-5.12 23.04-23.04 2.56-53.76z m-220.16-168.96c-46.08 94.72-135.68 122.88-135.68 122.88-46.08 0-56.32 2.56-56.32 2.56 33.28 5.12 25.6 10.24 25.6 10.24-71.68 7.68-97.28 20.48-97.28 20.48-94.72-15.36-145.92-5.12-145.92-5.12-115.2 20.48-163.84 74.24-163.84 74.24 102.4-58.88 171.52-64 171.52-64 112.64-7.68 120.32 0 120.32 0-30.72 5.12-69.12 33.28-69.12 33.28-17.92 12.8-97.28 25.6-97.28 25.6-28.16 2.56-79.36 17.92-79.36 17.92-79.36 25.6-79.36 97.28-79.36 97.28-25.6-28.16-23.04-76.8-23.04-76.8l-2.56-2.56c2.56-10.24 7.68-20.48 17.92-43.52 23.04-53.76 38.4-56.32 79.36-81.92s192-53.76 192-53.76c148.48-17.92 189.44-71.68 189.44-71.68 2.56-2.56 7.68-7.68 15.36-12.8h2.56s87.04-2.56 156.16-48.64c-2.56 23.04-20.48 56.32-20.48 56.32z m64-153.6s-5.12 43.52-38.4 71.68c0 0-48.64 48.64-153.6 66.56l-5.12 2.56c7.68-10.24 17.92-17.92 17.92-17.92 84.48-12.8 135.68-74.24 135.68-74.24-74.24 53.76-130.56 64-130.56 64 7.68-10.24 12.8-23.04 20.48-35.84 10.24-7.68 43.52-35.84 71.68-43.52 0 0-12.8 23.04-28.16 33.28 0 0 23.04-2.56 61.44-38.4-2.56-5.12 28.16-28.16 48.64-28.16z m-92.16-94.72c5.12-43.52 28.16-64 28.16-64 10.24 7.68 0 15.36 0 15.36-7.68 25.6-2.56 58.88-2.56 58.88l-25.6 58.88c0-2.56-5.12-25.6 0-69.12z m-381.44 92.16c33.28 43.52-20.48 115.2-20.48 115.2 92.16-71.68 71.68-138.24 71.68-138.24 0-66.56-53.76-87.04-53.76-87.04-28.16-5.12-23.04-15.36-23.04-15.36 76.8-87.04 148.48-71.68 148.48-71.68 0-12.8-53.76-5.12-53.76-5.12 17.92-25.6 79.36-20.48 79.36-20.48 10.24 2.56 33.28 12.8 33.28 12.8l-10.24-20.48c7.68 2.56 12.8 5.12 17.92 7.68 5.12 2.56 10.24 2.56 10.24 2.56 7.68 0 17.92 2.56 33.28 2.56 0 0 15.36 2.56 28.16 28.16 0 0-2.56-15.36-5.12-20.48 0 0 17.92 10.24 25.6 23.04 0 0 2.56-2.56 0-12.8 0 0 33.28 15.36 46.08 35.84 0 0 2.56 2.56 2.56-5.12 0 0 2.56-15.36 7.68 0 0 0-2.56 15.36 2.56 12.8 0 0 5.12-5.12 5.12-12.8 0 0 5.12-2.56 5.12 5.12 0 0 5.12 5.12 10.24 0 0 0 5.12 5.12 7.68 15.36 2.56 10.24 7.68 17.92 7.68 17.92s-10.24 25.6-7.68 53.76c0 0 0 71.68-10.24 84.48 0 0 30.72-12.8 43.52-66.56 0 0 17.92-46.08 20.48-17.92 0 0-5.12 12.8 0 28.16 0 0-7.68 30.72-15.36 35.84 0 0 15.36-10.24 23.04-23.04 0 0 7.68 25.6-5.12 33.28 0 0-35.84 23.04-69.12 30.72 0 0-23.04 12.8-30.72 28.16l-5.12 7.68c12.8-30.72 20.48-61.44 20.48-61.44 12.8-10.24 17.92-30.72 17.92-30.72-5.12 0-15.36 12.8-15.36 12.8-10.24 10.24-5.12-17.92-5.12-17.92 5.12-7.68 10.24-20.48 10.24-20.48 0-10.24-10.24 2.56-10.24 2.56-10.24 5.12-5.12-12.8-5.12-12.8 7.68-15.36 2.56-20.48 2.56-20.48-5.12 0-12.8 23.04-12.8 23.04-2.56 15.36-15.36-15.36-15.36-15.36-12.8-10.24-10.24-35.84-10.24-35.84-2.56-15.36-5.12 0-5.12 0-2.56 17.92-5.12 7.68-5.12 7.68 0-12.8-2.56-23.04-2.56-23.04v20.48c-5.12 7.68-10.24-10.24-10.24-10.24-2.56-17.92-7.68-15.36-7.68-15.36-2.56 10.24 2.56 15.36 0 17.92-2.56 2.56-10.24-7.68-10.24-17.92 0-10.24-7.68-5.12-7.68-5.12 0 17.92-5.12 10.24-5.12 10.24-133.12-58.88-189.44-12.8-189.44-12.8 122.88-51.2 232.96 69.12 232.96 69.12-17.92-7.68-48.64-2.56-48.64-2.56-35.84 15.36-56.32 5.12-56.32 5.12 12.8 15.36 64 7.68 64 7.68 20.48-7.68 38.4 2.56 38.4 2.56 23.04 20.48-5.12 20.48-5.12 20.48 25.6 10.24 33.28 48.64 33.28 48.64-7.68 104.96-117.76 158.72-117.76 158.72 53.76-81.92 20.48-130.56 20.48-130.56-17.92-40.96-92.16-58.88-92.16-58.88 74.24 33.28 79.36 76.8 79.36 76.8 7.68 76.8-35.84 122.88-35.84 122.88l-25.6 10.24c17.92-23.04 15.36-64 15.36-64-12.8 53.76-64 79.36-64 79.36 17.92-28.16 15.36-53.76 15.36-53.76-5.12 25.6-46.08 56.32-46.08 56.32-17.92 23.04-135.68 51.2-145.92 51.2-5.12 0-30.72 7.68-46.08 15.36-28.16-81.92 81.92-199.68 81.92-199.68 38.4-25.6 48.64-74.24 48.64-74.24z m-220.16 161.28c-12.8 145.92 35.84 143.36 35.84 143.36-56.32-38.4-5.12-199.68-5.12-199.68 15.36-38.4 17.92 0 17.92 0-23.04 43.52-15.36 84.48-15.36 84.48 12.8-102.4 107.52-115.2 107.52-115.2-69.12 99.84-64 204.8-64 204.8h2.56c-7.68 0-10.24 2.56-10.24 2.56-20.48-56.32 0-130.56 0-130.56-35.84 38.4-15.36 156.16-15.36 156.16-2.56 7.68-12.8 2.56-12.8 2.56-10.24 0-28.16 38.4-28.16 38.4-5.12 0-12.8-17.92-12.8-17.92-5.12 12.8 0 17.92 0 17.92 5.12 30.72 2.56 25.6 2.56 25.6-5.12 2.56-10.24-15.36-10.24-15.36-7.68 15.36 2.56 33.28 2.56 33.28l-2.56 15.36s-46.08-64-66.56-130.56c20.48-56.32 74.24-115.2 74.24-115.2z m-87.04 92.16s-5.12 33.28 79.36 168.96c0 15.36 0 30.72 2.56 46.08 0 0-61.44-56.32-76.8-158.72 0 0-7.68-48.64-5.12-56.32z m934.4 115.2s-17.92-20.48-23.04-10.24l17.92 15.36s0 30.72-35.84 33.28c0 0-12.8 17.92-53.76 17.92 0 0-25.6 2.56-33.28 10.24 0 0-10.24 7.68-46.08 5.12 0 0 10.24 5.12 30.72 5.12 0 0 12.8-2.56 15.36 2.56 0 0 20.48 7.68 20.48 10.24s53.76-30.72 74.24 0c0 0 5.12 10.24 10.24 10.24 0 0 2.56 12.8 0 15.36s-10.24-7.68-10.24 0c0 0 17.92 2.56 10.24 23.04 0 0-15.36 23.04-35.84 5.12 0 0-28.16 5.12-35.84 0 0 0-23.04 74.24-138.24 53.76 0 0-46.08-10.24-66.56-76.8 0 0-28.16-120.32-140.8-89.6 0 0 71.68-5.12 104.96 40.96 0 0 25.6 20.48 40.96 81.92 0 0 17.92 43.52 64 51.2 0 0 33.28 2.56 10.24 46.08 0 0-12.8 20.48-40.96 35.84 0 0-10.24 5.12-7.68 12.8 0 0-2.56 15.36 12.8 2.56 0 0 58.88-33.28 76.8 12.8 0 0 5.12 10.24 0 12.8 0 0-5.12 0-7.68-5.12 0 0-5.12-12.8-12.8-10.24 0 0 15.36 10.24 10.24 30.72 0 0-12.8 15.36-17.92 0 0 0 5.12-28.16-15.36-23.04 0 0 20.48 15.36 5.12 30.72 0 0-7.68 5.12-23.04 2.56 0 0-7.68-10.24-46.08 0h-332.8s-174.08-2.56-276.48-156.16c0 0-46.08-84.48-48.64-140.8L76.8 742.4l-33.28-81.92v-56.32c0-10.24 2.56-20.48 2.56-25.6 2.56-10.24 12.8 79.36 89.6 176.64 10.24 40.96 30.72 66.56 30.72 66.56-20.48 0-48.64-28.16-48.64-28.16 30.72 48.64 76.8 61.44 76.8 61.44 61.44 51.2 122.88 64 122.88 64-43.52-10.24-92.16-51.2-92.16-51.2-46.08-35.84-69.12-94.72-69.12-94.72 0-20.48 23.04-56.32 23.04-56.32 30.72-46.08 110.08-58.88 110.08-58.88 46.08-2.56 102.4-12.8 102.4-12.8-12.8 5.12-30.72 43.52-30.72 43.52-2.56 5.12-23.04 7.68-23.04 7.68C248.32 706.56 230.4 742.4 230.4 742.4c15.36-12.8 43.52-23.04 43.52-23.04 15.36-7.68 71.68-10.24 71.68-10.24-23.04 87.04 10.24 156.16 10.24 156.16-30.72-94.72 12.8-163.84 12.8-163.84 56.32-84.48 148.48-102.4 148.48-102.4 33.28-10.24 115.2-30.72 115.2-30.72 56.32-20.48 84.48-58.88 84.48-58.88 12.8-20.48 40.96-33.28 51.2-38.4 0 7.68 5.12 15.36 12.8 20.48 0 0 10.24 2.56 5.12-15.36 0 0-10.24-10.24 5.12-33.28 0 0 17.92-20.48 30.72-23.04 0 0 23.04 17.92 25.6 35.84 0 0 97.28 15.36 110.08 99.84 0 0 2.56 15.36 2.56 20.48 0 0 0 10.24 10.24 25.6 5.12-5.12 20.48 20.48 12.8 33.28z" p-id="4476"></path></svg>