<?xml version="1.0" standalone="no"?><!DOCTYPE svg PUBLIC "-//W3C//DTD SVG 1.1//EN" "http://www.w3.org/Graphics/SVG/1.1/DTD/svg11.dtd"><svg t="1644549214449" class="icon" viewBox="0 0 1024 1024" version="1.1" xmlns="http://www.w3.org/2000/svg" p-id="5317" xmlns:xlink="http://www.w3.org/1999/xlink" width="128" height="128"><defs><style type="text/css"></style></defs><path d="M396.512 443.968c218.336 0 394.016-73.856 394.016-164.192 0-16.384-4.896-31.168-16.384-45.952-4.896-6.592-9.888-11.488-14.784-18.08-3.296-3.296-6.592-6.592-9.888-8.192-3.296-3.296-8.192-6.592-13.088-9.888-3.296-1.6-6.592-4.896-9.888-6.592-6.592-4.896-14.784-8.192-21.376-13.088-14.784-8.192-32.896-14.784-50.848-22.976a515.136 515.136 0 0 0-59.04-18.08c-13.088-3.296-27.872-6.592-42.656-9.888a832.416 832.416 0 0 0-116.512-13.088c-13.088 1.6-26.272 1.6-39.36 1.6s-26.272 0-41.088 1.6a844.8 844.8 0 0 0-116.512 13.088c-14.784 3.296-29.568 4.896-42.656 8.192-19.68 4.896-39.36 9.888-57.472 16.384-18.08 6.592-32.896 13.088-47.552 19.68-4.896 3.296-11.488 6.592-16.384 9.888-16.384 9.888-29.568 19.68-41.088 31.168a128.608 128.608 0 0 0-19.68 24.576 72.64 72.64 0 0 0-11.488 39.36c-0.224 90.56 175.456 164.512 393.792 164.512z m394.016 65.632v-105.024c-85.344 68.96-239.744 105.024-394.016 105.024S87.84 473.536 2.496 404.576v105.024c0 81.696 143.584 149.856 332.576 162.144v-116.608c0-6.368 5.248-11.616 11.616-11.616h435.424c5.472-10.912 8.416-22.304 8.416-33.92zM117.408 575.264c-18.08 0-32.896-14.784-32.896-32.896s14.784-32.896 32.896-32.896c18.08 0 32.896 14.784 32.896 32.896s-14.784 32.896-32.896 32.896zM2.496 755.84h1.6c17.76 75.2 154.496 134.496 330.88 145.76v-164.064c-132.768-8.32-258.496-43.36-332.576-103.2v121.504z m114.912-16.384c18.08 0 32.896 14.784 32.896 32.896s-14.784 32.896-32.896 32.896a32.96 32.96 0 0 1-32.896-32.896 33.056 33.056 0 0 1 32.896-32.896z m337.824 92.832c0 7.392-0.896 13.44-2.848 17.984s-4.448 8.064-7.392 10.464a25.664 25.664 0 0 1-9.44 5.568 34.112 34.112 0 0 1-8.64 1.472c-4.448 0-8.64-1.024-12.64-3.072s-7.52-4.544-10.464-7.616l-32.992 26.4c5.248 5.792 12.288 11.616 21.28 17.536 8.864 5.92 20.128 8.864 33.568 8.864 11.488 0 21.632-1.92 30.272-5.792s16.16-9.088 22.4-15.712c12.64-13.44 19.008-30.272 19.008-50.304v-224.256h-42.112v218.464z m143.936-218.464h-62.24v293.536h58.496c25.024 0 44.16-6.496 57.472-19.584s20.032-33.344 20.032-60.768v-137.344c0-24.224-6.272-42.88-18.784-56.096s-30.848-19.808-54.944-19.808z m31.744 217.216c0 12.64-2.496 21.952-7.392 27.872s-13.312 8.864-25.152 8.864h-19.328v-214.368h19.328c12.416 0 20.928 3.2 25.6 9.44 4.672 6.368 7.04 15.232 7.04 26.848v141.312z m200.704-194.56a64.448 64.448 0 0 0-23.328-16.512c-9.44-4.096-20.928-6.144-34.464-6.144h-61.44v293.536h57.344c27.52 0 47.456-6.816 59.968-20.608s18.784-33.568 18.784-59.392v-16.512c0-15.712-2.4-28-7.04-37.088s-11.936-15.936-21.856-20.608c9.664-5.472 16.736-12.064 21.376-19.808 2.496-4.096 4.32-8.864 5.568-14.464 1.248-5.472 1.824-12.16 1.824-20.256v-10.688c0-9.664-1.248-18.88-3.872-27.872a60.704 60.704 0 0 0-12.864-23.68z m-23.456 199.104c-0.576 6.016-2.048 11.264-4.544 15.712s-6.144 7.84-10.912 10.368c-4.768 2.496-11.488 3.744-20.032 3.744h-18.08v-93.984h18.56c7.744 0 13.888 0.896 18.56 2.72s8.416 4.544 11.136 8.416c2.496 3.872 4.096 8.544 4.896 13.984s1.248 11.936 1.248 19.328c0 7.04-0.352 13.664-0.8 19.68z m-6.496-111.968c-4.768 7.04-14.208 10.464-28.224 10.464h-19.008v-80.768h17.28c13.984 0 23.68 3.296 29.024 9.888s8.064 16.512 8.064 29.696c0.128 13.536-2.272 23.776-7.168 30.72z m219.936-25.696v-16.512c0-10.112-1.696-19.584-5.12-28.224s-8.192-16.16-14.208-22.4c-12.416-12.96-28.448-19.328-48.256-19.328-10.112 0-19.456 1.696-27.872 5.12s-15.584 8.192-21.632 14.208c-6.016 6.016-10.688 13.184-13.984 21.376s-4.896 17.184-4.896 26.848v161.568c0 13.44 2.176 24.576 6.368 33.216s9.664 15.712 16.256 21.28c6.592 5.472 13.984 9.344 22.304 11.488s16.384 3.296 24.352 3.296c9.344 0 18.08-1.824 26.176-5.568s15.136-8.768 21.28-15.008c6.016-6.368 10.816-13.536 14.208-21.632s5.12-16.736 5.12-25.728v-18.08h-42.112v14.464c0 5.792-0.8 10.592-2.496 14.464a25.92 25.92 0 0 1-6.144 9.088 27.744 27.744 0 0 1-8.864 4.768c-3.2 0.896-6.144 1.472-8.864 1.472-9.664 0-16.256-2.848-20.032-8.64s-5.568-12.96-5.568-21.376v-150.528c0-9.888 1.696-18.08 5.12-24.576s10.368-9.664 20.832-9.664c7.968 0 14.336 3.072 19.008 9.088s7.04 13.184 7.04 21.376v13.984h41.984z" p-id="5318"></path></svg>