<?xml version="1.0" standalone="no"?><!DOCTYPE svg PUBLIC "-//W3C//DTD SVG 1.1//EN" "http://www.w3.org/Graphics/SVG/1.1/DTD/svg11.dtd"><svg t="1637736116955" class="icon" viewBox="0 0 1024 1024" version="1.1" xmlns="http://www.w3.org/2000/svg" p-id="3467" width="32" height="32" xmlns:xlink="http://www.w3.org/1999/xlink"><defs><style type="text/css"></style></defs><path d="M0 0m72 0l880 0q72 0 72 72l0 880q0 72-72 72l-880 0q-72 0-72-72l0-880q0-72 72-72Z" p-id="3468"></path><path d="M920.472 514.124c0 28.188-22.852 51.04-51.044 51.04-28.188 0-51.04-22.852-51.04-51.04 0-28.192 22.852-51.044 51.04-51.044 28.192 0 51.044 22.852 51.044 51.044" fill="#669CFE" p-id="3469"></path><path d="M815.224 618.124c0 28.188-22.852 51.04-51.044 51.04-28.192 0-51.044-22.852-51.044-51.04 0-28.192 22.852-51.044 51.044-51.044 28.192 0 51.044 22.852 51.044 51.044" fill="#3FE7FE" p-id="3470"></path><path d="M709.804 724.288c0 28.192-22.852 51.044-51.04 51.044-28.192 0-51.044-22.852-51.044-51.044 0-28.188 22.852-51.04 51.044-51.04 28.188 0 51.04 22.852 51.04 51.04" fill="#FFFFFF" p-id="3471"></path><path d="M811.972 409.344c0 26.388-21.392 47.776-47.776 47.776-26.388 0-47.78-21.388-47.78-47.776s21.392-47.78 47.78-47.78c26.384 0 47.776 21.392 47.776 47.78" fill="#669CFE" p-id="3472"></path><path d="M706.952 513.192c0 26.388-21.392 47.78-47.776 47.78-26.388 0-47.78-21.392-47.78-47.78s21.392-47.78 47.78-47.78c26.384 0 47.776 21.392 47.776 47.78" fill="#3FE7FE" p-id="3473"></path><path d="M602.276 618.568c0 26.388-21.388 47.78-47.776 47.78s-47.78-21.392-47.78-47.78 21.392-47.776 47.78-47.776 47.776 21.388 47.776 47.776" fill="#FFFFFF" p-id="3474"></path><path d="M702.972 304.94c0 23.964-19.428 43.396-43.396 43.396s-43.396-19.432-43.396-43.396c0-23.968 19.428-43.396 43.396-43.396s43.396 19.428 43.396 43.396" fill="#669CFE" p-id="3475"></path><path d="M598.088 408.764c0 23.964-19.432 43.396-43.4 43.396-23.964 0-43.396-19.432-43.396-43.396 0-23.968 19.432-43.4 43.396-43.4 23.968 0 43.4 19.432 43.4 43.4" fill="#3FE7FE" p-id="3476"></path><path d="M493.012 514.472c0 23.968-19.428 43.396-43.396 43.396s-43.396-19.428-43.396-43.396c0-23.964 19.428-43.396 43.396-43.396s43.396 19.432 43.396 43.396" fill="#FFFFFF" p-id="3477"></path><path d="M594.472 200.032c0 21.544-17.464 39.008-39.008 39.008-21.544 0-39.008-17.464-39.008-39.008 0-21.548 17.464-39.012 39.008-39.012 21.544 0 39.008 17.464 39.008 39.012" fill="#669CFE" p-id="3478"></path><path d="M489.188 304.356c0 21.544-17.464 39.012-39.008 39.012-21.544 0-39.008-17.468-39.008-39.012s17.464-39.008 39.008-39.008c21.544 0 39.008 17.464 39.008 39.008" fill="#3FE7FE" p-id="3479"></path><path d="M384.24 409.884c0 21.544-17.468 39.008-39.012 39.008s-39.008-17.464-39.008-39.008c0-21.544 17.464-39.012 39.008-39.012 21.544 0 39.012 17.468 39.012 39.012" fill="#FFFFFF" p-id="3480"></path><path d="M380.24 618.884a34.68 34.68 0 1 1-69.352-0.008 34.68 34.68 0 0 1 69.352 0.008m104.5 104.5a34.68 34.68 0 1 1-69.352-0.008 34.68 34.68 0 0 1 69.352 0.008m104.332 104.332a34.676 34.676 0 0 1-34.676 34.676 34.676 34.676 0 0 1-34.676-34.676 34.676 34.676 0 0 1 34.676-34.676 34.676 34.676 0 0 1 34.676 34.676m-208.332 0a34.68 34.68 0 1 1-69.356 0 34.68 34.68 0 0 1 69.356 0m-210.336 0a34.68 34.68 0 1 1-69.348 0 34.68 34.68 0 0 1 69.348 0m104.5-104.5a34.68 34.68 0 1 1-69.348 0 34.68 34.68 0 0 1 69.348 0" fill="#6A9EFE" p-id="3481"></path><path d="M380.688 200.128a36.24 36.24 0 0 1-72.472 0 36.24 36.24 0 1 1 72.472 0" fill="#3FE7FE" p-id="3482"></path><path d="M275.196 306.152a36.24 36.24 0 1 1-72.48 0 36.24 36.24 0 0 1 72.48 0M164.696 198.652a29.24 29.24 0 1 1-58.48 0 29.24 29.24 0 0 1 58.48 0" fill="#FFFFFF" p-id="3483"></path></svg>