<?xml version="1.0" standalone="no"?><!DOCTYPE svg PUBLIC "-//W3C//DTD SVG 1.1//EN" "http://www.w3.org/Graphics/SVG/1.1/DTD/svg11.dtd"><svg t="1644549086927" class="icon" viewBox="0 0 1024 1024" version="1.1" xmlns="http://www.w3.org/2000/svg" p-id="3605" xmlns:xlink="http://www.w3.org/1999/xlink" width="128" height="128"><defs><style type="text/css"></style></defs><path d="M128 128v768h768V128H128zM96 64h832c19.2 0 32 12.8 32 32v832c0 19.2-12.8 32-32 32H96c-19.2 0-32-12.8-32-32V96c0-19.2 12.8-32 32-32z m240 611.2c-35.2 0-67.2-6.4-89.6-9.6v-76.8c19.2 6.4 57.6 12.8 83.2 12.8 38.4 0 41.6-6.4 41.6-25.6 0-12.8-6.4-19.2-44.8-28.8-67.2-16-83.2-38.4-83.2-92.8 0-73.6 48-96 121.6-96 38.4 0 64 6.4 80 12.8v70.4c-12.8-6.4-51.2-9.6-76.8-9.6-28.8 0-38.4 6.4-38.4 22.4 0 12.8 6.4 16 44.8 28.8 76.8 19.2 86.4 44.8 86.4 102.4 3.2 54.4-25.6 89.6-124.8 89.6z m352-249.6c57.6 0 80 25.6 80 83.2V672h-86.4V528c0-28.8-6.4-35.2-35.2-35.2-22.4 0-32 9.6-35.2 22.4V672h-86.4V332.8h86.4v124.8c16-19.2 38.4-32 76.8-32z" p-id="3606"></path></svg>