<svg t="1570863652538" class="icon" viewBox="0 0 1024 1024" version="1.1" xmlns="http://www.w3.org/2000/svg" p-id="5209" width="16" height="16"><path d="M912 128H112c-13.2 0-24 10.8-24 24v608c0 13.2 10.8 24 24 24h320v56h-96c-13.2 0-24 10.8-24 24v32h400v-32c0-13.2-10.8-24-24-24h-96v-56h320c13.2 0 24-10.8 24-24V152c0-13.2-10.8-24-24-24z m-32 576H144.2V184H880v520z" fill="#008CDB" p-id="5210"></path><path d="M232 464h160v160h-160z m200 0h160v160h-160z m200-200h160v160h-160z m0 200h160v160h-160zM232 264h359.8v160H232z" fill="#008CDB" p-id="5211"></path></svg>