<svg t="1570863467689" class="icon" viewBox="0 0 1422 1024" version="1.1" xmlns="http://www.w3.org/2000/svg" p-id="2811" width="16" height="16"><path d="M139.776 76.344889a56.888889 56.888889 0 0 0-56.888889 56.888889V885.191111a56.888889 56.888889 0 0 0 56.888889 56.888889h1137.777778a56.888889 56.888889 0 0 0 56.888889-56.888889V133.233778a56.888889 56.888889 0 0 0-56.888889-56.888889h-1137.777778z m0-56.888889h1137.777778a113.777778 113.777778 0 0 1 113.777778 113.777778V885.191111a113.777778 113.777778 0 0 1-113.777778 113.777778h-1137.777778a113.777778 113.777778 0 0 1-113.777778-113.777778V133.233778a113.777778 113.777778 0 0 1 113.777778-113.777778z" fill="#4489DE" p-id="2812"></path><path d="M376.433778 301.511111c37.148444 22.300444 73.216 43.690667 108.771555 64.284445a6393.628444 6393.628444 0 0 0 165.660445 95.288888l25.144889 16.384c13.425778 8.760889 24.348444 15.132444 32.369777 19.000889 1.820444-0.796444 3.982222-1.877333 6.599112-3.299555 12.970667-5.802667 23.267556-10.922667 29.923555-14.734222l587.320889-349.639112 2.104889-1.991111 0.056889-29.525333a26.908444 26.908444 0 0 0-4.380445-16.839111c0.227556 0.284444-7.111111-1.991111-24.746666-1.991111L110.648889 76.8l-6.087111-0.341333a22.584889 22.584889 0 0 0-16.384 4.778666 37.944889 37.944889 0 0 0-5.176889 22.414223l-0.056889 23.552c108.885333 64.853333 206.620444 122.88 293.546667 174.193777z m957.838222-168.846222c0 2.332444 0.455111-0.568889 1.592889-3.185778l4.892444 2.104889-3.413333-5.802667-3.015111 1.763556v5.12zM82.887111 135.964444a9.102222 9.102222 0 0 0 0-0.967111v0.967111z m-52.849778 18.659556a47.616 47.616 0 0 1-3.982222-21.902222v-29.013334A90.908444 90.908444 0 0 1 45.624889 43.235556 79.758222 79.758222 0 0 1 110.705778 19.911111l1194.666666 1.649778c32.199111 0 54.613333 6.997333 67.072 20.992 13.198222 16.099556 19.911111 36.864 18.773334 57.969778v32.142222a39.765333 39.765333 0 0 1-3.128889 19.399111 199.452444 199.452444 0 0 1-21.674667 22.584889l-592.384 352.711111a409.941333 409.941333 0 0 1-35.84 17.749333 89.201778 89.201778 0 0 1-29.582222 10.467556c-11.434667 0-32.711111-10.183111-63.772444-30.549333l-24.974223-16.213334c-17.635556-9.614222-40.561778-22.471111-68.778666-38.570666-28.216889-16.156444-59.847111-34.645333-95.004445-55.523556-35.271111-20.48-71.623111-41.984-108.999111-64.512C259.811556 298.609778 161.109333 240.071111 51.029333 174.478222a76.003556 76.003556 0 0 1-20.992-19.911111z" fill="#4489DE" p-id="2813"></path><path d="M1016.263111 391.054222l119.694222 207.246222a29.013333 29.013333 0 1 1-50.289777 29.013334L965.973333 420.124444a29.013333 29.013333 0 0 1 50.289778-29.013333zM442.595556 380.416a29.013333 29.013333 0 0 1 10.638222 39.651556l-119.637334 207.303111a29.013333 29.013333 0 1 1-50.346666-29.013334l119.694222-207.303111a29.013333 29.013333 0 0 1 39.651556-10.638222z" fill="#4489DE" p-id="2814"></path></svg>