<?xml version="1.0" standalone="no"?><!DOCTYPE svg PUBLIC "-//W3C//DTD SVG 1.1//EN" "http://www.w3.org/Graphics/SVG/1.1/DTD/svg11.dtd"><svg class="icon" width="200px" height="200.00px" viewBox="0 0 1024 1024" version="1.1" xmlns="http://www.w3.org/2000/svg"><path d="M850 85.1H174.3C113.4 85.1 64 134.5 64 195.4v496.5c0 60.9 49.4 110.3 110.3 110.3h303.4v69H257c-15.2 0-27.6 12.4-27.6 27.6v13.8c0 15.2 12.3 27.6 27.6 27.6h496.5c15.2 0 27.6-12.4 27.6-27.6v-13.8c0-15.2-12.3-27.6-27.6-27.6H546.6v-69H850c60.9 0 110.3-49.4 110.3-110.3V195.4C960.4 134.5 911 85.1 850 85.1z m41.4 593c0 30.5-24.7 55.2-55.2 55.2H188c-30.5 0-55.2-24.7-55.2-55.2V209.2c0-30.5 24.7-55.2 55.2-55.2h648.2c30.5 0 55.2 24.7 55.2 55.2v468.9z" fill="#879BFC" /><path d="M767.3 236.8c7.6 0 13.8-6.2 13.8-13.8 0-7.6-6.2-13.8-13.8-13.8-7.6 0-13.8 6.2-13.8 13.8 0 7.6 6.2 13.8 13.8 13.8z m55.1 96.5c-7.6 0-13.8 6.2-13.8 13.8v289.6c0 7.6-6.2 13.8-13.8 13.8H229.4c-7.6 0-13.8-6.2-13.8-13.8V250.6c0-7.6 6.2-13.8 13.8-13.8h468.9c7.6 0 13.8-6.2 13.8-13.8 0-7.6-6.2-13.8-13.8-13.8H229.4c-22.9 0-41.4 18.5-41.4 41.4v386.2c0 22.8 18.5 41.4 41.4 41.4h565.4c22.9 0 41.4-18.5 41.4-41.4V347.1c0-7.6-6.1-13.8-13.8-13.8z" fill="#FFB400" /></svg>