<svg xmlns="http://www.w3.org/2000/svg" xmlns:xlink="http://www.w3.org/1999/xlink" fill="none" version="1.1" width="1024" height="1024" viewBox="0 0 1024 1024"><defs><clipPath id="master_svg0_0_131"><rect x="0" y="0" width="1024" height="1024" rx="0"/></clipPath><clipPath id="master_svg1_0_132"><rect x="113" y="77" width="798" height="870" rx="0"/></clipPath></defs><g clip-path="url(#master_svg0_0_131)"><rect x="0" y="0" width="1024" height="1024" rx="0" fill="#FFFFFF" fill-opacity="1"/><g clip-path="url(#master_svg1_0_132)"><g><path d="M113.426025390625,704.9164794921875L113.426025390625,283.2664794921875L177.426025390625,283.2664794921875L177.426025390625,704.9164794921875L113.426025390625,704.9164794921875Z" fill-rule="evenodd" fill="#323232" fill-opacity="1"/></g><g><path d="M796.41357421875,290.1041259765625L796.41357421875,625.1451259765624Q796.41357421875,625.9301259765625,796.45207421875,626.7151259765625Q796.49067421875,627.4991259765625,796.56767421875,628.2811259765625Q796.64467421875,629.0631259765626,796.75997421875,629.8401259765625Q796.87517421875,630.6171259765624,797.02847421875,631.3871259765625Q797.18167421875,632.1581259765625,797.37257421875,632.9201259765625Q797.56347421875,633.6821259765625,797.79147421875,634.4341259765624Q798.01947421875,635.1851259765625,798.28417421875,635.9251259765625Q798.54877421875,636.6651259765624,798.84947421875,637.3901259765626Q799.15007421875,638.1161259765624,799.48587421875,638.8261259765625Q799.82177421875,639.5361259765625,800.19207421875,640.2291259765625Q800.56237421875,640.9221259765625,800.96627421875,641.5961259765625Q801.37007421875,642.2701259765624,801.80657421875,642.9231259765625Q802.24297421875,643.5761259765625,802.71097421875,644.2071259765626Q803.17887421875,644.8381259765624,803.67727421875,645.4451259765625Q804.17557421875,646.0521259765625,804.70317421875,646.6341259765625Q805.23067421875,647.2171259765626,805.78617421875,647.7721259765625Q806.34167421875,648.3271259765625,806.92367421875,648.8551259765625Q807.50577421875,649.3831259765625,808.11297421875,649.8811259765625Q808.72027421875,650.3791259765625,809.35117421875,650.8471259765624Q809.98217421875,651.3151259765625,810.63537421875,651.7521259765625Q811.28847421875,652.1881259765626,811.96227421875,652.5921259765626Q812.63607421875,652.9961259765626,813.32887421875,653.3661259765624Q814.02167421875,653.7361259765626,814.73177421875,654.0721259765626Q815.44197421875,654.4081259765625,816.16767421875,654.7091259765625Q816.89347421875,655.0091259765625,817.63307421875,655.2741259765626Q818.37277421875,655.5391259765624,819.12446421875,655.7671259765625Q819.87619421875,655.9951259765626,820.63820421875,656.1861259765625Q821.40022421875,656.3761259765624,822.17068421875,656.5301259765624Q822.94114421875,656.6831259765625,823.71820421875,656.7981259765625Q824.49525421875,656.9131259765625,825.27702421875,656.9901259765625Q826.05880421875,657.0681259765624,826.84340421875,657.1061259765625Q827.62801821875,657.1451259765624,828.41357421875,657.1451259765624Q829.19913021875,657.1451259765624,829.98374421875,657.1061259765625Q830.76834421875,657.0681259765624,831.55012421875,656.9911259765624Q832.33189421875,656.9141259765624,833.10894421875,656.7981259765625Q833.88600421875,656.6831259765625,834.65646421875,656.5301259765624Q835.42692421875,656.3761259765624,836.18894421875,656.1861259765625Q836.95095421875,655.9951259765626,837.70268421875,655.7671259765625Q838.45437421875,655.5391259765624,839.19407421875,655.2741259765626Q839.93367421875,655.0091259765625,840.65947421875,654.7091259765625Q841.38517421875,654.4081259765625,842.09537421875,654.0721259765626Q842.80547421875,653.7361259765626,843.49827421875,653.3661259765624Q844.19107421875,652.9961259765626,844.86487421875,652.5921259765626Q845.53867421875,652.1881259765626,846.19177421875,651.7521259765625Q846.84497421875,651.3151259765625,847.47597421875,650.8471259765624Q848.10687421875,650.3791259765625,848.71417421875,649.8811259765625Q849.32137421875,649.3831259765625,849.90347421875,648.8551259765625Q850.48547421875,648.3271259765625,851.04097421875,647.7721259765625Q851.59647421875,647.2171259765626,852.12397421875,646.6341259765625Q852.65157421875,646.0521259765625,853.14987421875,645.4451259765625Q853.64827421875,644.8381259765624,854.11617421875,644.2071259765626Q854.58417421875,643.5761259765625,855.02057421875,642.9231259765625Q855.45707421875,642.2701259765624,855.86087421875,641.5961259765625Q856.26477421875,640.9221259765625,856.63507421875,640.2291259765625Q857.00537421875,639.5361259765625,857.34127421875,638.8261259765625Q857.67707421875,638.1161259765624,857.97767421875,637.3901259765626Q858.27837421875,636.6651259765624,858.54297421875,635.9251259765625Q858.80767421875,635.1851259765625,859.03567421875,634.4341259765624Q859.26367421875,633.6821259765625,859.45457421875,632.9201259765625Q859.64547421875,632.1581259765625,859.79867421875,631.3871259765625Q859.95197421875,630.6171259765624,860.06717421875,629.8401259765625Q860.18247421875,629.0631259765626,860.25947421875,628.2811259765625Q860.33647421875,627.4991259765625,860.37507421875,626.7151259765625Q860.41357421875,625.9301259765625,860.41357421875,625.1451259765624L860.41357421875,290.1041259765625L796.41357421875,290.1041259765625Z" fill-rule="evenodd" fill="#323232" fill-opacity="1"/></g><g><path d="M486.920025390625,907.855259765625Q541.449025390625,907.855259765625,593.1400253906249,899.828259765625Q593.840025390625,899.720259765625,594.5350253906249,899.580259765625Q595.229025390625,899.440259765625,595.917025390625,899.270259765625Q596.605025390625,899.100259765625,597.284025390625,898.900259765625Q597.964025390625,898.699259765625,598.6340253906251,898.469259765625Q599.3040253906249,898.238259765625,599.963025390625,897.979259765625Q600.622025390625,897.719259765625,601.2690253906251,897.430259765625Q601.916025390625,897.141259765625,602.550025390625,896.824259765625Q603.1830253906251,896.507259765625,603.802025390625,896.1632597656251Q604.421025390625,895.818259765625,605.024025390625,895.446259765625Q605.627025390625,895.074259765625,606.213025390625,894.676259765625Q606.799025390625,894.278259765625,607.367025390625,893.854259765625Q607.935025390625,893.430259765625,608.483025390625,892.982259765625Q609.032025390625,892.5342597656249,609.560025390625,892.061259765625Q610.088025390625,891.589259765625,610.595025390625,891.094259765625Q611.1020253906249,890.599259765625,611.5860253906251,890.0822597656249Q612.070025390625,889.564259765625,612.531025390625,889.026259765625Q612.992025390625,888.488259765625,613.4290253906249,887.930259765625Q613.8650253906251,887.373259765625,614.277025390625,886.796259765625Q614.6890253906249,886.219259765625,615.074025390625,885.6252597656251Q615.460025390625,885.030259765625,615.819025390625,884.420259765625Q616.178025390625,883.809259765625,616.5090253906251,883.183259765625Q616.841025390625,882.557259765625,617.1440253906251,881.916259765625Q617.4480253906249,881.276259765625,617.723025390625,880.623259765625Q617.998025390625,879.970259765625,618.243025390625,879.306259765625Q618.489025390625,878.641259765625,618.705025390625,877.9672597656249Q618.921025390625,877.292259765625,619.107025390625,876.608259765625Q619.293025390625,875.925259765625,619.449025390625,875.233259765625Q619.604025390625,874.542259765625,619.729025390625,873.845259765625Q619.854025390625,873.147259765625,619.9480253906249,872.445259765625Q620.042025390625,871.743259765625,620.104025390625,871.037259765625Q620.167025390625,870.331259765625,620.1980253906249,869.624259765625Q620.230025390625,868.916259765625,620.230025390625,868.2072597656249Q620.230025390625,867.422259765625,620.191025390625,866.637259765625Q620.153025390625,865.853259765625,620.076025390625,865.071259765625Q619.999025390625,864.289259765625,619.883025390625,863.512259765625Q619.768025390625,862.735259765625,619.6150253906251,861.964259765625Q619.4610253906251,861.194259765625,619.271025390625,860.432259765625Q619.080025390625,859.670259765625,618.8520253906249,858.918259765625Q618.624025390625,858.166259765625,618.359025390625,857.427259765625Q618.094025390625,856.687259765625,617.7940253906249,855.961259765625Q617.493025390625,855.2362597656249,617.157025390625,854.526259765625Q616.821025390625,853.815259765625,616.451025390625,853.123259765625Q616.081025390625,852.430259765625,615.677025390625,851.756259765625Q615.273025390625,851.0822597656249,614.8370253906251,850.429259765625Q614.4000253906249,849.776259765625,613.932025390625,849.145259765625Q613.464025390625,848.514259765625,612.966025390625,847.907259765625Q612.4680253906249,847.299259765625,611.940025390625,846.7172597656249Q611.412025390625,846.135259765625,610.857025390625,845.580259765625Q610.302025390625,845.024259765625,609.719025390625,844.497259765625Q609.137025390625,843.969259765625,608.530025390625,843.4712597656251Q607.9230253906251,842.973259765625,607.292025390625,842.5052597656249Q606.661025390625,842.037259765625,606.008025390625,841.600259765625Q605.355025390625,841.164259765625,604.681025390625,840.760259765625Q604.007025390625,840.356259765625,603.3140253906249,839.9862597656249Q602.6210253906249,839.616259765625,601.911025390625,839.280259765625Q601.201025390625,838.944259765625,600.475025390625,838.643259765625Q599.7500253906251,838.343259765625,599.0100253906251,838.078259765625Q598.270025390625,837.8132597656249,597.5190253906251,837.585259765625Q596.767025390625,837.357259765625,596.005025390625,837.166259765625Q595.243025390625,836.975259765625,594.472025390625,836.822259765625Q593.7020253906251,836.6692597656249,592.925025390625,836.554259765625Q592.148025390625,836.4382597656249,591.366025390625,836.3612597656249Q590.584025390625,836.2842597656249,589.800025390625,836.246259765625Q589.0150253906249,836.2072597656249,588.230025390625,836.2072597656249Q585.7600253906251,836.2072597656249,583.319025390625,836.586259765625Q536.5100253906251,843.855259765625,486.920025390625,843.855259765625Q453.636025390625,843.855259765625,421.358025390625,840.549259765625Q390.012025390625,837.338259765625,360.623025390625,831.116259765625Q331.969025390625,825.049259765625,306.239025390625,816.348259765625Q281.082025390625,807.841259765625,259.771025390625,797.1732597656251Q238.97182539062499,786.761959765625,222.79822539062502,774.778459765625Q207.201125390625,763.222059765625,196.704825390625,750.800059765625Q177.426025390625,727.984259765625,177.426025390625,704.916234420125L113.426025390625,704.916224075925Q113.426025390625,728.683059765625,122.74342539062499,751.475259765625Q131.418825390625,772.696959765625,147.819765390625,792.106859765625Q163.119825390625,810.214259765625,184.697325390625,826.201259765625Q205.34502539062498,841.5002597656251,231.123525390625,854.403259765625Q256.390025390625,867.051259765625,285.736025390625,876.975259765625Q315.031025390625,886.882259765625,347.36702539062503,893.728259765625Q380.095025390625,900.657259765625,414.836025390625,904.216259765625Q450.367025390625,907.855259765625,486.920025390625,907.855259765625Z" fill-rule="evenodd" fill="#323232" fill-opacity="1"/></g><g><path d="M196.704825390625,538.83546015625Q177.426025390625,516.01976015625,177.426025390625,492.95166015625L113.426025390625,492.95166015625Q113.426025390625,516.71856015625,122.74342539062499,539.51066015625Q131.418825390625,560.73236015625,147.819765390625,580.14226015625Q163.11992539062499,598.24966015625,184.697325390625,614.23666015625Q205.34502539062498,629.5356601562501,231.123525390625,642.43866015625Q256.390025390625,655.08666015625,285.736025390625,665.01066015625Q315.031025390625,674.91766015625,347.36702539062503,681.76366015625Q380.095025390625,688.69266015625,414.836025390625,692.25166015625Q450.367025390625,695.89066015625,486.920025390625,695.89066015625Q523.472025390625,695.89066015625,559.003025390625,692.25166015625Q593.744025390625,688.69266015625,626.473025390625,681.76366015625Q658.808025390625,674.91766015625,688.103025390625,665.01066015625Q717.450025390625,655.08666015625,742.716025390625,642.43866015625Q768.494025390625,629.5356601562501,789.142025390625,614.23666015625Q810.720025390625,598.24966015625,826.020025390625,580.14226015625Q842.421025390625,560.73226015625,851.096025390625,539.51066015625Q860.414025390625,516.71836015625,860.414025390625,492.95162963865L796.414025390625,492.95162963865Q796.414025390625,516.01966015625,777.135025390625,538.83546015625Q766.638025390625,551.25746015625,751.041025390625,562.81386015625Q734.868025390625,574.79726015625,714.069025390625,585.2086601562501Q692.757025390625,595.87666015625,667.601025390625,604.38366015625Q641.8710253906249,613.08466015625,613.216025390625,619.15166015625Q583.8270253906251,625.37366015625,552.482025390625,628.58466015625Q520.203025390625,631.89066015625,486.920025390625,631.89066015625Q453.636025390625,631.89066015625,421.358025390625,628.58466015625Q390.012025390625,625.37366015625,360.623025390625,619.15166015625Q331.969025390625,613.08466015625,306.239025390625,604.38366015625Q281.082025390625,595.87666015625,259.771025390625,585.2086601562501Q238.97182539062499,574.79736015625,222.79822539062502,562.81386015625Q207.201125390625,551.25746015625,196.704825390625,538.83546015625Z" fill-rule="evenodd" fill="#323232" fill-opacity="1"/></g><g><ellipse cx="486.9197998046875" cy="285.54571533203125" rx="341.4937744140625" ry="172.07867431640625" fill-opacity="0" stroke-opacity="1" stroke="#323232" fill="none" stroke-width="64"/></g><g transform="matrix(0.7071067690849304,-0.7071067690849304,0.7071067690849304,0.7071067690849304,-386.917688833375,816.7788797455723)"><rect x="792.48046875" y="875.4404296875" width="64" height="120" rx="32" fill="#323232" fill-opacity="1"/></g><g transform="matrix(0.7071067690849304,-0.7071067690849304,0.7071067690849304,0.7071067690849304,-394.4692025752447,667.0781950382807)"><ellipse cx="728" cy="929.70556640625" rx="88" ry="88" fill-opacity="0" stroke-opacity="1" stroke="#323232" fill="none" stroke-width="64"/></g></g></g></svg>