<?xml version="1.0" standalone="no"?><!DOCTYPE svg PUBLIC "-//W3C//DTD SVG 1.1//EN" "http://www.w3.org/Graphics/SVG/1.1/DTD/svg11.dtd"><svg t="1572860526381" class="icon" viewBox="0 0 1024 1024" version="1.1" xmlns="http://www.w3.org/2000/svg" p-id="46611" xmlns:xlink="http://www.w3.org/1999/xlink" width="200" height="200"><defs><style type="text/css"></style></defs><path d="M913.646148 253.159814 762.965334 508.215814c-23.775496 40.234353-76.410274 54.039777-117.604488 30.773887l-37.294394-21.028942 43.079144-72.862471 0 0c20.580734 11.631922 46.914496 4.729721 58.802244-15.403828l107.600647-182.190459c11.888771-20.101827 4.826935-45.859467-15.754822-57.459666l-149.115156-84.144422c-20.579711-11.631922-46.913473-4.730745-58.802244 15.402805L486.243895 303.461453c-11.888771 20.133549-4.824889 45.859467 15.754822 57.492412l-43.047422 72.863495-37.262672-21.027919c-41.194214-23.233144-55.287187-74.68498-31.509644-114.952078L540.828071 42.783409c23.775496-40.234353 76.441996-54.0408 117.604488-30.806633l223.702921 126.231983C923.298995 161.441902 937.423691 212.892715 913.646148 253.159814zM404.370189 694.527127c-20.580734-11.630898-27.643594-37.358863-15.754822-57.491389L560.804031 345.550037c11.887748-20.133549 38.22151-27.004027 58.802244-15.403828 20.612457 11.632945 27.641547 37.357839 15.754822 57.492412L463.172433 679.124322C451.282638 699.225125 424.981622 706.127326 404.370189 694.527127zM372.858498 579.575048 372.858498 579.575048c-20.580734-11.632945-46.914496-4.730745-58.802244 15.404852L206.423885 777.170358c-11.855002 20.100804-4.824889 45.826721 15.755846 57.459666l149.145855 84.111676c20.581758 11.632945 46.914496 4.730745 58.802244-15.33936l107.633393-182.192505c11.887748-20.132526 4.824889-45.890166-15.787568-57.491389l0 0 43.047422-72.863495 37.293371 21.029966c41.194214 23.232121 55.286164 74.683956 31.510668 114.951055L483.176023 981.889927c-23.775496 40.267099-76.441996 54.0715-117.636211 30.807656L141.869636 886.464577c-41.194214-23.201421-55.287187-74.683956-31.510668-114.951055l150.681838-255.053953c23.744797-40.235376 76.410274-54.041824 117.604488-30.807656l37.262672 21.059642L372.858498 579.575048z" p-id="46612" fill="#00B0F0"></path></svg>