<?xml version="1.0" standalone="no"?><!DOCTYPE svg PUBLIC "-//W3C//DTD SVG 1.1//EN" "http://www.w3.org/Graphics/SVG/1.1/DTD/svg11.dtd"><svg t="1572859461581" class="icon" viewBox="0 0 1024 1024" version="1.1" xmlns="http://www.w3.org/2000/svg" p-id="27406" xmlns:xlink="http://www.w3.org/1999/xlink" width="200" height="200"><defs><style type="text/css"></style></defs><path d="M476.707293 597.316284c8.8999 0 17.7998-0.102298 26.495105-0.306893C550.463936 490.61978 657.058142 416.351648 781.042957 416.351648c47.056943 0 91.658741 10.741259 131.35025 29.768632 7.774625-13.605594 11.866533-27.313487 11.866533-40.816783v-117.642358c-76.518681 81.838162-248.071928 139.022577-447.552447 139.022577S105.775824 369.601598 29.257143 287.661139v117.642358c0 90.84036 183.726673 192.012787 447.45015 192.012787z" p-id="27407" data-spm-anchor-id="a313x.7781069.0.i20" class="selected" fill="#0099CC"></path><path d="M476.707293 384.025574c263.723477 0 447.552448-101.172428 447.552447-192.012787S740.533067 0 476.707293 0 29.257143 101.172428 29.257143 192.012787s183.726673 192.012787 447.45015 192.012787zM476.707293 810.709291c4.705694 0 9.411389 0 14.117083-0.102298-8.8999-28.541059-13.707892-58.923477-13.707892-90.431169 0-27.824975 3.785015-54.729271 10.741258-80.201398-3.682717 0-7.467732 0.102298-11.150449 0.102297-199.480519 0-371.033766-57.082118-447.552448-139.022577v117.744655c0.102298 90.738062 183.828971 191.91049 447.552448 191.91049z" p-id="27408" data-spm-anchor-id="a313x.7781069.0.i19" class="selected" fill="#0099CC"></path><path d="M507.703497 852.855944c-10.22977 0.306893-20.561838 0.511489-30.893907 0.511489-199.480519 0-371.033766-57.082118-447.552447-139.022578v117.642358c0 90.84036 183.726673 192.012787 447.552447 192.012787 71.710689 0 137.488112-7.467732 195.184016-20.152647-72.017582-27.722677-130.838761-82.042757-164.290109-150.991409z" p-id="27409" data-spm-anchor-id="a313x.7781069.0.i21" class="selected" fill="#0099CC"></path><path d="M751.478921 908.505894c-112.527473 0-204.083916-91.556444-204.083916-204.083916s91.556444-204.083916 204.083916-204.083916 204.083916 91.556444 204.083916 204.083916-91.556444 204.083916-204.083916 204.083916z m0-367.248751c-89.91968 0-163.164835 73.245155-163.164835 163.164835s73.245155 163.164835 163.164835 163.164835 163.164835-73.245155 163.164835-163.164835S841.398601 541.257143 751.478921 541.257143z" p-id="27410" data-spm-anchor-id="a313x.7781069.0.i22" class="selected" fill="#0099CC"></path><path d="M911.881718 965.894905c-9.718282 5.830969-22.300899 2.65974-28.02957-6.956244l-38.463936-63.936064c-5.830969-9.718282-2.65974-22.300899 6.956244-28.02957 9.718282-5.830969 22.300899-2.65974 28.02957 6.956244l38.463936 63.936064c5.933267 9.615984 2.762038 22.198601-6.956244 28.02957z" p-id="27411"></path></svg>