<?xml version="1.0" standalone="no"?><!DOCTYPE svg PUBLIC "-//W3C//DTD SVG 1.1//EN" "http://www.w3.org/Graphics/SVG/1.1/DTD/svg11.dtd"><svg t="1572859857370" class="icon" viewBox="0 0 1024 1024" version="1.1" xmlns="http://www.w3.org/2000/svg" p-id="38297" xmlns:xlink="http://www.w3.org/1999/xlink" width="200" height="200"><defs><style type="text/css"></style></defs><path d="M839.68 76.8H207.36C143.36 76.8 94.72 128 94.72 189.44v514.56c0 61.44 51.2 112.64 112.64 112.64h158.72l110.08 115.2c10.24 10.24 23.04 15.36 35.84 15.36s28.16-5.12 35.84-15.36l110.08-115.2h158.72c61.44 0 112.64-51.2 112.64-112.64v-537.6c0-48.64-40.96-89.6-89.6-89.6zM335.36 486.4c-20.48 0-38.4-17.92-38.4-38.4s17.92-38.4 38.4-38.4 38.4 17.92 38.4 38.4-17.92 38.4-38.4 38.4z m176.64 0c-20.48 0-38.4-17.92-38.4-38.4S491.52 409.6 512 409.6s38.4 17.92 38.4 38.4S532.48 486.4 512 486.4z m176.64 0c-20.48 0-38.4-17.92-38.4-38.4s17.92-38.4 38.4-38.4 38.4 17.92 38.4 38.4-17.92 38.4-38.4 38.4z" fill="#0099CC" p-id="38298"></path></svg>