<?xml version="1.0" standalone="no"?><!DOCTYPE svg PUBLIC "-//W3C//DTD SVG 1.1//EN" "http://www.w3.org/Graphics/SVG/1.1/DTD/svg11.dtd"><svg t="1638848383035" class="icon" viewBox="0 0 1024 1024" version="1.1" xmlns="http://www.w3.org/2000/svg" p-id="4189" xmlns:xlink="http://www.w3.org/1999/xlink" width="36" height="36"><defs><style type="text/css"></style></defs><path d="M700.12 527a360.08 360.08 0 0 1 58.35-170.57A91 91 0 1 0 801.57 185c-49.42-0.3-90.41 39.46-91.55 88.86a90.53 90.53 0 0 0 8.83 41.27A415.7 415.7 0 0 0 644 527H540V256.59a91.15 91.15 0 0 0 63-88.12c-0.8-48.06-39.4-87.56-87.43-89.4A91 91 0 0 0 484 256.59V527H380a415.7 415.7 0 0 0-74.87-211.87 90.53 90.53 0 0 0 8.87-41.27c-1.14-49.4-42.13-89.16-91.55-88.86a91 91 0 1 0 43.1 171.43A360.08 360.08 0 0 1 323.88 527H144a32 32 0 0 0-32 32v287a32 32 0 0 0 32 32h736a32 32 0 0 0 32-32V559a32 32 0 0 0-32-32z m66-253.24A35 35 0 1 1 801 311a34.66 34.66 0 0 1-6.56-0.62A35 35 0 0 1 766 276c0-0.75 0-1.5 0.07-2.24z m-536.56 36.62a34.66 34.66 0 0 1-6.56 0.62 35 35 0 1 1 34.93-37.24c0.05 0.74 0.07 1.49 0.07 2.24a35 35 0 0 1-28.44 34.38zM477 170a35 35 0 1 1 10.5 25 35 35 0 0 1-10.5-25z m379 652H168V583h688z" fill="#2d77ee" p-id="4190"></path><path d="M353 702m-33 0a33 33 0 1 0 66 0 33 33 0 1 0-66 0Z" fill="#2d77ee" p-id="4191"></path><path d="M512 702m-33 0a33 33 0 1 0 66 0 33 33 0 1 0-66 0Z" fill="#2d77ee" p-id="4192"></path><path d="M671 702m-33 0a33 33 0 1 0 66 0 33 33 0 1 0-66 0Z" fill="#2d77ee" p-id="4193"></path></svg>
