<?xml version="1.0" standalone="no"?><!DOCTYPE svg PUBLIC "-//W3C//DTD SVG 1.1//EN" "http://www.w3.org/Graphics/SVG/1.1/DTD/svg11.dtd"><svg t="1573026512962" class="icon" viewBox="0 0 1024 1024" version="1.1" xmlns="http://www.w3.org/2000/svg" p-id="101859" xmlns:xlink="http://www.w3.org/1999/xlink" width="200" height="200"><defs><style type="text/css"></style></defs><path d="M44.86656 324.00384h86.2464c2.11456-86.912 34.59584-158.70464 103.16288-212.39808 54.00576-42.31168 116.51072-55.35744 184.30976-50.11968v105.216c-2.36544 0-4.5824-0.09216-6.79936 0-18.05312 0.78336-36.24448 0.40448-54.0928 2.70336-27.8016 3.584-51.87072 16.34816-72.79616 34.80576-26.44992 23.33184-43.03872 52.55168-50.31424 86.93248-2.21184 10.45504-2.83648 21.23264-4.25984 32.44032h78.02368C263.936 375.5008 220.38016 426.41408 176.4352 477.76256 132.60288 426.53184 89.10848 375.69536 44.86656 324.00384zM485.85216 954.12736c-9.10848 6.90688-19.63008 9.5232-30.8224 9.53344-111.04256 0.03584-222.08512 0.10752-333.12256-0.0256-24.91392-0.03584-42.57792-13.44-48.96768-36.59776-1.27488-4.61824-1.73568-9.61536-1.73568-14.41792-0.09728-98.67776-0.09728-197.376-0.06656-296.064 0.01536-24.92416 13.37856-43.03872 36.72064-49.41824 5.12-1.38752 10.65472-1.73568 15.98464-1.75104 54.83008-0.10752 109.65504-0.09216 164.47488-0.09216 54.99392 0 109.99808 0.03072 165.00224 0 12.30848 0 23.76704 2.6112 33.6384 10.48064 11.2384 8.97024 17.2544 20.64384 18.40128 34.90304 0.1536 1.88416 0.18432 3.80928 0.18432 5.7344 0.01024 98.67264-0.01536 197.36064 0.04608 296.05376 0.01536 17.09056-5.94432 31.20128-19.7376 41.66144zM526.44864 448.80896c-13.3376-10.03008-19.7632-23.67488-19.79904-40.064-0.10752-99.73248-0.14848-199.45984 0.03584-299.20256 0.03584-24.03328 14.21312-41.96352 37.22752-47.93344 4.80768-1.24928 9.97888-1.54112 14.98112-1.55648 110.00832-0.08704 220.00128-0.0512 329.99936-0.06656 21.07904 0 37.76 8.0128 47.0016 27.53536 3.13856 6.70208 4.92032 14.68416 4.95104 22.08768 0.31232 99.72736 0.27136 199.45472 0.15872 299.1872-0.03072 23.7824-13.77792 41.58464-36.68992 47.81056-5.12 1.38752-10.65984 1.69984-16.01024 1.69984-54.8096 0.12288-109.63968 0.07168-164.46976 0.07168h-164.98176c-11.76064-0.01024-22.80448-2.36544-32.40448-9.56928zM904.97024 700.50304c-2.51904 90.40384-37.22752 164.0448-110.44864 217.61024-52.61824 38.49728-112.67072 49.73056-177.07008 44.8256v-105.32864c10.25024 0 20.31104 0.37888 30.34112-0.08704 11.42784-0.54784 23.06048-0.74752 34.21184-3.01056 42.24-8.59136 74.61888-32.02048 97.83808-68.0192 16.62976-25.74336 24.61184-54.2464 25.12896-85.53984h-77.46048c44.57984-52.08576 88.13056-102.9888 132.08064-154.34752 43.90912 51.30752 87.3984 102.14912 131.70176 153.90208l-86.3232-0.00512z" fill="#66CC99" p-id="101860"></path></svg>