<?xml version="1.0" encoding="UTF-8"?>
<svg width="22px" height="22px" viewBox="0 0 22 22" version="1.1" xmlns="http://www.w3.org/2000/svg" xmlns:xlink="http://www.w3.org/1999/xlink">
    <title>编组 3</title>
    <defs>
        <path d="M0.7935,0 L0.7935,2.38924051 C0.7935,2.73596588 0.5985,3.0833792 0.2065,3.3489268 L0.2065,0.959686296" id="path-1"></path>
        <path d="M0.7935,0 L0.7935,2.38924051 C0.7935,2.73596588 0.5985,3.0833792 0.2065,3.3489268 L0.2065,0.959686296" id="path-3"></path>
        <path d="M0.7935,0 L0.7935,2.38924051 C0.7935,2.73596588 0.5985,3.0833792 0.2065,3.3489268 L0.2065,0.959686296" id="path-5"></path>
        <path d="M0.7935,0 L0.7935,2.38924051 C0.7935,2.73596588 0.5985,3.0833792 0.2065,3.3489268 L0.2065,0.959686296" id="path-7"></path>
        <path d="M0.14206109,0 C0.14206109,0.347413319 0.276898734,0.694826637 0.545886076,0.959686296 L0.545886076,3.3489268 C0.276898734,3.0833792 0.14206109,2.73596588 0.14206109,2.38924051" id="path-9"></path>
        <path d="M0,0 C0,0.346725371 0.134837644,0.692762796 0.403824986,0.954182719 C0.670060539,1.22317006 1.02366538,1.35112823 1.37589433,1.35112823 C1.72881123,1.35112823 2.08172812,1.22317006 2.34796368,0.954182719 L2.34796368,3.34411117 C2.08172812,3.61241057 1.72881123,3.74036874 1.37589433,3.74036874 C1.02366538,3.74036874 0.670060539,3.61241057 0.403824986,3.34411117 C0.134837644,3.0820033 0,2.73527793 0,2.38855256" id="path-11"></path>
        <polygon id="path-13" points="6.11019826e-16 2.44407931e-15 17.8838745 2.44407931e-15 17.8838745 17.6106907 6.11019826e-16 17.6106907"></polygon>
        <path d="M2.34796368,0 L2.34796368,2.38855256 C2.34796368,2.73527793 2.21381398,3.0820033 1.94413869,3.34411117 C1.67790314,3.61241057 1.32498624,3.74036874 0.972069345,3.74036874 C0.619152449,3.74036874 0.266235553,3.61241057 -2.44407931e-15,3.34411117 L-2.44407931e-15,0.954182719 C0.266235553,1.22317006 0.619152449,1.35112823 0.972069345,1.35112823 C1.32498624,1.35112823 1.67790314,1.22317006 1.94413869,0.954182719" id="path-15"></path>
        <path d="M2.34796368,0 L2.34796368,2.38855256 C2.34796368,2.73527793 2.21381398,3.0820033 1.94413869,3.34411117 C1.67790314,3.61241057 1.32498624,3.74036874 0.972069345,3.74036874 C0.619152449,3.74036874 0.266235553,3.61241057 -2.44407931e-15,3.34411117 L-2.44407931e-15,0.954182719 C0.266235553,1.22317006 0.619152449,1.35112823 0.972069345,1.35112823 C1.32498624,1.35112823 1.67790314,1.22317006 1.94413869,0.954182719" id="path-17"></path>
        <path d="M2.34796368,0 L2.34796368,2.38855256 C2.34796368,2.73527793 2.21381398,3.0820033 1.94413869,3.34411117 C1.67790314,3.61241057 1.32498624,3.74036874 0.972069345,3.74036874 C0.619152449,3.74036874 0.266235553,3.61241057 -2.44407931e-15,3.34411117 L-2.44407931e-15,0.954182719 C0.266235553,1.22317006 0.619152449,1.35112823 0.972069345,1.35112823 C1.32498624,1.35112823 1.67790314,1.22317006 1.94413869,0.954182719" id="path-19"></path>
        <path d="M2.34796368,0 L2.34796368,2.38855256 C2.34796368,2.73527793 2.21381398,3.0820033 1.94413869,3.34411117 C1.67790314,3.61241057 1.32498624,3.74036874 0.972069345,3.74036874 C0.619152449,3.74036874 0.266235553,3.61241057 -2.44407931e-15,3.34411117 L-2.44407931e-15,0.954182719 C0.266235553,1.22317006 0.619152449,1.35112823 0.972069345,1.35112823 C1.32498624,1.35112823 1.67790314,1.22317006 1.94413869,0.954182719" id="path-21"></path>
    </defs>
    <g id="开发中心工作流" stroke="none" stroke-width="1" fill="none" fill-rule="evenodd">
        <g id="画板" transform="translate(-45.000000, -66.000000)">
            <g id="编组-3" transform="translate(45.000000, 66.000000)">
                <rect id="矩形" x="0" y="0" width="22" height="22"></rect>
                <g id="datax" transform="translate(2.000000, 1.000000)">
                    <g id="编组" transform="translate(17.480050, 1.352504)">
                        <g>
                            <mask id="mask-2" fill="white">
                                <use xlink:href="#path-1"></use>
                            </mask>
                            <g id="Clip-2"></g>
                            <path d="M0.7938,-0.000137589433 L0.7938,2.38979086 C0.7938,2.48541552 0.7788,2.58241607 0.7488,2.67735278 L0.7488,0.288112273 C0.7788,0.193175564 0.7938,0.0968629609 0.7938,-0.000137589433" id="Fill-1" fill="#46C5C0" mask="url(#mask-2)"></path>
                        </g>
                        <g>
                            <mask id="mask-4" fill="white">
                                <use xlink:href="#path-3"></use>
                            </mask>
                            <g id="Clip-4"></g>
                            <path d="M0.7484,0.288043478 L0.7484,2.67728398 C0.7184,2.77222069 0.6724,2.86509356 0.6114,2.95521464 L0.6114,0.565974133 C0.6724,0.475853054 0.7184,0.382980187 0.7484,0.288043478" id="Fill-3" fill="#47C7BE" mask="url(#mask-4)"></path>
                        </g>
                        <g>
                            <mask id="mask-6" fill="white">
                                <use xlink:href="#path-5"></use>
                            </mask>
                            <g id="Clip-6"></g>
                            <path d="M0.6117,0.566180517 L0.6117,2.95542102 C0.5487,3.04898184 0.4677,3.13979086 0.3697,3.22372042 L0.3697,0.835167859 C0.4677,0.750550358 0.5487,0.660429279 0.6117,0.566180517" id="Fill-5" fill="#48C8BD" mask="url(#mask-6)"></path>
                        </g>
                        <g>
                            <mask id="mask-8" fill="white">
                                <use xlink:href="#path-7"></use>
                            </mask>
                            <g id="Clip-8"></g>
                            <path d="M0.37,0.83489268 L0.37,3.22413319 C0.32,3.26747386 0.266,3.30943864 0.207,3.34865162 L0.207,0.960099064 C0.266,0.919510182 0.32,0.877545405 0.37,0.83489268" id="Fill-7" fill="#49CABB" mask="url(#mask-8)"></path>
                        </g>
                    </g>
                    <g id="编组" transform="translate(0.000000, 1.352504)">
                        <mask id="mask-10" fill="white">
                            <use xlink:href="#path-9"></use>
                        </mask>
                        <g id="Clip-10"></g>
                        <path d="M0.545954871,0.95989268 L0.545954871,3.34913319 C0.276279582,3.08358558 0.142129884,2.73617226 0.142129884,2.38944689 L0.142129884,-0.000481563016 C0.142129884,0.346931756 0.276279582,0.694345074 0.545954871,0.95989268" id="Fill-9" fill="#49CABB" mask="url(#mask-10)"></path>
                    </g>
                    <polygon id="Fill-11" fill="#4ACCBA" points="7.13992845 8.80620528 7.13992845 11.1954458 0.545954871 4.70122455 0.545954871 2.31267199"></polygon>
                    <polygon id="Fill-13" fill="#49CABB" points="17.6223858 2.31239681 17.6223858 4.70163731 11.0284122 11.1951706 11.0284122 8.8059301"></polygon>
                    <polygon id="Fill-15" fill="#4ACCBA" points="15.6781095 17.2140892 15.6781095 19.6040176 9.08413594 13.1097964 9.08413594 10.7212438"></polygon>
                    <polygon id="Fill-17" fill="#49CABB" points="9.08420473 10.7208998 9.08420473 13.1101403 2.49023115 19.6036736 2.49023115 17.2137452"></polygon>
                    <g id="编组" transform="translate(0.142061, 16.259631)">
                        <mask id="mask-12" fill="white">
                            <use xlink:href="#path-11"></use>
                        </mask>
                        <g id="Clip-20"></g>
                        <path d="M2.34817006,0.954457898 L2.34817006,3.34438635 C2.08193451,3.6119978 1.72901761,3.74064392 1.37610072,3.74064392 C1.02318382,3.74064392 0.670266924,3.6119978 0.40403137,3.34438635 C0.134356081,3.08227848 0.00020638415,2.73555311 0.00020638415,2.38882774 L0.00020638415,-0.000412768299 C0.00020638415,0.346312603 0.134356081,0.692350028 0.40403137,0.954457898 C0.670266924,1.22344524 1.02318382,1.35071547 1.37610072,1.35071547 C1.72901761,1.35071547 2.08193451,1.22344524 2.34817006,0.954457898" id="Fill-19" fill="#49CABB" mask="url(#mask-12)"></path>
                    </g>
                    <g id="编组" transform="translate(0.142199, 0.000000)">
                        <mask id="mask-14" fill="white">
                            <use xlink:href="#path-13"></use>
                        </mask>
                        <g id="Clip-22"></g>
                        <path d="M16.510388,-6.87947166e-05 C16.862617,-6.87947166e-05 17.21347,0.132017061 17.4803935,0.397564667 C18.0183682,0.921780407 18.0183682,1.78171436 17.4803935,2.31212163 L10.8864199,8.80634287 L17.4803935,15.2998762 C18.0183682,15.8302834 18.0183682,16.6902174 17.4803935,17.2137452 C17.21347,17.4827325 16.8612411,17.6106907 16.5083242,17.6106907 C16.1547193,17.6106907 15.8024904,17.4827325 15.5355669,17.2137452 L8.94228123,10.7208998 L2.34830765,17.2137452 C2.08138415,17.4827325 1.7291552,17.6106907 1.37555036,17.6106907 C1.02332141,17.6106907 0.670404513,17.4827325 0.403481013,17.2137452 C-0.134493671,16.6902174 -0.134493671,15.8302834 0.403481013,15.2998762 L6.9974546,8.80634287 L0.403481013,2.31212163 C-0.134493671,1.78171436 -0.134493671,0.921780407 0.403481013,0.397564667 C0.670404513,0.132017061 1.02125757,-6.87947166e-05 1.37348652,-6.87947166e-05 C1.72571547,-6.87947166e-05 2.07863236,0.132017061 2.34830765,0.397564667 L8.94228123,6.89178591 L15.5355669,0.397564667 C15.8052422,0.132017061 16.1581591,-6.87947166e-05 16.510388,-6.87947166e-05" id="Fill-21" fill="#35A8DA" mask="url(#mask-14)"></path>
                    </g>
                    <g id="编组" transform="translate(15.677972, 16.259631)">
                        <g>
                            <mask id="mask-16" fill="white">
                                <use xlink:href="#path-15"></use>
                            </mask>
                            <g id="Clip-24"></g>
                            <path d="M2.34817006,-0.00020638415 L2.34817006,2.38903412 C2.34817006,2.48534673 2.33785085,2.58165933 2.31721244,2.67590809 L2.31721244,0.286667584 C2.33785085,0.191730875 2.34817006,0.096106219 2.34817006,-0.00020638415" id="Fill-23" fill="#46C5C0" mask="url(#mask-16)"></path>
                        </g>
                        <g>
                            <mask id="mask-18" fill="white">
                                <use xlink:href="#path-17"></use>
                            </mask>
                            <g id="Clip-26"></g>
                            <path d="M2.31728123,0.286667584 L2.31728123,2.67590809 C2.29664282,2.7694689 2.2656852,2.86234177 2.22440837,2.95108696 L2.22440837,0.561158503 C2.2656852,0.473101266 2.29664282,0.380916346 2.31728123,0.286667584" id="Fill-25" fill="#47C7BE" mask="url(#mask-18)"></path>
                        </g>
                        <g>
                            <mask id="mask-20" fill="white">
                                <use xlink:href="#path-19"></use>
                            </mask>
                            <g id="Clip-28"></g>
                            <path d="M2.22420198,0.561433682 L2.22420198,2.95136214 C2.18086131,3.04354706 2.12582554,3.13229224 2.06047056,3.21553385 L2.06047056,0.826293341 C2.12582554,0.743739681 2.18086131,0.654994496 2.22420198,0.561433682" id="Fill-27" fill="#48C8BD" mask="url(#mask-20)"></path>
                        </g>
                        <g>
                            <mask id="mask-22" fill="white">
                                <use xlink:href="#path-21"></use>
                            </mask>
                            <g id="Clip-30"></g>
                            <path d="M2.06033297,0.826155751 L2.06033297,3.2160842 C2.02524766,3.26011282 1.98672262,3.30345349 1.94475784,3.34404238 C1.67783434,3.61234177 1.32560539,3.74029994 0.97200055,3.74029994 C0.619083654,3.74029994 0.266854706,3.61234177 -6.87947166e-05,3.34404238 L-6.87947166e-05,0.954801871 C0.266854706,1.22310127 0.619083654,1.35105944 0.97200055,1.35105944 C1.32560539,1.35105944 1.67783434,1.22310127 1.94475784,0.954801871 C1.98672262,0.914212988 2.02524766,0.870872317 2.06033297,0.826155751" id="Fill-29" fill="#49CABB" mask="url(#mask-22)"></path>
                        </g>
                    </g>
                </g>
            </g>
        </g>
    </g>
</svg>