<?xml version="1.0" encoding="UTF-8"?>
<svg width="22px" height="22px" viewBox="0 0 22 22" version="1.1" xmlns="http://www.w3.org/2000/svg" xmlns:xlink="http://www.w3.org/1999/xlink">
    <title>编组 2</title>
    <defs>
        <path d="M16.8632173,0 L16.8632173,2.39592349 C16.8632173,4.48071496 13.0882408,6.16883035 8.43160865,6.16883035 C3.77497648,6.16883035 0,4.48071496 0,2.39592349 L0,0 C0,2.08548134 3.77497648,3.77290687 8.43160865,3.77290687" id="path-1"></path>
        <path d="M16.8632173,0 L16.8632173,2.39592349 C16.8632173,4.48071496 13.0882408,6.16883035 8.43160865,6.16883035 C3.77497648,6.16883035 0,4.48071496 0,2.39592349 L0,0 C0,2.08548134 3.77497648,3.77290687 8.43160865,3.77290687" id="path-3"></path>
        <path d="M16.8632173,0 L16.8632173,2.39592349 C16.8632173,4.48071496 13.0882408,6.16883035 8.43160865,6.16883035 C3.77497648,6.16883035 0,4.48071496 0,2.39592349 L0,0 C0,2.08548134 3.77497648,3.77290687 8.43160865,3.77290687" id="path-5"></path>
        <path d="M16.8632173,0 L16.8632173,2.39592349 C16.8632173,4.48071496 13.0882408,6.16883035 8.43160865,6.16883035 C3.77497648,6.16883035 0,4.48071496 0,2.39592349 L0,0 C0,2.08548134 3.77497648,3.77290687 8.43160865,3.77290687" id="path-7"></path>
        <path d="M16.8632173,0 L16.8632173,2.39592349 C16.8632173,4.48071496 13.0882408,6.16883035 8.43160865,6.16883035 C3.77497648,6.16883035 0,4.48071496 0,2.39592349 L0,0 C0,2.08548134 3.77497648,3.77290687 8.43160865,3.77290687" id="path-9"></path>
        <path d="M16.8632173,0 L16.8632173,2.39592349 C16.8632173,4.48071496 13.0882408,6.16883035 8.43160865,6.16883035 C3.77497648,6.16883035 0,4.48071496 0,2.39592349 L0,0 C0,2.08548134 3.77497648,3.77290687 8.43160865,3.77290687" id="path-11"></path>
        <path d="M16.8632173,0 L16.8632173,2.39592349 C16.8632173,4.48071496 13.0882408,6.16883035 8.43160865,6.16883035 C3.77497648,6.16883035 0,4.48071496 0,2.39592349 L0,0 C0,2.08548134 3.77497648,3.77290687 8.43160865,3.77290687" id="path-13"></path>
        <path d="M16.8632173,0 L16.8632173,2.39592349 C16.8632173,4.48071496 13.0882408,6.16883035 8.43160865,6.16883035 C3.77497648,6.16883035 0,4.48071496 0,2.39592349 L0,0 C0,2.08548134 3.77497648,3.77290687 8.43160865,3.77290687" id="path-15"></path>
        <polygon id="path-17" points="0 0 16.8632173 0 16.8632173 7.5454688 0 7.5454688"></polygon>
        <path d="M16.8632173,0 L16.8632173,2.39592349 C16.8632173,4.48071496 13.0882408,6.16883035 8.43160865,6.16883035 C3.77497648,6.16883035 0,4.48071496 0,2.39592349 L0,0 C0,2.08548134 3.77497648,3.77290687 8.43160865,3.77290687" id="path-19"></path>
        <path d="M16.8632173,0 L16.8632173,2.39592349 C16.8632173,4.48071496 13.0882408,6.16883035 8.43160865,6.16883035 C3.77497648,6.16883035 0,4.48071496 0,2.39592349 L0,0 C0,2.08548134 3.77497648,3.77290687 8.43160865,3.77290687" id="path-21"></path>
        <path d="M16.8632173,0 L16.8632173,2.39592349 C16.8632173,4.48071496 13.0882408,6.16883035 8.43160865,6.16883035 C3.77497648,6.16883035 0,4.48071496 0,2.39592349 L0,0 C0,2.08548134 3.77497648,3.77290687 8.43160865,3.77290687" id="path-23"></path>
        <path d="M16.8632173,0 L16.8632173,2.39592349 C16.8632173,4.48071496 13.0882408,6.16883035 8.43160865,6.16883035 C3.77497648,6.16883035 0,4.48071496 0,2.39592349 L0,0 C0,2.08548134 3.77497648,3.77290687 8.43160865,3.77290687" id="path-25"></path>
        <polygon id="path-27" points="0 0 8.89382251 0 8.89382251 11.8546618 0 11.8546618"></polygon>
        <path d="M0.340451552,0.124866729 L0.340451552,1.32317341 C0.346660395,1.28040138 0.349419881,1.23831922 0.349419881,1.19761681 L0.349419881,1.19761681 L0.349419881,0 C0.349419881,0.0407024146 0.346660395,0.0820947005 0.340451552,0.124866729" id="path-29"></path>
    </defs>
    <g id="开发中心工作流" stroke="none" stroke-width="1" fill="none" fill-rule="evenodd">
        <g id="画板" transform="translate(-44.000000, -28.000000)">
            <g id="编组-2" transform="translate(44.000000, 28.000000)">
                <rect id="矩形" x="0" y="0" width="22" height="22"></rect>
                <g id="sqoop" transform="translate(1.000000, 0.000000)">
                    <g id="编组">
                        <g transform="translate(0.000000, 9.654475)">
                            <path d="M8.43174663,0 C13.0883788,0 16.8633553,1.69363437 16.8633553,3.77911571 C16.8633553,5.86390718 13.0883788,7.55133271 8.43174663,7.55133271 C3.77511446,7.55133271 0.000137974287,5.86390718 0.000137974287,3.77911571 C0.000137974287,1.69363437 3.77511446,0 8.43174663,0" id="Fill-1" fill="#8DA4B7"></path>
                            <g transform="translate(0.000000, 3.778702)">
                                <g>
                                    <mask id="mask-2" fill="white">
                                        <use xlink:href="#path-1"></use>
                                    </mask>
                                    <g id="Clip-4"></g>
                                    <path d="M16.8631483,6.89871433e-05 L16.8631483,2.39599247 C16.8631483,2.52223895 16.8493509,2.64779555 16.821756,2.77128253 L16.821756,0.374669175 C16.8493509,0.251182189 16.8631483,0.127005331 16.8631483,6.89871433e-05" id="Fill-3" fill="#B5C4D1" mask="url(#mask-2)"></path>
                                </g>
                                <g>
                                    <mask id="mask-4" fill="white">
                                        <use xlink:href="#path-3"></use>
                                    </mask>
                                    <g id="Clip-6"></g>
                                    <path d="M16.822032,0.374669175 L16.822032,2.77128253 C16.7923675,2.90856695 16.7454563,3.04309188 16.682678,3.17623706 L16.682678,0.780313578 C16.7454563,0.647858263 16.7923675,0.51195359 16.822032,0.374669175" id="Fill-5" fill="#B8C6D2" mask="url(#mask-4)"></path>
                                </g>
                                <g>
                                    <mask id="mask-6" fill="white">
                                        <use xlink:href="#path-5"></use>
                                    </mask>
                                    <g id="Clip-8"></g>
                                    <path d="M16.6829539,0.780244591 L16.6829539,3.17616808 C16.6043086,3.34380684 16.500138,3.50730637 16.3738915,3.66666667 L16.3738915,1.27074318 C16.500138,1.11138288 16.6043086,0.947883349 16.6829539,0.780244591" id="Fill-7" fill="#BAC8D4" mask="url(#mask-6)"></path>
                                </g>
                                <g>
                                    <mask id="mask-8" fill="white">
                                        <use xlink:href="#path-7"></use>
                                    </mask>
                                    <g id="Clip-10"></g>
                                    <path d="M16.3736845,1.27067419 L16.3736845,3.66659768 C15.2084917,5.12567576 12.0923424,6.16876137 8.4318846,6.16876137 C3.77525243,6.16876137 0.000275948573,4.48064597 0.000275948573,2.3958545 L0.000275948573,-6.89871433e-05 C0.000275948573,2.08541235 3.77525243,3.77283788 8.4318846,3.77283788 C12.0923424,3.77283788 15.2084917,2.72975227 16.3736845,1.27067419" id="Fill-9" fill="#BDCAD5" mask="url(#mask-8)"></path>
                                </g>
                            </g>
                        </g>
                        <g transform="translate(0.000000, 4.830066)">
                            <path d="M8.43174663,2.45091568e-15 C13.0883788,2.45091568e-15 16.8633553,1.68742553 16.8633553,3.77290687 C16.8633553,5.85769834 13.0883788,7.54581373 8.43174663,7.54581373 C3.77511446,7.54581373 0.000137974287,5.85769834 0.000137974287,3.77290687 C0.000137974287,1.68742553 3.77511446,2.45091568e-15 8.43174663,2.45091568e-15" id="Fill-11" fill="#8DA4B7"></path>
                            <g transform="translate(0.000000, 3.772631)">
                                <g>
                                    <mask id="mask-10" fill="white">
                                        <use xlink:href="#path-9"></use>
                                    </mask>
                                    <g id="Clip-14"></g>
                                    <path d="M16.8631483,0.000137974287 L16.8631483,2.39606146 C16.8631483,2.52230793 16.8493509,2.64786453 16.821756,2.77135152 L16.821756,0.374738162 C16.8493509,0.251251176 16.8631483,0.127074318 16.8631483,0.000137974287" id="Fill-13" fill="#B5C4D1" mask="url(#mask-10)"></path>
                                </g>
                                <g>
                                    <mask id="mask-12" fill="white">
                                        <use xlink:href="#path-11"></use>
                                    </mask>
                                    <g id="Clip-16"></g>
                                    <path d="M16.822032,0.374738162 L16.822032,2.77135152 C16.7923675,2.90863594 16.7454563,3.04316087 16.682678,3.17630605 L16.682678,0.780382565 C16.7454563,0.64792725 16.7923675,0.512022578 16.822032,0.374738162" id="Fill-15" fill="#B8C6D2" mask="url(#mask-12)"></path>
                                </g>
                                <g>
                                    <mask id="mask-14" fill="white">
                                        <use xlink:href="#path-13"></use>
                                    </mask>
                                    <g id="Clip-18"></g>
                                    <path d="M16.6829539,0.780244591 L16.6829539,3.17616808 C16.6043086,3.34380684 16.500138,3.50730637 16.3738915,3.66666667 L16.3738915,1.27074318 C16.500138,1.11138288 16.6043086,0.947883349 16.6829539,0.780244591" id="Fill-17" fill="#BAC8D4" mask="url(#mask-14)"></path>
                                </g>
                                <g>
                                    <mask id="mask-16" fill="white">
                                        <use xlink:href="#path-15"></use>
                                    </mask>
                                    <g id="Clip-20"></g>
                                    <path d="M16.3736845,1.27074318 L16.3736845,3.66666667 C15.2084917,5.12574475 12.0923424,6.16883035 8.4318846,6.16883035 C3.77525243,6.16883035 0.000275948573,4.48071496 0.000275948573,2.39592349 L0.000275948573,2.45091568e-15 C0.000275948573,2.08548134 3.77525243,3.77290687 8.4318846,3.77290687 C12.0923424,3.77290687 15.2084917,2.72982126 16.3736845,1.27074318" id="Fill-19" fill="#BDCAD5" mask="url(#mask-16)"></path>
                                </g>
                            </g>
                        </g>
                        <g>
                            <g transform="translate(0.000138, 0.000000)">
                                <mask id="mask-18" fill="white">
                                    <use xlink:href="#path-17"></use>
                                </mask>
                                <g id="Clip-22"></g>
                                <path d="M8.43160865,-0.000344935717 C13.0882408,-0.000344935717 16.8632173,1.68708059 16.8632173,3.77256193 C16.8632173,5.8573534 13.0882408,7.5454688 8.43160865,7.5454688 C3.77497648,7.5454688 0,5.8573534 0,3.77256193 C0,1.68708059 3.77497648,-0.000344935717 8.43160865,-0.000344935717" id="Fill-21" fill="#8DA4B7" mask="url(#mask-18)"></path>
                            </g>
                            <g transform="translate(0.000000, 3.772217)">
                                <g>
                                    <mask id="mask-20" fill="white">
                                        <use xlink:href="#path-19"></use>
                                    </mask>
                                    <g id="Clip-24"></g>
                                    <path d="M16.8631483,0.000137974287 L16.8631483,2.39606146 C16.8631483,2.52230793 16.8493509,2.64786453 16.821756,2.77135152 L16.821756,0.374738162 C16.8493509,0.251251176 16.8631483,0.127074318 16.8631483,0.000137974287" id="Fill-23" fill="#B5C4D1" mask="url(#mask-20)"></path>
                                </g>
                                <g>
                                    <mask id="mask-22" fill="white">
                                        <use xlink:href="#path-21"></use>
                                    </mask>
                                    <g id="Clip-26"></g>
                                    <path d="M16.822032,0.374738162 L16.822032,2.77135152 C16.7923675,2.90863594 16.7454563,3.04316087 16.682678,3.17630605 L16.682678,0.780382565 C16.7454563,0.64792725 16.7923675,0.512022578 16.822032,0.374738162" id="Fill-25" fill="#B8C6D2" mask="url(#mask-22)"></path>
                                </g>
                                <g>
                                    <mask id="mask-24" fill="white">
                                        <use xlink:href="#path-23"></use>
                                    </mask>
                                    <g id="Clip-28"></g>
                                    <path d="M16.6829539,0.780313578 L16.6829539,3.17623706 C16.6043086,3.34387582 16.500138,3.50737535 16.3738915,3.66673565 L16.3738915,1.27081217 C16.500138,1.11145187 16.6043086,0.947952336 16.6829539,0.780313578" id="Fill-27" fill="#BAC8D4" mask="url(#mask-24)"></path>
                                </g>
                                <g>
                                    <mask id="mask-26" fill="white">
                                        <use xlink:href="#path-25"></use>
                                    </mask>
                                    <g id="Clip-30"></g>
                                    <path d="M16.3736845,1.27074318 L16.3736845,3.66666667 C15.2084917,5.12574475 12.0923424,6.16883035 8.4318846,6.16883035 C3.77525243,6.16883035 0.000275948573,4.48071496 0.000275948573,2.39592349 L0.000275948573,0 C0.000275948573,2.08548134 3.77525243,3.77290687 8.4318846,3.77290687 C12.0923424,3.77290687 15.2084917,2.72982126 16.3736845,1.27074318" id="Fill-29" fill="#BDCAD5" mask="url(#mask-26)"></path>
                                </g>
                            </g>
                        </g>
                        <path d="M19.2945312,17.4256005 C19.2945312,17.4104233 19.2945312,17.3938664 19.2945312,17.3786892 C19.2924616,17.2959047 19.2869426,17.2144998 19.2772844,17.1351646 C19.2738351,17.1082596 19.2676262,17.0827344 19.263487,17.0558294 C19.2600376,17.0337535 19.2558984,17.0109878 19.2517592,16.9889119 C19.2462402,16.9620069 19.2434807,16.9337222 19.2372719,16.9068172 C19.2200251,16.8323111 19.1979492,16.7584948 19.172424,16.6867482 C19.1696645,16.6784697 19.1655252,16.671571 19.1627658,16.6639824 C19.155867,16.6453559 19.1468987,16.6281091 19.1393101,16.6094826 C19.1179241,16.5563625 19.097228,16.5032424 19.0710129,16.4521919 C19.0565256,16.4245971 19.0365193,16.4004516 19.0213421,16.3735466 C18.995127,16.3280151 18.9668423,16.2838633 18.9364879,16.2397115 C18.9185513,16.2121167 18.9047538,16.1824522 18.8840577,16.1562371 C18.8571527,16.1196739 18.8226591,16.0872499 18.7929947,16.0520665 C18.7674694,16.022402 18.7426341,15.9920477 18.7150392,15.9630731 C18.641223,15.8864973 18.560508,15.8126811 18.4728943,15.7430041 C18.458407,15.7305864 18.4466792,15.7181687 18.4321919,15.7071308 C18.3273315,15.6271057 18.2121229,15.5505299 18.0886359,15.4794732 C18.0527626,15.4580872 18.0134399,15.4387708 17.9761869,15.4194544 C17.9154782,15.3863405 17.857529,15.351847 17.7926811,15.3208028 C17.7706052,15.3104547 17.7423205,15.3028661 17.7195547,15.292518 C17.5277705,15.2049044 17.3249483,15.1228097 17.0979806,15.0517529 C17.0034682,15.0234682 16.8889495,14.9903543 16.7647727,14.9558608 C16.7482157,14.9510317 16.7371778,14.9475823 16.7206209,14.9427532 C16.6992349,14.9372342 16.67164,14.9296457 16.650254,14.9234368 C16.5660897,14.9006711 16.4764064,14.8758357 16.3805143,14.8503104 C16.3356726,14.8385826 16.2935905,14.8268548 16.2459893,14.8144371 C16.1004265,14.7751145 15.9458953,14.7351019 15.7748071,14.6909501 C15.5719849,14.6516275 15.3877893,14.606096 15.2139417,14.5591847 C15.131847,14.5371088 15.0559611,14.5129633 14.9807651,14.4895077 C14.9248855,14.4722609 14.8669363,14.4550141 14.8145061,14.4370775 C14.7358608,14.4094826 14.6654939,14.3791283 14.5944371,14.3494638 C14.5516651,14.332217 14.5054437,14.3149702 14.4654312,14.2963437 C14.4392161,14.283926 14.4185199,14.2708184 14.3936845,14.2577109 C14.2929633,14.2073503 14.2025902,14.15492 14.1232549,14.0997303 C14.0922107,14.0776544 14.063926,14.0555786 14.0356413,14.0335027 C13.9763123,13.9865914 13.9266416,13.9362308 13.8811101,13.8851803 C14.1653371,13.4691878 14.7117153,13.2477391 15.5312825,13.2298024 C16.7640828,13.24291 17.4829288,13.7803198 17.6823017,14.8544497 L19.0558357,14.557805 L19.0558357,13.3194857 C19.048937,13.2849922 19.0413484,13.2511885 19.0337598,13.2173848 C19.0013358,13.0773409 18.9620132,12.9435058 18.9164817,12.8158796 C18.9109627,12.8013923 18.904064,12.7882847 18.898545,12.7737974 C18.8854374,12.7393039 18.8688805,12.7075698 18.8550831,12.6737661 C18.823349,12.5971903 18.7936845,12.5178551 18.7564315,12.4454186 C18.7364252,12.4067858 18.7102101,12.3743619 18.6888241,12.3371088 C18.6536406,12.2757103 18.6163876,12.2163813 18.5770649,12.159122 C18.5515397,12.1211791 18.5308435,12.0770273 18.5032487,12.0397742 C18.4791032,12.0080401 18.4452995,11.9852744 18.4197742,11.9542302 C18.3390593,11.858338 18.2514456,11.7693446 18.1576231,11.6858702 C18.1031232,11.6368893 18.0500031,11.5879084 17.9913641,11.5437567 C17.8809846,11.4609721 17.7588774,11.3885356 17.6326309,11.3202383 C17.589169,11.2974726 17.5553653,11.2657385 17.5098338,11.2443525 C17.4960364,11.2374537 17.4794795,11.2340044 17.465682,11.2284854 C17.374619,11.1864033 17.2732079,11.1546692 17.1745563,11.1201756 C17.0986704,11.0932706 17.0303732,11.0594669 16.9503481,11.037391 C16.9351709,11.0325619 16.9165444,11.0304923 16.9006773,11.027043 C16.8323801,11.0084164 16.7564942,10.9973785 16.6854374,10.9815114 C16.5874757,10.9608153 16.4950329,10.9359799 16.3915522,10.9201129 C16.3618877,10.9159737 16.3267043,10.9159737 16.29635,10.9125243 C16.2018376,10.9001066 16.1004265,10.8938978 16.001085,10.8863092 C15.9120916,10.8801003 15.8306867,10.8663029 15.738244,10.8635434 C15.6582189,10.8600941 15.576814,10.8587143 15.4947193,10.8587143 C15.4788523,10.8587143 15.4629853,10.8587143 15.4478081,10.8594042 C15.3601944,10.8628536 15.2739605,10.8669928 15.190486,10.8732016 C15.1014926,10.8794105 15.024227,10.8938978 14.9393728,10.903556 C14.8400314,10.9145939 14.74,10.9235622 14.6468674,10.9387394 C14.6151333,10.9435685 14.5785701,10.9442584 14.546836,10.9497774 C14.4219693,10.9725431 14.3074506,11.0015177 14.1922421,11.0311822 C14.1570586,11.0401505 14.1184258,11.0463594 14.0839323,11.0567074 C14.0770336,11.058777 14.0680652,11.0594669 14.0604766,11.0615365 C13.919053,11.1029288 13.7852179,11.1491502 13.6596613,11.2022703 C13.6403449,11.2105488 13.6244779,11.2215867 13.6051615,11.230555 C13.5610097,11.2498714 13.5209972,11.2733271 13.478915,11.2940232 C13.4161367,11.3264472 13.3485293,11.3547319 13.2898902,11.3906052 C13.2616055,11.4071621 13.2415992,11.4313076 13.2146943,11.4492443 C13.1263907,11.5071935 13.0470555,11.5720414 12.9704798,11.638269 C12.9159799,11.6858702 12.8601003,11.7314017 12.8124992,11.7831421 C12.7407526,11.8590279 12.6814236,11.9425024 12.6227846,12.0273565 C12.5848416,12.0818564 12.5427595,12.1329069 12.5103355,12.1915459 C12.4544559,12.2915773 12.4123738,12.4019567 12.3716714,12.5123362 C12.3516651,12.566836 12.3247601,12.6165067 12.3082032,12.6737661 C12.2585325,12.8476137 12.2226591,13.0318093 12.2054124,13.2304923 C12.1978238,13.3063782 12.1936845,13.3815742 12.1936845,13.4547005 L12.1936845,14.6937096 C12.1936845,14.6205833 12.1978238,14.5453873 12.2054124,14.4695014 C12.0770963,15.7209282 13.001524,16.5494638 14.9724867,16.9730448 C15.0304359,16.9730448 15.1201192,16.9854625 15.2360176,17.0171966 C15.6209658,17.10619 15.8713892,17.181386 15.9872876,17.2386453 C16.8385889,17.471132 17.3828975,17.7732957 17.6340107,18.1423769 C17.6243525,18.1658325 17.6167639,18.1913578 17.6050361,18.2141235 C17.5843399,18.2513766 17.5581248,18.2844904 17.5346692,18.3196739 C17.498106,18.3741737 17.4601631,18.4286736 17.4160113,18.4769646 C17.3849671,18.5100784 17.3504735,18.539053 17.3159799,18.5694073 C17.2676889,18.6121794 17.2180182,18.6528818 17.1621386,18.6901348 C17.1076388,18.726698 17.0496896,18.7611916 16.9876011,18.7915459 C16.9648354,18.8032738 16.9441392,18.8156914 16.9199937,18.8260395 C16.827551,18.8674318 16.7275196,18.9033051 16.6198997,18.9329696 C16.5929947,18.9398683 16.5633302,18.9453873 16.5350455,18.952286 C16.4508812,18.9722923 16.3618877,18.989539 16.269445,19.0026466 C16.215635,19.0109251 16.1597554,19.0171339 16.103186,19.021963 C15.9872876,19.0343807 15.8706993,19.0454186 15.7430731,19.0474882 C15.5706052,19.0461085 15.4077955,19.0330009 15.2525745,19.0123048 C15.2415365,19.0109251 15.2291188,19.0109251 15.2180809,19.0088554 C15.0704484,18.9881593 14.933164,18.9550455 14.8013986,18.9157228 C14.7434494,18.898476 14.6910191,18.8757103 14.6365193,18.8543242 C14.5606334,18.8253496 14.4847476,18.796375 14.4150706,18.7618815 C14.3246974,18.7156601 14.2426027,18.6597805 14.1625776,18.603211 C14.1218752,18.5742364 14.0777234,18.5500909 14.0397805,18.5190467 C13.9342302,18.4314331 13.8390279,18.3327814 13.7534839,18.2237817 C13.747275,18.2155033 13.7389966,18.2099843 13.7320978,18.201016 C13.7265789,18.1934274 13.7224396,18.1844591 13.7169207,18.1761806 C13.6431044,18.0761493 13.5768768,17.9678394 13.5189276,17.8505613 C13.50582,17.8243462 13.4954719,17.7953716 13.4837441,17.7684666 C13.4395923,17.6705049 13.4009595,17.5684039 13.366466,17.4594042 C13.3540483,17.4180119 13.3416306,17.3773095 13.3299028,17.3338476 C13.2933396,17.1958733 13.2609156,17.0530699 13.2388398,16.8978489 L11.8266729,17.1882847 L11.8266729,18.4272938 C12.1847162,20.3320288 13.4568391,21.2868109 15.6320038,21.2868109 C15.6816745,21.2868109 15.7313452,21.2868109 15.7817059,21.2854312 C18.0541424,21.2405895 19.2227846,20.3941173 19.2938413,18.7370461 C19.2959109,18.6480527 19.2855629,18.5652681 19.279354,18.4804139 C19.2841831,18.5418125 19.2945312,18.6004516 19.2945312,18.6639197 L19.2945312,17.4256005 Z" id="Fill-31" fill="#FFFFFF"></path>
                        <g transform="translate(11.113553, 10.145338)">
                            <mask id="mask-28" fill="white">
                                <use xlink:href="#path-27"></use>
                            </mask>
                            <g id="Clip-34"></g>
                            <path d="M3.89018501,8.08672197 C3.99090624,8.11638644 4.09507683,8.14122181 4.20752587,8.15846859 C4.3613672,8.17709512 4.49382251,8.1874432 4.63524616,8.18882294 C4.72148009,8.18675332 4.81944183,8.177785 4.9167137,8.16743692 L5.05537786,8.15156988 C5.12160552,8.14122181 5.19059266,8.12949399 5.25544058,8.11293708 C5.34443399,8.09086119 5.40445281,8.07223467 5.45274381,8.05429801 C5.27061775,7.96737421 5.02226403,7.87355169 4.68629664,7.78248866 L4.55798056,7.73281792 C4.55384133,7.73143818 4.4289746,7.67417885 3.96262151,7.56724878 C3.89708373,7.55000199 3.86534964,7.54241341 3.84120414,7.54034379 L3.7094387,7.52516662 C3.46660395,7.47273639 3.24032612,7.41478719 3.02922546,7.35269876 L3.04923173,7.39892015 C3.08441518,7.46859716 3.12856695,7.54034379 3.17754782,7.60726132 L3.18858576,7.62243849 C3.26102226,7.71281165 3.31897146,7.77283046 3.38105989,7.82388095 L3.46039511,7.87493144 C3.51420508,7.91287436 3.56594544,7.95012742 3.62458451,7.97979189 C3.67287551,8.00462727 3.723926,8.02256392 3.77497648,8.04188032 L3.89018501,8.08672197 Z M1.42665412,8.21365831 C1.73364691,9.72378688 2.71740357,10.4281456 4.51865789,10.4281456 L4.64835372,10.4267659 C7.07877077,10.3798546 7.43129508,9.40506627 7.46716839,8.56135351 C7.46854813,8.53237891 7.46371903,8.4965056 7.46026968,8.45856267 L7.45475071,8.38750591 L7.46785826,8.38681604 L7.46785826,7.28026226 L8.18118532,7.28026226 L7.46785826,7.26439522 C7.46647852,7.18919923 7.46233929,7.13056016 7.45544058,7.07330083 L8.14945124,6.91049117 L7.43681405,6.97533909 C7.41749765,6.87461786 7.40370022,6.82839647 7.38783318,6.78217509 L7.35402948,6.70559936 C7.3436814,6.68145386 7.33471308,6.65661849 7.32229539,6.63247299 L7.2905613,6.58556173 C7.27055503,6.55175803 7.25330825,6.5234733 7.23399185,6.49587844 L7.11395422,6.34341685 C7.03254939,6.25511331 6.97529006,6.20337295 6.91320163,6.15370221 C6.80075259,6.06332905 6.71175917,6.00537985 6.61655691,5.95019014 L6.46823456,5.87085492 C6.43788021,5.85429801 6.40821574,5.83705122 6.37579178,5.82187405 C6.3682032,5.82118418 6.33370963,5.80738675 6.30335528,5.79289945 C6.14399498,5.72046295 5.9673879,5.64871632 5.76939479,5.58593802 L5.08159298,5.39415376 L5.13264346,4.66840902 L4.9505174,5.35828045 L4.48416431,5.23686308 C4.30203826,5.20098976 4.10128567,5.15338863 3.91295077,5.10233815 C3.82326748,5.07819265 3.73565381,5.05128766 3.64804014,5.0236928 L3.46729382,4.96643347 C3.38174976,4.93538926 3.30862339,4.90572479 3.23480715,4.87537045 L3.43280025,4.18549901 L3.16857949,4.84777559 C3.12649733,4.8305288 3.08510505,4.81397189 3.04647225,4.79534536 L2.96023832,4.75050372 C2.82640326,4.68220644 2.70843525,4.61390917 2.60426466,4.54147267 C2.5573534,4.50904871 2.51665099,4.47731463 2.47663844,4.44627041 C2.38488554,4.37245417 2.3062402,4.2944987 2.23518344,4.21447361 L1.86403261,3.79779127 L2.17861399,3.33695715 C2.6008153,2.71952222 3.34932581,2.39459277 4.40206961,2.37113714 C5.70868611,2.38493457 6.62207589,2.91268622 7.05462527,3.87505687 L7.22916275,3.83711394 L7.22640326,3.23968528 C7.1988084,3.12171726 7.16776419,3.01340745 7.131201,2.9106166 L7.05600502,2.736769 C7.04082785,2.6981362 7.02565067,2.6595034 7.00771402,2.62363009 L6.9573534,2.5484341 C6.92906867,2.49807349 6.90147382,2.45530146 6.87249922,2.41252943 L6.82765757,2.34147267 C6.8028222,2.3166373 6.78074632,2.29387154 6.76005017,2.2683463 C6.69934149,2.19659967 6.63656319,2.13175176 6.56964566,2.07173294 C6.51100659,2.02068246 6.48272186,1.99446734 6.45098777,1.97032184 C6.36751333,1.90754354 6.2764503,1.85511331 6.18262778,1.8047527 L6.05983067,1.73369594 C6.00671057,1.70955044 5.95497021,1.69299352 5.90322985,1.67505687 L5.31338978,1.50948772 C5.26785826,1.49844978 5.22232675,1.48810171 5.17334588,1.48120299 C5.15058012,1.48120299 5.11746629,1.47775364 5.08504233,1.47292454 C5.03054249,1.46671569 4.96224522,1.46188659 4.89532769,1.45705749 L4.70354343,1.44050058 C4.66904986,1.43567148 4.63455629,1.43222212 4.59730323,1.43084238 C4.52762622,1.42877277 4.45518971,1.42739302 4.3806836,1.42739302 C4.27789276,1.43015251 4.19993728,1.43429174 4.12405143,1.43981071 C4.08886798,1.44188032 4.05299467,1.44739929 4.0185011,1.45222839 L3.90674193,1.46671569 C3.7867043,1.47982325 3.71288805,1.48741184 3.64390091,1.49775991 L3.55628724,1.50879785 C3.45280652,1.52604464 3.35622452,1.55156988 3.25826278,1.57640525 L3.18099718,1.59434191 L2.97058639,0.911369191 L3.10925055,1.61089882 C3.03267482,1.63435445 2.92574475,1.67091764 2.82571339,1.71437954 L2.56563186,1.84614498 C2.54148636,1.86546138 2.51803073,1.88339804 2.49319536,1.89926508 C2.43317654,1.93927763 2.37936657,1.9834294 2.32693634,2.02965078 C2.26967701,2.07932153 2.24208216,2.10139741 2.21862653,2.12623278 C2.1710254,2.17728327 2.13446221,2.23178311 2.09651929,2.28697283 L2.05098777,2.350441 C1.98131076,2.4615103 1.95509564,2.53739616 1.92819066,2.61259214 L1.88748824,2.7126235 C1.84057698,2.86508509 1.81505174,3.00305938 1.80263405,3.14655263 C1.79642521,3.20864106 1.79297585,3.25969155 1.79297585,3.30936229 L1.80194418,4.39453006 C1.79642521,4.44765016 1.79297585,4.49801077 1.79297585,4.54837139 L1.79090624,4.54837139 C1.78193791,4.94849682 1.96475384,5.67838079 3.95365318,6.1178289 C4.05989338,6.12679722 4.17924114,6.14818324 4.30893697,6.18405655 C4.76287237,6.28822714 4.98984008,6.36549274 5.11815616,6.42137233 C6.10950141,6.69870064 6.76074004,7.0836489 7.11050486,7.59622338 L7.33264346,7.92253256 L7.17397303,8.2840252 C7.16086548,8.31920864 7.14292882,8.36198067 7.1215428,8.40268308 C7.08911885,8.46201203 7.05738476,8.50961315 7.02358106,8.55721428 C6.95804327,8.65448616 6.89802446,8.73658086 6.82834744,8.81315658 C6.78212606,8.8635172 6.73383506,8.90766897 6.68416431,8.95113087 C6.60068987,9.02356737 6.52549389,9.08427606 6.44270931,9.13946577 C6.36268423,9.19258587 6.27920978,9.24225662 6.18883663,9.28640839 L6.09432424,9.33400952 C5.97290687,9.38712962 5.84045155,9.43473075 5.69833804,9.47405342 L5.60520539,9.49681918 C5.48516776,9.5251039 5.37547821,9.54580005 5.26233929,9.5637367 C5.19197241,9.57270503 5.12643462,9.58098349 5.05882722,9.58719233 C4.92775165,9.60029989 4.79322672,9.6120277 4.64490436,9.61547706 C4.4193164,9.61409732 4.22753214,9.59823028 4.04402634,9.5733949 C3.81843838,9.54304056 3.64804014,9.50302802 3.48523048,9.45473702 C3.42038257,9.43542062 3.36243336,9.41265486 3.30448416,9.3898891 C3.16995923,9.33814875 3.06992788,9.29882607 2.97748511,9.25122494 C2.85606773,9.19051626 2.74430856,9.11670002 2.63599875,9.03943441 C2.56563186,8.9939029 2.51665099,8.96078907 2.47180934,8.92422589 C2.34073377,8.8152262 2.2193164,8.69173921 2.10962684,8.55790415 L1.9923487,8.39854385 C1.93164001,8.32196812 1.84333647,8.177785 1.76607087,8.02118418 L1.72398871,7.92805154 C1.6736281,7.81353288 1.6301662,7.70384332 1.59291314,7.59001453 L1.42665412,7.62450811 L1.42665412,8.21365831 Z M2.07237378,0.496756459 C2.11514581,0.474680574 2.15791784,0.452604688 2.20413923,0.431908545 L2.28485419,0.393965616 C2.4173095,0.33808603 2.57804955,0.280826701 2.74844779,0.231155958 C2.81191596,0.214599043 2.85261838,0.204940843 2.89263092,0.196662386 C3.03129508,0.161478943 3.16375039,0.128365114 3.30862339,0.102839871 L3.41900282,0.0876626997 C3.51558482,0.0745551424 3.61354657,0.0628273281 3.71081844,0.053169128 L3.81912825,0.0393716993 C3.88673565,0.0304033707 3.95365318,0.0214350421 4.02677955,0.016605942 C4.12129194,0.00970722772 4.21580433,0.00418825625 4.31169646,0.00142877052 C4.47105676,-0.00202058665 4.56142992,0.00142877052 4.64973346,0.00487812768 C4.72285983,0.00763761342 4.78839762,0.0145363277 4.85462527,0.0214350421 L4.93809972,0.0297134993 C5.09194105,0.0407514422 5.18369395,0.0476501565 5.27130762,0.0586880995 C5.31063029,0.0607577138 5.34443399,0.0635171995 5.37616808,0.0683462995 C5.46999059,0.0821437282 5.55208529,0.100770257 5.63349012,0.119396786 L5.71627469,0.138023314 C5.84735027,0.163548557 5.91012857,0.176656115 5.96945751,0.191833286 C6.10329257,0.224947115 6.17296958,0.252541972 6.24195673,0.280826701 L6.36613358,0.325668344 C6.46340546,0.359472044 6.56067733,0.393965616 6.65036061,0.43466803 C6.7641894,0.483648902 6.81799937,0.517452602 6.8704296,0.554015788 C7.01392286,0.631281389 7.16707432,0.723034289 7.30642835,0.828584619 C7.36920665,0.875495876 7.42991533,0.927926105 7.48993415,0.981046205 C7.63894638,1.11557113 7.75139542,1.22939992 7.85487614,1.35357678 C7.87557228,1.36806408 7.91903418,1.41290572 7.95766698,1.46326634 C7.99078081,1.50741811 8.02044528,1.55432937 8.04804014,1.60262037 C8.1046096,1.68816442 8.15152085,1.7612908 8.19567262,1.83993614 C8.2253371,1.88132843 8.25362183,1.92617007 8.27914707,1.97722055 C8.31502038,2.04758744 8.34744434,2.1234733 8.37848855,2.20004903 L8.41160238,2.28007411 C8.42608968,2.31318794 8.44126685,2.34630177 8.45368454,2.38148521 C8.52888053,2.5822378 8.57648166,2.74366772 8.61511446,2.91199635 L8.65581687,3.17345762 L8.65581687,4.98781949 L7.93007212,5.14511018 C7.99354029,5.20029989 8.05769834,5.26238832 8.11771715,5.32723623 C8.14186265,5.35069186 8.16945751,5.38242595 8.19705237,5.41484991 C8.27500784,5.50108383 8.31019128,5.54178625 8.3412355,5.58317854 L8.41574161,5.69562758 C8.45368454,5.75150717 8.49231734,5.81290572 8.52819066,5.87568402 C8.54543744,5.89913965 8.57027281,5.93984207 8.59165883,5.98123435 C8.62408278,6.04332278 8.6502979,6.10748082 8.67651301,6.17163887 L8.71928504,6.27373984 C8.76481656,6.3979167 8.79448103,6.49863793 8.81862653,6.60142877 L8.87174663,6.89945323 C8.88416431,7.00845292 8.8917529,7.1126235 8.89382251,7.21817383 L8.89313264,8.51927135 C8.89382251,8.55031557 8.89382251,8.58135978 8.89313264,8.61171413 C8.83173409,10.0604441 8.0514895,11.7878822 4.68215742,11.85342 L4.51865789,11.8547997 C1.32800251,11.8547997 0.306992788,9.98317854 0.0117278144,8.4144109 L0,8.28195558 L0,6.46276461 L1.03963625,6.2482146 C0.518783318,5.69907694 0.360112888,5.081642 0.367011602,4.52008666 L0.367011602,3.30936229 C0.367011602,3.21347016 0.371840702,3.11481855 0.382188774,3.01409732 C0.401505174,2.78712962 0.44289746,2.56154166 0.509125118,2.33181447 C0.528441518,2.26489694 0.552587018,2.205568 0.577422389,2.14692893 C0.642270304,1.97515094 0.700219505,1.83096781 0.774035748,1.69782262 C0.811288805,1.63159497 0.854750706,1.56950654 0.898902477,1.50879785 C1.00100345,1.36254511 1.08378802,1.25009606 1.17968015,1.14799509 C1.23555974,1.08866615 1.29902791,1.03278656 1.36318595,0.976906977 C1.48667294,0.869287033 1.59291314,0.783742976 1.70812167,0.708546989 C1.71502038,0.696819175 1.76262151,0.660945861 1.81643148,0.629211775 C1.86334274,0.600237174 1.92750078,0.56919296 1.9923487,0.537458874 L2.07237378,0.496756459 Z" id="Fill-33" fill="#FFFFFF" mask="url(#mask-28)"></path>
                        </g>
                        <path d="M17.7261775,17.3629602 L17.7261775,18.560577 C17.7261775,18.6019693 17.723418,18.6433616 17.717899,18.6861336 L17.717899,17.4885168 C17.723418,17.4457447 17.7261775,17.4043525 17.7261775,17.3629602" id="Fill-35" fill="#BDCAD5"></path>
                    </g>
                    <g id="编组" transform="translate(17.376827, 17.363374)">
                        <mask id="mask-30" fill="white">
                            <use xlink:href="#path-29"></use>
                        </mask>
                        <g id="Clip-38"></g>
                        <path d="M0.340934462,1.32275949 L0.340934462,0.125142678 C0.346453434,0.0823706491 0.349212919,0.0409783631 0.349212919,-0.00041392286 L0.349212919,1.19720288 C0.349212919,1.23859517 0.346453434,1.27998746 0.340934462,1.32275949" id="Fill-37" fill="#BDCAD5" mask="url(#mask-30)"></path>
                    </g>
                    <g id="编组" transform="translate(11.949884, 11.031044)">
                        <path d="M5.67081217,6.90995923 C5.6459768,6.98032612 5.62114142,7.04931326 5.58733772,7.11209156 C5.56802132,7.14865475 5.54249608,7.18107871 5.51973032,7.21419254 C5.48385701,7.26800251 5.44798369,7.31974287 5.40452179,7.36665412 C5.37554719,7.39838821 5.34105362,7.42736281 5.30862966,7.45633741 C5.26171841,7.4977297 5.21342741,7.53705237 5.15961743,7.57292568 C5.10649733,7.60810913 5.05130762,7.64191283 4.99059893,7.6715773 C4.96852305,7.68192537 4.94851678,7.69434305 4.92506115,7.70400125 C4.83606773,7.7440138 4.73879586,7.77850737 4.63531515,7.80748197 C4.60910003,7.81507056 4.58012543,7.81920978 4.55322045,7.8261085 C4.47181562,7.8454249 4.38558169,7.86198181 4.2958984,7.87508937 C4.24415804,7.88267796 4.19034807,7.8888868 4.13515836,7.89440577 C4.02339918,7.90544371 3.91026027,7.91579178 3.78746315,7.91855127 C3.6198244,7.91717153 3.46253371,7.90406397 3.31283161,7.8840577 C3.30179367,7.88267796 3.29006585,7.88267796 3.27971778,7.88129821 C3.13691439,7.86060207 3.00376921,7.82886798 2.87614299,7.79092505 C2.82026341,7.77436814 2.76921292,7.75229225 2.71678269,7.73159611 C2.64365632,7.70400125 2.57052995,7.67571653 2.50292255,7.64191283 C2.41530887,7.59707118 2.33666353,7.54395108 2.25870806,7.48876137 C2.21938539,7.46116651 2.17661336,7.43771088 2.14005017,7.40735654 C2.0379492,7.32250235 1.9461963,7.22730009 1.86341173,7.12174976 C1.85720288,7.11416118 1.84892443,7.10795234 1.84271558,7.09967388 C1.83719661,7.09277516 1.83305738,7.08311696 1.82753841,7.07552838 C1.75648166,6.97963625 1.69232361,6.87477579 1.63644403,6.76094701 C1.62402634,6.73611163 1.61367827,6.7078269 1.60195045,6.68161179 C1.5598683,6.5870994 1.52192537,6.48775792 1.48881154,6.38220759 C1.47639385,6.34357479 1.46466604,6.30287237 1.4536281,6.26216996 C1.41775478,6.12764503 1.38671057,5.98967074 1.36601442,5.83927877 L6.89871433e-05,6.12074632 L6.89871433e-05,7.31905299 L1.36601442,7.03758545 C1.38188147,7.15141424 1.40188774,7.25972405 1.42603324,7.36389464 C1.43362183,7.39769834 1.44534964,7.42736281 1.4536281,7.45978677 C1.46466604,7.50048918 1.47639385,7.5411916 1.48881154,7.58120414 C1.50053935,7.61776733 1.50950768,7.65777987 1.52192537,7.69365318 C1.545381,7.75919097 1.5743556,7.81783004 1.60195045,7.8792286 C1.61367827,7.90544371 1.62402634,7.93372844 1.63644403,7.95925368 C1.64127313,7.96891188 1.64472248,7.97994983 1.64955158,7.98891816 C1.70198181,8.091709 1.76200063,8.18553151 1.82753841,8.27383506 C1.83305738,8.28142364 1.83719661,8.29039197 1.84271558,8.29798056 C1.84340546,8.29867043 1.84340546,8.2993603 1.84409533,8.30005017 C1.8496143,8.30694889 1.85720288,8.31246786 1.86272186,8.32005644 C1.9461963,8.4249169 2.0379492,8.52080903 2.14005017,8.60497335 C2.17661336,8.63532769 2.22007526,8.65878332 2.25870806,8.68637817 C2.33666353,8.74156789 2.41530887,8.79468799 2.50292255,8.83952963 C2.51809972,8.84711822 2.52913766,8.85815616 2.5450047,8.86574475 C2.5981248,8.89126999 2.66021323,8.9078269 2.71747256,8.92990279 C2.76990279,8.94990906 2.82026341,8.97198495 2.87614299,8.98923173 C2.88994042,8.99337096 2.90166823,8.99957981 2.91615553,9.00371903 C3.02929445,9.03545312 3.14933208,9.06028849 3.27419881,9.07891502 C3.27626842,9.07960489 3.27764817,9.07960489 3.27902791,9.07960489 C3.29075572,9.08029476 3.30386328,9.08029476 3.31490122,9.08236438 C3.4314895,9.09823142 3.552217,9.10926936 3.67915334,9.11409846 C3.71502665,9.11547821 3.75089997,9.11616808 3.78746315,9.11616808 C3.86679837,9.11478833 3.94406397,9.11133898 4.01857008,9.10650988 C4.05996237,9.10375039 4.09514581,9.09616181 4.13515836,9.09202258 C4.19034807,9.08650361 4.24415804,9.08029476 4.2958984,9.07339605 C4.324873,9.06856695 4.35729696,9.06718721 4.38558169,9.06235811 C4.44422076,9.05201003 4.49803073,9.03752273 4.55322045,9.02372531 C4.58012543,9.01751646 4.60910003,9.01268736 4.63531515,9.00509878 C4.64497335,9.00233929 4.65601129,9.00095955 4.66497962,8.99820006 C4.74707432,8.97474443 4.82502979,8.94714958 4.89746629,8.91610536 C4.90781436,8.91196613 4.91540295,8.90713703 4.92506115,8.90230793 C4.94851678,8.89195986 4.96852305,8.87954218 4.99128881,8.8691941 C5.03199122,8.84918783 5.07545312,8.82987143 5.11339605,8.80710568 C5.13064283,8.79606773 5.14237065,8.7822703 5.15961743,8.77054249 C5.21273754,8.73535905 5.26171841,8.6953465 5.30862966,8.65395422 C5.34105362,8.62497962 5.37554719,8.59669489 5.40452179,8.56427093 C5.44798369,8.51804955 5.48385701,8.46561932 5.51973032,8.41249922 C5.54249608,8.37869552 5.56802132,8.34627156 5.58733772,8.30970837 C5.62114142,8.24693007 5.6459768,8.17794293 5.67081217,8.10826591 C5.68253998,8.07377234 5.6990969,8.043418 5.7087551,8.00685481 C5.73841957,7.89785513 5.75842584,7.78126685 5.76808404,7.65502038 L5.76808404,6.45740357 C5.75842584,6.58296018 5.73841957,6.69954845 5.7087551,6.80923801 C5.6990969,6.84442145 5.68253998,6.87546566 5.67081217,6.90995923" id="Fill-39" fill="#BDCAD5"></path>
                        <path d="M7.2213672,6.30501098 C7.21998746,6.22498589 7.21446849,6.14634055 7.20550016,6.06907495 C7.2020508,6.04285983 7.19584196,6.01802446 7.19170273,5.99249922 C7.18825337,5.9711132 7.18411414,5.94903732 7.17997491,5.9276513 C7.17514581,5.90143619 7.17238633,5.8745312 7.16617749,5.84900596 C7.14962057,5.77518971 7.12823456,5.70482283 7.10339918,5.63514581 C7.1006397,5.6282471 7.09650047,5.62065851 7.09374098,5.61306993 C7.08753214,5.59582314 7.07856381,5.57857636 7.0716651,5.56132957 C7.05027908,5.51027908 7.03096268,5.45784886 7.00543744,5.40817811 C6.99164001,5.381963 6.97232361,5.35850737 6.95714644,5.33298213 C6.93231107,5.28814048 6.90471621,5.24536845 6.87574161,5.20259643 C6.85780495,5.17638131 6.8446974,5.14809658 6.82469113,5.12257134 C6.79847601,5.0873879 6.76536218,5.05496394 6.73638758,5.02185011 C6.71155221,4.99356538 6.68809658,4.96390091 6.6611916,4.93630605 C6.58944497,4.86111007 6.51217937,4.79074318 6.42732518,4.72244591 C6.41352775,4.71071809 6.40179994,4.69899028 6.38731264,4.68795234 C6.28659141,4.60999686 6.17483224,4.53687049 6.05548448,4.46788335 C6.02099091,4.44787708 5.98304798,4.42856068 5.94648479,4.40993415 C5.88784572,4.37751019 5.83196613,4.34439636 5.76918783,4.31473189 C5.74780182,4.30507369 5.72020696,4.29748511 5.69813108,4.28713703 C5.51324553,4.20297272 5.31663217,4.1236375 5.09725306,4.05396049 C5.00619003,4.02636563 4.89512073,3.99463155 4.7750831,3.96151772 C4.75921606,3.95737849 4.74886798,3.95392913 4.73231107,3.94910003 C4.71161493,3.94289119 4.68539981,3.93599247 4.6640138,3.9304735 C4.58329884,3.90770775 4.49637504,3.88425212 4.40393227,3.85941675 C4.36047037,3.84768893 4.31907808,3.83665099 4.27354657,3.8242333 C4.13281279,3.78767012 3.98380056,3.74834744 3.81823142,3.70557542 C3.62161806,3.66694262 3.44363123,3.62348071 3.2753026,3.5779492 C3.19665726,3.55725306 3.12284102,3.53379743 3.04971464,3.5103418 C2.99590467,3.49378489 2.93933521,3.47722797 2.8889746,3.45998119 C2.81308874,3.4330762 2.74479147,3.4041016 2.6764942,3.37581687 C2.63510191,3.35857008 2.59026027,3.34201317 2.55162747,3.32407651 C2.52610223,3.31165883 2.50609595,3.29924114 2.48195045,3.28682346 C2.38467858,3.23784258 2.29775478,3.1867921 2.22048918,3.13298213 C2.19082471,3.11297585 2.16322985,3.09158984 2.13632487,3.07020383 C2.07285669,3.01915334 2.01835685,2.96672311 1.97213547,2.91291314 C1.95143932,2.88876764 1.92729382,2.86600188 1.91004704,2.84116651 C1.90038884,2.82736908 1.89211038,2.81357165 1.88383192,2.8004641 C1.85002822,2.74596425 1.82174349,2.69077454 1.80311696,2.63282534 C1.80173722,2.62799624 1.80035748,2.62316714 1.79897774,2.61764817 C1.77897146,2.55211038 1.76793352,2.48381311 1.76793352,2.41275635 L1.76793352,3.6117529 L1.76793352,3.6214111 C1.76862339,3.64762622 1.77069301,3.6745312 1.77345249,3.70074632 C1.77621198,3.72558169 1.78104108,3.75041706 1.78656005,3.77525243 C1.79000941,3.78973973 1.79483851,3.80284729 1.79897774,3.81664472 C1.80035748,3.82078394 1.80173722,3.82561304 1.80311696,3.83044214 C1.80518658,3.83803073 1.80725619,3.84630919 1.81001568,3.85389777 C1.82036375,3.88356225 1.83347131,3.91322672 1.84864848,3.94289119 C1.85830668,3.96220759 1.87279398,3.97945437 1.88383192,3.9980809 C1.89211038,4.01187833 1.90038884,4.02567576 1.91004704,4.03947319 C1.91763562,4.04913139 1.92177485,4.06016933 1.93005331,4.0705174 C1.94109125,4.08431483 1.96040765,4.09673252 1.97213547,4.11052995 C2.01904672,4.16502979 2.07354657,4.21746002 2.13632487,4.26782063 C2.16322985,4.28920665 2.19082471,4.31059266 2.22048918,4.33128881 C2.29706491,4.38509878 2.38467858,4.43545939 2.48195045,4.48444026 C2.50057698,4.49409846 2.5123048,4.50513641 2.5316212,4.51341486 C2.53783004,4.51617435 2.54541863,4.51893384 2.55162747,4.52169332 C2.59026027,4.53962998 2.63510191,4.55618689 2.6764942,4.57343368 C2.74479147,4.60171841 2.81308874,4.63069301 2.8889746,4.65759799 C2.93933521,4.67553465 2.99590467,4.69140169 3.04902477,4.70864848 C3.10835372,4.72727501 3.16216369,4.74659141 3.22494199,4.76452807 C3.24011916,4.76797742 3.26012543,4.77142678 3.27599247,4.77625588 C3.44363123,4.82178739 3.62230793,4.86455942 3.81823142,4.90388209 C3.98380056,4.94596425 4.13281279,4.98528692 4.27354657,5.02253998 C4.31838821,5.0342678 4.35909062,5.04530574 4.40186265,5.05634368 C4.49568517,5.0825588 4.58536845,5.1067043 4.66746315,5.12947005 C4.70402634,5.13981812 4.74058953,5.14947632 4.77439323,5.15913452 C4.89443086,5.19293823 5.00619003,5.22467231 5.09725306,5.25226717 C5.31663217,5.32125431 5.51324553,5.40058953 5.69813108,5.48544371 C5.784365,5.52407651 5.86783945,5.5654688 5.94648479,5.60755096 C5.98304798,5.62686736 6.02099091,5.64549389 6.05548448,5.66550016 C6.17483224,5.73517717 6.28659141,5.80830354 6.38800251,5.88625902 C6.40179994,5.89660709 6.41283788,5.90902477 6.42594544,5.91937284 C6.5114895,5.98767012 6.58944497,6.05941675 6.6611916,6.13392286 C6.68809658,6.16151772 6.71155221,6.19118219 6.73638758,6.21946692 C6.78743807,6.27810599 6.83365945,6.33881468 6.87643148,6.40159298 C6.90471621,6.44367513 6.93231107,6.48644716 6.95714644,6.53059893 C6.99991847,6.60510505 7.03924114,6.68030103 7.0716651,6.75894638 C7.07856381,6.77688304 7.08753214,6.79343995 7.09374098,6.81068674 C7.13168391,6.91209784 7.15927877,7.01695829 7.17997491,7.12526811 C7.18411414,7.14734399 7.18825337,7.16873001 7.19170273,7.19011602 C7.20963939,7.30601442 7.2213672,7.42398244 7.2213672,7.5481593 L7.2213672,6.34916275 C7.2213672,6.33467545 7.2213672,6.31949828 7.2213672,6.30501098" id="Fill-41" fill="#BDCAD5"></path>
                        <path d="M0.465456256,2.95264973 C0.481323299,2.89746002 0.507538413,2.84985889 0.526854813,2.79673879 C0.566177485,2.68911885 0.6068799,2.58287865 0.660689871,2.48629664 C0.692423957,2.42972719 0.733126372,2.38005644 0.769689558,2.32762622 C0.826259015,2.24553151 0.884208216,2.16412669 0.952505488,2.09169019 C0.999416745,2.04201944 1.05391659,1.99648793 1.10634682,1.95164628 C1.18016306,1.88679837 1.25673879,1.82470994 1.34159298,1.76814048 C1.42230793,1.71502038 1.50716212,1.66465977 1.59822515,1.61843838 C1.63892756,1.59774224 1.67687049,1.57566635 1.71964252,1.55703982 C1.86313578,1.49288178 2.01628724,1.43562245 2.18323612,1.38802132 C2.21634995,1.37905299 2.25360301,1.37353402 2.28740671,1.36456569 C2.42676074,1.32869238 2.57301348,1.29902791 2.72685481,1.27419254 C2.81722797,1.26039511 2.91449984,1.25073691 3.0097021,1.24107871 C3.1690624,1.22314205 3.32704296,1.20451552 3.50158043,1.19830668 L3.54642208,1.19830668 C3.71888993,1.19830668 3.87756036,1.21210411 4.03761054,1.22383192 C4.13350267,1.23142051 4.23077454,1.23762935 4.32183757,1.24866729 C4.45360301,1.26591408 4.57709,1.29074945 4.69988711,1.31696457 C4.76818438,1.33145187 4.84062088,1.34248981 4.90615867,1.35973659 C5.00067106,1.38526184 5.08483537,1.41975541 5.17313892,1.45079962 C5.2676513,1.48391345 5.36492317,1.5142678 5.45253685,1.55497021 C5.51048605,1.58118532 5.56015679,1.6156789 5.61465663,1.6446535 C5.73676388,1.70950141 5.85473189,1.7798683 5.96097209,1.85989338 C6.01823142,1.90266541 6.06997178,1.95026654 6.12240201,1.99648793 C6.21277516,2.07720288 6.29762935,2.16343681 6.37558482,2.25725933 C6.42870492,2.3207275 6.48113515,2.38557542 6.52804641,2.45456256 C6.56598934,2.51044214 6.60186265,2.56770147 6.63566635,2.62703042 C6.6949953,2.73051113 6.74949514,2.83813108 6.79709627,2.95264973 C6.81020383,2.98576356 6.82607087,3.01611791 6.83848855,3.04992161 C6.89988711,3.21480088 6.95231734,3.38933835 6.99095014,3.57629351 L6.99095014,2.3786767 C6.98405143,2.34556287 6.97715271,2.31313892 6.96956413,2.28071496 C6.93783004,2.14550016 6.89988711,2.01580433 6.85573534,1.89231734 C6.85090624,1.87783004 6.84400753,1.86610223 6.83848855,1.85092505 C6.82607087,1.81781123 6.81020383,1.78814675 6.79709627,1.75503293 C6.76605205,1.68052681 6.73707745,1.60395108 6.70189401,1.5335842 C6.68257761,1.49633114 6.6563625,1.46528692 6.63566635,1.42872374 C6.60186265,1.36939479 6.56598934,1.31282534 6.52804641,1.25694575 C6.50252117,1.21969269 6.48320477,1.17761054 6.45629978,1.14242709 C6.43284415,1.11138288 6.40042019,1.08930699 6.37558482,1.05964252 C6.29762935,0.965820006 6.21277516,0.879586077 6.12240201,0.798871119 C6.06997178,0.752649733 6.01823142,0.704358733 5.96097209,0.662276576 C5.85473189,0.580871747 5.73676388,0.511884603 5.61396676,0.446346817 C5.57257447,0.42358106 5.53946065,0.393226717 5.49599875,0.372530574 C5.48220132,0.366321731 5.46633427,0.362872374 5.45253685,0.356663531 C5.36492317,0.316650988 5.26627156,0.286296645 5.17175917,0.252492944 C5.09794293,0.226967701 5.03240514,0.193853873 4.95444967,0.172467858 C4.9392725,0.16832863 4.92133584,0.166259015 4.90615867,0.162119787 C4.83993101,0.144873001 4.76749451,0.133145187 4.69850737,0.118657886 C4.60399498,0.0979617435 4.5143117,0.0738162433 4.41428034,0.0593289432 C4.38530574,0.0551897146 4.35150204,0.0551897146 4.32252744,0.051050486 C4.23077454,0.0393226717 4.13281279,0.0338037002 4.03623079,0.0262151145 C3.95068674,0.0193164001 3.87135152,0.00689871433 3.78235811,0.0041392286 C3.70509251,0.00137974287 3.62644716,0 3.54642208,0 C3.53193478,0 3.5167576,0 3.50158043,0.000689871433 C3.41672625,0.00344935717 3.33394167,0.00758858576 3.25253685,0.0131075572 C3.16699279,0.0193164001 3.0917968,0.0338037002 3.0097021,0.0427720288 C2.91449984,0.0531201003 2.81722797,0.0627783004 2.72685481,0.0765757291 C2.6958106,0.0814048291 2.66062716,0.082784572 2.63027281,0.0883035434 C2.50954531,0.108999686 2.39847601,0.137974287 2.28740671,0.166948887 C2.25360301,0.175227344 2.21634995,0.180746315 2.18323612,0.190404516 C2.17564754,0.19247413 2.16736908,0.193853873 2.16047037,0.195923487 C2.02318595,0.23593603 1.89349012,0.280777673 1.77207275,0.331828159 C1.75344622,0.340106616 1.73826905,0.351144559 1.71964252,0.358733145 C1.67687049,0.378049545 1.63823769,0.400125431 1.59753528,0.420821574 C1.53682659,0.451865789 1.47128881,0.479460646 1.41471935,0.513954218 C1.38712449,0.529821261 1.36849796,0.552587018 1.34159298,0.570523675 C1.25673879,0.626403261 1.17947319,0.689181562 1.10565695,0.753339605 C1.05322672,0.798871119 0.999416745,0.843712763 0.953195359,0.893383506 C0.884208216,0.966509878 0.826259015,1.04722484 0.769689558,1.12931954 C0.733126372,1.18243964 0.692423957,1.23211038 0.660689871,1.28867984 C0.6068799,1.38526184 0.566177485,1.49150204 0.526854813,1.59912198 C0.507538413,1.65155221 0.481323299,1.69984321 0.465456256,1.75503293 C0.417165256,1.92267168 0.382671684,2.10134839 0.36611477,2.29313264 C0.358526184,2.36694889 0.354386955,2.43938539 0.354386955,2.50975227 L0.354386955,3.70805895 C0.354386955,3.6370022 0.358526184,3.56525557 0.36611477,3.49074945 C0.382671684,3.29896519 0.417165256,3.12097836 0.465456256,2.95264973" id="Fill-43" fill="#BDCAD5"></path>
                        <path d="M3.54662904,1.19830668 C5.51207275,1.19830668 6.66415804,1.9923487 6.9911571,3.57629351 L5.66246472,3.8639699 C5.46999059,2.82433365 4.77460019,2.30486046 3.58250235,2.29244277 C2.4704296,2.31727814 1.86886171,2.72085293 1.77572907,3.50316714 C1.68880527,4.14474757 2.36556914,4.61592976 3.81843838,4.90360615 C4.38965193,5.05054876 4.81116337,5.16644716 5.09746002,5.25199122 C6.55032926,5.71075572 7.2519285,6.49996864 7.22088429,7.61894011 C7.15258702,9.2201317 6.02257761,10.039699 3.82464722,10.082471 C3.77635622,10.0838507 3.72737535,10.0838507 3.67977422,10.0838507 C1.57635622,10.0838507 0.345625588,9.16011289 0,7.31884603 L1.36594544,7.03737849 C1.55841957,8.41298213 2.36556914,9.1042333 3.78739417,9.11665099 C5.04158043,9.09181562 5.69971778,8.60890561 5.76801505,7.65481342 C5.85493885,7.00702415 5.27751646,6.51169646 4.02264033,6.16952023 C3.91157103,6.11433051 3.66942615,6.04120414 3.29689558,5.95566008 C3.18513641,5.92530574 3.09821261,5.91219818 3.04233302,5.91219818 C1.13621825,5.50241455 0.241455002,4.70147382 0.366321731,3.49074945 C0.490498589,2.0358106 1.5335842,1.27143305 3.50178739,1.19830668 L3.54662904,1.19830668 Z" id="Fill-45" fill="#8DA4B7"></path>
                    </g>
                </g>
            </g>
        </g>
    </g>
</svg>