<?xml version="1.0" standalone="no"?><!DOCTYPE svg PUBLIC "-//W3C//DTD SVG 1.1//EN" "http://www.w3.org/Graphics/SVG/1.1/DTD/svg11.dtd"><svg t="1638848479956" class="icon" viewBox="0 0 1024 1024" version="1.1" xmlns="http://www.w3.org/2000/svg" p-id="5813" xmlns:xlink="http://www.w3.org/1999/xlink" width="36" height="36"><defs><style type="text/css"></style></defs><path d="M294.997333 475.136H205.738667a90.709333 90.709333 0 1 0 1.109333 68.266667h88.149333a228.608 228.608 0 0 1 0-68.266667z m-172.8 58.026667A22.528 22.528 0 1 1 145.066667 510.634667a22.528 22.528 0 0 1-22.869334 22.528zM901.973333 419.84a90.794667 90.794667 0 0 0-83.541333 55.296h-78.506667a228.949333 228.949333 0 0 1 0 68.266667h77.482667a90.709333 90.709333 0 1 0 84.565333-123.562667z m0 113.322667a22.528 22.528 0 1 1 22.442667-22.528 22.528 22.528 0 0 1-22.442667 22.528zM560.981333 829.952v-99.84a221.866667 221.866667 0 0 1-43.605333 4.266667 213.333333 213.333333 0 0 1-24.661333-1.365334v96.938667a90.794667 90.794667 0 1 0 68.266666 0z m-34.133333 106.581333a22.528 22.528 0 1 1 22.528-22.528 22.528 22.528 0 0 1-22.528 22.528zM526.848 19.2a90.709333 90.709333 0 0 0-34.133333 174.848v91.562667a214.016 214.016 0 0 1 24.661333-1.365334 221.866667 221.866667 0 0 1 43.605333 4.266667V194.048a90.709333 90.709333 0 0 0-34.133333-174.848z m0 113.322667a22.528 22.528 0 1 1 22.528-22.528 22.528 22.528 0 0 1-22.528 22.528zM318.634667 749.824l61.952-62.037333a221.269333 221.269333 0 0 1-47.274667-49.237334l-62.976 62.976-0.938667 1.109334a90.794667 90.794667 0 1 0 56.746667 84.053333 89.514667 89.514667 0 0 0-7.765333-36.608z m-67.328 52.821333a22.528 22.528 0 0 1-31.914667-31.829333 22.698667 22.698667 0 0 1 31.914667 0 22.698667 22.698667 0 0 1 0.085333 31.829333zM850.944 171.178667a90.794667 90.794667 0 0 0-148.48 98.218666l-55.893333 55.893334a221.866667 221.866667 0 0 1 49.322666 47.274666l54.186667-54.186666a90.794667 90.794667 0 0 0 100.864-147.2z m-48.213333 80.128a22.528 22.528 0 0 1-31.829334-31.829334 22.186667 22.186667 0 0 1 15.872-6.656 22.528 22.528 0 0 1 15.957334 38.485334zM870.997333 721.578667a90.794667 90.794667 0 0 0-99.584-19.456l-67.328-67.242667a227.328 227.328 0 0 1-46.336 50.176l65.450667 65.450667a90.709333 90.709333 0 1 0 147.712-28.928z m-48.298666 80.128a22.954667 22.954667 0 0 1-31.829334 0 22.613333 22.613333 0 0 1 15.957334-38.485334 22.186667 22.186667 0 0 1 15.872 6.656 22.613333 22.613333 0 0 1 0 31.829334zM321.877333 252.586667a90.88 90.88 0 1 0-48.298666 48.213333l68.266666 68.266667a223.488 223.488 0 0 1 50.176-46.336z m-67.669333-19.456a22.442667 22.442667 0 1 1 0-31.829334 22.528 22.528 0 0 1-0.085333 31.829334z" fill="#2d77ee" p-id="5814"></path><path d="M739.925333 475.136a225.706667 225.706667 0 0 0-93.269333-149.845333 223.402667 223.402667 0 0 0-129.194667-41.045334 214.016 214.016 0 0 0-24.661333 1.365334 225.109333 225.109333 0 0 0 0 447.402666 213.333333 213.333333 0 0 0 24.661333 1.365334 224.256 224.256 0 0 0 140.373334-49.322667 224.682667 224.682667 0 0 0 82.090666-141.653333 228.949333 228.949333 0 0 0 0-68.266667zM517.461333 666.112A156.842667 156.842667 0 1 1 674.133333 509.269333a156.928 156.928 0 0 1-156.672 156.842667z" fill="#2d77ee" p-id="5815"></path><path d="M515.242667 570.794667a61.952 61.952 0 0 1-38.570667-15.445334 12.8 12.8 0 1 0-17.066667 19.114667 86.869333 86.869333 0 0 0 54.613334 21.845333h0.426666a12.8 12.8 0 0 0 0.512-25.6z m76.8-74.325334a12.8 12.8 0 0 0-12.8 12.8 61.525333 61.525333 0 0 1-14.08 39.082667 12.970667 12.970667 0 0 0 1.792 18.090667 12.8 12.8 0 0 0 18.005333-1.792 87.210667 87.210667 0 0 0 19.882667-55.381334 12.8 12.8 0 0 0-13.141334-12.8z m-119.466667-47.701333a12.8 12.8 0 0 0-18.090667 0.426667 86.869333 86.869333 0 0 0-23.893333 53.76 12.714667 12.714667 0 0 0 11.861333 13.653333H443.733333a12.714667 12.714667 0 0 0 12.714667-11.861333 61.354667 61.354667 0 0 1 17.066667-37.973334 12.885333 12.885333 0 0 0-0.938667-18.005333z m107.264 0a87.04 87.04 0 0 0-52.906667-25.6 12.8 12.8 0 1 0-2.730666 25.6 61.696 61.696 0 0 1 37.290666 18.176 12.629333 12.629333 0 0 0 9.216 3.925333 12.885333 12.885333 0 0 0 8.533334-3.669333 12.714667 12.714667 0 0 0 0.597333-18.688z" fill="#2d77ee" p-id="5816"></path></svg>
