<?xml version="1.0" standalone="no"?><!DOCTYPE svg PUBLIC "-//W3C//DTD SVG 1.1//EN" "http://www.w3.org/Graphics/SVG/1.1/DTD/svg11.dtd"><svg t="1572862169176" class="icon" viewBox="0 0 1024 1024" version="1.1" xmlns="http://www.w3.org/2000/svg" p-id="52363" xmlns:xlink="http://www.w3.org/1999/xlink" width="200" height="200"><defs><style type="text/css"></style></defs><path d="M972 865.956V912h-85.44l3.288-174.316H972v42.756h-46v23.024h26.288v42.756H926v19.736H972zM797.836 912l-32.86-174.316h39.424l16.428 88.8 16.432-88.8h39.432L843.844 912h-46z m-27.492-196.672c-22.964 10.892-36.976 6.52-58.276 3.956s-55.7-26.172-55.7-26.172a225.304 225.304 0 0 1-22.8 24.844c-7.6 5.876-30.268 7.252-47.7 2.152s-28.624-37.356-28.624-37.356l-38.968-7.448s-18.148 10.636-13.76 57.976c2.8 30.24 23.368 75.848 38.868 96.036s56.58 12.516 56.58 12.516 8.656 18.296-58.272 32-147.44-33.576-173.368-58.468c-64.08-61.52-88.612-126.648-92.96-202.644s52.596-141.412 52.596-141.412l-70.992 17.2-84.424-1.84S152 424.8 113.276 379.772 46.22 314.74 52.928 261.104s31.484-70.124 48.4-78.372 60.36-6.8 60.36-6.8S221.356 105.6 250.4 91.672 361.044 107.6 361.044 107.6l111.972 56.308 47.58 26.232 60.052-43.172 79.2 2 50.536 43.004s44.172 53.956 48.036 78.68-26.54 88.176-26.54 88.176l-1.56 39.908 18.912 15.316 26.188 60.728 11.856 25.456-0.828 27.796s39.916-17.096 50.984-19.348 21.144 3.376 25.116 19.444-6.956 70.992-21.872 108.728-47.372 67.58-70.332 78.472zM341.072 777.152s35.528 22.4 72.528 29.276c49.796 9.232 104.92 3.6 104.92 3.6l-26.288-32.888a238.8 238.8 0 0 1-82.36-10.052c-46.7-14.448-101.66-45.864-101.66-45.864zM285.2 639.012a225.644 225.644 0 0 0 74.48 58.648c49.66 24.852 122.692 40.024 122.692 40.024l9.86-36.18s-78.4-16.764-125.316-51c-49.916-36.4-78.42-90.428-78.42-90.428z m41.388-155.784c-7.944 23.128 17.492 90.364 50.624 119.6s118.3 78.936 118.3 78.936l6.572-9.864a209.392 209.392 0 0 1-65.408-82.496c-23.716-54.068-56.18-137.868-56.18-137.868s-43.988 2.836-53.9 31.692z m519.228 45.496c-5.256-4.18-15.552 0.1-30.352 3.9a274.3 274.3 0 0 1-39.064 5.396l-7.144 25.916-35.004 36.688 23.416-36.624-11.428-8.184-37.48 33.52 28.228-39.34-12.992 0.276-25.924 16.584 24.636-26.224 25.856 5.464 14.576 3.58 11.312-45.516-14.316-33.46-23.424-42.3-12.376-12.928-9.448-44.304s32.072-71.292 29.6-93.96-42-74.844-42-74.844l-42.648-39.456-69.824-8.4L532.508 195.6 602.4 248.312l26.7 96.984 26.516 19.864-23.324-8.36 5.628 32.984-45.156-131.6-52.4-41.548-61.108-37.628L374.124 129.2s-103.808-28.632-118.26-23.484-82.704 84.44-82.704 84.44l103.488 52.136-104-42.596-67.36-2.284s-42.34 41.012-33.112 97.704 51.6 71.228 75.736 101 36.772 76.684 36.772 76.684l91.472 5.032 80.568-31.82 126.864-35.084s-17.628 79.9 0.156 109.912 57.368 36.164 57.368 36.164-18.56 26.272-7.64 52.284a158.2 158.2 0 0 0 31.02 45.712s10.16 42.548 23.6 52.828 37.176-1.436 37.176-1.436a27.928 27.928 0 0 1-32.868-16.036c-10.296-22.484 8.94-26.92 15.684-36.164a45.856 45.856 0 0 0 6.972-22.688s74.176 108.128 150.4 67.008 84.104-148.92 84.104-148.92 1.524-16.688-3.736-20.868z m-192.572-1.54a87.676 87.676 0 0 0-36.148 16.448l16.428-19.736v-16.444l-9.856-3.288h-9.86a244.772 244.772 0 0 1 32.86-9.868c11.84-2 36.148 0 36.148 0l-9.856 6.58 3.284 16.444 16.432 6.576a136.284 136.284 0 0 0-39.424 3.304z m-3.288-335.476s30.916 20.58 36.148 42.756 6.572 69.068 6.572 69.068-7.116-53.476-16.432-65.78-26.28-46.044-26.28-46.044z m-19.716 259.832a41.2 41.2 0 0 0-16.432 13.156l9.86-26.312 36.148 6.576a295.648 295.648 0 0 0-29.568 6.58z m-98.576-128.272c-24-8.856-55.864-9.868-55.864-9.868l39.436-16.444-105.156-19.736s66.068-8.596 105.156 3.288S574.4 375.892 574.4 375.892s-18.728-43.768-42.736-52.624z m115.012 480.196h9.86v-65.78h42.72V912h-39.432v-78.936h-13.148V912h-39.432v-174.316h39.432v65.78z m108.444-65.78V912H712.4l3.284-174.316h39.436z m-328.608 105.248l108.44-6.58 13.144 23.024-46 9.868z" fill="#6666FF" p-id="52364"></path></svg>