<svg t="1572510532353" viewBox="0 0 1024 1024" version="1.1" xmlns="http://www.w3.org/2000/svg" p-id="22979" xmlns:xlink="http://www.w3.org/1999/xlink" width="30" height="30">
    <path d="M512 11.324L82.824 154.323V583.56A429.116 429.116 0 0 0 512 1012.616a429.116 429.116 0 0 0 429.176-429.177V154.443L512 11.264zM860.762 583.56a348.762 348.762 0 0 1-697.524 0V214.679L512 91.799l348.762 122.88v368.82zM362.616 470.679a40.117 40.117 0 0 0-56.862 0 40.117 40.117 0 0 0 0 56.922L450.32 672.166l2.41 2.41a37.948 37.948 0 0 0 53.73 0l249.795-249.797a37.948 37.948 0 0 0 0-53.79l-3.132-3.132a37.948 37.948 0 0 0-53.73 0L479.533 587.595 362.677 470.74z" p-id="22980" fill="#339999"/>
</svg>
