<svg xmlns="http://www.w3.org/2000/svg" xmlns:xlink="http://www.w3.org/1999/xlink" fill="none" version="1.1" width="1024" height="1024" viewBox="0 0 1024 1024"><defs><clipPath id="master_svg0_0_37"><rect x="0" y="0" width="1024" height="1024" rx="0"/></clipPath><clipPath id="master_svg1_0_38"><rect x="80" y="64" width="864" height="897" rx="0"/></clipPath></defs><g clip-path="url(#master_svg0_0_37)"><rect x="0" y="0" width="1024" height="1024" rx="0" fill="#FFFFFF" fill-opacity="1"/><g clip-path="url(#master_svg1_0_38)"><g><path d="" fill="#323232" fill-opacity="1"/><path d="M837,173.8665771484375L762,173.8665771484375Q761.214,173.8665771484375,760.43,173.9050771484375Q759.645,173.9436771484375,758.863,174.0206771484375Q758.082,174.0976771484375,757.305,174.2129771484375Q756.528,174.3281771484375,755.757,174.4814771484375Q754.987,174.6346771484375,754.225,174.8255771484375Q753.463,175.0164771484375,752.711,175.2444771484375Q751.959,175.4724771484375,751.219,175.7371771484375Q750.48,176.0017771484375,749.754,176.3024771484375Q749.028,176.6030771484375,748.318,176.93887714843748Q747.608,177.2747771484375,746.915,177.6450771484375Q746.222,178.0153771484375,745.549,178.41927714843752Q744.875,178.8230771484375,744.222,179.2595771484375Q743.568,179.6959771484375,742.938,180.1639771484375Q742.307,180.6318771484375,741.699,181.1302771484375Q741.092,181.6285771484375,740.51,182.1561771484375Q739.928,182.6836771484375,739.372,183.2391771484375Q738.817,183.7946771484375,738.29,184.3766771484375Q737.762,184.9587771484375,737.264,185.5659771484375Q736.765,186.1732771484375,736.297,186.8041771484375Q735.829,187.4351771484375,735.393,188.0883771484375Q734.956,188.7414771484375,734.553,189.4152771484375Q734.149,190.0890771484375,733.779,190.7818771484375Q733.408,191.4746771484375,733.072,192.1847771484375Q732.736,192.8949771484375,732.436,193.6206771484375Q732.135,194.3464771484375,731.87,195.0860771484375Q731.606,195.8257771484375,731.378,196.5774671484375Q731.15,197.3291971484375,730.959,198.0912071484375Q730.768,198.8532271484375,730.615,199.6236871484375Q730.462,200.3941471484375,730.346,201.1712071484375Q730.231,201.9482571484375,730.154,202.7300271484375Q730.077,203.5118071484375,730.039,204.2964071484375Q730,205.0810211484375,730,205.8665771484375Q730,206.6521331484375,730.039,207.4367471484375Q730.077,208.2213471484375,730.154,209.0031271484375Q730.231,209.7848971484375,730.346,210.5619471484375Q730.462,211.3390071484375,730.615,212.1094671484375Q730.768,212.8799271484375,730.959,213.6419471484375Q731.15,214.4039571484375,731.378,215.1556871484375Q731.606,215.9073771484375,731.87,216.6470771484375Q732.135,217.3866771484375,732.436,218.1124771484375Q732.736,218.8381771484375,733.072,219.5483771484375Q733.408,220.2584771484375,733.779,220.9512771484375Q734.149,221.6440771484375,734.553,222.3178771484375Q734.956,222.9916771484375,735.393,223.6447771484375Q735.829,224.2979771484375,736.297,224.9289771484375Q736.765,225.5598771484375,737.264,226.1671771484375Q737.762,226.7743771484375,738.29,227.3564771484375Q738.817,227.9384771484375,739.372,228.4939771484375Q739.928,229.0494771484375,740.51,229.5769771484375Q741.092,230.1045771484375,741.699,230.6028771484375Q742.307,231.1012771484375,742.938,231.5691771484375Q743.568,232.0371771484375,744.222,232.4735771484375Q744.875,232.9100771484375,745.549,233.31387714843748Q746.222,233.7177771484375,746.915,234.0880771484375Q747.608,234.4583771484375,748.318,234.79427714843752Q749.028,235.1300771484375,749.754,235.4306771484375Q750.48,235.7313771484375,751.219,235.9959771484375Q751.959,236.2606771484375,752.711,236.4886771484375Q753.463,236.7166771484375,754.225,236.9075771484375Q754.987,237.0984771484375,755.757,237.2516771484375Q756.528,237.4049771484375,757.305,237.5201771484375Q758.082,237.6354771484375,758.863,237.7124771484375Q759.645,237.7894771484375,760.43,237.8280771484375Q761.214,237.8665771484375,762,237.8665771484375L880,237.8665771484375L880,897.8665771484375L512,897.8665771484375L144,897.8665771484375L144,237.8665771484375L262,237.8665771484375Q262.786,237.8665771484375,263.57,237.8280771484375Q264.355,237.7894771484375,265.137,237.7124771484375Q265.918,237.6354771484375,266.695,237.5201771484375Q267.472,237.4049771484375,268.243,237.2516771484375Q269.01300000000003,237.0984771484375,269.775,236.9075771484375Q270.53700000000003,236.7166771484375,271.289,236.4886771484375Q272.041,236.2606771484375,272.78,235.9959771484375Q273.52,235.7313771484375,274.246,235.4306771484375Q274.972,235.1300771484375,275.682,234.79427714843752Q276.392,234.4583771484375,277.08500000000004,234.0880771484375Q277.777,233.7177771484375,278.451,233.31387714843748Q279.125,232.9100771484375,279.778,232.4735771484375Q280.43100000000004,232.0371771484375,281.062,231.5691771484375Q281.693,231.1012771484375,282.301,230.6028771484375Q282.908,230.1045771484375,283.49,229.5769771484375Q284.072,229.0494771484375,284.627,228.4939771484375Q285.183,227.9384771484375,285.71000000000004,227.3564771484375Q286.238,226.7743771484375,286.736,226.1671771484375Q287.235,225.5598771484375,287.703,224.9289771484375Q288.171,224.2979771484375,288.60699999999997,223.6447771484375Q289.043,222.9916771484375,289.447,222.3178771484375Q289.851,221.6440771484375,290.221,220.9512771484375Q290.592,220.2584771484375,290.928,219.5483771484375Q291.264,218.8381771484375,291.56399999999996,218.1124771484375Q291.865,217.3866771484375,292.129,216.6470771484375Q292.394,215.9073771484375,292.622,215.1556871484375Q292.85,214.4039571484375,293.041,213.6419471484375Q293.23199999999997,212.8799271484375,293.385,212.1094671484375Q293.538,211.3390071484375,293.654,210.5619471484375Q293.769,209.7848971484375,293.846,209.0031271484375Q293.923,208.2213471484375,293.961,207.4367471484375Q294,206.6521331484375,294,205.8665771484375Q294,205.0810211484375,293.961,204.2964071484375Q293.923,203.5118071484375,293.846,202.7300271484375Q293.769,201.9482571484375,293.654,201.1712071484375Q293.538,200.3941471484375,293.385,199.6236871484375Q293.23199999999997,198.8532271484375,293.041,198.0912071484375Q292.85,197.3291971484375,292.622,196.5774671484375Q292.394,195.8257771484375,292.129,195.0860771484375Q291.865,194.3464771484375,291.56399999999996,193.6206771484375Q291.264,192.8949771484375,290.928,192.1847771484375Q290.592,191.4746771484375,290.221,190.7818771484375Q289.851,190.0890771484375,289.447,189.4152771484375Q289.043,188.7414771484375,288.60699999999997,188.0883771484375Q288.171,187.4351771484375,287.703,186.8041771484375Q287.235,186.1732771484375,286.736,185.5659771484375Q286.238,184.9587771484375,285.71000000000004,184.3766771484375Q285.183,183.7946771484375,284.627,183.2391771484375Q284.072,182.6836771484375,283.49,182.1561771484375Q282.908,181.6285771484375,282.301,181.1302771484375Q281.693,180.6318771484375,281.062,180.1639771484375Q280.43100000000004,179.6959771484375,279.778,179.2595771484375Q279.125,178.8230771484375,278.451,178.41927714843752Q277.777,178.0153771484375,277.08500000000004,177.6450771484375Q276.392,177.2747771484375,275.682,176.93887714843748Q274.972,176.6030771484375,274.246,176.3024771484375Q273.52,176.0017771484375,272.78,175.7371771484375Q272.041,175.4724771484375,271.289,175.2444771484375Q270.53700000000003,175.0164771484375,269.775,174.8255771484375Q269.01300000000003,174.6346771484375,268.243,174.4814771484375Q267.472,174.3281771484375,266.695,174.2129771484375Q265.918,174.0976771484375,265.137,174.0206771484375Q264.355,173.9436771484375,263.57,173.9050771484375Q262.786,173.8665771484375,262,173.8665771484375L113.95804,173.8665771484375Q107.10041,173.8665771484375,100.7887,176.5189771484375Q94.5525,179.1396771484375,89.799,183.9519771484375Q85.0921,188.7168771484375,82.5476,194.9157771484375Q80,201.1220971484375,80,207.8419871484375L80,927.8915771484375Q80,934.7775771484374,82.6759,941.1145771484375Q85.2858,947.2945771484375,90.0511,952.0185771484375Q94.7829,956.7095771484375,100.9374,959.2655771484375Q107.19865,961.8665771484375,113.98784,961.8665771484375L512,961.8665771484375L910.012,961.8665771484375Q916.8,961.8665771484375,923.062,959.2665771484375Q929.216,956.7105771484376,933.948,952.0195771484375Q938.714,947.2955771484375,941.324,941.1145771484375Q944,934.7775771484374,944,927.8915771484375L944,207.8419871484375Q944,201.1219371484375,941.452,194.9154771484375Q938.908,188.7165771484375,934.201,183.9516771484375Q929.447,179.1395771484375,923.211,176.5189771484375Q916.899,173.8665771484375,910.042,173.8665771484375L837,173.8665771484375Z" fill-rule="evenodd" fill="#323232" fill-opacity="1"/></g><g transform="matrix(0,1,-1,0,1425.86669921875,-26.13330078125)"><rect x="726" y="699.86669921875" width="64" height="428" rx="32" fill="#323232" fill-opacity="1"/></g><g transform="matrix(0,1,-1,0,1267.86669921875,-184.13330078125)"><rect x="726" y="541.86669921875" width="64" height="428" rx="32" fill="#323232" fill-opacity="1"/></g><g transform="matrix(-1,-8.742277657347586e-8,8.742277657347586e-8,-1,1087.9999630318189,845.7334459954905)"><rect x="544" y="422.86669921875" width="64.0000228881836" height="305" rx="32.0000114440918" fill="#323232" fill-opacity="1"/></g><g transform="matrix(0,-1,1,0,197.29168701171875,640.7083129882812)"><path d="M396.3846,384.48531298828124L396.3726,384.49731298828124Q395.8171,385.0533129882813,395.2896,385.63531298828127Q394.762,386.21731298828126,394.2637,386.82431298828124Q393.7653,387.43131298828126,393.2974,388.0623129882813Q392.8294,388.69331298828126,392.39300000000003,389.3463129882813Q391.9565,390.0003129882813,391.5527,390.6733129882813Q391.1488,391.34731298828126,390.7785,392.04031298828124Q390.4082,392.7333129882812,390.0723,393.44331298828126Q389.7365,394.15331298828124,389.4359,394.87931298828124Q389.1352,395.60531298828124,388.8706,396.3443129882812Q388.6059,397.0843129882812,388.3779,397.83631298828124Q388.1499,398.58731298828127,387.959,399.3493129882812Q387.7681,400.11131298828127,387.6149,400.8823129882812Q387.4616,401.6523129882812,387.3464,402.42931298828125Q387.2311,403.20631298828124,387.15409999999997,403.9883129882812Q387.0771,404.77031298828126,387.0385,405.55531298828123Q387,406.3393129882812,387,407.1253129882813Q387,407.91031298828125,387.0385,408.6953129882812Q387.0771,409.4793129882812,387.15409999999997,410.26131298828125Q387.2311,411.0433129882813,387.3464,411.8203129882812Q387.4616,412.59731298828126,387.6149,413.3683129882812Q387.7681,414.13831298828126,387.959,414.90031298828126Q388.1499,415.66231298828126,388.3779,416.41431298828127Q388.6059,417.1663129882812,388.8706,417.90531298828125Q389.1352,418.64531298828126,389.4359,419.37131298828126Q389.7365,420.0963129882813,390.0723,420.80631298828126Q390.4082,421.5173129882812,390.7785,422.2093129882812Q391.1488,422.9023129882812,391.5527,423.57631298828124Q391.9565,424.2503129882813,392.39300000000003,424.90331298828124Q392.8294,425.55631298828126,393.2974,426.1873129882813Q393.7653,426.81831298828126,394.2637,427.42531298828123Q394.762,428.03231298828126,395.2896,428.6153129882813Q395.8171,429.1973129882813,396.3726,429.75231298828123Q396.9281,430.3083129882813,397.5101,430.83531298828126Q398.0922,431.3633129882812,398.6994,431.86131298828127Q399.3067,432.35931298828126,399.9376,432.8273129882813Q400.5686,433.29531298828124,401.22180000000003,433.73231298828125Q401.8749,434.1683129882813,402.5487,434.5723129882813Q403.2225,434.9763129882813,403.9153,435.3463129882813Q404.6081,435.7163129882813,405.3182,436.05231298828124Q406.0284,436.38831298828126,406.7541,436.68931298828124Q407.4799,436.98931298828126,408.2195,437.25431298828124Q408.9592,437.5193129882813,409.71089,437.74731298828124Q410.46262,437.97531298828125,411.22463,438.1663129882812Q411.98665,438.35731298828125,412.75711,438.51031298828127Q413.52757,438.6633129882813,414.30463,438.77831298828124Q415.08168,438.8943129882813,415.86345,438.9713129882813Q416.64522,439.0483129882813,417.42983,439.08631298828124Q418.214444,439.1253129882813,419,439.1253129882813Q419.785556,439.1253129882813,420.57017,439.08631298828124Q421.35477,439.0483129882813,422.13655,438.9713129882813Q422.91832,438.8943129882813,423.69537,438.77831298828124Q424.47243,438.6633129882813,425.24289,438.51031298828127Q426.01335,438.35731298828125,426.77537,438.1663129882812Q427.53738,437.97531298828125,428.28911,437.74731298828124Q429.0408,437.5193129882813,429.7805,437.25431298828124Q430.5201,436.98931298828126,431.2459,436.68931298828124Q431.9716,436.38831298828126,432.6818,436.05231298828124Q433.3919,435.7163129882813,434.0847,435.3463129882813Q434.7775,434.9763129882813,435.4513,434.5723129882813Q436.1251,434.1683129882813,436.77819999999997,433.73231298828125Q437.4314,433.29531298828124,438.0624,432.8273129882813Q438.6933,432.35931298828126,439.3006,431.86131298828127Q439.9078,431.3633129882812,440.4899,430.83531298828126Q441.0719,430.3083129882813,441.6274,429.75231298828123L441.6394,429.7403129882813L534.336,337.04431298828126Q534.891,336.4883129882812,535.419,335.90631298828123Q535.946,335.32431298828124,536.4449999999999,334.71731298828126Q536.943,334.11031298828124,537.4110000000001,333.47931298828127Q537.879,332.84831298828124,538.315,332.1953129882812Q538.752,331.5413129882812,539.156,330.8683129882812Q539.559,330.19431298828124,539.9300000000001,329.50131298828126Q540.3,328.8083129882813,540.636,328.09831298828124Q540.972,327.38831298828126,541.272,326.66231298828126Q541.573,325.93631298828126,541.838,325.1973129882813Q542.102,324.4573129882813,542.33,323.70531298828126Q542.558,322.95431298828123,542.749,322.19231298828123Q542.94,321.43001298828125,543.093,320.6595129882812Q543.247,319.8891129882812,543.362,319.11201298828126Q543.477,318.33491298828125,543.554,317.55321298828125Q543.631,316.77141298828127,543.67,315.98681298828126Q543.708,315.20221298828125,543.708,314.41661298828126Q543.708,313.63111298828125,543.67,312.84651298828123Q543.631,312.06181298828125,543.554,311.28011298828125Q543.477,310.49831298828127,543.362,309.72121298828125Q543.247,308.94421298828127,543.093,308.17371298828124Q542.94,307.40331298828124,542.749,306.64131298828124Q542.558,305.87921298828127,542.33,305.12751298828124Q542.102,304.37581298828127,541.838,303.63611298828124Q541.573,302.89651298828124,541.272,302.1708129882812Q540.972,301.44501298828123,540.636,300.7349129882813Q540.3,300.02471298828124,539.9300000000001,299.33191298828126Q539.559,298.6391129882812,539.156,297.96531298828126Q538.752,297.2915129882813,538.315,296.63841298828123Q537.879,295.98521298828126,537.4110000000001,295.35431298828127Q536.943,294.72331298828124,536.4449999999999,294.11611298828126Q535.946,293.50881298828125,535.419,292.9267129882812Q534.891,292.34471298828123,534.336,291.78921298828124L441.6274,199.08091298828126Q441.0719,198.52541298828126,440.4899,197.99791298828126Q439.9078,197.47031298828125,439.3006,196.97201298828125Q438.6933,196.47361298828125,438.0624,196.00571298828126Q437.4314,195.53771298828124,436.77819999999997,195.10131298828125Q436.1251,194.66481298828126,435.4513,194.26101298828127Q434.7775,193.85711298828124,434.0847,193.48681298828126Q433.3919,193.11651298828124,432.6818,192.78061298828123Q431.9716,192.44481298828126,431.2459,192.14421298828125Q430.5201,191.84351298828125,429.7805,191.57891298828125Q429.0408,191.31421298828124,428.28911,191.08621298828126Q427.53738,190.85821298828125,426.77537,190.66731298828125Q426.01335,190.47641298828125,425.24289,190.32321298828126Q424.47243,190.16991298828125,423.69537,190.05461298828124Q422.91832,189.93941298828125,422.13655,189.86241298828125Q421.35477,189.78541298828125,420.57017,189.74681298828125Q419.785556,189.70831298828125,419,189.70831298828125Q418.214444,189.70831298828125,417.42983,189.74681298828125Q416.64523,189.78541298828125,415.86345,189.86241298828125Q415.08168,189.93941298828125,414.30463,190.05461298828124Q413.52757,190.16991298828125,412.75711,190.32321298828126Q411.98665,190.47641298828125,411.22463,190.66731298828125Q410.46262,190.85821298828125,409.71089,191.08621298828126Q408.9592,191.31421298828124,408.2195,191.57891298828125Q407.4799,191.84351298828125,406.7541,192.14421298828125Q406.0284,192.44481298828126,405.3182,192.78061298828123Q404.6081,193.11651298828124,403.9153,193.48681298828126Q403.2225,193.85711298828124,402.5487,194.26101298828127Q401.8749,194.66481298828126,401.22180000000003,195.10131298828125Q400.5686,195.53771298828124,399.9376,196.00571298828126Q399.3067,196.47361298828125,398.6994,196.97201298828125Q398.0922,197.47031298828125,397.5101,197.99791298828126Q396.9281,198.52541298828126,396.3726,199.08091298828126Q395.8171,199.63641298828125,395.2896,200.21841298828124Q394.762,200.80051298828124,394.2637,201.40771298828125Q393.7653,202.01501298828126,393.2974,202.64591298828125Q392.8294,203.27691298828125,392.39300000000003,203.93011298828125Q391.9565,204.58321298828125,391.5527,205.25701298828125Q391.1488,205.93081298828125,390.7785,206.62361298828125Q390.4082,207.31641298828126,390.0723,208.02651298828124Q389.7365,208.73671298828125,389.4359,209.46241298828124Q389.1352,210.18821298828124,388.8706,210.92781298828126Q388.6059,211.66751298828126,388.3779,212.41920298828126Q388.1499,213.17093298828124,387.959,213.93294298828124Q387.7681,214.69496298828125,387.6149,215.46542298828126Q387.4616,216.23588298828125,387.3463,217.01294298828125Q387.2311,217.78999298828126,387.15409999999997,218.57176298828125Q387.0771,219.35354298828125,387.0385,220.13814298828126Q387,220.92275698828124,387,221.70831298828125Q387,222.49386898828126,387.0385,223.27848298828124Q387.0771,224.06308298828125,387.15409999999997,224.84486298828125Q387.2311,225.62663298828124,387.3463,226.40368298828125Q387.4616,227.18074298828125,387.6149,227.95120298828124Q387.7681,228.72166298828125,387.959,229.48368298828126Q388.1499,230.24569298828126,388.3779,230.99742298828124Q388.6059,231.74911298828124,388.8706,232.48881298828124Q389.1352,233.22841298828126,389.4359,233.95421298828126Q389.7365,234.67991298828125,390.0723,235.39011298828126Q390.4082,236.10021298828124,390.7785,236.79301298828125Q391.1488,237.48581298828125,391.5527,238.15961298828125Q391.9565,238.83341298828125,392.39300000000003,239.48651298828125Q392.8294,240.13971298828125,393.2974,240.77071298828125Q393.7653,241.40161298828124,394.2637,242.00891298828125Q394.762,242.61611298828126,395.2896,243.19821298828126Q395.8171,243.78021298828125,396.3726,244.33571298828124L396.3764,244.33951298828126L466.4535,314.41661298828126L396.3846,384.48531298828124Z" fill-rule="evenodd" fill="#323232" fill-opacity="1"/></g></g></g></svg>