<?xml version="1.0" standalone="no"?><!DOCTYPE svg PUBLIC "-//W3C//DTD SVG 1.1//EN" "http://www.w3.org/Graphics/SVG/1.1/DTD/svg11.dtd"><svg t="1642645678279" class="icon" viewBox="0 0 1574 1024" version="1.1" xmlns="http://www.w3.org/2000/svg" p-id="5645" width="196.75" height="128" xmlns:xlink="http://www.w3.org/1999/xlink"><defs><style type="text/css"></style></defs><path d="M1271.699394 0A23.815758 23.815758 0 0 1 1295.515152 23.815758v298.480484a316.043636 316.043636 0 0 1 85.635878 60.664243c112.616727 112.593455 122.833455 291.203879 27.151515 415.852606l-2.420363 3.10303 154.049939 154.018909c14.196364 14.188606 14.62303 37.135515 1.287758 51.859394l-1.287758 1.349818c-14.638545 14.638545-38.586182 14.638545-53.255757-0.03103l-153.336243-154.678303-3.072 2.404849a314.825697 314.825697 0 0 1-141.986909 61.121939v7.059394h-7.943757l0.007757-5.895758c-2.645333 0.364606-5.298424 0.682667-7.943757 0.977455v4.910545h-7.943758v-4.150303c-2.637576 0.22497-5.290667 0.411152-7.936 0.566303v3.584h-7.943758v-3.211636c-2.645333 0.085333-5.298424 0.147394-7.943757 0.170667v3.040969h-7.936v-3.072a319.123394 319.123394 0 0 1-7.951515-0.224969v3.296969h-7.936l0.007757-3.723636a318.991515 318.991515 0 0 1-7.943757-0.620606v4.344242h-7.943758v-5.166545c-2.653091-0.310303-5.298424-0.651636-7.936-1.024v6.190545h-7.943757v-7.416242a315.058424 315.058424 0 0 1-115.890425-44.094061H75.636364a23.831273 23.831273 0 0 1-23.831273-23.831272V51.510303h-6.291394v-7.757576h6.283636l0.007758-19.936969A23.815758 23.815758 0 0 1 75.620848 0H1271.699394zM541.246061 917.255758v3.343515l7.943757-0.023273v-3.320242h7.943758v3.296969l7.936-0.03103v-3.258182h7.943757v3.234909l7.936-0.023272v-3.219394h7.943758v3.188363l7.936-0.023273 0.007757-3.16509h7.943758v3.141818l7.928242-0.031031 0.007758-3.10303h7.943758v3.079758l7.936-0.023273v-3.064242h7.943757v3.033212l7.936-0.023273v-3.009939h7.943758v2.986666l7.936-0.03103 0.007757-2.947879h7.943758v2.924606l7.928242-0.023273 0.007758-2.90909h7.943758v2.885818l7.936-0.031031v-2.854787h7.943757v2.831515l7.936-0.023273v-2.808242h7.943758v2.777212l7.936-0.023273 0.007757-2.753939h7.943758v2.730666l7.928242-0.03103 0.007758-2.699636h7.943757v2.676363l7.936-0.023273v-2.65309h7.943758v2.62206l7.936-0.023273v-2.598787h7.943758v2.575515l7.936-0.031031v-2.544484h7.951515v2.521212l7.928242-0.023273 0.007758-2.497939h7.943757v2.466909h3.529697l0.077576 0.760242c0.597333 6.68703 5.135515 54.830545 11.326061 61.820121 12.83103 14.506667 55.443394 22.791758 55.443394 22.791758H467.688727s40.835879-6.050909 50.501818-22.791758c4.964848-8.603152 11.667394-61.66497 11.667394-61.664969l3.444364-0.007758 0.007758-3.374545h7.943757z m823.466666-517.810425c-114.40097-113.687273-299.558788-113.687273-413.967515 0l-3.374545 3.428849c-110.987636 114.618182-109.85503 297.122909 3.397818 410.352485 107.535515 107.504485 280.141576 114.238061 395.907879 16.632242l8.207515-6.919757 168.277333 169.751272a14.475636 14.475636 0 0 0 20.317091 0 14.460121 14.460121 0 0 0 0-20.301576l-169.037576-168.998787 6.888728-8.168728c97.629091-115.735273 90.895515-288.294788-16.60897-395.776zM25.592242 917.108364c0.822303 0.093091 1.660121 0.155152 2.505697 0.155151h4.949334v7.757576H28.082424c-1.163636 0-2.327273-0.077576-3.467636-0.22497z m102.741334 0.155151v7.757576H120.397576v-7.757576h7.936z m47.64703 0v7.757576H168.029091v-7.757576h7.943757z m190.580364 0v7.757576h-7.943758v-7.757576h7.943758z m682.907151 0v7.757576h-7.936v-7.757576h7.936z m-825.840485 0v7.757576h-7.943757v-7.757576h7.943757z m15.879758 0v7.757576h-7.943758v-7.757576h7.943758z m31.767273 0v7.757576h-7.943758v-7.757576h7.943758z m15.879757 0v7.757576H279.195152v-7.757576h7.943757z m-127.053576 0v7.757576h-7.943757v-7.757576h7.943757z m-63.534545 0v7.757576h-7.936v-7.757576h7.943758z m381.168485 0v7.757576h-7.943758v-7.757576h7.943758z m-127.053576 0v7.757576H342.729697v-7.757576h7.943758z m-15.887515 0v7.757576h-7.936v-7.757576h7.936z m-15.879758 0v7.757576h-7.936v-7.757576h7.936z m-238.219636 0v7.757576H72.742788v-7.757576h7.943757z m444.679758 0v7.757576H517.430303v-7.757576h7.936z m381.160727 0v7.757576h-7.936v-7.757576h7.936z m-15.879758 0v7.757576h-7.943757v-7.757576h7.943757z m-397.040485 0v7.757576h-7.943757v-7.757576h7.943757z m-238.227393 0v7.757576h-7.936v-7.757576h7.936z m571.74109 0v7.757576h-7.943757v-7.757576h7.943757z m31.767273 0v7.757576h-7.943757v-7.757576h7.943757z m-412.928 0v7.757576h-7.936v-7.757576h7.936z m-63.526788 0v7.757576h-7.936v-7.757576h7.936z m-79.406545 0v7.757576h-7.943758v-7.757576h7.943758z m619.388121 0v7.757576h-7.943758v-7.757576h7.943758z m-809.968485 0v7.757576h-7.943757v-7.757576h7.943757z m-63.526788 0v7.757576H40.975515v-7.757576h7.943758z m15.879758 0v7.757576H56.86303v-7.757576h7.936z m889.37503 0v7.757576h-7.943757v-7.757576H954.181818z m79.406546 0v7.757576h-7.936v-7.757576h7.936z m-15.879758 0v7.757576h-7.943758v-7.757576h7.943758z m206.460121 0v7.757576h-7.936v-7.757576h7.936z m-222.339879 0v7.757576h-7.943757v-7.757576h7.943757z m79.406546 0v7.757576h-7.943758v-7.757576h7.943758z m15.879758 0v7.757576h-7.936v-7.757576h7.936z m-952.894061 0v7.757576h-7.943758v-7.757576h7.943758z m730.554182 0v7.757576h-7.943758v-7.757576h7.943758z m-682.914909 0v7.757576h-7.936v-7.757576h7.936z m778.201212 0v7.757576h-7.936v-7.757576h7.936z m15.879757 0v7.757576h-7.936v-7.757576h7.936z m79.414303 0v7.757576h-7.943757v-7.757576h7.943757z m-555.861333 0v7.757576h-7.936v-7.757576h7.936z m-301.746424 0v7.757576h-7.943758v-7.757576h7.943758z m730.554182 0v7.757576h-7.943758v-7.757576h7.943758z m-476.454788 0v7.757576h-7.936v-7.757576h7.936z m-31.759515 0v7.757576h-7.943758v-7.757576h7.943758z m-15.879758 0v7.757576h-7.943758v-7.757576h7.943758z m-15.887515 0v7.757576h-7.936v-7.757576h7.936z m444.687515 0v7.757576h-7.936v-7.757576h7.936z m-829.184-6.027636c1.551515 1.598061 3.374545 2.932364 5.368242 3.925333l-3.475394 6.94303a27.772121 27.772121 0 0 1-7.447272-5.445818z m-5.585455-12.024243c0.217212 2.234182 0.79903 4.398545 1.722182 6.415516l-7.043879 3.234909a27.547152 27.547152 0 0 1-2.39709-8.921213z m-0.077575-16.073697v7.943758h-7.757576v-7.943758h7.757576z m0-15.879757v7.943757h-7.757576v-7.943757h7.757576z m973.34303-436.549818c98.474667-98.482424 258.048-98.482424 356.522667 0 98.482424 98.474667 98.482424 258.048 0 356.522666-98.474667 98.482424-258.761697 98.482424-356.522667 0-98.482424-98.474667-98.482424-258.048 0-356.522666z m290.195394-416.651637H75.636364c-5.057939 0-9.216 3.847758-9.720243 8.766061l-0.046545 1.000727v825.848243a9.774545 9.774545 0 0 0 8.76606 9.712484l0.99297 0.054303h889.041455l-1.993697-1.520484a319.131152 319.131152 0 0 1-25.956849-22.473697l-4.111515-4.03394a317.548606 317.548606 0 0 1-71.982545-110.351515l0.007757 1.473939h-7.943757v-3.886545h-7.943758v3.878788h-7.936v-3.878788h-7.943758v3.878788h-7.936v-3.878788h-7.951515l0.007758 3.878788h-7.936v-3.878788h-7.951515l0.007757 3.878788h-7.943757v-3.878788h-7.943758v3.878788H773.275152v-3.878788h-7.943758v3.878788h-7.936v-3.878788h-7.943758v3.878788h-7.936v-3.878788H733.556364l0.007757 3.878788h-7.943757v-3.878788h-7.943758v3.878788h-7.936v-3.878788h-7.943758v3.878788h-7.936v-3.878788H685.924848v3.878788h-7.936v-3.878788h-7.951515l0.007758 3.878788H662.109091v-3.878788h-7.943758v3.878788h-7.936v-3.878788h-7.943757v3.878788h-7.936v-3.878788H622.390303v3.878788h-7.936v-3.878788h-7.951515l0.007757 3.878788H598.574545v-3.878788h-7.943757v3.878788h-7.936v-3.878788h-7.943758v3.878788h-7.936v-3.878788h-7.943757v3.878788H550.94303v-3.878788h-7.951515l0.007758 3.878788h-7.943758v-3.878788h-7.943757v3.878788h-7.936v-3.878788H511.224242v3.878788h-7.936v-3.878788h-7.943757v3.878788H487.408485v-3.886546h-7.951515l0.007757 3.886546h-7.936v-3.886546h-7.951515v3.886546h-7.936v-3.886546H447.689697v3.886546h-7.936v-3.886546h-7.943758v3.886546h-7.936v-3.886546h-7.951515l0.007758 3.886546h-7.936v-3.886546h-7.951515v3.886546h-7.936v-3.886546h-7.943758v3.886546H376.242424v-3.886546h-7.943757v3.886546h-7.936v-3.886546h-7.951515l0.007757 3.886546h-7.936v-3.886546H336.523636v3.886546h-7.936v-3.886546h-7.943757v3.886546H312.707879v-3.886546h-7.943758v3.886546h-7.936v-3.886546h-7.951515l0.007758 3.886546h-7.936v-3.886546H272.989091l0.007757 3.886546h-7.943757v-3.886546h-7.943758v3.886546h-7.936v-3.886546h-7.943757v3.886546h-7.936v-3.886546h-7.951515l0.007757 3.886546h-7.936v-3.886546h-7.951515l0.007758 3.886546h-7.943758v-3.886546h-7.943758v3.886546h-7.936v-3.886546h-7.943757v3.886546h-7.936v-3.886546H161.82303l0.007758 3.886546h-7.936v-3.886546h-7.951515l0.007757 3.886546H138.007273v-3.886546h-7.943758v3.886546h-7.936v-3.886546h-7.943757v3.886546h-7.936v-3.886546h-2.955637v-4.980363h-3.878788v-7.936l3.878788-0.007758v-7.936h-3.878788v-7.936l3.878788-0.007757v-7.936h-3.878788v-7.943758h3.878788v-7.943757h-3.878788V658.075152h3.878788v-7.943758h-3.878788v-7.936l3.878788-0.007758v-7.936h-3.878788v-7.936l3.878788-0.007757v-7.936h-3.878788v-7.943758h3.878788v-7.943757h-3.878788v-7.936h3.878788v-7.943758h-3.878788v-7.936l3.878788-0.007758V570.724848h-3.878788v-7.936l3.878788-0.007757v-7.936h-3.878788V546.909091h3.878788v-7.943758h-3.878788v-7.936h3.878788v-7.943757h-3.878788v-7.936l3.878788-0.007758v-7.936h-3.878788v-7.936l3.878788-0.007757v-7.936h-3.878788V483.374545h3.878788v-7.943757h-3.878788v-7.936h3.878788v-7.943758h-3.878788v-7.936l3.878788-0.007757v-7.936h-3.878788V435.74303l3.878788-0.007757v-7.936h-3.878788v-7.936l3.878788-0.007758v-7.943757h-3.878788v-7.936h3.878788V396.024242h-3.878788v-7.936h3.878788v-7.943757h-3.878788V372.208485l3.878788-0.007758v-7.936h-3.878788v-7.936l3.878788-0.007757v-7.943758h-3.878788v-7.936h3.878788v-7.943757h-3.878788v-7.936h3.878788v-7.943758h-3.878788v-7.936l3.878788-0.007758v-7.936h-3.878788v-7.936l3.878788-0.007757v-7.943758h-3.878788v-7.936h3.878788v-7.943757h-3.878788V261.042424h3.878788v-7.943757h-3.878788v-7.936l3.878788-0.007758v-7.936h-3.878788v-7.936l3.878788-0.007757V221.323636l-3.878788 0.007758v-7.943758h3.878788v-7.943757h-3.878788V197.507879h3.878788v-7.943758h-3.878788v-7.936l3.878788-0.007757v-7.936h-3.878788v-7.936l3.878788-0.007758v-7.943758l-3.878788 0.007758v-7.943758h3.878788v-7.943757h-3.878788v-7.936h3.878788v-7.943758h-3.878788v-7.936l3.878788-0.007757V110.157576h-3.878788v-7.936l3.878788-0.007758v-7.936h-3.878788v-7.943757h3.878788v-7.943758h-3.878788V70.462061h3.878788V62.510545h-3.878788V51.712h4.887273v3.878788h7.936v-3.878788h7.951515v3.878788h7.928243l0.007757-3.878788h7.943758v3.878788h7.936v-3.878788h7.943757v3.878788h7.936v-3.878788h7.943758v3.878788h7.936v-3.878788h7.943758v3.878788h7.936l0.007757-3.878788h7.943758v3.878788h7.936v-3.878788h7.943757v3.878788h7.936v-3.878788h7.943758v3.878788h7.936v-3.878788h7.943757v3.878788h7.936l0.007758-3.878788h7.943758v3.878788h7.936v-3.878788h7.943757v3.878788h7.936v-3.878788h7.943758v3.878788h7.936v-3.878788h7.943757v3.878788h7.936l0.007758-3.878788h7.943757v3.878788h7.936v-3.878788h7.943758v3.878788h7.936v-3.878788h7.943758v3.878788h7.936v-3.878788h7.943757v3.878788h7.936l0.007758-3.878788h7.943757v3.878788h7.936v-3.878788h7.943758v3.878788h7.936v-3.878788h7.943757v3.878788h7.936v-3.878788h7.943758v3.878788h7.936l0.007758-3.878788h7.943757v3.878788h7.936v-3.878788h7.943758v3.878788h7.936v-3.878788h7.943757v3.878788h7.936v-3.878788h7.943758v3.878788h7.936l0.007757-3.878788h7.943758v3.878788h7.928242l0.007758-3.878788h7.943758v3.878788h7.936v-3.878788h7.943757v3.878788h7.936v-3.878788h7.943758v3.878788h7.936l0.007757-3.878788h7.943758v3.878788h7.928242l0.007758-3.878788h7.943758v3.878788h7.936v-3.878788h7.943757v3.878788h7.936v-3.878788h7.943758v3.878788h7.936l0.007757-3.878788h7.943758v3.878788h7.928242l0.007758-3.878788H660.169697v3.878788h7.936v-3.878788h7.943758v3.878788h7.936v-3.878788h7.943757v3.878788h7.936v-3.878788h7.951515v3.878788h7.928243l0.007757-3.878788h7.943758v3.878788h7.936v-3.878788h7.943757v3.878788h7.936v-3.878788h7.943758v3.878788h7.936v-3.878788h7.951515v3.878788h7.928243l0.007757-3.878788h7.943758v3.878788h7.936v-3.878788h7.943757v3.878788h7.936v-3.878788h7.943758v3.878788h7.936v-3.878788h7.951515v3.878788h7.928242l0.007758-3.878788h7.943758v3.878788h7.936v-3.878788h7.943757v3.878788h7.936v-3.878788h7.943758v3.878788h7.936v-3.878788h7.943757v3.878788h7.936l0.007758-3.878788h7.943757v3.878788h7.936v-3.878788h7.943758v3.878788h7.936v-3.878788h7.943758v3.878788h7.936v-3.878788h7.943757v3.878788h7.936l0.007758-3.878788h7.943757v3.878788h7.936v-3.878788h7.943758v3.878788h7.936v-3.878788h7.943758v3.878788h7.936v-3.878788h7.943757v3.878788h7.936l0.007758-3.878788h7.943757v3.878788h7.936v-3.878788h7.943758v3.878788h7.936v-3.878788h7.943757v3.878788h7.936v-3.878788h7.943758v3.878788h7.936l0.007758-3.878788h7.943757v3.878788h7.936v-3.878788h7.943758v3.878788h7.936v-3.878788h7.943757v3.878788h7.936v-3.878788h7.943758v3.878788h7.936l0.007757-3.878788h7.943758v3.878788h7.928242l0.007758-3.878788h7.943758v3.878788h7.936v-3.878788h7.943757v3.878788h7.936v-3.878788h7.943758v3.878788h7.936l0.007757-3.878788h7.943758v3.878788h7.928242l0.007758-3.878788h4.103757V63.301818h-3.878787v7.936l3.878787 0.007758v7.943757l-3.878787-0.007757v0.217212l-1101.125819 0.007757v607.472485l710.671516 0.015515c-27.585939-105.69697 0.077576-222.758788 83.021575-305.671757 92.346182-91.764364 229.701818-117.077333 347.019637-68.677818l1.807515 0.752485V23.823515a9.774545 9.774545 0 0 0-7.796364-9.565091l-0.969697-0.147394-1.000727-0.046545zM8.145455 851.386182v7.936h-7.757576v-7.936h7.757576z m1318.904242-409.700849c-92.416-92.416-242.168242-92.416-334.584242 0-92.416 92.416-92.416 242.168242 0.015515 334.607515 91.725576 92.392727 242.152727 92.392727 334.568727-0.023272s92.416-242.168242 0-334.584243zM8.145455 835.490909v7.936h-7.757576v-7.936h7.757576z m0-15.887515v7.943758h-7.757576v-7.943758h7.757576z m0-15.879758v7.943758h-7.757576v-7.943758h7.757576z m0-15.879757v7.936h-7.757576v-7.936h7.757576z m0-15.879758v7.936h-7.757576v-7.936h7.757576z m0-15.887515v7.943758h-7.757576v-7.943758h7.757576z m0-15.879758v7.943758h-7.757576v-7.943758h7.757576z m0-15.879757v7.943757h-7.757576V724.324848h7.757576z m0-15.879758v7.936h-7.757576v-7.936h7.757576z m0-15.887515V700.509091h-7.757576v-7.943758h7.757576z m0-15.879757v7.943757h-7.757576v-7.943757h7.757576z m0-15.879758v7.943758h-7.757576V660.790303h7.757576z m0-15.879758v7.936h-7.757576v-7.936h7.757576z m0-15.887515v7.943758h-7.757576v-7.943758h7.757576z m1103.670303-11.372606c2.792727 0 4.964848 0.775758 6.826666 2.637576 1.706667 1.706667 2.637576 3.878788 2.637576 6.516364 0 2.792727-0.930909 4.964848-2.637576 6.671515-1.861818 1.706667-4.189091 2.637576-6.826666 2.637576-2.637576 0-4.809697-0.930909-6.516364-2.637576-1.861818-1.861818-2.792727-4.033939-2.792727-6.671515 0-2.637576 0.930909-4.809697 2.792727-6.516364 1.706667-1.861818 3.878788-2.637576 6.516364-2.637576z m51.820606 0c2.637576 0 4.964848 0.775758 6.826666 2.637576 1.706667 1.706667 2.637576 3.878788 2.637576 6.516364 0 2.792727-0.930909 4.964848-2.637576 6.671515-1.861818 1.706667-4.189091 2.637576-6.826666 2.637576-2.637576 0-4.809697-0.930909-6.671516-2.637576-1.861818-1.861818-2.637576-4.033939-2.637575-6.671515 0-2.637576 0.775758-4.809697 2.637575-6.516364 1.861818-1.861818 4.033939-2.637576 6.671516-2.637576z m51.665454 0c2.637576 0 4.809697 0.775758 6.671515 2.637576 1.861818 1.706667 2.792727 3.878788 2.792728 6.516364 0 2.792727-0.930909 4.964848-2.792728 6.671515-1.861818 1.706667-4.033939 2.637576-6.671515 2.637576-2.637576 0-4.809697-0.930909-6.671515-2.637576-1.861818-1.861818-2.637576-4.033939-2.637576-6.671515 0-2.637576 0.775758-4.809697 2.637576-6.516364 1.861818-1.861818 4.033939-2.637576 6.671515-2.637576zM8.145455 613.158788v7.936h-7.757576v-7.943758h7.757576z m0-15.887515v7.943757h-7.757576v-7.943757h7.757576z m0-15.879758v7.936h-7.757576v-7.936h7.757576zM495.414303 440.707879v134.997333H257.768727V440.707879h237.645576z m324.794182 0v134.997333H582.555152V440.707879h237.653333zM8.145455 565.504v7.943758h-7.757576v-7.943758h7.757576z m0-15.879758v7.943758h-7.757576V549.624242h7.757576z m0-15.879757v7.943757h-7.757576v-7.943757h7.757576z m0-15.879758v7.936h-7.757576v-7.936h7.757576z m0-15.887515v7.943758h-7.757576v-7.943758h7.757576z m0-15.879757v7.943757h-7.757576V486.089697h7.757576z m0-15.879758v7.943758h-7.757576v-7.943758h7.757576z m0-15.879758v7.936h-7.757576v-7.936h7.757576z m0-15.887515v7.943758h-7.757576V438.458182h7.757576z m0-15.879757v7.943757h-7.757576v-7.943757h7.757576z m352.60509-5.678546v7.943758H257.768727V416.892121h102.981818zM8.145455 406.690909v7.943758h-7.757576v-7.943758h7.757576z m0-15.879757V398.739394h-7.757576v-7.936h7.757576z m0-15.879758v7.936h-7.757576v-7.936h7.757576z m0-15.887515v7.943757h-7.757576v-7.943757h7.757576zM820.208485 218.375758V353.357576H582.555152V218.375758h237.653333z m-324.794182 0V353.357576H257.768727V218.375758h237.645576zM8.145455 343.164121v7.943758h-7.757576v-7.943758h7.757576z m0-15.879757v7.936h-7.757576V327.292121h7.757576z m0-15.879758v7.936h-7.757576v-7.936h7.757576z m0-15.887515v7.943757h-7.757576v-7.943757h7.757576z m0-15.879758v7.943758h-7.757576v-7.943758h7.757576z m0-15.879757v7.936h-7.757576V263.757576h7.757576z m0-15.879758v7.936h-7.757576v-7.936h7.757576z m0-15.887515v7.943758h-7.757576v-7.943758h7.757576z m0-15.879758v7.943758h-7.757576v-7.943758h7.757576z m0-15.879757v7.936h-7.757576v-7.936h7.757576z m352.60509-5.678546v7.936H257.768727V194.56h102.981818zM8.145455 184.35103v7.936h-7.757576v-7.936h7.757576z m0-15.887515v7.943758h-7.757576v-7.943758h7.757576z m0-15.879757v7.943757h-7.757576v-7.943757h7.757576z m0-15.879758v7.936h-7.757576v-7.936h7.757576z m0-15.879758v7.936h-7.757576v-7.936h7.757576z m0-15.887515v7.943758h-7.757576v-7.943758h7.757576z m0-15.879757v7.943757h-7.757576V89.05697h7.757576z m0-15.879758v7.943758h-7.757576V73.177212h7.757576zM5.182061 55.885576l6.415515 4.367515c-1.256727 1.846303-2.195394 3.878788-2.769455 6.035394l-7.493818-2.001455c0.79903-3.009939 2.110061-5.841455 3.847758-8.401454z m15.499636-11.116606l2.071273 7.478303c-2.148848 0.589576-4.181333 1.551515-6.012122 2.816l-4.421818-6.36897a27.593697 27.593697 0 0 1 8.362667-3.925333z m16.880485-1.008485v7.757576H29.618424v-7.757576h7.943758zM673.660121 19.859394c4.375273 0 7.912727 3.55297 7.912727 7.943758a7.928242 7.928242 0 1 1-7.912727-7.943758z" p-id="5646"></path></svg>