<?xml version="1.0" encoding="UTF-8"?>
<svg width="16px" height="16px" viewBox="0 0 16 16" version="1.1" xmlns="http://www.w3.org/2000/svg" xmlns:xlink="http://www.w3.org/1999/xlink">
    <!-- Generator: Sketch 64 (93537) - https://sketch.com -->
    <title>medium</title>
    <desc>Created with Sketch.</desc>
    <g id="medium" stroke="none" stroke-width="1" fill="none" fill-rule="evenodd">
        <g id="high/highest" fill-rule="nonzero">
            <rect id="矩形" fill="#000000" opacity="0" x="0" y="0" width="16" height="16"></rect>
            <path d="M12.4377188,6.44760938 L8.41440625,2.42429688 C8.1001875,2.11007813 7.59082813,2.11007813 7.27660938,2.42429688 L3.25329688,6.44760938 C2.93907813,6.76182813 2.93907813,7.2711875 3.25329688,7.58540625 C3.56751563,7.899625 4.076875,7.899625 4.39109375,7.58540625 L7.04085938,4.93564063 L7.04085938,12.6491406 C7.04085938,13.0937188 7.40095313,13.4538125 7.84553125,13.4538125 C8.29010938,13.4538125 8.65020313,13.0937188 8.65020313,12.6491406 L8.65020313,4.93564063 L11.2999688,7.58540625 C11.456875,7.74232813 11.662875,7.82117188 11.868875,7.82117188 C12.074875,7.82117188 12.2808594,7.74271875 12.4377813,7.58540625 C12.752,7.2711875 12.752,6.76182813 12.4377813,6.44760938 L12.4377188,6.44760938 Z" id="路径"></path>
        </g>
    </g>
</svg>
