<?xml version="1.0" standalone="no"?><!DOCTYPE svg PUBLIC "-//W3C//DTD SVG 1.1//EN" "http://www.w3.org/Graphics/SVG/1.1/DTD/svg11.dtd"><svg t="1573033007700" class="icon" viewBox="0 0 1025 1024" version="1.1" xmlns="http://www.w3.org/2000/svg" p-id="113086" xmlns:xlink="http://www.w3.org/1999/xlink" width="200.1953125" height="200"><defs><style type="text/css"></style></defs><path d="M451.310305 529.689024L50.690586 339.234666a72.444333 72.444333 0 0 1 0-135.09716L451.374302 13.619151a144.888665 144.888665 0 0 1 122.041821 0l400.491726 190.518355a72.444333 72.444333 0 0 1 0 135.033163L573.416123 529.753021c-38.71804 17.98309-83.387778 17.98309-122.041821 0z" fill="#5580EB" p-id="113087"></path><path d="M512.299218 784.460127c-29.118526 0-57.853071-6.655663-84.027747-19.519012l-392.940107-195.190119a54.333249 54.333249 0 1 1 48.18956-96.891095l392.556127 195.190119c22.91084 11.135436 49.597489 11.135436 72.444333 0l392.940107-195.190119a54.333249 54.333249 0 1 1 48.189561 96.891095l-393.324088 195.190119a189.43041 189.43041 0 0 1-84.027746 19.519012z m0 229.620375a189.43041 189.43041 0 0 1-84.027747-19.519012l-392.940107-195.190118a54.333249 54.333249 0 1 1 48.18956-96.891095l392.556127 195.190118c22.846843 11.26343 49.597489 11.26343 72.444333 0l392.940107-195.190118a54.333249 54.333249 0 1 1 48.189561 96.827098l-393.324088 195.190119a189.43041 189.43041 0 0 1-84.027746 19.583008z" fill="#5580EB" opacity=".5" p-id="113088"></path></svg>