<?xml version="1.0" encoding="UTF-8"?>
<svg width="50px" height="83px" viewBox="0 0 50 83" version="1.1" xmlns="http://www.w3.org/2000/svg" xmlns:xlink="http://www.w3.org/1999/xlink">
    <!-- Generator: Sketch 64 (93537) - https://sketch.com -->
    <title>直线 6备份 3</title>
    <desc>Created with Sketch.</desc>
    <g id="新手引导" stroke="none" stroke-width="1" fill="none" fill-rule="evenodd">
        <g id="画板" transform="translate(-694.000000, -153.000000)" fill="#FFFFFF" fill-rule="nonzero">
            <path d="M738.184754,232.505978 L738.849285,232.725973 C739.777037,233.033108 740.719753,233.315138 741.677449,233.572061 L742.640139,233.820614 L743.319525,233.989241 L742.982272,235.348012 L742.302886,235.179386 C741.309369,234.932791 740.330935,234.660328 739.367598,234.361994 L738.409296,234.055036 L737.744764,233.835041 L738.184754,232.505978 Z M730.966449,229.324557 L731.586258,229.649882 C732.51443,230.13706 733.460489,230.59402 734.42446,231.020768 L735.150798,231.335165 L735.79547,231.607923 L735.249953,232.897268 L734.60528,232.62451 C733.603831,232.2008 732.620667,231.74592 731.655814,231.259876 L730.935608,230.889501 L730.315799,230.564176 L730.966449,229.324557 Z M724.383487,224.990252 L724.940341,225.414414 C725.780001,226.053991 726.637476,226.663218 727.512784,227.242112 L728.17261,227.670596 L728.762858,228.046903 L728.010245,229.2274 L727.419996,228.851093 C726.509474,228.270599 725.617393,227.658926 724.743772,227.016091 L724.092018,226.528123 L723.535164,226.103961 L724.383487,224.990252 Z M718.561712,219.612552 L719.044387,220.119528 C719.731715,220.84146 720.433874,221.537959 721.15087,222.20904 L721.872811,222.871648 L722.393139,223.3399 L721.456636,224.380555 L720.936309,223.912304 C720.13944,223.195189 719.360144,222.448573 718.598427,221.672477 L718.030435,221.084878 L717.54776,220.577901 L718.561712,219.612552 Z M713.630075,213.478658 L714.037806,214.047653 C714.621696,214.862481 715.219114,215.654044 715.830056,216.422354 L716.445507,217.182913 L716.890501,217.723265 L715.809798,218.613254 L715.364804,218.072902 C714.729799,217.301824 714.108864,216.507214 713.501995,215.689084 L712.899816,214.863115 L712.492085,214.29412 L713.630075,213.478658 Z M709.476051,206.701456 L709.811954,207.315597 C709.966533,207.598219 710.122388,207.877801 710.285259,208.164594 C710.61844,208.751058 710.957121,209.328063 711.301301,209.895608 L711.821696,210.739832 L712.193363,211.333012 L711.007002,212.076347 L710.635334,211.483166 C710.100078,210.628899 709.577631,209.753224 709.06793,208.85605 L708.822641,208.420165 L708.822641,208.420165 L708.583672,207.987403 L708.247769,207.373261 L709.476051,206.701456 Z M706.205923,199.498934 L706.463117,200.149972 C706.830608,201.08021 707.215662,201.994546 707.618274,202.892988 L708.026739,203.786132 L708.322752,204.420463 L707.05409,205.01249 L706.758076,204.378159 C706.334775,203.471061 705.929506,202.547946 705.542268,201.608821 L705.161039,200.66436 L704.903846,200.013321 L706.205923,199.498934 Z M703.779632,191.937395 L703.964111,192.612648 C704.228642,193.58092 704.50924,194.534631 704.805901,195.473786 L705.107915,196.408089 L705.327698,197.072691 L703.998495,197.512256 L703.778712,196.847655 C703.465517,195.900585 703.168763,194.938932 702.888444,193.962699 L702.613604,192.981607 L702.429124,192.306353 L703.779632,191.937395 Z M702.125059,184.183086 L702.24543,184.872659 C702.418362,185.863342 702.605799,186.840883 702.807739,187.805285 L703.014512,188.765308 L703.165846,189.448754 L701.798955,189.751422 L701.64762,189.067977 C701.432578,188.096819 701.232319,187.112545 701.046838,186.115159 L700.866284,185.113401 L700.745913,184.423828 L702.125059,184.183086 Z M701.13494,176.278322 L701.199724,176.975318 C701.282585,177.866797 701.375748,178.748952 701.47921,179.621783 L701.642129,180.924038 L701.733559,181.618041 L700.345553,181.800902 L700.254122,181.106899 C700.124377,180.122067 700.007869,179.125482 699.904595,178.117143 L699.805732,177.104886 L699.740948,176.40789 L701.13494,176.278322 Z M700.723203,168.362171 L700.740721,169.061951 C700.763143,169.957611 700.794823,170.844901 700.835761,171.72382 L700.904111,173.035921 L700.944405,173.73476 L699.546726,173.815348 L699.506432,173.116509 C699.45565,172.235776 699.414239,171.346714 699.382197,170.449323 L699.34116,169.096988 L699.323642,168.397207 L700.723203,168.362171 Z M700.500353,153.38957 L705.475095,164.636878 L700.707,164.411 L700.701795,165.071865 L700.698214,165.771856 L699.298232,165.764693 L699.301813,165.064702 L699.307,164.345 L694.487351,164.117748 L700.500353,153.38957 Z" id="直线-6备份-3"></path>
        </g>
    </g>
</svg>