<?xml version="1.0" encoding="UTF-8"?>
<svg width="49px" height="82px" viewBox="0 0 49 82" version="1.1" xmlns="http://www.w3.org/2000/svg" xmlns:xlink="http://www.w3.org/1999/xlink">
    <!-- Generator: Sketch 64 (93537) - https://sketch.com -->
    <title>直线 6备份 4</title>
    <desc>Created with Sketch.</desc>
    <g id="新手引导" stroke="none" stroke-width="1" fill="none" fill-rule="evenodd">
        <g id="画板" transform="translate(-881.000000, -139.000000)" fill="#FFFFFF" fill-rule="nonzero">
            <path d="M924.697402,218.116408 L925.361934,218.336403 C926.289686,218.643538 927.232402,218.925568 928.190098,219.182491 L929.152788,219.431044 L929.832174,219.599671 L929.494921,220.958443 L928.815535,220.789816 C927.822018,220.543221 926.843583,220.270758 925.880247,219.972424 L924.921944,219.665466 L924.257412,219.445471 L924.697402,218.116408 Z M917.479097,214.934987 L918.098907,215.260312 C919.027078,215.74749 919.973137,216.20445 920.937109,216.631198 L921.663446,216.945595 L922.308119,217.218353 L921.762602,218.507699 L921.117929,218.23494 C920.116479,217.81123 919.133316,217.35635 918.168463,216.870307 L917.448256,216.499931 L916.828447,216.174606 L917.479097,214.934987 Z M910.896135,210.600682 L911.45299,211.024844 C912.29265,211.664421 913.150125,212.273648 914.025433,212.852543 L914.685258,213.281026 L915.275507,213.657333 L914.522893,214.83783 L913.932645,214.461523 C913.022122,213.881029 912.130041,213.269356 911.256421,212.626521 L910.604667,212.138553 L910.047812,211.714391 L910.896135,210.600682 Z M905.074361,205.222982 L905.557036,205.729958 C906.244364,206.45189 906.946523,207.148389 907.663518,207.81947 L908.38546,208.482079 L908.905787,208.95033 L907.969285,209.990985 L907.448957,209.522734 C906.652089,208.805619 905.872793,208.059003 905.111076,207.282907 L904.543084,206.695308 L904.060409,206.188332 L905.074361,205.222982 Z M900.142724,199.089088 L900.550455,199.658083 C901.134345,200.472911 901.731762,201.264475 902.342705,202.032784 L902.958155,202.793343 L903.40315,203.333695 L902.322447,204.223684 L901.877452,203.683332 C901.242448,202.912254 900.621512,202.117644 900.014644,201.299514 L899.412464,200.473545 L899.004733,199.90455 L900.142724,199.089088 Z M895.9887,192.311886 L896.324603,192.926027 C896.479182,193.208649 896.635036,193.488231 896.797907,193.775024 C897.131088,194.361489 897.46977,194.938493 897.81395,195.506038 L898.334344,196.350262 L898.706012,196.943442 L897.51965,197.686777 L897.147983,197.093597 C896.612727,196.239329 896.090279,195.363654 895.580579,194.46648 L895.33529,194.030595 L895.33529,194.030595 L895.09632,193.597833 L894.760418,192.983692 L895.9887,192.311886 Z M892.718571,185.109364 L892.975765,185.760402 C893.343257,186.690641 893.72831,187.604976 894.130922,188.503418 L894.539387,189.396562 L894.835401,190.030893 L893.566738,190.622921 L893.270725,189.988589 C892.847423,189.081491 892.442155,188.158376 892.054916,187.219251 L891.673688,186.27479 L891.416494,185.623751 L892.718571,185.109364 Z M890.29228,177.547825 L890.476759,178.223079 C890.741291,179.19135 891.021889,180.145061 891.318549,181.084216 L891.620564,182.018519 L891.840347,182.683121 L890.511143,183.122687 L890.29136,182.458085 C889.978166,181.511016 889.681411,180.549362 889.401092,179.573129 L889.126252,178.592037 L888.941773,177.916783 L890.29228,177.547825 Z M888.637707,169.793516 L888.758078,170.483089 C888.93101,171.473772 889.118448,172.451313 889.320387,173.415716 L889.52716,174.375738 L889.678495,175.059184 L888.311603,175.361853 L888.160269,174.678407 C887.945227,173.707249 887.744967,172.722975 887.559487,171.725589 L887.378932,170.723831 L887.258561,170.034258 L888.637707,169.793516 Z M887.647588,161.888752 L887.712372,162.585748 C887.795233,163.477227 887.888396,164.359382 887.991859,165.232214 L888.154777,166.534468 L888.246208,167.228471 L886.858201,167.411333 L886.766771,166.717329 C886.637025,165.732498 886.520517,164.735912 886.417243,163.727573 L886.318381,162.715316 L886.253597,162.018321 L887.647588,161.888752 Z M887.235852,153.972601 L887.25337,154.672382 C887.275791,155.568041 887.307472,156.455331 887.34841,157.33425 L887.416759,158.646351 L887.457053,159.34519 L886.059375,159.425778 L886.01908,158.726939 C885.968299,157.846206 885.926887,156.957144 885.894845,156.059753 L885.853808,154.707418 L885.83629,154.007637 L887.235852,153.972601 Z M887.013002,139 L891.987743,150.247309 L887.219649,150.02143 L887.214444,150.682295 L887.210862,151.382286 L885.810881,151.375123 L885.814462,150.675132 L885.819649,149.95543 L881,149.728178 L887.013002,139 Z" id="直线-6备份-4" transform="translate(905.416087, 179.979221) scale(-1, 1) translate(-905.416087, -179.979221) "></path>
        </g>
    </g>
</svg>