<?xml version="1.0" encoding="UTF-8"?>
<svg width="83px" height="50px" viewBox="0 0 83 50" version="1.1" xmlns="http://www.w3.org/2000/svg" xmlns:xlink="http://www.w3.org/1999/xlink">
    <!-- Generator: Sketch 64 (93537) - https://sketch.com -->
    <title>直线 6备份 6</title>
    <desc>Created with Sketch.</desc>
    <g id="新手引导" stroke="none" stroke-width="1" fill="none" fill-rule="evenodd">
        <g id="画板" transform="translate(-990.000000, -165.000000)" fill="#FFFFFF" fill-rule="nonzero">
            <path d="M1050.6974,228.116408 L1051.36193,228.336403 C1052.28969,228.643538 1053.2324,228.925568 1054.1901,229.182491 L1055.15279,229.431044 L1055.83217,229.599671 L1055.49492,230.958443 L1054.81553,230.789816 C1053.82202,230.543221 1052.84358,230.270758 1051.88025,229.972424 L1050.92194,229.665466 L1050.25741,229.445471 L1050.6974,228.116408 Z M1043.4791,224.934987 L1044.09891,225.260312 C1045.02708,225.74749 1045.97314,226.20445 1046.93711,226.631198 L1047.66345,226.945595 L1048.30812,227.218353 L1047.7626,228.507699 L1047.11793,228.23494 C1046.11648,227.81123 1045.13332,227.35635 1044.16846,226.870307 L1043.44826,226.499931 L1042.82845,226.174606 L1043.4791,224.934987 Z M1036.89614,220.600682 L1037.45299,221.024844 C1038.29265,221.664421 1039.15012,222.273648 1040.02543,222.852543 L1040.68526,223.281026 L1041.27551,223.657333 L1040.52289,224.83783 L1039.93264,224.461523 C1039.02212,223.881029 1038.13004,223.269356 1037.25642,222.626521 L1036.60467,222.138553 L1036.04781,221.714391 L1036.89614,220.600682 Z M1031.07436,215.222982 L1031.55704,215.729958 C1032.24436,216.45189 1032.94652,217.148389 1033.66352,217.81947 L1034.38546,218.482079 L1034.90579,218.95033 L1033.96928,219.990985 L1033.44896,219.522734 C1032.65209,218.805619 1031.87279,218.059003 1031.11108,217.282907 L1030.54308,216.695308 L1030.06041,216.188332 L1031.07436,215.222982 Z M1026.14272,209.089088 L1026.55045,209.658083 C1027.13434,210.472911 1027.73176,211.264475 1028.3427,212.032784 L1028.95816,212.793343 L1029.40315,213.333695 L1028.32245,214.223684 L1027.87745,213.683332 C1027.24245,212.912254 1026.62151,212.117644 1026.01464,211.299514 L1025.41246,210.473545 L1025.00473,209.90455 L1026.14272,209.089088 Z M1021.9887,202.311886 L1022.3246,202.926027 C1022.47918,203.208649 1022.63504,203.488231 1022.79791,203.775024 C1023.13109,204.361489 1023.46977,204.938493 1023.81395,205.506038 L1024.33434,206.350262 L1024.70601,206.943442 L1023.51965,207.686777 L1023.14798,207.093597 C1022.61273,206.239329 1022.09028,205.363654 1021.58058,204.46648 L1021.33529,204.030595 L1021.33529,204.030595 L1021.09632,203.597833 L1020.76042,202.983692 L1021.9887,202.311886 Z M1018.71857,195.109364 L1018.97577,195.760402 C1019.34326,196.690641 1019.72831,197.604976 1020.13092,198.503418 L1020.53939,199.396562 L1020.8354,200.030893 L1019.56674,200.622921 L1019.27072,199.988589 C1018.84742,199.081491 1018.44215,198.158376 1018.05492,197.219251 L1017.67369,196.27479 L1017.41649,195.623751 L1018.71857,195.109364 Z M1016.29228,187.547825 L1016.47676,188.223079 C1016.74129,189.19135 1017.02189,190.145061 1017.31855,191.084216 L1017.62056,192.018519 L1017.84035,192.683121 L1016.51114,193.122687 L1016.29136,192.458085 C1015.97817,191.511016 1015.68141,190.549362 1015.40109,189.573129 L1015.12625,188.592037 L1014.94177,187.916783 L1016.29228,187.547825 Z M1014.63771,179.793516 L1014.75808,180.483089 C1014.93101,181.473772 1015.11845,182.451313 1015.32039,183.415716 L1015.52716,184.375738 L1015.67849,185.059184 L1014.3116,185.361853 L1014.16027,184.678407 C1013.94523,183.707249 1013.74497,182.722975 1013.55949,181.725589 L1013.37893,180.723831 L1013.25856,180.034258 L1014.63771,179.793516 Z M1013.64759,171.888752 L1013.71237,172.585748 C1013.79523,173.477227 1013.8884,174.359382 1013.99186,175.232214 L1014.15478,176.534468 L1014.24621,177.228471 L1012.8582,177.411333 L1012.76677,176.717329 C1012.63703,175.732498 1012.52052,174.735912 1012.41724,173.727573 L1012.31838,172.715316 L1012.2536,172.018321 L1013.64759,171.888752 Z M1013.23585,163.972601 L1013.25337,164.672382 C1013.27579,165.568041 1013.30747,166.455331 1013.34841,167.33425 L1013.41676,168.646351 L1013.45705,169.34519 L1012.05937,169.425778 L1012.01908,168.726939 C1011.9683,167.846206 1011.92689,166.957144 1011.89485,166.059753 L1011.85381,164.707418 L1011.83629,164.007637 L1013.23585,163.972601 Z M1013.013,149 L1017.98774,160.247309 L1013.21965,160.02143 L1013.21444,160.682295 L1013.21086,161.382286 L1011.81088,161.375123 L1011.81446,160.675132 L1011.81965,159.95543 L1007,159.728178 L1013.013,149 Z" id="直线-6备份-6" transform="translate(1031.416087, 189.979221) scale(1, -1) rotate(-270.000000) translate(-1031.416087, -189.979221) "></path>
        </g>
    </g>
</svg>