<?xml version="1.0" encoding="UTF-8"?>
<svg width="73px" height="83px" viewBox="0 0 73 83" version="1.1" xmlns="http://www.w3.org/2000/svg" xmlns:xlink="http://www.w3.org/1999/xlink">
    <!-- Generator: Sketch 64 (93537) - https://sketch.com -->
    <title>直线 6备份</title>
    <desc>Created with Sketch.</desc>
    <g id="新手引导" stroke="none" stroke-width="1" fill="none" fill-rule="evenodd">
        <g id="画板" transform="translate(-1149.000000, -193.000000)" fill="#FFFFFF" fill-rule="nonzero">
            <path d="M1216.50715,272.983407 L1217.19432,273.116812 C1218.05267,273.283449 1218.91895,273.441506 1219.79315,273.590982 L1221.11041,273.808762 L1221.80164,273.919167 L1221.58083,275.301644 L1220.88959,275.191238 C1219.99726,275.048714 1219.11285,274.89749 1218.23634,274.737565 L1216.92751,274.491153 L1216.24034,274.357748 L1216.50715,272.983407 Z M1208.77718,271.139755 L1209.45272,271.323173 C1210.29598,271.552128 1211.14785,271.771772 1212.00832,271.982103 L1213.30548,272.290617 L1213.98748,272.448363 L1213.67198,273.812352 L1212.98999,273.654605 C1212.10951,273.450948 1211.23762,273.237826 1210.37435,273.015239 L1209.08589,272.674258 L1208.41034,272.49084 L1208.77718,271.139755 Z M1201.20989,268.690186 L1201.86792,268.928914 C1202.68975,269.227064 1203.52088,269.515141 1204.36133,269.793144 L1205.62898,270.202592 L1206.29658,270.413087 L1205.87559,271.74829 L1205.20799,271.537795 C1204.34565,271.265901 1203.49265,270.983742 1202.64898,270.691318 L1201.39047,270.244983 L1200.73243,270.006255 L1201.20989,268.690186 Z M1193.90655,265.589355 L1194.53979,265.887693 C1195.43007,266.307129 1196.33296,266.712909 1197.24846,267.10503 L1198.16817,267.492599 L1198.81481,267.760668 L1198.27867,269.053941 L1197.63203,268.785873 C1196.69289,268.396543 1195.76643,267.993267 1194.85266,267.576046 L1193.94311,267.154175 L1193.30987,266.855837 L1193.90655,265.589355 Z M1186.9292,261.785688 L1187.52908,262.146449 C1188.37358,262.654325 1189.23139,263.147765 1190.10251,263.626769 L1190.97807,264.100961 L1191.5957,264.430398 L1190.93683,265.665665 L1190.31919,265.336227 C1189.42335,264.858398 1188.54096,264.365811 1187.67202,263.858466 L1186.80756,263.346201 L1186.20768,262.98544 L1186.9292,261.785688 Z M1180.42276,257.294765 L1180.98056,257.717673 C1181.76742,258.31424 1182.56805,258.895827 1183.38247,259.462435 L1184.20147,260.02405 L1184.78144,260.416017 L1183.9975,261.575951 L1183.41754,261.183984 C1182.57819,260.616722 1181.75283,260.034149 1180.94146,259.436269 L1180.13475,258.833287 L1179.57694,258.410378 L1180.42276,257.294765 Z M1174.42586,252.099717 L1174.93339,252.581812 C1175.65142,253.263866 1176.38341,253.930701 1177.12934,254.582324 L1177.87993,255.228875 L1178.41345,255.682037 L1177.50712,256.749079 L1176.9736,256.295917 C1176.20354,255.641846 1175.4477,254.972255 1174.70608,254.287148 L1173.9692,253.596868 L1173.46167,253.114773 L1174.42586,252.099717 Z M1169.03522,246.253633 L1169.48374,246.79106 C1169.8343,247.211113 1170.19076,247.626357 1170.55982,248.044554 C1170.90117,248.431238 1171.24626,248.813835 1171.59509,249.192343 L1172.12113,249.757041 L1172.601,250.266669 L1171.58174,251.226418 L1171.10187,250.71679 C1170.56274,250.144234 1170.0322,249.562325 1169.5102,248.970991 L1168.9525,248.330329 L1168.9525,248.330329 L1168.40888,247.688103 L1167.96036,247.150675 L1169.03522,246.253633 Z M1164.47744,239.801934 L1164.84806,240.395768 C1165.37013,241.232248 1165.91456,242.055848 1166.48139,242.866577 L1167.05567,243.673016 L1167.46663,244.23968 L1166.3333,245.061608 L1165.92234,244.494943 C1165.32633,243.673126 1164.75321,242.838055 1164.20299,241.989741 L1163.66039,241.137013 L1163.28977,240.543179 L1164.47744,239.801934 Z M1160.84914,232.754474 L1161.13329,233.39421 C1161.53555,234.299897 1161.96017,235.192643 1162.40713,236.072462 L1162.86153,236.947973 L1163.18941,237.566438 L1161.95248,238.222184 L1161.6246,237.603719 C1161.15134,236.711002 1160.701,235.805088 1160.27359,234.88599 L1159.85381,233.962497 L1159.56967,233.322761 L1160.84914,232.754474 Z M1158.22467,225.30108 L1158.42106,225.972968 C1158.70046,226.928895 1159.00138,227.872303 1159.32381,228.803203 L1159.65342,229.729935 L1159.89345,230.387493 L1158.57834,230.867564 L1158.3383,230.210006 C1157.99362,229.265784 1157.67101,228.308924 1157.37047,227.339436 L1157.07728,226.365738 L1156.8809,225.693851 L1158.22467,225.30108 Z M1156.5571,217.52257 L1156.66993,218.213416 C1156.83115,219.200549 1157.01247,220.175956 1157.21388,221.139646 L1157.42198,222.09943 L1157.57545,222.782398 L1156.20951,223.089341 L1156.05604,222.406372 C1155.83668,221.430191 1155.63788,220.442276 1155.45963,219.442633 L1155.28824,218.439081 L1155.17541,217.748234 L1156.5571,217.52257 Z M1155.78678,209.678001 L1155.82549,210.37693 C1155.88098,211.378999 1155.95487,212.370321 1156.04717,213.350898 L1156.14559,214.327894 L1156.22035,215.02389 L1154.82836,215.173408 L1154.7536,214.477412 C1154.6471,213.485899 1154.55935,212.483694 1154.49036,211.470799 L1154.42763,210.454341 L1154.38892,209.755411 L1155.78678,209.678001 Z M1155.77757,193.390537 L1160.45543,204.764526 L1155.711,204.415 L1155.70847,204.551724 C1155.7042,204.860278 1155.70155,205.167891 1155.70051,205.474564 L1155.70221,206.391757 L1155.70722,207.091739 L1154.30725,207.101753 L1154.30225,206.401771 C1154.29782,205.782416 1154.29994,205.159327 1154.3086,204.532506 L1154.312,204.312 L1149.4851,203.957218 L1155.77757,193.390537 Z" id="直线-6备份"></path>
        </g>
    </g>
</svg>