<?xml version="1.0" encoding="UTF-8"?>
<svg width="102px" height="82px" viewBox="0 0 102 82" version="1.1" xmlns="http://www.w3.org/2000/svg" xmlns:xlink="http://www.w3.org/1999/xlink">
    <!-- Generator: Sketch 64 (93537) - https://sketch.com -->
    <title>直线 7备份</title>
    <desc>Created with Sketch.</desc>
    <g id="新手引导" stroke="none" stroke-width="1" fill="none" fill-rule="evenodd">
        <g id="画板" transform="translate(-297.000000, -120.000000)" fill="#FFFFFF" fill-rule="nonzero">
            <path d="M396.934009,196.355675 L397.200401,197.003005 C397.541048,197.830772 397.870486,198.663321 398.188716,199.50065 L398.657655,200.760228 L398.897426,201.417883 L397.582117,201.897426 L397.342345,201.239772 C397.03967,200.409583 396.725948,199.584116 396.40118,198.763369 L395.905742,197.535789 L395.63935,196.888459 L396.934009,196.355675 Z M393.514149,189.059609 L393.8324,189.68308 C394.239997,190.481586 394.636406,191.284876 395.021625,192.092949 L395.591061,193.308646 L395.88367,193.944555 L394.611852,194.529772 L394.319244,193.893863 C393.950512,193.092521 393.570745,192.295884 393.179941,191.503952 L392.585458,190.319582 L392.267207,189.69611 L393.514149,189.059609 Z M389.509791,182.05432 L389.877056,182.650236 C390.347999,183.414379 390.807924,184.183243 391.256831,184.956827 L391.921929,186.120745 L392.265166,186.730817 L391.045022,187.417292 L390.701785,186.80722 C390.269982,186.039732 389.827298,185.276873 389.373733,184.518642 L388.685223,183.384766 L388.317958,182.788849 L389.509791,182.05432 Z M384.977735,175.401688 L385.389972,175.967426 C385.919265,176.693808 386.437835,177.424793 386.945681,178.160382 L387.699406,179.267217 L388.089683,179.848323 L386.927472,180.628877 L386.537195,180.047771 C386.046729,179.317489 385.545656,178.591711 385.033974,177.870436 L384.258495,176.791901 L383.846257,176.226162 L384.977735,175.401688 Z M379.94775,169.095436 L380.400498,169.629308 C380.982258,170.315308 381.553697,171.005745 382.114815,171.700618 L382.948751,172.746257 L383.381876,173.296168 L382.282053,174.162418 L381.848928,173.612507 C381.30512,172.92207 380.751085,172.235968 380.186822,171.554202 L379.332755,170.534805 L378.880006,170.000933 L379.94775,169.095436 Z M374.476063,163.154285 L374.964573,163.655641 C375.592432,164.30001 376.210449,164.948613 376.818625,165.601451 L377.723507,166.583885 L378.194807,167.101453 L377.159671,168.044052 L376.688371,167.526484 C376.097135,166.877206 375.49613,166.232065 374.885354,165.591062 L373.961861,164.632661 L373.473351,164.131305 L374.476063,163.154285 Z M368.677819,157.635702 L369.197125,158.105086 C369.864786,158.708561 370.523113,159.316054 371.172106,159.927565 L372.138596,160.847845 L372.642994,161.333215 L371.672255,162.342009 L371.167858,161.85664 C370.535223,161.247871 369.893309,160.643031 369.242113,160.042119 L368.258359,159.143699 L367.739052,158.674315 L368.677819,157.635702 Z M362.516214,152.445127 L363.062164,152.883235 C363.76409,153.446508 364.457211,154.013572 365.141527,154.584428 L366.161395,155.443554 L366.694572,155.897121 L365.787439,156.963475 L365.254262,156.509908 C364.585567,155.941058 363.908104,155.375919 363.221873,154.814492 L362.185949,153.975135 L361.639998,153.537027 L362.516214,152.445127 Z M356.078263,147.611954 L356.647437,148.019435 C357.37237,148.538426 358.093442,149.064702 358.810654,149.598264 L359.883576,150.40407 L360.441379,150.826984 L359.595552,151.942589 L359.037749,151.519676 C358.33118,150.983971 357.620802,150.455493 356.906614,149.934242 L355.832475,149.157783 L355.263301,148.750302 L356.078263,147.611954 Z M349.394303,143.148706 L349.985251,143.523914 C350.73851,144.002177 351.487858,144.487827 352.233297,144.980863 L353.348521,145.725957 L353.928754,146.117529 L353.145609,147.277996 L352.565376,146.886424 C351.83105,146.390862 351.092861,145.902621 350.35081,145.4217 L349.234835,144.705809 L348.643888,144.330601 L349.394303,143.148706 Z M342.460923,139.061934 L343.072097,139.403206 C343.851885,139.838629 344.627735,140.281498 345.399648,140.731812 L346.554563,141.412867 L347.155851,141.77127 L346.439044,142.973846 L345.837756,142.615442 C345.077331,142.162184 344.313012,141.716299 343.544797,141.277789 L342.389554,140.625554 L341.77838,140.284282 L342.460923,139.061934 Z M335.315623,135.378019 L335.945124,135.68417 C336.748945,136.075099 337.548828,136.473483 338.344771,136.879321 L339.535733,137.493669 L340.156319,137.81751 L339.508637,139.058682 L338.888051,138.734841 C338.103853,138.325623 337.315753,137.923784 336.523752,137.529325 L335.332823,136.943172 L334.703322,136.637021 L335.315623,135.378019 Z M327.965632,132.099785 L328.611374,132.37 C329.436446,132.715257 330.257606,133.067928 331.074851,133.428012 L332.297785,133.973698 L332.93569,134.26193 L332.359226,135.537739 L331.721321,135.249507 C330.915951,134.885607 330.106698,134.529045 329.293561,134.17982 L328.070944,133.661486 L327.425201,133.39127 L327.965632,132.099785 Z M320.438654,129.235402 L321.098402,129.469353 C321.94179,129.768425 322.781315,130.074822 323.616977,130.388545 L324.867572,130.864624 L325.520617,131.116679 L325.016506,132.42277 L324.36346,132.170714 C323.539674,131.852758 322.712048,131.542051 321.880581,131.238595 L320.630499,130.788848 L319.970752,130.554897 L320.438654,129.235402 Z M309.326401,120.854899 L308.292,125.568 L308.594407,125.645147 L308.594407,125.645147 L309.595736,125.908229 L310.272155,126.088387 L309.911839,127.441226 L309.23542,127.261068 L308.243202,127.000379 L308.243202,127.000379 L307.991,126.936 L306.968357,131.599183 L297.403095,123.868998 L309.326401,120.854899 Z M312.802689,126.798253 L313.474096,126.996272 C314.332929,127.249568 315.187969,127.510064 316.039214,127.77776 L317.313238,128.184703 L317.979083,128.400689 L317.547111,129.73238 L316.881265,129.516394 C316.041775,129.244081 315.198508,128.978894 314.351462,128.720834 L313.078059,128.339088 L312.406651,128.141069 L312.802689,126.798253 Z" id="直线-7备份"></path>
        </g>
    </g>
</svg>