<?xml version="1.0" encoding="UTF-8"?>
<svg width="73px" height="83px" viewBox="0 0 73 83" version="1.1" xmlns="http://www.w3.org/2000/svg" xmlns:xlink="http://www.w3.org/1999/xlink">
    <!-- Generator: Sketch 64 (93537) - https://sketch.com -->
    <title>直线 6</title>
    <desc>Created with Sketch.</desc>
    <g id="新手引导" stroke="none" stroke-width="1" fill="none" fill-rule="evenodd">
        <g id="画板" transform="translate(-442.000000, -121.000000)" fill="#FFFFFF" fill-rule="nonzero">
            <path d="M509.507151,200.983407 L510.194321,201.116812 C511.052671,201.283449 511.918947,201.441506 512.793152,201.590982 L514.110406,201.808762 L514.801644,201.919167 L514.580833,203.301644 L513.889594,203.191238 C512.997264,203.048714 512.112845,202.89749 511.236338,202.737565 L509.927512,202.491153 L509.240341,202.357748 L509.507151,200.983407 Z M501.777181,199.139755 L502.452723,199.323173 C503.295982,199.552128 504.147847,199.771772 505.008319,199.982103 L506.305483,200.290617 L506.987477,200.448363 L506.671984,201.812352 L505.98999,201.654605 C505.109506,201.450948 504.237625,201.237826 503.374348,201.015239 L502.085887,200.674258 L501.410345,200.49084 L501.777181,199.139755 Z M494.209889,196.690186 L494.867923,196.928914 C495.689748,197.227064 496.520882,197.515141 497.361327,197.793144 L498.628979,198.202592 L499.296581,198.413087 L498.875591,199.74829 L498.207989,199.537795 C497.345654,199.265901 496.492649,198.983742 495.648976,198.691318 L494.390467,198.244983 L493.732433,198.006255 L494.209889,196.690186 Z M486.90655,193.589355 L487.539791,193.887693 C488.430068,194.307129 489.332957,194.712909 490.24846,195.10503 L491.168169,195.492599 L491.814806,195.760668 L491.278669,197.053941 L490.632032,196.785873 C489.692887,196.396543 488.766427,195.993267 487.852656,195.576046 L486.943114,195.154175 L486.309873,194.855837 L486.90655,193.589355 Z M479.929202,189.785688 L480.529078,190.146449 C481.373578,190.654325 482.231387,191.147765 483.102508,191.626769 L483.978068,192.100961 L484.595701,192.430398 L483.936825,193.665665 L483.319192,193.336227 C482.423354,192.858398 481.54096,192.365811 480.672016,191.858466 L479.807556,191.346201 L479.20768,190.98544 L479.929202,189.785688 Z M473.422758,185.294765 L473.980565,185.717673 C474.767423,186.31424 475.568055,186.895827 476.382465,187.462435 L477.201469,188.02405 L477.781437,188.416017 L476.997503,189.575951 L476.417536,189.183984 C475.578195,188.616722 474.752834,188.034149 473.94146,187.436269 L473.134748,186.833287 L472.576941,186.410378 L473.422758,185.294765 Z M467.425862,180.099717 L467.93339,180.581812 C468.651425,181.263866 469.383407,181.930701 470.129341,182.582324 L470.879925,183.228875 L471.413446,183.682037 L470.507123,184.749079 L469.973602,184.295917 C469.203544,183.641846 468.447702,182.972255 467.706081,182.287148 L466.9692,181.596868 L466.461672,181.114773 L467.425862,180.099717 Z M462.035217,174.253633 L462.483739,174.79106 C462.834302,175.211113 463.19076,175.626357 463.559824,176.044554 C463.901174,176.431238 464.246261,176.813835 464.595086,177.192343 L465.121125,177.757041 L465.601,178.266669 L464.581744,179.226418 L464.10187,178.71679 C463.562741,178.144234 463.032205,177.562325 462.510198,176.970991 L461.9525,176.330329 L461.9525,176.330329 L461.408883,175.688103 L460.960362,175.150675 L462.035217,174.253633 Z M457.47744,167.801934 L457.848063,168.395768 C458.370126,169.232248 458.914564,170.055848 459.481386,170.866577 L460.055669,171.673016 L460.466632,172.23968 L459.333303,173.061608 L458.922339,172.494943 C458.32633,171.673126 457.75321,170.838055 457.202986,169.989741 L456.660395,169.137013 L456.289772,168.543179 L457.47744,167.801934 Z M453.849144,160.754474 L454.133288,161.39421 C454.535554,162.299897 454.960166,163.192643 455.407125,164.072462 L455.861535,164.947973 L456.189408,165.566438 L454.952477,166.222184 L454.624604,165.603719 C454.151339,164.711002 453.700998,163.805088 453.273585,162.88599 L452.853815,161.962497 L452.569672,161.322761 L453.849144,160.754474 Z M451.22467,153.30108 L451.421056,153.972968 C451.700462,154.928895 452.001382,155.872303 452.323814,156.803203 L452.653416,157.729935 L452.893452,158.387493 L451.578335,158.867564 L451.3383,158.210006 C450.99362,157.265784 450.67101,156.308924 450.370467,155.339436 L450.077281,154.365738 L449.880895,153.693851 L451.22467,153.30108 Z M449.557099,145.52257 L449.669931,146.213416 C449.831155,147.200549 450.012471,148.175956 450.213876,149.139646 L450.421977,150.09943 L450.575449,150.782398 L449.209511,151.089341 L449.056039,150.406372 C448.83668,149.430191 448.637879,148.442276 448.459633,147.442633 L448.288238,146.439081 L448.175406,145.748234 L449.557099,145.52257 Z M448.786781,137.678001 L448.825486,138.37693 C448.880978,139.378999 448.954872,140.370321 449.047165,141.350898 L449.14559,142.327894 L449.220349,143.02389 L447.828356,143.173408 L447.753597,142.477412 C447.647096,141.485899 447.559353,140.483694 447.490365,139.470799 L447.427627,138.454341 L447.388922,137.755411 L448.786781,137.678001 Z M448.777573,121.390537 L453.455433,132.764526 L448.711,132.415 L448.708469,132.551724 C448.704203,132.860278 448.701549,133.167891 448.700506,133.474564 L448.702212,134.391757 L448.707219,135.091739 L447.307255,135.101753 L447.302248,134.401771 C447.297818,133.782416 447.299936,133.159327 447.308601,132.532506 L447.312,132.312 L442.485098,131.957218 L448.777573,121.390537 Z" id="直线-6" transform="translate(478.643371, 162.346090) scale(-1, -1) translate(-478.643371, -162.346090) "></path>
        </g>
    </g>
</svg>