<?xml version="1.0" encoding="UTF-8"?>
<svg width="102px" height="80px" viewBox="0 0 102 80" version="1.1" xmlns="http://www.w3.org/2000/svg" xmlns:xlink="http://www.w3.org/1999/xlink">
    <!-- Generator: Sketch 64 (93537) - https://sketch.com -->
    <title>直线 6</title>
    <desc>Created with Sketch.</desc>
    <g id="新手引导" stroke="none" stroke-width="1" fill="none" fill-rule="evenodd">
        <g id="画板" transform="translate(-534.000000, -113.000000)" fill="#FFFFFF" fill-rule="nonzero">
            <path d="M539.472661,190.423259 L539.753963,191.794707 L539.068239,191.935358 C538.196976,192.114065 537.321944,192.285324 536.443143,192.449135 L535.122116,192.689266 L534.43285,192.811382 L534.188618,191.43285 L534.877884,191.310734 C535.75221,191.155831 536.622771,190.993556 537.489567,190.823909 L538.786937,190.56391 L539.472661,190.423259 Z M547.217101,188.569944 L547.574386,189.923586 L546.897565,190.102229 C546.036803,190.329421 545.172158,190.548946 544.303631,190.760804 L542.997928,191.072839 L542.316348,191.232365 L541.997296,189.869205 L542.678876,189.709679 C543.542774,189.507481 544.402799,189.297698 545.258953,189.080329 L546.54028,188.748586 L547.217101,188.569944 Z M554.846319,186.277331 L555.281293,187.608045 L554.615936,187.825532 C553.768785,188.102442 552.917656,188.371501 552.062548,188.632711 L550.776904,189.018637 L550.105493,189.216647 L549.709472,187.873827 L550.380883,187.675816 C551.231284,187.425018 552.077726,187.166456 552.920208,186.90013 L554.180963,186.494818 L554.846319,186.277331 Z M562.319001,183.543291 L562.832218,184.84583 L562.180948,185.102438 C561.350676,185.429576 560.516353,185.748726 559.677977,186.05989 L558.417376,186.520645 L557.758731,186.757682 L557.284657,185.440392 L557.943303,185.203355 C558.776989,184.903323 559.606652,184.595394 560.432291,184.279565 L561.667731,183.799899 L562.319001,183.543291 Z M569.620227,180.362689 L570.211249,181.631819 L569.576683,181.927331 C568.766965,182.304409 567.953151,182.673425 567.135243,183.034377 L565.905309,183.56976 L565.262078,183.845902 L564.709794,182.559441 L565.353025,182.283299 C566.166365,181.934128 566.975646,181.576982 567.780869,181.211862 L568.985661,180.6582 L569.620227,180.362689 Z M576.725129,176.738852 L577.392376,177.969617 L576.776994,178.30324 C575.991177,178.729263 575.201253,179.14721 574.407223,179.557079 L573.213097,180.165826 L572.587854,180.480582 L571.958343,179.230096 L572.583586,178.91534 C573.37327,178.517803 574.158892,178.112273 574.940452,177.698752 L576.109746,177.072476 L576.725129,176.738852 Z M583.561785,172.711582 L584.302058,173.899856 L583.707921,174.269993 C582.948642,174.743011 582.185273,175.207997 581.417815,175.66495 L580.263562,176.344356 L579.658526,176.696394 L578.95445,175.486321 L579.559486,175.134283 C580.322912,174.690087 581.082299,174.237938 581.83765,173.777837 L582.967648,173.081719 L583.561785,172.711582 Z M590.171922,168.263448 L590.98173,169.405468 L590.41072,169.810372 C589.680335,170.328289 588.945906,170.838274 588.207435,171.340324 L587.096695,172.08745 L586.513937,172.475256 L585.738327,171.309739 L586.321085,170.921934 C587.055915,170.43293 587.786759,169.936065 588.513616,169.431338 L589.600912,168.668352 L590.171922,168.263448 Z M596.514286,163.430285 L597.389226,164.523208 L596.842764,164.960678 C596.385014,165.32713 595.924678,165.690885 595.458991,166.054121 L594.564715,166.74581 L594.564715,166.74581 L593.666198,167.429186 L593.107315,167.850671 L592.264345,166.732904 L592.823229,166.311419 C593.417595,165.863175 594.009177,165.409434 594.59796,164.950207 L595.285851,164.410165 L595.285851,164.410165 L595.967825,163.867755 L596.514286,163.430285 Z M602.553294,158.243601 L603.491174,159.283015 L602.971467,159.751955 C602.309359,160.349386 601.640331,160.941095 600.964385,161.527083 L599.945276,162.401773 L599.411854,162.855051 L598.505299,161.788205 L599.038722,161.334928 C599.714544,160.760647 600.383501,160.180718 601.045595,159.595141 L602.033587,158.712541 L602.553294,158.243601 Z M608.269371,152.705183 L609.268479,153.685888 L608.778126,154.185442 C608.153141,154.822155 607.521129,155.453063 606.88209,156.078164 L605.918262,157.011463 L605.412929,157.495858 L604.444139,156.485191 L604.949472,156.000796 C605.588704,155.388051 606.220973,154.769571 606.84628,154.145358 L607.779018,153.204737 L608.269371,152.705183 Z M613.646824,146.814592 L614.704505,147.731822 L614.24589,148.260662 C613.660742,148.935411 613.068501,149.604306 612.469167,150.267346 L611.564847,151.257515 L611.090138,151.771957 L610.061252,150.822539 L610.535961,150.308097 C611.135881,149.657963 611.728779,149.002043 612.314657,148.340335 L613.188209,147.343432 L613.646824,146.814592 Z M618.630858,140.627022 L619.743125,141.477235 L619.318019,142.033368 C618.775071,142.743664 618.225018,143.448102 617.66786,144.146681 L616.826795,145.190156 L616.384707,145.732888 L615.299243,144.848712 L615.741331,144.30598 C616.29952,143.620716 616.850682,142.929654 617.394818,142.232794 L618.205752,141.183155 L618.630858,140.627022 Z M623.239805,134.12194 L624.402251,134.902145 L624.012148,135.483368 C623.513432,136.226417 623.007653,136.963649 622.494813,137.695063 L621.720255,138.787821 L621.312548,139.356833 L620.174524,138.541419 L620.582231,137.972407 C621.096584,137.254556 621.603956,136.53094 622.104349,135.801559 L622.849703,134.703163 L623.239805,134.12194 Z M627.428368,127.375277 L628.635642,128.084141 L628.28121,128.687778 C627.827785,129.460013 627.367394,130.226515 626.900038,130.987286 L626.19378,132.124141 L625.821414,132.716884 L624.635929,131.972152 L625.008295,131.379409 C625.477649,130.632278 625.940121,129.879458 626.395712,129.120947 L627.073936,127.978914 L627.428368,127.375277 Z M635.265226,113.449444 L635.446157,125.746487 L631.095,123.65 L630.859461,124.095188 L630.859461,124.095188 L630.268179,125.185769 L629.931765,125.79963 L628.704043,125.126803 L629.040456,124.512942 L629.625726,123.43345 L629.625726,123.43345 L629.833,123.042 L625.53615,120.972415 L635.265226,113.449444 Z" id="直线-6"></path>
        </g>
    </g>
</svg>