<svg xmlns="http://www.w3.org/2000/svg" xmlns:xlink="http://www.w3.org/1999/xlink" fill="none" version="1.1" width="1024" height="1024" viewBox="0 0 1024 1024"><defs><clipPath id="master_svg0_0_147"><rect x="0" y="0" width="1024" height="1024" rx="0"/></clipPath></defs><g clip-path="url(#master_svg0_0_147)"><rect x="0" y="0" width="1024" height="1024" rx="0" fill="#FFFFFF" fill-opacity="1"/><g><g><path d="M141.16650390625,840.125L511.99950390625,840.125Q512.78550390625,840.125,513.57050390625,840.086Q514.35450390625,840.048,515.13650390625,839.971Q515.91850390625,839.894,516.69550390625,839.779Q517.47250390625,839.663,518.24250390625,839.51Q519.01350390625,839.357,519.7755039062499,839.166Q520.53750390625,838.975,521.2885039062501,838.747Q522.04050390625,838.519,522.78050390625,838.254Q523.5195039062501,837.99,524.24550390625,837.689Q524.9715039062501,837.388,525.68150390625,837.053Q526.39150390625,836.717,527.08450390625,836.346Q527.77750390625,835.976,528.4515039062501,835.572Q529.1245039062501,835.168,529.7785039062501,834.732Q530.43150390625,834.296,531.06250390625,833.828Q531.69350390625,833.36,532.30050390625,832.861Q532.90750390625,832.363,533.48950390625,831.835Q534.07150390625,831.308,534.62750390625,830.752Q535.1825039062501,830.197,535.71050390625,829.615Q536.23750390625,829.033,536.7365039062499,828.426Q537.23450390625,827.818,537.7025039062501,827.187Q538.17050390625,826.556,538.60650390625,825.903Q539.04350390625,825.25,539.44750390625,824.576Q539.85150390625,823.902,540.2215039062501,823.21Q540.59150390625,822.517,540.92750390625,821.807Q541.26350390625,821.097,541.5635039062499,820.371Q541.86450390625,819.645,542.12950390625,818.905Q542.39350390625,818.166,542.6215039062499,817.414Q542.84950390625,816.662,543.04050390625,815.9Q543.23150390625,815.138,543.3845039062501,814.368Q543.5385039062501,813.597,543.6535039062501,812.82Q543.76850390625,812.043,543.84550390625,811.262Q543.92250390625,810.48,543.9615039062501,809.695Q543.9995039062501,808.911,543.9995039062501,808.125Q543.9995039062501,807.339,543.9615039062501,806.555Q543.92250390625,805.77,543.84550390625,804.988Q543.76850390625,804.207,543.6535039062501,803.43Q543.5385039062501,802.653,543.3845039062501,801.882Q543.23150390625,801.112,543.04050390625,800.35Q542.84950390625,799.588,542.6215039062499,798.836Q542.39350390625,798.084,542.12950390625,797.344Q541.86450390625,796.605,541.5635039062499,795.879Q541.26350390625,795.153,540.92750390625,794.443Q540.59150390625,793.733,540.2215039062501,793.04Q539.85150390625,792.347,539.44750390625,791.674Q539.04350390625,791,538.60650390625,790.347Q538.17050390625,789.694,537.7025039062501,789.063Q537.23450390625,788.432,536.7365039062499,787.824Q536.23750390625,787.217,535.71050390625,786.635Q535.1825039062501,786.053,534.62750390625,785.497Q534.07150390625,784.942,533.48950390625,784.414Q532.90750390625,783.887,532.30050390625,783.389Q531.69350390625,782.89,531.06250390625,782.422Q530.43150390625,781.954,529.7785039062501,781.518Q529.1245039062501,781.082,528.4515039062501,780.678Q527.77750390625,780.274,527.08450390625,779.904Q526.39150390625,779.533,525.68150390625,779.197Q524.9715039062501,778.861,524.24550390625,778.561Q523.5195039062501,778.26,522.78050390625,777.996Q522.04050390625,777.731,521.2885039062501,777.503Q520.53750390625,777.275,519.7755039062499,777.084Q519.01350390625,776.893,518.24250390625,776.74Q517.47250390625,776.587,516.69550390625,776.471Q515.91850390625,776.356,515.13650390625,776.279Q514.35450390625,776.202,513.57050390625,776.164Q512.78550390625,776.125,511.99950390625,776.125L173.16650390625,776.125L173.16650390625,283.875L850.83350390625,283.875L850.83350390625,530Q850.83350390625,530.7860000000001,850.87150390625,531.5699999999999Q850.91050390625,532.355,850.98750390625,533.137Q851.06450390625,533.918,851.17950390625,534.6949999999999Q851.29450390625,535.472,851.44750390625,536.2429999999999Q851.60150390625,537.0129999999999,851.79250390625,537.775Q851.98350390625,538.537,852.21150390625,539.289Q852.43950390625,540.0409999999999,852.70350390625,540.78Q852.96850390625,541.52,853.26850390625,542.246Q853.56950390625,542.972,853.90550390625,543.682Q854.24150390625,544.392,854.61150390625,545.085Q854.98150390625,545.777,855.38550390625,546.451Q855.78950390625,547.125,856.22650390625,547.778Q856.66250390625,548.431,857.13050390625,549.062Q857.59850390625,549.693,858.09650390625,550.3009999999999Q858.59550390625,550.908,859.12250390625,551.49Q859.65050390625,552.072,860.20550390625,552.627Q860.76150390625,553.183,861.34350390625,553.71Q861.92550390625,554.238,862.53250390625,554.736Q863.13950390625,555.235,863.77050390625,555.703Q864.40150390625,556.171,865.05450390625,556.607Q865.70850390625,557.043,866.38150390625,557.447Q867.05550390625,557.851,867.74850390625,558.221Q868.44150390625,558.592,869.15150390625,558.928Q869.86150390625,559.2629999999999,870.58750390625,559.5640000000001Q871.31250390625,559.865,872.05250390625,560.129Q872.79250390625,560.394,873.54450390625,560.6220000000001Q874.29550390625,560.85,875.05750390625,561.0409999999999Q875.81950390625,561.232,876.59050390625,561.385Q877.36050390625,561.538,878.13750390625,561.654Q878.91450390625,561.769,879.69650390625,561.846Q880.47850390625,561.923,881.26350390625,561.961Q882.04750390625,562,882.83350390625,562Q883.61850390625,562,884.40350390625,561.961Q885.18750390625,561.923,885.96950390625,561.846Q886.75150390625,561.769,887.52850390625,561.654Q888.30550390625,561.538,889.07650390625,561.385Q889.84650390625,561.232,890.60850390625,561.0409999999999Q891.37050390625,560.85,892.12250390625,560.6220000000001Q892.87450390625,560.394,893.61350390625,560.129Q894.35350390625,559.865,895.07950390625,559.5640000000001Q895.80450390625,559.2629999999999,896.51450390625,558.928Q897.22550390625,558.592,897.91750390625,558.221Q898.61050390625,557.851,899.28450390625,557.447Q899.95850390625,557.043,900.61150390625,556.607Q901.26450390625,556.171,901.89550390625,555.703Q902.52650390625,555.235,903.13350390625,554.736Q903.74050390625,554.238,904.32250390625,553.71Q904.90550390625,553.183,905.46050390625,552.627Q906.01650390625,552.072,906.54350390625,551.49Q907.07150390625,550.908,907.56950390625,550.3009999999999Q908.06750390625,549.693,908.53550390625,549.062Q909.00350390625,548.431,909.44050390625,547.778Q909.87650390625,547.125,910.28050390625,546.451Q910.68450390625,545.777,911.05450390625,545.085Q911.42450390625,544.392,911.76050390625,543.682Q912.09650390625,542.972,912.39750390625,542.246Q912.69750390625,541.52,912.96250390625,540.78Q913.22750390625,540.0409999999999,913.45550390625,539.289Q913.68350390625,538.537,913.87450390625,537.775Q914.06550390625,537.0129999999999,914.21850390625,536.2429999999999Q914.37150390625,535.472,914.48650390625,534.6949999999999Q914.60250390625,533.918,914.67950390625,533.137Q914.75650390625,532.355,914.79450390625,531.5699999999999Q914.83350390625,530.7860000000001,914.83350390625,530L914.83350390625,251.875Q914.83350390625,251.089444,914.79450390625,250.30483Q914.75650390625,249.52023,914.67950390625,248.73845Q914.60250390625,247.95668,914.48650390625,247.17963Q914.37150390625,246.40257,914.21850390625,245.63211Q914.06450390625,244.86165,913.87450390625,244.09963Q913.68350390625,243.33762,913.45550390625,242.58589Q913.22750390625,241.8342,912.96250390625,241.0945Q912.69750390625,240.3549,912.39750390625,239.6291Q912.09650390625,238.9034,911.76050390625,238.1932Q911.42450390625,237.4831,911.05450390625,236.7903Q910.68450390625,236.0975,910.28050390625,235.4237Q909.87650390625,234.7499,909.44050390625,234.0968Q909.00350390625,233.4436,908.53550390625,232.8126Q908.06750390625,232.1817,907.56950390625,231.5744Q907.07150390625,230.9672,906.54350390625,230.3851Q906.01650390625,229.8031,905.46050390625,229.2476Q904.90550390625,228.6921,904.32250390625,228.1646Q903.74050390625,227.637,903.13350390625,227.1387Q902.52650390625,226.6403,901.89550390625,226.1724Q901.26450390625,225.7044,900.61150390625,225.268Q899.95850390625,224.8315,899.28450390625,224.42770000000002Q898.61050390625,224.0238,897.91750390625,223.6535Q897.22450390625,223.2832,896.51450390625,222.94729999999998Q895.80450390625,222.6115,895.07850390625,222.3109Q894.35350390625,222.0102,893.61350390625,221.7456Q892.87350390625,221.4809,892.12250390625,221.2529Q891.37050390625,221.0249,890.60850390625,220.834Q889.84650390625,220.6431,889.07650390625,220.4899Q888.30550390625,220.3366,887.52850390625,220.2214Q886.75150390625,220.1061,885.96950390625,220.0291Q885.18750390625,219.9521,884.40350390625,219.9135Q883.61850390625,219.875,882.83350390625,219.875L141.16650390625,219.875Q140.38094790625,219.875,139.59633390625,219.9135Q138.81173390625,219.9521,138.02995390625,220.0291Q137.24818390625,220.1061,136.47113390625,220.2214Q135.69407390625,220.3366,134.92361390625,220.4899Q134.15315390625,220.6431,133.39113390625,220.834Q132.62912390625,221.0249,131.87739390625,221.2529Q131.12570390625,221.4809,130.38600390625,221.7456Q129.64640390625,222.0102,128.92060390625,222.3109Q128.19490390625,222.6115,127.48470390625,222.94729999999998Q126.77460390625001,223.2832,126.08180390625,223.6535Q125.38900390625,224.0238,124.71520390625,224.42770000000002Q124.04140390625,224.8315,123.38830390625,225.268Q122.73510390625,225.7044,122.10410390625,226.1724Q121.47320390625,226.6403,120.86590390625,227.1387Q120.25870390624999,227.637,119.67660390625,228.1646Q119.09460390625,228.6921,118.53910390625,229.2476Q117.98360390625,229.8031,117.45610390625001,230.3851Q116.92850390625,230.9672,116.43020390625,231.5744Q115.93180390625,232.1817,115.46390390625,232.8126Q114.99590390624999,233.4436,114.55950390625,234.0968Q114.12300390625,234.7499,113.71920390625,235.4237Q113.31530390625,236.0975,112.94500390625001,236.7903Q112.57470390625,237.4831,112.23880390625,238.1932Q111.90300390625,238.9034,111.60240390625,239.6291Q111.30170390625,240.3549,111.03710390625,241.0945Q110.77240390624999,241.8342,110.54440390625,242.58589Q110.31640390625,243.33762,110.12550390625,244.09963Q109.93460390625,244.86165,109.78140390625,245.63211Q109.62810390625,246.40257,109.51290390625,247.17963Q109.39760390625,247.95668,109.32060390625,248.73845Q109.24360390625,249.52023,109.20500390625,250.30483Q109.16650390625,251.089444,109.16650390625,251.875L109.16650390625,808.125Q109.16650390625,808.911,109.20500390625,809.695Q109.24360390625,810.48,109.32060390625,811.262Q109.39760390625,812.043,109.51290390625,812.82Q109.62810390625,813.597,109.78140390625,814.368Q109.93460390625,815.138,110.12550390625,815.9Q110.31640390625,816.662,110.54440390625,817.414Q110.77240390624999,818.166,111.03710390625,818.905Q111.30170390625,819.645,111.60240390625,820.371Q111.90300390625,821.097,112.23880390625,821.807Q112.57470390625,822.517,112.94500390625001,823.21Q113.31530390625,823.902,113.71920390625,824.576Q114.12300390625,825.25,114.55950390625,825.903Q114.99590390624999,826.556,115.46390390625,827.187Q115.93180390625,827.818,116.43020390625,828.426Q116.92850390625,829.033,117.45610390625001,829.615Q117.98360390625,830.197,118.53910390625,830.752Q119.09460390625,831.308,119.67660390625,831.835Q120.25870390624999,832.363,120.86590390625,832.861Q121.47320390625,833.36,122.10410390625,833.828Q122.73510390625,834.296,123.38830390625,834.732Q124.04140390625,835.168,124.71520390625,835.572Q125.38900390625,835.976,126.08180390625,836.346Q126.77460390625001,836.717,127.48470390625,837.053Q128.19490390625,837.388,128.92060390625,837.689Q129.64640390625,837.99,130.38600390625,838.254Q131.12570390625,838.519,131.87739390625,838.747Q132.62912390625,838.975,133.39113390625,839.166Q134.15315390625,839.357,134.92361390625,839.51Q135.69407390625,839.663,136.47113390625,839.779Q137.24818390625,839.894,138.02995390625,839.971Q138.81173390625,840.048,139.59633390625,840.086Q140.38094790625,840.125,141.16650390625,840.125Z" fill-rule="evenodd" fill="#323232" fill-opacity="1"/></g><g><path d="M882.8330000000001,683.4169921875L623.25,683.4169921875Q622.464444,683.4169921875,621.67983,683.4554921875Q620.89523,683.4940921875,620.11345,683.5710921875Q619.33168,683.6480921875,618.55463,683.7633921875Q617.77757,683.8785921875,617.00711,684.0318921875Q616.23665,684.1850921875,615.47463,684.3759921875Q614.71262,684.5668921875,613.96089,684.7948921875Q613.2092,685.0228921875,612.4695,685.2875921875Q611.7299,685.5521921875,611.0041,685.8528921875Q610.2784,686.1534921875,609.5682,686.4892921875Q608.8581,686.8251921875,608.1653,687.1954921875Q607.4725,687.5657921875,606.7987,687.9696921875Q606.1249,688.3734921875,605.4718,688.8099921875Q604.8186,689.2463921875,604.1876,689.7143921875Q603.5567,690.1822921875,602.9494,690.6806921875Q602.3422,691.1789921875,601.7601,691.7065921875Q601.1781,692.2340921875,600.6226,692.7895921875Q600.0671,693.3450921875,599.5396,693.9270921875Q599.012,694.5091921875,598.5137,695.1163921875Q598.0153,695.7236921875,597.5474,696.3545921875Q597.0794,696.9855921875,596.643,697.6387921875Q596.2065,698.2918921875,595.8027,698.9656921875Q595.3988,699.6394921875,595.0285,700.3322921875Q594.6582,701.0250921875,594.3223,701.7351921875Q593.9865,702.4453921875,593.6859,703.1710921875Q593.3852,703.8968921875,593.1206,704.6364921875Q592.8559,705.3761921875,592.6279,706.1278821875Q592.3999,706.8796121875,592.209,707.6416221875Q592.0181,708.4036421875,591.8649,709.1741021875Q591.7116,709.9445621875,591.5964,710.7216221875Q591.4811,711.4986721875,591.4041,712.2804421875Q591.3271,713.0622221875,591.2885,713.8468221875Q591.25,714.6314361875,591.25,715.4169921875Q591.25,716.2025481875,591.2885,716.9871621875Q591.3271,717.7717621875,591.4041,718.5535421875Q591.4811,719.3353121875,591.5964,720.1123621875Q591.7116,720.8894221875,591.8649,721.6598821875Q592.0181,722.4303421875,592.209,723.1923621875Q592.3999,723.9543721875,592.6279,724.7061021875Q592.8559,725.4577921875,593.1206,726.1974921875Q593.3852,726.9370921875,593.6859,727.6628921875Q593.9865,728.3885921875,594.3223,729.0987921875Q594.6582,729.8088921875,595.0285,730.5016921875Q595.3988,731.1944921875,595.8027,731.8682921875Q596.2065,732.5420921875,596.643,733.1951921875Q597.0794,733.8483921875,597.5474,734.4793921875Q598.0153,735.1102921875,598.5137,735.7175921875Q599.012,736.3247921875,599.5396,736.9068921875Q600.0671,737.4888921875,600.6226,738.0443921875Q601.1781,738.5998921875,601.7601,739.1273921875Q602.3422,739.6549921875,602.9494,740.1532921875Q603.5567,740.6516921875,604.1876,741.1195921875Q604.8186,741.5875921875,605.4718,742.0239921875Q606.1249,742.4604921875,606.7987,742.8642921875Q607.4725,743.2681921875,608.1653,743.6384921875Q608.8581,744.0087921875,609.5682,744.3446921875Q610.2784,744.6804921875,611.0041,744.9810921875Q611.7299,745.2817921875,612.4695,745.5463921875Q613.2092,745.8110921875,613.96089,746.0390921875Q614.71262,746.2670921875,615.47463,746.4579921875Q616.23665,746.6488921875,617.00711,746.8020921875Q617.77757,746.9553921875,618.55463,747.0705921875Q619.33168,747.1858921875,620.11345,747.2628921875Q620.89523,747.3398921875,621.67983,747.3784921875Q622.464444,747.4169921875,623.25,747.4169921875L882.8330000000001,747.4169921875Q883.619,747.4169921875,884.404,747.3784921875Q885.188,747.3398921875,885.97,747.2628921875Q886.752,747.1858921875,887.529,747.0705921875Q888.306,746.9553921875,889.076,746.8020921875Q889.847,746.6488921875,890.6089999999999,746.4579921875Q891.371,746.2670921875,892.1220000000001,746.0390921875Q892.874,745.8110921875,893.614,745.5463921875Q894.3530000000001,745.2817921875,895.079,744.9810921875Q895.8050000000001,744.6804921875,896.515,744.3446921875Q897.225,744.0087921875,897.918,743.6384921875Q898.611,743.2681921875,899.2850000000001,742.8642921875Q899.9580000000001,742.4604921875,900.6120000000001,742.0239921875Q901.265,741.5875921875,901.896,741.1195921875Q902.527,740.6516921875,903.134,740.1532921875Q903.741,739.6549921875,904.323,739.1273921875Q904.905,738.5998921875,905.461,738.0443921875Q906.0160000000001,737.4888921875,906.544,736.9068921875Q907.071,736.3247921875,907.5699999999999,735.7175921875Q908.068,735.1102921875,908.5360000000001,734.4793921875Q909.004,733.8483921875,909.44,733.1951921875Q909.877,732.5420921875,910.281,731.8682921875Q910.685,731.1944921875,911.0550000000001,730.5016921875Q911.425,729.8088921875,911.761,729.0987921875Q912.097,728.3885921875,912.3969999999999,727.6628921875Q912.698,726.9370921875,912.963,726.1974921875Q913.227,725.4577921875,913.4549999999999,724.7061021875Q913.683,723.9543721875,913.874,723.1923621875Q914.065,722.4303421875,914.2180000000001,721.6598821875Q914.3720000000001,720.8894221875,914.4870000000001,720.1123621875Q914.602,719.3353121875,914.679,718.5535421875Q914.756,717.7717621875,914.7950000000001,716.9871621875Q914.8330000000001,716.2025481875,914.8330000000001,715.4169921875Q914.8330000000001,714.6314361875,914.7950000000001,713.8468221875Q914.756,713.0622221875,914.679,712.2804421875Q914.602,711.4986721875,914.4870000000001,710.7216221875Q914.3720000000001,709.9445621875,914.2180000000001,709.1741021875Q914.065,708.4036421875,913.874,707.6416221875Q913.683,706.8796121875,913.4549999999999,706.1278821875Q913.227,705.3761921875,912.963,704.6364921875Q912.698,703.8968921875,912.3969999999999,703.1710921875Q912.097,702.4453921875,911.761,701.7351921875Q911.425,701.0250921875,911.0550000000001,700.3322921875Q910.685,699.6394921875,910.281,698.9656921875Q909.877,698.2918921875,909.44,697.6387921875Q909.004,696.9855921875,908.5360000000001,696.3545921875Q908.068,695.7236921875,907.5699999999999,695.1163921875Q907.071,694.5091921875,906.544,693.9270921875Q906.0160000000001,693.3450921875,905.461,692.7895921875Q904.905,692.2340921875,904.323,691.7065921875Q903.741,691.1789921875,903.134,690.6806921875Q902.527,690.1822921875,901.896,689.7143921875Q901.265,689.2463921875,900.6120000000001,688.8099921875Q899.9580000000001,688.3734921875,899.2850000000001,687.9696921875Q898.611,687.5657921875,897.918,687.1954921875Q897.225,686.8251921875,896.515,686.4892921875Q895.8050000000001,686.1534921875,895.079,685.8528921875Q894.3530000000001,685.5521921875,893.614,685.2875921875Q892.874,685.0228921875,892.1220000000001,684.7948921875Q891.371,684.5668921875,890.6089999999999,684.3759921875Q889.847,684.1850921875,889.076,684.0318921875Q888.306,683.8785921875,887.529,683.7633921875Q886.752,683.6480921875,885.97,683.5710921875Q885.188,683.4940921875,884.404,683.4554921875Q883.619,683.4169921875,882.8330000000001,683.4169921875Z" fill-rule="evenodd" fill="#323232" fill-opacity="1"/></g><g><path d="M767.5096,785.485251953125L767.4976,785.497251953125Q766.9421,786.053251953125,766.4146,786.635251953125Q765.887,787.217251953125,765.3887,787.824251953125Q764.8903,788.431251953125,764.4224,789.062251953125Q763.9544,789.693251953125,763.518,790.346251953125Q763.0815,791.000251953125,762.6777,791.673251953125Q762.2738,792.347251953125,761.9035,793.040251953125Q761.5332,793.733251953125,761.1973,794.443251953125Q760.8615,795.1532519531249,760.5609,795.879251953125Q760.2602,796.6052519531249,759.9956,797.344251953125Q759.7309,798.084251953125,759.5029,798.8362519531249Q759.2749,799.587251953125,759.084,800.349251953125Q758.8931,801.111251953125,758.7399,801.882251953125Q758.5866,802.652251953125,758.4714,803.429251953125Q758.3561,804.206251953125,758.2791,804.988251953125Q758.2021,805.770251953125,758.1635,806.555251953125Q758.125,807.339251953125,758.125,808.125251953125Q758.125,808.910251953125,758.1635,809.695251953125Q758.2021,810.479251953125,758.2791,811.261251953125Q758.3561,812.043251953125,758.4714,812.820251953125Q758.5866,813.597251953125,758.7399,814.368251953125Q758.8931,815.1382519531251,759.084,815.900251953125Q759.2749,816.662251953125,759.5029,817.414251953125Q759.7309,818.166251953125,759.9956,818.905251953125Q760.2602,819.645251953125,760.5609,820.371251953125Q760.8615,821.096251953125,761.1973,821.806251953125Q761.5332,822.517251953125,761.9035,823.209251953125Q762.2738,823.902251953125,762.6777,824.5762519531249Q763.0815,825.250251953125,763.518,825.9032519531249Q763.9544,826.556251953125,764.4224,827.187251953125Q764.8903,827.818251953125,765.3887,828.425251953125Q765.887,829.0322519531251,766.4146,829.615251953125Q766.9421,830.197251953125,767.4976,830.752251953125Q768.0531,831.308251953125,768.6351,831.835251953125Q769.2172,832.363251953125,769.8244,832.861251953125Q770.4317,833.3592519531251,771.0626,833.827251953125Q771.6936,834.295251953125,772.3468,834.732251953125Q772.9999,835.168251953125,773.6737,835.572251953125Q774.3475,835.976251953125,775.0403,836.346251953125Q775.7331,836.716251953125,776.4432,837.052251953125Q777.1534,837.3882519531251,777.8791,837.689251953125Q778.6049,837.989251953125,779.3445,838.254251953125Q780.0842,838.519251953125,780.83589,838.747251953125Q781.58762,838.975251953125,782.34963,839.166251953125Q783.11165,839.357251953125,783.88211,839.510251953125Q784.65257,839.663251953125,785.42963,839.7782519531249Q786.20668,839.894251953125,786.98845,839.971251953125Q787.77022,840.048251953125,788.55483,840.0862519531249Q789.339444,840.125251953125,790.125,840.125251953125Q790.910556,840.125251953125,791.69517,840.0862519531249Q792.47977,840.048251953125,793.26155,839.971251953125Q794.04332,839.894251953125,794.82037,839.7782519531249Q795.59743,839.663251953125,796.36789,839.510251953125Q797.13835,839.357251953125,797.90037,839.166251953125Q798.66238,838.975251953125,799.41411,838.747251953125Q800.1658,838.519251953125,800.9055,838.254251953125Q801.6451,837.989251953125,802.3709,837.689251953125Q803.0966,837.3882519531251,803.8068,837.052251953125Q804.5169,836.716251953125,805.2097,836.346251953125Q805.9025,835.976251953125,806.5763,835.572251953125Q807.2501,835.168251953125,807.9032,834.732251953125Q808.5564,834.295251953125,809.1874,833.827251953125Q809.8183,833.3592519531251,810.4256,832.861251953125Q811.0328,832.363251953125,811.6149,831.835251953125Q812.1969,831.308251953125,812.7524,830.752251953125L812.7644,830.740251953125L905.461,738.044251953125Q906.016,737.488251953125,906.544,736.906251953125Q907.071,736.324251953125,907.5699999999999,735.717251953125Q908.068,735.110251953125,908.5360000000001,734.479251953125Q909.004,733.848251953125,909.44,733.195251953125Q909.877,732.541251953125,910.281,731.868251953125Q910.684,731.194251953125,911.0550000000001,730.501251953125Q911.425,729.808251953125,911.761,729.098251953125Q912.097,728.3882519531251,912.397,727.662251953125Q912.698,726.936251953125,912.963,726.197251953125Q913.227,725.457251953125,913.455,724.705251953125Q913.683,723.954251953125,913.874,723.192251953125Q914.065,722.429951953125,914.218,721.659451953125Q914.372,720.889051953125,914.487,720.111951953125Q914.602,719.334851953125,914.679,718.553151953125Q914.756,717.771351953125,914.795,716.986751953125Q914.833,716.2021519531249,914.833,715.416551953125Q914.833,714.631051953125,914.795,713.846451953125Q914.756,713.0617519531249,914.679,712.2800519531249Q914.602,711.498251953125,914.487,710.721151953125Q914.372,709.944151953125,914.218,709.173651953125Q914.065,708.4032519531249,913.874,707.641251953125Q913.683,706.879151953125,913.455,706.127451953125Q913.227,705.375751953125,912.963,704.636051953125Q912.698,703.896451953125,912.397,703.170751953125Q912.097,702.444951953125,911.761,701.734851953125Q911.425,701.024651953125,911.0550000000001,700.331851953125Q910.684,699.639051953125,910.281,698.9652519531251Q909.877,698.291451953125,909.44,697.638351953125Q909.004,696.985151953125,908.5360000000001,696.354251953125Q908.068,695.723251953125,907.5699999999999,695.116051953125Q907.071,694.508751953125,906.544,693.926651953125Q906.016,693.344651953125,905.461,692.789151953125L812.7524,600.080851953125Q812.1969,599.525351953125,811.6149,598.997851953125Q811.0328,598.470251953125,810.4256,597.971951953125Q809.8183,597.473551953125,809.1874,597.005651953125Q808.5564,596.537651953125,807.9032,596.101251953125Q807.2501,595.664751953125,806.5763,595.260951953125Q805.9025,594.857051953125,805.2097,594.486751953125Q804.5169,594.116451953125,803.8068,593.780551953125Q803.0966,593.444751953125,802.3709,593.144151953125Q801.6451,592.843451953125,800.9055,592.578851953125Q800.1658,592.314151953125,799.41411,592.086151953125Q798.66238,591.858151953125,797.90037,591.667251953125Q797.13835,591.476351953125,796.36789,591.323151953125Q795.59743,591.169851953125,794.82037,591.054551953125Q794.04332,590.939351953125,793.26155,590.862351953125Q792.47977,590.785351953125,791.69517,590.746751953125Q790.910556,590.708251953125,790.125,590.708251953125Q789.339444,590.708251953125,788.55483,590.746751953125Q787.77023,590.785351953125,786.98845,590.862351953125Q786.20668,590.939351953125,785.42963,591.054551953125Q784.65257,591.169851953125,783.88211,591.323151953125Q783.11165,591.476351953125,782.34963,591.667251953125Q781.58762,591.858151953125,780.83589,592.086151953125Q780.0842,592.314151953125,779.3445,592.578851953125Q778.6049,592.843451953125,777.8791,593.144151953125Q777.1534,593.444751953125,776.4432,593.780551953125Q775.7331,594.116451953125,775.0403,594.486751953125Q774.3475,594.857051953125,773.6737,595.260951953125Q772.9999,595.664751953125,772.3468,596.101251953125Q771.6936,596.537651953125,771.0626,597.005651953125Q770.4317,597.473551953125,769.8244,597.971951953125Q769.2172,598.470251953125,768.6351,598.997851953125Q768.0531,599.525351953125,767.4976,600.080851953125Q766.9421,600.636351953125,766.4146,601.218351953125Q765.887,601.800451953125,765.3887,602.407651953125Q764.8903,603.014951953125,764.4224,603.645851953125Q763.9544,604.276851953125,763.518,604.930051953125Q763.0815,605.583151953125,762.6777,606.256951953125Q762.2738,606.930751953125,761.9035,607.623551953125Q761.5332,608.316351953125,761.1973,609.026451953125Q760.8615,609.736651953125,760.5609,610.462351953125Q760.2602,611.188151953125,759.9956,611.927751953125Q759.7309,612.667451953125,759.5029,613.419141953125Q759.2749,614.170871953125,759.084,614.932881953125Q758.8931,615.694901953125,758.7399,616.465361953125Q758.5866,617.235821953125,758.4713,618.012881953125Q758.3561,618.789931953125,758.2791,619.571701953125Q758.2021,620.353481953125,758.1635,621.138081953125Q758.125,621.922695953125,758.125,622.708251953125Q758.125,623.493807953125,758.1635,624.278421953125Q758.2021,625.063021953125,758.2791,625.844801953125Q758.3561,626.626571953125,758.4713,627.403621953125Q758.5866,628.180681953125,758.7399,628.951141953125Q758.8931,629.721601953125,759.084,630.483621953125Q759.2749,631.245631953125,759.5029,631.997361953125Q759.7309,632.749051953125,759.9956,633.488751953125Q760.2602,634.228351953125,760.5609,634.954151953125Q760.8615,635.679851953125,761.1973,636.390051953125Q761.5332,637.100151953125,761.9035,637.792951953125Q762.2738,638.485751953125,762.6777,639.159551953125Q763.0815,639.833351953125,763.518,640.486451953125Q763.9544,641.139651953125,764.4224,641.770651953125Q764.8903,642.401551953125,765.3887,643.008851953125Q765.887,643.616051953125,766.4146,644.198151953125Q766.9421,644.780151953125,767.4976,645.335651953125L767.5014,645.339451953125L837.5785,715.416551953125L767.5096,785.485251953125Z" fill-rule="evenodd" fill="#323232" fill-opacity="1"/></g><g><path d="M531.19950390625,555.6L902.03350390625,277.475Q902.77550390625,276.9185,903.48350390625,276.3199Q904.19250390625,275.7213,904.86550390625,275.0827Q905.53750390625,274.4441,906.17250390625,273.7676Q906.80650390625,273.091,907.40150390625,272.3789Q907.99550390625,271.6668,908.54750390625,270.9214Q909.09950390625,270.1761,909.60750390625,269.4Q910.11550390625,268.6239,910.57750390625,267.8197Q911.04050390625,267.0155,911.45450390625,266.1858Q911.86950390625,265.3562,912.23550390625,264.5039Q912.60150390625,263.6517,912.91750390625,262.7796Q913.23350390625,261.9076,913.49850390625,261.01872Q913.76450390625,260.12984,913.97750390625,259.22709Q914.19050390625,258.32435,914.35050390625,257.41078Q914.51150390625,256.49721,914.61850390625,255.57588Q914.72550390625,254.65455,914.77950390625,253.72855Q914.83350390625,252.802555,914.83350390625,251.875Q914.83350390625,251.665048,914.83050390625,251.455114Q914.81350390625,250.19381,914.69850390625,248.93772Q914.58250390625,247.68164,914.36850390625,246.43856Q914.15350390625,245.19548,913.84250390625,243.97314Q913.53050390625,242.75079,913.12450390625,241.5567Q912.71750390625,240.3627,912.21750390625,239.2044Q911.71850390625,238.0461,911.12950390625,236.9307Q910.54050390625,235.8153,909.86550390625,234.7497Q909.19050390625,233.6841,908.43350390625,232.675Q907.96150390625,232.0465,907.46050390625,231.442Q906.95850390625,230.8374,906.42850390625,230.2582Q905.89750390625,229.679,905.33850390625,229.1265Q904.78050390625,228.574,904.19550390625,228.0496Q903.61050390625,227.5252,903.00050390625,227.0301Q902.39050390625,226.535,901.75750390625,226.0704Q901.12350390625,225.6059,900.46850390625,225.1729Q899.81250390625,224.74,899.13650390625,224.3398Q898.46050390625,223.93959999999998,897.76650390625,223.573Q897.07150390625,223.2064,896.35950390625,222.8743Q895.64750390625,222.5423,894.92050390625,222.2456Q894.19250390625,221.9488,893.45150390625,221.6882Q892.71050390625,221.4275,891.95750390625,221.2035Q891.20450390625,220.9795,890.44150390625,220.7927Q889.67850390625,220.6059,888.90750390625,220.4568Q888.13650390625,220.3077,887.35850390625,220.1966Q885.10750390625,219.875,882.83350390625,219.875Q882.77850390625,219.875,882.72350390625,219.8752Q881.44250390625,219.8796,880.16650390625,219.9863Q878.88950390625,220.0931,877.62650390625,220.3015Q876.36250390625,220.5099,875.11950390625,220.8187Q873.87650390625,221.1274,872.66150390625,221.5346Q871.44750390625,221.9417,870.26950390625,222.4445Q869.09150390625,222.9474,867.95750390625,223.5428Q866.82350390625,224.1382,865.74050390625,224.8224Q864.65750390625,225.5065,863.63350390625,226.275L511.99950390625,490L160.37000390625,226.2776L160.36650390625,226.275Q159.33630390625,225.5024,158.24740390624999,224.815Q157.15850390625,224.1277,156.01790390625,223.5301Q154.87730390625,222.9324,153.69240390625,222.4284Q152.50740390625,221.9243,151.28580390625,221.5171Q150.06418390625,221.1099,148.81380390625,220.8022Q147.56341390625,220.4945,146.29235390625,220.2882Q145.02128390625,220.0819,143.73775390625,219.9785Q142.45421390625,219.875,141.16652294835,219.875Q140.55145090625,219.875,139.93685390625,219.8986Q139.04842390625,219.9328,138.16325390625,220.0162Q137.27809390625,220.09969999999998,136.39892390625,220.2321Q135.51976390625,220.3646,134.64931390625,220.5457Q133.77885390625,220.7268,132.91979390625,220.95589999999999Q132.06074390625,221.185,131.21573390625,221.4615Q130.37070390625001,221.738,129.54240390625,222.0609Q128.71400390625,222.3839,127.90490390625,222.7523Q127.09570390625,223.1208,126.30830390625,223.5336Q125.52090390625,223.9464,124.75760390625,224.4024Q123.99430390625,224.85829999999999,123.25740390625,225.3558Q122.52060390625,225.8534,121.81260390625,226.3912Q121.10450390625,226.9289,120.42750390625,227.5051Q119.75040390625,228.0813,119.10630390625,228.6942Q118.46230390625,229.3072,117.85320390625,229.9549Q117.24420390625,230.6026,116.67210390625,231.2832Q116.10000390625,231.9637,115.56650390625,232.675Q114.79390390625,233.7052,114.10650390625,234.79410000000001Q113.41920390625,235.883,112.82160390625,237.0236Q112.22390390625,238.1642,111.71990390625,239.3491Q111.21580390625,240.5341,110.80860390625,241.7557Q110.40140390625,242.97733,110.09370390625,244.22771Q109.78600390625,245.4781,109.57970390625,246.74917Q109.37340390625,248.02024,109.27000390625,249.30377Q109.16650390625,250.5873,109.16650390625,251.875Q109.16650390625,252.490044,109.19010390625,253.10465Q109.22430390625,253.99308,109.30770390625,254.87825Q109.39120390625,255.76341,109.52360390625,256.64258Q109.65610390625,257.52174,109.83720390625,258.39219Q110.01830390625,259.26265,110.24740390625,260.12171Q110.47650390625,260.98076,110.75300390625,261.82577Q111.02950390625,262.6708,111.35240390625,263.4991Q111.67540390625,264.3275,112.04380390625,265.1366Q112.41230390625,265.9458,112.82510390625,266.7332Q113.23790390625,267.5206,113.69390390625,268.2839Q114.14980390625,269.0472,114.64730390625,269.7841Q115.14490390625,270.5209,115.68270390625,271.2289Q116.22040390625,271.937,116.79660390625,272.614Q117.37280390625,273.29110000000003,117.98570390625,273.9352Q118.59870390625,274.5792,119.24640390625,275.1883Q119.89410390625,275.7973,120.57470390625,276.3694Q121.25520390625,276.9415,121.96650390625,277.475L121.97000390625,277.4776L492.79950390625,555.6Q493.31450390625,555.986,493.84450390625,556.351Q494.37450390625,556.716,494.91850390625,557.06Q495.46350390625,557.404,496.02050390625,557.725Q496.57850390625,558.046,497.14850390625,558.345Q497.71850390625,558.644,498.30050390625,558.919Q498.88150390625,559.1949999999999,499.47450390625,559.447Q500.06650390625,559.6990000000001,500.66850390625,559.9259999999999Q501.27050390625,560.154,501.88050390625,560.358Q502.49150390625,560.5609999999999,503.10950390625,560.74Q503.72750390625,560.919,504.35250390625,561.073Q504.97750390625,561.227,505.60850390625,561.355Q506.23850390625,561.4839999999999,506.87450390625,561.587Q507.50950390625,561.69,508.14850390625,561.767Q508.78750390625,561.845,509.42850390625,561.8969999999999Q510.07050390625,561.948,510.71350390625,561.9739999999999Q511.35650390625,562,511.99950390625,562Q512.64350390625,562,513.28650390625,561.9739999999999Q513.9295039062499,561.948,514.57150390625,561.8969999999999Q515.21250390625,561.845,515.85150390625,561.767Q516.4905039062501,561.69,517.1255039062501,561.587Q517.76050390625,561.4839999999999,518.39150390625,561.355Q519.02250390625,561.227,519.64750390625,561.073Q520.27250390625,560.919,520.8905039062499,560.74Q521.50850390625,560.5609999999999,522.11950390625,560.358Q522.72950390625,560.154,523.33150390625,559.9259999999999Q523.93350390625,559.6990000000001,524.5255039062499,559.447Q525.11750390625,559.1949999999999,525.69950390625,558.919Q526.28150390625,558.644,526.85150390625,558.345Q527.42150390625,558.046,527.97850390625,557.725Q528.53650390625,557.404,529.08050390625,557.06Q529.6255039062501,556.716,530.15450390625,556.351Q530.68450390625,555.986,531.19950390625,555.6Z" fill-rule="evenodd" fill="#323232" fill-opacity="1"/></g></g></g></svg>