<?xml version="1.0" standalone="no"?><!DOCTYPE svg PUBLIC "-//W3C//DTD SVG 1.1//EN" "http://www.w3.org/Graphics/SVG/1.1/DTD/svg11.dtd"><svg t="1572856510406" class="icon" viewBox="0 0 1024 1024" version="1.1" xmlns="http://www.w3.org/2000/svg" p-id="6695" xmlns:xlink="http://www.w3.org/1999/xlink" width="200" height="200"><defs><style type="text/css"></style></defs><path d="M470.47 335.71l-127.75 80.65-52.01-40.89-6.04-4.52-6.56 2.82-113.23 48.19-0.4 0.17 9.58 28.29 106.59-45.53 53 41.46 7.06 5.65 7.56-4.53 133.83-84.62 8.92 19.46 36.94-63.82-66.91-3.37 9.42 20.59zM475.96 413.16h43.34v137.31h-43.34zM401.07 450.94h43.33v99.53h-43.33zM326.17 499.13h43.33v51.34h-43.33zM251.28 467.37h43.33v83.1h-43.33zM176.38 458.61h43.33v91.86h-43.33zM757 315.8c-65.66-24.85-139.4 7.46-164.91 72s7 137.17 72.7 162a129.44 129.44 0 0 0 95.21-1.46l3.08-1.27-52.72-114.37z" p-id="6696" fill="#0099ff"></path><path d="M846.17 449.8c11.14-58.09-21.29-115.76-77.35-137l-45.28 113.93zM779.32 554.38A124 124 0 0 0 851.23 464l-124.49-23.6z" p-id="6697" fill="#0099ff"></path><path d="M952 733.44V139.69H72v593.75h345.61v97l-20.49 4.78q-11.09 2.59-22.34 4.56c-11 1.93-19.27 10.82-19.5 21.59-0.27 12.64 11 22.89 24.5 22.89h249a24.42 24.42 0 0 0 21.44-11 21.09 21.09 0 0 0 0-22.92 23.9 23.9 0 0 0-16.29-10.66c-6.46-1.11-12.93-2.17-19.31-3.65l-24.22-5.65v-96.94z m-841.74-45V184.67h803.48v503.79z" p-id="6698" fill="#0099ff"></path></svg>