<?xml version="1.0" standalone="no"?><!DOCTYPE svg PUBLIC "-//W3C//DTD SVG 1.1//EN" "http://www.w3.org/Graphics/SVG/1.1/DTD/svg11.dtd"><svg t="1572860628307" class="icon" viewBox="0 0 1102 1024" version="1.1" xmlns="http://www.w3.org/2000/svg" p-id="48752" xmlns:xlink="http://www.w3.org/1999/xlink" width="215.234375" height="200"><defs><style type="text/css"></style></defs><path d="M95.901538 0C43.52 0 0 44.228923 0 97.516308v633.895384h95.901538V97.516308h767.133539V0H95.901538z" p-id="48753" fill="#6666CC"></path><path d="M287.665231 195.032615c-29.262769 0-55.256615 13.784615-72.861539 34.855385l408.497231 257.732923 405.188923-261.710769a94.680615 94.680615 0 0 0-69.553231-30.877539H287.665231z" p-id="48754" fill="#6666CC"></path><path d="M1054.838154 306.412308l-431.537231 278.724923L191.803077 312.871385V780.209231c0 53.76 43.008 97.516308 95.862154 97.516307h335.635692V731.372308c0-26.899692 21.464615-48.758154 47.931077-48.758154h143.872v-97.516308c0-26.899692 21.464615-48.758154 47.931077-48.758154h87.670154l104.132923 105.905231V306.372923z" p-id="48755" fill="#6666CC"></path><path d="M910.966154 633.895385v146.313846h-191.803077v97.516307h191.803077V1024L1102.769231 828.967385z" p-id="48756" fill="#6666CC"></path></svg>