<?xml version="1.0" standalone="no"?><!DOCTYPE svg PUBLIC "-//W3C//DTD SVG 1.1//EN" "http://www.w3.org/Graphics/SVG/1.1/DTD/svg11.dtd"><svg t="1572860229857" class="icon" viewBox="0 0 1024 1024" version="1.1" xmlns="http://www.w3.org/2000/svg" p-id="40408" xmlns:xlink="http://www.w3.org/1999/xlink" width="200" height="200"><defs><style type="text/css"></style></defs><path d="M65.4 754.3V95.1h862c0.9 7 2.7 14 2.7 21 0.2 87.7 0.1 175.4 0.1 263.1 0 4.8-0.9 9.7-1.4 15.5-121.1-84.1-247.1-98.9-370.9-18C419 467.5 385.5 600.6 430.1 757.5c-30.6 0-60.4-0.8-90.2 0.5-9.4 0.4-20.4 4.3-27.6 10.3-57.2 48-113.7 96.9-170.4 145.4-5.1 4.3-10.4 8.3-19.1 15.2V759.5c-20.4-1.9-38.9-3.6-57.4-5.2z m145.8-514.2v55.4h573.6v-55.4H211.2z m228 144.6H210.5v54.7h228.7v-54.7zM210.4 582.9h170.1v-54.5H210.4v54.5z" fill="#0099CC" p-id="40409"></path><path d="M958.6 672.4c-2.8 10.5-5.5 21.1-8.3 31.6-30 109.3-139.7 181.8-252 166.6C582.8 855 497.7 757.4 498 641c0.4-114.8 85-211.4 198.6-226.7 122.6-16.5 234.1 63.5 258.1 184.9 1 5 2.6 9.8 3.9 14.7v58.5zM901 642c-47.8-38.2-94.4-75.4-145.1-115.9v87.3H585.2v57.8h172.3v85.3C807.1 717 853.2 680.2 901 642z" fill="#0099CC" p-id="40410"></path></svg>