<?xml version="1.0" standalone="no"?><!DOCTYPE svg PUBLIC "-//W3C//DTD SVG 1.1//EN" "http://www.w3.org/Graphics/SVG/1.1/DTD/svg11.dtd"><svg t="1572856769076" class="icon" viewBox="0 0 1026 1024" version="1.1" xmlns="http://www.w3.org/2000/svg" p-id="10502" xmlns:xlink="http://www.w3.org/1999/xlink" width="200.390625" height="200"><defs><style type="text/css"></style></defs><path d="M531.839 845.303l256.537 171.367c7.257 4.911 15.466 7.33 23.455 7.33 13.34 0 26.387-6.303 34.523-18.178 13.047-18.983 8.062-44.857-10.921-57.904L607.188 801.985h305.646c23.015 0 40.093-18.617 40.093-41.632V143.197h30.051c23.016 0 41.633-11.288 41.633-34.376 0-22.942-18.617-34.303-41.633-34.303H586.371V43.587c-0.146-24.261-2.492-34.376-23.381-41.632-19.13-4.398-75.202 0-87.81 0-22.941 0-30.71 18.617-30.71 41.632v30.858H41.632C18.764 74.445 0 85.805 0 108.82c0 23.015 18.764 34.376 41.632 34.376H75.35v617.156c0 23.015 18.617 41.632 41.632 41.632h331.447L216.59 947.918c-18.91 13.047-23.821 38.92-10.848 57.904 8.136 11.875 21.183 18.178 34.45 18.178 8.062 0 16.271-2.345 23.381-7.33l268.265-171.367z m350.503-114.489h-735.75v-587.69h735.75v587.69z m-149.378-170.34c0 13.12 10.702 23.747 23.748 23.747h25.8c13.12 0 23.749-10.628 23.749-23.748V322.846c0-13.193-10.628-23.821-23.748-23.821h-25.8c-13.047 0-23.749 10.628-23.749 23.821v237.627z m-146.593-96.385V560.4c0 13.193 10.702 23.821 23.895 23.821h25.58c13.12 0 23.822-10.628 23.822-23.748V464.09c0-13.194-10.701-23.822-23.821-23.822h-25.58c-13.194 0-23.896 10.702-23.896 23.822zM356.001 584.22c-72.49 0-136.112-64.867-136.112-138.676 0-72.417 55.486-133.62 125.19-133.62 5.791 0 10.262 4.691 10.262 10.555v112.07c0 10.262 11.141 11.068 11.141 11.068h115.149c5.864 0 10.628 4.47 10.628 10.335 0 69.705-62.449 128.268-136.258 128.268z m165.43-176.424H405.842c-5.35 0-9.675-4.251-9.675-9.675V282.607c0-5.424 4.398-9.822 9.822-9.822 73.81 0 125.337 51.454 125.337 125.263 0 5.424-4.471 9.749-9.895 9.749z" p-id="10503" fill="#0099ff"></path></svg>