<svg t="1576931129542" class="icon" viewBox="0 0 1024 1024" version="1.1" xmlns="http://www.w3.org/2000/svg" p-id="2420" width="200" height="200"><path d="M970.3 0H53.7C24.1 0 0 24.1 0 53.7v916.6c0 29.7 24.1 53.7 53.7 53.7h916.6c29.7 0 53.7-24.1 53.7-53.7V53.7C1024 24.1 999.9 0 970.3 0zM501.7 112.1c0-38 31.1-69 69-69 38 0 69 31.1 69 69v2.1c0 38-31.1 69-69 69-38 0-69-31.1-69-69v-2.1z m-216 0c0-38 31.1-69 69-69 38 0 69 31.1 69 69v2.1c0 38-31.1 69-69 69-38 0-69-31.1-69-69v-2.1z m-216 0c0-38 31.1-69 69-69 38 0 69 31.1 69 69v2.1c0 38-31.1 69-69 69-38 0-69-31.1-69-69v-2.1zM954 903.2c0 28.1-22.8 50.8-50.8 50.8H120.8c-28 0-50.8-22.8-50.8-50.8V279.5c0-28.1 22.8-50.8 50.8-50.8h782.4c28.1 0 50.8 22.8 50.8 50.8v623.7z" p-id="2421" fill="#0099ff"></path></svg>