<?xml version="1.0" standalone="no"?><!DOCTYPE svg PUBLIC "-//W3C//DTD SVG 1.1//EN" "http://www.w3.org/Graphics/SVG/1.1/DTD/svg11.dtd"><svg t="1633684716619" class="icon" viewBox="0 0 1025 1024" version="1.1" xmlns="http://www.w3.org/2000/svg" p-id="3044" xmlns:xlink="http://www.w3.org/1999/xlink" width="36.03515625" height="36"><defs><style type="text/css"></style></defs><path d="M839.501367 888.329389a93.762247 93.762247 0 0 0 5.384299 51.27087l45.852276 32.374383-2.709296 10.802892v16.187191l10.802892 2.709297 16.187191-2.709297 2.709297 5.384299 8.093596 10.802893h10.802892l10.802893-24.280787v-10.802893l10.802892-2.709296s72.84236-24.280787 56.655169-51.270871l-5.384299-2.709297a125.485027 125.485027 0 0 1-45.852276 10.802893 182.345965 182.345965 0 0 1-91.738849-18.896488z" fill="#D77083" p-id="3045"></path><path d="M855.688558 866.723604s-29.665086 0-10.802892 29.665086a152.200751 152.200751 0 0 0 86.320254 40.467978s83.645253 0 89.166732-26.990084c0 0-2.709297-32.374382-26.990084-29.665085-24.383671 8.093596-137.69401-13.477894-137.69401-13.477895z" fill="#733D48" p-id="3046"></path><path d="M985.186088 780.40335a113.687582 113.687582 0 0 1 21.57149 102.507445 44.103237 44.103237 0 0 1-24.280787 35.08368 145.101707 145.101707 0 0 1-51.270871 2.709296s-51.27087-2.709297-67.458061-29.665085a34.67214 34.67214 0 0 1-2.709297-45.852277s37.724386-16.187191 45.852277-40.467978a41.565415 41.565415 0 0 1 29.665085-8.093595 95.408402 95.408402 0 0 1 29.665086 10.802892s24.349377-18.930783 18.965078-27.024378z" fill="#D59D52" p-id="3047"></path><path d="M885.353644 812.777732a80.044289 80.044289 0 0 0 64.748764 43.177275 83.988202 83.988202 0 0 0 62.073763-26.990084l-16.187191-40.467978-29.665085-8.093595s-78.260954-24.280787-80.970251 32.374382z" fill="#DBAE62" p-id="3048"></path><path d="M985.323267 780.369055s18.896488 24.280787-5.384298 29.665085a82.92506 82.92506 0 0 1-37.724387 0s-83.645253 24.280787-62.073763 94.448145c0 0-16.187191 0-24.280786-40.467978l8.093595-83.645252s113.138864-21.57149 121.369639 0z" fill="#B88F4D" p-id="3049"></path><path d="M974.383195 820.837033s10.802892 21.57149 2.709297 32.374382c0 0-2.709297 5.384299 10.802893 8.093596a40.467978 40.467978 0 0 0-2.709297-48.561574s-10.802892-2.675002-10.802893 8.093596z" fill="#FFFFFF" p-id="3050"></path><path d="M974.383195 818.162031a5.384299 5.384299 0 1 0 5.384299-5.384299 5.384299 5.384299 0 0 0-5.384299 5.384299z" fill="#FFFFFF" p-id="3051"></path><path d="M977.092492 855.920712a5.384299 5.384299 0 1 0 5.384299-5.384299 5.384299 5.384299 0 0 0-5.384299 5.384299z" fill="#FFFFFF" p-id="3052"></path><path d="M1014.885468 888.329389a110.566747 110.566747 0 0 0-21.57149-110.635336h-8.093595v13.477894a79.872814 79.872814 0 0 1 18.896488 64.748765 215.131886 215.131886 0 0 1-8.093596 43.177275 67.080818 67.080818 0 0 1-40.467978 18.896488 191.022574 191.022574 0 0 1-83.645253-21.57149 51.613819 51.613819 0 0 1-10.802892-45.886572h-5.384299c0-2.709297-2.709297-5.384299-13.477894 0 0 0 5.384299 8.093596-5.384299 10.802892 0 0-21.57149 10.802892-16.187191 53.980168 2.709297 37.724386 51.27087 62.039468 51.27087 62.039468a11.831739 11.831739 0 0 1 2.709297 8.093595c0 5.384299-2.709297 18.896488 13.477894 21.57149 0 0 10.802892 2.709297 16.187192-2.709297 0 0 8.093596 24.280787 24.280786 18.896488a23.18335 23.18335 0 0 0 13.477895-35.083679 108.166104 108.166104 0 0 0 62.073763-35.083679 43.931763 43.931763 0 0 0 10.734302-64.71447z m-10.802892 51.27087a75.860311 75.860311 0 0 1-53.980168 40.467978 145.273182 145.273182 0 0 1-29.665085-2.709296s-21.57149 8.093596 2.709297 5.384298c0 0 18.896488 0 16.187191 13.477895 0 0-2.709297 13.477894-8.093596 13.477894 0 0-5.384299 5.384299-13.477894-10.802892 0 0 2.709297-5.384299-8.093596-5.384299 0 0-18.896488 8.093596-18.896488-10.802892a37.724386 37.724386 0 0 1 10.802893-13.477895s-53.980167-16.187191-62.039468-62.039468c0 0-5.384299-10.802892 2.709297-8.093595a164.10108 164.10108 0 0 0 83.645253 40.467978 152.063571 152.063571 0 0 0 75.448772-10.802893c2.743592 2.709297 5.452889 5.315709 2.743592 10.802893z m8.093595-24.280786a38.753233 38.753233 0 0 1-5.384298 8.093595c-2.709297 0-2.709297 2.709297-5.384299 2.709297a164.615504 164.615504 0 0 1-107.92604 0c-45.886572-24.280787-48.561574-40.467978-48.561573-43.177275s0-5.384299 2.709296-5.384298c0 0 5.384299-10.802892 10.802893-5.418594a40.159324 40.159324 0 0 0 10.802892 24.280787 121.643998 121.643998 0 0 0 72.842361 26.990083c35.083679 2.709297 53.945872-8.093596 62.073763-24.280786 5.350004 2.675002 10.734303 10.768598 8.025005 16.152896z" p-id="3053"></path><path d="M11.211025 564.55127a374.157322 374.157322 0 0 0 118.728932 218.527081l121.403933-105.216742 180.7684-5.384299 232.039271-132.206826s140.300422-89.166731 134.916123-188.861996c0 0-153.778316 70.133064-188.861996 48.561574l-59.364466 29.665085-64.748764 45.852277-94.448146 8.093596-13.477894 16.187191-175.384101 53.945872s-24.280787-75.448773 56.655169-202.33989l26.990084-43.14298-116.019636 53.945873-2.709296-26.990084-13.477895 2.709297-21.57149 67.458061-24.280786 8.093596-67.458062 116.019635-8.093596-18.896488H22.013917v53.945872H11.211025z" fill="#BB75E8" p-id="3054"></path><path d="M772.043305 456.625231l24.280787-8.093596 29.665086-43.177275h10.905777l18.896488 2.709297 8.093595 16.187191 16.187192 16.187192 29.665085 8.093595 26.990084 10.802893 24.280787 21.57149 10.802892 16.187191 13.477894 24.280787 10.802893 37.724386 8.093595 26.990083 5.384299 18.896488 5.384299 16.187192-2.709297 24.280786-8.093595 18.896488-10.802893 13.477895-26.990084 8.093595-8.093595 8.093596-35.083679 5.384299h-24.280787l-16.187191 10.802892 2.709297 13.477895h16.187191l29.665085-8.093596 29.665086 2.709297 18.896488 16.187191 8.093595 8.093596 2.709297 18.896488v26.990083l-18.896488 16.187191-18.896488-2.709296-13.477894-5.384299-24.280787 2.709297-8.093596 10.802892-16.187191 16.187191-29.665085 16.187191-26.990084 5.384299-40.467978 5.384299-2.709297 10.802892v10.802893l-5.384298 21.57149-16.187192 21.57149-16.187191 24.280787 32.374383 2.709296 29.665085 5.384299 13.477894 16.187191 5.384299 16.187192-5.384299 13.477894-18.896488 16.187191-43.177274 2.709297H378.132123s-215.852079 0-304.881631-156.487613S16.595323 602.275657 16.595323 602.275657l5.384299-24.280787s35.083679 124.113231 94.448145 186.152699l16.187191 18.896488s10.802892-2.709297 18.896488-45.852277c0 0 18.896488-89.166731 240.064277-89.166731l91.738848-48.561574 91.738848-26.990084 67.458062-16.187191 53.945872-26.990083z" fill="#E6516F" p-id="3055"></path><path d="M890.772237 556.457675a36.112526 36.112526 0 0 1 48.561574-8.093596 44.137532 44.137532 0 0 1 10.802892 62.073763 65.434663 65.434663 0 0 0-24.280786 0c-2.709297 0-64.748765 2.675002-35.08368-53.980167z" p-id="3056"></path><path d="M901.540835 583.447758a16.701615 16.701615 0 0 1-2.709297-18.896488l-8.093596-8.093595s-13.477894 16.187191 10.802893 35.083679a61.730814 61.730814 0 0 0 35.083679 8.093596s8.093596 2.709297 8.093596 5.384298v-21.57149s-5.384299 13.477894-13.477895 13.477895a60.187544 60.187544 0 0 1-29.665085-13.477895z" fill="#FFFFFF" p-id="3057"></path><path d="M906.959429 569.935569a16.187191 16.187191 0 1 0 16.187191-16.187191 16.187191 16.187191 0 0 0-16.187191 16.187191z" fill="#D19B52" p-id="3058"></path><path d="M901.540835 559.166972a8.093596 8.093596 0 1 0 8.093596-8.093596 8.093596 8.093596 0 0 0-8.093596 8.093596z" fill="#FFFFFF" p-id="3059"></path><path d="M302.546171 132.881407l2.709297-26.990084 70.133063-51.27087 32.374383-16.187191a173.532177 173.532177 0 0 1 105.216743-37.724386l75.448772 8.093595 53.945872 18.896488 40.467978 24.280787 32.374383 16.187191 40.467978 26.990084-8.093596 48.561573-8.093595 35.08368 10.802892 48.561573-16.187191 24.280787a165.541466 165.541466 0 0 1-51.270871 56.655169l-24.280786 45.852277-43.177275 53.945872-75.448773 48.561574-64.748764 18.896488-51.270871 5.384298-186.152699 56.65517-35.083679 16.187191a256.320057 256.320057 0 0 1 56.655169-202.33989l48.561574-43.177275a118.934701 118.934701 0 0 0 37.724386-70.133063l29.665086 51.27087 21.57149-45.852277c0-2.709297 2.709297-118.728932-94.448146-110.635336z" fill="#E7DFAB" p-id="3060"></path><path d="M780.136901 76.191943l-24.280787 29.665085-8.093595 26.990084-5.384299 62.039468-8.093596 56.655169s-32.374382 51.27087-45.886571 45.852277l-10.700008 24.349377-5.384299 18.896488 43.177275-37.724387 56.655169-24.280787 32.374382-13.477894 13.477895-26.990083-13.477895-51.270871-2.709296-32.374382-16.187192-5.384299s-8.093596-43.177275 5.384299-59.364466z" fill="#D19456" p-id="3061"></path><path d="M650.639371 364.886382a389.521435 389.521435 0 0 1 121.403934-94.448145v16.187191l67.458062-37.724386h16.187191l-5.384299 35.083679-18.896488 24.280787-21.57149 35.083679-35.083679 24.280787-72.84236 26.990084-70.133064 16.187191z" fill="#D77083" p-id="3062"></path><path d="M391.610018 154.452897s89.166731-24.280787 118.728932 0 110.635336-5.384299 110.635336-5.384299l72.84236 43.177275-5.384298 102.541741a91.293015 91.293015 0 0 0-86.320255-75.448773c-78.226659-8.093596-75.448773-21.57149-124.113231-45.852276s-37.827271 2.537822-86.388844-19.033668z" fill="#D89E52" p-id="3063"></path><path d="M391.610018 154.452897s10.802892 32.374382 64.748764 35.083679 226.620677 91.738848 159.19691 164.615504c0 0-10.802892 80.935956-78.226659 99.832444a151.480558 151.480558 0 0 0 18.896488-145.684721 104.42796 104.42796 0 0 0-83.645253-80.935956 254.605312 254.605312 0 0 1-80.97025-72.91095z" fill="#D89E52" p-id="3064"></path><path d="M442.880888 259.66964s26.990084 83.645253 72.84236 97.123147c0 0 53.945872 48.561574 5.384299 83.645253l-97.123147 40.467978-167.290506 43.177274-59.364466 21.57149s67.458062-86.320255 113.173159-107.926039a188.827701 188.827701 0 0 0 116.019635-107.92604z" fill="#D89E52" p-id="3065"></path><path d="M364.654229 259.66964a360.302184 360.302184 0 0 1-99.832444 159.19691 215.852079 215.852079 0 0 0-56.655169 121.403934 278.097316 278.097316 0 0 1 80.935956-124.113231 201.894056 201.894056 0 0 0 75.551657-156.487613z" fill="#814879" p-id="3066"></path><path d="M434.787292 494.383912a157.51646 157.51646 0 0 1 70.167359 18.896488 139.751704 139.751704 0 0 0-29.665086-18.896488 665.320994 665.320994 0 0 1 113.173159 24.280787 136.047855 136.047855 0 0 0 59.364466 0 223.534136 223.534136 0 0 1-83.645253-18.896488 230.153051 230.153051 0 0 0-78.226659-16.187191z" fill="#785085" p-id="3067"></path><path d="M607.496392 432.344444a163.346592 163.346592 0 0 1 56.655169 0 111.115465 111.115465 0 0 0 110.635336-13.477894s-45.852277 56.655169-83.645253 48.561573a539.355839 539.355839 0 0 0-126.891117-10.802892 59.364466 59.364466 0 0 0 43.245865-24.280787z" fill="#E1CAC9" p-id="3068"></path><path d="M372.747824 135.487819a288.077131 288.077131 0 0 1 53.945873-37.724386s72.84236-18.896488 43.177275 0l-13.477895 16.187191a118.454573 118.454573 0 0 1 56.655169-10.802892l-13.477894 10.802892s45.852277-8.093596 51.27087 0c0 0 18.896488 21.57149 37.724387 10.802892 0 0-8.093596 21.57149-53.945873-2.709296 0 0-32.374382 0 0 13.477894a366.955394 366.955394 0 0 0-161.871912-0.034295z" fill="#FFFFFF" p-id="3069"></path><path d="M337.664145 718.329587s-37.724386 5.384299-37.724386 62.039468a83.439483 83.439483 0 0 0 43.177275 59.364466 207.861368 207.861368 0 0 1 8.093595-118.694637z" fill="#A04F5D" p-id="3070"></path><path d="M685.723051 734.516778s-5.384299 94.41385 32.374382 134.916123a99.729559 99.729559 0 0 0 75.448773 26.990084s24.280787-40.467978-24.280787-43.177275a88.069294 88.069294 0 0 1-62.073763-59.364466c-2.572117 2.675002-7.990711-53.980167-21.468605-59.364466z" fill="#9A505E" p-id="3071"></path><path d="M726.191029 648.162228a79.667045 79.667045 0 0 0 62.039468 97.123147s64.748765 8.093596 83.645252-26.990083c0 0-67.458062 13.477894-102.54174-21.57149-2.675002 0.034295-40.467978-26.955789-43.14298-48.561574z m116.019635-226.620676s-51.27087 32.374382-13.477895 67.458061a198.498861 198.498861 0 0 1 16.187192-48.561573 11.454495 11.454495 0 0 0-2.743592-18.896488z" fill="#A04F5E" p-id="3072"></path><path d="M836.826365 445.822338s-13.477894 29.665086-8.093596 40.467978c0 0 8.093596 18.896488 13.477895 16.187192a54.666065 54.666065 0 0 1 2.709297-51.270871 45.543623 45.543623 0 0 0 0-45.852277 52.402602 52.402602 0 0 1-8.093596 40.467978z m26.990084 53.945873a32.442972 32.442972 0 0 0 10.802892-48.561574 66.737869 66.737869 0 0 1-10.837187 48.595869z m-137.591125 145.68472z m0 0a87.863525 87.863525 0 0 0 94.448145 72.842361c-83.679548-16.152896-94.48244-70.133064-94.48244-72.808066z" p-id="3073"></path><path d="M1012.107582 594.216356a296.273612 296.273612 0 0 1-10.802893-56.655169 132.275416 132.275416 0 0 0-121.403934-105.216743 48.012855 48.012855 0 0 0-43.177275-32.374382s-18.896488 2.709297-48.561573 40.467978c-5.384299 5.384299-5.384299-2.709297-5.384299-2.709297a16.701615 16.701615 0 0 0 5.384299-10.802893 253.336401 253.336401 0 0 0 35.083679-86.320254 141.397859 141.397859 0 0 0 26.990084-29.665086l10.802892-35.083679s-5.384299 0-10.802892 8.093595 18.896488-43.177275 10.802892-56.655169c0 0-32.374382 16.187191-35.083679 24.280787a405.022729 405.022729 0 0 0-18.896488-72.84236s0-35.083679 10.802892-40.467978c0 0-10.802892-13.477894-26.990083 10.802892 0 0-18.896488-18.896488 8.093595-70.133063 0 0 5.384299-10.802892-21.57149-2.709297a270.106606 270.106606 0 0 0-24.280787 26.990083 109.743669 109.743669 0 0 1-16.187191-29.665085 3.738144 3.738144 0 0 0-5.384298 0s-5.384299 8.093596-8.093596-8.093596c0 0-10.802892-18.896488-16.187191-18.896488 0 0 2.709297 13.477894 0 13.477895 0 0-2.709297 0-10.802893-5.384299A326.453121 326.453121 0 0 0 593.984202 14.083885s-13.477894-5.384299-18.896488-8.093595a8.367955 8.367955 0 0 0-5.384298 2.709296 71.196205 71.196205 0 0 1-18.896489-2.709296c-29.665086-13.477894-43.177275 0-43.177274 0-153.778316 0-202.33989 99.832444-202.33989 99.832444-16.187191 16.187191-2.709297 26.990084-2.709297 26.990083h24.280787c102.541741 64.748765 37.724386 126.891117 37.724386 126.891118l-10.802892-35.08368c-24.280787-24.280787-16.187191 0-16.187192 0a68.109665 68.109665 0 0 1-18.896488 62.039468 701.36493 701.36493 0 0 0-140.300422 59.364466c-16.187191-2.709297 8.093596-26.990084-10.802892-24.280786s-29.665086 51.27087-29.665086 51.27087a500.70549 500.70549 0 0 0-110.635336 137.591125c0-5.384299-2.709297-40.467978-2.709297-59.364466a176.310063 176.310063 0 0 0-8.093595 94.448145 349.533586 349.533586 0 0 0-13.477895 48.561574 26.887199 26.887199 0 0 1-2.709297 10.802892v35.083679a369.973344 369.973344 0 0 0 29.665086 161.871912s40.467978 126.891117 207.758484 196.955591a443.295833 443.295833 0 0 0 126.891117 24.280787h404.67978s56.655169 0 64.748764-29.665085c8.093596-32.374382-10.802892-64.748765-64.748764-56.655169 0 0-16.187191 2.709297 5.384298-13.477895a68.589793 68.589793 0 0 0 18.896488-51.27087s-8.093596-13.477894 18.896488-10.802893a160.260052 160.260052 0 0 0 29.665086-2.709296 106.314179 106.314179 0 0 0 70.133064-53.945873s18.896488-8.093596 29.665085 0c0 0 21.57149 10.802892 26.990084 2.709297a107.034372 107.034372 0 0 1 16.187191-10.802892s5.384299 2.709297 10.802892-37.724387a33.368934 33.368934 0 0 0-10.802892-24.280786s-5.384299-8.093596-8.093596-13.477895c0 0-13.477894-18.896488-59.364466-10.802892 0 0-24.280787 16.187191-29.665085 8.093595s8.093596-8.093596 8.093595-8.093595a184.19789 184.19789 0 0 0 75.448773-18.896488 42.011248 42.011248 0 0 0 37.724386-40.467978 43.0058 43.0058 0 0 0 2.709297-56.655169z m-232.039271-178.059103a262.287369 262.287369 0 0 1-143.009719 129.497529 334.443832 334.443832 0 0 0-59.364466 2.709297c35.083679 5.384299 26.990084 10.802892 26.990084 10.802893a341.199926 341.199926 0 0 0-102.541741 21.57149 477.59073 477.59073 0 0 0-153.778316-5.384299 314.415612 314.415612 0 0 0-172.674804 78.226659 475.464446 475.464446 0 0 1 180.7684-67.458062c118.728932-8.093596 126.891117 0 126.891117 0a219.041505 219.041505 0 0 0-72.84236 34.980795 445.593591 445.593591 0 0 1-102.541741 26.990083 586.442732 586.442732 0 0 0-83.645253 18.896488 113.173159 113.173159 0 0 0-83.645253 102.541741 127.268361 127.268361 0 0 1-24.280787-80.935956l-2.709296-2.709296a330.431329 330.431329 0 0 1 18.896488-45.852277c24.280787-56.655169 40.467978-59.364466 83.645252-86.320255s202.33989-56.655169 202.33989-56.655169c156.487613-18.896488 199.664888-75.448773 199.664888-75.448773a102.88469 102.88469 0 0 1 16.187191-13.477894h2.709297a353.443204 353.443204 0 0 0 164.615504-51.27087 213.657206 213.657206 0 0 1-21.605785 59.295876zM847.492078 254.148161a128.777337 128.777337 0 0 1-40.467978 75.448773 313.35247 313.35247 0 0 1-161.871912 70.133063l-5.384299 2.709297a107.583091 107.583091 0 0 1 18.896488-18.896488 251.004348 251.004348 0 0 0 143.009719-78.226659 377.655401 377.655401 0 0 1-137.591125 67.458062c8.093596-10.802892 13.477894-24.280787 21.57149-37.724387a262.561728 262.561728 0 0 1 75.448772-45.852276 119.689189 119.689189 0 0 1-29.665085 35.083679 134.881828 134.881828 0 0 0 64.748765-40.467978c-2.572117-5.247119 29.83656-29.665086 51.305165-29.665086z m-97.123147-99.832444a110.532452 110.532452 0 0 1 29.665085-67.458061 9.465391 9.465391 0 0 1 0 16.187191 167.39339 167.39339 0 0 0-2.709297 62.039468l-26.990083 62.039468a264.550832 264.550832 0 0 1 0.137179-72.670886zM348.467038 251.576044c35.083679 45.852277-21.57149 121.403934-21.57149 121.403934 97.123147-75.448773 75.448773-145.684721 75.448772-145.684721a96.540134 96.540134 0 0 0-56.655169-91.738848c-29.665086-5.384299-24.280787-16.187191-24.280787-16.187191 80.935956-91.738848 156.487613-75.448773 156.487613-75.448773 0-13.477894-56.655169-5.384299-56.655169-5.384299 18.896488-26.990084 83.645253-21.57149 83.645253-21.57149a330.637098 330.637098 0 0 1 35.083679 13.477895l-10.802892-21.57149a131.520928 131.520928 0 0 1 18.896488 8.093595 26.887199 26.887199 0 0 0 10.802892 2.709297c8.093596 0 18.896488 2.709297 35.083679 2.709297 0 0 16.187191 2.709297 29.665086 29.665086a121.369639 121.369639 0 0 0-5.384299-21.57149 87.074742 87.074742 0 0 1 26.990084 24.280787s2.709297-2.709297 0-13.477895a133.750097 133.750097 0 0 1 48.561573 37.724386s2.709297 2.709297 2.709297-5.384298c0 0 2.709297-16.187191 8.093596 0 0 0-2.709297 16.187191 2.709297 13.477894a20.576938 20.576938 0 0 0 5.384298-13.477894s5.384299-2.709297 5.384299 5.384298a7.476287 7.476287 0 0 0 10.802893 0 36.764129 36.764129 0 0 1 8.093595 16.187192 67.149408 67.149408 0 0 0 8.093596 18.896488 137.7626 137.7626 0 0 0-8.093596 56.655169 292.261109 292.261109 0 0 1-10.802892 89.166731A96.02571 96.02571 0 0 0 772.043305 189.536576s18.896488-48.561574 21.57149-18.896488a46.709649 46.709649 0 0 0 0 29.665086s-8.093596 32.374382-16.187191 37.724386a92.596221 92.596221 0 0 0 24.280787-24.280787s8.093596 26.990084-5.384299 35.083679a276.725521 276.725521 0 0 1-72.84236 32.374383 92.596221 92.596221 0 0 0-32.374383 29.665085l-5.384298 8.093596a517.852939 517.852939 0 0 0 21.57149-64.817355 68.932742 68.932742 0 0 0 18.896488-32.374382c-5.384299 0-16.187191 13.477894-16.187192 13.477894-10.802892 10.802892-5.384299-18.896488-5.384298-18.896488a146.679273 146.679273 0 0 0 10.802892-21.57149c0-10.802892-10.802892 2.709297-10.802892 2.709297-10.802892 5.384299-5.384299-13.477894-5.384299-13.477894 8.093596-16.187191 2.709297-21.57149 2.709297-21.57149-5.384299 0-13.477894 24.280787-13.477895 24.280787-2.709297 16.187191-16.187191-16.187191-16.187191-16.187192-13.477894-10.802892-10.802892-37.724386-10.802892-37.724386-2.709297-16.187191-5.384299 0-5.384299 0-2.709297 18.896488-5.384299 8.093596-5.384299 8.093596a111.321234 111.321234 0 0 0-2.709297-24.280787v21.57149c-5.384299 8.093596-10.802892-10.802892-10.802892-10.802892-2.709297-18.896488-8.093596-16.187191-8.093596-16.187192-2.709297 10.802892 2.709297 16.187191 0 18.896488s-10.802892-8.093596-10.802892-18.896488-8.093596-5.384299-8.093596-5.384298c0 18.896488-5.384299 10.802892-5.384298 10.802892-140.334717-62.005173-199.733478-13.37501-199.733478-13.37501 129.49753-53.945872 245.517165 72.84236 245.517165 72.842361a115.608096 115.608096 0 0 0-51.270871-2.709297 74.52281 74.52281 0 0 1-59.364466 5.384299c13.477894 16.187191 67.458062 8.093596 67.458062 8.093595a51.442345 51.442345 0 0 1 40.467978 2.709297c24.280787 21.57149-5.384299 21.57149-5.384299 21.57149 26.990084 10.802892 35.083679 51.27087 35.083679 51.27087-8.093596 110.635336-124.113231 167.290506-124.113231 167.290506 56.655169-86.320255 21.57149-137.591125 21.57149-137.591125-18.896488-43.177275-97.123147-62.039468-97.123147-62.039468 78.226659 35.083679 83.645253 80.935956 83.645253 80.935956a172.29756 172.29756 0 0 1-37.724386 129.497529l-26.990084 10.802893a117.562906 117.562906 0 0 0 16.187191-67.458062 138.962921 138.962921 0 0 1-67.458061 83.645253 97.054557 97.054557 0 0 0 16.187191-56.655169c-5.384299 26.990084-48.561574 59.364466-48.561574 59.364466-18.896488 24.280787-143.009719 53.945872-153.778316 53.945872a198.430272 198.430272 0 0 0-48.561574 16.187191c-29.665086-86.320255 86.320255-210.433485 86.320255-210.433485a137.865484 137.865484 0 0 0 51.270871-78.226659zM116.427767 421.541552c-13.477894 153.778316 37.724386 151.103314 37.724387 151.103314-59.364466-40.467978-5.384299-210.433485-5.384299-210.433486 16.187191-40.467978 18.896488 0 18.896488 0a148.874146 148.874146 0 0 0-16.187191 89.166732 137.179586 137.179586 0 0 1 113.173158-121.403934 383.416944 383.416944 0 0 0-67.286587 215.680604h2.709297a15.775652 15.775652 0 0 0-10.802892 2.709297 266.780001 266.780001 0 0 1 0-137.591125c-37.724386 40.467978-16.187191 164.615504-16.187192 164.615504-2.709297 8.093596-13.477894 2.709297-13.477894 2.709297-10.802892 0-29.665086 40.467978-29.665085 40.467977-5.384299 0-13.477894-18.896488-13.477895-18.896488-5.384299 13.477894 0 18.896488 0 18.896488 5.384299 32.374382 2.709297 26.990084 2.709297 26.990084-5.384299 2.709297-10.802892-16.187191-10.802892-16.187191a41.59971 41.59971 0 0 0 2.709296 35.083679l-2.709296 16.187191A554.960017 554.960017 0 0 1 38.132518 542.97978a448.817312 448.817312 0 0 1 78.226659-121.403934zM24.688919 518.664699s-5.384299 35.083679 83.645253 178.059103a293.255661 293.255661 0 0 0 2.709296 48.561573 300.766243 300.766243 0 0 1-80.935955-167.290505 343.566274 343.566274 0 0 1-5.384299-59.364466z m984.777955 121.403934s-18.896488-21.57149-24.280786-10.802893l18.896488 16.187191a36.592655 36.592655 0 0 1-37.724387 35.08368s-13.477894 18.896488-56.655169 18.896488a81.3132 81.3132 0 0 0-35.083679 10.802892s-10.802892 8.093596-48.561573 5.384299a78.329544 78.329544 0 0 0 32.374382 5.384299s13.477894-2.709297 16.187191 2.709296c0 0 21.57149 8.093596 21.57149 10.802893s56.655169-32.374382 78.226659 0c0 0 5.384299 10.802892 10.802893 10.802892 0 0 2.709297 13.477894 0 16.187191s-10.802892-8.093596-10.802893 0c0 0 18.896488 2.709297 10.802893 24.280787a24.417966 24.417966 0 0 1-37.724387 5.384299s-29.665086 5.384299-37.724386 0c0 0-24.280787 78.226659-145.684721 56.655169a109.023476 109.023476 0 0 1-70.133063-80.935956s-29.665086-126.891117-148.394018-94.448145c0 0 75.448773-5.384299 110.635337 43.177275a164.066785 164.066785 0 0 1 43.177275 86.320255 94.996864 94.996864 0 0 0 67.458061 53.945872s35.083679 2.709297 10.802893 48.561573a123.461628 123.461628 0 0 1-43.314455 37.827271s-10.802892 5.384299-8.093595 13.477895c0 0-2.709297 16.187191 13.477894 2.709297 0 0 62.039468-35.083679 80.935956 13.477894 0 0 5.384299 10.802892 0 13.477894a9.568276 9.568276 0 0 1-8.093596-5.384298s-5.384299-13.477894-13.477894-10.802893a30.042329 30.042329 0 0 1 10.802892 32.374383s-13.477894 16.187191-18.896488 0c0 0 5.384299-29.665086-16.187191-24.280787 0 0 21.57149 16.187191 5.384299 32.374382a35.392333 35.392333 0 0 1-24.280787 2.709297s-8.093596-10.802892-48.561573 0H356.560633a382.559571 382.559571 0 0 1-291.506621-164.615504A455.641996 455.641996 0 0 1 13.783142 699.398804l40.467978 53.945872-34.9465-86.28596v-59.330171c0-10.802892 2.709297-21.57149 2.709297-26.990083a601.498191 601.498191 0 0 0 94.448145 186.152698 198.9104 198.9104 0 0 0 32.340088 70.270243c-21.57149 0-51.27087-29.665086-51.270871-29.665085a154.978638 154.978638 0 0 0 80.935956 64.748765 329.9512 329.9512 0 0 0 129.49753 67.458061 293.358545 293.358545 0 0 1-97.123147-53.945872 265.545384 265.545384 0 0 1-72.842361-100.038214 160.294347 160.294347 0 0 1 24.280787-59.364466c32.374382-48.561574 116.019635-62.039468 116.019635-62.039467a1047.091783 1047.091783 0 0 0 107.92604-13.477895c-13.477894 5.384299-32.374382 45.852277-32.374383 45.852277-2.709297 5.384299-24.280787 8.093596-24.280786 8.093596-94.448145 10.802892-113.173159 48.561574-113.173159 48.561573a189.10206 189.10206 0 0 1 45.852277-24.280787 330.637098 330.637098 0 0 1 75.448772-10.802892 257.623263 257.623263 0 0 0 10.802892 164.615504 216.057849 216.057849 0 0 1 13.477895-172.674805 267.500193 267.500193 0 0 1 156.281844-107.891744c35.083679-10.802892 121.403934-32.374382 121.403934-32.374383a203.162967 203.162967 0 0 0 89.166731-62.039468 133.750097 133.750097 0 0 1 53.945872-40.467978 27.435917 27.435917 0 0 0 13.477894 21.57149s10.802892 2.709297 5.384299-16.187191c0 0-10.802892-10.802892 5.384299-35.083679a88.343654 88.343654 0 0 1 32.374382-24.280787 77.575056 77.575056 0 0 1 26.990084 37.724386s102.541741 16.187191 116.019635 105.216743c0 0 2.709297 16.187191 2.709297 21.57149a54.494591 54.494591 0 0 0 10.802892 26.990084c5.452889-5.315709 21.64008 21.64008 13.546484 35.152269z" p-id="3074"></path></svg>
