<?xml version="1.0" standalone="no"?><!DOCTYPE svg PUBLIC "-//W3C//DTD SVG 1.1//EN" "http://www.w3.org/Graphics/SVG/1.1/DTD/svg11.dtd"><svg t="1571233055728" class="icon" viewBox="0 0 1024 1024" version="1.1" xmlns="http://www.w3.org/2000/svg" p-id="11419" xmlns:xlink="http://www.w3.org/1999/xlink" width="200" height="200"><defs><style type="text/css"></style></defs><path d="M798.40256 152.00256c-153.6-153.6-401.60256-153.6-555.20256 0s-153.6 401.60256 0 555.20256l276.80256 283.20256 276.80256-283.20256c153.59488-153.60512 153.59488-401.60256 1.59744-555.20256z m-40.00256 515.2l-238.40256 238.40256-236.8-238.40256c-131.2-131.2-131.2-344.00256 0-475.20256s344.00256-131.2 475.20256 0 131.2 344.00256 0 475.20256z m-68.79744-222.40256h-153.6v-153.6c0-16-12.8-28.8-28.8-28.8s-28.8 12.8-28.8 28.8V473.6c0 16 12.8 28.8 28.8 28.8h182.4c16 0 28.8-12.8 28.8-28.8-3.2-17.59744-14.40256-28.8-28.8-28.8z" p-id="11420" fill="#ffffff"></path></svg>