<?xml version="1.0" standalone="no"?><!DOCTYPE svg PUBLIC "-//W3C//DTD SVG 1.1//EN" "http://www.w3.org/Graphics/SVG/1.1/DTD/svg11.dtd"><svg t="1571233154256" class="icon" viewBox="0 0 1024 1024" version="1.1" xmlns="http://www.w3.org/2000/svg" p-id="13409" xmlns:xlink="http://www.w3.org/1999/xlink" width="200" height="200"><defs><style type="text/css"></style></defs><path d="M402.186 138.976c64.351 0 122.15 26.063 164.096 68.33 42.004 41.739 68.24 99.919 68.24 164.358 0 64.087-26.236 122.032-68.24 163.948-41.945 42.121-99.745 67.979-164.096 67.979-64.116 0-122.324-25.857-164.504-67.979-41.945-41.916-67.802-99.861-67.802-163.948 0-64.438 25.856-122.619 67.802-164.358 42.179-42.267 100.387-68.33 164.504-68.33zM804.644 500.161c43.875 0 84.621 18.603 113.901 47.443 29.074 29.163 47.414 69.734 47.414 113.961 0 44.84-18.34 84.826-47.414 114.193-29.105 29.397-69.528 47.414-113.901 47.414-44.959 0-85.119-18.017-114.282-47.414l-1.286-1.522c-28.695-29.015-46.129-68.561-46.129-112.671 0-44.227 18.105-84.798 47.415-113.961l1.551-1.813c29.278-27.991 68.65-45.63 112.731-45.63zM476.073 657.266c37.617 0 72.191 15.678 96.936 40.716l0.409 0.235 0.469 0.584c24.307 24.891 39.575 58.939 39.575 96.76 0 37.617-15.473 72.072-40.044 96.966h-0.409l-0.468 0.79c-24.805 24.688-59.086 39.721-96.468 39.721-38.201 0-72.599-15.472-97.58-40.511l-0.644-0.584c-24.512-24.688-39.78-58.971-39.78-96.382 0-37.82 15.444-72.453 40.424-97.344v-0.235l0.703-0.351c24.803-24.923 59.085-40.365 96.877-40.365z" p-id="13410" fill="#ffffff"></path></svg>