<?xml version="1.0" encoding="UTF-8"?>
<svg width="73px" height="83px" viewBox="0 0 73 83" version="1.1" xmlns="http://www.w3.org/2000/svg" xmlns:xlink="http://www.w3.org/1999/xlink">
    <!-- Generator: Sketch 64 (93537) - https://sketch.com -->
    <title>直线 6备份</title>
    <desc>Created with Sketch.</desc>
    <g id="新手引导" stroke="none" stroke-width="1" fill="none" fill-rule="evenodd">
        <g id="画板" transform="translate(-472.000000, -111.000000)" fill="#FFFFFF" fill-rule="nonzero">
            <path d="M539.507151,190.983407 L540.194321,191.116812 C541.052671,191.283449 541.918947,191.441506 542.793152,191.590982 L544.110406,191.808762 L544.801644,191.919167 L544.580833,193.301644 L543.889594,193.191238 C542.997264,193.048714 542.112845,192.89749 541.236338,192.737565 L539.927512,192.491153 L539.240341,192.357748 L539.507151,190.983407 Z M531.777181,189.139755 L532.452723,189.323173 C533.295982,189.552128 534.147847,189.771772 535.008319,189.982103 L536.305483,190.290617 L536.987477,190.448363 L536.671984,191.812352 L535.98999,191.654605 C535.109506,191.450948 534.237625,191.237826 533.374348,191.015239 L532.085887,190.674258 L531.410345,190.49084 L531.777181,189.139755 Z M524.209889,186.690186 L524.867923,186.928914 C525.689748,187.227064 526.520882,187.515141 527.361327,187.793144 L528.628979,188.202592 L529.296581,188.413087 L528.875591,189.74829 L528.207989,189.537795 C527.345654,189.265901 526.492649,188.983742 525.648976,188.691318 L524.390467,188.244983 L523.732433,188.006255 L524.209889,186.690186 Z M516.90655,183.589355 L517.539791,183.887693 C518.430068,184.307129 519.332957,184.712909 520.24846,185.10503 L521.168169,185.492599 L521.814806,185.760668 L521.278669,187.053941 L520.632032,186.785873 C519.692887,186.396543 518.766427,185.993267 517.852656,185.576046 L516.943114,185.154175 L516.309873,184.855837 L516.90655,183.589355 Z M509.929202,179.785688 L510.529078,180.146449 C511.373578,180.654325 512.231387,181.147765 513.102508,181.626769 L513.978068,182.100961 L514.595701,182.430398 L513.936825,183.665665 L513.319192,183.336227 C512.423354,182.858398 511.54096,182.365811 510.672016,181.858466 L509.807556,181.346201 L509.20768,180.98544 L509.929202,179.785688 Z M503.422758,175.294765 L503.980565,175.717673 C504.767423,176.31424 505.568055,176.895827 506.382465,177.462435 L507.201469,178.02405 L507.781437,178.416017 L506.997503,179.575951 L506.417536,179.183984 C505.578195,178.616722 504.752834,178.034149 503.94146,177.436269 L503.134748,176.833287 L502.576941,176.410378 L503.422758,175.294765 Z M497.425862,170.099717 L497.93339,170.581812 C498.651425,171.263866 499.383407,171.930701 500.129341,172.582324 L500.879925,173.228875 L501.413446,173.682037 L500.507123,174.749079 L499.973602,174.295917 C499.203544,173.641846 498.447702,172.972255 497.706081,172.287148 L496.9692,171.596868 L496.461672,171.114773 L497.425862,170.099717 Z M492.035217,164.253633 L492.483739,164.79106 C492.834302,165.211113 493.19076,165.626357 493.559824,166.044554 C493.901174,166.431238 494.246261,166.813835 494.595086,167.192343 L495.121125,167.757041 L495.601,168.266669 L494.581744,169.226418 L494.10187,168.71679 C493.562741,168.144234 493.032205,167.562325 492.510198,166.970991 L491.9525,166.330329 L491.9525,166.330329 L491.408883,165.688103 L490.960362,165.150675 L492.035217,164.253633 Z M487.47744,157.801934 L487.848063,158.395768 C488.370126,159.232248 488.914564,160.055848 489.481386,160.866577 L490.055669,161.673016 L490.466632,162.23968 L489.333303,163.061608 L488.922339,162.494943 C488.32633,161.673126 487.75321,160.838055 487.202986,159.989741 L486.660395,159.137013 L486.289772,158.543179 L487.47744,157.801934 Z M483.849144,150.754474 L484.133288,151.39421 C484.535554,152.299897 484.960166,153.192643 485.407125,154.072462 L485.861535,154.947973 L486.189408,155.566438 L484.952477,156.222184 L484.624604,155.603719 C484.151339,154.711002 483.700998,153.805088 483.273585,152.88599 L482.853815,151.962497 L482.569672,151.322761 L483.849144,150.754474 Z M481.22467,143.30108 L481.421056,143.972968 C481.700462,144.928895 482.001382,145.872303 482.323814,146.803203 L482.653416,147.729935 L482.893452,148.387493 L481.578335,148.867564 L481.3383,148.210006 C480.99362,147.265784 480.67101,146.308924 480.370467,145.339436 L480.077281,144.365738 L479.880895,143.693851 L481.22467,143.30108 Z M479.557099,135.52257 L479.669931,136.213416 C479.831155,137.200549 480.012471,138.175956 480.213876,139.139646 L480.421977,140.09943 L480.575449,140.782398 L479.209511,141.089341 L479.056039,140.406372 C478.83668,139.430191 478.637879,138.442276 478.459633,137.442633 L478.288238,136.439081 L478.175406,135.748234 L479.557099,135.52257 Z M478.786781,127.678001 L478.825486,128.37693 C478.880978,129.378999 478.954872,130.370321 479.047165,131.350898 L479.14559,132.327894 L479.220349,133.02389 L477.828356,133.173408 L477.753597,132.477412 C477.647096,131.485899 477.559353,130.483694 477.490365,129.470799 L477.427627,128.454341 L477.388922,127.755411 L478.786781,127.678001 Z M478.777573,111.390537 L483.455433,122.764526 L478.711,122.415 L478.708469,122.551724 C478.704203,122.860278 478.701549,123.167891 478.700506,123.474564 L478.702212,124.391757 L478.707219,125.091739 L477.307255,125.101753 L477.302248,124.401771 C477.297818,123.782416 477.299936,123.159327 477.308601,122.532506 L477.312,122.312 L472.485098,121.957218 L478.777573,111.390537 Z" id="直线-6备份" transform="translate(508.643371, 152.346090) scale(-1, 1) translate(-508.643371, -152.346090) "></path>
        </g>
    </g>
</svg>