<?xml version="1.0" encoding="UTF-8"?>
<svg width="73px" height="83px" viewBox="0 0 73 83" version="1.1" xmlns="http://www.w3.org/2000/svg" xmlns:xlink="http://www.w3.org/1999/xlink">
    <!-- Generator: Sketch 64 (93537) - https://sketch.com -->
    <title>直线 6备份</title>
    <desc>Created with Sketch.</desc>
    <g id="新手引导" stroke="none" stroke-width="1" fill="none" fill-rule="evenodd">
        <g id="画板" transform="translate(-260.000000, -105.000000)" fill="#FFFFFF" fill-rule="nonzero">
            <path d="M327.507151,184.983407 L328.194321,185.116812 C329.052671,185.283449 329.918947,185.441506 330.793152,185.590982 L332.110406,185.808762 L332.801644,185.919167 L332.580833,187.301644 L331.889594,187.191238 C330.997264,187.048714 330.112845,186.89749 329.236338,186.737565 L327.927512,186.491153 L327.240341,186.357748 L327.507151,184.983407 Z M319.777181,183.139755 L320.452723,183.323173 C321.295982,183.552128 322.147847,183.771772 323.008319,183.982103 L324.305483,184.290617 L324.987477,184.448363 L324.671984,185.812352 L323.98999,185.654605 C323.109506,185.450948 322.237625,185.237826 321.374348,185.015239 L320.085887,184.674258 L319.410345,184.49084 L319.777181,183.139755 Z M312.209889,180.690186 L312.867923,180.928914 C313.689748,181.227064 314.520882,181.515141 315.361327,181.793144 L316.628979,182.202592 L317.296581,182.413087 L316.875591,183.74829 L316.207989,183.537795 C315.345654,183.265901 314.492649,182.983742 313.648976,182.691318 L312.390467,182.244983 L311.732433,182.006255 L312.209889,180.690186 Z M304.90655,177.589355 L305.539791,177.887693 C306.430068,178.307129 307.332957,178.712909 308.24846,179.10503 L309.168169,179.492599 L309.814806,179.760668 L309.278669,181.053941 L308.632032,180.785873 C307.692887,180.396543 306.766427,179.993267 305.852656,179.576046 L304.943114,179.154175 L304.309873,178.855837 L304.90655,177.589355 Z M297.929202,173.785688 L298.529078,174.146449 C299.373578,174.654325 300.231387,175.147765 301.102508,175.626769 L301.978068,176.100961 L302.595701,176.430398 L301.936825,177.665665 L301.319192,177.336227 C300.423354,176.858398 299.54096,176.365811 298.672016,175.858466 L297.807556,175.346201 L297.20768,174.98544 L297.929202,173.785688 Z M291.422758,169.294765 L291.980565,169.717673 C292.767423,170.31424 293.568055,170.895827 294.382465,171.462435 L295.201469,172.02405 L295.781437,172.416017 L294.997503,173.575951 L294.417536,173.183984 C293.578195,172.616722 292.752834,172.034149 291.94146,171.436269 L291.134748,170.833287 L290.576941,170.410378 L291.422758,169.294765 Z M285.425862,164.099717 L285.93339,164.581812 C286.651425,165.263866 287.383407,165.930701 288.129341,166.582324 L288.879925,167.228875 L289.413446,167.682037 L288.507123,168.749079 L287.973602,168.295917 C287.203544,167.641846 286.447702,166.972255 285.706081,166.287148 L284.9692,165.596868 L284.461672,165.114773 L285.425862,164.099717 Z M280.035217,158.253633 L280.483739,158.79106 C280.834302,159.211113 281.19076,159.626357 281.559824,160.044554 C281.901174,160.431238 282.246261,160.813835 282.595086,161.192343 L283.121125,161.757041 L283.601,162.266669 L282.581744,163.226418 L282.10187,162.71679 C281.562741,162.144234 281.032205,161.562325 280.510198,160.970991 L279.9525,160.330329 L279.9525,160.330329 L279.408883,159.688103 L278.960362,159.150675 L280.035217,158.253633 Z M275.47744,151.801934 L275.848063,152.395768 C276.370126,153.232248 276.914564,154.055848 277.481386,154.866577 L278.055669,155.673016 L278.466632,156.23968 L277.333303,157.061608 L276.922339,156.494943 C276.32633,155.673126 275.75321,154.838055 275.202986,153.989741 L274.660395,153.137013 L274.289772,152.543179 L275.47744,151.801934 Z M271.849144,144.754474 L272.133288,145.39421 C272.535554,146.299897 272.960166,147.192643 273.407125,148.072462 L273.861535,148.947973 L274.189408,149.566438 L272.952477,150.222184 L272.624604,149.603719 C272.151339,148.711002 271.700998,147.805088 271.273585,146.88599 L270.853815,145.962497 L270.569672,145.322761 L271.849144,144.754474 Z M269.22467,137.30108 L269.421056,137.972968 C269.700462,138.928895 270.001382,139.872303 270.323814,140.803203 L270.653416,141.729935 L270.893452,142.387493 L269.578335,142.867564 L269.3383,142.210006 C268.99362,141.265784 268.67101,140.308924 268.370467,139.339436 L268.077281,138.365738 L267.880895,137.693851 L269.22467,137.30108 Z M267.557099,129.52257 L267.669931,130.213416 C267.831155,131.200549 268.012471,132.175956 268.213876,133.139646 L268.421977,134.09943 L268.575449,134.782398 L267.209511,135.089341 L267.056039,134.406372 C266.83668,133.430191 266.637879,132.442276 266.459633,131.442633 L266.288238,130.439081 L266.175406,129.748234 L267.557099,129.52257 Z M266.786781,121.678001 L266.825486,122.37693 C266.880978,123.378999 266.954872,124.370321 267.047165,125.350898 L267.14559,126.327894 L267.220349,127.02389 L265.828356,127.173408 L265.753597,126.477412 C265.647096,125.485899 265.559353,124.483694 265.490365,123.470799 L265.427627,122.454341 L265.388922,121.755411 L266.786781,121.678001 Z M266.777573,105.390537 L271.455433,116.764526 L266.711,116.415 L266.708469,116.551724 C266.704203,116.860278 266.701549,117.167891 266.700506,117.474564 L266.702212,118.391757 L266.707219,119.091739 L265.307255,119.101753 L265.302248,118.401771 C265.297818,117.782416 265.299936,117.159327 265.308601,116.532506 L265.312,116.312 L260.485098,115.957218 L266.777573,105.390537 Z" id="直线-6备份" transform="translate(296.643371, 146.346090) scale(-1, 1) translate(-296.643371, -146.346090) "></path>
        </g>
    </g>
</svg>