<?xml version="1.0" standalone="no"?><!DOCTYPE svg PUBLIC "-//W3C//DTD SVG 1.1//EN" "http://www.w3.org/Graphics/SVG/1.1/DTD/svg11.dtd"><svg t="1629097042643" class="icon" viewBox="0 0 1024 1024" version="1.1" xmlns="http://www.w3.org/2000/svg" p-id="15536" xmlns:xlink="http://www.w3.org/1999/xlink" width="36" height="36"><defs><style type="text/css"></style></defs><path d="M888 792H200v-624A8 8 0 0 0 192 160h-56A8 8 0 0 0 128 168v688c0 4.416 3.584 8 8 8h752a8 8 0 0 0 8-8V800a8 8 0 0 0-8-8z m-582.208-154.24a8 8 0 0 0 11.328 0l138.24-137.6L583.04 628.48a8 8 0 0 0 11.328 0l275.392-275.264a8 8 0 0 0 0-11.328l-39.616-39.616a8 8 0 0 0-11.264 0L588.8 532.224 461.44 403.968a8 8 0 0 0-11.328 0L266.24 586.752a8 8 0 0 0 0 11.328l39.488 39.68z" p-id="15537"></path></svg>