<?xml version="1.0" standalone="no"?><!DOCTYPE svg PUBLIC "-//W3C//DTD SVG 1.1//EN" "http://www.w3.org/Graphics/SVG/1.1/DTD/svg11.dtd"><svg t="1643089757674" class="icon" viewBox="0 0 1024 1024" version="1.1" xmlns="http://www.w3.org/2000/svg" p-id="7827" xmlns:xlink="http://www.w3.org/1999/xlink" width="200" height="200"><defs><style type="text/css"></style></defs><path d="M856.44 195.75H691.38v-78.64h-59.24v78.64H412.52v-78.64h-59.25v78.64H188.21a31 31 0 0 0-31 31v649a31 31 0 0 0 31 31h668.23a31 31 0 0 0 31-31v-649a31 31 0 0 0-31-31zM828.2 847.52H216.45V255h136.82v42.55h59.24V255h219.63v42.55h59.24V255H828.2z" p-id="7828"></path><path d="M319.02 445.08h406.62v59.24H319.02zM319.02 632.08h406.62v59.24H319.02z" p-id="7829"></path></svg>