<?xml version="1.0" standalone="no"?><!DOCTYPE svg PUBLIC "-//W3C//DTD SVG 1.1//EN" "http://www.w3.org/Graphics/SVG/1.1/DTD/svg11.dtd"><svg t="1627354597984" class="icon" viewBox="0 0 1024 1024" version="1.1" xmlns="http://www.w3.org/2000/svg" p-id="727" xmlns:xlink="http://www.w3.org/1999/xlink" width="200" height="200"><defs><style type="text/css">@font-face { font-family: feedback-iconfont; src: url("//at.alicdn.com/t/font_1031158_1uhr8ri0pk5.eot?#iefix") format("embedded-opentype"), url("//at.alicdn.com/t/font_1031158_1uhr8ri0pk5.woff2") format("woff2"), url("//at.alicdn.com/t/font_1031158_1uhr8ri0pk5.woff") format("woff"), url("//at.alicdn.com/t/font_1031158_1uhr8ri0pk5.ttf") format("truetype"), url("//at.alicdn.com/t/font_1031158_1uhr8ri0pk5.svg#iconfont") format("svg"); }
</style></defs><path d="M512 512m-512 0a512 512 0 1 0 1024 0 512 512 0 1 0-1024 0Z" fill="#A6DBFF" p-id="728"></path><path d="M884.266667 625.152l6.954666 6.144c23.637333 22.698667 53.504 41.557333 76.373334 65.408 4.693333 4.949333 9.856 10.666667 15.061333 16.981333a507.904 507.904 0 0 1-61.056 105.6c-21.461333 13.482667-38.997333 30.421333-46.72 50.858667-66.773333-61.482667-97.493333 30.250667-114.133333 89.429333l-8.064 4.437334-13.482667 6.954666c-21.248-20.906667-21.248-58.410667-20.138667-89.088l0.725334-21.333333c0.426667-29.696 18.474667-64.853333-24.490667-67.285333-32.128-1.792-63.317333 11.306667-92.288 23.594666-36.138667 15.36-74.069333 38.272-103.253333 64.597334L469.333333 857.728c49.92-28.117333 75.946667-81.834667 105.130667-131.072l12.117333-19.498667c6.229333-10.026667 12.373333-20.394667 16.426667-30.549333 4.693333-11.733333 8.021333-35.413333 13.141333-45.824 7.68-15.445333 78.208-20.352 103.978667-24.405333l21.205333-3.882667c48.64-8.362667 102.741333-10.154667 142.933334 22.613333zM372.010667 682.666667c-2.346667 27.690667 5.717333 53.418667 5.546666 81.92v14.890666c0.170667 7.424 0.938667 14.762667 3.413334 21.930667 3.626667 10.752 1.066667 30.037333 3.029333 41.301333l-16.341333-4.352c-35.669333-8.832-86.869333-17.749333-116.906667-6.613333-32.469333 12.032-37.461333 66.346667-38.826667 95.189333-16.810667-12.245333-32.853333-25.429333-48.042666-39.509333l8.618666-12.928 4.778667-7.936c8.832-15.616 12.928-29.098667 1.92-31.146667-8.192-1.578667-21.589333 14.890667-34.048 33.706667a498.816 498.816 0 0 1-21.205333-23.04c5.973333-6.229333 11.861333-12.501333 17.066666-19.328 19.456-25.216 38.4-55.338667 61.44-77.738667 40.533333-39.338667 111.232-66.133333 169.557334-66.346666z" fill="#2E92F7" p-id="729"></path><path d="M498.176 130.133333c14.677333 2.389333 20.864 7.978667 33.28 14.250667 8.96 4.522667 18.048 6.570667 27.477333 8.96l19.114667 5.376c7.637333 2.346667 14.378667 5.333333 19.968 12.544 6.144 7.978667 3.626667 21.418667 9.856 28.288 6.186667 6.826667 18.346667 5.802667 25.642667 13.866667 4.266667 4.650667 7.424 11.093333 10.112 17.578666l9.728 25.856c2.005333 4.864 4.266667 8.96 9.258666 14.933334 7.594667 9.045333 18.517333 16.298667 24.832 26.624 14.933333 24.32 15.274667 59.562667 10.538667 86.954666-1.621333 9.301333-15.104 33.408-12.970667 41.386667 2.005333 7.509333 14.634667 5.546667 20.352 10.325333 4.949333 4.096 9.301333 22.485333 13.226667 23.637334 8.405333 2.432 18.773333-14.293333 25.173333-16.768l7.253334-2.986667c6.229333-2.304 9.984-1.706667 14.592 10.581333 2.858667 7.594667 1.450667 16.896-0.853334 25.6l-8.149333 27.861334c-3.584 11.221333-8.277333 22.613333-16.298667 30.592-13.226667 13.141333-23.850667 5.973333-38.442666 13.013333-21.888 10.666667-15.445333 43.818667-42.368 53.290667-25.685333 9.002667-53.973333-19.413333-73.386667-32.426667 4.053333 31.658667 19.2 62.250667 11.946667 94.72 59.008-23.168 117.376-56.106667 181.717333-63.36l19.712-2.133333c26.24-2.56 52.437333-3.2 77.226667 7.68 36.224 16.042667 58.453333 51.285333 82.944 80.597333l17.92 21.12c-6.144 14.634667-12.928 28.928-20.352 42.837333l11.648 13.056c-24.405333-25.6-43.648-55.68-68.096-80.810666-42.24-43.434667-114.474667-36.693333-172.8-26.026667l-24.064 4.693333-10.026667 1.706667c-25.258667 3.968-70.826667 9.6-79.402667 22.613333-6.229333 9.472-2.730667 32.469333-7.338666 43.989334-6.314667 15.914667-17.152 30.634667-25.813334 45.269333l-12.757333 21.376c-27.904 46.08-58.368 90.112-105.301333 116.650667l27.008 21.248a366.165333 366.165333 0 0 1 99.2-63.018667c32.042667-13.994667 71.893333-29.568 107.562666-27.136 42.410667 2.858667 27.434667 35.712 25.856 65.28l-0.128 4.224c-0.128 18.474667-3.84 40.618667-3.328 61.312-23.893333 11.093333-48.896 20.352-74.666666 27.648-13.226667-1.706667-26.197333-1.706667-36.992 0.554667l4.949333 1.109333c3.114667 0.853333 6.954667 2.133333 11.008 3.754667-26.965333 6.442667-54.784 10.709333-83.242667 12.629333-8.576-13.824-3.029333-35.584 12.544-47.146667 23.68-17.621333 73.813333-10.410667 102.4-6.442666 5.973333 0.853333 22.016 8.533333 28.032 3.626666 3.712-2.986667 1.109333-28.458667 1.28-32.938666 0.384-10.24 2.858667-22.357333 1.237334-32.512l-0.853334-6.869334-0.298666-6.186666c-0.170667-1.024-1.194667 1.493333-7.338667 1.92h-2.986667c-36.266667-1.408-82.432 30.378667-114.346666 45.312l-22.954667 10.197333c-20.565333 9.173333-33.664 17.536-35.797333 43.776l-0.256 6.954667a255.445333 255.445333 0 0 1-1.152 21.461333 500.053333 500.053333 0 0 1-46.890667-2.56l4.778667-21.76c2.389333-12.032 3.882667-24.192 0.554666-29.696-6.954667-11.349333-30.165333-12.074667-41.386666-14.805333a779.093333 779.093333 0 0 0-63.744-13.013334 403.328 403.328 0 0 0-44.16-4.096l-14.933334-0.682666-15.232-1.237334c-8.917333-0.554667-12.8 1.024-16.085333 14.250667l-2.474667 11.52c-11.904-6.528-23.466667-13.482667-34.816-20.864 3.072-28.288 10.624-58.026667 30.506667-66.048 33.450667-13.525333 93.610667-0.768 126.293333 9.258667-4.053333-25.6-16.938667-42.368-16.768-70.826667 0.213333-29.824 8.405333-56.405333 10.666667-85.461333-55.637333 0.256-123.477333 28.288-162.133333 69.205333-20.48 21.717333-37.376 50.816-54.698667 75.178667l-7.424 10.410666A515.2 515.2 0 0 1 128 856.490667l3.712-6.912 19.626667-34.176c8.064-13.994667 16.512-27.818667 26.709333-40.106667l11.221333-13.397333 11.52-13.226667c21.589333-23.722667 45.824-44.373333 78.848-50.090667 22.101333-3.84 45.568-1.792 66.730667-9.429333 25.6-9.258667 49.92-23.850667 75.818667-33.408l-7.68-17.92c-4.053333-9.002667-8.96-16.938667-16.384-17.792-11.989333-1.408-29.568 8.96-43.264 8.832a245.248 245.248 0 0 1-45.098667-4.949333l-20.266667-3.882667c-14.677333-2.858667-20.736-5.376-27.349333-25.045333-8.192-24.405333-6.101333-52.736-6.058667-78.08 0-12.373333 2.474667-27.733333 1.450667-39.850667-1.109333-12.8-3.2-17.024-9.216-22.357333l-16.64-13.653334c-16.042667-13.781333-30.933333-31.402667-11.605333-53.717333 11.818667-13.653333 36.138667-2.986667 46.634666-17.706667 10.666667-14.933333 10.154667-52.48 13.397334-70.016-32.896 16.213333-20.821333-44.458667-20.821334-59.050666 0-21.205333-14.208-59.392 6.229334-77.056 9.472-8.192 16.512-1.408 27.392-6.144 12.373333-5.376 20.138667-19.498667 33.322666-24.96 26.197333-10.88 52.906667 2.218667 79.786667 0.085333l26.325333-2.432c21.888-2.005333 43.690667-3.413333 65.834667 0.128zM840.533333 897.152l-4.437333 3.84c-15.36 13.056-31.488 25.173333-48.341333 36.352 13.312-24.106667 30.464-41.728 52.778666-40.192z m-647.125333-22.613333c11.690667 2.346667 7.253333 20.906667-1.28 40.874666a471.04 471.04 0 0 1-23.68-19.413333l6.314667-8.149333c7.253333-8.746667 13.909333-14.293333 18.645333-13.354667zM308.906667 245.888c4.181333 21.76-3.84 43.349333-3.968 65.109333 23.04-6.272 38.954667-6.4 61.781333 4.736l4.266667 2.474667c14.506667 9.002667 45.269333 34.474667 26.752 47.445333a255.146667 255.146667 0 0 0-53.461334-24.448c-7.381333-2.304-16.64-5.461333-24.448-5.632-18.218667-0.341333-15.658667 1.578667-22.485333 15.36-6.613333 13.226667-5.205333 47.872-19.669333 56.362667-14.976 8.789333-3.413333-3.498667-16.213334-0.682667-7.296 1.621333-15.232 7.082667-21.930666 10.154667 9.173333 9.941333 27.605333 19.029333 33.706666 30.08 8.832 16.128 5.76 49.493333 7.125334 67.157333 11.605333-4.181333 23.808-4.352 35.541333-7.424 11.050667-2.901333 26.368-15.488 27.52 2.986667 1.28 20.650667-31.232 26.112-45.824 26.112l-17.408-1.621333c0.853333 12.245333-1.706667 32.085333 6.912 38.485333 6.528 4.864 19.754667 3.285333 27.648 4.821333 25.941333 5.12 56.021333 9.344 81.792 0.085334 9.984-3.626667 3.541333-9.258667 17.322667-6.912 15.104 2.56 11.477333 4.992 14.293333 13.226666l1.066667 2.602667c3.669333 8.021333 5.546667 21.674667 9.770666 31.317333l4.352 9.856c5.546667 12.8 11.52 29.354667 7.765334 40.917334-4.693333 14.464-22.357333 18.816-29.866667 35.2-5.546667 12.16-4.224 29.866667-7.125333 43.264l-6.101334 26.837333c-1.962667 8.96-3.712 17.92-4.778666 27.050667-2.730667 22.954667-1.792 49.877333 26.538666 53.418666 26.282667 3.285333 45.098667-5.162667 62.72-24.405333 30.634667-33.28 65.194667-79.146667 86.101334-121.856l5.845333-12.714667c2.304-5.376 7.978667-14.378667 7.210667-20.138666-1.408-10.154667-2.133333-2.133333-4.778667-5.802667l-1.109333-1.962667c-3.413333-7.594667-8.832-14.506667-11.989334-22.869333a443.989333 443.989333 0 0 1-24.106666-93.866667 259.2 259.2 0 0 1-2.432-43.434666c0.128-4.992 3.114667-20.010667 1.322666-23.424-1.792-3.456-11.306667-5.034667-14.250666-8.533334-5.461333-6.357333-14.890667-24.32-20.906667-29.098666-7.509333-5.888-24.192-1.237333-27.221333-12.885334-4.864-18.688 109.909333-49.066667 56.32-73.984-40.064-18.602667-101.461333 75.392-115.456 1.450667-2.432-12.8 2.218667-30.208-3.413334-41.984-6.186667-12.970667-23.04-17.834667-34.816-24.149333a1003.946667 1003.946667 0 0 1-44.8-25.130667c-10.026667-6.058667-24.448-22.101333-35.114666-23.552z m18.218666 154.709333c-17.109333 7.68-14.976-41.301333-13.781333-49.621333 20.992-5.418667 26.026667 44.16 13.781333 49.621333z" fill="#000000" p-id="730"></path></svg>