<?xml version="1.0" standalone="no"?><!DOCTYPE svg PUBLIC "-//W3C//DTD SVG 1.1//EN" "http://www.w3.org/Graphics/SVG/1.1/DTD/svg11.dtd"><svg t="1629098725217" class="icon" viewBox="0 0 1024 1024" version="1.1" xmlns="http://www.w3.org/2000/svg" p-id="16958" xmlns:xlink="http://www.w3.org/1999/xlink" width="36" height="36"><defs><style type="text/css"></style></defs><path d="M928 128a32 32 0 0 1 31.488 26.24L960 160v496a32 32 0 0 1-26.24 31.488l-5.76 0.512H547.968v112h172.032c7.552 0 13.888 5.312 15.552 12.352l0.448 3.648v48a8 8 0 0 1-5.504 7.616l-2.496 0.384h-432a8 8 0 0 1-7.616-5.504L288 864v-48c0-7.552 5.312-13.888 12.352-15.552l3.648-0.448h172.032v-112H96a32 32 0 0 1-31.488-26.24L64 656V160a32 32 0 0 1 26.24-31.488L96 128h832z m-40 72H136v416h752v-416z m-507.52 53.888a30.208 30.208 0 0 1 20.48 48.128L324.032 404.736l77.056 102.72a30.208 30.208 0 0 1-48.32 36.224L262.016 422.848a30.208 30.208 0 0 1 0-36.224l90.688-120.832a30.208 30.208 0 0 1 27.776-11.904z m266.752 0c8.96-1.088 17.792 1.92 24.256 7.936l3.52 3.968 90.624 120.832a30.208 30.208 0 0 1 3.008 31.36l-3.008 4.864-90.624 120.832a30.208 30.208 0 0 1-51.2-31.616l2.88-4.608 77.056-102.72-77.056-102.72a30.208 30.208 0 0 1 20.544-48.128z m-89.6-29.184a30.208 30.208 0 0 1 23.04 35.52l-60.416 271.936a30.208 30.208 0 0 1-59.008-13.12l60.416-271.936c3.84-16 19.84-25.984 35.968-22.4z" p-id="16959"></path></svg>