<?xml version="1.0" standalone="no"?><!DOCTYPE svg PUBLIC "-//W3C//DTD SVG 1.1//EN" "http://www.w3.org/Graphics/SVG/1.1/DTD/svg11.dtd"><svg t="1629098349488" class="icon" viewBox="0 0 1024 1024" version="1.1" xmlns="http://www.w3.org/2000/svg" p-id="16390" xmlns:xlink="http://www.w3.org/1999/xlink" width="36" height="36"><defs><style type="text/css"></style></defs><path d="M563.84 512l262.4-312.96a7.936 7.936 0 0 0-6.016-13.056h-79.808a16.32 16.32 0 0 0-12.288 5.76L511.616 449.728 295.04 191.68a16 16 0 0 0-12.288-5.696H203.008a7.936 7.936 0 0 0-6.08 13.12L459.392 512l-262.464 312.96a7.936 7.936 0 0 0 6.08 13.056h79.808a16.32 16.32 0 0 0 12.288-5.76l216.512-258.048 216.512 258.112a16 16 0 0 0 12.288 5.696h79.808a7.936 7.936 0 0 0 6.08-13.12L563.776 512z" p-id="16391"></path></svg>