<?xml version="1.0" standalone="no"?><!DOCTYPE svg PUBLIC "-//W3C//DTD SVG 1.1//EN" "http://www.w3.org/Graphics/SVG/1.1/DTD/svg11.dtd"><svg t="1629094310615" class="icon" viewBox="0 0 1024 1024" version="1.1" xmlns="http://www.w3.org/2000/svg" p-id="14113" xmlns:xlink="http://www.w3.org/1999/xlink" width="36" height="36"><defs><style type="text/css"></style></defs><path d="M438.4 849.066667l222.72-646.656c0.170667-0.512 0.298667-1.109333 0.384-1.621334l-223.104 648.32z m222.805333-680.362667h-67.498666a8.106667 8.106667 0 0 0-7.594667 5.376L354.688 845.994667a8.021333 8.021333 0 0 0 7.594667 10.581333h67.84a8.106667 8.106667 0 0 0 7.594666-5.376l0.682667-2.133333 223.104-648.277334 7.381333-21.376a8.106667 8.106667 0 0 0-7.68-10.666666v-0.042667z m293.376 333.397333a17.237333 17.237333 0 0 0-2.688-2.688L732.885333 328.106667a7.978667 7.978667 0 0 0-12.885333 6.272v81.322666c0 2.517333 1.109333 4.778667 3.114667 6.314667L838.101333 512l-114.986666 90.026667a8.064 8.064 0 0 0-3.114667 6.272v81.322666a8.021333 8.021333 0 0 0 12.885333 6.272l219.008-171.306666a16.042667 16.042667 0 0 0 2.688-22.485334zM291.114667 328.106667L72.106667 499.413333a16.128 16.128 0 0 0 0 25.173334l219.008 171.306666c1.365333 1.109333 3.072 1.706667 4.864 1.706667a8.021333 8.021333 0 0 0 8.021333-8.021333v-81.28a7.765333 7.765333 0 0 0-3.114667-6.314667L185.898667 512l114.986666-90.026667a8.064 8.064 0 0 0 3.114667-6.272V334.421333a7.978667 7.978667 0 0 0-12.885333-6.314666z" p-id="14114"></path></svg>