<?xml version="1.0" standalone="no"?><!DOCTYPE svg PUBLIC "-//W3C//DTD SVG 1.1//EN" "http://www.w3.org/Graphics/SVG/1.1/DTD/svg11.dtd"><svg t="1629100128872" class="icon" viewBox="0 0 1024 1024" version="1.1" xmlns="http://www.w3.org/2000/svg" p-id="17242" xmlns:xlink="http://www.w3.org/1999/xlink" width="36" height="36"><defs><style type="text/css"></style></defs><path d="M824.192 699.904a301.568 301.568 0 0 0-86.4-60.416 199.552 199.552 0 0 0 74.24-155.477333c0-110.805333-92.416-201.728-203.221333-200.021334a200.106667 200.106667 0 0 0-122.794667 355.498667 300.970667 300.970667 0 0 0-86.4 60.416 298.069333 298.069333 0 0 0-87.637333 203.904 8.021333 8.021333 0 0 0 8.021333 8.192h56.021333c4.266667 0 7.893333-3.413333 7.978667-7.68a226.048 226.048 0 0 1 66.688-153.514667 226.602667 226.602667 0 0 1 161.28-66.816c60.928 0 118.229333 23.722667 161.322667 66.816a226.944 226.944 0 0 1 66.730666 153.514667c0.085333 4.266667 3.669333 7.68 7.978667 7.68h56.021333c4.48 0 8.106667-3.712 7.978667-8.192a297.386667 297.386667 0 0 0-87.808-203.946667z m-212.181333-87.893333a126.890667 126.890667 0 0 1-90.496-37.546667 126.848 126.848 0 0 1-37.546667-91.733333 128.170667 128.170667 0 0 1 126.72-126.72 128.725333 128.725333 0 0 1 91.008 36.608c24.789333 24.32 38.4 56.746667 38.4 91.392 0 34.176-13.312 66.304-37.504 90.453333a127.317333 127.317333 0 0 1-90.581333 37.546667z m-250.496-101.589334a254.506667 254.506667 0 0 1 2.901333-72.917333 8.064 8.064 0 0 0-4.522667-8.789333 126.336 126.336 0 0 1-36.906666-25.130667 127.573333 127.573333 0 0 1-38.698667-95.402667 127.36 127.36 0 0 1 36.309333-85.589333 127.317333 127.317333 0 0 1 93.184-38.698667 127.829333 127.829333 0 0 1 106.410667 58.794667 7.978667 7.978667 0 0 0 9.301333 3.2 248.106667 248.106667 0 0 1 55.296-12.373333 8.021333 8.021333 0 0 0 6.314667-11.605334 200.362667 200.362667 0 0 0-175.701333-109.909333c-110.933333-1.706667-203.306667 89.173333-203.306667 199.893333 0 62.805333 28.885333 118.826667 74.24 155.52a300.629333 300.629333 0 0 0-86.528 60.373334 297.429333 297.429333 0 0 0-87.808 204.032 8.021333 8.021333 0 0 0 8.021333 8.192h56.064c4.309333 0 7.936-3.413333 8.021334-7.68a226.048 226.048 0 0 1 66.688-153.514667 225.749333 225.749333 0 0 1 104.704-59.733333 7.978667 7.978667 0 0 0 5.973333-8.704z" p-id="17243"></path></svg>