<?xml version="1.0" encoding="UTF-8"?>
<svg width="16px" height="14px" viewBox="0 0 16 14" version="1.1" xmlns="http://www.w3.org/2000/svg" xmlns:xlink="http://www.w3.org/1999/xlink">
    <!-- Generator: Sketch 64 (93537) - https://sketch.com -->
    <title>组织群组</title>
    <desc>Created with Sketch.</desc>
    <g id="工作空间项目-开发中心-具体工作流" stroke="none" stroke-width="1" fill="none" fill-rule="evenodd" opacity="0.65">
        <g id="工作空间项目-开发中心-具体工作流-开发建议1" transform="translate(-496.000000, -256.000000)" fill="#000000" fill-rule="nonzero">
            <g id="编组-21" transform="translate(0.000000, 239.000000)">
                <g id="组织群组" transform="translate(496.000000, 16.000000)">
                    <rect id="矩形" opacity="0" x="0" y="0" width="16" height="16"></rect>
                    <path d="M15,11 L14.006,11 L14.006,8.3845 C14.006,8.10835763 13.7821424,7.8845 13.506,7.8845 L8.5,7.8845 L8.5,6.5 L11,6.5 C11.2761424,6.5 11.5,6.27614237 11.5,6 L11.5,1.5 C11.5,1.22385763 11.2761424,1 11,1 L5,1 C4.72385763,1 4.5,1.22385763 4.5,1.5 L4.5,6 C4.5,6.27614237 4.72385763,6.5 5,6.5 L7.5,6.5 L7.5,7.8845 L2.531,7.8845 C2.25505277,7.88449986 2.03127595,8.10805291 2.031,8.384 L2.028,11 L1,11 C0.723857625,11 0.5,11.2238576 0.5,11.5 L0.5,14.5 C0.5,14.7761424 0.723857625,15 1,15 L4,15 C4.27614237,15 4.5,14.7761424 4.5,14.5 L4.5,11.5 C4.5,11.2238576 4.27614237,11 4,11 L3.028,11 L3.0305,8.8845 L7.5,8.8845 L7.5,11 L6.5,11 C6.22385763,11 6,11.2238576 6,11.5 L6,14.5 C6,14.7761424 6.22385763,15 6.5,15 L9.5,15 C9.77614237,15 10,14.7761424 10,14.5 L10,11.5 C10,11.2238576 9.77614237,11 9.5,11 L8.5,11 L8.5,8.8845 L13.006,8.8845 L13.006,11 L12,11 C11.7238576,11 11.5,11.2238576 11.5,11.5 L11.5,14.5 C11.5,14.7761424 11.7238576,15 12,15 L15,15 C15.2761424,15 15.5,14.7761424 15.5,14.5 L15.5,11.5 C15.5,11.2238576 15.2761424,11 15,11 Z M5.5,2 L10.5,2 L10.5,5.5 L5.5,5.5 L5.5,2 Z M3.5,14 L1.5,14 L1.5,12 L3.5,12 L3.5,14 Z M9,14 L7,14 L7,12 L9,12 L9,14 Z M14.5,14 L12.5,14 L12.5,12 L14.5,12 L14.5,14 Z" id="形状"></path>
                </g>
            </g>
        </g>
    </g>
</svg>