<?xml version="1.0" standalone="no"?><!DOCTYPE svg PUBLIC "-//W3C//DTD SVG 1.1//EN" "http://www.w3.org/Graphics/SVG/1.1/DTD/svg11.dtd"><svg t="1629102964079" class="icon" viewBox="0 0 1024 1024" version="1.1" xmlns="http://www.w3.org/2000/svg" p-id="18237" xmlns:xlink="http://www.w3.org/1999/xlink" width="36" height="36"><defs><style type="text/css"></style></defs><path d="M628.032 628.032a32 32 0 0 1 45.248 0L832 786.688v-93.376l0.32-4.352a32 32 0 0 1 63.68 4.352v181.376l-0.32 3.84a21.312 21.312 0 0 1-20.992 17.472h-181.376l-4.352-0.32a32 32 0 0 1-27.648-31.68l0.32-4.352a32 32 0 0 1 31.68-27.648h93.44l-158.72-158.72-3.072-3.584a32 32 0 0 1 3.072-41.6z m-232.064 0a32 32 0 0 1 3.072 41.664l-3.072 3.584L237.248 832h93.44a32 32 0 0 1 31.68 27.648l0.32 4.352a32 32 0 0 1-27.648 31.68L330.688 896H149.312a21.312 21.312 0 0 1-20.992-17.472L128 874.688v-181.376a32 32 0 0 1 63.68-4.352l0.32 4.352v93.376l158.72-158.656a32 32 0 0 1 45.248 0zM874.688 128c10.24 0 19.136 7.36 20.992 17.472l0.32 3.84v181.376a32 32 0 0 1-63.68 4.352L832 330.688V237.312l-158.72 158.656a32 32 0 0 1-48.32-41.664l3.072-3.584L786.752 192h-93.44a32 32 0 0 1-31.68-27.648l-0.32-4.352a32 32 0 0 1 27.648-31.68L693.312 128h181.376z m-544 0l4.352 0.32a32 32 0 0 1 27.648 31.68l-0.32 4.352A32 32 0 0 1 330.688 192h-93.44l158.72 158.72 3.072 3.584a32 32 0 0 1-48.32 41.6L192 237.376v93.376l-0.32 4.352A32 32 0 0 1 128 330.688V149.312l0.32-3.84A21.312 21.312 0 0 1 149.312 128h181.376z" p-id="18238"></path></svg>