<?xml version="1.0" standalone="no"?><!DOCTYPE svg PUBLIC "-//W3C//DTD SVG 1.1//EN" "http://www.w3.org/Graphics/SVG/1.1/DTD/svg11.dtd"><svg t="1639707477971" class="icon" viewBox="0 0 1024 1024" version="1.1" xmlns="http://www.w3.org/2000/svg" p-id="9264" xmlns:xlink="http://www.w3.org/1999/xlink" width="32" height="32"><defs><style type="text/css"></style></defs><path d="M512 938.666667c235.648 0 426.666667-191.018667 426.666667-426.666667S747.648 85.333333 512 85.333333 85.333333 276.352 85.333333 512s191.018667 426.666667 426.666667 426.666667z m0 85.333333C229.248 1024 0 794.752 0 512S229.248 0 512 0s512 229.248 512 512-229.248 512-512 512z" fill="#333333" p-id="9265"></path><path d="M520.96 232.106667c-62.293333 0-111.786667 17.92-147.626667 54.613333-36.693333 35.84-54.613333 84.48-54.613333 146.773333h90.453333c0-37.546667 7.68-67.413333 23.04-87.893333 17.066667-23.893333 45.226667-35.84 83.626667-35.84 30.72 0 54.613333 8.533333 71.68 25.6 16.213333 17.066667 24.746667 40.106667 24.746667 69.973333 0 22.186667-7.68 42.666667-23.04 62.293334l-14.506667 16.213333c-52.906667 46.933333-85.333333 81.92-97.28 105.813333-11.093333 22.186667-16.213333 49.493333-16.213333 81.066667v14.506667h91.306666v-14.506667c0-21.333333 4.266667-40.106667 13.653334-57.173333 7.68-15.36 19.626667-29.866667 34.986666-43.52 40.96-34.986667 64.853333-57.173333 72.533334-66.56 20.48-27.306667 31.573333-62.293333 31.573333-104.106667 0-51.2-17.066667-92.16-50.346667-122.026667-34.133333-30.72-78.506667-45.226667-133.973333-45.226666z m-14.506667 499.2c-17.92 0-32.426667 5.12-43.52 17.066666-12.8 11.093333-18.773333 25.6-18.773333 43.52 0 17.066667 5.973333 31.573333 18.773333 43.52 11.093333 11.946667 25.6 17.92 43.52 17.92 17.066667 0 32.426667-5.973333 45.226667-17.066666 11.946667-11.946667 17.92-26.453333 17.92-44.373334 0-17.92-5.973333-32.426667-17.92-43.52-11.946667-11.946667-27.306667-17.066667-45.226667-17.066666z" fill="#333333" p-id="9266"></path></svg>