<?xml version="1.0" standalone="no"?><!DOCTYPE svg PUBLIC "-//W3C//DTD SVG 1.1//EN" "http://www.w3.org/Graphics/SVG/1.1/DTD/svg11.dtd"><svg t="1640679539771" class="icon" viewBox="0 0 1024 1024" version="1.1" xmlns="http://www.w3.org/2000/svg" p-id="2267" xmlns:xlink="http://www.w3.org/1999/xlink" width="32" height="32"><defs><style type="text/css"></style></defs><path d="M587.6736 539.136c73.8304-41.3696 109.7216-92.3648 103.936-151.9616-7.3728-90.624-61.184-140.5952-156.8768-146.1248-109.1584-5.4784-177.7664 44.3392-201.5232 146.688a15.36 15.36 0 0 0 10.3936 18.1248l40.704 12.7488a15.36 15.36 0 0 0 19.5584-11.4176c15.4624-70.9632 54.9376-103.936 122.0096-102.4 58.2656 4.5056 88.576 31.3344 94.5152 83.0976 4.1472 32.1024-18.7392 65.3824-71.9872 99.84-50.176 35.2768-75.6736 78.7968-75.6736 129.8944v25.4464a15.36 15.36 0 0 0 15.36 15.36h35.584a15.36 15.36 0 0 0 15.36-15.36v-22.8864c-1.4336-33.792 14.1824-60.0576 48.64-80.9984zM542.72 786.2784v-40.2432a15.36 15.36 0 0 0-15.36-15.36h-40.2432a15.36 15.36 0 0 0-15.36 15.36v40.2432a15.36 15.36 0 0 0 15.36 15.36h40.2432a15.36 15.36 0 0 0 15.36-15.36z" p-id="2268"></path><path d="M957.44 512a445.44 445.44 0 1 0-890.88 0 445.44 445.44 0 0 0 890.88 0zM0 512C0 229.2224 229.2224 0 512 0s512 229.2224 512 512-229.2224 512-512 512S0 794.7776 0 512z" p-id="2269"></path></svg>