<?xml version="1.0" standalone="no"?><!DOCTYPE svg PUBLIC "-//W3C//DTD SVG 1.1//EN" "http://www.w3.org/Graphics/SVG/1.1/DTD/svg11.dtd"><svg t="1639720581518" class="icon" viewBox="0 0 1024 1024" version="1.1" xmlns="http://www.w3.org/2000/svg" p-id="7514" xmlns:xlink="http://www.w3.org/1999/xlink" width="128" height="128"><defs><style type="text/css"></style></defs><path d="M512 1024C229.229714 1024 0 794.770286 0 512S229.229714 0 512 0s512 229.229714 512 512-229.229714 512-512 512z m0-928C282.258286 96 96 282.258286 96 512S282.258286 928 512 928 928 741.741714 928 512 741.741714 96 512 96z m208.018286 463.981714h-160v160.036572a48.018286 48.018286 0 0 1-96.036572 0v-160.036572H303.981714a47.981714 47.981714 0 0 1 0-95.963428h160V304.018286a48.018286 48.018286 0 0 1 96.036572 0v160h160a47.981714 47.981714 0 0 1 0 95.963428z" fill="#333333" p-id="7515"></path></svg>