<?xml version="1.0" standalone="no"?><!DOCTYPE svg PUBLIC "-//W3C//DTD SVG 1.1//EN" "http://www.w3.org/Graphics/SVG/1.1/DTD/svg11.dtd"><svg t="1629079829733" class="icon" viewBox="0 0 1024 1024" version="1.1" xmlns="http://www.w3.org/2000/svg" p-id="13970" xmlns:xlink="http://www.w3.org/1999/xlink" width="36" height="36"><defs><style type="text/css"></style></defs><path d="M493.44 320.128h100.992v217.792a30.08 30.08 0 0 0 29.76 30.4 30.08 30.08 0 0 0 29.76-30.4V320.128h100.864a18.368 18.368 0 0 0 15.808-9.408 19.2 19.2 0 0 0 0.064-18.752L640 60.8A18.048 18.048 0 0 0 624.128 51.2a18.048 18.048 0 0 0-15.872 9.536l-130.56 231.232a19.072 19.072 0 0 0 0 18.752c3.2 5.76 9.216 9.408 15.808 9.408z" p-id="13971"></path><path d="M963.136 617.408l-116.288-68.672a18.048 18.048 0 0 0-18.304 0 18.944 18.944 0 0 0-9.216 16.192v38.4H230.016A119.424 119.424 0 0 1 114.56 512.192a122.752 122.752 0 0 1 57.344-136.96 117.12 117.12 0 0 1 144.064 22.528c37.376 40.256 43.392 101.248 14.592 148.288a30.848 30.848 0 0 0 9.984 41.152 29.376 29.376 0 0 0 40.448-8.96 185.6 185.6 0 0 0-21.888-222.336 175.616 175.616 0 0 0-216.064-33.92C71.936 362.496 36.544 446.976 56.96 527.552c20.48 80.512 91.648 136.704 173.056 136.64h589.44v38.144c0 6.656 3.456 12.8 9.152 16.192a17.92 17.92 0 0 0 18.304 0.064l116.288-68.672a18.624 18.624 0 0 0 9.28-16.256c0-6.656-3.52-12.8-9.28-16.192h-0.064z m-338.944 114.816a30.08 30.08 0 0 0-29.696 30.4v179.776a30.08 30.08 0 0 0 29.696 30.4 30.08 30.08 0 0 0 29.76-30.4v-179.712a30.08 30.08 0 0 0-29.696-30.464h-0.064z m-245.504 0a30.08 30.08 0 0 0-29.76 30.4v179.776a30.08 30.08 0 0 0 29.696 30.4 30.08 30.08 0 0 0 29.824-30.4v-179.712a30.08 30.08 0 0 0-29.76-30.464z" p-id="13972"></path></svg>