<?xml version="1.0" encoding="UTF-8"?>
<svg width="16px" height="16px" viewBox="0 0 16 16" version="1.1" xmlns="http://www.w3.org/2000/svg" xmlns:xlink="http://www.w3.org/1999/xlink">
    <!-- Generator: Sketch 64 (93537) - https://sketch.com -->
    <title>low/lowest</title>
    <desc>Created with Sketch.</desc>
    <g id="low/lowest" stroke="none" stroke-width="1" fill="none" fill-rule="evenodd">
        <g id="箭头" fill-rule="nonzero">
            <rect id="矩形" fill="#000000" opacity="0" x="0" y="0" width="16" height="16"></rect>
            <path d="M3.56228125,9.13575 L7.58559375,13.1590625 C7.8998125,13.4732813 8.40917188,13.4732813 8.72339063,13.1590625 L12.7467031,9.13575 C13.0609219,8.82153125 13.0609219,8.31217188 12.7467031,7.99795313 C12.4324844,7.68373438 11.923125,7.68373438 11.6089063,7.99795313 L8.95914062,10.6477188 L8.95914062,2.93421875 C8.95914062,2.48964063 8.59904687,2.12954688 8.15446875,2.12954688 C7.70989062,2.12954688 7.34979687,2.48964063 7.34979687,2.93421875 L7.34979687,10.6477188 L4.70003125,7.99795313 C4.543125,7.84103125 4.337125,7.7621875 4.131125,7.7621875 C3.925125,7.7621875 3.71914062,7.84064063 3.56221875,7.99795313 C3.248,8.31217188 3.248,8.82153125 3.56221875,9.13575 L3.56228125,9.13575 Z" id="路径" fill="#52C41A"></path>
        </g>
    </g>
</svg>