<?xml version="1.0" standalone="no"?><!DOCTYPE svg PUBLIC "-//W3C//DTD SVG 1.1//EN" "http://www.w3.org/Graphics/SVG/1.1/DTD/svg11.dtd"><svg t="1636451727662" class="icon" viewBox="0 0 1024 1024" version="1.1" xmlns="http://www.w3.org/2000/svg" p-id="4523" width="36" height="36" xmlns:xlink="http://www.w3.org/1999/xlink"><defs><style type="text/css"></style></defs><path d="M357.33669 28.999371H84.098175C37.699182 28.999371 1.611076 65.087476 1.611076 111.486469v273.238515c0 46.398993 36.088106 82.487099 82.487099 82.487099h273.238515c46.398993 0 82.487099-36.088106 82.487099-82.487099V111.486469c2.577722-46.398993-36.088106-82.487099-82.487099-82.487098zM707.90686 454.323474c20.621775 20.621775 43.821271 28.35494 69.598489 28.35494 25.777218 0 51.554437-10.310887 69.59849-28.35494l141.774701-141.774701c38.665828-38.665828 38.665828-103.108874 0-141.774701l-141.774701-141.774701c-38.665828-38.665828-103.108874-38.665828-141.774701 0L568.70988 170.774072c-38.665828 38.665828-38.665828 103.108874 0 141.774701l139.19698 141.774701z m-85.064821-226.839522l141.774701-141.774701c2.577722-5.155444 10.310887-7.733166 15.466331-7.733165 5.155444 0 10.310887 2.577722 15.466331 7.733165l141.774701 141.774701c7.733166 7.733166 7.733166 23.199497 0 30.932662l-141.774701 141.774701c-7.733166 7.733166-23.199497 7.733166-30.932662 0L622.842039 258.416614c-10.310887-10.310887-10.310887-23.199497 0-30.932662zM357.33669 585.787288H84.098175c-46.398993 0-82.487099 36.088106-82.487099 82.487098v273.238515c0 46.398993 36.088106 82.487099 82.487099 82.487099h273.238515c46.398993 0 82.487099-36.088106 82.487099-82.487099V668.274386c2.577722-46.398993-36.088106-82.487099-82.487099-82.487098zM916.702329 585.787288H643.463814c-46.398993 0-82.487099 36.088106-82.487099 82.487098v273.238515c0 46.398993 36.088106 82.487099 82.487099 82.487099h273.238515c46.398993 0 82.487099-36.088106 82.487098-82.487099V668.274386c0-46.398993-36.088106-82.487099-82.487098-82.487098z" fill="currentColor" p-id="4524"></path></svg>
