<?xml version="1.0" encoding="UTF-8"?>
<svg width="16px" height="78px" viewBox="0 0 16 78" version="1.1" xmlns="http://www.w3.org/2000/svg" xmlns:xlink="http://www.w3.org/1999/xlink">
    <!-- Generator: Sketch 64 (93537) - https://sketch.com -->
    <title>编组 13</title>
    <desc>Created with Sketch.</desc>
    <g id="任务运维" stroke="none" stroke-width="1" fill="none" fill-rule="evenodd">
        <g id="点击工作流" transform="translate(-575.000000, -479.000000)">
            <g id="编组-13" transform="translate(575.000000, 478.000000)">
                <path d="M1.70710678,1.70710678 L15.7071068,15.7071068 C15.8946432,15.8946432 16,16.1489971 16,16.4142136 L16,64.566768 C16,64.8431769 15.8855917,65.1072578 15.6839411,65.2963052 L1.68394113,78.4213052 C1.28102886,78.7990354 0.648193051,78.7786214 0.270462796,78.3757091 C0.0967007927,78.190363 1.13553882e-14,77.9458279 0,77.691768 L0,2.41421356 C1.26463225e-15,1.86192881 0.44771525,1.41421356 1,1.41421356 C1.26521649,1.41421356 1.5195704,1.5195704 1.70710678,1.70710678 Z" id="矩形" fill="#F2F4F8"></path>
                <g id="编组-12" transform="translate(8.000000, 40.000000) scale(-1, 1) translate(-8.000000, -40.000000) translate(4.000000, 29.000000)" fill="#C0C9D4" fill-rule="nonzero">
                    <g id="编组-14">
                        <path d="M0.333828714,0.0286049314 C0.565312771,-0.0530387345 0.816668932,0.0458627581 0.934176605,0.251749798 L0.971667598,0.333828714 L4.70115979,10.9080475 C4.73117293,10.9931436 4.73741854,11.0842163 4.72006967,11.1716615 L4.69486238,11.2575418 L0.965370196,20.7292215 C0.864198943,20.9861631 0.57389111,21.1124399 0.316949505,21.0112686 C0.0885569668,20.9213386 -0.0365942594,20.6819674 0.00946982319,20.4494257 L0.0349023335,20.3628479 L3.69513626,11.0651363 L0.0286049314,0.666443816 C-0.0530387345,0.434959759 0.0458627581,0.183603598 0.251749798,0.0660959251 L0.333828714,0.0286049314 Z" id="路径-2"></path>
                        <path d="M3.5633209,0.0286049314 C3.79480496,-0.0530387345 4.04616112,0.0458627581 4.16366879,0.251749798 L4.20115979,0.333828714 L7.93065197,10.9080475 C7.96066512,10.9931436 7.96691073,11.0842163 7.94956186,11.1716615 L7.92435457,11.2575418 L4.19486238,20.7292215 C4.09369113,20.9861631 3.8033833,21.1124399 3.54644169,21.0112686 C3.31804915,20.9213386 3.19289793,20.6819674 3.23896201,20.4494257 L3.26439452,20.3628479 L6.92513626,11.0641363 L3.25809712,0.666443816 C3.17645345,0.434959759 3.27535495,0.183603598 3.48124199,0.0660959251 L3.5633209,0.0286049314 Z" id="路径-2"></path>
                    </g>
                </g>
            </g>
        </g>
    </g>
</svg>