<?xml version="1.0" standalone="no"?><!DOCTYPE svg PUBLIC "-//W3C//DTD SVG 1.1//EN" "http://www.w3.org/Graphics/SVG/1.1/DTD/svg11.dtd"><svg t="1626922313847" class="icon" viewBox="0 0 1152 1024" version="1.1" xmlns="http://www.w3.org/2000/svg" p-id="724" width="225" height="200" data-spm-anchor-id="a313x.7781069.0.i5" xmlns:xlink="http://www.w3.org/1999/xlink"><defs><style type="text/css">@font-face { font-family: feedback-iconfont; src: url("//at.alicdn.com/t/font_1031158_1uhr8ri0pk5.eot?#iefix") format("embedded-opentype"), url("//at.alicdn.com/t/font_1031158_1uhr8ri0pk5.woff2") format("woff2"), url("//at.alicdn.com/t/font_1031158_1uhr8ri0pk5.woff") format("woff"), url("//at.alicdn.com/t/font_1031158_1uhr8ri0pk5.ttf") format("truetype"), url("//at.alicdn.com/t/font_1031158_1uhr8ri0pk5.svg#iconfont") format("svg"); }
</style></defs><path d="M693.333333 0.938667l452.778667 498.005333-452.736 498.048-63.146667-57.386667 400.554667-440.618666L630.186667 58.325333 693.333333 0.938667zM170.666667 576v85.333333H0v-85.333333h170.666667z m256 0v85.333333H256v-85.333333h170.666667z m256 0v85.333333h-170.666667v-85.333333h170.666667z m128 0v85.333333h-42.666667v-85.333333h42.666667zM170.666667 341.333333v85.333334H0V341.333333h170.666667z m256 0v85.333334H256V341.333333h170.666667z m256 0v85.333334h-170.666667V341.333333h170.666667z m128 0v85.333334h-42.666667V341.333333h42.666667z" p-id="725" data-spm-anchor-id="a313x.7781069.0.i0" class="selected" fill="#99B0D0"></path></svg>