<?xml version="1.0" standalone="no"?><!DOCTYPE svg PUBLIC "-//W3C//DTD SVG 1.1//EN" "http://www.w3.org/Graphics/SVG/1.1/DTD/svg11.dtd"><svg t="1629097257778" class="icon" viewBox="0 0 1024 1024" version="1.1" xmlns="http://www.w3.org/2000/svg" p-id="15820" xmlns:xlink="http://www.w3.org/1999/xlink" width="36" height="36"><defs><style type="text/css"></style></defs><path d="M771.136 145.088v-60.16a32 32 0 1 0-64 0v60.16h-384v-60.16a32 32 0 0 0-64 0v60.16H56.832v825.92h910.208V145.088h-196.032z m-512 64.896v67.008a32 32 0 0 0 64 0V209.92h384v67.072a32 32 0 1 0 64 0V209.92h131.136v99.072H121.664V209.92H259.2zM121.728 906.176V372.992h780.544v533.184H121.728z m92.48-432.448h123.904v123.712H214.208V473.728z m228.672 0h123.968v123.712H442.88V473.728z m228.8 0h123.904v123.712h-123.904V473.728z m-457.472 218.624h123.904v123.712H214.208v-123.712z m228.672 0h123.968v123.712H442.88v-123.712z m228.8 0h123.904v123.712h-123.904v-123.712z" p-id="15821"></path></svg>