<?xml version="1.0" standalone="no"?><!DOCTYPE svg PUBLIC "-//W3C//DTD SVG 1.1//EN" "http://www.w3.org/Graphics/SVG/1.1/DTD/svg11.dtd"><svg class="icon" width="16px" height="16.00px" viewBox="0 0 1024 1024" version="1.1" xmlns="http://www.w3.org/2000/svg"><path d="M512 512m-512 0a512 512 0 1 0 1024 0 512 512 0 1 0-1024 0Z" fill="#DAECFF" /><path d="M517.0944 281.6c114.8672 0 209.8944 43.8528 209.8944 105.6v249.6c0 61.696-95.0272 105.6-209.8944 105.6-111.9232 0-205.0304-41.6512-209.6896-100.864L307.2 636.7744v-249.6l0.2048-4.7616C312.0384 323.2512 405.1712 281.6 517.0944 281.6z m0 380.0832c-74.2656 0-140.288-18.3808-177.6128-48.0256v23.1424c0 37.0688 78.4896 73.3184 177.6128 73.3184 96.128 0 172.8256-34.0736 177.3824-69.9648l0.2304-3.328v-23.168c-37.3504 29.6448-103.3472 47.9744-177.6128 47.9744v0.0512z m0-80.7424c-74.2656 0-140.288-18.3808-177.6128-48.0256v23.168c0 37.0688 78.4896 73.2928 177.6128 73.2928 96.128 0 172.8256-34.048 177.3824-69.9392l0.2304-3.3536v-23.168c-37.3504 29.6448-103.3472 48-177.6128 48v0.0256z m177.6128-136.192c-37.3504 29.6192-103.3472 47.9744-177.6128 47.9744s-140.2368-18.304-177.6128-47.9488v30.5664c0 37.0688 78.4896 73.3184 177.6128 73.3184 96.128 0 172.8256-34.0736 177.3824-69.9392l0.2304-3.3792v-30.592z m-177.6128-130.8672c-99.1232 0-177.6128 36.2496-177.6128 73.3184 0 37.0432 78.4896 73.216 177.6128 73.216s177.6128-36.1728 177.6128-73.2672c0-37.0176-78.4896-73.2672-177.6128-73.2672z" fill="#2E92F7" /></svg>