<?xml version="1.0" standalone="no"?><!DOCTYPE svg PUBLIC "-//W3C//DTD SVG 1.1//EN" "http://www.w3.org/Graphics/SVG/1.1/DTD/svg11.dtd"><svg t="1629098682007" class="icon" viewBox="0 0 1024 1024" version="1.1" xmlns="http://www.w3.org/2000/svg" p-id="16532" xmlns:xlink="http://www.w3.org/1999/xlink" width="36" height="36"><defs><style type="text/css"></style></defs><path d="M482.88 112l-17.28 90.688-20.672 4.48a309.696 309.696 0 0 0-99.712 41.152l-18.752 11.776-73.216-55.04-44.672 44.672 51.904 76.416-11.392 17.728a310.016 310.016 0 0 0-41.6 99.584l-4.8 21.632-90.688 12.864v63.104l90.688 17.344 4.48 20.608c7.808 35.456 21.696 69.184 41.152 99.84l11.776 18.688-55.04 73.28 44.672 44.608 76.416-51.904 17.728 11.392a310.016 310.016 0 0 0 99.584 41.6l21.632 4.8 12.864 90.688h63.104l17.344-90.688 20.608-4.48a310.016 310.016 0 0 0 99.84-41.152l18.688-11.776 73.28 55.04 44.608-44.672-51.904-76.416 11.392-17.728a310.016 310.016 0 0 0 41.6-99.648l4.8-21.568 90.688-12.928v-63.104l-90.688-17.28-4.48-20.672a310.016 310.016 0 0 0-41.152-99.776l-11.776-18.688 55.04-73.28-44.672-44.608-76.416 51.84-17.728-11.328a310.144 310.144 0 0 0-99.648-41.6l-21.568-4.8-12.928-90.688h-63.104z m-72.32 37.824L429.952 48H601.6l14.656 102.592c28.032 8.064 54.848 19.328 80.128 33.6l85.76-58.304 121.344 121.344-62.272 82.88c14.08 25.408 25.152 52.352 32.96 80.384l101.952 19.456v171.584l-102.656 14.656a373.952 373.952 0 0 1-33.536 80.128l58.24 85.76-121.344 121.344-82.88-62.272c-25.408 14.08-52.352 25.152-80.384 32.96l-19.392 101.888H422.528l-14.656-102.656a373.888 373.888 0 0 1-80.128-33.536l-85.824 58.304-121.344-121.344 62.272-82.88a373.824 373.824 0 0 1-32.96-80.448L48 594.048V422.464l102.592-14.656c8.064-27.904 19.328-54.784 33.6-80.128l-58.304-85.76 121.344-121.344 82.88 62.272c25.408-14.08 52.48-25.152 80.384-32.96h0.064zM512 704a192 192 0 1 1 0-384 192 192 0 0 1 0 384z m0-64a128 128 0 1 0 0-256 128 128 0 0 0 0 256z" p-id="16533"></path></svg>