<?xml version="1.0" standalone="no"?><!DOCTYPE svg PUBLIC "-//W3C//DTD SVG 1.1//EN" "http://www.w3.org/Graphics/SVG/1.1/DTD/svg11.dtd"><svg t="1629859491996" class="icon" viewBox="0 0 1024 1024" version="1.1" xmlns="http://www.w3.org/2000/svg" p-id="6351" xmlns:xlink="http://www.w3.org/1999/xlink" width="16" height="16"><defs><style type="text/css"></style></defs><path d="M749.641143 980.114286c-15.725714 0-31.232-3.876571-45.129143-11.264L512 865.206857 319.634286 968.850286a96.841143 96.841143 0 0 1-99.035429-5.339429 92.013714 92.013714 0 0 1-38.838857-90.697143l37.668571-225.28-162.669714-162.377143a90.550857 90.550857 0 0 1-22.089143-94.281142c11.337143-32.914286 40.082286-56.539429 74.971429-61.732572l221.330286-32.914286 96.109714-199.533714A94.646857 94.646857 0 0 1 512 43.885714c36.205714 0 69.485714 20.699429 84.992 52.809143L693.101714 296.228571l221.330286 32.914286c34.889143 5.12 63.634286 28.818286 74.971429 61.732572 11.483429 32.987429 2.925714 69.705143-22.016 94.208L804.571429 647.533714l37.741714 225.28a92.16 92.16 0 0 1-38.765714 90.697143 95.305143 95.305143 0 0 1-53.979429 16.676572zM512 804.498286c4.681143 0 9.289143 1.170286 13.531429 3.437714L731.428571 918.674286c12.726857 6.656 28.013714 5.851429 39.936-2.121143a34.523429 34.523429 0 0 0 14.921143-34.304l-40.228571-239.762286a28.525714 28.525714 0 0 1 8.045714-24.868571l173.129143-172.763429a34.157714 34.157714 0 0 0 8.411429-35.547428 36.571429 36.571429 0 0 0-29.549715-23.917715l-236.251428-35.108571a28.452571 28.452571 0 0 1-21.430857-15.798857L545.718857 121.417143a37.302857 37.302857 0 0 0-33.645714-20.626286 37.449143 37.449143 0 0 0-33.792 20.626286L375.588571 334.482286a28.452571 28.452571 0 0 1-21.430857 15.798857l-236.251428 35.108571a37.083429 37.083429 0 0 0-29.549715 23.990857 34.084571 34.084571 0 0 0 8.484572 35.401143L269.897143 617.691429a28.525714 28.525714 0 0 1 7.899428 24.868571l-40.082285 239.689143a34.523429 34.523429 0 0 0 14.921143 34.377143c11.483429 7.826286 27.355429 8.777143 40.009142 2.048l205.824-110.811429A28.525714 28.525714 0 0 1 512 804.425143z" fill="#000000" opacity=".65" p-id="6352"></path></svg>