<?xml version="1.0" standalone="no"?><!DOCTYPE svg PUBLIC "-//W3C//DTD SVG 1.1//EN" "http://www.w3.org/Graphics/SVG/1.1/DTD/svg11.dtd"><svg t="1629097460163" class="icon" viewBox="0 0 1024 1024" version="1.1" xmlns="http://www.w3.org/2000/svg" p-id="16105" xmlns:xlink="http://www.w3.org/1999/xlink" width="36" height="36"><defs><style type="text/css"></style></defs><path d="M512 512m-512 0a512 512 0 1 0 1024 0 512 512 0 1 0-1024 0Z" fill="#DAECFF" p-id="16106"></path><path d="M564.4032 288c3.4048 0 6.656 1.0752 9.3696 3.072l1.92 1.6384 107.5968 107.5968a16.1024 16.1024 0 0 1 4.5056 8.8064l0.2048 2.56V512h-35.9936v-59.008H544a20.992 20.992 0 0 1-20.7616-17.8944l-0.256-3.0976v-108.0064h-150.9888v376.0128H652.032V640h35.9936v80c0 7.8592-5.632 14.3872-13.1328 15.744l-2.8672 0.256h-320a15.9744 15.9744 0 0 1-15.744-13.1328l-0.256-2.8672v-416c0-7.8592 5.632-14.3872 13.1328-15.744l2.8672-0.256h212.4032z m146.9952 228.0192c0-2.8672 2.816-4.6592 5.2992-3.8144l1.2032 0.6656 70.9376 56.0128c1.664 1.28 1.9712 3.5072 0.9984 5.1712l-0.9984 1.1264-70.9376 55.9872a4.0192 4.0192 0 0 1-6.272-1.792l-0.2304-1.3568v-37.9904h-157.0048a4.0192 4.0192 0 0 1-3.7888-2.7392l-0.2048-1.28v-27.9808c0-1.7664 1.152-3.2512 2.7392-3.7888l1.28-0.2048h156.9792v-38.016z m-154.3936-191.1296v94.1056h94.1056l-94.1056-94.1056z" fill="#2E92F7" p-id="16107"></path></svg>