<?xml version="1.0" standalone="no"?><!DOCTYPE svg PUBLIC "-//W3C//DTD SVG 1.1//EN" "http://www.w3.org/Graphics/SVG/1.1/DTD/svg11.dtd"><svg t="1629101435960" class="icon" viewBox="0 0 1024 1024" version="1.1" xmlns="http://www.w3.org/2000/svg" p-id="17668" xmlns:xlink="http://www.w3.org/1999/xlink" width="36" height="36"><defs><style type="text/css"></style></defs><path d="M163.9936 491.008h526.592L375.3984 217.3952A7.168 7.168 0 0 1 380.0576 204.8H459.776c3.4816 0 6.8096 1.28 9.4208 3.5328l340.1216 295.0656a28.7744 28.7744 0 0 1 0 43.52L467.2 843.776a7.0656 7.0656 0 0 1-4.7104 1.8432H380.16a7.168 7.168 0 0 1-4.6592-12.5952l315.0848-273.6128H163.9936a7.2192 7.2192 0 0 1-7.168-7.168V498.176c0-3.9424 3.1744-7.168 7.168-7.168z" p-id="17669"></path></svg>