<?xml version="1.0" standalone="no"?><!DOCTYPE svg PUBLIC "-//W3C//DTD SVG 1.1//EN" "http://www.w3.org/Graphics/SVG/1.1/DTD/svg11.dtd"><svg t="1639720410654" class="icon" viewBox="0 0 1024 1024" version="1.1" xmlns="http://www.w3.org/2000/svg" p-id="5739" xmlns:xlink="http://www.w3.org/1999/xlink" width="128" height="128"><defs><style type="text/css"></style></defs><path d="M884.329 926.072H142.056c-23.739 0-43.051-19.488-43.051-43.443V203.228c0-23.955 19.313-43.444 43.051-43.444h370.307c17.673 0 32 14.327 32 32 0 17.673-14.326 32-32 32H163.004v638.289H863.38V497.274c0-17.673 14.327-32 32-32s32 14.327 32 32v385.355c0 23.955-19.313 43.443-43.051 43.443z" fill="#333333" p-id="5740"></path><path d="M334.451 783.482l37.361-197.519 393.876-466.021c9.105-10.774 22.329-17.291 36.279-17.879 13.929-0.596 27.606 4.773 37.55 14.706l70.177 70.098c18.154 18.133 19.381 47.712 2.79 67.339L516.002 723.312l-181.551 60.17z m97.115-169.071l-14.017 74.106 61.209-20.286 376.416-445.363-50.253-50.197-373.355 441.74z" fill="#333333" p-id="5741"></path></svg>