<?xml version="1.0" standalone="no"?><!DOCTYPE svg PUBLIC "-//W3C//DTD SVG 1.1//EN" "http://www.w3.org/Graphics/SVG/1.1/DTD/svg11.dtd"><svg class="icon" width="16px" height="16.00px" viewBox="0 0 1024 1024" version="1.1" xmlns="http://www.w3.org/2000/svg"><path fill="#000000" d="M512 64a448 448 0 1 1 0 896A448 448 0 0 1 512 64z m0 64a384 384 0 1 0 0 768A384 384 0 0 0 512 128zM416 320a32 32 0 0 1 51.2-25.6l256 192a32 32 0 0 1 0 51.2l-256 192a32 32 0 0 1-51.2-25.6z m64 64v256l170.688-128L480 384z" /></svg>