<?xml version="1.0" standalone="no"?><!DOCTYPE svg PUBLIC "-//W3C//DTD SVG 1.1//EN" "http://www.w3.org/Graphics/SVG/1.1/DTD/svg11.dtd"><svg class="icon" width="16px" height="16.00px" viewBox="0 0 1024 1024" version="1.1" xmlns="http://www.w3.org/2000/svg"><path d="M512 512m-512 0a512 512 0 1 0 1024 0 512 512 0 1 0-1024 0Z" fill="#DAECFF" /><path d="M730.496 342.784c0-20.224-16.4352-36.6848-36.6848-36.6848H330.1888c-20.224 0-36.6848 16.4608-36.6848 36.7104v84.0448c0 8.448 2.8416 16.2048 7.68 22.4-4.8384 6.2464-7.68 14.0032-7.68 22.4512v84.0448c0 7.68 2.3552 14.7968 6.4 20.7104a36.352 36.352 0 0 0-6.4 20.6848v84.0448c0 20.2496 16.4352 36.7104 36.6848 36.7104h363.6224c20.224 0 36.6848-16.4608 36.6848-36.7104v-84.0448c0-7.68-2.3552-14.7968-6.4-20.6848 4.0448-5.888 6.4-13.056 6.4-20.7104v-84.0448c0-8.448-2.8416-16.2048-7.68-22.4 4.7872-6.1952 7.68-14.0032 7.68-22.4V342.784z m-404.992 0c0-2.5344 2.1504-4.6848 4.6848-4.6848h363.6224c2.56 0 4.6848 2.1504 4.6848 4.7104v84.0448c0 2.56-2.1504 4.6848-4.6848 4.6848H330.1888a4.7616 4.7616 0 0 1-4.6848-4.6848V342.784z m372.992 212.9664c0 2.56-2.1504 4.7104-4.6848 4.7104H330.1888a4.7616 4.7616 0 0 1-4.6848-4.7104v-84.0448c0-2.56 2.1504-4.7104 4.6848-4.7104h363.6224c2.56 0 4.6848 2.1504 4.6848 4.7104v84.0448z m0 125.44c0 2.56-2.1504 4.7104-4.6848 4.7104H330.1888a4.7616 4.7616 0 0 1-4.6848-4.7104v-84.0448c0-2.56 2.1504-4.6848 4.6848-4.6848h363.6224c2.56 0 4.6848 2.1504 4.6848 4.6848v84.0448zM370.6112 400.896h60.9792a15.9744 15.9744 0 1 0 0-32h-60.9792a15.9744 15.9744 0 1 0 0 32z m60.928 96.8192h-60.9792a15.9744 15.9744 0 1 0 0 32h60.9792a15.9744 15.9744 0 1 0 0-32z m0 125.44h-60.9792a15.9744 15.9744 0 1 0 0 32h60.9792a15.9744 15.9744 0 1 0 0-32z" fill="#3495F7" /></svg>