<svg width="14" height="16" viewBox="0 0 14 16" fill="none" xmlns="http://www.w3.org/2000/svg">
<path d="M13.125 16H14V14.4H13.125V13.6C13.1233 12.6281 12.8456 11.6734 12.319 10.8291C11.7925 9.98489 11.0351 9.28018 10.1211 8.784C9.8105 8.616 9.625 8.3464 9.625 8.0632V7.9368C9.625 7.6536 9.8105 7.384 10.1202 7.2168C11.0344 6.72053 11.7919 6.01571 12.3187 5.17135C12.8454 4.32699 13.1232 3.37204 13.125 2.4V1.6H14V0H0V1.6H0.875V2.4C0.876775 3.37204 1.15462 4.32699 1.68134 5.17135C2.20806 6.01571 2.96559 6.72053 3.87975 7.2168C4.1895 7.384 4.375 7.6528 4.375 7.9368V8.0632C4.375 8.3464 4.1895 8.616 3.87975 8.7832C2.96559 9.27947 2.20806 9.98429 1.68134 10.8287C1.15462 11.673 0.876775 12.628 0.875 13.6V14.4H0V16H13.125ZM11.375 1.6V2.4C11.3737 3.2658 11.0654 4.10788 10.4965 4.8H3.5035C2.93456 4.10788 2.62632 3.2658 2.625 2.4V1.6H11.375ZM4.76875 10.1616C5.61837 9.7024 6.125 8.9184 6.125 8.0632V8H7.875V8.0632C7.875 8.9176 8.38162 9.7024 9.23212 10.1616C10.0183 10.5894 10.6373 11.2326 11.0014 12H2.99863C3.36274 11.2324 3.98209 10.5891 4.76875 10.1616Z" fill="#686868"/>
</svg>
