<svg t="1570779672470" class="icon" viewBox="0 0 1024 1024" version="1.1" xmlns="http://www.w3.org/2000/svg" p-id="11818" width="16" height="16"><path d="M447.33781333 5.40899556c-222.53112889 0-403.11921778 97.28455111-403.11921778 212.62791111v576.13425778c0 100.19726222 180.58808889 181.75317333 403.11921778 181.75317333v-60.58439111c-191.07384889 0-345.44753778-54.17642667-345.44753778-121.16878222v-88.54641778c86.21624889 54.75896889 186.41351111 84.46862222 288.3584 86.21624889v-58.83676444c-164.27690667-9.32067555-288.3584-59.41930667-288.3584-119.42115556v-90.29404444A554.40543289 554.40543289 0 0 0 389.66613333 609.50528v-60.00184888c-163.69436445-10.48576-287.77585778-59.41930667-287.77585778-120.00369778V326.97230222c70.48760889 61.74947555 199.22944 103.10997333 345.44753778 103.10997334 123.49895111 5.82542222 245.83281778-30.29219555 346.03008-103.10997334V409.11075556h57.08913778V218.03690667c0.58254222-115.92590222-180.00554667-212.62791111-403.11921778-212.62791111z m0 364.08888889c-191.07384889 0-345.44753778-68.15744-345.44753778-151.46097778s154.95623111-152.04352 345.44753778-152.04352 346.03008 68.15744 346.03008 152.04352c0 83.88608-154.37368889 151.46097778-346.03008 151.46097778z" fill="#3EC4F9" p-id="11819"></path><path d="M985.60682667 917.08757334l-52.4288-52.4288c50.68117333-78.06065778 51.26371555-178.25792 2.91271111-258.06620445-69.90506667-114.17827555-219.03587555-150.29589333-333.21415111-79.80828444s-150.29589333 219.03587555-79.80828445 333.21415111 219.03587555 150.29589333 333.21415111 79.80828444l53.59388445 53.59388445c20.97152 20.97152 55.34151111 20.97152 76.31303111 0 20.38897778-20.97152 20.38897778-55.34151111-0.58254222-76.31303111z m-107.77031112-183.5008c0 81.55591111-65.82727111 147.38318222-147.38318222 147.38318222s-147.38318222-65.82727111-147.38318222-147.38318222 65.82727111-147.38318222 147.38318222-147.38318222 147.38318222 65.82727111 147.38318222 147.38318222z" fill="#d3627d" p-id="11820"></path></svg>