<svg t="1570786193278" class="icon" viewBox="0 0 1024 1024" version="1.1" xmlns="http://www.w3.org/2000/svg" p-id="1013" width="16" height="16"><path d="M843.697231 974.454154H195.505231a115.633231 115.633231 0 0 1-115.515077-115.515077V172.780308a115.672615 115.672615 0 0 1 115.515077-115.515077H382.030769a29.538462 29.538462 0 0 1 0 59.076923H195.505231c-31.113846 0-56.438154 25.324308-56.438154 56.438154V858.978462c0 31.113846 25.324308 56.438154 56.438154 56.438153h648.192c31.113846 0 56.438154-25.324308 56.438154-56.438153V618.338462a29.538462 29.538462 0 0 1 59.076923 0v240.64a115.633231 115.633231 0 0 1-115.515077 115.475692z" fill="#69B42E" p-id="1014"></path><path d="M303.734154 610.067692s78.020923-193.811692 374.075077-196.923077c2.717538-0.039385 5.080615 2.048 5.080615 4.765539v151.079384c0 4.292923 5.198769 6.340923 8.231385 3.308308l255.842461-255.842461-249.186461-249.186462v135.049846c0 0.433231 0 0.787692-0.393846 1.024-17.329231 9.531077-393.649231-8.822154-393.649231 406.724923z" fill="#69B42E" p-id="1015"></path></svg>