<svg t="1572505474223" viewBox="0 0 1024 1024" version="1.1" xmlns="http://www.w3.org/2000/svg" p-id="1741" xmlns:xlink="http://www.w3.org/1999/xlink" width="30" height="18">
    <path d="M1019.669291 397.544431c0 0.211533 0.211533 0.211533 0.211534 0.423066v-0.740366c-0.211533-0.105767-0.211533-0.105767-0.211534 0.3173z m0 0" p-id="113308" fill="#1d9cf0"></path><path d="M1201.693609 504.368697H421.559171c-28.133915 0-53.2006 18.297622-61.873461 45.162338L291.466254 759.266201V194.15526H585.285867c0 71.709754 58.065863 129.987151 129.881384 129.987151H985.50668v97.834105c0.211533 17.768789 14.701557 32.04728 32.364579 32.047279 17.980322 0 32.364579-14.701557 32.36458-32.364579 0-0.211533-0.211533-0.211533-0.211534-0.423067h0.211534v-96.987971c0-35.854877-29.085815-65.046459-65.046459-65.046459H715.378785c-35.854877 0-65.046459-29.085815-65.046459-65.046459 0-17.134189-6.980596-33.739545-19.143755-45.902704-12.163159-12.163159-28.768515-19.143755-45.902704-19.143754H291.677787c-35.854877 0-64.834926 29.085815-65.046459 64.834925V959.165074c0.211533 35.854877 29.085815 64.834926 65.046459 64.834926h779.817138c28.345449 0 53.412133-18.086089 61.873461-45.162338l133.160149-409.528273c0-35.749111-28.980048-64.729159-64.834926-64.940692z m0 0M1237.336953 181.992101c-33.528012-107.247332-154.736535-286.098652-553.476615-103.439734 0 0 410.26864-104.4974 462.940406 136.22738l-80.065316 15.759223 178.639787 112.324129 64.517625-196.620108-72.555887 35.74911z m19.989887 3.913364" fill="#1d9cf0" p-id="113309"></path><path d="M1073.927557 1023.894233s-23.691718-11.740093-35.643344-20.412953c-5.394097-3.913364-34.374145-29.085815-35.431811-30.883847l-697.530724-0.6346s-22.845585 3.384531-44.316205-12.903525c-23.797485-18.086089-34.162612-53.412133-34.162612-53.412133l-0.105766 47.806503s-0.423066 12.374692 2.644165 23.585952c2.009565 7.403662 6.028696 14.278491 7.615195 17.345722 15.124624 29.403115 54.892865 29.508881 54.892865 29.508881h782.038237z m-428.143195-5.711396" p-id="113310" fill="#1d9cf0"></path>
</svg>