<svg t="1570786245063" class="icon" viewBox="0 0 1024 1024" version="1.1" xmlns="http://www.w3.org/2000/svg" p-id="1276" width="16" height="16"><path d="M66.756 556.854h68.448v-441.48c0-25.06 9.81-47.382 24.97-64.028C175.823 34.711 197.093 24.3 220.495 24.3h592.104c23.413 0 44.639 10.411 60.688 27.046l1.07 0.857c14.317 16.646 23.366 38.681 23.366 63.171v441.489h68.618c20.741 0 37.545 17.682 37.545 39.715v361.94c0 22.324-16.804 40.108-37.545 40.108H66.756c-20.73 0-37.184-17.784-37.184-40.108v-361.94c0-22.033 16.453-39.724 37.184-39.724m113.349 0h106.388c19.621 0 36.168 16.08 37.777 36.416 7.395 48.434 31.384 91.639 65.405 121.817 34.021 31.395 78.479 50.116 127.172 50.116 48.377 0 92.25-18.722 126.585-50.116 34.294-31.024 59.04-74.723 65.951-124.656 3.206-19.483 18.904-33.577 37.227-33.577h106.441v-441.48c0-11.534-4.325-22.035-10.661-29.224l-1.07-1.507c-7.444-7.668-17.614-12.668-28.712-12.668H220.495c-11.135 0-21.263 5-28.441 12.668-7.172 7.567-11.948 18.537-11.948 30.73v441.481" fill="#3EC4F9" p-id="1277"></path><path d="M305.34 377.061l142.638 151.541c13.794 14.219 36.635 14.219 50.434 0l256.79-272.37c14.266-15.127 14.266-38.861 0-53.988-13.755-14.856-36.685-14.856-50.399 0l-231.586 245.38-116.969-124.093c-13.67-14.311-36.643-14.948-50.396 0-14.307 14.575-14.521 38.857-0.512 53.53" fill="#62AD7C" p-id="1278"></path><path d="M735.838 846.072H318.463c-7.684 0-13.914 6.222-13.914 13.914v27.824c0 7.676 6.23 13.914 13.914 13.914h417.375c7.684 0 13.914-6.238 13.914-13.914v-27.824c0-7.692-6.231-13.914-13.914-13.914z" fill="#FFFFFF" p-id="1279"></path><path d="M728.838 880.857a6.959 6.959 0 0 1-6.957 6.953H318.42a6.962 6.962 0 0 1-6.957-6.953v-13.918c0-1.845 0.731-3.613 2.035-4.918a6.934 6.934 0 0 1 4.922-2.035h403.461a6.95 6.95 0 0 1 6.957 6.953v13.918z" fill="#FFFFFF" p-id="1280"></path></svg>