<?xml version="1.0" encoding="UTF-8"?>
<svg width="16px" height="16px" viewBox="0 0 16 16" version="1.1" xmlns="http://www.w3.org/2000/svg" xmlns:xlink="http://www.w3.org/1999/xlink">
    <title>batchmove</title>
    <g id="DSS-1.1.19版本-1222" stroke="none" stroke-width="1" fill="none" fill-rule="evenodd">
        <g id="DSS-Scriptis-脚本运行提示备份-6" transform="translate(-1250.000000, -402.000000)" fill-rule="nonzero">
            <g id="batchmove" transform="translate(1250.000000, 402.000000)">
                <rect id="矩形" opacity="0" x="0" y="0" width="16" height="16"></rect>
                <path d="M10.9421875,3.36875 L2.65,3.36875 C1.7375,3.36875 0.99375,4.1125 0.99375,5.025 L0.99375,13.31875 C0.99375,14.23125 1.7359375,14.975 2.65,14.975 L10.94375,14.975 C11.85625,14.975 12.6,14.2328125 12.6,13.31875 L12.6,5.025 C12.5984375,4.1125 11.85625,3.36875 10.9421875,3.36875 Z M11.3484375,13.31875 C11.3484375,13.5390625 11.1625,13.725 10.9421875,13.725 L2.65,13.725 C2.4296875,13.725 2.24375,13.5390625 2.24375,13.31875 L2.24375,5.025 C2.24375,4.8046875 2.4296875,4.61875 2.65,4.61875 L10.94375,4.61875 C11.1640625,4.61875 11.35,4.8046875 11.35,5.025 L11.35,13.31875 L11.3484375,13.31875 Z M14.9953125,2.66875 C14.9953125,1.75625 14.253125,1.0125 13.3390625,1.0125 L5.484375,1.0125 C5.1390625,1.0125 4.859375,1.2921875 4.859375,1.6375 C4.859375,1.9828125 5.1390625,2.2625 5.484375,2.2625 L13.3390625,2.2625 C13.559375,2.2625 13.7453125,2.4484375 13.7453125,2.66875 L13.7453125,10.5828125 C13.7453125,10.928125 14.025,11.2078125 14.3703125,11.2078125 C14.715625,11.2078125 14.9953125,10.928125 14.9953125,10.5828125 L14.9953125,2.66875 L14.9953125,2.66875 Z M9.615625,7.8375 L8.34375,6.565625 C8.096875,6.31875 7.6953125,6.31875 7.4484375,6.565625 C7.2015625,6.8125 7.2015625,7.2140625 7.4484375,7.4609375 L7.5625,7.575 C7.2890625,7.65625 7.0203125,7.759375 6.7609375,7.88125 C6.0984375,8.1953125 5.509375,8.628125 5.0109375,9.1703125 C4.5125,9.7125 4.1296875,10.3359375 3.871875,11.021875 C3.865625,11.0359375 3.8609375,11.0515625 3.85625,11.065625 C3.8125,11.1546875 3.790625,11.25625 3.7953125,11.3640625 C3.809375,11.709375 4.1015625,11.9765625 4.4453125,11.9625 C4.721875,11.9515625 4.95,11.7609375 5.0203125,11.5078125 L5.0265625,11.509375 C5.4765625,10.2703125 6.4671875,9.2796875 7.721875,8.8390625 L7.45,9.1109375 C7.203125,9.3578125 7.203125,9.759375 7.45,10.00625 C7.696875,10.253125 8.0984375,10.253125 8.3453125,10.00625 L9.6171875,8.734375 C9.8609375,8.4875 9.8609375,8.084375 9.615625,7.8375 Z" id="形状" fill="#000000"></path>
            </g>
        </g>
    </g>
</svg>