<svg width="1024px" height="1024px" viewBox="0 0 1024 1024" version="1.1" xmlns="http://www.w3.org/2000/svg" xmlns:xlink="http://www.w3.org/1999/xlink">
  <path d="M396.82953,0 C427.898492,0 458.168113,3.42238553 487.281968,9.91073087 L487.273499,9.94167327 C501.208508,13.4017487 511.536383,25.994772 511.536383,41 L511.536989,136.640208 C536.351863,146.898928 559.490345,160.39088 580.427331,176.59096 L665.13658,128.282797 C680.431044,119.560444 699.898666,124.832192 708.702075,140.080144 L708.786775,140.226849 C709.485683,141.437393 710.096039,142.674763 710.619852,143.931458 C745.826661,184.799856 773.185088,232.622139 790.355397,285.057702 C797.051546,299.823239 791.571108,317.545132 777.236865,325.821011 L777.147028,325.872684 L694.271013,373.363046 C696.070586,386.652118 697,400.217521 697,414 C697,427.560554 696.100276,440.910966 694.357266,453.994798 L777.26213,502.020286 C791.644099,510.351509 797.115873,528.166397 790.342343,542.982013 C772.38516,597.801698 743.292187,647.577682 705.737417,689.636242 C696.444632,703.485905 677.877563,707.95597 663.211302,699.509115 L580.114366,651.650869 C559.259615,667.743596 536.227783,681.152453 511.536183,691.360125 L511.536383,787 C511.536383,802.479879 500.544783,815.392532 485.940492,818.35905 L485.945838,818.384709 C457.242373,824.681461 427.423495,828 396.82953,828 C366.287474,828 336.517877,824.692712 307.859335,818.416734 L307.828354,818.065534 C293.878633,814.615771 283.536383,802.015666 283.536383,787 L283.536516,691.801144 C258.32097,681.491576 234.821904,667.848671 213.587073,651.420184 L129.976626,699.908815 C114.718295,708.757924 95.1753532,703.562224 86.3262438,688.303893 L86.2638958,688.196024 C86.0455686,687.81787 85.835836,687.437109 85.6346378,687.053968 C50.0429208,646.522637 22.2431692,598.979595 4.57637062,546.765443 C4.47964217,546.603878 4.38326141,546.440481 4.28812172,546.27592 C4.28495531,546.270443 4.28179053,546.264965 4.29505875,546.25 C-4.54303185,530.941978 0.695599855,511.367922 15.9983773,502.520754 L99.6635573,454.150797 C97.9068907,441.01709 97,427.614453 97,414 C97,400.271563 97.9221397,386.758504 99.7078577,373.519383 L16.0366731,325.412823 C0.743000524,316.619743 -4.52677091,297.093572 4.26630918,281.7999 L4.32387929,281.700081 L4.54877483,281.316145 C22.2084242,229.087052 50.0061564,181.529654 85.6001345,140.985787 C85.815112,140.573135 86.04009,140.162744 86.2750392,139.755369 C86.2774805,139.751136 86.2799228,139.746904 86.2950588,139.75 C95.1328002,124.442583 114.703734,119.193762 130.015199,128.02449 L213.851168,176.37573 C235.01662,160.038369 258.425316,146.465786 283.536287,136.19895 L283.536383,40.5359056 C283.536383,24.1695015 295.823001,10.6727907 311.675577,8.76643271 L311.251078,8.85547015 C338.864332,3.05187024 367.49053,0 396.82953,0 Z M396.82953,64 C380.098331,64 363.64133,65.1739832 347.536409,67.4440681 L347.536383,159 C347.536383,174.872271 335.980479,188.045516 320.823057,190.565347 C291.537626,200.546304 264.842812,216.123245 242.012382,236.021171 C232.212248,247.682677 215.175315,251.0059 201.519148,243.144944 L121.984691,197.273433 C101.402941,223.338762 84.4498513,252.401931 71.8877228,283.700638 L151.677261,329.575238 C165.870755,337.735772 171.430651,355.14073 165.128446,369.827489 C162.417624,384.136545 161,398.902721 161,414 C161,428.701083 162.344196,443.088213 164.916385,457.045187 C171.617401,471.859509 166.127514,489.630441 151.76778,497.952999 L71.8344499,544.166553 C84.3835212,575.469996 101.324187,604.539206 121.894262,630.611996 L201.444636,584.476643 C215.507484,576.320857 233.209851,580.095289 242.825315,592.682345 C265.475444,612.244971 291.88481,627.57215 320.823151,637.435445 C335.980988,639.955064 347.536383,653.128078 347.536383,669 L347.53628,760.555914 C363.641242,762.82601 380.098286,764 396.82953,764 C414.050733,764 430.981442,762.756245 447.536729,760.353663 L447.536383,669 C447.536383,653.836541 458.083223,641.136429 472.241298,637.835268 L472.235189,637.75417 C502.834302,627.469615 530.631331,611.084207 554.180579,590.043646 L554.335749,590.158536 C564.321275,580.227725 580.075265,577.772286 592.863492,585.13751 L671.782164,630.589984 C692.397285,604.455812 709.366144,575.3117 721.921309,543.92508 L643.580685,498.543632 C631.275951,491.415715 625.49343,477.345809 628.321801,464.151602 L627.714658,463.899417 C631.177046,447.814398 633,431.120086 633,414 C633,397.467036 631.299936,381.331144 628.065088,365.757601 L628.44702,365.577867 C624.357728,351.764029 630.072388,336.444346 643.097622,328.924224 L643.187459,328.872551 L721.817606,283.815976 C709.356663,252.737237 692.566856,223.861028 672.194135,197.933298 L593.157568,243.007109 C580.485556,250.233891 564.948788,247.854119 554.986265,238.153037 L554.677077,238.401216 C530.962374,217.092765 502.90764,200.51883 472.000575,190.167113 L472.005138,190.108716 C457.9661,186.722066 447.536383,174.079028 447.536383,159 L447.536435,67.6462945 C430.981241,65.2437399 414.050631,64 396.82953,64 Z M397,260 C482.051851,260 551,328.948149 551,414 C551,499.051851 482.051851,568 397,568 C311.948149,568 243,499.051851 243,414 C243,328.948149 311.948149,260 397,260 Z M397,324 C347.294373,324 307,364.294373 307,414 C307,463.705627 347.294373,504 397,504 C446.705627,504 487,463.705627 487,414 C487,364.294373 446.705627,324 397,324 Z" id="path-1"></path>
</svg>
