<svg width="1024px" height="1024px" viewBox="0 0 1024 1024" version="1.1" xmlns="http://www.w3.org/2000/svg" xmlns:xlink="http://www.w3.org/1999/xlink">
  <path d="M572,0.0193359835 C589.496381,0.0193359835 603.713128,14.0611189 603.995713,31.4901575 L604,32.019336 L604,152.019336 L798,152.019336 C815.496381,152.019336 829.713128,166.061119 829.995713,183.490157 L830,184.019336 L830,864.019336 C830,881.515717 815.958217,895.732464 798.529179,896.015049 L798,896.019336 L208,896.019336 C190.503619,896.019336 176.286872,881.977553 176.004287,864.548514 L176,864.019336 L176,744.019336 L32,744.019336 C14.5036191,744.019336 0.286872383,729.977553 0.00428708574,712.548514 L0,712.019336 L0,32.019336 C2.14268868e-15,14.5229551 14.0417829,0.306208366 31.4708215,0.0236230691 L32,0.0193359833 L572,0.0193359835 Z M766,216.018336 L240,216.018336 L240,832.019336 L766,832.019336 L766,216.018336 Z M656.307238,567.814519 C664.821102,567.554586 673.418948,570.673782 679.917272,577.172106 C692.41405,589.668884 692.41405,609.930163 679.917272,622.42694 L679.917272,622.42694 L589.407604,712.936608 C576.910827,725.433386 556.649548,725.433386 544.15277,712.936608 C531.655993,700.439831 531.655993,680.178552 544.15277,667.681774 L544.15277,667.681774 L580.019855,631.815191 L349.219813,631.814878 C331.546701,631.814878 317.219813,617.48799 317.219813,599.814878 C317.219813,582.141766 331.546701,567.814878 349.219813,567.814878 L349.219813,567.814878 Z M540,64.019336 L64,64.019336 L64,680.019336 L176,680.019336 L176,184.019336 C176,166.522955 190.041783,152.306208 207.470821,152.023623 L208,152.019336 L540,152.019336 L540,64.019336 Z M417.102064,334.172106 C429.598841,321.675329 449.86012,321.675329 462.356898,334.172106 C474.853675,346.668884 474.853675,366.930163 462.356898,379.42694 L462.356898,379.42694 L426.489813,415.293523 L657.289855,415.293836 C674.962967,415.293836 689.289855,429.620724 689.289855,447.293836 C689.289855,464.966948 674.962967,479.293836 657.289855,479.293836 L657.289855,479.293836 L350.20243,479.294195 C341.688566,479.554128 333.09072,476.434932 326.592396,469.936608 C314.095618,457.439831 314.095618,437.178552 326.592396,424.681774 L326.592396,424.681774 Z" id="path-1"></path>
</svg>
