<svg width="1024px" height="1024px" viewBox="0 0 1024 1024" version="1.1" xmlns="http://www.w3.org/2000/svg" xmlns:xlink="http://www.w3.org/1999/xlink">
  <path d="M32,0 C49.4963809,0 63.7131276,14.0417829 63.9957129,31.4708215 L64,32 L64,704 L796,704 C813.496381,704 827.713128,718.041783 827.995713,735.470821 L828,736 C828,753.496381 813.958217,767.713128 796.529179,767.995713 L796,768 L32,768 C14.5036191,768 0.286872383,753.958217 0.00428708574,736.529179 L0,736 L0,32 C2.164332e-15,14.326888 14.326888,0 32,0 Z M739.473104,211.372583 C751.969882,223.86936 751.969882,244.13064 739.473104,256.627417 L507.204552,488.895827 C506.836404,489.303538 506.455906,489.704058 506.063059,490.096905 C493.691249,502.468715 473.709451,502.592433 461.185442,490.46806 L460.808225,490.096905 L321.96,351.249 L174.627417,498.582187 C162.13064,511.078964 141.86936,511.078964 129.372583,498.582187 C116.875806,486.08541 116.875806,465.82413 129.372583,453.327353 L299.07821,283.621725 C305.265235,277.434701 313.355446,274.310808 321.464347,274.250046 L321.960818,274.250154 C330.069338,274.186017 338.197773,277.184888 344.461561,283.246763 L344.842712,283.621725 L483.406,422.185 L694.21827,211.372583 C706.715048,198.875806 726.976327,198.875806 739.473104,211.372583 Z" id="path-1"></path>
</svg>
