<?xml version="1.0" encoding="UTF-8"?>
<svg width="1024px" height="1024px" viewBox="0 0 1024 1024" version="1.1" xmlns="http://www.w3.org/2000/svg" xmlns:xlink="http://www.w3.org/1999/xlink">
    <title>api</title>
    <defs>
        <path d="M647,0 C664.673112,0 679,14.326888 679,32 L679,32 L679,104 L788,104 C805.496381,104 819.713128,118.041783 819.995713,135.470821 L820,136 L820,215.5 L862,215.5 C879.673112,215.5 894,229.826888 894,247.5 C894,265.173112 879.673112,279.5 862,279.5 L820,279.5 L820,415.5 L862,415.5 C879.673112,415.5 894,429.826888 894,447.5 C894,465.173112 879.673112,479.5 862,479.5 L820,479.5 L820,615.5 L862,615.5 C879.673112,615.5 894,629.826888 894,647.5 C894,665.173112 879.673112,679.5 862,679.5 L820,679.5 L820,758 C820,775.496381 805.958217,789.713128 788.529179,789.995713 L788,790 L679,790 L679,863 C679,880.496381 664.958217,894.713128 647.529179,894.995713 L647,895 C629.326888,895 615,880.673112 615,863 L615,863 L615,790 L479,790 L479,863 C479,880.496381 464.958217,894.713128 447.529179,894.995713 L447,895 C429.326888,895 415,880.673112 415,863 L415,863 L415,790 L279,790 L279,863 C279,880.496381 264.958217,894.713128 247.529179,894.995713 L247,895 C229.326888,895 215,880.673112 215,863 L215,863 L215,790 L106,790 C88.5036191,790 74.2868724,775.958217 74.0042871,758.529179 L74,758 L74,679.5 L32,679.5 C14.326888,679.5 0,665.173112 0,647.5 C0,629.826888 14.326888,615.5 32,615.5 L74,615.5 L74,479.5 L32,479.5 C14.326888,479.5 0,465.173112 0,447.5 C0,429.826888 14.326888,415.5 32,415.5 L74,415.5 L74,279.5 L32,279.5 C14.326888,279.5 0,265.173112 0,247.5 C0,229.826888 14.326888,215.5 32,215.5 L74,215.5 L74,136 C74,118.503619 88.0417829,104.286872 105.470821,104.004287 L106,104 L215,104 L215,32 C215,14.5036191 229.041783,0.286872383 246.470821,0.00428708574 L247,0 C264.673112,0 279,14.326888 279,32 L279,32 L279,104 L415,104 L415,32 C415,14.5036191 429.041783,0.286872383 446.470821,0.00428708574 L447,0 C464.673112,0 479,14.326888 479,32 L479,32 L479,104 L615,104 L615,32 C615,14.5036191 629.041783,0.286872383 646.470821,0.00428708574 Z M756,168 L138,168 L138,726 L756,726 L756,168 Z" id="path-1"></path>
    </defs>
    <g id="api" stroke="none" stroke-width="1" fill="none" fill-rule="evenodd">
        <g id="00-color/中性色/323232" transform="translate(65.000000, 65.000000)">
            <mask id="mask-2" fill="white">
                <use xlink:href="#path-1"></use>
            </mask>
            <use id="蒙版" fill="#D8D8D8" xlink:href="#path-1"></use>
            <g id="编组" mask="url(#mask-2)">
                <g transform="translate(-65.000000, -65.000000)" id="00-color/中性色/323232">
                    <rect id="矩形" fill="currentColor" x="0" y="0" width="1024" height="1024"></rect>
                </g>
            </g>
        </g>
        <path d="M434.84,639.38 C437.36,641.9 440.66,643.04 444.74,642.8 C450.98,642.8 454.94,640.82 456.62,636.86 C458.3,632.9 458.18,628.04 456.26,622.28 L380.3,401.6 C379.1,397.76 376.94,394.7 373.82,392.42 C370.7,390.14 366.62,389 361.58,389 C356.78,389 352.88,390.14 349.88,392.42 C346.88,394.7 344.78,397.76 343.58,401.6 L267.98,621.56 C265.34,629.72 265.34,635.3 267.98,638.3 C270.62,641.3 274.34,642.8 279.14,642.8 C281.78,642.8 284.12,642.02 286.16,640.46 C288.2,638.9 290,636.8 291.56,634.16 C293.12,631.52 294.5,628.64 295.7,625.52 C296.9,622.4 298.1,619.16 299.3,615.8 L314.06,574.4 L409.46,574.4 L429.26,629.48 C430.46,633.56 432.32,636.86 434.84,639.38 Z M402.98,549.2 L320.9,549.2 L361.94,425.72 L402.98,549.2 Z M528.46,642.8 C533.5,642.8 537.1,641.54 539.26,639.02 C541.42,636.5 542.5,632.96 542.5,628.4 L542.5,545.6 L591.46,545.6 C644.5,545.6 671.02,519.92 671.02,468.56 C671.02,442.4 664.54,423.26 651.58,411.14 C638.62,399.02 618.58,392.96 591.46,392.96 L534.58,392.96 C525.94,392.96 520.36,394.1 517.84,396.38 C515.32,398.66 514.06,403.28 514.06,410.24 L514.06,628.4 C514.06,632.48 515.14,635.9 517.3,638.66 C519.46,641.42 523.18,642.8 528.46,642.8 Z M542.5,521.12 L542.5,418.16 L591.46,418.16 C608.02,418.16 620.74,422.12 629.62,430.04 C638.5,437.96 642.94,450.92 642.94,468.92 C642.94,486.92 638.98,500.12 631.06,508.52 C623.14,516.92 609.94,521.12 591.46,521.12 L542.5,521.12 Z M743.58,642.8 C753.18,642.8 757.98,638.24 757.98,629.12 L757.98,402.32 C757.98,397.52 756.78,394.1 754.38,392.06 C751.98,390.02 748.38,389 743.58,389 C734.46,389 729.9,393.44 729.9,402.32 L729.9,629.48 C729.9,638.36 734.46,642.8 743.58,642.8 Z" id="API" stroke="currentColor" stroke-width="34" fill="currentColor" fill-rule="nonzero"></path>
    </g>
</svg>
