<svg width="1024px" height="1024px" viewBox="0 0 1024 1024" version="1.1" xmlns="http://www.w3.org/2000/svg"
  xmlns:xlink="http://www.w3.org/1999/xlink">
  <path
    d="M215,0 C258.212939,0 298.448266,12.7486715 332.150045,34.6900782 C332.948476,35.1478432 333.733955,35.6437682 334.503863,36.1781281 L335.078333,36.5861089 L336.035182,37.2798847 C339.547846,39.6767948 342.985788,42.1751279 346.344792,44.7706688 L365.011962,58.3341632 C379.30981,68.7221578 382.479372,88.7339871 372.091377,103.031835 C361.807263,117.186705 342.090828,120.434741 327.82434,110.418826 L327.393705,110.111251 L299.391169,89.7652175 C275.298162,73.4979184 246.25826,64 215,64 C131.605003,64 64,131.605003 64,215 C64,298.394997 131.605003,366 215,366 C244.81036,366 272.603114,357.3616 296.011595,342.451469 C296.480397,342.067301 296.963526,341.694929 297.460077,341.334163 L327.393705,319.586109 C341.691553,309.198114 361.703383,312.367677 372.091377,326.665525 C382.479372,340.963373 379.30981,360.975202 365.011962,371.363197 L350.814352,381.680353 C313.788702,411.885934 266.509734,430 215,430 C96.2587788,430 1.87583282e-12,333.741221 1.87583282e-12,215 C1.87583282e-12,96.2587788 96.2587788,0 215,0 Z M681.205104,0 C799.946325,0 896.205104,96.2587788 896.205104,215 C896.205104,333.741221 799.946325,430 681.205104,430 C629.695369,430 582.416402,411.885934 545.390752,381.680353 L545.390752,381.680353 L531.193142,371.363197 C516.895294,360.975202 513.725732,340.963373 524.113726,326.665525 C534.501721,312.367677 554.51355,309.198114 568.811398,319.586109 L568.811398,319.586109 L598.745027,341.334163 C599.241578,341.694929 599.724707,342.067301 600.193509,342.451469 C623.601989,357.3616 651.394743,366 681.205104,366 C764.600101,366 832.205104,298.394997 832.205104,215 C832.205104,131.605003 764.600101,64 681.205104,64 C649.946844,64 620.906941,73.4979184 596.813935,89.7652175 L596.813935,89.7652175 L568.811398,110.111251 L568.380764,110.418826 C554.114276,120.434741 534.397841,117.186705 524.113726,103.031835 C513.725732,88.7339871 516.895294,68.7221578 531.193142,58.3341632 L531.193142,58.3341632 L549.860312,44.7706688 C553.219316,42.1751279 556.657257,39.6767948 560.169922,37.2798847 L560.169922,37.2798847 L561.126771,36.5861089 L561.701241,36.1781281 C562.471148,35.6437682 563.256628,35.1478432 564.055059,34.6900782 C597.756838,12.7486715 637.992165,0 681.205104,0 Z M656,183 C673.673112,183 688,197.326888 688,215 C688,232.673112 673.673112,247 656,247 L656,247 L240,247 C222.326888,247 208,232.673112 208,215 C208,197.326888 222.326888,183 240,183 L240,183 Z"
    id="path-1"></path>
</svg>
