<svg width="1024px" height="1024px" viewBox="0 0 1024 1024" version="1.1" xmlns="http://www.w3.org/2000/svg" xmlns:xlink="http://www.w3.org/1999/xlink">

        <path d="M558,0 C567.693941,0 576.381113,4.31048888 582.249381,11.1193314 L818.840987,247.711939 C823.252532,252.123483 826.106737,257.502634 827.403602,263.166233 C828.063797,265.619132 828.439379,268.18826 828.493255,270.836353 L828.5,271.5 L828.5,528.5 C828.5,530.431818 828.328818,532.323654 828.000795,534.161167 L828,794 C828,811.673112 813.673112,826 796,826 L32,826 C14.326888,826 2.164332e-15,811.673112 0,794 L0,32 C-2.164332e-15,14.326888 14.326888,3.24649801e-15 32,0 L558,0 Z M544.62,64 L468,64 L468,178 L467.995713,178.529179 C467.713128,195.958217 453.496381,210 436,210 L436,210 L182,210 L181.470821,209.995713 C164.041783,209.713128 150,195.496381 150,178 L150,178 L150,64 L64,64 L64,762 L150,762 L150,527 C150,509.503619 164.041783,495.286872 181.470821,495.004287 L182,495 L182,495 L646,495 L646,495 L646.529179,495.004287 C663.958217,495.286872 678,509.503619 678,527 L678,527 L678,762 L764,762 L764,386 L764.5,386 L764.5,283.88 L544.62,64 Z M614,669 L214,669 L214,762 L614,762 L614,669 Z M614,559 L214,559 L214,605 L614,605 L614,559 Z M404,64 L214,64 L214,146 L404,146 L404,64 Z" id="path-1"></path>

    </svg>
