<svg width="1024px" height="1024px" viewBox="0 0 1024 1024" version="1.1" xmlns="http://www.w3.org/2000/svg" xmlns:xlink="http://www.w3.org/1999/xlink">

        <path d="M448,0 C695.423568,0 896,200.576432 896,448 C896,695.423568 695.423568,896 448,896 C200.576432,896 0,695.423568 0,448 C0,200.576432 200.576432,0 448,0 Z M448,64 C235.922656,64 64,235.922656 64,448 C64,660.077344 235.922656,832 448,832 C660.077344,832 832,660.077344 832,448 C832,235.922656 660.077344,64 448,64 Z M626,576 C643.673112,576 658,590.326888 658,608 C658,625.673112 643.673112,640 626,640 L270,640 C252.326888,640 238,625.673112 238,608 C238,590.326888 252.326888,576 270,576 L626,576 Z M270,416 L626,416 C643.673112,416 658,430.326888 658,448 C658,465.673112 643.673112,480 626,480 L270,480 C252.326888,480 238,465.673112 238,448 C238,430.326888 252.326888,416 270,416 Z M270,256 L626,256 C643.673112,256 658,270.326888 658,288 C658,305.673112 643.673112,320 626,320 L270,320 C252.326888,320 238,305.673112 238,288 C238,270.326888 252.326888,256 270,256 Z" id="path-1"></path>

    </svg>
