<svg width="1024px" height="1024px" viewBox="0 0 1024 1024" version="1.1" xmlns="http://www.w3.org/2000/svg" xmlns:xlink="http://www.w3.org/1999/xlink">

        <path d="M32,790 C14.326888,790 -2.164332e-15,775.673112 0,758 L0,32 C2.164332e-15,14.326888 14.326888,0 32,0 L32,0 L864,0 C881.673112,0 896,14.326888 896,32 L896,32 L896,758 L896,758 C896,775.496381 881.958217,789.713128 864.529179,789.995713 L864,790 L864,790 L32,790 Z M261,574 L64,574 L64,726 L261,726 L261,574 Z M832,574 L635,574 L635,726 L832,726 L832,574 Z M571,574 L325,574 L325,726 L571,726 L571,574 Z M261,357 L64,357 L64,510 L261,510 L261,357 Z M832,357 L635,357 L635,510 L832,510 L832,357 Z M571,357 L325,357 L325,510 L571,510 L571,357 Z M832,64 L64,64 L64,293 L832,293 L832,64 Z" id="path-1"></path>

    </svg>
