<svg width="1024px" height="1024px" viewBox="0 0 1024 1024" version="1.1" xmlns="http://www.w3.org/2000/svg" xmlns:xlink="http://www.w3.org/1999/xlink">

        <path d="M557.673792,523.062046 L558.167559,523.115374 L750.825162,523.117009 C768.498274,523.117009 782.825162,537.443897 782.825162,555.117009 C782.825162,572.61339 768.783379,586.830137 751.354341,587.112722 L750.825162,587.117009 L631.934684,587.116792 L816.094282,771.276389 L816.465436,771.653606 C828.468565,784.052375 828.467341,803.760523 816.461761,816.157801 L816.094282,816.531223 L815.717064,816.902377 C803.318295,828.905507 783.610147,828.904282 771.21287,816.898703 L770.839448,816.531223 L586.46489,632.156665 L586.464772,751.477399 L586.460485,752.006578 C586.1779,769.435616 571.961153,783.477399 554.464772,783.477399 C536.968392,783.477399 522.751645,769.435616 522.46906,752.006578 L522.464772,751.477399 L522.464772,555.477399 L522.466187,555.203552 C522.388478,546.913721 525.512201,538.599451 531.837355,532.274297 C538.902982,525.208671 548.450706,522.13792 557.673792,523.062046 Z M268.23703,523.062046 C277.460116,522.13792 287.00784,525.208671 294.073466,532.274297 C300.398621,538.599451 303.522344,546.913721 303.444635,555.203552 L303.444635,555.203552 L303.446049,555.477399 L303.446049,751.477399 L303.441762,752.006578 C303.159177,769.435616 288.94243,783.477399 271.446049,783.477399 C253.949668,783.477399 239.732922,769.435616 239.450336,752.006578 L239.450336,752.006578 L239.446049,751.477399 L239.446639,632.157372 L55.0713742,816.531223 L54.697952,816.898703 C42.3006744,828.904282 22.5925266,828.905507 10.1937573,816.902377 L10.1937573,816.902377 L9.81654019,816.531223 L9.44906033,816.157801 C-2.55651893,803.760523 -2.55774374,784.052375 9.4453859,771.653606 L9.4453859,771.653606 L9.81654019,771.276389 L193.976844,587.117499 L75.0856595,587.117009 L74.556481,587.112722 C57.1274425,586.830137 43.0856595,572.61339 43.0856595,555.117009 C43.0856595,537.443897 57.4125475,523.117009 75.0856595,523.117009 L75.0856595,523.117009 L267.743262,523.115374 Z M815.717064,9.09762279 L816.094282,9.46877708 C828.466091,21.8405866 828.589809,41.8223846 816.465436,54.3463939 L816.094282,54.7236111 L631.934684,238.883208 L750.825162,238.882991 C768.498274,238.882991 782.825162,253.209879 782.825162,270.882991 C782.825162,288.556103 768.498274,302.882991 750.825162,302.882991 L558.167559,302.884626 C548.792487,303.970476 539.029154,300.917501 531.837355,293.725703 C525.512201,287.400549 522.388478,279.086279 522.466187,270.796448 L522.464772,270.522601 L522.464772,74.5226009 C522.464772,56.849489 536.79166,42.5226009 554.464772,42.5226009 C571.961153,42.5226009 586.1779,56.5643839 586.460485,73.9934224 L586.464772,74.5226009 L586.46489,193.843335 L770.839448,9.46877708 C783.211257,-2.90303248 803.193055,-3.02675058 815.717064,9.09762279 Z M10.1937573,9.09762279 C22.7177667,-3.02675058 42.6995646,-2.90303248 55.0713742,9.46877708 L55.0713742,9.46877708 L239.445225,193.841213 L239.446049,74.5226009 L239.450336,73.9934224 C239.732922,56.5643839 253.949668,42.5226009 271.446049,42.5226009 C289.119161,42.5226009 303.446049,56.849489 303.446049,74.5226009 L303.446049,74.5226009 L303.446049,270.522601 L303.444635,270.796448 C303.522344,279.086279 300.398621,287.400549 294.073466,293.725703 C286.881668,300.917501 277.118334,303.970476 267.743262,302.884626 L267.743262,302.884626 L75.0856595,302.882991 C57.4125475,302.882991 43.0856595,288.556103 43.0856595,270.882991 C43.0856595,253.209879 57.4125475,238.882991 75.0856595,238.882991 L75.0856595,238.882991 L193.976844,238.882501 L9.81654019,54.7236111 L9.4453859,54.3463939 C-2.67898747,41.8223846 -2.55526937,21.8405866 9.81654019,9.46877708 L9.81654019,9.46877708 Z" id="path-1"></path>

    </svg>
