<svg width="1024px" height="1024px" viewBox="0 0 1024 1024" version="1.1" xmlns="http://www.w3.org/2000/svg"
  xmlns:xlink="http://www.w3.org/1999/xlink">
  <path
    d="M804,97 C821.673112,97 836,111.326888 836,129 L836,129 L836.001476,223.204227 C888.416058,237.288855 927,285.138546 927,342 C927,398.861454 888.416058,446.711145 836.001476,460.795773 L836,895 C836,912.673112 821.673112,927 804,927 C786.326888,927 772,912.673112 772,895 L772,895 L771.999525,460.796042 C719.584433,446.711755 681,398.861816 681,342 C681,285.138184 719.584433,237.288245 771.999525,223.203958 L772,129 C772,111.326888 786.326888,97 804,97 Z M513.5,97 C531.173112,97 545.5,111.326888 545.5,129 L545.5,129 L545.5,393 C545.5,393.205907 545.498055,393.411359 545.494183,393.61634 C597.146798,408.200226 635,455.679569 635,512 C635,568.31788 597.150227,615.795473 545.500852,630.382607 L545.5,895 C545.5,912.673112 531.173112,927 513.5,927 C495.826888,927 481.5,912.673112 481.5,895 L481.5,895 L481.499279,631.188842 C428.322104,617.62142 389,569.402795 389,512 C389,454.597205 428.322104,406.37858 481.499279,392.811158 L481.5,129 C481.5,111.326888 495.826888,97 513.5,97 Z M220,97 C237.673112,97 252,111.326888 252,129 L252,129 L252.001476,563.204227 C304.416058,577.288855 343,625.138546 343,682 C343,738.861454 304.416058,786.711145 252.001476,800.795773 L252,895 C252,912.673112 237.673112,927 220,927 C202.326888,927 188,912.673112 188,895 L188,895 L187.999525,800.796042 C135.584433,786.711755 97,738.861816 97,682 C97,625.138184 135.584433,577.288245 187.999525,563.203958 L188,129 C188,111.326888 202.326888,97 220,97 Z M220,623 C187.4152,623 161,649.4152 161,682 C161,714.5848 187.4152,741 220,741 C252.5848,741 279,714.5848 279,682 C279,649.4152 252.5848,623 220,623 Z M512,453 C479.4152,453 453,479.4152 453,512 C453,544.5848 479.4152,571 512,571 C544.5848,571 571,544.5848 571,512 C571,479.4152 544.5848,453 512,453 Z M804,283 C771.4152,283 745,309.4152 745,342 C745,374.5848 771.4152,401 804,401 C836.5848,401 863,374.5848 863,342 C863,309.4152 836.5848,283 804,283 Z"
    id="形状结合"
    transform="translate(512.000000, 512.000000) scale(-1, 1) translate(-512.000000, -512.000000) "></path>
</svg>
