<svg width="1024px" height="1024px" viewBox="0 0 1024 1024" version="1.1" xmlns="http://www.w3.org/2000/svg" xmlns:xlink="http://www.w3.org/1999/xlink">

        <path d="M512,64 C512.182432,64 512.364508,64.0015266 512.546215,64.0045678 L512,64 C759.423568,64 960,264.576432 960,512 C960,759.423568 759.423568,960 512,960 C264.576432,960 64,759.423568 64,512 C64,264.759437 264.279833,64.2967347 511.451063,64.0003291 C511.634823,64.0015322 511.817233,64 512,64 Z M284.208694,544.003204 L129.314527,544.002017 C144.705755,730.554243 293.446624,879.294805 479.998985,894.685555 L479.997796,739.791446 C378.579274,725.673263 298.32731,645.421586 284.208694,544.003204 Z M544.003204,739.791306 L544.002017,894.685473 C730.553909,879.294272 879.294272,730.553909 894.685473,544.002017 L739.791306,544.003204 C725.672736,645.421253 645.421253,725.672736 544.003204,739.791306 Z M512,346 C420.320732,346 346,420.320732 346,512 C346,603.679268 420.320732,678 512,678 C603.679268,678 678,603.679268 678,512 C678,420.320732 603.679268,346 512,346 Z M544.002017,129.314527 L544.003204,284.208694 C645.421586,298.32731 725.673263,378.579274 739.791446,479.997796 L894.685555,479.998985 C879.294805,293.446624 730.554243,144.705755 544.002017,129.314527 Z M479.997796,284.208554 L479.998985,129.314445 C293.44629,144.705223 144.705223,293.44629 129.314445,479.998985 L284.208554,479.997796 C298.326783,378.578941 378.578941,298.326783 479.997796,284.208554 Z" id="path-1"></path>

    </svg>
