<svg width="1024px" height="1024px" viewBox="0 0 1024 1024" version="1.1" xmlns="http://www.w3.org/2000/svg"
  xmlns:xlink="http://www.w3.org/1999/xlink">
  <path
    d="M818.465079,9.53492116 C830.961856,22.0316985 830.961856,42.2929778 818.465079,54.7897552 L459.254338,413.999338 L818.465079,773.210245 C830.961856,785.707022 830.961856,805.968302 818.465079,818.465079 C805.968302,830.961856 785.707022,830.961856 773.210245,818.465079 L413.999338,459.254338 L54.7897552,818.465079 C42.2929778,830.961856 22.0316985,830.961856 9.53492116,818.465079 C-2.96185617,805.968302 -2.96185617,785.707022 9.53492116,773.210245 L368.744338,413.999338 L9.53492116,54.7897552 C-2.96185617,42.2929778 -2.96185617,22.0316985 9.53492116,9.53492116 C22.0316985,-2.96185617 42.2929778,-2.96185617 54.7897552,9.53492116 L413.999338,368.744338 L773.210245,9.53492116 C785.707022,-2.96185617 805.968302,-2.96185617 818.465079,9.53492116 Z"
    id="path-1"></path>
</svg>
