<svg xmlns="http://www.w3.org/2000/svg" xmlns:xlink="http://www.w3.org/1999/xlink" fill="none" version="1.1" width="16" height="16" viewBox="0 0 16 16"><defs><clipPath id="master_svg0_1_02733"><rect x="0" y="0" width="16" height="16" rx="0"/></clipPath></defs><g clip-path="url(#master_svg0_1_02733)"><g><path d="M4.017926265625,5.00230398828125L9.094167265625,5.00230398828125C9.343447265624999,5.00230398828125,9.547397265625001,4.79834698828125,9.547397265625001,4.54907498828125L9.547397265625001,4.45843298828125C9.547397265625001,4.20914598828125,9.343437265624999,4.00518798828125,9.094167265625,4.00518798828125L4.017926265625,4.00518798828125C3.768639265625,4.00518798828125,3.564697265625,4.20914598828125,3.564697265625,4.45843298828125L3.564697265625,4.54907498828125C3.564697027206,4.79834698828125,3.768655265625,5.00230398828125,4.017926265625,5.00230398828125Z" fill="#636363" fill-opacity="1"/></g><g><path d="M3.564697265625,6.54783828515625C3.564697265625,6.79712528515625,3.768655265625,7.00106728515625,4.017925265625,7.00106728515625L9.094167265625,7.00106728515625C9.343447265624999,7.00106728515625,9.547397265625001,6.79710928515625,9.547397265625001,6.54783828515625L9.547397265625001,6.45719528515625C9.547397265625001,6.20790828515625,9.343437265624999,6.00396728515625,9.094167265625,6.00396728515625L4.017926265625,6.00396728515625C3.768639265625,6.00396728515625,3.564697504044,6.20792528515625,3.564697504044,6.45719628515625L3.564697265625,6.54783828515625Z" fill="#636363" fill-opacity="1"/></g><g><path d="M11.51613125,0.9805908203125L2.51520125,0.9805908203125C1.69048425,0.9805908203125,1.01953125,1.6515438203125,1.01953125,2.4762608203125L1.01953125,13.4605908203125C1.01953125,14.2852908203125,1.69048425,14.9561908203125,2.51520125,14.9561908203125L8.56945125,14.9561908203125C8.25069125,14.7782908203125,7.95456125,14.5551908203125,7.68930125,14.2898908203125C7.58378125,14.1843908203125,7.48518125,14.0738908203125,7.39316125,13.9590908203125L2.51519125,13.9590908203125C2.2402912500000003,13.9590908203125,2.01663125,13.7354908203125,2.01663125,13.4605908203125L2.01663125,2.4762808203124997C2.01663125,2.2013808203125,2.2402912500000003,1.9777228203125001,2.51519125,1.9777228203125001L11.51613125,1.9777228203125001C11.79103125,1.9777228203125001,12.01463125,2.2013808203125,12.01463125,2.4762808203124997L12.01463125,7.7739408203125C12.37173125,7.9193308203125,12.70723125,8.1171408203125,13.01183125,8.363410820312499L13.01183125,2.4762808203124997C13.01183125,1.6515598203125,12.34083125,0.9805908203125,11.51613125,0.9805908203125Z" fill="#636363" fill-opacity="1"/></g><g><path d="M12.921649609375,11.44042025390625L11.838009609375,9.13060625390625C11.657659609375,8.90448765390625,11.314239609375,8.90368845390625,11.132809609375,9.12895925390625L10.071020109375,11.43877025390625C9.891429609375,11.81800025390625,10.043375009375,12.17405025390625,10.422941609375,12.17406025390625L10.995529609375,12.17409025390625L10.995529609375,14.47366025390625C10.995529609375,14.749010253906249,11.218739609375,14.972210253906251,11.494089609375,14.972210253906251C11.768409609375,14.972210253906251,11.990809609375,14.74982025390625,11.990809609375,14.475490253906251L11.990809609375,12.17411025390625L12.568399609375,12.17408025390625C12.946989609375,12.17405025390625,13.099929609375,11.82067025390625,12.921649609375,11.44042025390625Z" fill="#636363" fill-opacity="1"/></g></g></svg>