<!DOCTYPE svg PUBLIC "-//W3C//DTD SVG 1.1//EN" "http://www.w3.org/Graphics/SVG/1.1/DTD/svg11.dtd"><svg t="1629100146838"
  class="icon" viewBox="0 0 1024 1024" version="1.1" xmlns="http://www.w3.org/2000/svg" p-id="17526"
  xmlns:xlink="http://www.w3.org/1999/xlink" width="36" height="36">
  <defs>
    <style type="text/css"></style>
  </defs>
  <path
    d="M238.933333 443.733333H256A119.466667 119.466667 0 0 1 256 682.666667h-17.066667v136.533333h136.533334v-19.2a117.333333 117.333333 0 1 1 234.666666 0v19.2h106.666667v-204.714667l68.266667-0.085333a68.266667 68.266667 0 0 0 0-136.533333h-68.266667V341.333333h-136.533333V273.066667a68.266667 68.266667 0 1 0-136.533334 0V341.333333H238.933333v102.4zM512 136.533333a136.533333 136.533333 0 0 1 136.533333 136.533334h136.533334v136.533333a136.533333 136.533333 0 0 1 0 273.066667v204.8h-243.2v-87.466667a49.066667 49.066667 0 1 0-98.133334 0v87.466667H170.666667v-273.066667h85.333333A51.2 51.2 0 0 0 256 512H170.666667V273.066667h204.8A136.533333 136.533333 0 0 1 512 136.533333z"
    p-id="17527"></path>
</svg>
