<svg width="1024px" height="1024px" viewBox="0 0 1024 1024" version="1.1" xmlns="http://www.w3.org/2000/svg" xmlns:xlink="http://www.w3.org/1999/xlink">

        <path d="M409,0 C527.741221,0 624,96.2587788 624,215 C624,285.235007 590.322132,347.604127 538.234091,386.839665 C700.785456,440.930021 818,594.276549 818,775 C818,779.017102 817.942087,783.020678 817.82705,787.009938 L817.818,787.009 L817.818986,792.576186 C817.938636,793.701073 818,794.84337 818,796 C818,813.673112 803.673112,828 786,828 L566,828 C548.326888,828 534,813.673112 534,796 C534,778.326888 548.326888,764 566,764 L753.827969,764.000207 C748.019527,578.552376 595.857897,430 409,430 C222.142103,430 69.9804728,578.552376 64.1720307,764.000207 L252,764 C269.673112,764 284,778.326888 284,796 C284,813.673112 269.673112,828 252,828 L32,828 C14.326888,828 2.164332e-15,813.673112 0,796 C-1.38919915e-16,794.865633 0.059024609,793.745052 0.174170135,792.64116 L0.175,787.009 L0.172950498,787.009938 C0.05791329,783.020678 -3.63797881e-12,779.017102 -3.63797881e-12,775 C-3.63797881e-12,594.276549 117.214544,440.930021 279.767219,386.836829 C227.677868,347.604127 194,285.235007 194,215 C194,96.2587788 290.258779,0 409,0 Z M586.654155,513.909817 C599.150932,526.406594 599.150932,546.667873 586.654155,559.164651 L381.213114,764.60613 C380.871201,764.981854 380.518744,765.351407 380.155742,765.714408 C367.658965,778.211186 347.397686,778.211186 334.900908,765.714408 L237.320173,668.133673 C224.823395,655.636895 224.823395,635.375616 237.320173,622.878839 C249.81695,610.382061 270.078229,610.382061 282.575007,622.878839 L357.502277,697.80588 L541.399321,513.909817 C553.896098,501.413039 574.157377,501.413039 586.654155,513.909817 Z M409,64 C325.605003,64 258,131.605003 258,215 C258,298.394997 325.605003,366 409,366 C492.394997,366 560,298.394997 560,215 C560,131.605003 492.394997,64 409,64 Z" id="path-1"></path>

    </svg>
