<svg width="1024px" height="1024px" viewBox="0 0 1024 1024" version="1.1" xmlns="http://www.w3.org/2000/svg" xmlns:xlink="http://www.w3.org/1999/xlink">

        <path d="M799,0 C816.673112,0 831,14.326888 831,32 L831,32 L831,864 C831,881.400805 817.111207,895.557709 799.814497,895.989836 C793.45109,896.22883 786.954285,894.577006 781.208382,890.845573 L415.479404,653.338 L54.2551759,887.921527 C48.7256493,892.838275 41.4798486,895.866805 33.5291785,895.995713 L33,896 C28.2027319,896 23.6520206,894.944365 19.5674859,893.052715 C14.1076103,890.623401 9.26488675,886.63871 5.767705,881.253522 C1.28303139,874.34773 -0.197695969,866.35728 0.998972952,858.818469 L1,32 C1,14.326888 15.326888,0 33,0 L33,0 Z M64.9994044,804.632 L396.771822,589.176854 C403.199504,585.002669 410.566853,583.430883 417.635081,584.198183 C423.424244,584.300391 429.256344,585.973996 434.470172,589.359895 L766.999404,805.307 L766.999404,64 L64.9994044,64 L64.9994044,804.632 Z" id="path-1"></path>

    </svg>
