<svg width="1024px" height="1024px" viewBox="0 0 1024 1024" version="1.1" xmlns="http://www.w3.org/2000/svg" xmlns:xlink="http://www.w3.org/1999/xlink">

        <path d="M628,120 C645.673112,120 660,134.326888 660,152 L660,276 C660,293.673112 645.673112,308 628,308 L446.999,308 L447.000183,696.073849 C461.929926,700.939323 475.968038,709.304041 487.831998,721.168002 C528.056001,761.392004 528.056001,826.607996 487.831998,866.831998 C447.607996,907.056001 382.392004,907.056001 342.168002,866.831998 C301.943999,826.607996 301.943999,761.392004 342.168002,721.168002 C354.031697,709.304306 368.069447,700.939697 382.998816,696.074175 L382.999,308 L202,308 C184.326888,308 170,293.673112 170,276 L170,152 C170,134.326888 184.326888,120 202,120 L628,120 Z M387.422836,766.422836 C372.192388,781.653283 372.192388,806.346717 387.422836,821.577164 C402.653283,836.807612 427.346717,836.807612 442.577164,821.577164 C457.807612,806.346717 457.807612,781.653283 442.577164,766.422836 C427.346717,751.192388 402.653283,751.192388 387.422836,766.422836 Z M798,0 C815.496381,5.62749847e-14 829.713128,14.0417829 829.995713,31.4708215 L830,32 L830,396 C830,413.496381 815.958217,427.713128 798.529179,427.995713 L798,428 L592,428 C574.326888,428 560,413.673112 560,396 C560,378.503619 574.041783,364.286872 591.470821,364.004287 L592,364 L766,364 L766,64 L64,64 L64,364 L238,364 C255.673112,364 270,378.326888 270,396 C270,413.496381 255.958217,427.713128 238.529179,427.995713 L238,428 L32,428 C14.5036191,428 0.286872383,413.958217 0.00428708576,396.529179 L1.8189894e-11,396 L1.8189894e-11,32 C1.82195994e-11,14.5036191 14.0417829,0.286872383 31.4708215,0.00428708574 L32,0 L798,0 Z" id="path-1"></path>

    </svg>
