<svg width="1024px" height="1024px" viewBox="0 0 1024 1024" version="1.1" xmlns="http://www.w3.org/2000/svg" xmlns:xlink="http://www.w3.org/1999/xlink">

        <path d="M583.098261,2.43145768 C599.705553,8.47601798 608.26834,26.8389732 602.22378,43.4462661 L353.917156,725.663109 C347.872595,742.270402 329.50964,750.833188 312.902347,744.788628 C296.295054,738.744068 287.732268,720.381113 293.776828,703.77382 L542.083452,21.556977 C548.128012,4.94968403 566.490968,-3.61310262 583.098261,2.43145768 Z M729.813521,165.028923 L730.156955,165.431542 L888.282707,353.878475 C893.281132,359.835366 895.738375,367.078882 895.769726,374.291234 L895.769726,374.769373 C895.738375,381.981726 893.281132,389.225242 888.282707,395.182133 L729.514167,584.39511 C718.15411,597.9335 697.969931,599.699386 684.431542,588.339329 C670.893152,576.979272 669.127265,556.795093 680.487323,543.256703 L822.065,374.529 L681.13011,206.569949 C669.883654,193.166943 671.501935,173.250399 684.671711,161.830756 L685.074329,161.487323 C698.477334,150.240866 718.393878,151.859147 729.813521,165.028923 Z M165.956508,164.726701 C177.376151,151.556925 197.292695,149.938644 210.695701,161.185101 L210.695701,161.185101 L211.098319,161.528534 C224.268095,172.948177 225.886376,192.864721 214.639919,206.267726 L214.639919,206.267726 L73.7050297,374.226778 L215.282707,542.954481 C226.642764,556.49287 224.876877,576.677049 211.338488,588.037107 C197.800099,599.397164 177.61592,597.631277 166.255862,584.092888 L166.255862,584.092888 L7.48732286,394.879911 C2.4888976,388.92302 0.0316551456,381.679503 0.00030390912,374.467151 L0.00030390912,374.467151 L0.000303909131,373.989012 C0.0316551456,366.77666 2.4888976,359.533144 7.48732286,353.576252 L7.48732286,353.576252 L165.613075,165.129319 Z" id="path-1"></path>

    </svg>
