<svg width="1024px" height="1024px" viewBox="0 0 1024 1024" version="1.1" xmlns="http://www.w3.org/2000/svg" xmlns:xlink="http://www.w3.org/1999/xlink">

        <path d="M608,0 C625.673112,-3.24649801e-15 640,14.326888 640,32 L640,154 L864,154 C881.673112,154 896,168.326888 896,186 C896,203.673112 881.673112,218 864,218 L768,218 L768,826 C768,843.673112 753.673112,858 736,858 L160,858 C142.326888,858 128,843.673112 128,826 L128,218 L32,218 C14.326888,218 2.164332e-15,203.673112 0,186 C-2.164332e-15,168.326888 14.326888,154 32,154 L256,154 L256,32 C256,14.326888 270.326888,3.24649801e-15 288,0 L608,0 Z M704,218 L192,218 L192,794 L704,794 L704,218 Z M352,282 C369.673112,282 384,296.326888 384,314 L384,698 C384,715.673112 369.673112,730 352,730 C334.326888,730 320,715.673112 320,698 L320,314 C320,296.326888 334.326888,282 352,282 Z M544,282 C561.673112,282 576,296.326888 576,314 L576,698 C576,715.673112 561.673112,730 544,730 C526.326888,730 512,715.673112 512,698 L512,314 C512,296.326888 526.326888,282 544,282 Z M576,64 L320,64 L320,154 L576,154 L576,64 Z" id="path-1"></path>

    </svg>
