<svg width="1024px" height="1024px" viewBox="0 0 1024 1024" version="1.1" xmlns="http://www.w3.org/2000/svg" xmlns:xlink="http://www.w3.org/1999/xlink">

        <path d="M570,170 C666.649831,170 745,248.350169 745,345 C745,397.115081 722.21943,443.909476 686.07293,475.968545 L684.984,476.925 L688.646842,478.337584 C809.459651,525.734112 895,643.377547 895,781 C895,786.48267 894.864238,791.933632 894.595894,797.349707 C894.585677,797.598444 894.572507,797.846622 894.556525,798.094034 C894.537651,798.48997 894.516476,798.884798 894.494596,799.279438 L894.458123,799.277818 C892.816633,815.411132 879.190433,828 862.623945,828 C844.950833,828 830.623945,813.673112 830.623945,796 C830.623945,795.826603 830.625325,795.653529 830.628072,795.480787 L830.605152,795.479469 C830.867241,790.686274 831,785.858641 831,781 C831,636.85368 714.14632,520 570,520 C425.85368,520 309,636.85368 309,781 C309,785.871828 309.133481,790.712479 309.396985,795.518497 L309.374,795.519 L309.378828,796 C309.378828,813.496381 295.337045,827.713128 277.908006,827.995713 L277.378828,828 C260.825356,828 247.207553,815.430905 245.548542,799.315836 L245.507569,799.318453 C245.170683,793.255154 245,787.14751 245,781 C245,643.377547 330.540349,525.734112 451.353158,478.337584 L455.015,476.925 L453.92707,475.968545 C417.78057,443.909476 395,397.115081 395,345 C395,248.350169 473.350169,170 570,170 Z M325,0 C393.344496,0 452.538425,39.1782311 481.348171,96.3010751 L481.322548,96.3154204 C483.461109,100.607261 484.663952,105.447166 484.663952,110.56801 C484.663952,128.241122 470.337064,142.56801 452.663952,142.56801 C440.74241,142.56801 430.343497,136.048865 424.837652,126.381016 L424.818863,126.391549 L424.623434,125.998793 C424.25207,125.325394 423.904259,124.637186 423.58111,123.935279 L423.143444,123.098225 C404.515094,87.9460267 367.553994,64 325,64 C263.696393,64 214,113.696393 214,175 C214,233.008474 258.497508,280.623999 315.221122,285.57517 C332.873856,285.596888 347.176379,299.915044 347.176379,317.573122 C347.176379,335.246234 332.849491,349.572509 315.176379,349.572509 L315.328,349.571 L315.32811,350.175886 C175.662691,355.263728 64,470.091755 64,611 C64,615.871828 64.1334809,620.712479 64.396985,625.518497 L64.374,625.519 L64.378828,626 C64.378828,643.496381 50.337045,657.713128 32.9080065,657.995713 L32.378828,658 C15.8253556,658 2.20755272,645.430905 0.548541663,629.315836 L0.507569279,629.318453 C0.170683239,623.255154 7.27595761e-12,617.14751 7.27595761e-12,611 C7.27595761e-12,473.377547 85.5403487,355.734112 206.353158,308.337584 L210.015,306.925 L208.92707,305.968545 C172.78057,273.909476 150,227.115081 150,175 C150,78.3501688 228.350169,0 325,0 Z M570,234 C508.696393,234 459,283.696393 459,345 C459,406.303607 508.696393,456 570,456 C631.303607,456 681,406.303607 681,345 C681,283.696393 631.303607,234 570,234 Z" id="path-1"></path>

    </svg>
