<svg width="1024px" height="1024px" viewBox="0 0 1024 1024" version="1.1" xmlns="http://www.w3.org/2000/svg" xmlns:xlink="http://www.w3.org/1999/xlink">

        <path d="M798,234 C815.496381,234 829.713128,248.041783 829.995713,265.470821 L830,266 L830,798 C830,815.496381 815.958217,829.713128 798.529179,829.995713 L798,830 L136,830 C118.503619,830 104.286872,815.958217 104.004287,798.529179 L104,798 L104,690 C104,672.326888 118.326888,658 136,658 C153.496381,658 167.713128,672.041783 167.995713,689.470821 L168,690 L168,766 L766,766 L766,298 L522,298 C504.503619,298 490.286872,283.958217 490.004287,266.529179 L490,266 C490,248.503619 504.041783,234.286872 521.470821,234.004287 L522,234 L798,234 Z M227.616703,182.361869 L647.638131,602.383297 C660.134908,614.880074 660.134908,635.141354 647.638131,647.638131 C635.141354,660.134908 614.880074,660.134908 602.383297,647.638131 L182.361869,227.616703 C169.865092,215.119926 169.865092,194.858646 182.361869,182.361869 C194.858646,169.865092 215.119926,169.865092 227.616703,182.361869 Z M694,0 C711.496381,0 725.713128,14.0417829 725.995713,31.4708215 L726,32 L726,140 C726,157.673112 711.673112,172 694,172 C676.503619,172 662.286872,157.958217 662.004287,140.529179 L662,140 L662,64 L64,64 L64,532 L308,532 C325.496381,532 339.713128,546.041783 339.995713,563.470821 L340,564 C340,581.496381 325.958217,595.713128 308.529179,595.995713 L308,596 L32,596 C14.5036191,596 0.286872383,581.958217 0.00428708574,564.529179 L0,564 L0,32 C2.14268868e-15,14.5036191 14.0417829,0.286872383 31.4708215,0.00428708574 L32,0 L694,0 Z" id="path-1"></path>

    </svg>
