<svg width="1024px" height="1024px" viewBox="0 0 1024 1024" version="1.1" xmlns="http://www.w3.org/2000/svg" xmlns:xlink="http://www.w3.org/1999/xlink">

        <path d="M447.651804,355 C465.324916,355 479.651804,369.326888 479.651804,387 L479.652154,647.800042 L581.986737,545.46492 C594.483514,532.968143 614.744794,532.968143 627.241571,545.46492 C639.738348,557.961697 639.738348,578.222977 627.241571,590.719754 L473.224401,744.73769 C472.422689,745.764161 471.549596,746.752986 470.605122,747.697459 C464.313211,753.98937 456.053039,757.113413 447.806577,757.069588 C439.560447,757.11316 431.300688,753.989116 425.009032,747.697459 C424.064558,746.752986 423.191465,745.764161 422.389753,744.73769 L268.372583,590.719754 C255.875806,578.222977 255.875806,557.961697 268.372583,545.46492 C280.744393,533.09311 300.726191,532.969392 313.2502,545.093766 L313.627417,545.46492 L415.652154,647.490042 L415.651804,387 C415.651804,369.326888 429.978692,355 447.651804,355 Z M448,2.84217094e-14 C606.725482,2.84217094e-14 736.945402,122.046819 749.935134,277.415832 C833.994295,299.497054 896,376.007423 896,467 C896,575.247811 808.247811,663 700,663 L700,663 L675,663 C657.326888,663 643,648.673112 643,631 C643,613.326888 657.326888,599 675,599 L675,599 L699.516,599 L699.516,598.996 L700,599 C772.901587,599 832,539.901587 832,467 C832,394.098413 772.901587,335 700,335 C695.733705,335 691.514682,335.202397 687.352991,335.599889 C687.397941,331.830146 687.422393,328.290183 687.426345,324.98 L687.426345,324.98 L687.426729,323.489094 C687.420877,315.130558 687.278634,308.30086 687,303 C686.430778,292.170865 685.74817,281.698065 684.952177,271.581602 L684.955803,271.600178 C684.95497,271.59383 684.954136,271.587482 684.953303,271.581134 L684.901447,271.572906 C684.917428,271.571688 684.93341,271.570473 684.949392,271.569259 C669.563361,154.427265 569.34189,64 448,64 C326.65811,64 226.436639,154.427265 211.048277,271.569106 C211.06659,271.570473 211.082572,271.571688 211.098553,271.572906 L211.046697,271.581134 C211.045864,271.587482 211.04503,271.59383 211.044197,271.600178 L211.047823,271.581602 C210.25183,281.698065 209.569222,292.170865 209,303 C208.721366,308.30086 208.579123,315.130558 208.573271,323.489094 L208.573655,324.98 C208.577607,328.290183 208.602059,331.830146 208.647009,335.599889 C204.485318,335.202397 200.266295,335 196,335 C123.098413,335 64,394.098413 64,467 C64,539.901587 123.098413,599 196,599 L196.484,598.996 L196.484,599 L221,599 C238.673112,599 253,613.326888 253,631 C253,648.673112 238.673112,663 221,663 L196,663 C87.752189,663 1.32160949e-12,575.247811 1.32160949e-12,467 C1.32160949e-12,376.007423 62.0057045,299.497054 146.069096,277.41691 C159.054598,122.046819 289.274518,2.84217094e-14 448,2.84217094e-14 Z" id="path-1"></path>

    </svg>
