<svg width="1024px" height="1024px" viewBox="0 0 1024 1024" version="1.1" xmlns="http://www.w3.org/2000/svg" xmlns:xlink="http://www.w3.org/1999/xlink">

        <path d="M798,765 C815.673112,765 830,779.326888 830,797 C830,814.496381 815.958217,828.713128 798.529179,828.995713 L798,829 L32,829 C14.326888,829 -2.164332e-15,814.673112 0,797 C2.14268868e-15,779.503619 14.0417829,765.286872 31.4708215,765.004287 L32,765 L798,765 Z M640.651804,2.86490831e-11 C658.324916,2.86490831e-11 672.651804,14.326888 672.651804,32 L672.652154,565.800043 L774.986737,463.46492 C787.483514,450.968143 807.744794,450.968143 820.241571,463.46492 C832.738348,475.961698 832.738348,496.222977 820.241571,508.719754 L666.224401,662.737691 C665.422689,663.764161 664.549596,664.752986 663.605122,665.69746 C657.313211,671.989371 649.053039,675.113413 640.806577,675.069588 C632.560447,675.113161 624.300688,671.989116 618.009032,665.69746 C617.064558,664.752986 616.191465,663.764161 615.389753,662.737691 L461.372583,508.719754 C448.875806,496.222977 448.875806,475.961698 461.372583,463.46492 C473.744393,451.093111 493.726191,450.969393 506.2502,463.093766 L506.627417,463.46492 L608.652154,565.490043 L608.651804,32 C608.651804,14.326888 622.978692,2.86490831e-11 640.651804,2.86490831e-11 Z M360,405 C377.673112,405 392,419.326888 392,437 C392,454.496381 377.958217,468.713128 360.529179,468.995713 L360,469 L32,469 C14.326888,469 -9.26975936e-15,454.673112 0,437 C-1.37449786e-15,419.503619 14.0417829,405.286872 31.4708215,405.004287 L32,405 L360,405 Z M360,45 C377.673112,45 392,59.326888 392,77 C392,94.4963809 377.958217,108.713128 360.529179,108.995713 L360,109 L32,109 C14.326888,109 -9.26975936e-15,94.673112 0,77 C-1.37449786e-15,59.5036191 14.0417829,45.2868724 31.4708215,45.0042871 L32,45 L360,45 Z" id="path-1"></path>

    </svg>
