<?xml version="1.0" encoding="UTF-8"?>
<svg width="16px" height="16px" viewBox="0 0 16 16" version="1.1" xmlns="http://www.w3.org/2000/svg" xmlns:xlink="http://www.w3.org/1999/xlink">
    <title>形状</title>
    <g id="tableau-Proxy-0518" stroke="none" stroke-width="1" fill="none" fill-rule="evenodd">
        <g id="tableau-Proxy-视图模式" transform="translate(-1796.000000, -164.000000)" fill="currentColor" fill-rule="nonzero">
            <g id="编组-6备份-2" transform="translate(19.000000, 132.000000)">
                <g id="编组-16" transform="translate(1761.000000, 24.000000)">
                    <g id="九宫格" transform="translate(16.000000, 8.000000)">
                        <path d="M10.586082,15.9999562 C9.36430356,15.9999562 8.37032879,15.0060033 8.37032879,13.7841373 L8.37032879,10.5861258 C8.37032879,9.36425977 9.36430358,8.37030689 10.586082,8.37030689 L13.7840716,8.37030689 C15.0059376,8.37030689 16,9.36425975 16,10.5861258 L16,13.7841373 C16,15.0060033 15.0059376,15.9999562 13.7840716,15.9999562 L10.586082,15.9999562 L10.586082,15.9999562 Z M10.586082,9.53586807 C10.0069587,9.53586807 9.53582427,10.0070025 9.53582427,10.5861258 L9.53582427,13.7841373 C9.53582427,14.3632825 10.0069587,14.8344826 10.586082,14.8344826 L13.7840716,14.8344826 C14.3632168,14.8344826 14.8344169,14.3632825 14.8344169,13.7841373 L14.8344169,10.5861258 C14.8344169,10.0070025 14.3632168,9.53586807 13.7840716,9.53586807 L10.586082,9.53586807 L10.586082,9.53586807 Z M2.21584081,15.9999562 C0.993974771,15.9999562 0,15.0060252 0,13.7841592 L0,10.5861258 C0,9.36425977 0.994062367,8.37030689 2.21584081,8.37030689 L5.41391799,8.37030689 C6.00486728,8.37030689 6.56110508,8.60102328 6.98011756,9.02003574 C7.39902053,9.43887301 7.6298464,9.99517651 7.62975883,10.5861258 L7.62975883,13.7841373 C7.62975883,15.0060033 6.63560884,15.9999562 5.41391799,15.9999562 L2.21584081,15.9999562 L2.21584081,15.9999562 Z M2.21584081,9.53586807 C1.63667372,9.53586807 1.16558307,10.0070025 1.16558307,10.5861258 L1.16558307,13.7841373 C1.16558307,14.3632825 1.63667372,14.8344826 2.21584081,14.8344826 L5.41391799,14.8344826 C5.99297558,14.8344826 6.46408814,14.3632825 6.46408814,13.7841373 L6.46408814,10.5861258 C6.46408814,10.0070025 5.99297558,9.53586807 5.41391798,9.53586807 L2.21584081,9.53586807 L2.21584081,9.53586807 Z M10.586082,7.62982449 C9.36430356,7.62982449 8.37032879,6.63569642 8.37032879,5.41400557 L8.37032879,2.21581892 C8.37032879,0.993952877 9.36430358,4.4408921e-16 10.586082,4.4408921e-16 L13.7840716,4.4408921e-16 C15.0059376,4.4408921e-16 16,0.994040472 16,2.21581892 L16,5.41391799 C16,6.63569644 15.0059376,7.62973691 13.7840716,7.62973691 L10.586082,7.62973689 L10.586082,7.62982449 Z M10.586082,1.16556118 C10.0069587,1.16556118 9.53582427,1.63667372 9.53582427,2.21581892 L9.53582427,5.41391799 C9.53582427,5.99297558 10.0069587,6.46408814 10.586082,6.46408814 L13.7840716,6.46408814 C14.3632168,6.46408814 14.8344169,5.99297558 14.8344169,5.41391798 L14.8344169,2.21581892 C14.8344169,1.63667373 14.3632168,1.16556118 13.7840716,1.16556118 L10.586082,1.16556118 L10.586082,1.16556118 Z M2.21584081,7.62982449 C0.993974771,7.62982449 0,6.63569644 0,5.41400559 L0,2.21581892 C0,0.993952877 0.994062367,4.4408921e-16 2.21584081,4.4408921e-16 L5.41391799,4.4408921e-16 C6.00486728,4.4408921e-16 6.56110508,0.230716384 6.98011756,0.649728844 C7.39902053,1.06865373 7.6298464,1.62486961 7.62975883,2.2158189 L7.62975883,5.41391799 C7.62975883,6.63569644 6.63560884,7.62973691 5.41391799,7.62973691 L2.21584081,7.62973689 L2.21584081,7.62982449 Z M2.21584081,1.16556118 C1.63667372,1.16556118 1.16558307,1.63667372 1.16558307,2.21581892 L1.16558307,5.41391799 C1.16558307,5.99297558 1.63667372,6.46408814 2.21584081,6.46408814 L5.41391799,6.46408814 C5.99297558,6.46408814 6.46408814,5.9929756 6.46408814,5.41391799 L6.46408814,2.21581892 C6.46408814,1.63667373 5.99297558,1.16556118 5.41391798,1.16556118 L2.21584081,1.16556118 L2.21584081,1.16556118 Z" id="形状"></path>
                    </g>
                </g>
            </g>
        </g>
    </g>
</svg>
