<?xml version="1.0" encoding="UTF-8"?>
<svg width="1024px" height="1024px" viewBox="0 0 1024 1024" version="1.1" xmlns="http://www.w3.org/2000/svg" xmlns:xlink="http://www.w3.org/1999/xlink">
    <title>工作流开发中心</title>
    <defs>
        <linearGradient x1="58.4807153%" y1="21.3116661%" x2="31.1997533%" y2="70.1158432%" id="linearGradient-1">
            <stop stop-color="#EEEEEE" offset="0%"></stop>
            <stop stop-color="#FFFFFF" stop-opacity="0" offset="100%"></stop>
        </linearGradient>
        <linearGradient x1="50%" y1="0%" x2="50%" y2="37.5420375%" id="linearGradient-2">
            <stop stop-color="#EEEEEE" offset="0%"></stop>
            <stop stop-color="#FFFFFF" stop-opacity="0" offset="100%"></stop>
        </linearGradient>
        <linearGradient x1="50%" y1="0%" x2="50%" y2="58.1987774%" id="linearGradient-3">
            <stop stop-color="#EEEEEE" stop-opacity="0.483449656" offset="0%"></stop>
            <stop stop-color="#FFFFFF" stop-opacity="0" offset="100%"></stop>
        </linearGradient>
        <linearGradient x1="50%" y1="0%" x2="50%" y2="37.5420375%" id="linearGradient-4">
            <stop stop-color="#EEEEEE" offset="0%"></stop>
            <stop stop-color="#FFFFFF" stop-opacity="0" offset="100%"></stop>
        </linearGradient>
        <linearGradient x1="50%" y1="0%" x2="50%" y2="58.1987774%" id="linearGradient-5">
            <stop stop-color="#EEEEEE" stop-opacity="0.483449656" offset="0%"></stop>
            <stop stop-color="#FFFFFF" stop-opacity="0" offset="100%"></stop>
        </linearGradient>
        <linearGradient x1="50%" y1="0%" x2="50%" y2="37.5420375%" id="linearGradient-6">
            <stop stop-color="#EEEEEE" offset="0%"></stop>
            <stop stop-color="#FFFFFF" stop-opacity="0" offset="100%"></stop>
        </linearGradient>
        <linearGradient x1="50%" y1="0%" x2="50%" y2="100%" id="linearGradient-7">
            <stop stop-color="#F5F5F5" offset="0%"></stop>
            <stop stop-color="#D8D8D8" offset="100%"></stop>
        </linearGradient>
        <linearGradient x1="50%" y1="0%" x2="50%" y2="100%" id="linearGradient-8">
            <stop stop-color="#C7CBD7" offset="0%"></stop>
            <stop stop-color="#C6CAD6" offset="100%"></stop>
        </linearGradient>
        <linearGradient x1="50%" y1="0%" x2="50%" y2="100%" id="linearGradient-9">
            <stop stop-color="#C7CBD7" offset="0%"></stop>
            <stop stop-color="#C6CAD6" offset="100%"></stop>
        </linearGradient>
        <linearGradient x1="50%" y1="0%" x2="50%" y2="100%" id="linearGradient-10">
            <stop stop-color="#CED5DD" offset="0%"></stop>
            <stop stop-color="#C6CAD6" offset="100%"></stop>
        </linearGradient>
        <linearGradient x1="50%" y1="0%" x2="50%" y2="100%" id="linearGradient-11">
            <stop stop-color="#AED0FF" offset="0%"></stop>
            <stop stop-color="#65A9FF" offset="100%"></stop>
        </linearGradient>
        <linearGradient x1="50%" y1="0%" x2="50%" y2="100%" id="linearGradient-12">
            <stop stop-color="#AED0FF" offset="0%"></stop>
            <stop stop-color="#65A9FF" offset="100%"></stop>
        </linearGradient>
    </defs>
    <g id="工作流开发中心" stroke="none" stroke-width="1" fill="none" fill-rule="evenodd">
        <polygon id="矩形" fill="url(#linearGradient-1)" opacity="0.834764753" points="24 345 91 345 91 423.665839 193.332915 423.665839 193.332915 681 24 681"></polygon>
        <polygon id="矩形" fill="url(#linearGradient-2)" opacity="0.684842064" points="194 276 295.157544 276 295.157544 290.355118 341 290.355118 341 619 194 619"></polygon>
        <polygon id="矩形" fill="url(#linearGradient-3)" points="766 243 862.340518 243 862.340518 287.355118 906 287.355118 906 586 766 586"></polygon>
        <rect id="矩形" fill="url(#linearGradient-4)" opacity="0.596470424" x="836" y="323" width="155" height="349"></rect>
        <rect id="矩形" fill="url(#linearGradient-4)" opacity="0.60290382" x="411" y="304" width="155" height="349"></rect>
        <polygon id="矩形" fill="url(#linearGradient-5)" points="479 214 528.730945 214 528.730945 184 610.882846 184 610.882846 214 655 214 655 746 479 746"></polygon>
        <path d="M512.5,1137 C787.261663,1137 1010,1062.34064 1010,970.243655 C1010,878.146668 777.566231,776 512.5,776 C247.433769,776 15,878.146668 15,970.243655 C15,1062.34064 237.738337,1137 512.5,1137 Z" id="椭圆形" fill="url(#linearGradient-6)"></path>
        <g id="编组-3" transform="translate(793.000000, 763.000000)">
            <path d="M19,92 C29.4934102,92 38,87.0751322 38,81 C38,76.9499118 38,71.9499118 38,66 L7.27595761e-12,66 C7.27595761e-12,73.9077676 7.27595761e-12,78.9077676 7.27595761e-12,81 C7.27595761e-12,87.0751322 8.50658975,92 19,92 Z" id="椭圆形" fill="#EBEBEB"></path>
            <ellipse id="椭圆形" fill="#F7F7F7" cx="19" cy="66" rx="19" ry="11"></ellipse>
            <ellipse id="椭圆形" fill="#E7E7E7" cx="19" cy="66" rx="14" ry="8"></ellipse>
            <path d="M17,51 L21,51 L21,67 C20.839452,67.6008473 20.1727854,67.901271 19,67.901271 C17.8272146,67.901271 17.160548,67.6008473 17,67 L17,51 Z" id="矩形" fill="#D8D8D8"></path>
            <path d="M20.5,0 C28.5081289,0 35,6.2680135 35,14 C35,16.5670606 34.2844171,18.9727511 33.0353395,21.0412621 C36.7079406,24.4140706 39,29.1964097 39,34.5 C39,44.7172679 30.4934102,53 20,53 C9.50658975,53 1,44.7172679 1,34.5 C1,28.8818909 3.57197219,23.8486897 7.63199367,20.4557952 C6.58902697,18.5252148 6,16.3290228 6,14 C6,6.2680135 12.4918711,0 20.5,0 Z" id="形状结合" fill="url(#linearGradient-7)"></path>
        </g>
        <path d="M237,785 L248,785 L248,816 C248,819.064616 246.166667,820.596923 242.5,820.596923 C238.833333,820.596923 237,819.064616 237,816 L237,785 Z" id="矩形" fill="url(#linearGradient-8)"></path>
        <path d="M269,785 L280,785 L280,812.867577 C280,815.622526 278.166667,817 274.5,817 C270.833333,817 269,815.622526 269,812.867577 L269,785 Z" id="矩形" fill="url(#linearGradient-9)" transform="translate(274.500000, 801.000000) rotate(-8.000000) translate(-274.500000, -801.000000) "></path>
        <path d="M268,754 C256.954305,754 248,745.045695 248,734 L248,424 C248,412.954305 256.954305,404 268,404 L756,404 C767.045695,404 776,412.954305 776,424 L776,734 C776,745.045695 767.045695,754 756,754 L566,754 L574,790 L608.868318,790 C613.555574,790 617.613865,793.255686 618.630344,797.831398 L622,813 L403,813 L406.369656,797.831398 C407.386135,793.255686 411.444426,790 416.131682,790 L450,790 L458,754 L268,754 Z" id="形状结合" fill="url(#linearGradient-10)"></path>
        <rect id="矩形" fill="#FFFFFF" x="276" y="437" width="472" height="268" rx="10"></rect>
        <rect id="矩形" fill="#F1F1F3" opacity="0.574207124" x="317" y="471" width="390" height="200" rx="4"></rect>
        <path d="M647.307692,602 C652.660606,602 657,606.339394 657,611.692308 C657,617.045221 652.660606,621.384615 647.307692,621.384615 L536.692308,621.384615 C531.339394,621.384615 527,617.045221 527,611.692308 C527,606.339394 531.339394,602 536.692308,602 L647.307692,602 Z M455.490196,521 C456.594766,521 457.490196,521.895431 457.490196,523 L457.490196,552.611369 C457.490196,553.715938 456.594766,554.611369 455.490196,554.611369 L435.823,554.611 L435.823,568.435 L481.575133,568.435897 C481.595304,568.435897 481.615441,568.436048 481.63554,568.436349 L481.705882,568.435897 C483.751569,568.435897 485.422031,570.042431 485.524437,572.062669 L485.529412,572.259427 L485.529,590.23 L495,590.230769 C496.104569,590.230769 497,591.1262 497,592.230769 L497,619 C497,620.104569 496.104569,621 495,621 L468.411765,621 C467.307195,621 466.411765,620.104569 466.411765,619 L466.411765,592.230769 C466.411765,591.1262 467.307195,590.230769 468.411765,590.230769 L477.882,590.23 L477.882,576.344 L435.823,576.344 L435.823,590.23 L445.294118,590.230769 C446.398687,590.230769 447.294118,591.1262 447.294118,592.230769 L447.294118,619 C447.294118,620.104569 446.398687,621 445.294118,621 L418.705882,621 C417.601313,621 416.705882,620.104569 416.705882,619 L416.705882,592.230769 C416.705882,591.1262 417.601313,590.230769 418.705882,590.230769 L428.176,590.23 L428.176,576.344 L386.117,576.344 L386.117,590.23 L395.588235,590.230769 C396.692805,590.230769 397.588235,591.1262 397.588235,592.230769 L397.588235,619 C397.588235,620.104569 396.692805,621 395.588235,621 L369,621 C367.895431,621 367,620.104569 367,619 L367,592.230769 C367,591.1262 367.895431,590.230769 369,590.230769 L378.47,590.23 L378.470588,572.259427 C378.470588,570.21374 380.077122,568.543279 382.097359,568.440873 L382.294118,568.435897 C382.317685,568.435897 382.341203,568.436111 382.36467,568.436535 L382.424867,568.435897 L428.176,568.435 L428.176,554.611 L408.509804,554.611369 C407.405234,554.611369 406.509804,553.715938 406.509804,552.611369 L406.509804,523 C406.509804,521.895431 407.405234,521 408.509804,521 L455.490196,521 Z M647.307692,561 C652.660606,561 657,565.339394 657,570.692308 C657,576.045221 652.660606,580.384615 647.307692,580.384615 L536.692308,580.384615 C531.339394,580.384615 527,576.045221 527,570.692308 C527,565.339394 531.339394,561 536.692308,561 L647.307692,561 Z M647.307692,521 C652.660606,521 657,525.339394 657,530.692308 C657,536.045221 652.660606,540.384615 647.307692,540.384615 L536.692308,540.384615 C531.339394,540.384615 527,536.045221 527,530.692308 C527,525.339394 531.339394,521 536.692308,521 L647.307692,521 Z" id="形状结合" fill="#D8D8D8" opacity="0.658878871"></path>
        <g id="编组" transform="translate(645.000000, 590.000000)">
            <circle id="形状结合" fill="#3878FA" fill-rule="nonzero" cx="46" cy="42" r="41"></circle>
            <circle id="形状结合" fill="url(#linearGradient-11)" cx="41" cy="41" r="41"></circle>
            <path d="M41.6897448,18.0779199 C43.8988838,18.0779199 45.6897448,19.8687809 45.6897448,22.0779199 L45.6892805,36.9569199 L60.5692091,36.9573842 C62.7783481,36.9573842 64.5692091,38.7482452 64.5692091,40.9573842 C64.5692091,43.1665232 62.7783481,44.9573842 60.5692091,44.9573842 L45.6892805,44.9569199 L45.6897448,59.8368485 C45.6897448,62.0459875 43.8988838,63.8368485 41.6897448,63.8368485 C39.4806058,63.8368485 37.6897448,62.0459875 37.6897448,59.8368485 L37.6892805,44.9569199 L22.8102805,44.9573842 C20.6011415,44.9573842 18.8102805,43.1665232 18.8102805,40.9573842 C18.8102805,38.7482452 20.6011415,36.9573842 22.8102805,36.9573842 L37.6892805,36.9569199 L37.6897448,22.0779199 C37.6897448,19.8687809 39.4806058,18.0779199 41.6897448,18.0779199 Z" id="形状结合" fill="#FFFFFF" transform="translate(41.689745, 40.957384) rotate(-315.000000) translate(-41.689745, -40.957384) "></path>
        </g>
        <circle id="椭圆形" fill="#FFFFFF" cx="512.5" cy="728.5" r="14.5"></circle>
        <g id="编组-2" transform="translate(251.551737, 752.348693) rotate(-5.000000) translate(-251.551737, -752.348693) translate(208.551737, 706.348693)">
            <path d="M16.9982099,1.53249857e-10 C16.9982099,4.43536621 19.424608,8.21609546 24.2774043,11.3421877 C29.9223206,7.39133589 36.39237,5 43.5161675,5 C66.0920422,5 78.3767449,26.5033362 82.5351681,48.4953574 C83.4881567,53.5352837 86,63.1301924 86,68.1638969 C86,90.692164 66.8203343,91.9692728 49.2753864,91.9994119 L47.5271116,91.9990102 C46.1727796,91.9966173 44.8325338,91.9907148 43.5161675,91.9907148 C24.7109346,91.9907148 2.44672883,87.9218696 0.191721724,64.6035966 C-1.15638494,50.6632772 4.67380544,32.0885538 15.5103878,19.4028292 C13.300168,17.7748195 11.8196985,14.3537587 11.0688416,9.14157602 C12.4903493,9.92790091 13.6492473,10.4266901 14.5455358,10.6379435 C15.7540041,10.9227771 16.7801387,10.8507179 17.6239395,10.421766 C16.1266525,8.3002941 15.918076,4.82637211 16.9982099,1.53249857e-10 Z" id="形状结合" fill="url(#linearGradient-12)"></path>
            <ellipse id="椭圆形" fill="#FFFFFF" cx="47.5" cy="41.5" rx="24.5" ry="17.5"></ellipse>
            <rect id="矩形" fill="#3878FA" x="31" y="37" width="11" height="3"></rect>
            <rect id="矩形" fill="#3878FA" x="54" y="37" width="12" height="3"></rect>
        </g>
        <g id="编组-3" transform="translate(193.763885, 727.787052) rotate(-12.000000) translate(-193.763885, -727.787052) translate(180.263885, 716.787052)" fill="#C7CCD7">
            <polygon id="矩形" transform="translate(3.250764, 14.662037) rotate(90.000000) translate(-3.250764, -14.662037) " points="-3.24923569 12.1620368 9.75076431 12.1620368 9.75076431 17.1620368 -3.24923569 17.1620368"></polygon>
            <polygon id="矩形" transform="translate(13.374813, 12.724607) rotate(90.000000) translate(-13.374813, -12.724607) " points="5.37481328 10.2246074 21.3748133 10.2246074 21.3748133 15.2246074 5.37481328 15.2246074"></polygon>
            <polygon id="矩形" transform="translate(23.987936, 10.891134) rotate(90.000000) translate(-23.987936, -10.891134) " points="13.9879361 8.39113393 33.9879361 8.39113393 33.9879361 13.3911339 13.9879361 13.3911339"></polygon>
        </g>
    </g>
</svg>