<svg width="1024px" height="1024px" viewBox="0 0 1024 1024" version="1.1" xmlns="http://www.w3.org/2000/svg" xmlns:xlink="http://www.w3.org/1999/xlink">

        <path d="M734,416 C734,433.673112 719.673112,448 702,448 C684.326888,448 670,433.673112 670,416 L670,416 L670,140 L591,140 L591,180 C591,197.673112 576.673112,212 559,212 L175,212 C157.326888,212 143,197.673112 143,180 L143,140 L64,140 L64,832 L331,832 L331.000235,832.061498 C347.741584,833.094007 361,846.998669 361,864 C361,881.001331 347.741584,894.905993 331.000235,895.938502 L331,896 L32,896 C14.326888,896 2.164332e-15,881.673112 0,864 L0,108 C-2.164332e-15,90.326888 14.326888,76 32,76 L143,76 L143,32 C143,14.326888 157.326888,3.24649801e-15 175,0 L559,0 C576.673112,-3.24649801e-15 591,14.326888 591,32 L591,76 L702,76 C719.673112,76 734,90.326888 734,108 Z M583,498 C692.904665,498 782,587.095335 782,697 C782,806.904665 692.904665,896 583,896 C473.095335,896 384,806.904665 384,697 C384,587.095335 473.095335,498 583,498 Z M583,562 C508.441559,562 448,622.441559 448,697 C448,771.558441 508.441559,832 583,832 C657.558441,832 718,771.558441 718,697 C718,622.441559 657.558441,562 583,562 Z M578,594 C595.496381,594 609.713128,608.041783 609.995713,625.470821 L610,626 L610,694.091 L647.836893,712.54525 C663.562535,720.215159 670.18495,739.068041 662.798549,754.857035 L662.570425,755.334537 C654.900517,771.06018 636.047634,777.682594 620.258641,770.296193 L619.781139,770.068069 L564.055908,742.889058 C558.609744,740.232786 554.255422,736.235226 551.196712,731.488167 C548.010179,726.613868 546.117057,720.817094 546.005248,714.585474 L546,714 L546,626 C546,608.326888 560.326888,594 578,594 Z M305,562 C322.673112,562 337,576.326888 337,594 C337,611.496381 322.958217,625.713128 305.529179,625.995713 L305,626 L169,626 C151.326888,626 137,611.673112 137,594 C137,576.503619 151.041783,562.286872 168.470821,562.004287 L169,562 L305,562 Z M565,340 C582.673112,340 597,354.326888 597,372 C597,389.496381 582.958217,403.713128 565.529179,403.995713 L565,404 L169,404 C151.326888,404 137,389.673112 137,372 C137,354.503619 151.041783,340.286872 168.470821,340.004287 L169,340 L565,340 Z M527,64 L207,64 L207,148 L527,148 L527,64 Z" id="path-1"></path>

    </svg>
