<svg width="1024px" height="1024px" viewBox="0 0 1024 1024" version="1.1" xmlns="http://www.w3.org/2000/svg" xmlns:xlink="http://www.w3.org/1999/xlink">

        <path d="M678.5,0 C696.173112,0 710.5,14.326888 710.5,32 L710.5,32 L710.5,104 L788,104 C805.496381,104 819.713128,118.041783 819.995713,135.470821 L820,136 L820,207.5 L862.5,207.5 C880.173112,207.5 894.5,221.826888 894.5,239.5 C894.5,257.173112 880.173112,271.5 862.5,271.5 L820,271.5 L820,345.5 L862.5,345.5 C880.173112,345.5 894.5,359.826888 894.5,377.5 C894.5,395.173112 880.173112,409.5 862.5,409.5 L820,409.5 L820,483.5 L862.5,483.5 C880.173112,483.5 894.5,497.826888 894.5,515.5 C894.5,533.173112 880.173112,547.5 862.5,547.5 L820,547.5 L820,621.5 L862.5,621.5 C880.173112,621.5 894.5,635.826888 894.5,653.5 C894.5,671.173112 880.173112,685.5 862.5,685.5 L820,685.5 L820,758 C820,775.496381 805.958217,789.713128 788.529179,789.995713 L788,790 L710.5,790 L710.5,863 C710.5,880.496381 696.458217,894.713128 679.029179,894.995713 L678.5,895 C660.826888,895 646.5,880.673112 646.5,863 L646.5,863 L646.5,790 L556.5,790 L556.5,863 C556.5,880.496381 542.458217,894.713128 525.029179,894.995713 L524.5,895 C506.826888,895 492.5,880.673112 492.5,863 L492.5,863 L492.5,790 L402.5,790 L402.5,863 C402.5,880.496381 388.458217,894.713128 371.029179,894.995713 L370.5,895 C352.826888,895 338.5,880.673112 338.5,863 L338.5,863 L338.5,790 L248.5,790 L248.5,863 C248.5,880.496381 234.458217,894.713128 217.029179,894.995713 L216.5,895 C198.826888,895 184.5,880.673112 184.5,863 L184.5,863 L184.5,790 L106,790 C88.5036191,790 74.2868724,775.958217 74.0042871,758.529179 L74,758 L74,685.5 L32.5,685.5 C14.826888,685.5 0.5,671.173112 0.5,653.5 C0.5,635.826888 14.826888,621.5 32.5,621.5 L74,621.5 L74,547.5 L32.5,547.5 C14.826888,547.5 0.5,533.173112 0.5,515.5 C0.5,497.826888 14.826888,483.5 32.5,483.5 L74,483.5 L74,409.5 L32.5,409.5 C14.826888,409.5 0.5,395.173112 0.5,377.5 C0.5,359.826888 14.826888,345.5 32.5,345.5 L74,345.5 L74,271.5 L32.5,271.5 C14.826888,271.5 0.5,257.173112 0.5,239.5 C0.5,221.826888 14.826888,207.5 32.5,207.5 L74,207.5 L74,136 C74,118.503619 88.0417829,104.286872 105.470821,104.004287 L106,104 L184.5,104 L184.5,32 C184.5,14.5036191 198.541783,0.286872383 215.970821,0.00428708574 L216.5,0 C234.173112,0 248.5,14.326888 248.5,32 L248.5,32 L248.5,104 L338.5,104 L338.5,32 C338.5,14.5036191 352.541783,0.286872383 369.970821,0.00428708574 L370.5,0 C388.173112,0 402.5,14.326888 402.5,32 L402.5,32 L402.5,104 L492.5,104 L492.5,32 C492.5,14.5036191 506.541783,0.286872383 523.970821,0.00428708574 L524.5,0 C542.173112,0 556.5,14.326888 556.5,32 L556.5,32 L556.5,104 L646.5,104 L646.5,32 C646.5,14.5036191 660.541783,0.286872383 677.970821,0.00428708574 Z M756,168 L138,168 L138,726 L756,726 L756,168 Z M658,234 C675.496381,234 689.713128,248.041783 689.995713,265.470821 L690,266 L690,628 C690,645.496381 675.958217,659.713128 658.529179,659.995713 L658,660 L236,660 C218.503619,660 204.286872,645.958217 204.004287,628.529179 L204,628 L204,266 C204,248.503619 218.041783,234.286872 235.470821,234.004287 L236,234 L658,234 Z M626,298 L268,298 L268,596 L626,596 L626,298 Z" id="path-1"></path>

    </svg>
