<svg width="1024px" height="1024px" viewBox="0 0 1024 1024" version="1.1" xmlns="http://www.w3.org/2000/svg" xmlns:xlink="http://www.w3.org/1999/xlink">

        <path d="M448,0 C695.423568,0 896,200.576432 896,448 C896,695.423568 695.423568,896 448,896 C200.576432,896 0,695.423568 0,448 C0,200.576432 200.576432,0 448,0 Z M448,64 C235.922656,64 64,235.922656 64,448 C64,660.077344 235.922656,832 448,832 C660.077344,832 832,660.077344 832,448 C832,235.922656 660.077344,64 448,64 Z M548.912171,342.317772 C565.622427,348.071574 574.504387,366.282291 568.750584,382.992547 L512.046976,547.675674 C546.21439,573.902964 561.486761,619.956491 546.690693,662.927394 C528.170641,716.71353 469.554895,745.302339 415.768759,726.782288 C361.982624,708.262236 333.393814,649.64649 351.913866,595.860354 C366.883359,552.38579 408.048404,525.373288 451.685119,526.393759 L508.237396,362.156185 C513.991198,345.44593 532.201915,336.563969 548.912171,342.317772 Z M412.427055,616.696716 C405.414608,637.06234 416.239497,659.256652 436.605121,666.269099 C456.970745,673.281546 479.165057,662.456657 486.177504,642.091032 C493.18995,621.725408 482.365061,599.531097 461.999437,592.51865 C441.633813,585.506203 419.439502,596.331092 412.427055,616.696716 Z M448,142 C599.971614,142 726.068104,252.784579 749.935072,397.999341 L751.115097,407.733203 C753.203508,424.960213 740.931249,440.618456 723.704239,442.706867 C723.598721,442.719659 723.493138,442.731915 723.387495,442.743636 C705.795409,444.695364 689.823737,432.34803 687.282169,414.831433 L684.839919,397.999341 L684.828522,397.999239 C661.791751,288.337325 564.511332,206 448,206 C331.488668,206 234.208249,288.337325 211.171478,397.999239 L211.160081,398 L208.717831,414.832092 C206.176263,432.348689 190.204591,444.696023 172.612505,442.744295 C172.506862,442.732575 172.401279,442.720318 172.295761,442.707526 C155.241021,440.639999 143.042432,425.27268 144.826549,408.25019 L144.884903,407.733862 L146.064928,398 C169.931896,252.784579 296.028386,142 448,142 Z" id="path-1"></path>

    </svg>
