<svg width="1024px" height="1024px" viewBox="0 0 1024 1024" version="1.1" xmlns="http://www.w3.org/2000/svg" xmlns:xlink="http://www.w3.org/1999/xlink">

        <path d="M446,0 C454.195785,1.6475467e-14 461.671939,3.08110797 467.333342,8.14820525 L685.12082,160.646377 C690.958316,164.733836 695.014031,170.417389 697.111173,176.694403 C698.966108,180.746268 700,185.252395 700,190 L700,190 L700,266 C700,283.673112 685.673112,298 668,298 C650.326888,298 636,283.673112 636,266 L636,266 L636,204.382 L435.516,64 L64,64 L64,764 L636,764 L636,686 C636,668.503619 650.041783,654.286872 667.470821,654.004287 L668,654 C685.673112,654 700,668.326888 700,686 L700,686 L700,796 C700,813.673112 685.673112,828 668,828 L668,828 L32,828 C14.326888,828 -2.164332e-15,813.673112 0,796 L0,796 L0,32 C2.164332e-15,14.326888 14.326888,0 32,0 L32,0 Z M573.447654,329.556371 L702.009746,458.117697 C703.036217,458.919409 704.025041,459.792502 704.969515,460.736976 C711.261426,467.028887 714.385469,475.289059 714.341644,483.535521 C714.385216,491.781652 711.261172,500.04141 704.969515,506.333067 C704.026577,507.276005 703.039432,508.147795 702.014751,508.948436 L573.447654,637.513671 C560.950877,650.010448 540.689597,650.010448 528.19282,637.513671 C515.82101,625.141862 515.697292,605.160064 527.821666,592.636054 L528.19282,592.258837 L604.762098,515.689788 L259.272056,515.690295 C241.598944,515.690295 227.272056,501.363407 227.272056,483.690295 C227.272056,466.017183 241.598944,451.690295 259.272056,451.690295 L605.072098,451.689788 L528.19282,374.811205 C515.696043,362.314428 515.696043,342.053149 528.19282,329.556371 C540.689597,317.059594 560.950877,317.059594 573.447654,329.556371 Z" id="path-1"></path>

    </svg>
