<svg width="1024px" height="1024px" viewBox="0 0 1024 1024" version="1.1" xmlns="http://www.w3.org/2000/svg" xmlns:xlink="http://www.w3.org/1999/xlink">

        <path d="M791.106179,7.48714959 C800.069536,15.0082991 803.872579,26.397381 802.122525,37.1648856 C802.082491,37.8751127 802.018887,38.5895931 801.930837,39.3067062 L713.575563,758.902666 C711.421752,776.444045 695.455646,788.918135 677.914267,786.764324 C673.418371,786.212297 669.255349,784.752929 665.586172,782.59225 C664.817146,782.257633 664.054623,781.890049 663.300899,781.489288 L433.734525,659.426681 C418.130094,651.129658 412.206269,631.7537 420.503292,616.149268 C428.800316,600.544837 448.176274,594.621012 463.780705,602.918035 L655.716,704.972 L725.668,135.255 L349.205,583.906 L349.205877,786.239054 C349.205877,803.912166 334.878989,818.239054 317.205877,818.239054 C299.532765,818.239054 285.205877,803.912166 285.205877,786.239054 L285.205877,572.239054 C285.205877,564.055341 288.277915,556.589141 293.331705,550.93074 C293.38725,550.862872 293.443998,550.79468 293.501076,550.726656 L645.966,130.674 L99.391,409.168 L225.384855,476.160713 C240.989287,484.457737 246.913112,503.833695 238.616088,519.438126 C230.319065,535.042558 210.943107,540.966383 195.338675,532.669359 L16.9832614,437.836104 C1.37882968,429.53908 -4.54499509,410.163122 3.75202841,394.558691 C5.11089147,392.003041 6.76692438,389.707054 8.65488921,387.690674 C11.5544715,383.583645 15.4674835,380.101315 20.2586396,377.660099 L751.774996,4.93389856 C753.835503,3.88401795 755.956327,3.07871986 758.104379,2.50725286 C768.809984,-1.99541021 781.597312,-0.491737127 791.106179,7.48714959 Z" id="path-1"></path>

    </svg>
