<svg width="1024px" height="1024px" viewBox="0 0 1024 1024" version="1.1" xmlns="http://www.w3.org/2000/svg" xmlns:xlink="http://www.w3.org/1999/xlink">

        <path d="M415.238787,9.20112149e-05 C419.826661,0.0111195729 424.329543,1.01461371 428.444675,2.8882528 L428.979208,3.13756512 L810.529284,165.096251 L811.01472,165.306964 C818.240864,168.513509 823.70579,174.086094 826.882944,180.721451 C829.029004,185.019768 830.236716,189.868892 830.236716,195.000092 L830.236716,195.000092 L830.236716,711.000092 C830.236716,713.455837 829.960091,715.846972 829.4363,718.144038 C827.490961,728.050815 820.901206,736.866739 811.014718,741.253791 L810.529282,741.464504 L428.979205,903.42319 C424.720934,905.457005 420.026131,906.549156 415.238784,906.560663 L415.033846,906.560663 C410.246499,906.549156 405.551696,905.457005 401.293425,903.42319 L19.7433482,741.464504 C7.41596811,736.231842 0.0715988205,724.177396 0.241368039,711.565927 C0.238351587,711.377318 0.236716475,711.188896 0.236716475,711.000092 L0.236716475,711.000092 L0.236716475,195.000092 C0.236716475,194.911726 0.237074647,194.823445 0.237789619,194.735248 L0.239205624,194.780568 C0.155948018,182.391054 7.31826585,170.574006 19.3226335,165.278329 L19.7433508,165.096251 L401.293427,3.13756512 C405.37427,1.18849248 409.856025,0.104246461 414.435936,0.00714869014 L415.033848,9.20112147e-05 L415.238787,9.20112149e-05 Z M64.2367165,243.351092 L64.2367165,690.824092 L383.236716,826.230092 L383.236716,378.759092 L64.2367165,243.351092 Z M766.236716,243.265092 L447.236716,378.673092 L447.236716,826.144092 L766.236716,690.738092 L766.236716,243.265092 Z M415.13549,66.789663 L113.606488,194.780092 L415.13549,322.771092 L716.665488,194.780092 L415.13549,66.789663 Z" id="path-1"></path>

    </svg>
