<svg width="1024px" height="1024px" viewBox="0 0 1024 1024" version="1.1" xmlns="http://www.w3.org/2000/svg" xmlns:xlink="http://www.w3.org/1999/xlink">

        <path d="M355,0 C367.97222,0 379.141598,7.71888218 384.165709,18.8142206 L464.523,158 L794,158 C811.673112,158 826,172.326888 826,190 L826,796 C826,813.673112 811.673112,828 794,828 L32,828 C14.326888,828 2.164332e-15,813.673112 0,796 L0,32 C2.164332e-15,14.326888 14.326888,0 32,0 L32,0 Z M762,222 L64,222 L64,764 L762,764 L762,222 Z M413,320 C430.496381,320 444.713128,334.041783 444.995713,351.470821 L445,352 L445,461 L554,461 C571.496381,461 585.713128,475.041783 585.995713,492.470821 L586,493 C586,510.496381 571.958217,524.713128 554.529179,524.995713 L554,525 L445,525 L445,634 C445,651.496381 430.958217,665.713128 413.529179,665.995713 L413,666 C395.503619,666 381.286872,651.958217 381.004287,634.529179 L381,634 L381,524.999 L272,525 C254.503619,525 240.286872,510.958217 240.004287,493.529179 L240,493 C240,475.503619 254.041783,461.286872 271.470821,461.004287 L272,461 L381,461 L381,352 C381,334.503619 395.041783,320.286872 412.470821,320.004287 L413,320 Z M336.351,64 L64,64 L64,158 L390.622,158 L336.351,64 Z" id="path-1"></path>

    </svg>
