<svg width="1024px" height="1024px" viewBox="0 0 1024 1024" version="1.1" xmlns="http://www.w3.org/2000/svg" xmlns:xlink="http://www.w3.org/1999/xlink">

        <path d="M838,468 C855.673112,468 870,482.326888 870,500 L870,838 C870,855.673112 855.673112,870 838,870 L500,870 C482.326888,870 468,855.673112 468,838 L468,500 C468,482.326888 482.326888,468 500,468 L838,468 Z M370,468 C387.673112,468 402,482.326888 402,500 L402,838 C402,855.673112 387.673112,870 370,870 L32,870 C14.326888,870 2.164332e-15,855.673112 0,838 L0,500 C-2.164332e-15,482.326888 14.326888,468 32,468 L370,468 Z M806,532 L532,532 L532,806 L806,806 L806,532 Z M338,532 L64,532 L64,806 L338,806 L338,532 Z M201,708 C218.673112,708 233,722.326888 233,740 C233,757.673112 218.673112,772 201,772 C183.326888,772 169,757.673112 169,740 C169,722.326888 183.326888,708 201,708 Z M740,679 C757.673112,679 772,693.326888 772,711 C772,728.496381 757.958217,742.713128 740.529179,742.995713 L740,743 L598,743 C580.326888,743 566,728.673112 566,711 C566,693.326888 580.326888,679 598,679 L740,679 Z M272,637 C289.673112,637 304,651.326888 304,669 C304,686.673112 289.673112,701 272,701 L272,701 L130,701 C112.326888,701 98,686.673112 98,669 C98,651.326888 112.326888,637 130,637 L130,637 Z M740,595 C757.673112,595 772,609.326888 772,627 C772,644.496381 757.958217,658.713128 740.529179,658.995713 L740,659 L598,659 C580.326888,659 566,644.673112 566,627 C566,609.503619 580.041783,595.286872 597.470821,595.004287 L598,595 L740,595 Z M201,566 C218.673112,566 233,580.326888 233,598 C233,615.673112 218.673112,630 201,630 C183.326888,630 169,615.673112 169,598 C169,580.326888 183.326888,566 201,566 Z M370,0 C387.673112,-3.24649801e-15 402,14.326888 402,32 L402,370 C402,387.673112 387.673112,402 370,402 L32,402 C14.326888,402 2.164332e-15,387.673112 0,370 L0,32 C-2.164332e-15,14.326888 14.326888,3.24649801e-15 32,0 L370,0 Z M838,0 C855.673112,0 870,14.326888 870,32 L870,32 L870,370 C870,387.673112 855.673112,402 838,402 L838,402 L500,402 C482.326888,402 468,387.673112 468,370 L468,370 L468,32 C468,14.326888 482.326888,0 500,0 L500,0 Z M338,64 L64,64 L64,338 L338,338 L338,64 Z M806,64 L532,64 L532,338 L806,338 L806,64 Z M201,98 C218.496381,98 232.713128,112.041783 232.995713,129.470821 L233,130 L233,169 L272,169 C289.496381,169 303.713128,183.041783 303.995713,200.470821 L304,201 C304,218.496381 289.958217,232.713128 272.529179,232.995713 L272,233 L233,233 L233,272 C233,289.496381 218.958217,303.713128 201.529179,303.995713 L201,304 C183.503619,304 169.286872,289.958217 169.004287,272.529179 L169,272 L169,233 L130,233 C112.503619,233 98.2868724,218.958217 98.0042871,201.529179 L98,201 C98,183.503619 112.041783,169.286872 129.470821,169.004287 L130,169 L169,168.999 L169,130 C169,112.503619 183.041783,98.2868724 200.470821,98.0042871 L201,98 Z M740,169 C757.673112,169 772,183.326888 772,201 C772,218.673112 757.673112,233 740,233 L740,233 L598,233 C580.326888,233 566,218.673112 566,201 C566,183.326888 580.326888,169 598,169 L598,169 Z" id="path-1"></path>

    </svg>
