<svg width="1024px" height="1024px" viewBox="0 0 1024 1024" version="1.1" xmlns="http://www.w3.org/2000/svg" xmlns:xlink="http://www.w3.org/1999/xlink">

        <path d="M207.495995,10.2491706 C214.460781,3.28438505 223.837321,0.201259267 232.937345,0.999793252 L796.893627,0.999431616 C797.260881,0.986953545 797.629706,0.980664008 798,0.980664008 C815.673112,0.980664008 830,15.307552 830,32.980664 L830,32.980664 L830,863.980664 C830,881.653776 815.673112,895.980664 798,895.980664 C797.129939,895.980664 796.267988,895.94594 795.415458,895.877803 L32,895.876588 C14.326888,895.876588 -2.164332e-15,881.5497 0,863.876588 L0,863.876588 L0,230.876588 C1.18669739e-15,221.186468 4.30709128,212.502324 11.1112808,206.634147 Z M64,244.253588 L64,831.876588 L766,831.876588 L766,64.9995876 L243.254,64.9995876 L64,244.253588 Z" id="path-1"></path>

    </svg>
