<?xml version="1.0" encoding="UTF-8"?>
<svg width="1024px" height="1024px" viewBox="0 0 1024 1024" version="1.1" xmlns="http://www.w3.org/2000/svg" xmlns:xlink="http://www.w3.org/1999/xlink">
    <title>fi-csv</title>
    <defs>
        <path d="M207.495995,10.2491706 C214.460781,3.28438505 223.837321,0.201259267 232.937345,0.999793252 L796.893627,0.999431616 C797.260881,0.986953545 797.629706,0.980664008 798,0.980664008 C815.673112,0.980664008 830,15.307552 830,32.980664 L830,32.980664 L830,863.980664 C830,881.653776 815.673112,895.980664 798,895.980664 C797.129939,895.980664 796.267988,895.94594 795.415458,895.877803 L32,895.876588 C14.326888,895.876588 -2.164332e-15,881.5497 0,863.876588 L0,863.876588 L0,230.876588 C1.18669739e-15,221.186468 4.30709128,212.502324 11.1112808,206.634147 Z M64,244.253588 L64,831.876588 L766,831.876588 L766,64.9995876 L243.254,64.9995876 L64,244.253588 Z" id="path-1"></path>
    </defs>
    <g id="fi-csv" stroke="none" stroke-width="1" fill="none" fill-rule="evenodd">
        <g id="复制历史" transform="translate(512.000000, 512.000000) scale(-1, 1) translate(-512.000000, -512.000000) translate(97.000000, 64.000000)">
            <mask id="mask-2" fill="white">
                <use xlink:href="#path-1"></use>
            </mask>
            <use id="蒙版" fill="#D8D8D8" xlink:href="#path-1"></use>
            <g id="编组" mask="url(#mask-2)">
                <g transform="translate(-97.000000, -97.000000)" id="00-color/中性色/323232">
                    <rect id="矩形" fill="currentColor" x="0" y="0" width="1024" height="1024"></rect>
                </g>
            </g>
        </g>
        <path d="M330.691852,631.84 C341.785185,631.84 351.758519,630.346667 360.611852,627.36 C369.465185,624.373333 376.985185,620.8 383.171852,616.64 C389.358519,612.48 394.158519,608.213333 397.571852,603.84 C400.985185,599.466667 402.905185,596 403.331852,593.44 C403.758519,589.813333 403.118519,586.293333 401.411852,582.88 C399.705185,579.466667 396.398519,576.8 391.491852,574.88 C386.371852,572.533333 381.145185,573.28 375.811852,577.12 C373.038519,579.253333 370.265185,581.333333 367.491852,583.36 C364.718519,585.386667 361.625185,587.253333 358.211852,588.96 C354.798519,590.666667 350.851852,592.106667 346.371852,593.28 C341.891852,594.453333 336.665185,595.146667 330.691852,595.36 C319.171852,595.573333 309.038519,593.386667 300.291852,588.8 C291.545185,584.213333 284.238519,578.08 278.371852,570.4 C272.505185,562.72 268.078519,553.92 265.091852,544 C262.105185,534.08 260.611852,523.893333 260.611852,513.44 C260.611852,502.986667 261.945185,492.906667 264.611852,483.2 C267.278519,473.493333 271.225185,464.906667 276.451852,457.44 C281.678519,449.973333 288.185185,443.946667 295.971852,439.36 C303.758519,434.773333 312.665185,432.48 322.691852,432.48 C331.651852,432.48 339.171852,433.813333 345.251852,436.48 C351.331852,439.146667 356.611852,441.92 361.091852,444.8 C365.571852,447.68 369.625185,450.08 373.251852,452 C376.878519,453.92 380.611852,454.026667 384.451852,452.32 C386.798519,451.466667 388.825185,450.293333 390.531852,448.8 C392.238519,447.306667 393.411852,446.026667 394.051852,444.96 C394.478519,444.106667 395.065185,442.72 395.811852,440.8 C396.558519,438.88 396.718519,436.533333 396.291852,433.76 C395.865185,430.56 393.838519,426.773333 390.211852,422.4 C386.585185,418.026667 381.571852,413.866667 375.171852,409.92 C368.771852,405.973333 361.198519,402.666667 352.451852,400 C343.705185,397.333333 334.105185,396 323.651852,396 C308.931852,396 295.225185,398.666667 282.531852,404 C269.838519,409.333333 258.851852,417.013333 249.571852,427.04 C240.291852,437.066667 232.931852,449.333333 227.491852,463.84 C222.051852,478.346667 219.225185,494.88 219.011852,513.44 C218.798519,532 221.465185,548.586667 227.011852,563.2 C232.558519,577.813333 240.345185,590.24 250.371852,600.48 C260.398519,610.72 272.291852,618.506667 286.051852,623.84 C299.811852,629.173333 314.691852,631.84 330.691852,631.84 Z M488.491852,626.88 C496.918519,629.546667 505.931852,630.666667 515.531852,630.24 C541.771852,629.386667 561.291852,622.506667 574.091852,609.6 C586.891852,596.693333 593.505185,579.68 593.931852,558.56 C594.145185,550.666667 593.238519,543.626667 591.211852,537.44 C589.185185,531.253333 585.878519,525.706667 581.291852,520.8 C576.705185,515.893333 570.891852,511.306667 563.851852,507.04 C556.811852,502.773333 548.491852,498.506667 538.891852,494.24 C535.051852,492.533333 530.731852,490.72 525.931852,488.8 C521.131852,486.88 516.545185,484.533333 512.171852,481.76 C507.798519,478.986667 504.118519,475.786667 501.131852,472.16 C498.145185,468.533333 496.651852,464.266667 496.651852,459.36 C496.651852,456.373333 497.291852,453.333333 498.571852,450.24 C499.851852,447.146667 501.611852,444.373333 503.851852,441.92 C506.091852,439.466667 508.811852,437.44 512.011852,435.84 C515.211852,434.24 518.838519,433.44 522.891852,433.44 C526.518519,433.44 530.091852,433.973333 533.611852,435.04 C537.131852,436.106667 540.438519,437.386667 543.531852,438.88 C546.625185,440.373333 549.558519,442.026667 552.331852,443.84 C555.105185,445.653333 557.558519,447.306667 559.691852,448.8 C561.185185,450.08 563.105185,450.933333 565.451852,451.36 C567.798519,451.786667 570.198519,451.733333 572.651852,451.2 C575.105185,450.666667 577.451852,449.706667 579.691852,448.32 C581.931852,446.933333 583.798519,445.066667 585.291852,442.72 C588.065185,438.026667 588.438519,433.066667 586.411852,427.84 C584.385185,422.613333 580.545185,417.76 574.891852,413.28 C569.238519,408.8 562.145185,405.066667 553.611852,402.08 C545.078519,399.093333 535.798519,397.493333 525.771852,397.28 C516.811852,397.066667 508.011852,398.24 499.371852,400.8 C490.731852,403.36 482.998519,407.2 476.171852,412.32 C469.345185,417.44 463.851852,423.893333 459.691852,431.68 C455.531852,439.466667 453.451852,448.48 453.451852,458.72 C453.451852,468.32 455.158519,476.64 458.571852,483.68 C461.985185,490.72 466.571852,496.8 472.331852,501.92 C478.091852,507.04 484.865185,511.466667 492.651852,515.2 C500.438519,518.933333 508.811852,522.4 517.771852,525.6 C520.971852,526.666667 524.545185,528.16 528.491852,530.08 C532.438519,532 536.065185,534.4 539.371852,537.28 C542.678519,540.16 545.505185,543.52 547.851852,547.36 C550.198519,551.2 551.371852,555.68 551.371852,560.8 C551.371852,566.133333 550.411852,570.88 548.491852,575.04 C546.571852,579.2 544.011852,582.666667 540.811852,585.44 C537.611852,588.213333 533.931852,590.346667 529.771852,591.84 C525.611852,593.333333 521.398519,594.08 517.131852,594.08 C512.011852,594.08 507.265185,593.44 502.891852,592.16 C498.518519,590.88 494.358519,589.226667 490.411852,587.2 C486.465185,585.173333 482.731852,582.933333 479.211852,580.48 C475.691852,578.026667 472.331852,575.733333 469.131852,573.6 C465.505185,571.253333 461.611852,570.346667 457.451852,570.88 C453.291852,571.413333 449.718519,574.026667 446.731852,578.72 C445.025185,581.066667 444.118519,583.946667 444.011852,587.36 C443.905185,590.773333 444.598519,594.293333 446.091852,597.92 C447.585185,601.546667 449.985185,605.12 453.291852,608.64 C456.598519,612.16 461.025185,615.306667 466.571852,618.08 C472.758519,621.28 480.065185,624.213333 488.491852,626.88 Z M718.251852,628.64 C725.505185,628.64 731.371852,623.84 735.851852,614.24 L803.051852,422.56 C807.318519,409.973333 803.798519,402.506667 792.491852,400.16 C790.145185,399.733333 787.638519,399.466667 784.971852,399.36 C782.305185,399.253333 779.745185,399.626667 777.291852,400.48 C774.838519,401.333333 772.545185,402.72 770.411852,404.64 C768.278519,406.56 766.571852,409.226667 765.291852,412.64 L718.251852,551.52 L671.211852,412.96 C669.931852,408.906667 668.278519,405.92 666.251852,404 C664.225185,402.08 662.038519,400.8 659.691852,400.16 C657.345185,399.52 654.998519,399.306667 652.651852,399.52 C650.305185,399.733333 648.065185,400.053333 645.931852,400.48 C642.305185,401.333333 639.478519,402.613333 637.451852,404.32 C635.425185,406.026667 633.985185,407.893333 633.131852,409.92 C632.278519,411.946667 631.958519,414.133333 632.171852,416.48 C632.385185,418.826667 632.918519,421.173333 633.771852,423.52 L700.331852,613.28 C703.105185,619.68 705.878519,623.84 708.651852,625.76 C711.425185,627.68 714.625185,628.64 718.251852,628.64 Z" id="CSV" stroke="currentColor" stroke-width="16" fill="currentColor" fill-rule="nonzero"></path>
    </g>
</svg>
