<svg width="1024px" height="1024px" viewBox="0 0 1024 1024" version="1.1" xmlns="http://www.w3.org/2000/svg"
  xmlns:xlink="http://www.w3.org/1999/xlink">
  <path
    d="M687.656937,723 C724.107731,723 753.656937,752.549207 753.656937,789 C753.656937,825.450793 724.107731,855 687.656937,855 C675.520772,855 664.149671,851.72437 654.379518,846.008995 L654.379518,846.008995 L615.144,858.757045 L711.748523,890.14564 C773.728805,910.283203 840.298992,876.363998 860.437506,814.384025 C863.664344,804.452841 865.503285,794.403807 866.061277,784.446818 L866.061277,784.446818 L866.117937,783.342045 L866.115515,783.371494 C866.203804,780.399409 866.711108,777.389818 867.676349,774.419111 C873.137641,757.610983 891.190573,748.412554 907.998701,753.873846 C921.200204,758.163275 929.707356,770.220365 930.104278,783.341079 L930.104278,783.341079 L930.179447,783.341723 C929.669139,800.213842 926.7844,817.297633 921.305123,834.161113 C890.613381,928.620583 789.999743,980.823076 695.384756,952.081154 C694.880257,951.943867 694.3765,951.793658 693.873857,951.63034 L693.873857,951.63034 L511.589,892.404045 L329.305589,951.63034 L328.802589,951.789295 C328.467026,951.892362 328.131023,951.989629 327.79469,952.081154 C233.179703,980.823076 132.566066,928.620583 101.874323,834.161113 C96.3950464,817.297633 93.5103072,800.213842 93,783.341723 L93,783.341723 L93.0751689,783.341079 L93.0909823,782.913615 C93.6575837,769.959172 102.122737,758.11665 115.180745,753.873846 C131.988874,748.412554 150.041806,757.610983 155.503098,774.419111 L155.503098,774.419111 L155.70294,775.056258 C156.538673,777.819568 156.981949,780.611701 157.063931,783.371494 L157.063931,783.371494 L157.118169,784.446818 C157.676162,794.403807 159.515103,804.452841 162.74194,814.384025 C182.880454,876.363998 249.450641,910.283203 311.430924,890.14564 L311.430924,890.14564 L408.035,858.757045 L372.056319,847.066784 C362.718767,852.126689 352.023401,855 340.656937,855 C304.206144,855 274.656937,825.450793 274.656937,789 C274.656937,752.549207 304.206144,723 340.656937,723 C377.107731,723 406.656937,752.549207 406.656937,789 C406.656937,789.670668 406.646934,790.338999 406.627068,791.004853 L406.627068,791.004853 L511.59,825.110045 L621.657826,789.346274 C621.657234,789.230919 621.656937,789.115494 621.656937,789 C621.656937,752.549207 651.206144,723 687.656937,723 Z M152,332 C162.666667,332 170.833333,334.343096 176.5,339.029289 C182.166667,343.715481 185,351.916318 185,363.631799 L185,363.631799 L185,659.866109 C185,670.577406 182.416667,678.610879 177.25,683.966527 C172.083333,689.322176 163.666667,692 152,692 C140.333333,692 132.083333,689.322176 127.25,683.966527 C122.416667,678.610879 120,670.74477 120,660.368201 L120,660.368201 L120,364.133891 C120,342.711297 130.666667,332 152,332 Z M426.944238,337 C453.040892,337 475.540892,341.435677 494.444238,350.30703 C513.347584,359.178384 528.905204,371.397418 541.1171,386.964132 C553.328996,402.530846 562.362454,420.943089 568.217472,442.200861 C574.072491,463.458632 577,486.473936 577,511.246772 C577,537.693448 573.988848,561.713056 567.966543,583.305595 C561.944238,604.898135 552.743494,623.39407 540.364312,638.7934 C527.98513,654.192731 512.594796,666.076997 494.193309,674.446198 C475.791822,682.815399 454.211896,687 429.453532,687 L429.453532,687 L334.100372,687 C322.390335,687 314.946097,685.075084 311.767658,681.225251 C308.589219,677.375418 307,671.768054 307,664.403156 L307,664.403156 L307,359.596844 C307,352.231946 308.505576,346.624582 311.516729,342.774749 C314.527881,338.924916 322.055762,337 334.100372,337 L334.100372,337 Z M869.343891,337 C879.054299,337 886.337104,339.0923 891.192308,343.276901 C896.047511,347.461502 898.642534,354.742707 898.977376,365.120516 C899.312217,375.498326 896.800905,382.779531 891.443439,386.964132 C886.085973,391.148733 878.552036,393.241033 868.841629,393.241033 L868.841629,393.241033 L747.294118,393.241033 L747.294118,478.104735 L863.819005,478.104735 C874.533937,478.104735 882.235294,480.364419 886.923077,484.883788 C891.61086,489.403156 893.954751,496.684362 893.954751,506.727403 C893.954751,516.770445 891.61086,523.884266 886.923077,528.068867 C882.235294,532.253467 874.533937,534.345768 863.819005,534.345768 L863.819005,534.345768 L747.294118,534.345768 L747.294118,630.758967 L868.841629,630.758967 C881.565611,630.758967 890.606335,632.767575 895.963801,636.784792 C901.321267,640.802009 904,648.166906 904,658.879484 C904,669.592061 901.321267,676.956958 895.963801,680.974175 C890.606335,684.991392 881.565611,687 868.841629,687 L868.841629,687 L714.144796,687 C704.099548,687 696.230769,685.075084 690.538462,681.225251 C684.846154,677.375418 682,670.094213 682,659.381636 L682,659.381636 L682,364.618364 C682,354.240555 684.678733,347.043042 690.036199,343.025825 C695.393665,339.008608 703.429864,337 714.144796,337 L714.144796,337 Z M416.820144,390 L372,390 L372,635 L429.410072,635 C484.470024,635 512,593.415133 512,510.245399 C512,491.206544 510.489209,474.171779 507.467626,459.141104 C504.446043,444.110429 499.242206,431.501363 491.856115,421.313906 C484.470024,411.126449 474.733813,403.3606 462.647482,398.01636 C450.561151,392.67212 435.285372,390 416.820144,390 L416.820144,390 Z M921.305123,191.805933 C926.7844,208.669412 929.669139,225.753203 930.179447,242.625322 L930.104278,242.625966 C929.707356,255.74668 921.200204,267.803771 907.998701,272.093199 C891.190573,277.554491 873.137641,268.356063 867.676349,251.547934 C866.711108,248.577228 866.203804,245.567636 866.115515,242.595551 L866.117937,242.625 L866.061277,241.520227 C865.503285,231.563239 863.664344,221.514204 860.437506,211.58302 C840.298992,149.603047 773.728805,115.683843 711.748832,135.822357 L711.748523,135.821406 L615.144,167.21 L654.379518,179.958051 C664.149671,174.242675 675.520772,170.967045 687.656937,170.967045 C724.107731,170.967045 753.656937,200.516252 753.656937,236.967045 C753.656937,273.417839 724.107731,302.967045 687.656937,302.967045 C651.206144,302.967045 621.656937,273.417839 621.656937,236.967045 C621.656937,236.851551 621.657234,236.736126 621.657826,236.620771 L511.59,200.857 L406.627068,234.962192 C406.646934,235.628046 406.656937,236.296378 406.656937,236.967045 C406.656937,273.417839 377.107731,302.967045 340.656937,302.967045 C304.206144,302.967045 274.656937,273.417839 274.656937,236.967045 C274.656937,200.516252 304.206144,170.967045 340.656937,170.967045 C352.023401,170.967045 362.718767,173.840356 372.056319,178.900261 L408.035,167.21 L311.430924,135.821406 C249.450641,115.683843 182.880454,149.603047 162.74194,211.58302 C159.515103,221.514204 157.676162,231.563239 157.118169,241.520227 L157.063931,242.595551 C156.981949,245.355344 156.538673,248.147477 155.70294,250.910787 L155.503098,251.547934 C150.041806,268.356063 131.988874,277.554491 115.180745,272.093199 C102.122737,267.850395 93.6575837,256.007873 93.0909823,243.05343 L93.0751689,242.625966 L93,242.625322 C93.5103072,225.753203 96.3950464,208.669412 101.874323,191.805933 C132.566066,97.3464624 233.179703,45.1439693 327.79469,73.8858914 C328.131023,73.9774161 328.467026,74.0746836 328.802589,74.17775 L329.305589,74.3367055 L511.589,133.563 L693.873857,74.3367055 C694.3765,74.1733869 694.880257,74.0231784 695.384756,73.8858914 C789.999743,45.1439693 890.613381,97.3464624 921.305123,191.805933 Z"
    id="形状结合" fill-rule="nonzero"></path>
</svg>
