<svg width="1024px" height="1024px" viewBox="0 0 1024 1024" version="1.1" xmlns="http://www.w3.org/2000/svg" xmlns:xlink="http://www.w3.org/1999/xlink">
  <path d="M510.553824,609.032575 C528.226936,609.032575 542.553824,623.359463 542.553824,641.032575 L542.553824,641.032575 L542.553824,765.032575 C542.553824,782.705687 528.226936,797.032575 510.553824,797.032575 C492.880712,797.032575 478.553824,782.705687 478.553824,765.032575 L478.553824,765.032575 L478.553824,641.032575 C478.553824,623.359463 492.880712,609.032575 510.553824,609.032575 Z M201.443668,339.208535 C213.967677,327.084162 233.949475,327.20788 246.321284,339.57969 C258.818062,352.076467 258.818062,372.337746 246.321284,384.834524 L246.321284,384.834524 L103.485715,527.670094 C57.4038482,573.75196 57.4038482,648.465428 103.485715,694.547294 C149.567581,740.62916 224.281049,740.62916 270.362915,694.547294 L270.362915,694.547294 L413.198485,551.711724 L413.575702,551.34057 C426.099711,539.216196 446.081509,539.339915 458.453319,551.711724 C470.950096,564.208501 470.950096,584.469781 458.453319,596.966558 L458.453319,596.966558 L314.203535,741.216341 L313.827584,741.586461 C313.57551,741.830899 313.320655,742.070897 313.063635,742.307506 C241.807969,810.867499 128.461125,810.032373 58.2308807,739.802128 C-11.9993641,669.571883 -12.8344902,556.22504 55.729055,484.971029 C56.0804166,484.583843 56.4429539,484.203186 56.8166671,483.829473 L56.8166671,483.829473 L201.06645,339.57969 Z M631.469083,584.945743 L719.150324,672.626984 C731.647102,685.123761 731.647102,705.38504 719.150324,717.881818 C706.653547,730.378595 686.392268,730.378595 673.89549,717.881818 L586.214249,630.200577 C573.717472,617.7038 573.717472,597.44252 586.214249,584.945743 C598.711027,572.448966 618.972306,572.448966 631.469083,584.945743 Z M765.593975,477.992424 C783.267087,477.992424 797.593975,492.319312 797.593975,509.992424 C797.593975,527.665536 783.267087,541.992424 765.593975,541.992424 L641.593975,541.992424 C623.920863,541.992424 609.593975,527.665536 609.593975,509.992424 C609.593975,492.319312 623.920863,477.992424 641.593975,477.992424 L765.593975,477.992424 Z M739.881818,58.1511909 C810.112062,128.381436 810.947189,241.728279 742.387196,312.983945 C742.150587,313.240966 741.910589,313.49582 741.666151,313.747895 L741.296031,314.123846 L597.046248,458.373629 C584.549471,470.870406 564.288191,470.870406 551.791414,458.373629 C539.419604,446.001819 539.295886,426.020021 551.42026,413.496012 L551.791414,413.118795 L694.626984,270.283225 C740.70885,224.201359 740.70885,149.487891 694.626984,103.406025 C648.545117,57.3241584 573.83165,57.3241584 527.749783,103.406025 L384.914214,246.241595 C372.417436,258.738372 352.156157,258.738372 339.65938,246.241595 C327.28757,233.869785 327.163852,213.887987 339.288225,201.363978 L339.65938,200.986761 L483.909163,56.7369773 C484.282876,56.3632642 484.663533,56.0007268 485.050718,55.6493653 C556.304729,-12.91418 669.651573,-12.0790539 739.881818,58.1511909 Z M156.887735,255.366486 C174.560847,255.366486 188.887735,269.693374 188.887735,287.366486 C188.887735,305.039598 174.560847,319.366486 156.887735,319.366486 L32.8877349,319.366486 C15.2146229,319.366486 0.887734904,305.039598 0.887734904,287.366486 C0.887734904,269.693374 15.2146229,255.366486 32.8877349,255.366486 L156.887735,255.366486 Z M80.0384925,78.7699859 C92.5352698,66.2732086 112.796549,66.2732086 125.293326,78.7699859 L125.293326,78.7699859 L212.974567,166.451227 C225.471345,178.948004 225.471345,199.209283 212.974567,211.706061 C200.47779,224.202838 180.216511,224.202838 167.719733,211.706061 L167.719733,211.706061 L80.0384925,124.02482 C67.5417152,111.528043 67.5417152,91.2667632 80.0384925,78.7699859 Z M287.927886,0.326335084 C305.600998,0.326335084 319.927886,14.6532231 319.927886,32.3263351 L319.927886,32.3263351 L319.927886,156.326335 C319.927886,173.999447 305.600998,188.326335 287.927886,188.326335 C270.254774,188.326335 255.927886,173.999447 255.927886,156.326335 L255.927886,156.326335 L255.927886,32.3263351 C255.927886,14.6532231 270.254774,0.326335084 287.927886,0.326335084 Z" id="path-1"></path>
</svg>
