<svg width="1024px" height="1024px" viewBox="0 0 1024 1024" version="1.1" xmlns="http://www.w3.org/2000/svg" xmlns:xlink="http://www.w3.org/1999/xlink">

        <path d="M716,544 C733.673112,544 748,558.326888 748,576 L748,744 C748,761.673112 733.673112,776 716,776 L32,776 C14.326888,776 2.164332e-15,761.673112 0,744 L0,576 C-5.71704568e-15,558.326888 14.326888,544 32,544 L716,544 Z M684,608 L64,608 L64,712 L684,712 L684,608 Z M410,628 C427.673112,628 442,642.326888 442,660 C442,677.673112 427.673112,692 410,692 C392.326888,692 378,677.673112 378,660 C378,642.326888 392.326888,628 410,628 Z M504,628 C521.673112,628 536,642.326888 536,660 C536,677.673112 521.673112,692 504,692 C486.326888,692 472,677.673112 472,660 C472,642.326888 486.326888,628 504,628 Z M598,628 C615.673112,628 630,642.326888 630,660 C630,677.673112 615.673112,692 598,692 C580.326888,692 566,677.673112 566,660 C566,642.326888 580.326888,628 598,628 Z M716,272 C733.673112,272 748,286.326888 748,304 L748,472 C748,489.673112 733.673112,504 716,504 L32,504 C14.326888,504 2.164332e-15,489.673112 0,472 L0,304 C-5.71704568e-15,286.326888 14.326888,272 32,272 L716,272 Z M684,336 L64,336 L64,440 L684,440 L684,336 Z M410,356 C427.673112,356 442,370.326888 442,388 C442,405.673112 427.673112,420 410,420 C392.326888,420 378,405.673112 378,388 C378,370.326888 392.326888,356 410,356 Z M504,356 C521.673112,356 536,370.326888 536,388 C536,405.673112 521.673112,420 504,420 C486.326888,420 472,405.673112 472,388 C472,370.326888 486.326888,356 504,356 Z M598,356 C615.673112,356 630,370.326888 630,388 C630,405.673112 615.673112,420 598,420 C580.326888,420 566,405.673112 566,388 C566,370.326888 580.326888,356 598,356 Z M716,0 C733.673112,-3.24649801e-15 748,14.326888 748,32 L748,200 C748,217.673112 733.673112,232 716,232 L32,232 C14.326888,232 2.164332e-15,217.673112 0,200 L0,32 C-5.71704568e-15,14.326888 14.326888,3.24649801e-15 32,0 L716,0 Z M684,64 L64,64 L64,168 L684,168 L684,64 Z M410,84 C427.673112,84 442,98.326888 442,116 C442,133.673112 427.673112,148 410,148 C392.326888,148 378,133.673112 378,116 C378,98.326888 392.326888,84 410,84 Z M504,84 C521.673112,84 536,98.326888 536,116 C536,133.673112 521.673112,148 504,148 C486.326888,148 472,133.673112 472,116 C472,98.326888 486.326888,84 504,84 Z M598,84 C615.673112,84 630,98.326888 630,116 C630,133.673112 615.673112,148 598,148 C580.326888,148 566,133.673112 566,116 C566,98.326888 580.326888,84 598,84 Z" id="path-1"></path>

    </svg>
