<svg width="1024px" height="1024px" viewBox="0 0 1024 1024" version="1.1" xmlns="http://www.w3.org/2000/svg" xmlns:xlink="http://www.w3.org/1999/xlink">

        <path d="M716,544 C733.673112,544 748,558.326888 748,576 L748,744 C748,761.673112 733.673112,776 716,776 L32,776 C14.326888,776 2.164332e-15,761.673112 0,744 L0,576 C-5.71704568e-15,558.326888 14.326888,544 32,544 L716,544 Z M410,628 C392.326888,628 378,642.326888 378,660 C378,677.673112 392.326888,692 410,692 C427.673112,692 442,677.673112 442,660 C442,642.326888 427.673112,628 410,628 Z M504,628 C486.326888,628 472,642.326888 472,660 C472,677.673112 486.326888,692 504,692 C521.673112,692 536,677.673112 536,660 C536,642.326888 521.673112,628 504,628 Z M598,628 C580.326888,628 566,642.326888 566,660 C566,677.673112 580.326888,692 598,692 C615.673112,692 630,677.673112 630,660 C630,642.326888 615.673112,628 598,628 Z M716,272 C733.673112,272 748,286.326888 748,304 L748,472 C748,489.673112 733.673112,504 716,504 L32,504 C14.326888,504 2.164332e-15,489.673112 0,472 L0,304 C-5.71704568e-15,286.326888 14.326888,272 32,272 L716,272 Z M410,356 C392.326888,356 378,370.326888 378,388 C378,405.673112 392.326888,420 410,420 C427.673112,420 442,405.673112 442,388 C442,370.326888 427.673112,356 410,356 Z M504,356 C486.326888,356 472,370.326888 472,388 C472,405.673112 486.326888,420 504,420 C521.673112,420 536,405.673112 536,388 C536,370.326888 521.673112,356 504,356 Z M598,356 C580.326888,356 566,370.326888 566,388 C566,405.673112 580.326888,420 598,420 C615.673112,420 630,405.673112 630,388 C630,370.326888 615.673112,356 598,356 Z M716,0 C733.673112,-3.24649801e-15 748,14.326888 748,32 L748,200 C748,217.673112 733.673112,232 716,232 L32,232 C14.326888,232 2.164332e-15,217.673112 0,200 L0,32 C-5.71704568e-15,14.326888 14.326888,3.24649801e-15 32,0 L716,0 Z M410,84 C392.326888,84 378,98.326888 378,116 C378,133.673112 392.326888,148 410,148 C427.673112,148 442,133.673112 442,116 C442,98.326888 427.673112,84 410,84 Z M504,84 C486.326888,84 472,98.326888 472,116 C472,133.673112 486.326888,148 504,148 C521.673112,148 536,133.673112 536,116 C536,98.326888 521.673112,84 504,84 Z M598,84 C580.326888,84 566,98.326888 566,116 C566,133.673112 580.326888,148 598,148 C615.673112,148 630,133.673112 630,116 C630,98.326888 615.673112,84 598,84 Z" id="path-1"></path>

    </svg>
