<svg width="1024px" height="1024px" viewBox="0 0 1024 1024" version="1.1" xmlns="http://www.w3.org/2000/svg" xmlns:xlink="http://www.w3.org/1999/xlink">

        <path d="M280,79 L280.529179,79.0042871 C297.958217,79.2868724 312,93.5036191 312,111 L312,111 L311.995713,111.529179 C311.713128,128.958217 297.496381,143 280,143 L280,143 L64,143 L64,259 L280,259 L280.529179,259.004287 C297.958217,259.286872 312,273.503619 312,291 L312,291 L311.995713,291.529179 C311.713128,308.958217 297.496381,323 280,323 L280,323 L126,323 L126,761 L768,761 L768,323 L614,323 L613.470821,322.995713 C596.041783,322.713128 582,308.496381 582,291 L582,291 L582.004287,290.470821 C582.286872,273.041783 596.503619,259 614,259 L614,259 L830,259 L830,143 L614,143 L613.470821,142.995713 C596.041783,142.713128 582,128.496381 582,111 C582,93.326888 596.326888,79 614,79 L614,79 L862,79 L862.529179,79.0042871 C879.958217,79.2868724 894,93.5036191 894,111 L894,111 L894,291 L893.995713,291.529179 C893.713128,308.958217 879.496381,323 862,323 L862,323 L832,323 L832,793 L831.995713,793.529179 C831.713128,810.958217 817.496381,825 800,825 L800,825 L94,825 C76.326888,825 62,810.673112 62,793 L62,793 L62,323 L32,323 L31.4708215,322.995713 C14.0417829,322.713128 -1.40526004e-14,308.496381 -1.29812561e-14,291 L-1.29812561e-14,291 L-1.95943488e-15,111 L0.00428708574,110.470821 C0.286872383,93.0417829 14.5036191,79 32,79 L32,79 L280,79 Z M446.651804,5.22277332e-09 C464.324916,5.22277332e-09 478.651804,14.326888 478.651804,32 L478.652154,520.800042 L580.986737,418.46492 C593.483514,405.968143 613.744794,405.968143 626.241571,418.46492 C638.738348,430.961697 638.738348,451.222977 626.241571,463.719754 L472.224401,617.73769 C471.422689,618.764161 470.549596,619.752986 469.605122,620.697459 C463.313211,626.98937 455.053039,630.113413 446.806577,630.069588 C438.560447,630.11316 430.300688,626.989116 424.009032,620.697459 C423.064558,619.752986 422.191465,618.764161 421.389753,617.73769 L267.372583,463.719754 C254.875806,451.222977 254.875806,430.961697 267.372583,418.46492 C279.744393,406.09311 299.726191,405.969392 312.2502,418.093766 L312.627417,418.46492 L414.652154,520.490042 L414.651804,32 C414.651804,14.326888 428.978692,5.22277332e-09 446.651804,5.22277332e-09 Z" id="path-1"></path>

    </svg>
