<svg width="1024px" height="1024px" viewBox="0 0 1024 1024" version="1.1" xmlns="http://www.w3.org/2000/svg" xmlns:xlink="http://www.w3.org/1999/xlink">

        <path d="M799.5,0.5 C808.463802,0.5 816.566783,4.1856183 822.376204,10.1241184 C828.314382,15.9332175 832,24.0361976 832,33 L832,799 C832,816.673112 817.673112,831 800,831 L799,831 C797.068182,831 795.176346,830.828818 793.338833,830.500795 L33.1061987,830.499828 C33.0708126,830.499942 33.035413,830.5 33,830.5 L32,830.5 C14.326888,830.5 2.164332e-15,816.173112 0,798.5 L0,32.5 C-2.164332e-15,14.826888 14.326888,0.5 32,0.5 L799.5,0.5 Z M767,65.499 L65,65.499 L65,765.499 L767,765.5 L767,65.499 Z M677.605633,120.995161 C686.503739,120.995161 694.553594,124.626953 700.353734,130.489071 C706.21544,136.289155 709.846938,144.33872 709.846938,153.236466 C709.846938,154.572153 709.765103,155.888728 709.606175,157.181448 L709.605633,374.995161 C709.605633,392.668273 695.278745,406.995161 677.605633,406.995161 C660.109252,406.995161 645.892505,392.953378 645.60992,375.524339 L645.605633,374.995161 L645.605905,230.710121 L515.151993,361.164529 C514.079885,362.236637 512.95063,363.216768 511.774033,364.104922 L231.04388,644.833958 L375.767217,644.833577 C393.440329,644.833577 407.767217,659.160465 407.767217,676.833577 C407.767217,694.506689 393.440329,708.833577 375.767217,708.833577 L157.953504,708.834119 C156.660784,708.993047 155.344209,709.074882 154.008521,709.074882 C145.110416,709.074882 137.06056,705.44309 131.26042,699.580971 C125.398715,693.780887 121.767217,685.731323 121.767217,676.833577 C121.767217,675.497889 121.849051,674.181315 122.007979,672.888594 L122.008521,455.074882 C122.008521,437.40177 136.335409,423.074882 154.008521,423.074882 C171.504902,423.074882 185.721649,437.116665 186.004234,454.545703 L186.008521,455.074882 L186.008249,599.359921 L498.188604,287.17907 C499.261446,286.106228 500.391514,285.125489 501.568982,284.236853 L600.570274,185.236084 L455.846938,185.236466 C438.173826,185.236466 423.846938,170.909578 423.846938,153.236466 C423.846938,135.563354 438.173826,121.236466 455.846938,121.236466 L673.66065,121.235924 C674.953371,121.076995 676.269945,120.995161 677.605633,120.995161 Z" id="path-1"></path>

    </svg>
