<svg width="1024px" height="1024px" viewBox="0 0 1024 1024" version="1.1" xmlns="http://www.w3.org/2000/svg" xmlns:xlink="http://www.w3.org/1999/xlink">

        <path d="M280,290 L280.529179,290.004287 C297.958217,290.286872 312,304.503619 312,322 L312,322 L311.995713,322.529179 C311.713128,339.958217 297.496381,354 280,354 L280,354 L64,354 L64,470 L280,470 L280.529179,470.004287 C297.958217,470.286872 312,484.503619 312,502 L312,502 L311.995713,502.529179 C311.713128,519.958217 297.496381,534 280,534 L280,534 L126,534 L126,832 L768,832 L768,534 L614,534 L613.470821,533.995713 C596.041783,533.713128 582,519.496381 582,502 L582,502 L582.004287,501.470821 C582.286872,484.041783 596.503619,470 614,470 L614,470 L830,470 L830,354 L614,354 L613.470821,353.995713 C596.041783,353.713128 582,339.496381 582,322 C582,304.326888 596.326888,290 614,290 L614,290 L862,290 L862.529179,290.004287 C879.958217,290.286872 894,304.503619 894,322 L894,322 L894,502 L893.995713,502.529179 C893.713128,519.958217 879.496381,534 862,534 L862,534 L832,534 L832,864 L831.995713,864.529179 C831.713128,881.958217 817.496381,896 800,896 L800,896 L94,896 C76.326888,896 62,881.673112 62,864 L62,864 L62,534 L32,534 L31.4708215,533.995713 C14.0417829,533.713128 -1.40526004e-14,519.496381 -1.29812561e-14,502 L-1.29812561e-14,502 L-1.95943488e-15,322 L0.00428708574,321.470821 C0.286872383,304.041783 14.5036191,290 32,290 L32,290 L280,290 Z M446.806577,0.000454729846 C455.053039,-0.0433708013 463.313211,3.08067196 469.605122,9.37258301 C470.549596,10.3170569 471.422689,11.3058812 472.224401,12.3323521 L472.224401,12.3323521 L626.241571,166.350288 C638.738348,178.847066 638.738348,199.108345 626.241571,211.605122 C613.744794,224.1019 593.483514,224.1019 580.986737,211.605122 L580.986737,211.605122 L478.652154,109.27 L478.651804,598.070042 C478.651804,615.743154 464.324916,630.070042 446.651804,630.070042 C428.978692,630.070042 414.651804,615.743154 414.651804,598.070042 L414.651804,598.070042 L414.652154,109.58 L312.627417,211.605122 L312.2502,211.976277 C299.726191,224.10065 279.744393,223.976932 267.372583,211.605122 C254.875806,199.108345 254.875806,178.847066 267.372583,166.350288 L267.372583,166.350288 L421.389753,12.3323521 C422.191465,11.3058812 423.064558,10.3170569 424.009032,9.37258301 C430.300688,3.08092647 438.560447,-0.0431180521 446.806577,0.000454729846 Z" id="path-1"></path>

    </svg>
