<svg width="1024px" height="1024px" viewBox="0 0 1024 1024" version="1.1" xmlns="http://www.w3.org/2000/svg" xmlns:xlink="http://www.w3.org/1999/xlink">

        <path d="M798,478 C815.673112,478 830,492.326888 830,510 L830,798 C830,815.673112 815.673112,830 798,830 L510,830 C492.326888,830 478,815.673112 478,798 L478,510 C478,492.326888 492.326888,478 510,478 L798,478 Z M50,497 C66.577105,497 80.2101523,509.60501 81.8373187,525.753206 C124.268933,653.475415 238.094344,748.612536 375.998635,763.857627 L375.998703,763.867499 C392.43417,765.212511 405.353154,778.977413 405.353154,795.759704 C405.353154,813.432816 391.026266,827.759704 373.353154,827.759704 C372.099155,827.759704 370.862003,827.687574 369.645622,827.547235 L369.644945,827.550051 C252.017114,814.764542 149.14525,752.825323 81.9974942,662.700535 L82,721 C82,738.673112 67.673112,753 50,753 C32.326888,753 18,738.673112 18,721 L18,529 C18,511.326888 32.326888,497 50,497 Z M766,542 L542,542 L542,766 L766,766 L766,542 Z M0.990950889,386.094901 L0.990950889,443.905099 C0.333933733,434.355294 -1.13686838e-13,424.716644 -1.13686838e-13,415 C-1.13686838e-13,405.283356 0.333933733,395.644706 0.990950889,386.094901 Z M829.594685,396.492292 C829.863954,402.627872 830,408.798048 830,415 C830,419.809189 829.918197,424.599272 829.755905,429.368933 L829.594685,396.492292 Z M320,1.36424205e-12 C337.673112,1.36099555e-12 352,14.326888 352,32 L352,320 C352,337.673112 337.673112,352 320,352 L32,352 C14.326888,352 -5.46790869e-14,337.673112 -5.68434189e-14,320 L-5.68434189e-14,32 C-5.90077509e-14,14.326888 14.326888,1.36748855e-12 32,1.36424205e-12 L320,1.36424205e-12 Z M457.181482,2.28783612 C458.060379,2.28783612 458.931001,2.32326865 459.791996,2.39278319 L459.792386,2.38917658 L459.948981,2.4058443 C460.339403,2.43928917 460.727823,2.47974423 461.114114,2.52708304 L461.587,2.589 L463.323853,2.78343024 C579.714658,16.2809299 681.422974,77.9353439 748.005169,167.30304 L748,109 C748,91.326888 762.326888,77 780,77 C797.673112,77 812,91.326888 812,109 L812,301 C812,318.673112 797.673112,333 780,333 C763.418442,333 749.782524,320.388218 748.161373,304.233781 L748.280866,304.584181 C705.932972,176.693418 592.027975,81.4009863 454.001365,66.1423733 L454.001698,66.1318361 C437.821376,64.5356867 425.181482,50.8878642 425.181482,34.2878361 C425.181482,16.6147241 439.50837,2.28783612 457.181482,2.28783612 Z M288,64 L64,64 L64,288 L288,288 L288,64 Z" id="path-1"></path>

    </svg>
