<svg width="1024px" height="1024px" viewBox="0 0 1024 1024" version="1.1" xmlns="http://www.w3.org/2000/svg" xmlns:xlink="http://www.w3.org/1999/xlink">

        <path d="M864,0 C881.496381,0 895.713128,14.0417829 895.995713,31.4708215 L896,32 L896,798 C896,815.496381 881.958217,829.713128 864.529179,829.995713 L864,830 L32,830 C14.5036191,830 0.286872383,815.958217 0.00428708574,798.529179 L0,798 L0,32 C2.14268868e-15,14.5036191 14.0417829,0.286872383 31.4708215,0.00428708574 L32,0 L864,0 Z M832,64 L64,64 L64,766 L832,766 L832,64 Z M196,110 C213.673112,110 228,124.326888 228,142 L228,142 L228,688 C228,705.673112 213.673112,720 196,720 C178.326888,720 164,705.673112 164,688 L164,688 L164,142 C164,124.326888 178.326888,110 196,110 Z M653,444 C670.673112,444 685,458.326888 685,476 L685,476 L685,688 C685,705.673112 670.673112,720 653,720 C635.326888,720 621,705.673112 621,688 L621,688 L621,614 L386,614 C368.503619,614 354.286872,599.958217 354.004287,582.529179 L354,582 C354,564.326888 368.326888,550 386,550 L386,550 L621,550 L621,476 C621,458.503619 635.041783,444.286872 652.470821,444.004287 Z M700,110 C717.673112,110 732,124.326888 732,142 L732,142 L732,338 C732,355.673112 717.673112,370 700,370 C682.326888,370 668,355.673112 668,338 L668,338 L668,142 C668,124.326888 682.326888,110 700,110 Z M532,110 C549.673112,110 564,124.326888 564,142 L564,142 L564,338 C564,355.673112 549.673112,370 532,370 C514.326888,370 500,355.673112 500,338 L500,338 L500,142 C500,124.326888 514.326888,110 532,110 Z M364,110 C381.673112,110 396,124.326888 396,142 L396,142 L396,338 C396,355.673112 381.673112,370 364,370 C346.326888,370 332,355.673112 332,338 L332,338 L332,142 C332,124.326888 346.326888,110 364,110 Z" id="path-1"></path>

    </svg>
