<svg width="1024px" height="1024px" viewBox="0 0 1024 1024" version="1.1" xmlns="http://www.w3.org/2000/svg" xmlns:xlink="http://www.w3.org/1999/xlink">

        <path d="M301,-1.09139364e-11 C304.219372,-1.09139364e-11 307.327707,0.475409889 310.258628,1.35985488 C316.138051,3.06613628 321.592751,6.47532586 325.823533,11.5173762 L325.823533,11.5173762 L431.115,137 L802,137 L802,137 L802.529179,137.004287 C819.958217,137.286872 834,151.503619 834,169 L834,169 L834,738 C834,755.673112 819.673112,770 802,770 L32,770 C14.326888,770 2.164332e-15,755.673112 0,738 L0,32 C-9.26975936e-15,14.326888 14.326888,-1.09106899e-11 32,-1.09139364e-11 Z M770,381 L64,381 L64,706 L770,706 L770,381 Z M286.316,64 L64,64 L64,317 L770,317 L770,201 L417,201 C412.184273,201 407.617004,199.936226 403.520358,198.030842 C398.895778,196.12701 394.650352,193.10831 391.212883,189.011694 L391.212883,189.011694 L286.316,64 Z" id="path-1"></path>

    </svg>
