<svg width="1024px" height="1024px" viewBox="0 0 1024 1024" version="1.1" xmlns="http://www.w3.org/2000/svg" xmlns:xlink="http://www.w3.org/1999/xlink">

        <path d="M448,0 C695.423568,0 896,200.576432 896,448 C896,695.423568 695.423568,896 448,896 C200.576432,896 0,695.423568 0,448 C0,200.576432 200.576432,0 448,0 Z M448,64 C235.922656,64 64,235.922656 64,448 C64,660.077344 235.922656,832 448,832 C660.077344,832 832,660.077344 832,448 C832,235.922656 660.077344,64 448,64 Z M448,131 C623.074266,131 765,272.925734 765,448 C765,623.074266 623.074266,765 448,765 C272.925734,765 131,623.074266 131,448 C131,272.925734 272.925734,131 448,131 Z M448,195 C308.271958,195 195,308.271958 195,448 C195,587.728042 308.271958,701 448,701 C587.728042,701 701,587.728042 701,448 C701,308.271958 587.728042,195 448,195 Z M448,288 C536.36556,288 608,359.63444 608,448 C608,536.36556 536.36556,608 448,608 C359.63444,608 288,536.36556 288,448 C288,359.63444 359.63444,288 448,288 Z" id="path-1"></path>

    </svg>
