<svg width="1024px" height="1024px" viewBox="0 0 1024 1024" version="1.1" xmlns="http://www.w3.org/2000/svg" xmlns:xlink="http://www.w3.org/1999/xlink">

        <path d="M378,0 L378,324 C378,341.496381 392.041783,355.713128 409.470821,355.995713 L410,356 L734,356 L734,858 C734,875.673112 719.673112,890 702,890 L32,890 C14.326888,890 2.164332e-15,875.673112 0,858 L0,32 C-2.164332e-15,14.326888 14.326888,3.24649801e-15 32,0 L378,0 Z M428,639 L180,639 C162.326888,639 148,653.326888 148,671 C148,688.673112 162.326888,703 180,703 L428,703 C445.673112,703 460,688.673112 460,671 C460,653.326888 445.673112,639 428,639 Z M554,467 L180,467 C162.326888,467 148,481.326888 148,499 C148,516.673112 162.326888,531 180,531 L554,531 C571.673112,531 586,516.673112 586,499 C586,481.326888 571.673112,467 554,467 Z M442,0 L734,292 L474,292 C456.326888,292 442,277.673112 442,260 L442,0 Z" id="path-1"></path>

    </svg>
