<svg width="1024px" height="1024px" viewBox="0 0 1024 1024" version="1.1" xmlns="http://www.w3.org/2000/svg" xmlns:xlink="http://www.w3.org/1999/xlink">

        <path d="M802,381 C819.673112,381 834,395.326888 834,413 L834,738 C834,755.673112 819.673112,770 802,770 L31.9999999,770 C14.326888,770 -5.50935489e-08,755.673112 -5.50935511e-08,738 L-5.50717232e-08,413 C-5.50717303e-08,395.326888 14.326888,381 31.9999999,381 L802,381 Z M301,-1.09139364e-11 C304.219372,-1.09139364e-11 307.327707,0.475409889 310.258628,1.35985488 C316.138051,3.06613628 321.59275,6.47532586 325.823533,11.5173762 L325.823533,11.5173762 L431.115,137 L802,137 L802,137 L802.529178,137.004287 C819.958217,137.286872 834,151.503619 834,169 L834,169 L834,243 C834,243.035413 833.999942,243.070813 833.999827,243.106199 L834,285 C834,302.673112 819.673112,317 802,317 L31.9999999,317 C14.326888,317 -5.50717658e-08,302.673112 -5.50717232e-08,285 L-5.50935511e-08,32 C-5.50935603e-08,14.326888 14.326888,-1.09106899e-11 31.9999999,-1.09139364e-11 Z" id="path-1"></path>

    </svg>
