<svg width="1024px" height="1024px" viewBox="0 0 1024 1024" version="1.1" xmlns="http://www.w3.org/2000/svg" xmlns:xlink="http://www.w3.org/1999/xlink">

        <path d="M442.96342,0.708586078 L734.291414,292.03658 L733.327,292.999586 L734,293 L734,859 C734,876.673112 719.673112,891 702,891 L32,891 C14.326888,891 2.164332e-15,876.673112 0,859 L0,33 C-2.164332e-15,15.326888 14.326888,1 32,1 L442,1 L442,1.67158608 L442.96342,0.708586078 Z M378,65 L64,65 L64,827 L670,827 L670,357 L410,357 C392.326888,357 378,342.673112 378,325 L378,65 Z M428,640 C445.673112,640 460,654.326888 460,672 C460,689.496381 445.958217,703.713128 428.529179,703.995713 L428,704 L180,704 C162.326888,704 148,689.673112 148,672 C148,654.503619 162.041783,640.286872 179.470821,640.004287 L180,640 L428,640 Z M554,468 C571.673112,468 586,482.326888 586,500 C586,517.496381 571.958217,531.713128 554.529179,531.995713 L554,532 L180,532 C162.326888,532 148,517.673112 148,500 C148,482.503619 162.041783,468.286872 179.470821,468.004287 L180,468 L554,468 Z M644.745,292.999586 L442,90.2545861 L442,293 L644.745,292.999586 Z" id="path-1"></path>

    </svg>
