<svg width="1024px" height="1024px" viewBox="0 0 1024 1024" version="1.1" xmlns="http://www.w3.org/2000/svg" xmlns:xlink="http://www.w3.org/1999/xlink">

        <path d="M732,764 C749.673112,764 764,778.326888 764,796 C764,813.673112 749.673112,828 732,828 L732,828 L96,828 C78.326888,828 64,813.673112 64,796 C64,778.326888 78.326888,764 96,764 L96,764 Z M796,0 C813.673112,-3.24649801e-15 828,14.326888 828,32 L828,668 C828,685.673112 813.673112,700 796,700 L32,700 C14.326888,700 2.164332e-15,685.673112 0,668 L0,32 C-2.164332e-15,14.326888 14.326888,3.24649801e-15 32,0 L796,0 Z M764,64 L64,64 L64,636 L764,636 L764,64 Z M431.010155,125.007067 L431.01,125.008 L431.813523,125.00873 C449.309904,125.00873 463.52665,139.050513 463.809236,156.479551 L463.813523,157.00873 C463.813523,174.505111 449.77174,188.721857 432.342701,189.004443 L431.813523,189.00873 L431.009,189.008 L431.009529,189.017606 C388.689167,188.336183 351.733357,219.262206 345.610804,261.899662 L345.572,261.894 L338.894,316.283 L384,316.283605 C401.496381,316.283605 415.713128,330.325388 415.995713,347.754427 L416,348.283605 C416,365.779986 401.958217,379.996733 384.529179,380.279318 L384,380.283605 L331.035,380.283 L310.52067,547.365897 C308.388397,564.731862 292.718694,577.131377 275.38513,575.28779 L274.859374,575.227555 C257.493408,573.095282 245.093894,557.425579 246.93748,540.092015 L246.997716,539.566259 L266.555,380.283 L227,380.283605 C209.503619,380.283605 195.286872,366.241822 195.004287,348.812784 L195,348.283605 C195,330.787224 209.041783,316.570478 226.470821,316.287892 L227,316.283605 L274.413,316.283 L282.096087,253.712967 L282.134,253.717 L282.174035,253.413361 C292.584745,178.664432 357.01348,124.287032 431.010155,125.007067 Z M619.107816,293.992551 L619.543753,294.292564 C633.875949,304.328075 637.467591,323.984822 627.702185,338.423938 L627.402172,338.859875 L576.012934,412.250821 L627.402172,485.641041 C637.437684,499.973237 634.08972,519.67295 619.974772,529.901316 L619.543753,530.208352 C605.211557,540.243864 585.511844,536.8959 575.283478,522.780952 L574.976442,522.349933 L536.948364,468.04081 L498.921051,522.349933 C488.885539,536.682129 469.228793,540.27377 454.789676,530.508365 L454.353739,530.208352 C440.021543,520.172841 436.429902,500.516094 446.195307,486.076978 L446.49532,485.641041 L497.883522,412.25059 L446.49532,338.859875 C436.358439,324.382909 439.876774,304.429444 454.353739,294.292564 C468.685935,284.257052 488.385648,287.605016 498.614015,301.719964 L498.921051,302.150983 L536.948093,356.460602 L574.976442,302.150983 C585.011953,287.818787 604.6687,284.227146 619.107816,293.992551 Z" id="path-1"></path>

    </svg>
