<svg width="1024px" height="1024px" viewBox="0 0 1024 1024" version="1.1" xmlns="http://www.w3.org/2000/svg" xmlns:xlink="http://www.w3.org/1999/xlink">

        <path d="M798,708 C815.673112,708 830,722.326888 830,740 C830,757.496381 815.958217,771.713128 798.529179,771.995713 L798,772 L32,772 C14.326888,772 -2.164332e-15,757.673112 0,740 C2.14268868e-15,722.503619 14.0417829,708.286872 31.4708215,708.004287 L32,708 L798,708 Z M179.730014,170.867966 L369.234631,360.372583 C381.731409,372.86936 381.731409,393.13064 369.234631,405.627417 L179.730014,595.132034 C167.233237,607.628812 146.971957,607.628812 134.47518,595.132034 C121.978403,582.635257 121.978403,562.373978 134.47518,549.8772 L301.351673,382.999293 L134.47518,216.1228 C121.978403,203.626022 121.978403,183.364743 134.47518,170.867966 C146.971957,158.371188 167.233237,158.371188 179.730014,170.867966 Z M798,472 C815.673112,472 830,486.326888 830,504 C830,521.496381 815.958217,535.713128 798.529179,535.995713 L798,536 L503,536 C485.326888,536 471,521.673112 471,504 C471,486.503619 485.041783,472.286872 502.470821,472.004287 L503,472 L798,472 Z M798,236 C815.673112,236 830,250.326888 830,268 C830,285.496381 815.958217,299.713128 798.529179,299.995713 L798,300 L503,300 C485.326888,300 471,285.673112 471,268 C471,250.503619 485.041783,236.286872 502.470821,236.004287 L503,236 L798,236 Z M798,0 C815.673112,0 830,14.326888 830,32 C830,49.4963809 815.958217,63.7131276 798.529179,63.9957129 L798,64 L32,64 C14.326888,64 -2.164332e-15,49.673112 0,32 C2.14268868e-15,14.5036191 14.0417829,0.286872383 31.4708215,0.00428708574 L32,0 L798,0 Z" id="path-1"></path>

    </svg>
