<svg width="1024px" height="1024px" viewBox="0 0 1024 1024" version="1.1" xmlns="http://www.w3.org/2000/svg" xmlns:xlink="http://www.w3.org/1999/xlink">

        <path d="M-0.00495757728,524.948827 C73.2799747,579.102077 204.098304,615 364,615 C523.900871,615 654.718676,579.102448 728.003824,524.949665 L728,701 C728,773.349302 576.077344,832 364,832 C151.922656,832 5.15854026e-09,773.349302 5.15854026e-09,701 L5.15854026e-09,701 Z M-0.00495757728,235.948827 C73.2799747,290.102077 204.098304,326 364,326 C523.900871,326 654.718676,290.102448 728.003824,235.949665 L728,420 C728,492.349302 578.433759,551 364,551 C149.566241,551 -1.13686838e-13,492.349302 -1.13686838e-13,420 L-1.13686838e-13,420 Z M364,0 C576.077344,0 728,58.6506978 728,131 C728,203.349302 578.433759,262 364,262 C149.566241,262 -1.13686838e-13,203.349302 -1.13686838e-13,131 L-1.13686838e-13,131 L0.045485034,128.833675 C3.0444686,57.4835489 154.04343,0 364,0 Z" id="path-1"></path>

    </svg>
