<svg width="1024px" height="1024px" viewBox="0 0 1024 1024" version="1.1" xmlns="http://www.w3.org/2000/svg" xmlns:xlink="http://www.w3.org/1999/xlink">

        <path d="M364,0 C575.724117,0 727.493762,80.9898561 727.998736,180.999294 L728,181 L728,655 L727.786129,655.00107 C721.375235,752.229669 571.473193,830 364,830 C156.526164,830 6.62383495,752.229187 0.213811331,655.000165 L0,655 L0,181 L0.007,181 L0.045485034,178.498566 C3.0444686,79.6432376 154.04343,0 364,0 Z M364,586 C234.713943,586 127.783382,555.800946 63.9987416,509.512852 L64,649 L64.0092648,649 L64.0369109,650.443077 C66.4707238,714.440328 189.036191,766 364,766 C540.276331,766 663.36522,713.663859 663.997552,649.000734 L664,649 L664.001551,509.51264 C600.216945,555.800853 493.286255,586 364,586 Z M364,363 C234.714414,363 127.784161,332.801166 63.9994386,286.513358 L64,405 L64.0092648,405 L64.0369109,406.443077 C66.4707238,470.440328 189.036191,522 364,522 C540.276331,522 663.36522,469.663859 663.997552,405.000734 L664,405 L664.001551,286.51264 C600.216945,332.800853 493.286255,363 364,363 Z M364,64 C187.26888,64 64,116.606542 64,181.5 C64,246.393458 187.26888,299 364,299 C540.73112,299 664,246.393458 664,181.5 C664,116.606542 540.73112,64 364,64 Z" id="path-1"></path>

    </svg>
