<svg width="1024px" height="1024px" viewBox="0 0 1024 1024" version="1.1" xmlns="http://www.w3.org/2000/svg" xmlns:xlink="http://www.w3.org/1999/xlink">

        <path d="M667,0 C682.576278,0 695.553257,11.1289246 698.413312,25.8691497 L827.463601,507.493021 L827.485281,507.544156 C829.027461,511.190277 829.91308,515.181715 829.993927,519.370259 L830,520 L830,796 C830,813.496381 815.958217,827.713128 798.529179,827.995713 L798,828 L32,828 C14.5036191,828 0.286872383,813.958217 0.00428708574,796.529179 L0,796 L0,520 C5.82129033e-16,515.246556 1.03643632,510.735184 2.89565313,506.679541 L131.339116,27.324557 C133.601937,11.8676681 146.915047,0 163,0 L163,0 Z M766,551.999814 L591.824588,552.002454 C565.642803,624.322568 496.356357,676 415,676 C333.643643,676 264.357197,624.322568 238.175412,552.002454 L64,551.999814 L64,763.999814 L766,763.999814 L766,551.999814 Z M642.372,64 L187.769,64 L74.158,487.999814 L291,488 C291,556.483309 346.516691,612 415,612 C483.483309,612 539,556.483309 539,488 L755.982,487.999814 L642.372,64 Z" id="path-1"></path>

    </svg>
