<svg width="1024px" height="1024px" viewBox="0 0 1024 1024" version="1.1" xmlns="http://www.w3.org/2000/svg" xmlns:xlink="http://www.w3.org/1999/xlink">

        <path d="M538.96342,4.33431069e-13 L830.291414,291.327994 L829.327,292.291 L830,292.291414 L830,858.291414 C830,875.964526 815.673112,890.291414 798,890.291414 L128,890.291414 C110.326888,890.291414 96,875.964526 96,858.291414 L96,697 L32,697 C14.326888,697 2.164332e-15,682.673112 0,665 L0,463 C-2.164332e-15,445.326888 14.326888,431 32,431 L96,431 L96,32.2914139 C96,14.6183019 110.326888,0.291413922 128,0.291413922 L538,0.291413922 L538,0.963 L538.96342,4.33431069e-13 Z M474,64.2914139 L160,64.2914139 L160,431 L510,431 C527.673112,431 542,445.326888 542,463 L542,665 C542,682.673112 527.673112,697 510,697 L160,697 L160,826.291414 L766,826.291414 L766,356.291414 L506,356.291414 C488.326888,356.291414 474,341.964526 474,324.291414 L474,64.2914139 Z M136.76,484 C131.626667,484 127.96,485.246667 125.76,487.74 C123.56,490.233333 122.46,492.8 122.46,495.44 L122.46,595.54 C122.46,599.94 122.423333,603.643333 122.35,606.65 C122.276667,609.656667 121.946667,612.04 121.36,613.8 C120.773333,615.56 119.856667,616.843333 118.61,617.65 C117.363333,618.456667 115.566667,618.86 113.22,618.86 C110.286667,618.86 107.72,617.943333 105.52,616.11 C103.32,614.276667 101.193333,612.553333 99.14,610.94 C97.2333333,609.473333 95.3633333,608.703333 93.53,608.63 C91.6966667,608.556667 89.9733333,608.813333 88.36,609.4 C86.7466667,609.986667 85.3533333,610.793333 84.18,611.82 C83.0066667,612.846667 82.2,613.726667 81.76,614.46 C80.2933333,616.806667 79.7433333,619.153333 80.11,621.5 C80.4766667,623.846667 81.3933333,626.046667 82.86,628.1 C84.3266667,630.153333 86.0866667,632.06 88.14,633.82 C90.1933333,635.58 92.2466667,637.046667 94.3,638.22 C97.6733333,640.273333 101.12,641.74 104.64,642.62 C108.16,643.5 112.266667,643.94 116.96,643.94 C122.24,643.94 127.006667,643.316667 131.26,642.07 C135.513333,640.823333 139.106667,638.806667 142.04,636.02 C144.973333,633.233333 147.21,629.53 148.75,624.91 C150.29,620.29 151.06,614.68 151.06,608.08 L151.06,495.44 C151.06,492.506667 149.96,489.866667 147.76,487.52 C145.56,485.173333 141.893333,484 136.76,484 Z M402.48,486.2 L369.26,486.2 C365.446667,486.2 362.33,486.383333 359.91,486.75 C357.49,487.116667 355.62,487.813333 354.3,488.84 C352.98,489.866667 352.063333,491.333333 351.55,493.24 C351.036667,495.146667 350.78,497.64 350.78,500.72 L350.78,630.3 C350.78,632.94 351.806667,635.506667 353.86,638 C355.913333,640.493333 359.506667,641.74 364.64,641.74 C369.773333,641.74 373.513333,640.566667 375.86,638.22 C378.206667,635.873333 379.38,633.233333 379.38,630.3 L379.38,577.06 L437.68,638.44 C440.173333,640.933333 443.473333,642.033333 447.58,641.74 C451.686667,641.446667 455.206667,639.833333 458.14,636.9 C461.073333,633.966667 462.466667,630.593333 462.32,626.78 C462.173333,622.966667 460.633333,619.593333 457.7,616.66 L414.58,574.2 C416.193333,574.053333 417.733333,573.833333 419.2,573.54 L423.6,572.66 C433.426667,570.46 441.236667,565.986667 447.03,559.24 C452.823333,552.493333 455.72,542.74 455.72,529.98 C455.72,521.62 454.583333,514.616667 452.31,508.97 C450.036667,503.323333 446.663333,498.813333 442.19,495.44 C437.716667,492.066667 432.143333,489.683333 425.47,488.29 C418.796667,486.896667 411.133333,486.2 402.48,486.2 Z M253.12,484 C249.013333,484 245.75,484.916667 243.33,486.75 C240.91,488.583333 239.333333,490.673333 238.6,493.02 L193.28,625.24 C191.226667,631.253333 191.556667,635.506667 194.27,638 C196.983333,640.493333 200.613333,641.74 205.16,641.74 C209.706667,641.74 213.153333,640.676667 215.5,638.55 C217.846667,636.423333 219.68,633.6 221,630.08 L230.68,604.78 L275.34,604.78 L285.9,631.18 C287.073333,634.113333 288.76,636.643333 290.96,638.77 C293.16,640.896667 296.533333,641.886667 301.08,641.74 C305.626667,641.74 309.256667,640.456667 311.97,637.89 C314.683333,635.323333 315.16,631.253333 313.4,625.68 L267.64,493.02 C266.906667,490.673333 265.33,488.583333 262.91,486.75 C260.49,484.916667 257.226667,484 253.12,484 Z M253.12,525.36 L270.06,579.92 L236.18,579.92 L253.12,525.36 Z M402.48,511.28 C405.706667,511.28 408.823333,511.536667 411.83,512.05 C414.836667,512.563333 417.476667,513.516667 419.75,514.91 C422.023333,516.303333 423.82,518.246667 425.14,520.74 C426.46,523.233333 427.12,526.386667 427.12,530.2 C427.12,538.413333 425.03,543.803333 420.85,546.37 C416.67,548.936667 410.546667,550.22 402.48,550.22 L379.38,550.22 L379.38,511.28 L402.48,511.28 Z M538,89.546 L538,292.291414 L740.745,292.291 L538,89.546 Z" id="path-1"></path>

    </svg>
