<svg width="1024px" height="1024px" viewBox="0 0 1024 1024" version="1.1" xmlns="http://www.w3.org/2000/svg" xmlns:xlink="http://www.w3.org/1999/xlink">

        <path d="M364,0 C575.724117,0 727.493762,80.9898561 727.998736,180.999294 L728,181 L727.999979,181.43489 C727.999993,181.456593 728,181.478296 728,181.5 L727.999,181.565 L728,718 L727.845704,718.000984 C722.400513,815.695827 572.182793,894 363.998735,894 C155.815062,894 5.5975126,815.696117 0.151796496,718.001525 L-7.27595761e-11,718 L-7.27595761e-11,181 L0.00699999993,181 L0.0454850339,178.498566 C3.0444686,79.6432376 154.04343,0 364,0 Z M364,717 C234.713943,717 127.783382,686.800946 63.9987416,640.512852 L64,713 L64.008,713 L64.0356461,714.443077 C66.4694591,778.440328 189.034927,830 363.998735,830 C540.275066,830 663.363956,777.663859 663.996288,713.000734 L663.999,713 L664.000561,640.513358 C600.215839,686.801166 493.285586,717 364,717 Z M564,712 C581.673112,712 596,726.326888 596,744 C596,761.673112 581.673112,776 564,776 C546.326888,776 532,761.673112 532,744 C532,726.326888 546.326888,712 564,712 Z M364,540 C234.713943,540 127.783382,509.800946 63.9987416,463.512852 L64,536 L64.0092648,536 L64.0369109,537.443077 C66.4707238,601.440328 189.036191,653 364,653 C540.276331,653 663.36522,600.663859 663.997552,536.000734 L663.999,536 L664.000561,463.513358 C600.215839,509.801166 493.285586,540 364,540 Z M564,535 C581.673112,535 596,549.326888 596,567 C596,584.673112 581.673112,599 564,599 C546.326888,599 532,584.673112 532,567 C532,549.326888 546.326888,535 564,535 Z M364,363 C234.714414,363 127.784161,332.801166 63.9994386,286.513358 L64,359 L64.0092648,359 L64.0369109,360.443077 C66.4707238,424.440328 189.036191,476 364,476 C540.276331,476 663.36522,423.663859 663.997552,359.000734 L663.999,359 L664.000561,286.513358 C600.215839,332.801166 493.285586,363 364,363 Z M564,358 C581.673112,358 596,372.326888 596,390 C596,407.673112 581.673112,422 564,422 C546.326888,422 532,407.673112 532,390 C532,372.326888 546.326888,358 564,358 Z M364,64 C187.26888,64 64,116.606542 64,181.5 C64,246.393458 187.26888,299 364,299 C540.682912,299 663.932747,246.422154 663.999972,181.553101 L663.999,181.447 L663.963089,179.556923 C661.529276,115.559672 538.963809,64 364,64 Z" id="path-1"></path>

    </svg>
