<svg width="1024px" height="1024px" viewBox="0 0 1024 1024" version="1.1" xmlns="http://www.w3.org/2000/svg" xmlns:xlink="http://www.w3.org/1999/xlink">

        <path d="M792,0 C809.673112,-3.24649801e-15 824,14.326888 824,32 L824,861 C824,878.673112 809.673112,893 792,893 L88,893 C70.326888,893 56,878.673112 56,861 L56,703 L32,703 C14.326888,703 -2.164332e-15,688.673112 0,671 C-1.37449786e-15,653.503619 14.0417829,639.286872 31.4708215,639.004287 L32,639 L56,639 L56,553 L32,553 C14.5036191,553 0.286872383,538.958217 0.00428708574,521.529179 L0,521 C-1.37449786e-15,503.503619 14.0417829,489.286872 31.4708215,489.004287 L32,489 L56,489 L56,403 L32,403 C14.5036191,403 0.286872383,388.958217 0.00428708574,371.529179 L0,371 C-1.37449786e-15,353.503619 14.0417829,339.286872 31.4708215,339.004287 L32,339 L56,339 L56,253 L32,253 C14.5036191,253 0.286872383,238.958217 0.00428708574,221.529179 L0,221 C-1.37449786e-15,203.503619 14.0417829,189.286872 31.4708215,189.004287 L32,189 L56,189 L56,32 C56,14.326888 70.326888,3.24649801e-15 88,0 L792,0 Z M760,64 L120,64 L120,189 L143,189 C160.673112,189 175,203.326888 175,221 C175,238.496381 160.958217,252.713128 143.529179,252.995713 L143,253 L120,253 L120,339 L143,339 C160.496381,339 174.713128,353.041783 174.995713,370.470821 L175,371 C175,388.496381 160.958217,402.713128 143.529179,402.995713 L143,403 L120,403 L120,489 L143,489 C160.496381,489 174.713128,503.041783 174.995713,520.470821 L175,521 C175,538.496381 160.958217,552.713128 143.529179,552.995713 L143,553 L120,553 L120,639 L143,639 C160.496381,639 174.713128,653.041783 174.995713,670.470821 L175,671 C175,688.496381 160.958217,702.713128 143.529179,702.995713 L143,703 L120,703 L120,829 L760,829 L760,64 Z M605,655 C622.673112,655 637,669.326888 637,687 C637,704.673112 622.673112,719 605,719 L605,719 L314,719 C296.326888,719 282,704.673112 282,687 C282,669.326888 296.326888,655 314,655 L314,655 Z M605,485 C622.673112,485 637,499.326888 637,517 C637,534.673112 622.673112,549 605,549 L605,549 L314,549 C296.326888,549 282,534.673112 282,517 C282,499.326888 296.326888,485 314,485 L314,485 Z M605.5,174.5 C623.173112,174.5 637.5,188.826888 637.5,206.5 C637.5,208.431818 637.328818,210.323654 637.000795,212.161167 L637,347 C637,364.673112 622.673112,379 605,379 L604.946991,378.999957 L604.946991,378.999957 L314.105,378.999 L314,379 C296.503619,379 282.286872,364.958217 282.004287,347.529179 L282,347 L282,207 C282,198.036198 285.685618,189.933217 291.624118,184.123796 C297.321504,178.299814 305.225393,174.642588 313.983823,174.504079 L314.5,174.5 L605.5,174.5 Z M573,238.5 L346,238.5 L345.999,314.999 L573,314.999 L573,238.5 Z" id="path-1"></path>

    </svg>
