<svg width="1024px" height="1024px" viewBox="0 0 1024 1024" version="1.1" xmlns="http://www.w3.org/2000/svg" xmlns:xlink="http://www.w3.org/1999/xlink">

        <path d="M307,0 C310.266035,0 313.41779,0.489291336 316.385962,1.398571 C322.43568,3.0599819 328.060515,6.51316386 332.398577,11.6830651 L332.398577,11.6830651 L471.115,177 L802,177 L802,177 L802.529179,177.004287 C819.958217,177.286872 834,191.503619 834,209 L834,209 L834,718 C834,735.673112 819.673112,750 802,750 L32,750 C14.326888,750 2.164332e-15,735.673112 0,718 L0,32 C-9.26975936e-15,14.326888 14.326888,3.24649801e-15 32,0 Z M770,241 L64,241 L64,686 L770,686 L770,241 Z M387.57,177 L292.751,64 L64,64 L64,177 L387.57,177 Z" id="path-1"></path>

    </svg>
