<?xml version="1.0" standalone="no"?><!DOCTYPE svg PUBLIC "-//W3C//DTD SVG 1.1//EN" "http://www.w3.org/Graphics/SVG/1.1/DTD/svg11.dtd"><svg t="1723530354708" class="icon" viewBox="0 0 1024 1024" version="1.1" xmlns="http://www.w3.org/2000/svg" p-id="1680" xmlns:xlink="http://www.w3.org/1999/xlink" width="200" height="200"><path d="M0 0m192 0l640 0q192 0 192 192l0 640q0 192-192 192l-640 0q-192 0-192-192l0-640q0-192 192-192Z" p-id="1681" data-spm-anchor-id="a313x.search_index.0.i1.29b03a81xhmdcG" class="selected"></path><path d="M251.36 251.84c58.624-58.88 160.768-64.704 267.712-17.824 17.536 7.68 31.52 21.76 39.616 39.136v0.064c11.584 23.904 46.912 39.776 73.28 13.344 32.832-32.992 6.208-79.36-32.832-77.984l-1.664 0.096a115.488 115.488 0 0 1-54.24-10.304c-125.76-57.472-249.184-49.408-321.76 23.424-95.136 95.424-77.376 276.544 42.208 430.72a21.12 21.12 0 0 0 29.664 3.712 21.28 21.28 0 0 0 3.712-29.76c-106.24-137.056-125.504-294.624-45.696-374.656z m601.024 320.064c-18.08-90.336-69.888-182.016-145.792-258.24a570.72 570.72 0 0 0-16.16-15.552c-7.488-7.04-18.976-8.384-27.296-2.336a21.312 21.312 0 0 0-2.048 32.832c5.216 4.928 10.464 9.952 15.552 15.04 70.144 70.4 117.824 154.4 134.304 236.608 15.84 79.04 0.704 146.592-42.72 190.144-38.592 38.72-97.6 55.296-166.144 46.688-57.152-7.168-117.824-31.296-174.496-68.96-17.344-11.52-26.944-30.464-31.808-50.72-4.704-19.712-23.04-36.096-40.288-36.896-28.032-1.28-53.024 15.52-52.16 47.808 0.48 18.592 11.936 39.2 49.056 48.64 25.792 6.56 45.408 22.336 51.2 26.24 77.856 52.032 160 78.72 233.056 78.72 63.552 0 120.32-20.16 161.504-61.504 53.728-53.888 73.024-135.04 54.272-228.512h-0.032z" fill="#FFFFFF" p-id="1682"></path><path d="M613.056 603.616H561.92l-94.08-120.192v120.192h-51.072V407.36h51.168l94.048 120.064v-120.064h51.104v196.288z m25.184-223.552C525.312 267.296 377.6 232 308.192 301.312c-69.344 69.248-34.048 216.8 78.848 329.6 112.928 112.736 260.704 147.968 330.048 78.72 69.376-69.248 34.048-216.8-78.848-329.6z" fill="#FFFFFF" p-id="1683"></path></svg>