<?xml version="1.0" encoding="UTF-8"?>
<svg width="1024px" height="1024px" viewBox="0 0 1024 1024" version="1.1" xmlns="http://www.w3.org/2000/svg" xmlns:xlink="http://www.w3.org/1999/xlink">
    <title>fi-presto-sql + fi-presto</title>
    <defs>
        <path d="M799.5,0.5 C808.463802,0.5 816.566783,4.1856183 822.376204,10.1241184 C828.314382,15.9332175 832,24.0361976 832,33 L832,799 C832,816.673112 817.673112,831 800,831 L799,831 C797.068182,831 795.176346,830.828818 793.338833,830.500795 L33.1061987,830.499828 C33.0708126,830.499942 33.035413,830.5 33,830.5 L32,830.5 C14.326888,830.5 2.164332e-15,816.173112 0,798.5 L0,32.5 C-2.164332e-15,14.826888 14.326888,0.5 32,0.5 L799.5,0.5 Z M767,65.499 L65,65.499 L65,765.499 L767,765.5 L767,65.499 Z" id="path-1"></path>
    </defs>
    <g id="fi-presto-sql-+-fi-presto" stroke="none" stroke-width="1" fill="none" fill-rule="evenodd">
        <g id="展开状态" transform="translate(512.000000, 512.500000) scale(-1, 1) translate(-512.000000, -512.500000) translate(96.000000, 97.000000)">
            <mask id="mask-2" fill="white">
                <use xlink:href="#path-1"></use>
            </mask>
            <use id="蒙版" fill="#D8D8D8" xlink:href="#path-1"></use>
            <g id="编组" mask="url(#mask-2)">
                <g transform="translate(-96.000000, -97.000000)" id="00-color/中性色/323232">
                    <rect id="矩形" fill="currentColor" x="0" y="0" width="1024" height="1024"></rect>
                </g>
            </g>
        </g>
        <path d="M509.83945,262 C564.093272,262 604.183486,274.127762 630.110092,298.383285 C656.036697,322.638809 669,360.943324 669,413.29683 C669,516.082613 615.946483,567.475504 509.83945,567.475504 L509.83945,567.475504 L411.894495,567.475504 L411.894495,733.181556 C411.894495,742.307397 409.733945,749.391931 405.412844,754.435159 C401.091743,759.478386 393.889908,762 383.807339,762 C373.244648,762 365.802752,759.238232 361.481651,753.714697 C357.16055,748.191162 355,741.346782 355,733.181556 L355,733.181556 L355,296.582133 C355,282.653218 357.520642,273.407301 362.561927,268.84438 C367.603211,264.28146 378.766055,262 396.050459,262 L396.050459,262 Z M509.83945,312.432277 L411.894495,312.432277 L411.894495,518.48415 L509.83945,518.48415 C546.808869,518.48415 573.215596,510.07877 589.059633,493.268012 C604.90367,476.457253 612.825688,450.040346 612.825688,414.017291 C612.825688,377.994236 603.943425,352.057637 586.178899,336.207493 C568.414373,320.357349 542.96789,312.432277 509.83945,312.432277 L509.83945,312.432277 Z" id="P" stroke="currentColor" stroke-width="20" fill="currentColor" fill-rule="nonzero"></path>
    </g>
</svg>
