<svg width="1024px" height="1024px" viewBox="0 0 1024 1024" version="1.1" xmlns="http://www.w3.org/2000/svg" xmlns:xlink="http://www.w3.org/1999/xlink">

        <path d="M651,0 C668.673112,-3.24649801e-15 683,14.326888 683,32 L683,213 L864,213 C881.673112,213 896,227.326888 896,245 L896,651 L896,651 C896,668.496381 881.958217,682.713128 864.529179,682.995713 L864,683 L864,683 L683,683 L683,864 L683,864 C683,881.496381 668.958217,895.713128 651.529179,895.995713 L651,896 L651,896 L245,896 C227.326888,896 213,881.673112 213,864 L213,683 L32,683 L32,683 C14.326888,683 2.164332e-15,668.673112 0,651 L0,245 C-2.164332e-15,227.326888 14.326888,213 32,213 L213,213 L213,32 C213,14.326888 227.326888,3.24649801e-15 245,0 L651,0 L651,0 Z M832,277 L683,277 L683,448 L683,448 C683,465.496381 668.958217,479.713128 651.529179,479.995713 L651,480 L651,480 L277,480 L277,832 L619,832 L619,683 L480,683 C462.326888,683 448,668.673112 448,651 C448,633.326888 462.326888,619 480,619 L832,619 L832,277 Z M532,722 C549.673112,722 564,736.326888 564,754 C564,771.673112 549.673112,786 532,786 C514.326888,786 500,771.673112 500,754 C500,736.326888 514.326888,722 532,722 Z M619,64 L277,64 L277,213 L416,213 C433.673112,213 448,227.326888 448,245 C448,262.673112 433.673112,277 416,277 L64,277 L64,619 L213,619 L213,448 C213,430.326888 227.326888,416 245,416 L619,416 L619,64 Z M364,110 C381.673112,110 396,124.326888 396,142 C396,159.673112 381.673112,174 364,174 C346.326888,174 332,159.673112 332,142 C332,124.326888 346.326888,110 364,110 Z" id="path-1"></path>

    </svg>
