<svg width="1024px" height="1024px" viewBox="0 0 1024 1024" version="1.1" xmlns="http://www.w3.org/2000/svg" xmlns:xlink="http://www.w3.org/1999/xlink">

        <path d="M799.5,0.5 C808.463802,0.5 816.566783,4.1856183 822.376204,10.1241184 C828.314382,15.9332175 832,24.0361976 832,33 L832,799 C832,816.673112 817.673112,831 800,831 L799,831 C797.068182,831 795.176346,830.828818 793.338833,830.500795 L33.1061987,830.499828 C33.0708126,830.499942 33.035413,830.5 33,830.5 L32,830.5 C14.326888,830.5 2.164332e-15,816.173112 0,798.5 L0,32.5 C-2.164332e-15,14.826888 14.326888,0.5 32,0.5 L799.5,0.5 Z M767,65.499 L65,65.499 L65,765.499 L767,765.5 L767,65.499 Z" id="path-1"></path>

    </svg>
