<svg width="1024px" height="1024px" viewBox="0 0 1024 1024" version="1.1" xmlns="http://www.w3.org/2000/svg" xmlns:xlink="http://www.w3.org/1999/xlink">

        <path d="M402.349887,6.43475085 C467.848752,53.8137307 530.565456,84.0021471 590.5,97 C639.686849,107.667027 684.789303,107.568788 725.807363,96.7052815 C742.891456,92.1806135 760.408819,102.362038 764.933488,119.446131 C765.641509,122.119453 766,124.873278 766,127.638769 L766,339 L766,486 L766,486 C766,651.579543 644.886366,785.536727 402.659097,887.871553 L395.281805,890.962928 C387.419959,894.230616 378.58004,894.230616 370.718194,890.962928 C123.572731,788.239706 1.8189894e-12,653.252063 1.8189894e-12,486 L1.8189894e-12,129.54348 C1.75559643e-07,111.870368 14.3268881,97.5434799 32,97.5434799 C34.8317321,97.5434799 37.6509368,97.9193496 40.3837563,98.6612418 C78.1183058,108.90523 123.157054,108.351482 175.5,97 C240.493539,82.9050155 302.792761,53.3308559 362.397666,8.27752107 L364.20305,6.90753071 C375.424471,-1.64104092 390.920049,-1.83308822 402.349887,6.43475085 Z M636.025998,293.090359 C623.529221,280.593582 603.267941,280.593582 590.771164,293.090359 L590.771164,293.090359 L341.820296,542.040246 L208.203163,408.423342 C195.706386,395.926565 175.445107,395.926565 162.948329,408.423342 C150.451552,420.920119 150.451552,441.181399 162.948329,453.678176 L162.948329,453.678176 L319.218928,609.948775 C331.715705,622.445552 351.976985,622.445552 364.473762,609.948775 C364.836763,609.585773 365.189221,609.21622 365.531134,608.840496 L365.531134,608.840496 L636.025998,338.345193 C648.522775,325.848416 648.522775,305.587136 636.025998,293.090359 Z" id="path-1"></path>

    </svg>
