<svg width="1024px" height="1024px" viewBox="0 0 1024 1024" version="1.1" xmlns="http://www.w3.org/2000/svg" xmlns:xlink="http://www.w3.org/1999/xlink">

        <path d="M798,449 C815.673112,449 830,463.326888 830,481 L830,793 C830,810.673112 815.673112,825 798,825 L32,825 C14.5036191,825 0.286872383,810.958217 0.00428708574,793.529179 L0,793 L0,481 C0,463.326888 14.326888,449 32,449 C49.673112,449 64,463.326888 64,481 L64,761 L766,761 L766,481 C766,463.326888 780.326888,449 798,449 Z M662.649712,9.372583 L816.667648,163.389753 C817.694119,164.191465 818.682943,165.064558 819.627417,166.009032 C825.919328,172.300943 829.043371,180.561115 828.999545,188.807577 C829.043118,197.053708 825.919074,205.313466 819.627417,211.605122 C818.682943,212.549596 817.694119,213.422689 816.667648,214.224401 L662.649712,368.241571 C650.152934,380.738348 629.891655,380.738348 617.394878,368.241571 C605.023068,355.869762 604.89935,335.887964 617.023723,323.363954 L617.394878,322.986737 L719.42,220.962 L594.999,220.962 L595,221 C447.372121,221 327.41832,339.477544 325.034007,486.535056 L325.034007,486.535056 L325.002,490.5 L325,490.5 L325,622 C325,639.496381 310.958217,653.713128 293.529179,653.995713 L293,654 C275.326888,654 261,639.673112 261,622 L261,622 L261,490.499 C260.998306,490.428396 260.998432,490.357606 260.99858,490.286822 L261,486 L261.034527,485.998086 C263.708621,303.84123 412.204925,157 594.997835,157 L591.929,157.024 L591.929958,156.96235 L719.73,156.962 L617.394878,54.627417 C604.8981,42.1306397 604.8981,21.8693603 617.394878,9.372583 C629.891655,-3.12419433 650.152934,-3.12419433 662.649712,9.372583 Z" id="path-1"></path>

    </svg>
