<svg width="1024px" height="1024px" viewBox="0 0 1024 1024" version="1.1" xmlns="http://www.w3.org/2000/svg" xmlns:xlink="http://www.w3.org/1999/xlink">

        <path d="M798,538 C815.673112,538 830,552.326888 830,570 L830,858 C830,875.673112 815.673112,890 798,890 L510,890 C492.326888,890 478,875.673112 478,858 L478,570 C478,552.326888 492.326888,538 510,538 L798,538 Z M320,538 C337.673112,538 352,552.326888 352,570 L352,858 C352,875.673112 337.673112,890 320,890 L32,890 C14.326888,890 2.164332e-15,875.673112 0,858 L0,570 C-2.164332e-15,552.326888 14.326888,538 32,538 L320,538 Z M766,602 L542,602 L542,826 L766,826 L766,602 Z M288,602 L64,602 L64,826 L288,826 L288,602 Z M631.372583,9.72583002 C643.86936,-2.77094732 664.13064,-2.77094732 676.627417,9.72583002 L676.627417,9.72583002 L880.27417,213.372583 C892.770947,225.86936 892.770947,246.13064 880.27417,258.627417 L880.27417,258.627417 L676.627417,462.27417 C664.13064,474.770947 643.86936,474.770947 631.372583,462.27417 L631.372583,462.27417 L427.72583,258.627417 C415.229053,246.13064 415.229053,225.86936 427.72583,213.372583 L427.72583,213.372583 Z M320,60 C337.673112,60 352,74.326888 352,92 L352,380 C352,397.673112 337.673112,412 320,412 L32,412 C14.326888,412 2.164332e-15,397.673112 0,380 L0,92 C-2.164332e-15,74.326888 14.326888,60 32,60 L320,60 Z M654,77.608081 L495.608081,236 L654,394.391919 L812.391919,236 L654,77.608081 Z M288,124 L64,124 L64,348 L288,348 L288,124 Z" id="path-1"></path>

    </svg>
