<svg width="1024px" height="1024px" viewBox="0 0 1024 1024" version="1.1" xmlns="http://www.w3.org/2000/svg" xmlns:xlink="http://www.w3.org/1999/xlink">

        <path d="M614,698.999262 L614,825.999262 L214,825.999262 L214,698.999262 L614,698.999262 Z M558,-9.09494702e-13 C567.693941,-9.09494702e-13 576.381113,4.31048888 582.249381,11.1193314 L818.840987,247.711939 C823.252532,252.123483 826.106737,257.502634 827.403602,263.166233 C828.063797,265.619132 828.439379,268.18826 828.493255,270.836353 L828.5,271.5 L828.5,528.5 C828.5,530.431818 828.328818,532.323654 828.000795,534.161167 L828,794 C828,811.673112 813.673112,826 796,826 L678,825.999262 L678,527 C678,509.326888 663.673112,495 646,495 L182,495 L182,495 C164.326888,495 150,509.326888 150,527 L150,825.999262 L32,826 C14.326888,826 2.164332e-15,811.673112 0,794 L0,32 C-2.164332e-15,14.326888 14.326888,-9.06248167e-13 32,-9.09494702e-13 L150,-0.000738422784 L150,178 C150,195.496381 164.041783,209.713128 181.470821,209.995713 L182,210 L436,210 C453.496381,210 467.713128,195.958217 467.995713,178.529179 L468,178 L468,-0.000738422784 L558,-9.09494702e-13 Z M614,558.999262 L614,634.999262 L214,634.999262 L214,558.999262 L614,558.999262 Z M404,-0.000738422784 L404,146 L214,146 L214,-0.000738422784 L404,-0.000738422784 Z" id="path-1"></path>

    </svg>
