<svg width="1024px" height="1024px" viewBox="0 0 1024 1024" version="1.1" xmlns="http://www.w3.org/2000/svg" xmlns:xlink="http://www.w3.org/1999/xlink">

        <path d="M769.932748,30.0717611 C769.977571,30.7620375 770,31.4535859 770,32.1453161 L770,188.010528 C770,204.878634 756.90621,218.850246 740.073555,219.943276 L606.712,228.603155 L753.510252,316.80835 C759.162759,320.204719 763.388579,325.070927 765.992544,330.624203 C768.21971,334.634553 769.615727,339.189638 769.932748,344.071761 C769.977571,344.762038 770,345.453586 770,346.145316 L770,502.010528 C770,518.878634 756.90621,532.850246 740.073555,533.943276 L606.712,542.603155 L753.510252,630.80835 C759.162759,634.204719 763.388579,639.070927 765.992544,644.624203 C768.21971,648.634553 769.615727,653.189638 769.932748,658.071761 C769.977571,658.762038 770,659.453586 770,660.145316 L770,816.010528 C770,832.878634 756.90621,846.850246 740.073555,847.943276 L34.073555,893.787431 C16.4375855,894.932624 1.21244522,881.564208 0.0672523966,863.928239 C0.0224292501,863.237962 -3.46800116e-15,862.546414 0,861.854684 L0,705.989472 C1.96360512e-14,689.121366 13.09379,675.149754 29.926445,674.056724 L162.634,665.439155 L15.9562939,577.305759 C7.77499557,572.389939 2.58245698,564.39496 0.970443621,555.694263 C0.502155694,553.836256 0.195884157,551.909168 0.0672523966,549.928239 C0.0224292501,549.237962 -3.46800116e-15,548.546414 0,547.854684 L0,391.989472 C1.96360512e-14,375.121366 13.09379,361.149754 29.926445,360.056724 L164.137,351.341155 L15.9562939,262.305759 C9.84716026,258.635022 5.40452844,253.247376 2.87478777,247.131036 C1.30745292,243.694918 0.326519019,239.920945 0.0672523966,235.928239 C0.0224292501,235.237962 -3.46800116e-15,234.546414 0,233.854684 L0,77.989472 C1.96360512e-14,61.1213664 13.09379,47.1497539 29.926445,46.0567244 L735.926445,0.212568509 C753.562414,-0.932624317 768.787555,12.4357916 769.932748,30.0717611 Z M494.569,549.885155 L133.594,573.325155 L274.778,658.157155 L635.753,634.717155 L494.569,549.885155 Z M494.569,235.885155 L135.096,259.227155 L276.28,344.059155 L635.753,320.717155 L494.569,235.885155 Z" id="path-1"></path>

    </svg>
