<svg width="1024px" height="1024px" viewBox="0 0 1024 1024" version="1.1" xmlns="http://www.w3.org/2000/svg" xmlns:xlink="http://www.w3.org/1999/xlink">

        <path d="M864,0 C881.496381,0 895.713128,14.0417829 895.995713,31.4708215 L896,32 L896,798 C896,815.496381 881.958217,829.713128 864.529179,829.995713 L864,830 L32,830 C14.5036191,830 0.286872383,815.958217 0.00428708574,798.529179 L0,798 L0,32 C2.14268868e-15,14.5036191 14.0417829,0.286872383 31.4708215,0.00428708574 L32,0 L864,0 Z M832,204 L64,204 L64,766 L832,766 L832,204 Z M189.627417,269.867966 L379.132034,459.372583 C391.628812,471.86936 391.628812,492.13064 379.132034,504.627417 L189.627417,694.132034 C177.13064,706.628812 156.86936,706.628812 144.372583,694.132034 C131.875806,681.635257 131.875806,661.373978 144.372583,648.8772 L311.249076,481.999293 L144.372583,315.1228 C131.875806,302.626022 131.875806,282.364743 144.372583,269.867966 C156.86936,257.371188 177.13064,257.371188 189.627417,269.867966 Z M736,450 C753.673112,450 768,464.326888 768,482 C768,499.496381 753.958217,513.713128 736.529179,513.995713 L736,514 L508,514 C490.326888,514 476,499.673112 476,482 C476,464.503619 490.041783,450.286872 507.470821,450.004287 L508,450 L736,450 Z M832,64 L64,64 L64,140 L832,140 L832,64 Z" id="path-1"></path>

    </svg>
