<svg width="1024px" height="1024px" viewBox="0 0 1024 1024" version="1.1" xmlns="http://www.w3.org/2000/svg" xmlns:xlink="http://www.w3.org/1999/xlink">

        <path d="M594,99 L594.091285,99.0962629 C602.71589,98.6059875 611.501108,101.589801 618.17075,108.047702 L618.546002,108.416954 L856.840987,346.711939 C861.252532,351.123483 864.106737,356.502634 865.403602,362.166233 C866.063797,364.619132 866.439379,367.18826 866.493255,369.836353 L866.5,370.5 L866.5,627.5 C866.5,629.431818 866.328818,631.323654 866.000795,633.161167 L866,893 C866,910.673112 851.673112,925 834,925 L188,925 C170.326888,925 156,910.673112 156,893 L156,131 C156,113.326888 170.326888,99 188,99 L594,99 Z M475.959574,424.746115 C465.731208,410.631166 446.031495,407.283202 431.699299,417.318714 L431.699299,417.318714 L431.26828,417.62575 C417.153332,427.854116 413.805368,447.553829 423.840879,461.886025 L423.840879,461.886025 L472.935001,531.999836 L423.840879,602.113975 C413.703999,616.590941 417.222333,636.544406 431.699299,646.681286 C446.176265,656.818167 466.12973,653.299833 476.26661,638.822867 L476.26661,638.822867 L512.000001,587.789836 L547.73339,638.822867 L548.040426,639.253885 C558.268792,653.368834 577.968505,656.716798 592.300701,646.681286 L592.300701,646.681286 L592.73172,646.37425 C606.846668,636.145884 610.194632,616.446171 600.159121,602.113975 L600.159121,602.113975 L551.064001,531.999836 L600.159121,461.886025 C610.296001,447.409059 606.777667,427.455594 592.300701,417.318714 C577.823735,407.181833 557.87027,410.700167 547.73339,425.177133 L547.73339,425.177133 L512.000001,476.209836 L476.26661,425.177133 Z M356,411 L243,411 C225.326888,411 211,425.326888 211,443 C211,460.673112 225.326888,475 243,475 L243,475 L268,475 L268,618 C268,635.673112 282.326888,650 300,650 C317.673112,650 332,635.673112 332,618 L332,618 L332,475 L356,475 C373.673112,475 388,460.673112 388,443 C388,425.326888 373.673112,411 356,411 L356,411 Z M781,411 L668,411 C650.326888,411 636,425.326888 636,443 C636,460.673112 650.326888,475 668,475 L668,475 L693,475 L693,618 C693,635.673112 707.326888,650 725,650 C742.673112,650 757,635.673112 757,618 L757,618 L757,475 L781,475 C798.673112,475 813,460.673112 813,443 C813,425.326888 798.673112,411 781,411 L781,411 Z" id="path-1"></path>

    </svg>
