<svg width="1024px" height="1024px" viewBox="0 0 1024 1024" version="1.1" xmlns="http://www.w3.org/2000/svg" xmlns:xlink="http://www.w3.org/1999/xlink">

        <path d="M798,708 C815.673112,708 830,722.326888 830,740 C830,757.496381 815.958217,771.713128 798.529179,771.995713 L798,772 L32,772 C14.326888,772 -2.164332e-15,757.673112 0,740 C2.14268868e-15,722.503619 14.0417829,708.286872 31.4708215,708.004287 L32,708 L798,708 Z M219,187 C328.904665,187 418,276.095335 418,386 C418,495.904665 328.904665,585 219,585 C109.095335,585 20,495.904665 20,386 C20,276.095335 109.095335,187 219,187 Z M798,472 C815.673112,472 830,486.326888 830,504 C830,521.496381 815.958217,535.713128 798.529179,535.995713 L798,536 L503,536 C485.326888,536 471,521.673112 471,504 C471,486.503619 485.041783,472.286872 502.470821,472.004287 L503,472 L798,472 Z M219,251 C144.441559,251 84,311.441559 84,386 C84,460.558441 144.441559,521 219,521 C293.558441,521 354,460.558441 354,386 C354,311.441559 293.558441,251 219,251 Z M181.741359,312.703807 L182.218861,312.931931 L237.944092,340.110942 C243.390256,342.767214 247.744578,346.764774 250.803288,351.511833 C253.989821,356.386132 255.882943,362.182906 255.994752,368.414526 L256,369 L256,457 C256,474.673112 241.673112,489 224,489 C206.503619,489 192.286872,474.958217 192.004287,457.529179 L192,457 L192,388.909 L154.163107,370.45475 C138.437465,362.784841 131.81505,343.931959 139.201451,328.142965 L139.429575,327.665463 C147.099483,311.93982 165.952366,305.317406 181.741359,312.703807 Z M798,236 C815.673112,236 830,250.326888 830,268 C830,285.496381 815.958217,299.713128 798.529179,299.995713 L798,300 L503,300 C485.326888,300 471,285.673112 471,268 C471,250.503619 485.041783,236.286872 502.470821,236.004287 L503,236 L798,236 Z M798,0 C815.673112,0 830,14.326888 830,32 C830,49.4963809 815.958217,63.7131276 798.529179,63.9957129 L798,64 L32,64 C14.326888,64 -2.164332e-15,49.673112 0,32 C2.14268868e-15,14.5036191 14.0417829,0.286872383 31.4708215,0.00428708574 L32,0 L798,0 Z" id="path-1"></path>

    </svg>
