<svg width="1024px" height="1024px" viewBox="0 0 1024 1024" version="1.1" xmlns="http://www.w3.org/2000/svg" xmlns:xlink="http://www.w3.org/1999/xlink">

        <path d="M320,478 C337.673112,478 352,492.326888 352,510 L352,798 C352,815.673112 337.673112,830 320,830 L32,830 C14.326888,830 2.164332e-15,815.673112 0,798 L0,510 C-2.164332e-15,492.326888 14.326888,478 32,478 L320,478 Z M798,737 C815.673112,737 830,751.326888 830,769 C830,786.673112 815.673112,801 798,801 L798,801 L447,801 C429.326888,801 415,786.673112 415,769 C415,751.326888 429.326888,737 447,737 L447,737 Z M288,542 L64,542 L64,766 L288,766 L288,542 Z M798,501 C815.673112,501 830,515.326888 830,533 C830,550.673112 815.673112,565 798,565 L798,565 L447,565 C429.326888,565 415,550.673112 415,533 C415,515.326888 429.326888,501 447,501 L447,501 Z M320,0 C337.673112,-3.24649801e-15 352,14.326888 352,32 L352,320 C352,337.673112 337.673112,352 320,352 L32,352 C14.326888,352 2.164332e-15,337.673112 0,320 L0,32 C-2.164332e-15,14.326888 14.326888,3.24649801e-15 32,0 L320,0 Z M798,265 C815.673112,265 830,279.326888 830,297 C830,314.673112 815.673112,329 798,329 L798,329 L447,329 C429.326888,329 415,314.673112 415,297 C415,279.326888 429.326888,265 447,265 L447,265 Z M288,64 L64,64 L64,288 L288,288 L288,64 Z M798,29 C815.673112,29 830,43.326888 830,61 C830,78.673112 815.673112,93 798,93 L798,93 L447,93 C429.326888,93 415,78.673112 415,61 C415,43.326888 429.326888,29 447,29 L447,29 Z" id="path-1"></path>

    </svg>
