<svg width="1024px" height="1024px" viewBox="0 0 1024 1024" version="1.1" xmlns="http://www.w3.org/2000/svg" xmlns:xlink="http://www.w3.org/1999/xlink">

        <path d="M448,0 C695.423568,0 896,200.576432 896,448 C896,695.423568 695.423568,896 448,896 C200.576432,896 0,695.423568 0,448 C0,200.576432 200.576432,0 448,0 Z M448,64 C235.922656,64 64,235.922656 64,448 C64,660.077344 235.922656,832 448,832 C660.077344,832 832,660.077344 832,448 C832,235.922656 660.077344,64 448,64 Z M707.021254,310.526085 C719.518032,323.022862 719.518032,343.284142 707.021254,355.780919 L399.756837,663.045775 C399.414925,663.421498 399.062467,663.791052 398.699466,664.154053 C386.202688,676.65083 365.941409,676.65083 353.444632,664.154053 L180.910577,491.619999 C168.4138,479.123221 168.4138,458.861942 180.910577,446.365165 C193.407354,433.868387 213.668634,433.868387 226.165411,446.365165 L376.046293,596.245232 L661.76642,310.526085 C674.263198,298.029308 694.524477,298.029308 707.021254,310.526085 Z" id="path-1"></path>

    </svg>
