<svg width="1024px" height="1024px" viewBox="0 0 1024 1024" version="1.1" xmlns="http://www.w3.org/2000/svg"
  xmlns:xlink="http://www.w3.org/1999/xlink">
  <path
    d="M895,549 C912.673112,549 927,563.326888 927,581 L927,581 L927,893 L926.995713,893.529179 C926.713128,910.958217 912.496381,925 895,925 L895,925 L129,925 C111.326888,925 97,910.673112 97,893 L97,893 L97,581 C97,563.326888 111.326888,549 129,549 C146.673112,549 161,563.326888 161,581 L161,581 L161,861 L863,861 L863,581 C863,563.326888 877.326888,549 895,549 Z M264.350288,109.372583 C276.847066,96.8758057 297.108345,96.8758057 309.605122,109.372583 C322.1019,121.86936 322.1019,142.13064 309.605122,154.627417 L309.605122,154.627417 L207.27,256.962 L335.070042,256.96235 L335.07,257.024 L337.520476,257.044666 C517.774602,259.964566 663.31834,405.677778 665.965473,585.998086 L666,586 L666.001625,590.393002 C666.001688,590.428397 666.001746,590.463793 666.001798,590.49919 L666,590.499 L666,722 C666,739.673112 651.673112,754 634,754 C616.326888,754 602,739.673112 602,722 L602,590.5 L601.998,590.5 L601.965993,586.535056 C599.58168,439.477544 479.627879,321 332.002165,321 L332,321 L332,320.962 L207.58,320.962 L309.605122,422.986737 L309.976277,423.363954 C322.10065,435.887964 321.976932,455.869762 309.605122,468.241571 C297.108345,480.738348 276.847066,480.738348 264.350288,468.241571 L264.350288,468.241571 L110.332352,314.224401 C109.305881,313.422689 108.317057,312.549596 107.372583,311.605122 C101.080926,305.313466 97.956882,297.053708 98.0004547,288.807577 C97.9566292,280.561115 101.080672,272.300943 107.372583,266.009032 C108.317057,265.064558 109.305881,264.191465 110.332352,263.389753 L110.332352,263.389753 Z"
    id="形状结合"></path>
</svg>
