<svg width="1024px" height="1024px" viewBox="0 0 1024 1024" version="1.1" xmlns="http://www.w3.org/2000/svg" xmlns:xlink="http://www.w3.org/1999/xlink">

        <path d="M812,0 C829.673112,-3.24649801e-15 844,14.326888 844,32 L844,206 C844,223.673112 829.673112,238 812,238 C794.326888,238 780,223.673112 780,206 L780,206 L780,64 L64,64 L64,586 L494,586 L494.000862,586.247683 C509.785691,588.216458 522,601.681827 522,618 C522,634.318173 509.785691,647.783542 494.000862,649.752317 L494,650 L454,650 L454,766 L654,766 C671.496381,766 685.713128,780.041783 685.995713,797.470821 L686,798 C686,815.673112 671.673112,830 654,830 L654,830 L190,830 C172.326888,830 158,815.673112 158,798 C158,780.326888 172.326888,766 190,766 L190,766 L390,766 L390,650 L32,650 C14.326888,650 2.164332e-15,635.673112 0,618 L0,32 C-2.164332e-15,14.326888 14.326888,3.24649801e-15 32,0 L812,0 Z M685,211 C701.115088,211 714.20946,223.933221 714.469736,239.986283 L714.473684,240.473684 L714.474791,267.191026 C735.80204,271.253437 755.595657,279.641782 772.907955,291.408375 L791.81034,272.507576 C803.205428,261.112488 821.609715,260.998537 833.144987,272.165723 L833.492424,272.507576 C844.887512,283.902664 845.001463,302.306951 833.834277,313.842223 L833.492424,314.18966 L814.591625,333.092045 C826.358218,350.404343 834.746563,370.19796 838.808974,391.525209 L865.526316,391.526316 C881.641403,391.526316 894.735775,404.459537 894.996051,420.512599 L895,421 C895,437.115088 882.066779,450.20946 866.013717,450.469736 L865.526316,450.473684 L838.808974,450.474791 C834.746563,471.80204 826.358218,491.595657 814.591625,508.907955 L833.492424,527.81034 C844.887512,539.205428 845.001463,557.609715 833.834277,569.144987 L833.492424,569.492424 C822.097336,580.887512 803.693049,581.001463 792.157777,569.834277 L791.81034,569.492424 L772.907955,550.591625 C755.595657,562.358218 735.80204,570.746563 714.474791,574.808974 L714.473684,601.526316 C714.473684,617.641403 701.540463,630.735775 685.487401,630.996051 L685,631 C668.884912,631 655.79054,618.066779 655.530264,602.013717 L655.526316,601.526316 L655.525209,574.808974 C634.19796,570.746563 614.404343,562.358218 597.092045,550.591625 L578.18966,569.492424 C566.794572,580.887512 548.390285,581.001463 536.855013,569.834277 L536.507576,569.492424 C525.112488,558.097336 524.998537,539.693049 536.165723,528.157777 L536.507576,527.81034 L555.408375,508.907955 C543.641782,491.595657 535.253437,471.80204 531.191026,450.474791 L504.473684,450.473684 C488.358597,450.473684 475.264225,437.540463 475.003949,421.487401 L475,421 C475,404.884912 487.933221,391.79054 503.986283,391.530264 L504.473684,391.526316 L531.191026,391.525209 C535.253437,370.19796 543.641782,350.404343 555.408375,333.092045 L536.507576,314.18966 C525.112488,302.794572 524.998537,284.390285 536.165723,272.855013 L536.507576,272.507576 C547.902664,261.112488 566.306951,260.998537 577.842223,272.165723 L578.18966,272.507576 L597.092045,291.408375 C614.404343,279.641782 634.19796,271.253437 655.525209,267.191026 L655.526316,240.473684 C655.526316,224.358597 668.459537,211.264225 684.512599,211.003949 L685,211 Z M685,323.368421 C631.079568,323.368421 587.368421,367.079568 587.368421,421 C587.368421,474.920432 631.079568,518.631579 685,518.631579 C738.920432,518.631579 782.631579,474.920432 782.631579,421 C782.631579,367.079568 738.920432,323.368421 685,323.368421 Z M685,364 C716.480231,364 742,389.519769 742,421 C742,452.480231 716.480231,478 685,478 C653.519769,478 628,452.480231 628,421 C628,389.519769 653.519769,364 685,364 Z M317,389 C334.673112,389 349,403.326888 349,421 C349,438.673112 334.673112,453 317,453 L317,453 L159,453 C141.326888,453 127,438.673112 127,421 C127,403.326888 141.326888,389 159,389 L159,389 Z M685,403 C675.058875,403 667,411.058875 667,421 C667,430.941125 675.058875,439 685,439 C694.941125,439 703,430.941125 703,421 C703,411.058875 694.941125,403 685,403 Z M395,197 C412.673112,197 427,211.326888 427,229 C427,246.673112 412.673112,261 395,261 L395,261 L159,261 C141.326888,261 127,246.673112 127,229 C127,211.326888 141.326888,197 159,197 L159,197 Z" id="path-1"></path>

    </svg>
