<svg width="1024px" height="1024px" viewBox="0 0 1024 1024" version="1.1" xmlns="http://www.w3.org/2000/svg" xmlns:xlink="http://www.w3.org/1999/xlink">

        <path d="M448,0 C695.423568,0 896,200.576432 896,448 C896,695.423568 695.423568,896 448,896 C200.576432,896 0,695.423568 0,448 C0,200.576432 200.576432,0 448,0 Z M448,64 C235.922656,64 64,235.922656 64,448 C64,660.077344 235.922656,832 448,832 C660.077344,832 832,660.077344 832,448 C832,235.922656 660.077344,64 448,64 Z M448,666 C465.673112,666 480,651.673112 480,634 C480,616.326888 465.673112,602 448,602 C430.326888,602 416,616.326888 416,634 C416,651.673112 430.326888,666 448,666 Z M448,230 C475.08841,230 497.047905,251.959495 497.047905,279.047905 C497.047905,280.002984 497.020008,280.95786 496.964251,281.911311 L481.868153,540.054578 C480.819214,557.991443 465.96751,572 448,572 C430.03249,572 415.180786,557.991443 414.131847,540.054578 L399.035749,281.911311 C397.454333,254.869102 418.094385,231.66507 445.136594,230.083654 C446.090044,230.027897 447.04492,230 448,230 Z" id="path-1"></path>

    </svg>
