<svg width="1024px" height="1024px" viewBox="0 0 1024 1024" version="1.1" xmlns="http://www.w3.org/2000/svg" xmlns:xlink="http://www.w3.org/1999/xlink">

        <path d="M723,582.886076 C809.156421,582.886076 879,652.729655 879,738.886076 C879,825.042497 809.156421,894.886076 723,894.886076 C636.843579,894.886076 567,825.042497 567,738.886076 C567,652.729655 636.843579,582.886076 723,582.886076 Z M280,582.765369 C297.673112,582.765369 312,597.092257 312,614.765369 L312,862.765369 C312,880.438481 297.673112,894.765369 280,894.765369 L32,894.765369 C14.326888,894.765369 -2.96079888e-12,880.438481 -2.95585778e-12,862.765369 L-2.95585778e-12,614.765369 C-2.95802211e-12,597.092257 14.326888,582.765369 32,582.765369 L280,582.765369 Z M155.640403,364.000453 C163.886749,363.956717 172.146778,367.08076 178.4386,373.372583 C179.382153,374.316136 180.254464,375.303952 181.055533,376.329349 L181.055533,376.329349 L238.908527,434.183766 C251.405304,446.680544 251.405304,466.941823 238.908527,479.4386 C226.411749,491.935378 206.15047,491.935378 193.653693,479.4386 L193.653693,479.4386 L187.48611,473.27 L187.485281,530.070042 C187.485281,547.743154 173.158393,562.070042 155.485281,562.070042 C137.812169,562.070042 123.485281,547.743154 123.485281,530.070042 L123.485281,530.070042 L123.48611,473.58 L117.627417,479.4386 L117.2502,479.809754 C104.726191,491.934128 84.7443926,491.81041 72.372583,479.4386 C59.8758057,466.941823 59.8758057,446.680544 72.372583,434.183766 L72.372583,434.183766 L130.225576,376.329349 C131.026646,375.303952 131.898957,374.316136 132.842509,373.372583 C139.134332,367.08076 147.39436,363.956717 155.640403,364.000453 Z M722.485281,364 C740.158393,364 754.485281,378.326888 754.485281,396 L754.48611,452.800042 L760.653693,446.631442 C773.15047,434.134665 793.411749,434.134665 805.908527,446.631442 C818.405304,459.12822 818.405304,479.389499 805.908527,491.886276 L748.055533,549.740694 C747.254464,550.76609 746.382153,551.753907 745.4386,552.697459 C739.146778,558.989282 730.886749,562.113325 722.640403,562.06959 C714.39436,562.113325 706.134332,558.989282 699.842509,552.697459 C698.898957,551.753907 698.026646,550.76609 697.225576,549.740694 L639.372583,491.886276 C626.875806,479.389499 626.875806,459.12822 639.372583,446.631442 C651.744393,434.259633 671.726191,434.135915 684.2502,446.260288 L684.627417,446.631442 L690.48611,452.490042 L690.485281,396 C690.485281,378.326888 704.812169,364 722.485281,364 Z M745.2502,9.8732195 L745.627417,10.2443738 L885.63456,150.251516 C898.006369,162.623326 898.130087,182.605124 886.005714,195.129133 L885.63456,195.50635 L745.627417,335.513493 C733.255607,347.885303 713.273809,348.009021 700.7498,335.884647 L700.372583,335.513493 L560.36544,195.50635 C547.993631,183.134541 547.869913,163.152743 559.994286,150.628734 L560.36544,150.251516 L700.372583,10.2443738 C712.744393,-2.12743577 732.726191,-2.25115387 745.2502,9.8732195 Z M156,16.8932188 C242.156421,16.8932188 312,86.7367978 312,172.893219 C312,259.04964 242.156421,328.893219 156,328.893219 C69.843579,328.893219 -2.94530666e-12,259.04964 -2.95585778e-12,172.893219 C-2.9664089e-12,86.7367978 69.843579,16.8932188 156,16.8932188 Z M415.236976,89.7670494 C427.733753,77.2702721 447.995033,77.2702721 460.49181,89.7670494 L460.49181,89.7670494 L518.346227,147.620043 C519.371624,148.421112 520.35944,149.293423 521.302993,150.236976 C527.594816,156.528798 530.718859,164.788827 530.675123,173.034869 C530.718859,181.281216 527.594816,189.541244 521.302993,195.833067 C520.35944,196.776619 519.371624,197.64893 518.346227,198.45 L518.346227,198.45 L460.49181,256.302993 C447.995033,268.79977 427.733753,268.79977 415.236976,256.302993 C402.740199,243.806216 402.740199,223.544936 415.236976,211.048159 L415.236976,211.048159 L421.405576,204.880576 L364.605534,204.879748 C346.932422,204.879748 332.605534,190.55286 332.605534,172.879748 C332.605534,155.206636 346.932422,140.879748 364.605534,140.879748 L364.605534,140.879748 L421.095576,140.880576 L415.236976,135.021883 L414.865822,134.644666 C402.741448,122.120657 402.865166,102.138859 415.236976,89.7670494 Z M156,80.8932188 C105.189803,80.8932188 64,122.083022 64,172.893219 C64,223.703416 105.189803,264.893219 156,264.893219 C206.810197,264.893219 248,223.703416 248,172.893219 C248,122.083022 206.810197,80.8932188 156,80.8932188 Z" id="path-1"></path>

    </svg>
