<?xml version="1.0" encoding="UTF-8"?>
<svg width="1024px" height="1024px" viewBox="0 0 1024 1024" version="1.1" xmlns="http://www.w3.org/2000/svg" xmlns:xlink="http://www.w3.org/1999/xlink">
    <title>fi-xls</title>
    <defs>
        <path d="M446,0 C454.195785,1.6475467e-14 461.671939,3.08110797 467.333342,8.14820525 L685.12082,160.646377 C690.958316,164.733836 695.014031,170.417389 697.111173,176.694403 C698.966108,180.746268 700,185.252395 700,190 L700,190 L700,796 C700,813.673112 685.673112,828 668,828 L668,828 L32,828 C14.326888,828 -2.164332e-15,813.673112 0,796 L0,796 L0,32 C2.164332e-15,14.326888 14.326888,0 32,0 L32,0 Z M435.516,64 L64,64 L64,764 L636,764 L636,204.382 L435.516,64 Z" id="path-1"></path>
    </defs>
    <g id="fi-xls" stroke="none" stroke-width="1" fill="none" fill-rule="evenodd">
        <g id="导出" transform="translate(162.000000, 98.000000)">
            <mask id="mask-2" fill="white">
                <use xlink:href="#path-1"></use>
            </mask>
            <use id="蒙版" fill="#D8D8D8" xlink:href="#path-1"></use>
            <g id="编组" mask="url(#mask-2)">
                <g transform="translate(-155.000000, -98.000000)" id="00-color/中性色/323232">
                    <rect id="矩形" fill="currentColor" x="0" y="0" width="1024" height="1024"></rect>
                </g>
            </g>
        </g>
        <path d="M415.735778,615.856923 C418.449111,616.736923 421.859111,615.856923 425.965778,613.216923 C429.779111,610.72359 431.942444,608.120256 432.455778,605.406923 C432.969111,602.69359 432.492444,600.310256 431.025778,598.256923 L384.165778,532.256923 L423.325778,477.476923 C425.379111,474.54359 426.185778,471.57359 425.745778,468.566923 C425.305778,465.560256 423.179111,462.88359 419.365778,460.536923 C415.552444,458.190256 412.032444,457.566923 408.805778,458.666923 C405.579111,459.766923 402.572444,462.296923 399.785778,466.256923 L368.545778,510.256923 L335.325778,463.396923 C332.832444,460.02359 330.229111,458.226923 327.515778,458.006923 C324.802444,457.786923 321.539111,458.996923 317.725778,461.636923 C315.085778,463.54359 313.325778,466.146923 312.445778,469.446923 C311.565778,472.746923 311.932444,475.64359 313.545778,478.136923 L352.485778,532.476923 L307.825778,595.396923 C305.332444,598.916923 304.489111,602.25359 305.295778,605.406923 C306.102444,608.560256 307.972444,611.090256 310.905778,612.996923 C318.092444,617.690256 323.959111,616.736923 328.505778,610.136923 L368.325778,554.476923 L408.365778,609.916923 C410.565778,612.996923 413.022444,614.976923 415.735778,615.856923 Z M555.345778,613.876923 C557.985778,613.876923 560.552444,612.92359 563.045778,611.016923 C565.539111,609.110256 566.785778,605.810256 566.785778,601.116923 C566.785778,596.570256 565.612444,593.306923 563.265778,591.326923 C560.919111,589.346923 558.279111,588.356923 555.345778,588.356923 L512.225778,588.356923 L512.225778,469.556923 C512.225778,466.036923 510.905778,463.286923 508.265778,461.306923 C505.625778,459.326923 502.179111,458.336923 497.925778,458.336923 C493.965778,458.336923 490.592444,459.326923 487.805778,461.306923 C485.019111,463.286923 483.625778,466.036923 483.625778,469.556923 L483.625778,598.036923 C483.625778,602.436923 485.019111,606.176923 487.805778,609.256923 C490.592444,612.336923 494.405778,613.876923 499.245778,613.876923 L555.345778,613.876923 Z M646.975778,614.866923 C652.769111,616.700256 658.965778,617.470256 665.565778,617.176923 C683.605778,616.590256 697.025778,611.860256 705.825778,602.986923 C714.625778,594.11359 719.172444,582.416923 719.465778,567.896923 C719.612444,562.470256 718.989111,557.630256 717.595778,553.376923 C716.202444,549.12359 713.929111,545.310256 710.775778,541.936923 C707.622444,538.56359 703.625778,535.410256 698.785778,532.476923 C693.945778,529.54359 688.225778,526.610256 681.625778,523.676923 C678.985778,522.50359 676.015778,521.256923 672.715778,519.936923 C669.415778,518.616923 666.262444,517.00359 663.255778,515.096923 C660.249111,513.190256 657.719111,510.990256 655.665778,508.496923 C653.612444,506.00359 652.585778,503.070256 652.585778,499.696923 C652.585778,497.64359 653.025778,495.55359 653.905778,493.426923 C654.785778,491.300256 655.995778,489.39359 657.535778,487.706923 C659.075778,486.020256 660.945778,484.626923 663.145778,483.526923 C665.345778,482.426923 667.839111,481.876923 670.625778,481.876923 C673.119111,481.876923 675.575778,482.24359 677.995778,482.976923 C680.415778,483.710256 682.689111,484.590256 684.815778,485.616923 C686.942444,486.64359 688.959111,487.780256 690.865778,489.026923 C692.772444,490.27359 694.459111,491.410256 695.925778,492.436923 C696.952444,493.316923 698.272444,493.90359 699.885778,494.196923 C701.499111,494.490256 703.149111,494.45359 704.835778,494.086923 C706.522444,493.720256 708.135778,493.060256 709.675778,492.106923 C711.215778,491.15359 712.499111,489.870256 713.525778,488.256923 C715.432444,485.030256 715.689111,481.620256 714.295778,478.026923 C712.902444,474.43359 710.262444,471.096923 706.375778,468.016923 C702.489111,464.936923 697.612444,462.370256 691.745778,460.316923 C685.879111,458.26359 679.499111,457.16359 672.605778,457.016923 C666.445778,456.870256 660.395778,457.676923 654.455778,459.436923 C648.515778,461.196923 643.199111,463.836923 638.505778,467.356923 C633.812444,470.876923 630.035778,475.31359 627.175778,480.666923 C624.315778,486.020256 622.885778,492.216923 622.885778,499.256923 C622.885778,505.856923 624.059111,511.576923 626.405778,516.416923 C628.752444,521.256923 631.905778,525.436923 635.865778,528.956923 C639.825778,532.476923 644.482444,535.520256 649.835778,538.086923 C655.189111,540.65359 660.945778,543.036923 667.105778,545.236923 C669.305778,545.970256 671.762444,546.996923 674.475778,548.316923 C677.189111,549.636923 679.682444,551.286923 681.955778,553.266923 C684.229111,555.246923 686.172444,557.556923 687.785778,560.196923 C689.399111,562.836923 690.205778,565.916923 690.205778,569.436923 C690.205778,573.10359 689.545778,576.366923 688.225778,579.226923 C686.905778,582.086923 685.145778,584.470256 682.945778,586.376923 C680.745778,588.28359 678.215778,589.750256 675.355778,590.776923 C672.495778,591.80359 669.599111,592.316923 666.665778,592.316923 C663.145778,592.316923 659.882444,591.876923 656.875778,590.996923 C653.869111,590.116923 651.009111,588.980256 648.295778,587.586923 C645.582444,586.19359 643.015778,584.65359 640.595778,582.966923 C638.175778,581.280256 635.865778,579.70359 633.665778,578.236923 C631.172444,576.62359 628.495778,576.000256 625.635778,576.366923 C622.775778,576.73359 620.319111,578.530256 618.265778,581.756923 C617.092444,583.370256 616.469111,585.350256 616.395778,587.696923 C616.322444,590.04359 616.799111,592.46359 617.825778,594.956923 C618.852444,597.450256 620.502444,599.906923 622.775778,602.326923 C625.049111,604.746923 628.092444,606.910256 631.905778,608.816923 C636.159111,611.016923 641.182444,613.03359 646.975778,614.866923 Z" id="XLSX" stroke="currentColor" stroke-width="24" fill="currentColor" fill-rule="nonzero"></path>
    </g>
</svg>
