<svg width="1024px" height="1024px" viewBox="0 0 1024 1024" version="1.1" xmlns="http://www.w3.org/2000/svg" xmlns:xlink="http://www.w3.org/1999/xlink">

        <path d="M446,0 C454.195785,1.6475467e-14 461.671939,3.08110797 467.333342,8.14820525 L685.12082,160.646377 C690.958316,164.733836 695.014031,170.417389 697.111173,176.694403 C698.966108,180.746268 700,185.252395 700,190 L700,190 L700,796 C700,813.673112 685.673112,828 668,828 L668,828 L32,828 C14.326888,828 -2.164332e-15,813.673112 0,796 L0,796 L0,32 C2.164332e-15,14.326888 14.326888,0 32,0 L32,0 Z M435.516,64 L64,64 L64,764 L636,764 L636,204.382 L435.516,64 Z" id="path-1"></path>

    </svg>
