<?xml version="1.0" encoding="UTF-8"?>
<svg width="1024px" height="1024px" viewBox="0 0 1024 1024" version="1.1" xmlns="http://www.w3.org/2000/svg" xmlns:xlink="http://www.w3.org/1999/xlink">
    <title>fi-xlsx</title>
    <defs>
        <path d="M446,0 C454.195785,1.6475467e-14 461.671939,3.08110797 467.333342,8.14820525 L685.12082,160.646377 C690.958316,164.733836 695.014031,170.417389 697.111173,176.694403 C698.966108,180.746268 700,185.252395 700,190 L700,190 L700,796 C700,813.673112 685.673112,828 668,828 L668,828 L32,828 C14.326888,828 -2.164332e-15,813.673112 0,796 L0,796 L0,32 C2.164332e-15,14.326888 14.326888,0 32,0 L32,0 Z M435.516,64 L64,64 L64,764 L636,764 L636,204.382 L435.516,64 Z" id="path-1"></path>
    </defs>
    <g id="fi-xlsx" stroke="none" stroke-width="1" fill="none" fill-rule="evenodd">
        <g id="导出" transform="translate(162.000000, 98.000000)">
            <mask id="mask-2" fill="white">
                <use xlink:href="#path-1"></use>
            </mask>
            <use id="蒙版" fill="#D8D8D8" xlink:href="#path-1"></use>
            <g id="编组" mask="url(#mask-2)">
                <g transform="translate(-155.000000, -98.000000)" id="00-color/中性色/323232">
                    <rect id="矩形" fill="currentColor" x="0" y="0" width="1024" height="1024"></rect>
                </g>
            </g>
        </g>
        <path d="M359.735778,615.856923 C362.449111,616.736923 365.859111,615.856923 369.965778,613.216923 C373.779111,610.72359 375.942444,608.120256 376.455778,605.406923 C376.969111,602.69359 376.492444,600.310256 375.025778,598.256923 L328.165778,532.256923 L367.325778,477.476923 C369.379111,474.54359 370.185778,471.57359 369.745778,468.566923 C369.305778,465.560256 367.179111,462.88359 363.365778,460.536923 C359.552444,458.190256 356.032444,457.566923 352.805778,458.666923 C349.579111,459.766923 346.572444,462.296923 343.785778,466.256923 L312.545778,510.256923 L279.325778,463.396923 C276.832444,460.02359 274.229111,458.226923 271.515778,458.006923 C268.802444,457.786923 265.539111,458.996923 261.725778,461.636923 C259.085778,463.54359 257.325778,466.146923 256.445778,469.446923 C255.565778,472.746923 255.932444,475.64359 257.545778,478.136923 L296.485778,532.476923 L251.825778,595.396923 C249.332444,598.916923 248.489111,602.25359 249.295778,605.406923 C250.102444,608.560256 251.972444,611.090256 254.905778,612.996923 C262.092444,617.690256 267.959111,616.736923 272.505778,610.136923 L312.325778,554.476923 L352.365778,609.916923 C354.565778,612.996923 357.022444,614.976923 359.735778,615.856923 Z M479.345778,613.876923 C481.985778,613.876923 484.552444,612.92359 487.045778,611.016923 C489.539111,609.110256 490.785778,605.810256 490.785778,601.116923 C490.785778,596.570256 489.612444,593.306923 487.265778,591.326923 C484.919111,589.346923 482.279111,588.356923 479.345778,588.356923 L436.225778,588.356923 L436.225778,469.556923 C436.225778,466.036923 434.905778,463.286923 432.265778,461.306923 C429.625778,459.326923 426.179111,458.336923 421.925778,458.336923 C417.965778,458.336923 414.592444,459.326923 411.805778,461.306923 C409.019111,463.286923 407.625778,466.036923 407.625778,469.556923 L407.625778,598.036923 C407.625778,602.436923 409.019111,606.176923 411.805778,609.256923 C414.592444,612.336923 418.405778,613.876923 423.245778,613.876923 L479.345778,613.876923 Z M550.975778,614.866923 C556.769111,616.700256 562.965778,617.470256 569.565778,617.176923 C587.605778,616.590256 601.025778,611.860256 609.825778,602.986923 C618.625778,594.11359 623.172444,582.416923 623.465778,567.896923 C623.612444,562.470256 622.989111,557.630256 621.595778,553.376923 C620.202444,549.12359 617.929111,545.310256 614.775778,541.936923 C611.622444,538.56359 607.625778,535.410256 602.785778,532.476923 C597.945778,529.54359 592.225778,526.610256 585.625778,523.676923 C582.985778,522.50359 580.015778,521.256923 576.715778,519.936923 C573.415778,518.616923 570.262444,517.00359 567.255778,515.096923 C564.249111,513.190256 561.719111,510.990256 559.665778,508.496923 C557.612444,506.00359 556.585778,503.070256 556.585778,499.696923 C556.585778,497.64359 557.025778,495.55359 557.905778,493.426923 C558.785778,491.300256 559.995778,489.39359 561.535778,487.706923 C563.075778,486.020256 564.945778,484.626923 567.145778,483.526923 C569.345778,482.426923 571.839111,481.876923 574.625778,481.876923 C577.119111,481.876923 579.575778,482.24359 581.995778,482.976923 C584.415778,483.710256 586.689111,484.590256 588.815778,485.616923 C590.942444,486.64359 592.959111,487.780256 594.865778,489.026923 C596.772444,490.27359 598.459111,491.410256 599.925778,492.436923 C600.952444,493.316923 602.272444,493.90359 603.885778,494.196923 C605.499111,494.490256 607.149111,494.45359 608.835778,494.086923 C610.522444,493.720256 612.135778,493.060256 613.675778,492.106923 C615.215778,491.15359 616.499111,489.870256 617.525778,488.256923 C619.432444,485.030256 619.689111,481.620256 618.295778,478.026923 C616.902444,474.43359 614.262444,471.096923 610.375778,468.016923 C606.489111,464.936923 601.612444,462.370256 595.745778,460.316923 C589.879111,458.26359 583.499111,457.16359 576.605778,457.016923 C570.445778,456.870256 564.395778,457.676923 558.455778,459.436923 C552.515778,461.196923 547.199111,463.836923 542.505778,467.356923 C537.812444,470.876923 534.035778,475.31359 531.175778,480.666923 C528.315778,486.020256 526.885778,492.216923 526.885778,499.256923 C526.885778,505.856923 528.059111,511.576923 530.405778,516.416923 C532.752444,521.256923 535.905778,525.436923 539.865778,528.956923 C543.825778,532.476923 548.482444,535.520256 553.835778,538.086923 C559.189111,540.65359 564.945778,543.036923 571.105778,545.236923 C573.305778,545.970256 575.762444,546.996923 578.475778,548.316923 C581.189111,549.636923 583.682444,551.286923 585.955778,553.266923 C588.229111,555.246923 590.172444,557.556923 591.785778,560.196923 C593.399111,562.836923 594.205778,565.916923 594.205778,569.436923 C594.205778,573.10359 593.545778,576.366923 592.225778,579.226923 C590.905778,582.086923 589.145778,584.470256 586.945778,586.376923 C584.745778,588.28359 582.215778,589.750256 579.355778,590.776923 C576.495778,591.80359 573.599111,592.316923 570.665778,592.316923 C567.145778,592.316923 563.882444,591.876923 560.875778,590.996923 C557.869111,590.116923 555.009111,588.980256 552.295778,587.586923 C549.582444,586.19359 547.015778,584.65359 544.595778,582.966923 C542.175778,581.280256 539.865778,579.70359 537.665778,578.236923 C535.172444,576.62359 532.495778,576.000256 529.635778,576.366923 C526.775778,576.73359 524.319111,578.530256 522.265778,581.756923 C521.092444,583.370256 520.469111,585.350256 520.395778,587.696923 C520.322444,590.04359 520.799111,592.46359 521.825778,594.956923 C522.852444,597.450256 524.502444,599.906923 526.775778,602.326923 C529.049111,604.746923 532.092444,606.910256 535.905778,608.816923 C540.159111,611.016923 545.182444,613.03359 550.975778,614.866923 Z M758.155778,615.856923 C760.869111,616.736923 764.279111,615.856923 768.385778,613.216923 C772.199111,610.72359 774.362444,608.120256 774.875778,605.406923 C775.389111,602.69359 774.912444,600.310256 773.445778,598.256923 L726.585778,532.256923 L765.745778,477.476923 C767.799111,474.54359 768.605778,471.57359 768.165778,468.566923 C767.725778,465.560256 765.599111,462.88359 761.785778,460.536923 C757.972444,458.190256 754.452444,457.566923 751.225778,458.666923 C747.999111,459.766923 744.992444,462.296923 742.205778,466.256923 L710.965778,510.256923 L677.745778,463.396923 C675.252444,460.02359 672.649111,458.226923 669.935778,458.006923 C667.222444,457.786923 663.959111,458.996923 660.145778,461.636923 C657.505778,463.54359 655.745778,466.146923 654.865778,469.446923 C653.985778,472.746923 654.352444,475.64359 655.965778,478.136923 L694.905778,532.476923 L650.245778,595.396923 C647.752444,598.916923 646.909111,602.25359 647.715778,605.406923 C648.522444,608.560256 650.392444,611.090256 653.325778,612.996923 C660.512444,617.690256 666.379111,616.736923 670.925778,610.136923 L710.745778,554.476923 L750.785778,609.916923 C752.985778,612.996923 755.442444,614.976923 758.155778,615.856923 Z" id="XLSX" stroke="currentColor" stroke-width="24" fill="currentColor" fill-rule="nonzero"></path>
    </g>
</svg>
