<svg width="1024px" height="1024px" viewBox="0 0 1024 1024" version="1.1" xmlns="http://www.w3.org/2000/svg" xmlns:xlink="http://www.w3.org/1999/xlink">

        <path d="M853.844393,365.048773 C871.517505,365.048773 885.844393,379.375661 885.844393,397.048773 C885.844393,400.180114 885.384783,403.294499 884.480258,406.292353 L763.790602,806.292353 C759.713967,819.803489 747.267489,829.048773 733.154737,829.048773 L216.924441,829.048773 L356.924441,365.048773 L853.844393,365.048773 Z M258.700588,0 C266.260341,-2.98104135e-14 273.575984,2.67641804 279.350949,7.55490634 L279.350949,7.55490634 L414.884335,122.048773 L744.924441,122.048773 C762.597553,122.048773 776.924441,136.375661 776.924441,154.048773 L776.924441,154.048773 L776.924441,260.42269 C776.924441,278.095802 762.597553,292.42269 744.924441,292.42269 L744.924441,292.42269 L319.884335,292.42269 L146.924441,829.048773 L31.9245304,829.048684 C14.2514676,829.007002 -0.0415908184,814.646365 9.0933585e-05,796.973302 L9.0933585e-05,796.973302 L0.924441237,405.048773 L0.924441237,32 C0.924441237,14.326888 15.2513292,3.24649801e-15 32.9244412,0 L32.9244412,0 Z" id="path-1"></path>

    </svg>
