<svg width="1024px" height="1024px" viewBox="0 0 1024 1024" version="1.1" xmlns="http://www.w3.org/2000/svg" xmlns:xlink="http://www.w3.org/1999/xlink">

        <path d="M705.793939,0 C723.467051,0 737.793939,14.326888 737.793939,32 C737.793939,40.8915951 734.16746,48.9361807 728.312893,54.7353659 L728.215295,54.8334778 L499.793,283.255 L499.793939,755 C499.793939,772.496381 485.752156,786.713128 468.323118,786.995713 L467.793939,787 C450.297558,787 436.080812,772.958217 435.798226,755.529179 L435.793939,755 L435.793939,270 C435.793939,261.108405 439.420418,253.063819 445.274985,247.264634 L445.372583,247.166522 L628.538,64 L109.049,64 L292.215295,247.166522 L292.312893,247.264634 C298.054872,252.952297 301.653635,260.799828 301.789926,269.487973 L301.793939,270 L301.793,571.744 L368.994949,638.946176 C381.491727,651.442953 381.491727,671.704233 368.994949,684.20101 C356.498172,696.697787 336.236893,696.697787 323.740115,684.20101 L247.372583,607.833478 C241.609812,602.070707 238.504489,594.656811 238.056613,587.114591 C237.91202,585.992098 237.826003,584.851275 237.801347,583.695345 L237.793939,583 L237.793,283.254 L9.372583,54.8334778 C-3.12419433,42.3367004 -3.12419433,22.0754211 9.372583,9.57864376 C13.63841,5.31281675 18.8089775,2.50314756 24.2666116,1.1496362 C26.77253,0.45765892 29.4018578,0.0636064836 32.1141588,0.00707757191 L32.7939392,0 L705.793939,0 Z M864,654 C881.673112,654 896,668.326888 896,686 C896,703.496381 881.958217,717.713128 864.529179,717.995713 L864,718 L664,718 C646.326888,718 632,703.673112 632,686 C632,668.503619 646.041783,654.286872 663.470821,654.004287 L664,654 L864,654 Z M864,484 C881.673112,484 896,498.326888 896,516 C896,533.496381 881.958217,547.713128 864.529179,547.995713 L864,548 L664,548 C646.326888,548 632,533.673112 632,516 C632,498.503619 646.041783,484.286872 663.470821,484.004287 L664,484 L864,484 Z M864,314 C881.673112,314 896,328.326888 896,346 C896,363.496381 881.958217,377.713128 864.529179,377.995713 L864,378 L664,378 C646.326888,378 632,363.673112 632,346 C632,328.503619 646.041783,314.286872 663.470821,314.004287 L664,314 L864,314 Z" id="path-1"></path>

    </svg>
