<svg width="1024px" height="1024px" viewBox="0 0 1024 1024" version="1.1" xmlns="http://www.w3.org/2000/svg" xmlns:xlink="http://www.w3.org/1999/xlink">

        <path d="M602,0 C619.673112,-3.24649801e-15 634,14.326888 634,32 L634,260 C634,277.673112 619.673112,292 602,292 L480,292 L480,403 L770,403 L770,403 L770.529179,403.004287 C787.958217,403.286872 802,417.503619 802,435 L802,435 L802,578 L864,578 C881.673112,578 896,592.326888 896,610 L896,798 C896,815.673112 881.673112,830 864,830 L676,830 C658.326888,830 644,815.673112 644,798 L644,610 C644,592.326888 658.326888,578 676,578 L738,578 L738,467 L480,467 L480,575 C480,576.011939 479.953028,577.012908 479.861147,578.000844 L542,578 C559.673112,578 574,592.326888 574,610 L574,798 C574,815.673112 559.673112,830 542,830 L354,830 C336.326888,830 322,815.673112 322,798 L322,610 C322,592.326888 336.326888,578 354,578 L416.138853,578.000844 C416.046972,577.012908 416,576.011939 416,575 L416,575 L416,467 L158,467 L158,575 C158,576.011939 157.953028,577.012908 157.861147,578.000844 L220,578 C237.673112,578 252,592.326888 252,610 L252,798 C252,815.673112 237.673112,830 220,830 L32,830 C14.326888,830 2.164332e-15,815.673112 0,798 L0,610 C-2.164332e-15,592.326888 14.326888,578 32,578 L94.1388532,578.000844 C94.0469715,577.012908 94,576.011939 94,575 L94,575 L94,435 C94,417.326888 108.326888,403 126,403 L126,403 L416,403 L416,292 L294,292 C276.326888,292 262,277.673112 262,260 L262,32 C262,14.326888 276.326888,3.24649801e-15 294,0 L602,0 Z M832,642 L708,642 L708,766 L832,766 L832,642 Z M188,642 L64,642 L64,766 L188,766 L188,642 Z M510,642 L386,642 L386,766 L510,766 L510,642 Z M570,64 L326,64 L326,228 L570,228 L570,64 Z" id="path-1"></path>

    </svg>
