<svg width="1024px" height="1024px" viewBox="0 0 1024 1024" version="1.1" xmlns="http://www.w3.org/2000/svg" xmlns:xlink="http://www.w3.org/1999/xlink">

        <path d="M576.503472,532.122113 L576.876894,532.489592 L761.251452,716.86415 L761.251569,597.543416 L761.255856,597.014238 C761.538441,579.585199 775.755188,565.543416 793.251569,565.543416 C810.74795,565.543416 824.964697,579.585199 825.247282,597.014238 L825.251569,597.543416 L825.251569,793.543416 L825.250154,793.817263 C825.327863,802.107095 822.204141,810.421364 815.878986,816.746518 C808.81336,823.812145 799.265636,826.882895 790.04255,825.958769 L789.548782,825.905441 L596.891179,825.903806 C579.218067,825.903806 564.891179,811.576918 564.891179,793.903806 C564.891179,776.407425 578.932962,762.190678 596.362001,761.908093 L596.891179,761.903806 L715.781657,761.904024 L531.62206,577.744426 L531.250906,577.367209 C519.247776,564.96844 519.249001,545.260292 531.25458,532.863015 L531.62206,532.489592 L531.999277,532.118438 C544.398046,520.115308 564.106194,520.116533 576.503472,532.122113 Z M293.696249,532.118438 L294.073466,532.489592 C306.445276,544.861402 306.568994,564.8432 294.444621,577.367209 L294.073466,577.744426 L109.913162,761.903316 L228.804347,761.903806 C246.477459,761.903806 260.804347,776.230694 260.804347,793.903806 C260.804347,811.576918 246.477459,825.903806 228.804347,825.903806 L36.1467441,825.905441 C26.7716722,826.991291 17.0083384,823.938317 9.81654019,816.746518 C3.4913856,810.421364 0.36766283,802.107095 0.445371872,793.817263 L0.443957186,793.543416 L0.443957186,597.543416 C0.443957186,579.870304 14.7708452,565.543416 32.4439572,565.543416 C49.9403381,565.543416 64.1570848,579.585199 64.4396701,597.014238 L64.4439572,597.543416 L64.4433675,716.863443 L248.818632,532.489592 C261.190442,520.117783 281.17224,519.994065 293.696249,532.118438 Z M815.878986,9.2534816 C822.204141,15.5786362 825.327863,23.8929055 825.250154,32.1827371 L825.251569,32.4565838 L825.251569,228.456584 C825.251569,246.129696 810.924681,260.456584 793.251569,260.456584 C775.755188,260.456584 761.538441,246.414801 761.255856,228.985762 L761.251569,228.456584 L761.251452,109.13585 L576.876894,293.510408 C564.505084,305.882217 544.523286,306.005935 531.999277,293.881562 L531.62206,293.510408 C519.25025,281.138598 519.126532,261.1568 531.250906,248.632791 L531.62206,248.255574 L715.781657,64.0959764 L596.891179,64.0961941 C579.218067,64.0961941 564.891179,49.7693061 564.891179,32.0961941 C564.891179,14.4230821 579.218067,0.0961940776 596.891179,0.0961940776 L789.548782,0.0945588705 C798.923854,-0.991290873 808.687188,2.06168337 815.878986,9.2534816 Z M35.6529767,0.0412305129 L36.1467441,0.0945588706 L228.804347,0.0961940777 C246.477459,0.0961940777 260.804347,14.4230821 260.804347,32.0961941 C260.804347,49.592575 246.762564,63.8093217 229.333525,64.091907 L228.804347,64.0961941 L109.913162,64.0966836 L294.073466,248.255574 L294.444621,248.632791 C306.44775,261.03156 306.446525,280.739708 294.440946,293.136985 L294.073466,293.510408 L293.696249,293.881562 C281.29748,305.884692 261.589332,305.883467 249.192054,293.877887 L248.818632,293.510408 L64.4447817,109.137971 L64.4439572,228.456584 L64.4396701,228.985762 C64.1570848,246.414801 49.9403381,260.456584 32.4439572,260.456584 C14.9475763,260.456584 0.730829569,246.414801 0.448244272,228.985762 L0.443957186,228.456584 L0.443957186,32.4565838 L0.445371872,32.1827371 C0.36766283,23.8929055 3.4913856,15.5786362 9.81654019,9.2534816 C16.8821665,2.18785527 26.4298906,-0.882895093 35.6529767,0.0412305129 Z" id="path-1"></path>

    </svg>
