<svg width="1024px" height="1024px" viewBox="0 0 1024 1024" version="1.1" xmlns="http://www.w3.org/2000/svg"
  xmlns:xlink="http://www.w3.org/1999/xlink">
  <path
    d="M565.96342,3.19744231e-13 L829.007143,263.043723 L828.759,263.291 L829,263.291414 L829,728.291414 C829,745.964526 814.673112,760.291414 797,760.291414 L664,760.291414 L664,864.291414 C664,881.787795 649.958217,896.004542 632.529179,896.287127 L632,896.291414 L32,896.291414 C14.326888,896.291414 7.10542736e-15,881.964526 0,864.291414 L0,157.291414 C0,139.618302 14.326888,125.291414 32,125.291414 L195,125.291414 L195,32.2914139 C195,14.6183019 209.326888,0.291413922 227,0.291413922 L565.672,0.291 L565.96342,3.19744231e-13 Z M195,189.291414 L64,189.291414 L64,832.291414 L600,832.291414 L600,760.291414 L227,760.291414 C209.326888,760.291414 195,745.964526 195,728.291414 L195,189.291414 Z M502,64.2914139 L259,64.2914139 L259,696.291414 L765,696.291414 L765,327.291414 L534,327.291414 C516.326888,327.291414 502,312.964526 502,295.291414 L502,64.2914139 Z M528,559.291414 C545.673112,559.291414 560,573.618302 560,591.291414 C560,608.787795 545.958217,623.004542 528.529179,623.287127 L528,623.291414 L370,623.291414 C352.326888,623.291414 338,608.964526 338,591.291414 C338,573.795033 352.041783,559.578286 369.470821,559.295701 L370,559.291414 L528,559.291414 Z M654,437.291414 C671.673112,437.291414 686,451.618302 686,469.291414 C686,486.787795 671.958217,501.004542 654.529179,501.287127 L654,501.291414 L370,501.291414 C352.326888,501.291414 338,486.964526 338,469.291414 C338,451.795033 352.041783,437.578286 369.470821,437.295701 L370,437.291414 L654,437.291414 Z M738.745,263.291 L566,90.546 L566,263.291414 L738.745,263.291 Z"
    id="path-1"></path>
</svg>
