<svg width="1024px" height="1024px" viewBox="0 0 1024 1024" version="1.1" xmlns="http://www.w3.org/2000/svg" xmlns:xlink="http://www.w3.org/1999/xlink">

        <path d="M667,0 C667.502926,0 668.003143,0.0116020426 668.500396,0.0345530799 C668.997527,0.0115865162 669.49741,0 670,0 C687.673112,0 702,14.326888 702,32 L702,32 L702,68 C702,85.673112 687.673112,100 670,100 C652.326888,100 638,85.673112 638,68 L638,68 L638,64 L64,64 L64,829 L478,829 L478,701 C478,683.503619 492.041783,669.286872 509.470821,669.004287 L510,669 L510,669 L638,669 L638,541 C638,523.503619 652.041783,509.286872 669.470821,509.004287 L670,509 C687.673112,509 702,523.326888 702,541 L702,541 L702.001165,697.215289 C703.143654,706.641962 700.097363,716.479607 692.862293,723.714678 L692.862293,723.714678 L533.05616,883.52081 C528.807256,887.769715 523.660775,890.573991 518.22707,891.933641 L518.181127,891.944672 C515.569733,892.633232 512.827698,893 510,893 C509.49741,893 508.997527,892.988413 508.500602,892.965493 C508.003143,892.988398 507.502926,893 507,893 L507,893 L32,893 C14.326888,893 -2.164332e-15,878.673112 0,861 L0,861 L0,32 C2.164332e-15,14.326888 14.326888,0 32,0 L32,0 Z M593.066,733 L542,733 L542,784.066 L593.066,733 Z M672.694044,134.263819 C685.218054,122.139446 705.199851,122.263164 717.571661,134.634973 L717.571661,134.634973 L819.395038,236.45835 L819.766192,236.835567 C831.890565,249.359576 831.766847,269.341374 819.395038,281.713184 L819.395038,281.713184 L412.101532,689.00669 L411.998456,689.109115 C408.141185,693.008011 403.229566,695.966119 397.549607,697.48806 L397.549607,697.48806 L258.975684,734.619148 C256.364916,735.368606 253.642502,735.79021 250.868774,735.848275 L250.868774,735.848275 L250.70923,735.85214 C250.609043,735.853766 250.508791,735.854918 250.408477,735.855595 L250.408477,735.855595 L250.280787,735.856065 L250.003279,735.855782 L249.93968,735.855595 C249.839366,735.854918 249.739114,735.853766 249.638769,735.851462 C249.585655,735.850533 249.532527,735.849471 249.479428,735.849152 C245.680121,735.768417 241.97717,735.007276 238.525639,733.655978 C234.320712,732.018715 230.62524,729.558247 227.577501,726.514051 C224.495171,723.446869 222.005803,719.718133 220.356631,715.469732 C219.009705,712.022039 218.252163,708.32424 218.1739,704.530508 C218.172898,704.485221 218.171994,704.439944 218.170496,704.394626 C218.166164,704.133217 218.165054,703.871363 218.166889,703.609752 C218.187064,700.67838 218.612817,697.800473 219.403307,695.04677 L219.403307,695.04677 L256.534395,556.472847 L256.675497,555.96281 C258.2943,550.290813 261.353864,545.406403 265.34859,541.601488 L265.34859,541.601488 L672.316827,134.634973 Z M316.048854,581.641718 L295.428913,658.594027 L372.381929,637.974793 L316.048854,581.641718 Z M621.404432,276.057037 L361.189136,536.272332 L417.757679,592.840875 L677.972974,332.625579 L621.404432,276.057037 Z M276,350 C293.673112,350 308,364.326888 308,382 C308,399.673112 293.673112,414 276,414 L276,414 L140,414 C122.326888,414 108,399.673112 108,382 C108,364.326888 122.326888,350 140,350 L140,350 Z M694.943537,202.517932 L666.659266,230.802203 L723.227808,287.370745 L751.512079,259.086474 L694.943537,202.517932 Z M350,190 C367.673112,190 382,204.326888 382,222 C382,239.673112 367.673112,254 350,254 L350,254 L140,254 C122.326888,254 108,239.673112 108,222 C108,204.326888 122.326888,190 140,190 L140,190 Z" id="path-1"></path>

    </svg>
