<svg width="1024px" height="1024px" viewBox="0 0 1024 1024" version="1.1" xmlns="http://www.w3.org/2000/svg" xmlns:xlink="http://www.w3.org/1999/xlink">

        <path d="M798,478 C815.673112,478 830,492.326888 830,510 L830,798 C830,815.673112 815.673112,830 798,830 L510,830 C492.326888,830 478,815.673112 478,798 L478,510 C478,492.326888 492.326888,478 510,478 L798,478 Z M320,478 C337.673112,478 352,492.326888 352,510 L352,798 C352,815.673112 337.673112,830 320,830 L32,830 C14.326888,830 2.164332e-15,815.673112 0,798 L0,510 C-2.164332e-15,492.326888 14.326888,478 32,478 L320,478 Z M766,542 L542,542 L542,766 L766,766 L766,542 Z M288,542 L64,542 L64,766 L288,766 L288,542 Z M320,-4.54747351e-13 C337.673112,-4.57993849e-13 352,14.326888 352,32 L352,320 C352,337.673112 337.673112,352 320,352 L32,352 C14.326888,352 2.164332e-15,337.673112 0,320 L0,32 C-2.164332e-15,14.326888 14.326888,-4.51500853e-13 32,-4.54747351e-13 L320,-4.54747351e-13 Z M678,-4.54747351e-13 C695.673112,-4.54747351e-13 710,14.326888 710,32 C710,49.673112 695.673112,64 678,64 L678,64 L542,64 L542,288 L766,288 L766,152 C766,134.326888 780.326888,120 798,120 C815.673112,120 830,134.326888 830,152 L830,152 L830,320 C830,337.673112 815.673112,352 798,352 L798,352 L510,352 C492.326888,352 478,337.673112 478,320 L478,320 L478,32 C478,14.326888 492.326888,-4.54747351e-13 510,-4.54747351e-13 L510,-4.54747351e-13 Z M288,64 L64,64 L64,288 L288,288 L288,64 Z" id="path-1"></path>

    </svg>
