<svg width="1024px" height="1024px" viewBox="0 0 1024 1024" version="1.1" xmlns="http://www.w3.org/2000/svg" xmlns:xlink="http://www.w3.org/1999/xlink">

        <path d="M581,832 C598.673112,832 613,846.326888 613,864 C613,881.673112 598.673112,896 581,896 L581,896 L315,896 C297.326888,896 283,881.673112 283,864 C283,846.326888 297.326888,832 315,832 L315,832 Z M448,189 C591.04175,189 707,304.95825 707,448 C707,525.027454 673.374627,594.201282 620.001871,641.643493 L620,747 C620,764.496381 605.958217,778.713128 588.529179,778.995713 L588,779 L308,779 C290.503619,779 276.286872,764.958217 276.004287,747.529179 L276,747 L275.999133,641.644385 C222.625795,594.202149 189,525.027937 189,448 C189,304.95825 304.95825,189 448,189 Z M448,253 C340.304474,253 253,340.304474 253,448 C253,510.860297 282.743635,566.773597 328.924842,602.433836 L329.044241,602.892557 C335.635074,608.650686 339.843257,617.0678 339.995713,626.470821 L340,627 L340,715 L556,715 L556,627 C556,617.427461 560.203201,608.836632 566.8647,602.972415 L566.985266,602.503207 C613.217764,566.846134 643,510.901074 643,448 C643,340.304474 555.695526,253 448,253 Z M112,384 C129.673112,384 144,398.326888 144,416 C144,433.673112 129.673112,448 112,448 L112,448 L32,448 C14.326888,448 -2.164332e-15,433.673112 0,416 C2.164332e-15,398.326888 14.326888,384 32,384 L32,384 Z M864,384 C881.673112,384 896,398.326888 896,416 C896,433.673112 881.673112,448 864,448 L864,448 L784,448 C766.326888,448 752,433.673112 752,416 C752,398.326888 766.326888,384 784,384 L784,384 Z M157.2502,113.001429 L157.627417,113.372583 L214.195959,169.941125 C226.692737,182.437903 226.692737,202.699182 214.195959,215.195959 C201.82415,227.567769 181.842352,227.691487 169.318343,215.567114 L168.941125,215.195959 L112.372583,158.627417 C99.8758057,146.13064 99.8758057,125.86936 112.372583,113.372583 C124.744393,101.000773 144.726191,100.877055 157.2502,113.001429 Z M784.195959,113.372583 C796.692737,125.86936 796.692737,146.13064 784.195959,158.627417 L727.627417,215.195959 C715.13064,227.692737 694.86936,227.692737 682.372583,215.195959 C669.875806,202.699182 669.875806,182.437903 682.372583,169.941125 L738.941125,113.372583 C751.437903,100.875806 771.699182,100.875806 784.195959,113.372583 Z M448,0 C465.673112,0 480,14.326888 480,32 L480,32 L480,112 C480,129.673112 465.673112,144 448,144 C430.326888,144 416,129.673112 416,112 L416,112 L416,32 C416,14.326888 430.326888,0 448,0 Z" id="path-1"></path>

    </svg>
