<svg width="1024px" height="1024px" viewBox="0 0 1024 1024" version="1.1" xmlns="http://www.w3.org/2000/svg" xmlns:xlink="http://www.w3.org/1999/xlink">

        <path d="M448,0 C695.423568,0 896,200.576432 896,448 C896,695.423568 695.423568,896 448,896 C200.576432,896 0,695.423568 0,448 C0,200.576432 200.576432,0 448,0 Z M448,64 C235.922656,64 64,235.922656 64,448 C64,660.077344 235.922656,832 448,832 C660.077344,832 832,660.077344 832,448 C832,235.922656 660.077344,64 448,64 Z M444.609589,228 C490.568493,228 527.53339,237.077397 555.504281,259.23219 C583.195462,281.165435 598.010244,304.408067 599.948627,344.484868 L600.003425,345.704485 L600.114578,347.45197 C601.051262,362.177979 589.872806,374.875101 575.146797,375.811785 C574.980403,375.822369 574.813914,375.831395 574.647351,375.838862 L574.424963,375.848832 C560.181106,376.487395 548.116521,365.458124 547.477959,351.214267 C547.460692,350.829103 547.452055,350.443599 547.452055,350.058047 C545.191781,322.969217 535.679795,308.604222 518.916096,294.963061 C502.152397,281.3219 478.136986,278.501319 446.869863,278.501319 C418.616438,278.501319 395.636986,283.919085 377.931507,294.754617 C360.226027,305.59015 351.373288,321.359719 351.373288,342.063325 C351.373288,360.445031 358.201199,374.134565 371.857021,383.131926 C385.512842,392.129288 411.64726,401.078276 450.260274,409.978892 C484.541096,417.718558 512.511986,425.651715 534.172945,433.778364 C555.833904,441.905013 574.386986,454.530343 589.832192,471.654354 C605.277397,488.778364 613,511.755497 613,540.585752 C613,577.155673 598.826199,607.533861 570.478596,631.720317 C542.130993,655.906772 505.166096,668 459.583904,668 C401.381849,668 357.824486,656.649077 328.911815,629.94723 C300.288271,603.512401 285.002645,577.143085 283.054939,535.314497 L283,534.042216 L282.871372,532.019997 C281.938719,517.357377 293.069057,504.71491 307.731677,503.782258 C307.845588,503.775012 307.959545,503.7685 308.073539,503.762721 C322.202649,503.046466 334.237195,513.919733 334.95345,528.048843 C334.975348,528.480795 334.986301,528.913231 334.986301,529.345738 L334.986301,529.398417 C337.434932,563.452946 350.243151,582.26825 373.410959,597.844327 C396.578767,613.420405 424.549658,617.208443 457.32363,617.208443 C488.025685,617.208443 512.84161,610.726473 531.771404,597.762533 C550.701199,584.798593 560.166096,567.190853 560.166096,544.939314 C560.166096,521.720317 550.277397,504.789798 530.5,494.147757 C510.722603,483.505717 477.524829,473.008795 430.906678,462.656992 C384.288527,452.305189 350.714041,437.744943 330.183219,418.976253 C309.652397,400.207564 299.386986,375.827617 299.386986,345.836412 C299.386986,311.781882 312.383562,283.628848 338.376712,261.377309 C364.369863,239.12577 399.780822,228 444.609589,228 Z" id="path-1"></path>

    </svg>
