<svg width="1024px" height="1024px" viewBox="0 0 1024 1024" version="1.1" xmlns="http://www.w3.org/2000/svg" xmlns:xlink="http://www.w3.org/1999/xlink">

        <path d="M448,0 C695.423568,0 896,200.576432 896,448 C896,695.423568 695.423568,896 448,896 C200.576432,896 0,695.423568 0,448 C0,200.576432 200.576432,0 448,0 Z M448,64 C235.922656,64 64,235.922656 64,448 C64,660.077344 235.922656,832 448,832 C660.077344,832 832,660.077344 832,448 C832,235.922656 660.077344,64 448,64 Z M450.748252,610 C459.8292,610 467.671837,612.966887 473.863393,618.900662 C479.642179,624.834437 482.944342,632.463576 482.944342,641.788079 C482.944342,651.112583 479.642179,659.165563 473.450623,665.099338 C467.259067,671.033113 459.8292,674 450.748252,674 C441.667303,674 434.237436,670.609272 428.04588,664.675497 C421.854325,658.741722 418.964932,651.112583 418.964932,641.788079 C418.964932,632.463576 421.854325,624.834437 428.04588,618.900662 C434.237436,612.966887 441.667303,610 450.748252,610 Z M447.955602,222 C491.392728,222 520.321554,232.728728 546.077457,255.921036 C569.050667,275.592874 586,311.483538 586,350.781615 C586,357.964496 584.02037,393.957852 559.700749,425.982769 C544.037998,446.608022 514.402834,466.178188 499.889558,478.098923 C490.053629,486.177837 488.214288,494.150234 487.378792,496.098923 C480.373713,512.437384 479.961059,526.154388 479.944565,540.110494 L479.944742,542.953212 C479.945038,543.427845 479.945307,543.902976 479.945307,544.378715 L479.945307,553.397946 L479.93,553.397 L479.930096,554.707909 C479.930096,572.198661 465.892831,586.410834 448.4694,586.693328 L447.940392,586.697614 C430.272965,586.697614 415.950687,572.375335 415.950687,554.707909 L415.950687,554.707909 L415.950687,529.687319 C415.950687,528.757903 415.990322,527.837745 416.067995,526.928442 C416.424461,511.976936 417.975891,500.553541 424.631147,487.711762 C426.935136,482.924078 432.828884,471.21344 445.337208,458.759107 C462.913606,441.258574 489.879184,420.438023 506.18577,399.098923 C520.435633,380.451289 523.571005,354.965524 523.571005,349.522 C523.571005,328.262384 517.775927,311.586563 506.18577,299.346178 C493.951716,287.105794 475.922584,281.233538 454.030066,281.233538 C426.049672,281.233538 375.25768,295.72031 374.003095,348.76648 L374.005813,370.972368 C374.005813,388.639794 359.683534,402.962073 342.016108,402.962073 C324.348682,402.962073 310.026403,388.639794 310.026403,370.972368 L310.026403,370.972368 L310.026,350.781 L310,350.781615 C310,349.992385 310.008633,349.197179 310.026194,348.396267 L310.026403,345.951778 C310.026403,344.12731 310.179138,342.338515 310.472519,340.597482 C312.638233,317.21609 322.545886,290.026134 346.664857,264.954495 C374.379503,236.145159 404.518476,222 447.955602,222 Z" id="path-1"></path>

    </svg>
