<svg width="1024px" height="1024px" viewBox="0 0 1024 1024" version="1.1" xmlns="http://www.w3.org/2000/svg" xmlns:xlink="http://www.w3.org/1999/xlink">

        <path d="M507.767627,6.10759826 C515.98517,0.137204329 526.092081,-1.3502849 535.17061,1.18300405 C548.885566,4.79450003 559,17.2815127 559,32.1308781 L559,798.130878 C559,811.997906 550.179513,823.804798 537.84298,828.247114 C528.05665,832.032808 516.609002,830.928507 507.488666,824.302195 C507.480021,824.295914 507.471379,824.289629 507.46274,824.283339 L182.789,587.895 L33.0572854,575.113741 C32.7062567,575.125136 32.3537989,575.130878 32,575.130878 C14.326888,575.130878 2.164332e-15,560.80399 0,543.130878 L0,287.130878 C-2.164332e-15,269.457766 14.326888,255.130878 32,255.130878 C32.7276564,255.130878 33.4496402,255.155165 34.165185,255.202973 L183.103,242.488 L507.741701,6.12645473 C507.746021,6.12330982 507.750341,6.12016599 507.754662,6.11702324 Z M495,94.452 L213.271606,299.140187 C207.98878,302.978384 201.920031,304.967843 195.842743,305.224937 L64,316.759 L64,513.651 L196.070003,525.20653 C196.106487,525.209722 196.142951,525.212974 196.179395,525.216286 C202.050132,525.578452 207.888252,527.561049 212.992644,531.269607 L495,736.16 L495,94.452 Z M709,148.618566 C713.688825,148.618566 718.142113,149.627015 722.154806,151.438851 L722.16877,151.409139 C823.900837,195.84398 894.998636,297.348134 894.998636,415.45807 C894.998636,533.67497 823.772,635.255999 721.892296,679.627587 L721.872606,679.58149 C717.933727,681.314161 713.579188,682.276001 709,682.276001 C691.326888,682.276001 677,667.949113 677,650.276001 C677,636.567255 685.620278,624.871882 697.735965,620.314752 L697.216175,620.548384 C775.998732,585.842365 830.998636,507.073175 830.998636,415.45807 C830.998636,323.927099 776.099703,245.218461 697.433165,210.463483 C696.631678,210.153314 695.845904,209.811157 695.077266,209.439158 C695.073066,209.437046 695.068721,209.435186 695.064375,209.433326 C684.372576,204.252373 677,193.296448 677,180.618566 C677,162.945454 691.326888,148.618566 709,148.618566 Z M646,265.130878 C650.564525,265.130878 654.905837,266.086568 658.834754,267.808767 L658.953129,267.662876 C719.567355,289.065271 762.999501,346.861856 762.999501,414.802562 C762.999501,483.351593 718.786109,541.574034 657.320837,562.508371 C656.493675,562.819127 655.650943,563.098513 654.793513,563.343035 C654.614708,563.402449 654.434738,563.459947 654.254627,563.517128 L654.241305,563.495141 C651.611869,564.193973 648.849427,564.5664 646,564.5664 C628.326888,564.5664 614,550.239512 614,532.5664 C614,519.136752 622.272849,507.639331 634.000362,502.892322 L634.000492,502.77666 C671.634868,491.239907 698.999501,456.216911 698.999501,414.802562 C698.999501,374.721927 673.368998,340.627617 637.603919,328.01556 C636.470381,327.710651 635.362279,327.34268 634.282847,326.917729 C634.189602,326.886603 634.095079,326.857459 634.000492,326.828463 L634.000362,326.804956 C622.272849,322.057947 614,310.560526 614,297.130878 C614,279.457766 628.326888,265.130878 646,265.130878 Z" id="path-1"></path>

    </svg>
