<svg width="1024px" height="1024px" viewBox="0 0 1024 1024" version="1.1" xmlns="http://www.w3.org/2000/svg" xmlns:xlink="http://www.w3.org/1999/xlink">

        <path d="M894,444 C911.496381,444 925.713128,458.041783 925.995713,475.470821 L926,476 L926,865 C926,882.496381 911.958217,896.713128 894.529179,896.995713 L894,897 L130,897 C112.503619,897 98.2868724,882.958217 98.0042871,865.529179 L98,865 L98,842 C98,824.326888 112.326888,810 130,810 C144.548433,810 156.829292,819.708636 160.717126,833.000457 L862,833 L862,476 C862,458.503619 876.041783,444.286872 893.470821,444.004287 L894,444 Z M157,602 C208.362482,602 250,643.637518 250,695 C250,746.362482 208.362482,788 157,788 C105.637518,788 64,746.362482 64,695 C64,643.637518 105.637518,602 157,602 Z M651,558 C702.362482,558 744,599.637518 744,651 C744,702.362482 702.362482,744 651,744 C599.637518,744 558,702.362482 558,651 C558,599.637518 599.637518,558 651,558 Z M157,666 C140.983742,666 128,678.983742 128,695 C128,711.016258 140.983742,724 157,724 C173.016258,724 186,711.016258 186,695 C186,678.983742 173.016258,666 157,666 Z M651,622 C634.983742,622 622,634.983742 622,651 C622,667.016258 634.983742,680 651,680 C667.016258,680 680,667.016258 680,651 C680,634.983742 667.016258,622 651,622 Z M312.736837,470.811909 C327.213803,480.94879 330.732137,500.902255 320.595257,515.379221 L265.531919,594.017817 C255.395038,608.494783 235.441573,612.013117 220.964607,601.876236 C206.487641,591.739356 202.969307,571.785891 213.106188,557.308925 L268.169526,478.670329 C278.306406,464.193363 298.259871,460.675029 312.736837,470.811909 Z M894,127 C911.496381,127 925.713128,141.041783 925.995713,158.470821 L926,159 L926,182 C926,199.673112 911.673112,214 894,214 C879.451931,214 867.171323,204.29185 863.283166,191.000542 L162,191 L162,548 C162,565.496381 147.958217,579.713128 130.529179,579.995713 L130,580 C112.503619,580 98.2868724,565.958217 98.0042871,548.529179 L98,548 L98,159 C98,141.503619 112.041783,127.286872 129.470821,127.004287 L130,127 L894,127 Z M506.343146,461.088312 L562.911688,517.656854 C575.408466,530.153632 575.408466,550.414911 562.911688,562.911688 C550.414911,575.408466 530.153632,575.408466 517.656854,562.911688 L461.088312,506.343146 C448.591534,493.846368 448.591534,473.585089 461.088312,461.088312 C473.585089,448.591534 493.846368,448.591534 506.343146,461.088312 Z M813.736837,429.811909 C828.213803,439.94879 831.732137,459.902255 821.595257,474.379221 L766.531919,553.017817 C756.395038,567.494783 736.441573,571.013117 721.964607,560.876236 C707.487641,550.739356 703.969307,530.785891 714.106188,516.308925 L769.169526,437.670329 C779.306406,423.193363 799.259871,419.675029 813.736837,429.811909 Z M373,280 C424.362482,280 466,321.637518 466,373 C466,424.362482 424.362482,466 373,466 C321.637518,466 280,424.362482 280,373 C280,321.637518 321.637518,280 373,280 Z M867,236 C918.362482,236 960,277.637518 960,329 C960,380.362482 918.362482,422 867,422 C815.637518,422 774,380.362482 774,329 C774,277.637518 815.637518,236 867,236 Z M373,344 C356.983742,344 344,356.983742 344,373 C344,389.016258 356.983742,402 373,402 C389.016258,402 402,389.016258 402,373 C402,356.983742 389.016258,344 373,344 Z M867,300 C850.983742,300 838,312.983742 838,329 C838,345.016258 850.983742,358 867,358 C883.016258,358 896,345.016258 896,329 C896,312.983742 883.016258,300 867,300 Z" id="path-1"></path>

    </svg>
