<svg width="1024px" height="1024px" viewBox="0 0 1024 1024" version="1.1" xmlns="http://www.w3.org/2000/svg" xmlns:xlink="http://www.w3.org/1999/xlink">

        <path d="M-0.00495757727,524.948827 C58.1601098,567.929387 152.567423,599.410295 268.992864,610.570809 L268.995042,800 C268.995042,813.174572 276.956614,824.489619 288.330935,829.396318 C118.662021,817.437396 2.67022742,765.612716 0.045485034,703.166325 L5.16877208e-09,701 L-0.00495757727,524.948827 Z M108,651 C90.326888,651 76,665.326888 76,683 C76,700.673112 90.326888,715 108,715 C125.673112,715 140,700.673112 140,683 C140,665.326888 125.673112,651 108,651 Z M-0.00495757727,235.948827 C73.2799747,290.102077 204.098304,326 364,326 C523.900871,326 654.718676,290.102448 728.003824,235.949665 L728,420 C728,423.364871 727.67648,426.70011 727.03796,430.001197 L300.995042,430 C283.32193,430 268.995042,444.326888 268.995042,462 L268.995042,462 L268.99069,546.914458 C108.589822,532.599938 2.53397779,482.30944 0.0447851736,422.166325 L1.01181286e-11,420 L-0.00495757727,235.948827 Z M108,363 C90.326888,363 76,377.326888 76,395 C76,412.673112 90.326888,427 108,427 C125.673112,427 140,412.673112 140,395 C140,377.326888 125.673112,363 108,363 Z M364,0 C576.077344,0 728,58.6506978 728,131 C728,203.349302 578.433759,262 364,262 C151.710579,262 2.99781157,204.516451 0.0447851736,133.166325 L1.01181286e-11,131 L0.045485034,128.833675 C3.0444686,57.4835489 154.04343,0 364,0 Z" id="path-1"></path>

    </svg>
