<svg width="1024px" height="1024px" viewBox="0 0 1024 1024" version="1.1" xmlns="http://www.w3.org/2000/svg" xmlns:xlink="http://www.w3.org/1999/xlink">

        <path d="M863.925867,422 C881.598979,422 895.925867,436.326888 895.925867,454 C895.925867,454.221333 895.92362,454.442141 895.919148,454.662403 L895.912294,455.408499 C891.956099,699.415039 692.921645,896 447.972313,896 C292.209553,896 155.013213,816.507704 74.738502,695.878321 L64.9238766,751.546262 L64.8277637,752.066656 C61.5229508,769.181838 45.0838583,780.541583 27.8532868,777.503368 C10.4486691,774.434465 -1.17272331,757.837396 1.89618038,740.432778 L1.89618038,740.432778 L24.437561,612.591134 C24.5055257,611.290455 24.6535553,609.979672 24.885495,608.664276 C26.4306132,599.901476 31.4049546,592.604652 38.1853356,587.910365 C44.9151805,583.144891 53.4730567,580.966356 62.235626,582.511433 C63.5488835,582.742996 64.8292149,583.05158 66.0727937,583.43172 L66.0727937,583.43172 L193.920324,605.976026 C211.324941,609.044929 222.946334,625.641998 219.87743,643.046616 C216.808526,660.451233 200.211458,672.072626 182.80684,669.003722 L182.80684,669.003722 L127.221289,659.204995 C195.909114,763.308906 313.918881,832 447.972313,832 C658.038004,832 828.707166,663.32341 831.92602,454.024008 L831.925867,454 C831.925867,436.326888 846.252755,422 863.925867,422 Z M447.972313,0 C603.759854,0 740.975066,79.5175911 821.244433,200.179256 L831.053766,144.523784 L831.149879,144.003389 C834.454692,126.888207 850.893784,115.528463 868.124356,118.566678 C885.528974,121.635581 897.150366,138.23265 894.081462,155.637267 L894.081462,155.637267 L871.540082,283.478912 C871.472117,284.779591 871.324087,286.090374 871.092148,287.405769 C869.547029,296.16857 864.572688,303.465394 857.792307,308.159681 C851.062462,312.925155 842.504586,315.10369 833.742017,313.558613 C832.428759,313.32705 831.148428,313.018466 829.904849,312.638326 L829.904849,312.638326 L702.057319,290.09402 C684.652701,287.025116 673.031309,270.428048 676.100212,253.02343 C679.169116,235.618813 695.766185,223.99742 713.170802,227.066324 L713.170802,227.066324 L768.770498,236.8665 C700.089536,132.722545 582.05643,64 447.972313,64 C237.481792,64 66.5473099,233.359532 64.0011327,443.246329 L63.9768146,443.229512 C63.3306876,460.332834 49.2614126,474 32,474 C14.8631639,474 0.872556098,460.529395 0.0392684443,443.599278 L0.00822079497,443.606 L0.0128149586,442.914463 C0.00429062256,442.610682 -3.63797881e-12,442.305842 -3.63797881e-12,442 C-3.63797881e-12,441.508519 0.0110799799,441.019626 0.033003778,440.533557 L0.0323320404,440.591501 C3.9885262,196.584961 203.022981,0 447.972313,0 Z" id="path-1"></path>

    </svg>
