<svg width="1024px" height="1024px" viewBox="0 0 1024 1024" version="1.1" xmlns="http://www.w3.org/2000/svg" xmlns:xlink="http://www.w3.org/1999/xlink">

        <path d="M701.961649,415.602494 L880.961649,527.492937 C890.316892,533.340771 896,543.595256 896,554.627831 L896,749.372169 C896,760.404744 890.316892,770.659229 880.961649,776.507063 L701.961649,888.397506 C691.584188,894.884314 678.415812,894.884314 668.038351,888.397506 L489.038351,776.507063 C479.683108,770.659229 474,760.404744 474,749.372169 L474,554.627831 C474,543.595256 479.683108,533.340771 489.038351,527.492937 L668.038351,415.602494 C678.415812,409.115686 691.584188,409.115686 701.961649,415.602494 Z M227.961649,415.602494 L406.961649,527.492937 C416.316892,533.340771 422,543.595256 422,554.627831 L422,749.372169 C422,760.404744 416.316892,770.659229 406.961649,776.507063 L227.961649,888.397506 C217.584188,894.884314 204.415812,894.884314 194.038351,888.397506 L15.0383505,776.507063 C5.68310832,770.659229 -3.67391101e-16,760.404744 0,749.372169 L0,554.627831 C-4.04456852e-15,543.595256 5.68310832,533.340771 15.0383505,527.492937 L194.038351,415.602494 C204.415812,409.115686 217.584188,409.115686 227.961649,415.602494 Z M465.961649,5.60249429 L644.961649,117.492937 C654.316892,123.340771 660,133.595256 660,144.627831 L660,339.372169 C660,350.404744 654.316892,360.659229 644.961649,366.507063 L465.961649,478.397506 C455.584188,484.884314 442.415812,484.884314 432.038351,478.397506 L253.038351,366.507063 C243.683108,360.659229 238,350.404744 238,339.372169 L238,144.627831 C238,133.595256 243.683108,123.340771 253.038351,117.492937 L432.038351,5.60249429 C442.415812,-0.884314347 455.584188,-0.884314347 465.961649,5.60249429 Z" id="path-1"></path>

    </svg>
