<svg width="1024px" height="1024px" viewBox="0 0 1024 1024" version="1.1" xmlns="http://www.w3.org/2000/svg" xmlns:xlink="http://www.w3.org/1999/xlink">

        <path d="M864,0 C881.496381,0 895.713128,14.0417829 895.995713,31.4708215 L896,32 L896,738 C896,755.496381 881.958217,769.713128 864.529179,769.995713 L864,770 L32,770 C14.5036191,770 0.286872383,755.958217 0.00428708574,738.529179 L0,738 L0,32 C2.14268868e-15,14.5036191 14.0417829,0.286872383 31.4708215,0.00428708574 L32,0 L864,0 Z M448.255285,474.960638 L118.295,706 L778.213,706 L448.255285,474.960638 Z M832,64 L64,64 L64,665.887 L429.527311,409.943768 C435.068187,406.064005 441.411303,404.184566 447.699031,404.154272 L448.253664,404.156394 C454.722699,404.075579 461.276985,405.949722 466.981073,409.943768 L466.981073,409.943768 L832,665.532 L832,64 Z" id="path-1"></path>

    </svg>
