<svg width="1024px" height="1024px" viewBox="0 0 1024 1024" version="1.1" xmlns="http://www.w3.org/2000/svg" xmlns:xlink="http://www.w3.org/1999/xlink">

        <path d="M446,0 C454.195785,1.6475467e-14 461.671939,3.08110797 467.333342,8.14820525 L685.12082,160.646377 C690.958316,164.733836 695.014031,170.417389 697.111173,176.694403 C698.885459,180.5701 699.908544,184.861416 699.994154,189.382134 L700,190 L700,796 C700,813.496381 685.958217,827.713128 668.529179,827.995713 L668,828 L32,828 C14.5036191,828 0.286872383,813.958217 0.00428708574,796.529179 L0,796 L0,32 C2.14268868e-15,14.5036191 14.0417829,0.286872383 31.4708215,0.00428708574 L32,0 L446,0 Z M435.516,64 L64,64 L64,764 L636,764 L636,204.382 L435.516,64 Z M476.572114,396.427886 C489.068891,408.924664 489.068891,429.185943 476.572114,441.68272 L395.254834,523 L476.572114,604.31728 C489.068891,616.814057 489.068891,637.075336 476.572114,649.572114 C464.075336,662.068891 443.814057,662.068891 431.31728,649.572114 L350,568.254834 L268.68272,649.572114 C256.185943,662.068891 235.924664,662.068891 223.427886,649.572114 C210.931109,637.075336 210.931109,616.814057 223.427886,604.31728 L304.745873,522.999293 L223.427886,441.68272 C210.931109,429.185943 210.931109,408.924664 223.427886,396.427886 C235.924664,383.931109 256.185943,383.931109 268.68272,396.427886 L350.000707,477.744459 L431.31728,396.427886 C443.814057,383.931109 464.075336,383.931109 476.572114,396.427886 Z M389,234 C406.673112,234 421,248.326888 421,266 C421,283.673112 406.673112,298 389,298 L389,298 L161,298 C143.326888,298 129,283.673112 129,266 C129,248.326888 143.326888,234 161,234 L161,234 Z M389,130 C406.673112,130 421,144.326888 421,162 C421,179.673112 406.673112,194 389,194 L389,194 L161,194 C143.326888,194 129,179.673112 129,162 C129,144.326888 143.326888,130 161,130 L161,130 Z" id="path-1"></path>

    </svg>
