<svg width="1024px" height="1024px" viewBox="0 0 1024 1024" version="1.1" xmlns="http://www.w3.org/2000/svg" xmlns:xlink="http://www.w3.org/1999/xlink">

        <path d="M411.723318,-3.97903932e-13 C416.301557,0.0151840597 420.79451,1.01856841 424.901254,2.88857189 L425.434701,3.13739006 L608.563795,80.8705809 C617.956908,83.107343 626.219624,89.5516599 630.420805,99.0192755 L630.631517,99.5047118 C632.39953,103.669889 633.217332,108.00011 633.182556,112.253723 C633.192504,113.471744 633.132512,114.696295 633.00029,115.921453 L633,361.593 L798.563795,431.870581 C807.956908,434.107343 816.219624,440.55166 820.420805,450.019275 L820.631517,450.504712 C822.39953,454.669889 823.217332,459.00011 823.182556,463.253723 C823.192504,464.471744 823.132512,465.696295 823.00029,466.921453 L823.000287,730.585498 C824.455957,744.073608 817.156997,757.488243 804.164192,763.253699 L803.678755,763.464412 L615.434698,843.369561 C611.185037,845.399264 606.500607,846.491107 601.723315,846.506951 C601.684489,846.506928 601.645497,846.50705 601.606512,846.5071 L601.577104,846.5071 L601.4593,846.506948 C596.682354,846.490954 591.998282,845.399122 587.748918,843.369561 L411.591,768.595 L235.434698,843.369561 C231.185037,845.399264 226.500607,846.491107 221.723315,846.506951 C221.684489,846.506928 221.645497,846.50705 221.606512,846.5071 L221.577104,846.5071 L221.4593,846.506948 C216.682354,846.490954 211.998282,845.399122 207.748918,843.369561 L19.5048606,763.464412 C7.15307818,758.221391 -0.195945928,746.129553 0.003976931,733.490935 L3.97903932e-13,733 L3.97903932e-13,463 C3.99760701e-13,447.83833 10.5443515,435.139426 24.6999041,431.836437 L190,361.671 L190,112 C190,96.8383302 200.544351,84.1394257 214.699904,80.8364367 L397.748921,3.13739008 C401.821228,1.19239414 406.292772,0.108610845 410.862693,0.00759588007 L411.459303,3.36101098e-06 L411.723318,-3.97903932e-13 Z M64,511.351 L64,712.824 L189.692,766.177 L189.692,564.705 L64,511.351 Z M444,511.351 L444,712.824 L569.692,766.177 L569.692,564.705 L444,511.351 Z M378.999,511.429 L253.692,564.619 L253.692,766.091 L378.999,712.902 L378.999,511.429 Z M758.999,511.429 L633.692,564.619 L633.692,766.091 L758.999,712.902 L758.999,511.429 Z M221.591003,417.789951 L114.484,463.253 L221.591003,508.716851 L328.698,463.253 L221.591003,417.789951 Z M601.591003,417.789951 L494.484,463.253 L601.591003,508.716851 L708.698,463.253 L601.591003,417.789951 Z M254,160.351 L254,361.824 L379.692,415.177 L379.692,213.705 L254,160.351 Z M568.999,160.429 L443.692,213.619 L443.692,415.091 L568.999,361.902 L568.999,160.429 Z M411.591003,66.789951 L304.484,112.253 L411.591003,157.716851 L518.698,112.253 L411.591003,66.789951 Z" id="path-1"></path>

    </svg>
