<svg width="1024px" height="1024px" viewBox="0 0 1024 1024" version="1.1" xmlns="http://www.w3.org/2000/svg" xmlns:xlink="http://www.w3.org/1999/xlink">

        <path d="M654,558 C738.499567,558 807,626.500433 807,711 C807,741.153137 798.277332,769.268986 783.217631,792.96191 L830.63961,840.384776 C843.136388,852.881554 843.136388,873.142833 830.63961,885.63961 C818.142833,898.136388 797.881554,898.136388 785.384776,885.63961 L738.388211,838.643064 C714.198538,854.667664 685.189111,864 654,864 C569.500433,864 501,795.499567 501,711 C501,626.500433 569.500433,558 654,558 Z M364,0 C575.724117,0 727.493762,80.9898561 727.998736,180.999294 L728,181 L727.999979,181.43489 C727.999993,181.456593 728,181.478296 728,181.5 L727.999,181.565 L727.999,510.906 L727.932708,510.90796 C727.977339,511.599554 728,512.297131 728,513 C728,530.673112 713.673112,545 696,545 C678.326888,545 664,530.673112 664,513 C664,512.576182 664.008239,512.154288 664.024566,511.73447 L663.999,511.734 L664.000561,463.513358 C600.215839,509.801166 493.285586,540 364,540 C234.713943,540 127.783382,509.800946 63.9987416,463.512852 L64,536 L64.0092648,536 L64.0369109,537.443077 C66.4707238,601.440328 189.036191,653 364,653 C388.389403,653 411.760629,651.998119 433.930208,650.100327 L434.045135,650.241979 C435.341028,650.082252 436.660909,650 438,650 C455.673112,650 470,664.326888 470,682 C470,699.673112 455.673112,714 438,714 C436.945072,714 435.902067,713.948953 434.87332,713.849194 C412.144167,715.917944 388.472591,717 364,717 C234.713943,717 127.783382,686.800946 63.9987416,640.512852 L64,713 L64.008,713 L64.0356461,714.443077 C66.4694591,778.440328 189.034927,830 363.998735,830 C387.208066,830 409.495364,829.092725 430.702525,827.369495 C433.045385,826.821002 435.488916,826.531768 438,826.531768 C455.673112,826.531768 470,840.858656 470,858.531768 C470,876.20488 455.673112,890.531768 438,890.531768 L438.294765,890.529972 C414.521951,892.806365 389.70215,894 363.998735,894 C155.815062,894 5.5975126,815.696117 0.151796496,718.001525 L-7.27595761e-11,718 L-7.27595761e-11,181 L0.00699999993,181 L0.0454850339,178.498566 C3.0444686,79.6432376 154.04343,0 364,0 Z M654,622 C604.846657,622 565,661.846657 565,711 C565,760.153343 604.846657,800 654,800 C703.153343,800 743,760.153343 743,711 C743,661.846657 703.153343,622 654,622 Z M664.000561,286.513358 C600.215839,332.801166 493.285586,363 364,363 C234.714414,363 127.784161,332.801166 63.9994386,286.513358 L64,359 L64.0092648,359 L64.0369109,360.443077 C66.4707238,424.440328 189.036191,476 364,476 C540.276331,476 663.36522,423.663859 663.997552,359.000734 L663.999,359 L664.000561,286.513358 Z M364,64 C187.26888,64 64,116.606542 64,181.5 C64,246.393458 187.26888,299 364,299 C540.682912,299 663.932747,246.422154 663.999972,181.553101 L663.999,181.447 L663.963089,179.556923 C661.529276,115.559672 538.963809,64 364,64 Z" id="path-1"></path>

    </svg>
