<svg width="1024px" height="1024px" viewBox="0 0 1024 1024" version="1.1" xmlns="http://www.w3.org/2000/svg" xmlns:xlink="http://www.w3.org/1999/xlink">

        <path d="M32,0 C49.4963809,0 63.7131276,14.0417829 63.9957129,31.4708215 L64,32 L64,766 L862,766 C879.496381,766 893.713128,780.041783 893.995713,797.470821 L894,798 C894,815.496381 879.958217,829.713128 862.529179,829.995713 L862,830 L32,830 C14.5036191,830 0.286872383,815.958217 0.00428708574,798.529179 L0,798 L0,32 C2.164332e-15,14.326888 14.326888,-1.13686838e-13 32,0 Z M290.402895,235.66994 C330.319041,203.346483 388.880809,209.501573 421.204266,249.417718 C446.893105,281.140793 448.278266,324.640748 427.727799,357.387076 L427.727799,357.387076 L487.203545,430.833898 C510.104852,421.886789 535.311415,421.566339 558.13138,429.379416 L558.13138,429.379416 L596.145682,377.057081 C570.755414,337.669097 578.603063,284.651831 615.854312,254.486364 C655.770458,222.162907 714.332226,228.317997 746.655683,268.234142 C778.97914,308.150287 772.82405,366.712056 732.907905,399.035513 C707.961828,419.236448 675.733187,424.408524 647.177982,415.703263 L647.177982,415.703263 L609.211316,467.961589 C639.840818,511.868136 631.746449,572.635449 589.490796,606.853402 C545.282592,642.6525 480.423859,635.835572 444.624762,591.627368 C416.023881,556.308223 414.624171,507.808154 437.761304,471.476532 L437.761304,471.476532 L377.122286,396.594483 C360.688927,401.815997 343.216541,402.300638 326.729819,398.26121 L326.729819,398.26121 L292.314731,445.628548 C320.218153,485.29517 312.96946,540.362598 274.719655,571.336679 C234.80351,603.660136 176.241742,597.505046 143.918285,557.588901 C111.594827,517.672756 117.749917,459.110987 157.666063,426.78753 C181.556589,407.441364 212.126418,401.879122 239.752289,409.08936 L239.752289,409.08936 L273.605177,362.494153 C244.770673,322.750342 251.793025,266.935597 290.402895,235.66994 Z M554.979488,502.263873 C541.42449,485.524844 516.866329,482.943677 500.1273,496.498676 C483.388272,510.053674 480.807105,534.611835 494.362103,551.350863 C507.917101,568.089892 532.475262,570.671059 549.214291,557.116061 C565.95332,543.561062 568.534486,519.002901 554.979488,502.263873 Z M238.730092,480.811813 C228.650734,468.364843 210.389538,466.445514 197.942568,476.524872 C185.495598,486.604229 183.576268,504.865426 193.655626,517.312396 C203.734984,529.759366 221.99618,531.678695 234.44315,521.599338 C246.89012,511.51998 248.809449,493.258783 238.730092,480.811813 Z M696.918342,308.510647 C686.838984,296.063677 668.577788,294.144348 656.130817,304.223705 C643.683847,314.303063 641.764518,332.56426 651.843876,345.01123 C661.923234,357.4582 680.18443,359.377529 692.6314,349.298171 C705.07837,339.218814 706.997699,320.957617 696.918342,308.510647 Z M371.466925,289.694223 C361.387567,277.247253 343.12637,275.327924 330.6794,285.407282 C318.23243,295.486639 316.313101,313.747836 326.392459,326.194806 C336.471816,338.641776 354.733013,340.561105 367.179983,330.481748 C379.626953,320.40239 381.546282,302.141193 371.466925,289.694223 Z" id="path-1"></path>

    </svg>
