<svg width="1024px" height="1024px" viewBox="0 0 1024 1024" version="1.1" xmlns="http://www.w3.org/2000/svg" xmlns:xlink="http://www.w3.org/1999/xlink">

        <path d="M448,0 C695.423568,0 896,200.576432 896,448 C896,695.423568 695.423568,896 448,896 C200.576432,896 0,695.423568 0,448 C0,200.576432 200.576432,0 448,0 Z M448,64 C235.922656,64 64,235.922656 64,448 C64,660.077344 235.922656,832 448,832 C660.077344,832 832,660.077344 832,448 C832,235.922656 660.077344,64 448,64 Z M326.416707,399.625887 C343.836649,398.99592 358.603235,412.458293 359.518925,429.930695 C360.434615,447.403098 347.156123,462.335251 329.765759,463.529615 L329.765759,463.529615 L329.23753,463.561591 L314.590726,464.32869 L216.85372,562.065697 L334.233445,679.445422 L431.970452,581.708416 L432.738309,567.06237 L432.770285,566.534141 C433.964649,549.143777 448.896802,535.865285 466.369205,536.780975 C484.018096,537.705914 497.575539,552.762979 496.650599,570.411871 L496.650599,570.411871 L495.237528,597.374868 L495.205183,597.908463 C494.618817,606.425603 490.737166,613.956096 484.875883,619.315324 L484.875883,619.315324 L356.861241,747.328052 L356.484024,747.699207 C343.960015,759.82358 323.978217,759.699862 311.606407,747.328052 L311.606407,747.328052 L148.971848,584.693493 L148.600693,584.316276 C136.47632,571.792266 136.600038,551.810468 148.971848,539.438659 L148.971848,539.438659 L276.983901,411.424755 L277.32892,411.053306 C282.664072,405.399368 290.05515,401.668638 298.391415,401.094718 L298.391415,401.094718 L298.925032,401.062372 L325.888029,399.649301 Z M512.777715,338.219924 C525.274493,325.723146 545.535772,325.723146 558.032549,338.219924 C570.529327,350.716701 570.529327,370.97798 558.032549,383.474758 L558.032549,383.474758 L384.084281,557.423026 C371.587504,569.919803 351.326224,569.919803 338.829447,557.423026 C326.33267,544.926248 326.33267,524.664969 338.829447,512.168192 L338.829447,512.168192 Z M539.671487,148.73902 C552.168264,136.242242 572.429543,136.242242 584.926321,148.73902 L584.926321,148.73902 L747.56088,311.37358 C760.057658,323.870357 760.057658,344.131636 747.56088,356.628413 L747.56088,356.628413 L619.548151,484.643055 C614.077273,490.626448 606.343718,494.546865 597.607696,495.004701 L597.607696,495.004701 L570.644699,496.417771 C552.995807,497.342711 537.938742,483.785268 537.013803,466.136377 C536.088864,448.487485 549.646306,433.43042 567.295198,432.505481 L567.295198,432.505481 L581.941244,431.737624 L679.67825,334.000617 L562.298525,216.620892 L464.561518,314.357898 L463.794419,329.004703 L463.762443,329.532931 C462.568079,346.923295 447.635926,360.201787 430.163523,359.286097 C412.514632,358.361158 398.95719,343.304093 399.882129,325.655201 L399.882129,325.655201 L401.2952,298.692204 L401.327546,298.158587 C401.913943,289.641099 405.795893,282.110339 411.657583,276.751073 L411.657583,276.751073 Z" id="path-1"></path>

    </svg>
