<svg width="1024px" height="1024px" viewBox="0 0 1024 1024" version="1.1" xmlns="http://www.w3.org/2000/svg" xmlns:xlink="http://www.w3.org/1999/xlink">

        <path d="M512,64 C512.182432,64 512.364508,64.0015266 512.546215,64.0045678 L512,64 C759.423568,64 960,264.576432 960,512 C960,759.423568 759.423568,960 512,960 C388.782457,960 277.183306,910.255753 196.189315,829.754029 C195.48911,829.154728 194.802867,828.525738 194.138564,827.861436 C193.411621,827.134493 192.726965,826.381276 192.084595,825.604843 L192.076609,825.613055 C112.949254,744.903578 64.1205733,634.379955 64.000223,512.451843 C64.0010413,512.301102 64,512.150672 64,512 C64,511.817233 64.0015322,511.634823 64.0045845,511.452783 L64,512 C64,388.782457 113.744247,277.183306 194.245971,196.189315 C194.845272,195.48911 195.474262,194.802867 196.138564,194.138564 C196.865507,193.411621 197.618724,192.726965 198.395157,192.084595 L198.386945,192.076609 C279.074998,112.970258 389.56137,64.1464982 511.451063,64.0003291 C511.634823,64.0015322 511.817233,64 512,64 Z M544.002017,129.314527 L544,190 C544,207.673112 529.673112,222 512,222 C494.326888,222 480,207.673112 480,190 L479.998985,129.314445 C398.502572,136.037978 324.222205,168.210345 265.122962,217.866469 L307.861436,260.606602 C320.358213,273.103379 320.358213,293.364658 307.861436,305.861436 C295.364658,318.358213 275.103379,318.358213 262.606602,305.861436 L219.700656,262.956193 C169.003022,322.401969 136.120407,397.503445 129.314445,479.998985 L190,480 C207.673112,480 222,494.326888 222,512 C222,529.673112 207.673112,544 190,544 L129.314527,544.002017 C136.038241,625.498037 168.210549,699.778037 217.866469,758.877038 L260.606602,716.138564 C273.103379,703.641787 293.364658,703.641787 305.861436,716.138564 C318.358213,728.635342 318.358213,748.896621 305.861436,761.393398 L305.861436,761.393398 L262.956193,804.299344 C322.401969,854.996978 397.503445,887.879593 479.998985,894.685555 L480,834 C480,816.326888 494.326888,802 512,802 C529.673112,802 544,816.326888 544,834 L544.002017,894.685473 C626.247497,887.899926 701.143626,855.195568 760.503652,804.759153 L717.138564,761.393398 C704.641787,748.896621 704.641787,728.635342 717.138564,716.138564 C729.635342,703.641787 749.896621,703.641787 762.393398,716.138564 L805.67667,759.419767 C855.59209,700.233089 887.94116,625.747703 894.685473,544.002017 L834,544 C816.326888,544 802,529.673112 802,512 C802,494.326888 816.326888,480 834,480 L894.685555,479.998985 C879.294805,293.446624 730.554243,144.705755 544.002017,129.314527 Z M727.357945,296.093321 C739.854723,308.590099 739.854723,328.851378 727.357945,341.348155 L604.200748,464.507143 C623.412929,503.058084 616.951109,551.145686 584.815286,583.281509 C544.591284,623.505511 479.375291,623.505511 439.151289,583.281509 C398.927287,543.057507 398.927287,477.841514 439.151289,437.617512 C471.663775,405.105026 520.504174,398.871918 559.277248,418.918188 L682.103111,296.093321 C694.599889,283.596544 714.861168,283.596544 727.357945,296.093321 Z M484.406123,482.872346 C469.175676,498.102794 469.175676,522.796228 484.406123,538.026675 C499.63657,553.257123 524.330004,553.257123 539.560452,538.026675 C554.790899,522.796228 554.790899,498.102794 539.560452,482.872346 C524.330004,467.641899 499.63657,467.641899 484.406123,482.872346 Z" id="path-1"></path>

    </svg>
