<?xml version="1.0" encoding="UTF-8"?>
<svg width="1024px" height="1024px" viewBox="0 0 1024 1024" version="1.1" xmlns="http://www.w3.org/2000/svg" xmlns:xlink="http://www.w3.org/1999/xlink">
    <title>icon-JDBC</title>
    <defs>
        <path d="M-0.00495757727,524.948827 C58.1601098,567.929387 152.567423,599.410295 268.992864,610.570809 L268.995042,800 C268.995042,813.174572 276.956614,824.489619 288.330935,829.396318 C118.662021,817.437396 2.67022742,765.612716 0.045485034,703.166325 L5.16877208e-09,701 L-0.00495757727,524.948827 Z M108,651 C90.326888,651 76,665.326888 76,683 C76,700.673112 90.326888,715 108,715 C125.673112,715 140,700.673112 140,683 C140,665.326888 125.673112,651 108,651 Z M-0.00495757727,235.948827 C73.2799747,290.102077 204.098304,326 364,326 C523.900871,326 654.718676,290.102448 728.003824,235.949665 L728,420 C728,423.364871 727.67648,426.70011 727.03796,430.001197 L300.995042,430 C283.32193,430 268.995042,444.326888 268.995042,462 L268.995042,462 L268.99069,546.914458 C108.589822,532.599938 2.53397779,482.30944 0.0447851736,422.166325 L1.01181286e-11,420 L-0.00495757727,235.948827 Z M108,363 C90.326888,363 76,377.326888 76,395 C76,412.673112 90.326888,427 108,427 C125.673112,427 140,412.673112 140,395 C140,377.326888 125.673112,363 108,363 Z M364,0 C576.077344,0 728,58.6506978 728,131 C728,203.349302 578.433759,262 364,262 C151.710579,262 2.99781157,204.516451 0.0447851736,133.166325 L1.01181286e-11,131 L0.045485034,128.833675 C3.0444686,57.4835489 154.04343,0 364,0 Z" id="path-1"></path>
    </defs>
    <g id="icon-JDBC" stroke="none" stroke-width="1" fill="none" fill-rule="evenodd">
        <g id="数据库" transform="translate(98.000000, 97.000000)">
            <g id="00-color/中性色/323232">
                <mask id="mask-2" fill="white">
                    <use xlink:href="#path-1"></use>
                </mask>
                <use id="形状结合" fill="#D8D8D8" xlink:href="#path-1"></use>
                <g id="编组" mask="url(#mask-2)">
                    <g transform="translate(-148.000000, -97.000000)" id="00-color/中性色/323232">
                        <rect id="矩形" fill="currentColor" x="0" y="0" width="1024" height="1024"></rect>
                    </g>
                </g>
            </g>
            <path d="M347.049536,719 C352.770898,719 357.936017,718.321871 362.544892,716.965612 C367.153767,715.609354 371.047472,713.415406 374.226006,710.383769 C377.404541,707.352132 379.828173,703.323246 381.496904,698.297111 C383.165635,693.270977 384,687.167813 384,679.98762 L384,557.445667 C384,554.25447 382.80805,551.382393 380.424149,548.829436 C378.040248,546.276479 374.067079,545 368.504644,545 C362.942208,545 358.96904,546.356259 356.585139,549.068776 C354.201238,551.781293 353.009288,554.57359 353.009288,557.445667 L353.009288,666.345254 C353.009288,671.13205 352.969556,675.160935 352.890093,678.431912 C352.81063,681.702889 352.453044,684.295736 351.817337,686.210454 C351.181631,688.125172 350.188338,689.52132 348.837461,690.3989 C347.486584,691.276479 345.539732,691.715268 342.996904,691.715268 C339.818369,691.715268 337.037152,690.718019 334.653251,688.723521 C332.26935,686.729023 329.964912,684.854195 327.739938,683.099037 C325.673891,681.503439 323.647575,680.66575 321.660991,680.58597 C319.674407,680.50619 317.807018,680.78542 316.058824,681.423659 C314.31063,682.061898 312.800826,682.939477 311.529412,684.056396 C310.257998,685.173315 309.383901,686.130674 308.907121,686.928473 C307.317853,689.481431 306.721878,692.034388 307.119195,694.587345 C307.516512,697.140303 308.509804,699.5337 310.099071,701.767538 C311.688338,704.001376 313.595459,706.075653 315.820433,707.990371 C318.045408,709.905089 320.270382,711.500688 322.495356,712.777166 C326.150671,715.011004 329.885449,716.606602 333.69969,717.563961 C337.513932,718.52132 341.96388,719 347.049536,719 Z M469.052045,714 C480.789343,714 491.019827,712.015304 499.743494,708.045911 C508.467162,704.076518 515.763321,698.439981 521.63197,691.136298 C527.50062,683.832616 531.862454,675.060258 534.717472,664.819225 C537.572491,654.578192 539,643.186035 539,630.642755 C539,618.893352 537.612144,607.977523 534.836431,597.895265 C532.060719,587.813008 527.778191,579.080344 521.988848,571.697274 C516.199504,564.314204 508.82404,558.51889 499.862454,554.311334 C490.900867,550.103778 480.234201,548 467.862454,548 L423.847584,548 C418.137546,548 414.568773,548.91296 413.141264,550.738881 C411.713755,552.564802 411,555.224295 411,558.71736 L411,703.28264 C411,706.775705 411.753408,709.435198 413.260223,711.261119 C414.767038,713.08704 418.296159,714 423.847584,714 L469.052045,714 Z M442,689 L442,572 L463.129496,572 C471.834532,572 479.035971,573.276074 484.733813,575.828221 C490.431655,578.380368 495.021583,582.088957 498.503597,586.953988 C501.985612,591.819018 504.438849,597.840491 505.863309,605.018405 C507.28777,612.196319 508,620.331288 508,629.423313 C508,669.141104 495.021583,689 469.064748,689 L442,689 Z M620.485356,714 C637.338912,714 650.138075,709.990913 658.882845,701.97274 C667.627615,693.954567 672,682.721186 672,668.272597 C672,661.12769 670.926778,654.975132 668.780335,649.814921 C666.633891,644.654711 663.851464,640.367767 660.433054,636.954089 C657.014644,633.540411 653.119247,630.880918 648.746862,628.97561 C644.374477,627.070301 639.962343,625.720708 635.51046,624.926829 C639.803347,624.132951 643.817992,622.823051 647.554393,620.997131 C651.290795,619.17121 654.550209,616.789574 657.332636,613.852224 C660.115063,610.914873 662.301255,607.382114 663.891213,603.253945 C665.481172,599.125777 666.276151,594.283118 666.276151,588.725968 C666.276151,583.48637 665.441423,578.405548 663.771967,573.483501 C662.10251,568.561454 659.240586,564.234816 655.186192,560.503587 C651.131799,556.772358 645.76569,553.755619 639.087866,551.453372 C632.410042,549.151124 624.142259,548 614.284519,548 L570.878661,548 C566.74477,548 563.564854,549.11143 561.338912,551.33429 C559.112971,553.55715 558,556.018173 558,558.71736 L558,703.28264 C558,705.981827 559.073222,708.44285 561.219665,710.66571 C563.366109,712.88857 566.585774,714 570.878661,714 L620.485356,714 Z M589,611 L589,574 L613.825641,574 C617.842735,574 621.257265,574.513889 624.069231,575.541667 C626.881197,576.569444 629.17094,577.952991 630.938462,579.692308 C632.705983,581.431624 633.991453,583.36859 634.794872,585.503205 C635.598291,587.637821 636,589.891026 636,592.262821 C636,597.638889 634.352991,602.105769 631.058974,605.663462 C627.764957,609.221154 622.020513,611 613.825641,611 L589,611 Z M589,687 L589,639 L608.467666,639 C613.690698,639 618.320204,639.361809 622.356184,640.085427 C626.392164,640.809045 629.795048,642.095477 632.564838,643.944724 C635.334628,645.79397 637.431755,648.286432 638.856218,651.422111 C640.280681,654.557789 640.992913,658.61809 640.992913,663.603015 C641.151187,671.80402 638.658376,677.753769 633.51448,681.452261 C628.370585,685.150754 621.287836,687 612.266235,687 L589,687 Z M768.560056,719 C776.859315,719 784.320667,717.885572 790.944114,715.656716 C797.567561,713.427861 803.1935,710.761194 807.821933,707.656716 C812.450366,704.552239 816.041391,701.368159 818.595009,698.104478 C821.148627,694.840796 822.585037,692.253731 822.904239,690.343284 C823.223442,687.636816 822.744638,685.00995 821.467829,682.462687 C820.19102,679.915423 817.717203,677.925373 814.046377,676.492537 C810.21595,674.741294 806.305722,675.298507 802.315694,678.164179 C800.240879,679.756219 798.166065,681.308458 796.09125,682.820896 C794.016436,684.333333 791.702219,685.726368 789.148601,687 C786.594983,688.273632 783.642362,689.348259 780.290739,690.223881 C776.939115,691.099502 773.028888,691.616915 768.560056,691.776119 C759.941595,691.935323 752.360542,690.303483 745.816896,686.880597 C739.273249,683.457711 733.806911,678.880597 729.41788,673.149254 C725.028849,667.41791 721.717126,660.850746 719.48271,653.447761 C717.248294,646.044776 716.131086,638.442786 716.131086,630.641791 C716.131086,622.840796 717.128593,615.318408 719.123607,608.074627 C721.118621,600.830846 724.071242,594.422886 727.98147,588.850746 C731.891697,583.278607 736.759532,578.781095 742.584973,575.358209 C748.410414,571.935323 755.073761,570.223881 762.575014,570.223881 C769.278261,570.223881 774.904201,571.218905 779.452833,573.208955 C784.001465,575.199005 787.951593,577.268657 791.303216,579.41791 C794.65484,581.567164 797.687261,583.358209 800.400481,584.791045 C803.1137,586.223881 805.906719,586.303483 808.77954,585.029851 C810.535152,584.393035 812.051363,583.517413 813.328172,582.402985 C814.604981,581.288557 815.482787,580.333333 815.96159,579.537313 C816.280793,578.900498 816.719696,577.865672 817.2783,576.432836 C817.836904,575 817.956604,573.248756 817.637402,571.179104 C817.3182,568.791045 815.801989,565.965174 813.08877,562.701493 C810.375551,559.437811 806.624925,556.333333 801.836891,553.38806 C797.048857,550.442786 791.383017,547.975124 784.839371,545.985075 C778.295725,543.995025 771.113674,543 763.293219,543 C752.280741,543 742.026369,544.99005 732.530102,548.970149 C723.033835,552.950249 714.814377,558.681592 707.871728,566.164179 C700.929079,573.646766 695.42284,582.800995 691.353011,593.626866 C687.283183,604.452736 685.168468,616.791045 685.008867,630.641791 C684.849266,644.492537 686.84428,656.870647 690.993909,667.776119 C695.143538,678.681592 700.968979,687.955224 708.470232,695.597015 C715.971485,703.238806 724.869248,709.049751 735.16352,713.029851 C745.457793,717.00995 756.589972,719 768.560056,719 Z" id="JDBC" stroke="currentColor" stroke-width="11" fill="currentColor" fill-rule="nonzero"></path>
        </g>
    </g>
</svg>
