<svg width="1024px" height="1024px" viewBox="0 0 1024 1024" version="1.1" xmlns="http://www.w3.org/2000/svg" xmlns:xlink="http://www.w3.org/1999/xlink">

        <path d="M798,0 C815.673112,-3.24649801e-15 830,14.326888 830,32 L830,858 C830,875.673112 815.673112,890 798,890 L128,890 C110.326888,890 96,875.673112 96,858 L96,660 L32,660 C14.326888,660 -1.38838168e-15,645.673112 0,628 L0,262 C-5.71704568e-15,244.326888 14.326888,230 32,230 L96,230 L96,32 C96,14.326888 110.326888,3.24649801e-15 128,0 L798,0 Z M766,64 L160,64 L160,230 L398,230 C415.673112,230 430,244.326888 430,262 L430,628 C430,645.673112 415.673112,660 398,660 L160,660 L160,826 L766,826 L766,64 Z M692,562.708586 C709.673112,562.708586 724,577.035474 724,594.708586 C724,612.381698 709.673112,626.708586 692,626.708586 L511,626.708586 C493.326888,626.708586 479,612.381698 479,594.708586 C479,577.035474 493.326888,562.708586 511,562.708586 L692,562.708586 Z M109.64109,339.64109 C97.26928,352.012899 97.1455619,371.994697 109.269935,384.518706 L109.64109,384.895924 L169.745873,444.999293 L109.64109,505.104076 C97.1443123,517.600854 97.1443123,537.862133 109.64109,550.35891 C122.012899,562.73072 141.994697,562.854438 154.518706,550.730065 L154.895924,550.35891 L215,490.254834 L275.104076,550.35891 C287.600854,562.855688 307.862133,562.855688 320.35891,550.35891 C332.73072,537.987101 332.854438,518.005303 320.730065,505.481294 L320.35891,505.104076 L260.254834,445 L320.35891,384.895924 C332.855688,372.399146 332.855688,352.137867 320.35891,339.64109 C307.987101,327.26928 288.005303,327.145562 275.481294,339.269935 L275.104076,339.64109 L215.000707,399.744459 L154.895924,339.64109 C142.399146,327.144312 122.137867,327.144312 109.64109,339.64109 Z M692,412.708586 C709.673112,412.708586 724,427.035474 724,444.708586 C724,462.381698 709.673112,476.708586 692,476.708586 L511,476.708586 C493.326888,476.708586 479,462.381698 479,444.708586 C479,427.035474 493.326888,412.708586 511,412.708586 L692,412.708586 Z M692,252.708586 C709.673112,252.708586 724,267.035474 724,284.708586 C724,302.381698 709.673112,316.708586 692,316.708586 L511,316.708586 C493.326888,316.708586 479,302.381698 479,284.708586 C479,267.035474 493.326888,252.708586 511,252.708586 L692,252.708586 Z" id="path-1"></path>

    </svg>
