<svg width="1024px" height="1024px" viewBox="0 0 1024 1024" version="1.1" xmlns="http://www.w3.org/2000/svg" xmlns:xlink="http://www.w3.org/1999/xlink">

        <path d="M864,0 C881.673112,0 896,14.326888 896,32 C896,49.673112 881.673112,64 864,64 L864,64 L822,64 L822,592 C822,609.496381 807.958217,623.713128 790.529179,623.995713 L790,624 L641.729,624 L762.626102,744.897687 C775.12288,757.394464 775.12288,777.655744 762.626102,790.152521 C750.129325,802.649298 729.868046,802.649298 717.371268,790.152521 L553.322495,626.103748 C552.643786,625.425038 552.001937,624.723426 551.39695,624.001398 L344.762708,624.001398 C344.269115,624.590482 343.750984,625.165976 343.208317,625.72653 L342.837163,626.103748 L178.78839,790.152521 C166.291612,802.649298 146.030333,802.649298 133.533556,790.152521 C121.161746,777.780711 121.038028,757.798913 133.162401,745.274904 L133.533556,744.897687 L254.43,624 L106,624 C88.5036191,624 74.2868724,609.958217 74.0042871,592.529179 L74,592 L74,592 L74,64 L32,64 C14.5036191,64 0.286872383,49.9582171 0.00428708574,32.5291785 L0,32 C2.164332e-15,14.326888 14.326888,0 32,0 L32,0 Z M758,560 L758,64 L138,64 L138,560 L758,560 Z M697.487986,214.372587 C709.984763,226.869364 709.984763,247.130644 697.487986,259.627421 L546.874242,410.241165 C540.687467,416.427941 532.597659,419.551831 524.489086,419.612837 L523.992635,419.612745 C515.883474,419.677002 507.75482,416.678134 501.490899,410.616135 L501.10974,410.241165 L372.868,282 L244.627417,410.241165 C232.13064,422.737943 211.86936,422.737943 199.372583,410.241165 C186.875806,397.744388 186.875806,377.483109 199.372583,364.986331 L349.986327,214.372587 C356.299486,208.059428 364.594221,204.93557 372.868416,205.001011 C380.977105,204.936751 389.105749,207.935618 395.36967,213.997617 L395.750829,214.372587 L523.992,342.614 L652.233152,214.372587 C664.72993,201.87581 684.991209,201.87581 697.487986,214.372587 Z" id="path-1"></path>

    </svg>
