<svg width="1024px" height="1024px" viewBox="0 0 1024 1024" version="1.1" xmlns="http://www.w3.org/2000/svg" xmlns:xlink="http://www.w3.org/1999/xlink">

        <path d="M461,0 C478.673112,0 493,14.326888 493,32 C493,49.673112 478.673112,64 461,64 L461,64 L64,64 L64,766 L766,766 L766,368 C766,350.503619 780.041783,336.286872 797.470821,336.004287 L798,336 C815.673112,336 830,350.326888 830,368 L830,368 L830,798 C830,815.673112 815.673112,830 798,830 L798,830 L32,830 C14.326888,830 -2.164332e-15,815.673112 0,798 L0,798 L0,32 C2.164332e-15,14.326888 14.326888,-1.13686838e-13 32,0 L32,0 Z M673.931092,9.04901621 C686.455101,-3.07535717 706.436899,-2.95163907 718.808708,9.42017049 L718.808708,9.42017049 L820.632085,111.243547 L821.003239,111.620764 C833.127613,124.144773 833.003895,144.126571 820.632085,156.498381 L820.632085,156.498381 L413.338579,563.791887 L413.235503,563.894312 C409.378233,567.793208 404.466614,570.751316 398.786655,572.273257 L398.786655,572.273257 L260.212732,609.404345 C257.601963,610.153803 254.879549,610.575407 252.105821,610.633472 L252.105821,610.633472 L251.946277,610.637337 C251.846091,610.638963 251.745839,610.640115 251.645524,610.640792 L251.645524,610.640792 L251.517835,610.641262 L251.240326,610.640979 L251.176728,610.640792 C251.076413,610.640115 250.976162,610.638963 250.875816,610.636659 C250.822703,610.63573 250.769574,610.634668 250.716476,610.634349 C246.917168,610.553614 243.214217,609.792473 239.762687,608.441175 C235.557759,606.803912 231.862287,604.343444 228.814548,601.299248 C225.732219,598.232066 223.24285,594.50333 221.593679,590.254929 C220.246753,586.807236 219.489211,583.109437 219.410947,579.315705 C219.409946,579.270418 219.409041,579.225141 219.407544,579.179823 C219.403211,578.918415 219.402101,578.65656 219.403936,578.394949 C219.424111,575.463577 219.849865,572.58567 220.640354,569.831967 L220.640354,569.831967 L257.771442,431.258044 L257.912545,430.748007 C259.531347,425.07601 262.590912,420.1916 266.585637,416.386685 L266.585637,416.386685 L673.553874,9.42017049 Z M317.285901,456.426915 L296.66596,533.379224 L373.618977,512.759991 L317.285901,456.426915 Z M622.641479,150.842234 L362.426184,411.057529 L418.994726,467.626072 L679.210022,207.410776 L622.641479,150.842234 Z M696.180584,77.3031286 L667.896313,105.5874 L724.464856,162.155942 L752.749127,133.871671 L696.180584,77.3031286 Z" id="path-1"></path>

    </svg>
