<svg width="1024px" height="1024px" viewBox="0 0 1024 1024" version="1.1" xmlns="http://www.w3.org/2000/svg"
  xmlns:xlink="http://www.w3.org/1999/xlink">
  <path
    d="M373,664 C390.673112,664 405,678.326888 405,696 L405,928 C405,945.673112 390.673112,960 373,960 C355.326888,960 341,945.673112 341,928 L341,696 C341,678.326888 355.326888,664 373,664 Z M651,664 C668.673112,664 683,678.326888 683,696 L683,928 C683,945.673112 668.673112,960 651,960 C633.326888,960 619,945.673112 619,928 L619,696 C619,678.326888 633.326888,664 651,664 Z M235,264 C327.663834,264 403.011551,338.139115 404.961286,430.335483 C404.985723,430.887529 405,431.442097 405,432 C405,432.248497 404.997168,432.496332 404.991533,432.743475 C404.99848,433.161338 405,433.580491 405,434 L404.938514,434.000036 C403.906103,450.741479 390.001398,464 373,464 C355.998602,464 342.093897,450.741479 341.061486,434.000036 L341,434 C341,375.457817 293.542183,328 235,328 C176.457817,328 129,375.457817 129,434 C129,492.208229 175.917914,539.458192 233.999226,539.995374 L234,540 L850.838043,539.999912 L780.991832,470.154329 C768.495055,457.657552 768.495055,437.396272 780.991832,424.899495 C793.48861,412.402718 813.749889,412.402718 826.246666,424.899495 L947.737691,546.389753 C948.764162,547.191465 949.752986,548.064558 950.69746,549.009032 C956.989371,555.300943 960.113414,563.561115 960.069588,571.807577 L960.070043,571.977705 L960.070043,572 L960.069824,572.096553 L960.067,572.341077 L960.068,572.301077 L960.068262,572.341138 C960.067076,572.454709 960.065298,572.568139 960.062931,572.681424 C960.059996,572.789251 960.057091,572.897302 960.053641,573.005339 C959.749416,582.892506 954.959254,591.650214 947.650235,597.31232 L826.246666,718.714659 C813.749889,731.211437 793.48861,731.211437 780.991832,718.714659 C768.620023,706.34285 768.496305,686.361052 780.620678,673.837042 L780.991832,673.459825 L850.452043,603.999912 L234.070043,604 L234.07,603.992077 L232.188739,603.977225 C139.596972,602.47599 65,526.949523 65,434 C65,340.111593 141.111593,264 235,264 Z M651.359519,64.8072962 L651.504,64.8080768 L651.262966,64.8070771 L651.769051,64.8114122 C651.632549,64.809172 651.496035,64.8078 651.359519,64.8072962 L651.262966,64.8070771 C651.49067,64.8070771 651.71782,64.8094554 651.94439,64.8141885 C652.052217,64.8171236 652.160268,64.8200292 652.268305,64.8234789 C662.155472,65.1277041 670.91318,69.9178658 676.575285,77.2268851 L830.504537,231.157365 C843.001314,243.654143 843.001314,263.915422 830.504537,276.412199 C818.132727,288.784009 798.150929,288.907727 785.62692,276.783354 L785.249703,276.412199 L683.262966,174.425077 L683.262966,432.807077 C683.262966,450.480189 668.936078,464.807077 651.262966,464.807077 C633.589854,464.807077 619.262966,450.480189 619.262966,432.807077 L619.262966,174.039077 L516.890383,276.412199 C504.393605,288.908977 484.132326,288.908977 471.635549,276.412199 C459.138771,263.915422 459.138771,243.654143 471.635549,231.157365 L625.652718,77.1394289 C626.45443,76.112958 627.327523,75.1241337 628.271997,74.1796598 C634.563908,67.8877488 642.82408,64.763706 651.070543,64.8075316 L651.359519,64.8072962 Z"
    id="形状结合"></path>
</svg>
