<svg width="1024px" height="1024px" viewBox="0 0 1024 1024" version="1.1" xmlns="http://www.w3.org/2000/svg" xmlns:xlink="http://www.w3.org/1999/xlink">

        <path d="M717,0 C717.502926,0 718.003143,0.0116020426 718.500396,0.0345530799 C718.997527,0.0115865162 719.49741,0 720,0 C737.496381,0 751.713128,14.0417829 751.995713,31.4708215 L752,32 L752,191 C752,208.673112 737.673112,223 720,223 C702.503619,223 688.286872,208.958217 688.004287,191.529179 L688,191 L688,64 L64,64 L64,829 L547.066,829 L688,688.066 L688,623 C688,605.503619 702.041783,591.286872 719.470821,591.004287 L720,591 C737.496381,591 751.713128,605.041783 751.995713,622.470821 L752,623 L752.001165,697.215289 C753.123956,706.479433 750.201163,716.1405 743.232785,723.338144 L742.862293,723.714678 L583.05616,883.52081 C576.628337,889.948633 568.146301,893.070251 559.723256,892.885664 C559.0502,892.94246 558.370952,892.978376 557.686352,892.992784 L557,893 L32,893 C14.5036191,893 0.286872383,878.958217 0.00428708574,861.529179 L0,861 L0,32 C2.14268868e-15,14.5036191 14.0417829,0.286872383 31.4708215,0.00428708574 L32,0 L717,0 Z M457.256672,257.734604 C474.66129,260.803508 486.282682,277.400577 483.213778,294.805194 L431.813918,586.308289 C428.745014,603.712907 412.147946,615.334299 394.743328,612.265396 C377.33871,609.196492 365.717318,592.599423 368.786222,575.194806 L420.186082,283.691711 C423.254986,266.287093 439.852054,254.665701 457.256672,257.734604 Z M617.748839,288.542345 L618.092272,288.944964 L723.50944,414.576252 C728.56305,420.598909 731.019056,427.936758 730.996611,435.227878 C731.019165,442.519079 728.563162,449.85712 723.50944,455.879911 L618.092272,581.511199 C606.732215,595.049589 586.548036,596.815476 573.009647,585.455418 C559.471258,574.095361 557.705371,553.911182 569.065428,540.372792 L657.292105,435.227422 L569.065428,330.083371 C557.818971,316.680365 559.437252,296.763821 572.607028,285.344179 L573.009647,285.000745 C586.412652,273.754288 606.329196,275.372569 617.748839,288.542345 Z M278.583087,284.667209 L278.987117,285.000745 L279.389735,285.344179 C292.427813,296.649625 294.144271,316.282884 283.264871,329.679342 L282.931335,330.083371 L194.704658,435.227422 L282.931335,540.372792 C294.291393,553.911182 292.525506,574.095361 278.987117,585.455418 C265.584111,596.701875 245.667567,595.083594 234.247924,581.913818 L233.904491,581.511199 L128.487323,455.879911 C123.433601,449.85712 120.977598,442.519079 121.000152,435.227878 C120.97823,428.106318 123.320821,420.940179 128.138959,414.998555 L128.487323,414.576252 L233.904491,288.944964 L234.247924,288.542345 C245.553371,275.504267 265.18663,273.787809 278.583087,284.667209 Z" id="path-1"></path>

    </svg>
