<?xml version="1.0" encoding="UTF-8"?>
<svg width="16px" height="16px" viewBox="0 0 16 16" version="1.1" xmlns="http://www.w3.org/2000/svg" xmlns:xlink="http://www.w3.org/1999/xlink">
    <title>列表</title>
    <g id="tableau-Proxy-0518" stroke="none" stroke-width="1" fill="none" fill-rule="evenodd">
        <g id="tableau-Proxy-视图模式" transform="translate(-1844.000000, -164.000000)">
            <g id="编组-6备份-2" transform="translate(19.000000, 132.000000)">
                <g id="编组-16" transform="translate(1761.000000, 24.000000)">
                    <g id="编组-2备份-9" transform="translate(48.000000, 0.000000)">
                        <g id="列表" transform="translate(16.000000, 8.000000)">
                            <rect id="矩形" opacity="0" x="0" y="0" width="16" height="16"></rect>
                            <path d="M5.71428571,4.28571429 L14.8571429,4.28571429 C15.5428571,4.28571429 16,3.82857143 16,3.14285714 C16,2.45714286 15.5428571,2 14.8571429,2 L5.71428571,2 C5.02857143,2 4.57142857,2.45714286 4.57142857,3.14285714 C4.57142857,3.82857143 5.02857143,4.28571429 5.71428571,4.28571429 Z M14.8571429,6.57142857 L5.71428571,6.57142857 C5.02857143,6.57142857 4.57142857,7.02857143 4.57142857,7.71428571 C4.57142857,8.4 5.02857143,8.85714286 5.71428571,8.85714286 L14.8571429,8.85714286 C15.5428571,8.85714286 16,8.4 16,7.71428571 C16,7.02857143 15.5428571,6.57142857 14.8571429,6.57142857 Z M14.8571429,11.1428571 L5.71428571,11.1428571 C5.02857143,11.1428571 4.57142857,11.6 4.57142857,12.2857143 C4.57142857,12.9714286 5.02857143,13.4285714 5.71428571,13.4285714 L14.8571429,13.4285714 C15.5428571,13.4285714 16,12.9714286 16,12.2857143 C16,11.6 15.5428571,11.1428571 14.8571429,11.1428571 Z M1.14285714,2 C0.457142857,2 0,2.45714286 0,3.14285714 C0,3.82857143 0.457142857,4.28571429 1.14285714,4.28571429 C1.82857143,4.28571429 2.28571429,3.82857143 2.28571429,3.14285714 C2.28571429,2.45714286 1.82857143,2 1.14285714,2 Z M1.14285714,6.57142857 C0.457142857,6.57142857 0,7.02857143 0,7.71428571 C0,8.4 0.457142857,8.85714286 1.14285714,8.85714286 C1.82857143,8.85714286 2.28571429,8.4 2.28571429,7.71428571 C2.28571429,7.02857143 1.82857143,6.57142857 1.14285714,6.57142857 Z M1.14285714,11.1428571 C0.457142857,11.1428571 0,11.6 0,12.2857143 C0,12.9714286 0.457142857,13.4285714 1.14285714,13.4285714 C1.82857143,13.4285714 2.28571429,12.9714286 2.28571429,12.2857143 C2.28571429,11.6 1.82857143,11.1428571 1.14285714,11.1428571 Z" id="形状" fill="currentColor" fill-rule="nonzero"></path>
                        </g>
                    </g>
                </g>
            </g>
        </g>
    </g>
</svg>
