<svg width="1024px" height="1024px" viewBox="0 0 1024 1024" version="1.1" xmlns="http://www.w3.org/2000/svg" xmlns:xlink="http://www.w3.org/1999/xlink">

        <path d="M448,0 C465.673112,0 480,14.326888 480,32 C480,49.673112 465.673112,64 448,64 L448,64 C235.922656,64 64,235.922656 64,448 C64,660.077344 235.922656,832 448,832 C660.077344,832 832,660.077344 832,448 L832.004287,447.470821 C832.286872,430.041783 846.503619,416 864,416 C881.673112,416 896,430.326888 896,448 L896,448 C896,695.423568 695.423568,896 448,896 C200.576432,896 0,695.423568 0,448 C0,200.759437 200.279833,0.296734725 447.451063,0.000329125105 C447.634823,0.00153222887 447.817233,0 448,0 Z" id="path-1"></path>

    </svg>
