<svg width="1024px" height="1024px" viewBox="0 0 1024 1024" version="1.1" xmlns="http://www.w3.org/2000/svg" xmlns:xlink="http://www.w3.org/1999/xlink">

        <path d="M877,97 C894.673112,97 909,111.326888 909,129 L909,303 C909,320.673112 894.673112,335 877,335 C859.503619,335 845.286872,320.958217 845.004287,303.529179 L845,303 L845,161 L129,161 L129,683 L559,683 L559.000862,683.247683 C574.785691,685.216458 587,698.681827 587,715 C587,731.318173 574.785691,744.783542 559.000862,746.752317 L559,747 L519,747 L519,863 L719,863 C736.496381,863 750.713128,877.041783 750.995713,894.470821 L751,895 C751,912.496381 736.958217,926.713128 719.529179,926.995713 L719,927 L255,927 C237.326888,927 223,912.673112 223,895 C223,877.503619 237.041783,863.286872 254.470821,863.004287 L255,863 L455,863 L455,747 L97,747 C79.326888,747 65,732.673112 65,715 L65,129 C65,111.326888 79.326888,97 97,97 L877,97 Z M823.82711,343.391089 C829.106502,382.8827 838.707446,415.541959 852.62994,441.368866 C862.45614,459.596947 913.163618,505.835237 936.251747,552.577467 C961.422518,603.536035 959.421588,643.576034 958.62711,676.118926 C956.356031,769.145395 883.187091,832.391089 790.12711,832.391089 C697.06713,832.391089 621.62711,756.930942 621.62711,663.846133 C621.62711,628.958535 636.440645,592.388197 654.590735,565.496969 C660.723979,556.409936 672.500306,541.402087 689.919717,520.473423 L691.204379,518.93149 C694.657,514.791493 698.324468,510.426075 702.206782,505.835237 C697.823917,515.928604 698.421657,531.509348 704,552.577467 C709.578343,573.645587 719.578343,585.416794 734,587.891089 C736.634472,539.810896 742.301138,503.545286 751,479.094261 C759.698862,454.643235 783.974565,409.408845 823.82711,343.391089 Z M808.144374,460 C802.191355,478.374574 796.1856,497.104215 790.12711,516.188924 C784.06862,535.273633 779.673143,571.224048 776.940677,624.040168 C765.725961,639.732929 751.412402,647.050166 734,645.991878 C716.587598,644.933589 703.958795,636.359608 696.11359,620.269933 C689.371197,634.72111 686,649.152522 686,663.564168 C686,721.242485 732.731094,768 790.37682,768 C848.022545,768 893.346826,728.81095 894.753639,671.168782 C895.245776,651.004168 896.485246,626.194107 880.893288,594.618553 C866.591416,565.655576 838.08681,531.077534 832,519.782833 C823.375753,503.779658 815.423878,483.852047 808.144374,460 Z M470.44585,243.734604 C487.850468,246.803508 499.47186,263.400577 496.402957,280.805194 L445.003096,572.308289 C441.934192,589.712907 425.337124,601.334299 407.932506,598.265396 C390.527888,595.196492 378.906496,578.599423 381.9754,561.194806 L433.37526,269.691711 C436.444164,252.287093 453.041232,240.665701 470.44585,243.734604 Z M598.130432,274.542345 L598.473865,274.944964 L703.891033,400.576252 C708.944643,406.598909 711.400649,413.936758 711.378204,421.227878 C711.400758,428.519079 708.944755,435.85712 703.891033,441.879911 L598.473865,567.511199 C587.113808,581.049589 566.929629,582.815476 553.39124,571.455418 C539.852851,560.095361 538.086964,539.911182 549.447021,526.372792 L637.673698,421.227422 L549.447021,316.083371 C538.200564,302.680365 539.818845,282.763821 552.988621,271.344179 L553.39124,271.000745 C566.794245,259.754288 586.710789,261.372569 598.130432,274.542345 Z M324.583087,270.667209 L324.987117,271.000745 L325.389735,271.344179 C338.427813,282.649625 340.144271,302.282884 329.264871,315.679342 L328.931335,316.083371 L240.704658,421.227422 L328.931335,526.372792 C340.291393,539.911182 338.525506,560.095361 324.987117,571.455418 C311.584111,582.701875 291.667567,581.083594 280.247924,567.913818 L279.904491,567.511199 L174.487323,441.879911 C169.433601,435.85712 166.977598,428.519079 167.000152,421.227878 C166.97823,414.106318 169.320821,406.940179 174.138959,400.998555 L174.487323,400.576252 L279.904491,274.944964 L280.247924,274.542345 C291.553371,261.504267 311.18663,259.787809 324.583087,270.667209 Z" id="path-1"></path>

    </svg>
