<svg width="1024px" height="1024px" viewBox="0 0 1024 1024" version="1.1" xmlns="http://www.w3.org/2000/svg" xmlns:xlink="http://www.w3.org/1999/xlink">

        <path d="M415.238787,9.20133159e-05 C419.826661,0.011119575 424.329543,1.01461371 428.444675,2.88825281 L428.979208,3.13756512 L810.529284,165.096251 L811.01472,165.306964 C818.234701,168.510774 823.696467,174.07659 826.87481,180.704476 C829.025802,185.006921 830.236716,189.862095 830.236716,195.000092 L830.236716,195.000092 L830.236716,712.000092 C830.236716,726.047053 821.185841,737.98007 808.597708,742.285523 L428.979208,903.423124 C424.720937,905.456939 420.026134,906.54909 415.238787,906.560597 L415.033848,906.560597 C410.246501,906.54909 405.551698,905.456939 401.293427,903.423124 L20.2421,741.676202 C18.952786,741.154576 17.705212,740.551364 16.5057786,739.872969 C16.4648508,739.8493 16.4234999,739.825887 16.3822178,739.802392 C16.2975135,739.754312 16.2135333,739.705808 16.129795,739.656935 C16.0365942,739.603037 15.9435014,739.548296 15.8507694,739.493136 C15.8202951,739.47398 15.7896461,739.455604 15.7590304,739.437178 C12.0635122,737.223293 8.94513963,734.339286 6.49515387,731.012948 C2.56221668,725.697444 0.236716475,719.120343 0.236716475,712.000092 L0.236716475,712.000092 L0.236716475,195.000092 C0.236716475,194.906548 0.237117856,194.813098 0.237918989,194.719743 C0.179578976,182.374559 7.31220193,170.607781 19.2579145,165.306964 L19.7433508,165.096251 L401.293427,3.13756512 C405.37427,1.18849248 409.856025,0.104246464 414.435936,0.00714869224 L415.033848,9.20133157e-05 L415.238787,9.20133159e-05 Z M415.13549,66.789663 L64.2367165,215.736092 L64.2367165,690.824092 L415.13549,839.771026 L766.236716,690.738092 L766.236716,215.822092 L415.13549,66.789663 Z M705.912975,233.589385 C712.749356,249.694888 705.378752,268.268034 689.445652,275.338223 L688.960216,275.548936 L447.236716,378.155092 L447.236716,736.000092 C447.236716,753.496473 433.194934,767.71322 415.765895,767.995805 L415.236716,768.000092 C397.563604,768.000092 383.236716,753.673204 383.236716,736.000092 L383.236716,736.000092 L383.236716,378.758092 L141.249991,276.041013 C124.981806,269.135578 117.391797,250.349647 124.297232,234.081462 C131.202667,217.813276 149.988598,210.223267 166.256783,217.128702 L414.525131,322.511524 L663.953424,216.636625 C680.221609,209.73119 699.00754,217.321199 705.912975,233.589385 Z M686.34507,351.295287 C703.841451,351.295287 718.058198,365.33707 718.340783,382.766109 L718.34507,383.295287 L718.34507,631.386605 C718.34507,643.930066 711.018559,655.301997 699.631625,660.49792 L699.228052,660.678733 L546.034965,728.054642 C541.974721,729.840379 537.587571,730.762513 533.151983,730.762513 C515.655602,730.762513 501.438855,716.72073 501.15627,699.291692 L501.151983,698.762513 L501.151983,450.671196 C501.151983,438.127734 508.478495,426.755803 519.865429,421.559881 L520.269001,421.379068 L673.462088,354.003159 C677.522333,352.217421 681.909482,351.295287 686.34507,351.295287 Z M166.256783,466.128702 L313.53756,528.645683 C329.805745,535.551118 337.395754,554.337049 330.490319,570.605234 C323.584884,586.87342 304.798953,594.463429 288.530768,587.557994 L141.249991,525.041013 C124.981806,518.135578 117.391797,499.349647 124.297232,483.081462 C131.202667,466.813276 149.988598,459.223267 166.256783,466.128702 Z" id="path-1"></path>

    </svg>
