<?xml version="1.0" standalone="no"?><!DOCTYPE svg PUBLIC "-//W3C//DTD SVG 1.1//EN" "http://www.w3.org/Graphics/SVG/1.1/DTD/svg11.dtd"><svg t="1703753842479" class="icon" viewBox="0 0 1024 1024" version="1.1" xmlns="http://www.w3.org/2000/svg" p-id="5058" xmlns:xlink="http://www.w3.org/1999/xlink" width="64" height="64"><path d="M452 78.9H144.6c-26.5 0-48 21.5-48 48v322.7c0 26.5 21.5 48 48 48H452c26.5 0 48-21.5 48-48V126.9c0-26.5-21.6-48-48-48z m-24 346.7H168.6V150.9H428v274.7zM878.7 525.6H571.3c-26.5 0-48 21.5-48 48v322.7c0 26.5 21.5 48 48 48h307.4c26.5 0 48-21.5 48-48V573.6c0-26.5-21.5-48-48-48z m-24 346.7H595.3V597.6h259.4v274.7zM417.7 872.3c-0.6 0-63.4-0.4-126.2-32.4-65.6-33.4-105.2-88.3-118.2-163.6h23c7.6 0 12.4-8.2 8.8-14.8l-61-110.5c-3.8-6.9-13.7-6.9-17.5 0l-61 110.5c-3.7 6.7 1.1 14.8 8.8 14.8h26.1C118.2 805.2 194 871 258.8 904c78.1 39.8 155.7 40.3 158.9 40.3 19.9 0 36-16.1 36-36s-16.1-36-36-36zM949.6 347.1h-26.1c-17.8-129-93.5-194.7-158.4-227.7C687 79.6 609.4 79.1 606.2 79.1c-19.9 0-36 16.1-36 36s16.1 36 36 36c0.6 0 63.4 0.4 126.2 32.4 65.6 33.4 105.2 88.3 118.2 163.6h-23c-7.6 0-12.4 8.2-8.8 14.8l61 110.5c3.8 6.9 13.7 6.9 17.5 0l61-110.5c3.8-6.6-1-14.8-8.7-14.8z" p-id="5059"></path></svg>