<svg width="1024px" height="1024px" viewBox="0 0 1024 1024" version="1.1" xmlns="http://www.w3.org/2000/svg" xmlns:xlink="http://www.w3.org/1999/xlink">

        <path d="M262,0 C297.346224,0 326,28.653776 326,64 C326,99.346224 297.346224,128 262,128 C226.653776,128 198,99.346224 198,64 C198,28.653776 226.653776,0 262,0 Z M460,0 C495.346224,0 524,28.653776 524,64 C524,99.346224 495.346224,128 460,128 C424.653776,128 396,99.346224 396,64 C396,28.653776 424.653776,0 460,0 Z M64,0 C99.346224,0 128,28.653776 128,64 C128,99.346224 99.346224,128 64,128 C28.653776,128 0,99.346224 0,64 C0,28.653776 28.653776,0 64,0 Z" id="path-1"></path>

    </svg>
