<?xml version="1.0" standalone="no"?><!DOCTYPE svg PUBLIC "-//W3C//DTD SVG 1.1//EN" "http://www.w3.org/Graphics/SVG/1.1/DTD/svg11.dtd"><svg t="1724917791386" class="icon" viewBox="0 0 1024 1024" version="1.1" xmlns="http://www.w3.org/2000/svg" p-id="119244" xmlns:xlink="http://www.w3.org/1999/xlink" width="200" height="200"><path d="M834.56 180.906667h-155.306667C665.6 126.293333 617.813333 88.746667 563.2 88.746667c-66.56 0-119.466667 54.613333-119.466667 122.88s54.613333 122.88 119.466667 122.88c54.613333 0 102.4-37.546667 116.053333-92.16h155.306667c17.066667 0 30.72 13.653333 30.72 30.72v274.773333c0 17.066667-13.653333 30.72-30.72 30.72H549.546667c-17.066667 0-30.72 13.653333-30.72 30.72s13.653333 30.72 30.72 30.72h285.013333c49.493333 0 90.453333-40.96 90.453333-92.16V273.066667c0-51.2-40.96-92.16-90.453333-92.16zM564.906667 273.066667c-32.426667 0-59.733333-27.306667-59.733334-61.44s27.306667-61.44 59.733334-61.44 59.733333 27.306667 59.733333 61.44c1.706667 34.133333-25.6 61.44-59.733333 61.44z" p-id="119245" ></path><path d="M805.546667 699.733333c-54.613333 0-98.986667 35.84-114.346667 85.333334H385.706667c-15.36 0-29.013333-11.946667-30.72-29.013334 58.026667-15.36 97.28-73.386667 88.746666-133.12-6.826667-61.44-59.733333-105.813333-119.466666-105.813333-44.373333 0-83.626667 23.893333-104.106667 61.44h-46.08c-17.066667 0-30.72-13.653333-30.72-30.72V273.066667c0-17.066667 13.653333-30.72 30.72-30.72h194.56c17.066667 0 30.72-13.653333 30.72-30.72s-13.653333-30.72-30.72-30.72H174.08c-49.493333 0-90.453333 40.96-90.453333 92.16v273.066666c0 51.2 40.96 92.16 90.453333 92.16H204.8c0 56.32 37.546667 104.106667 90.453333 117.76 1.706667 49.493333 40.96 90.453333 90.453334 90.453334h302.08c11.946667 63.146667 71.68 104.106667 133.12 95.573333 61.44-8.533333 107.52-64.853333 104.106666-128-5.12-64.853333-56.32-114.346667-119.466666-114.346667z m-539.306667-61.44c0-22.186667 11.946667-42.666667 30.72-52.906666 18.773333-10.24 40.96-10.24 59.733333 0s30.72 30.72 30.72 52.906666c0 34.133333-27.306667 61.44-59.733333 61.44s-61.44-27.306667-61.44-61.44z m539.306667 244.053334c-32.426667 0-59.733333-27.306667-59.733334-61.44s27.306667-61.44 59.733334-61.44 59.733333 27.306667 59.733333 61.44-27.306667 61.44-59.733333 61.44z" p-id="119246" ></path></svg>