<?xml version="1.0" standalone="no"?><!DOCTYPE svg PUBLIC "-//W3C//DTD SVG 1.1//EN" "http://www.w3.org/Graphics/SVG/1.1/DTD/svg11.dtd"><svg t="1724899046406" class="icon" viewBox="0 0 1088 1024" version="1.1" xmlns="http://www.w3.org/2000/svg" p-id="114595" xmlns:xlink="http://www.w3.org/1999/xlink" width="212.5" height="200"><path d="M927.04 0a128 128 0 1 1-59.2 241.536l-595.264 595.2a128 128 0 1 1-54.336-54.336l595.328-595.2A128 128 0 0 1 927.104 0z m-768 832a64 64 0 1 0 0 128 64 64 0 0 0 0-128z m768-768a64 64 0 1 0 0 128 64 64 0 0 0 0-128z" p-id="114596"></path></svg>