<?xml version="1.0" standalone="no"?><!DOCTYPE svg PUBLIC "-//W3C//DTD SVG 1.1//EN" "http://www.w3.org/Graphics/SVG/1.1/DTD/svg11.dtd"><svg t="1724898516606" class="icon" viewBox="0 0 1024 1024" version="1.1" xmlns="http://www.w3.org/2000/svg" p-id="5265" xmlns:xlink="http://www.w3.org/1999/xlink" width="200" height="200"><path d="M0 0h1024v1024H0z" fill-opacity="0" p-id="5266"></path><path d="M511.441455 500.456727l-1.070546-0.046545c-11.822545-0.465455-23.272727-3.351273-33.978182-8.750546L203.264 364.497455a75.217455 75.217455 0 0 1-40.029091-42.635637 75.776 75.776 0 0 1 1.861818-58.181818 75.869091 75.869091 0 0 1 38.818909-38.446545l259.584-121.530182a113.152 113.152 0 0 1 95.604364-0.046546l260.468364 121.949091c18.292364 8.005818 32.674909 23.272727 39.936 42.589091 7.168 18.990545 6.516364 39.656727-1.861819 58.181818-7.773091 17.221818-21.550545 30.906182-38.772363 38.446546l-273.221818 127.162182a79.127273 79.127273 0 0 1-33.140364 8.378181l-1.070545 0.093091z m-0.046546-345.367272c-7.819636 0-15.499636 1.722182-22.574545 5.026909L228.538182 281.972364a15.080727 15.080727 0 0 0-8.192 7.633454 13.032727 13.032727 0 0 0-0.325818 10.053818c1.396364 3.630545 4.189091 6.516364 7.912727 8.145455l274.478545 127.813818a24.436364 24.436364 0 0 0 8.983273 2.746182 20.48 20.48 0 0 0 7.726546-2.234182l275.130181-128.046545a15.080727 15.080727 0 0 0 8.098909-7.633455 13.032727 13.032727 0 0 0 0.325819-10.053818 14.475636 14.475636 0 0 0-7.912728-8.145455L533.876364 160.069818a53.527273 53.527273 0 0 0-22.434909-4.933818z m-82.385454 822.178909h-0.605091c-12.288 0-24.529455-3.118545-35.374546-9.076364l-256.139636-122.414545A81.268364 81.268364 0 0 1 93.090909 772.608V458.845091c0.093091-28.392727 15.080727-55.016727 38.958546-69.538909a74.845091 74.845091 0 0 1 73.82109-1.024l256.232728 122.647273c26.391273 14.475636 42.449455 40.96 43.566545 69.818181v315.671273a81.92 81.92 0 0 1-38.586182 69.352727c-11.636364 7.074909-24.529455 10.984727-37.608727 11.496728h-0.558545zM169.797818 441.018182a14.429091 14.429091 0 0 0-7.214545 1.908363 19.037091 19.037091 0 0 0-8.704 16.104728v313.902545c-0.093091 7.447273 3.723636 13.963636 9.960727 17.268364l256.465455 122.600727a17.221818 17.221818 0 0 0 7.540363 2.420364 17.640727 17.640727 0 0 0 7.912727-2.56 19.642182 19.642182 0 0 0 9.076364-16.570182v-314.181818a19.688727 19.688727 0 0 0-10.100364-15.592728L177.058909 442.926545a14.429091 14.429091 0 0 0-7.214545-1.908363zM596.107636 977.454545h-0.744727c-13.079273 0-26.065455-3.537455-37.655273-10.146909a82.152727 82.152727 0 0 1-39.470545-69.585454v-315.717818c0.651636-29.323636 16.244364-55.854545 40.727273-69.911273l2.001454-1.070546 258.885818-123.857454a73.402182 73.402182 0 0 1 71.959273 2.466909c23.924364 14.289455 38.912 40.96 39.098182 69.399273v314.088727a80.663273 80.663273 0 0 1-40.96 71.912727l-260.421818 124.183273c-9.448727 5.166545-21.410909 8.238545-33.419637 8.238545z m-8.005818-410.903272a19.735273 19.735273 0 0 0-9.029818 16.151272v314.647273c0.093091 6.516364 3.584 12.8 9.355636 16.384a15.825455 15.825455 0 0 0 7.121455 1.675637h0.465454a13.544727 13.544727 0 0 0 6.376728-1.675637l260.002909-123.950545c4.189091-2.466909 7.819636-8.936727 7.68-16.011637V459.217455a19.130182 19.130182 0 0 0-9.169455-16.151273 14.196364 14.196364 0 0 0-13.963636-0.418909l-258.839273 123.904z" p-id="5267"></path></svg>