<?xml version="1.0" standalone="no"?><!DOCTYPE svg PUBLIC "-//W3C//DTD SVG 1.1//EN" "http://www.w3.org/Graphics/SVG/1.1/DTD/svg11.dtd"><svg t="1724898806383" class="icon" viewBox="0 0 1024 1024" version="1.1" xmlns="http://www.w3.org/2000/svg" p-id="80730" xmlns:xlink="http://www.w3.org/1999/xlink" width="200" height="200"><path d="M292.571429 146.285714a146.285714 146.285714 0 1 1-292.571429 0 146.285714 146.285714 0 0 1 292.571429 0z m365.714285 365.714286a146.285714 146.285714 0 1 1-292.571428 0 146.285714 146.285714 0 0 1 292.571428 0z m-365.714285 365.714286a146.285714 146.285714 0 1 1-292.571429 0 146.285714 146.285714 0 0 1 292.571429 0zM1024 146.285714a146.285714 146.285714 0 1 1-292.571429 0 146.285714 146.285714 0 0 1 292.571429 0z m0 731.428572a146.285714 146.285714 0 1 1-292.571429 0 146.285714 146.285714 0 0 1 292.571429 0z" p-id="80731"></path></svg>