<svg width="1024px" height="1024px" viewBox="0 0 1024 1024" version="1.1" xmlns="http://www.w3.org/2000/svg" xmlns:xlink="http://www.w3.org/1999/xlink">
  <path d="M707.5,0.500000007 C725.173112,0.500000007 739.5,14.826888 739.5,32.5 L739.5,32.5 L739.501476,126.704227 C791.916058,140.788855 830.5,188.638546 830.5,245.5 C830.5,302.361454 791.916058,350.211145 739.501476,364.295773 L739.5,798.5 C739.5,816.173112 725.173112,830.5 707.5,830.5 C689.826888,830.5 675.5,816.173112 675.5,798.5 L675.5,798.5 L675.499525,364.296042 C623.084433,350.211755 584.5,302.361816 584.5,245.5 C584.5,188.638184 623.084433,140.788245 675.499525,126.703958 L675.5,32.5 C675.5,14.826888 689.826888,0.500000007 707.5,0.500000007 Z M417,0.5 C434.673112,0.5 449,14.826888 449,32.5 L449,32.5 L449,296.5 C449,296.705907 448.998055,296.911359 448.994183,297.11634 C500.646798,311.700226 538.5,359.179569 538.5,415.5 C538.5,471.818245 500.649737,519.296087 448.999849,533.88289 L449,798.5 C449,816.173112 434.673112,830.5 417,830.5 C399.326888,830.5 385,816.173112 385,798.5 L385,798.5 L384.998279,534.688587 C331.821611,521.120816 292.5,472.902435 292.5,415.5 C292.5,358.097565 331.821611,309.879184 384.998279,296.311413 L385,32.5 C385,14.826888 399.326888,0.5 417,0.5 Z M123.5,0.500000007 C141.173112,0.500000007 155.5,14.826888 155.5,32.5 L155.5,32.5 L155.501476,466.704227 C207.916058,480.788855 246.5,528.638546 246.5,585.5 C246.5,642.361454 207.916058,690.211145 155.501476,704.295773 L155.5,798.5 C155.5,816.173112 141.173112,830.5 123.5,830.5 C105.826888,830.5 91.5,816.173112 91.5,798.5 L91.5,798.5 L91.4995252,704.296042 C39.0844331,690.211755 0.5,642.361816 0.5,585.5 C0.5,528.638184 39.0844331,480.788245 91.4995252,466.703958 L91.5,32.5 C91.5,14.826888 105.826888,0.500000007 123.5,0.500000007 Z M123.5,526.5 C90.9151998,526.5 64.5,552.9152 64.5,585.5 C64.5,618.0848 90.9151998,644.5 123.5,644.5 C156.0848,644.5 182.5,618.0848 182.5,585.5 C182.5,552.9152 156.0848,526.5 123.5,526.5 Z M415.5,356.5 C382.9152,356.5 356.5,382.9152 356.5,415.5 C356.5,448.0848 382.9152,474.5 415.5,474.5 C448.0848,474.5 474.5,448.0848 474.5,415.5 C474.5,382.9152 448.0848,356.5 415.5,356.5 Z M707.5,186.5 C674.9152,186.5 648.5,212.9152 648.5,245.5 C648.5,278.0848 674.9152,304.5 707.5,304.5 C740.0848,304.5 766.5,278.0848 766.5,245.5 C766.5,212.9152 740.0848,186.5 707.5,186.5 Z" id="path-1"></path>
</svg>
