<svg width="1024px" height="1024px" viewBox="0 0 1024 1024" version="1.1" xmlns="http://www.w3.org/2000/svg" xmlns:xlink="http://www.w3.org/1999/xlink">

        <path d="M864,0 C881.496381,0 895.713128,14.0417829 895.995713,31.4708215 L896,32 L896,798 C896,815.496381 881.958217,829.713128 864.529179,829.995713 L864,830 L32,830 C14.5036191,830 0.286872383,815.958217 0.00428708574,798.529179 L0,798 L0,32 C2.14268868e-15,14.5036191 14.0417829,0.286872383 31.4708215,0.00428708574 L32,0 L864,0 Z M832,64 L64,64 L64,766 L832,766 L832,64 Z M448,165 C465.673112,165 480,179.326888 480,197 L480,383 L666,383 C683.673112,383 698,397.326888 698,415 C698,432.673112 683.673112,447 666,447 L480,447 L480,633 C480,650.673112 465.673112,665 448,665 C430.326888,665 416,650.673112 416,633 L416,447 L230,447 C212.326888,447 198,432.673112 198,415 C198,397.326888 212.326888,383 230,383 L416,382.999 L416,197 C416,179.326888 430.326888,165 448,165 Z" id="path-1"></path>

    </svg>
