<svg width="1024px" height="1024px" viewBox="0 0 1024 1024" version="1.1" xmlns="http://www.w3.org/2000/svg" xmlns:xlink="http://www.w3.org/1999/xlink">

        <path d="M415.238787,9.20106761e-05 C419.826661,0.0111195723 424.329543,1.01461371 428.444675,2.8882528 L428.979208,3.13756512 L635.633362,90.8573366 L636.118798,91.0680494 C651.892567,98.0675365 659.274233,116.341072 652.786956,132.332997 L652.586121,132.816888 L652.375408,133.302324 C645.375921,149.076093 627.102386,156.45776 611.110461,149.970482 L610.62657,149.769647 L415.13549,66.789663 L113.606488,194.780092 L415.13549,322.771092 L785.522492,165.552193 C789.649486,163.800388 793.938513,162.981453 798.154504,163.000414 L798.236716,163.000092 C815.909828,163.000092 830.236716,177.32698 830.236716,195.000092 L830.236716,195.000092 L830.236716,711.000092 C830.236716,713.455837 829.960091,715.846972 829.4363,718.144038 C827.490961,728.050815 820.901206,736.866739 811.014718,741.253791 L810.529282,741.464504 L428.979205,903.42319 C424.720934,905.457005 420.026131,906.549156 415.238784,906.560663 L415.033846,906.560663 C410.246499,906.549156 405.551696,905.457005 401.293425,903.42319 L19.7433482,741.464504 C7.41596811,736.231842 0.0715988205,724.177396 0.241368039,711.565927 C0.238351587,711.377318 0.236716475,711.188896 0.236716475,711.000092 L0.236716475,711.000092 L0.236716475,375.000092 C0.236716475,357.32698 14.5636045,343.000092 32.2367165,343.000092 C49.9098285,343.000092 64.2367165,357.32698 64.2367165,375.000092 L64.2367165,375.000092 L64.2367165,690.824092 L383.236716,826.230092 L383.236716,538.000092 C383.236716,520.503711 397.278499,506.286964 414.707538,506.004379 L415.236716,506.000092 C432.909828,506.000092 447.236716,520.32698 447.236716,538.000092 L447.236716,538.000092 L447.236716,826.144092 L766.236716,690.738092 L766.236716,243.265092 L428.979207,386.42319 C424.720937,388.457005 420.026134,389.549156 415.238787,389.560663 L415.033848,389.560663 C410.246501,389.549156 405.551698,388.457005 401.293427,386.42319 L19.7433505,224.464504 C7.62681355,219.321339 0.324289808,207.58775 0.239241076,195.212513 L0.239205624,194.780568 C0.155948018,182.391054 7.31826585,170.574006 19.3226335,165.278329 L19.7433508,165.096251 L401.293427,3.13756512 C405.37427,1.18849248 409.856025,0.104246461 414.435936,0.00714869014 L415.033848,9.20112088e-05 L415.238787,9.20106761e-05 Z" id="path-1"></path>

    </svg>
