<svg width="1024px" height="1024px" viewBox="0 0 1024 1024" version="1.1" xmlns="http://www.w3.org/2000/svg" xmlns:xlink="http://www.w3.org/1999/xlink">

        <path d="M32,830 C14.326888,830 -2.164332e-15,815.673112 0,798 L0,798 L0,32 C2.164332e-15,14.326888 14.326888,-1.13686838e-13 32,0 L32,0 L864,0 C881.673112,0 896,14.326888 896,32 L896,32 L896,798 C896,815.673112 881.673112,830 864,830 L864,830 Z M832,64 L64,64 L64,766 L832,766 L832,64 Z M218,169 C235.673112,169 250,183.326888 250,201 L250,201 L250,629 C250,646.673112 235.673112,661 218,661 C200.326888,661 186,646.673112 186,629 L186,629 L186,201 C186,183.326888 200.326888,169 218,169 Z M678,169 C695.673112,169 710,183.326888 710,201 L710,201 L710,511 C710,528.673112 695.673112,543 678,543 C660.326888,543 646,528.673112 646,511 L646,511 L646,201 C646,183.326888 660.326888,169 678,169 Z M448,169 C465.673112,169 480,183.326888 480,201 L480,201 L480,447 C480,464.673112 465.673112,479 448,479 C430.326888,479 416,464.673112 416,447 L416,447 L416,201 C416,183.326888 430.326888,169 448,169 Z" id="path-1"></path>

    </svg>
