<svg width="1024px" height="1024px" viewBox="0 0 1024 1024" version="1.1" xmlns="http://www.w3.org/2000/svg" xmlns:xlink="http://www.w3.org/1999/xlink">

        <path d="M798,0 C815.673112,0 830,14.326888 830,32 L830,32 L830,798 C830,815.673112 815.673112,830 798,830 C791.670313,830 785.76986,828.162234 780.803111,824.991173 L640.524,744 L32,744 C14.5036191,744 0.286872383,729.958217 0.00428708574,712.529179 L0,712 L0,712 L0,32 C2.164332e-15,14.326888 14.326888,0 32,0 L32,0 Z M766,64 L64,64 L64,680 L645.704057,680.000075 C652.132356,679.362672 658.813787,680.659797 664.835042,684.136171 L766,742.544 L766,64 Z M417.748252,528 C426.8292,528 434.671837,530.966887 440.863393,536.900662 C446.642179,542.834437 449.944342,550.463576 449.944342,559.788079 C449.944342,569.112583 446.642179,577.165563 440.450623,583.099338 C434.259067,589.033113 426.8292,592 417.748252,592 C408.667303,592 401.237436,588.609272 395.04588,582.675497 C388.854325,576.741722 385.964932,569.112583 385.964932,559.788079 C385.964932,550.463576 388.854325,542.834437 395.04588,536.900662 C401.237436,530.966887 408.667303,528 417.748252,528 Z M414.955602,140 C458.392728,140 487.321554,150.728728 513.077457,173.921036 C536.050667,193.592874 553,229.483538 553,268.781615 C553,275.964496 551.02037,311.957852 526.700749,343.982769 C511.037998,364.608022 481.402834,384.178188 466.889558,396.098923 C457.053629,404.177837 455.214288,412.150234 454.378792,414.098923 C447.373713,430.437384 446.961059,444.154388 446.944565,458.110494 L446.944742,460.953212 C446.945038,461.427845 446.945307,461.902976 446.945307,462.378715 L446.945307,471.397946 L446.93,471.397 L446.930096,472.707909 C446.930096,490.198661 432.892831,504.410834 415.4694,504.693328 L414.940392,504.697614 C397.272965,504.697614 382.950687,490.375335 382.950687,472.707909 L382.950687,472.707909 L382.950687,447.687319 C382.950687,446.757903 382.990322,445.837745 383.067995,444.928442 C383.424461,429.976936 384.975891,418.553541 391.631147,405.711762 C393.935136,400.924078 399.828884,389.21344 412.337208,376.759107 C429.913606,359.258574 456.879184,338.438023 473.18577,317.098923 C487.435633,298.451289 490.571005,272.965524 490.571005,267.522 C490.571005,246.262384 484.775927,229.586563 473.18577,217.346178 C460.951716,205.105794 442.922584,199.233538 421.030066,199.233538 C393.049672,199.233538 342.25768,213.72031 341.003095,266.76648 L341.005813,288.972368 C341.005813,306.639794 326.683534,320.962073 309.016108,320.962073 C291.348682,320.962073 277.026403,306.639794 277.026403,288.972368 L277.026403,288.972368 L277.026,268.781 L277,268.781615 C277,267.992385 277.008633,267.197179 277.026194,266.396267 L277.026403,263.951778 C277.026403,262.12731 277.179138,260.338515 277.472519,258.597482 C279.638233,235.21609 289.545886,208.026134 313.664857,182.954495 C341.379503,154.145159 371.518476,140 414.955602,140 Z" id="path-1"></path>

    </svg>
