<svg width="1024px" height="1024px" viewBox="0 0 1024 1024" version="1.1" xmlns="http://www.w3.org/2000/svg" xmlns:xlink="http://www.w3.org/1999/xlink">

        <path d="M658,0 C675.673112,0 690,14.326888 690,32 L690,32 L690,80 L864,80 C881.496381,80 895.713128,94.0417829 895.995713,111.470821 L896,112 L896,798 C896,815.673112 881.673112,830 864,830 L864,830 L32,830 C14.326888,830 -2.164332e-15,815.673112 0,798 L0,798 L0,112 C2.164332e-15,94.326888 14.326888,80 32,80 L32,80 L206,80 L206,32 C206,14.5036191 220.041783,0.286872383 237.470821,0.00428708574 L238,0 C255.673112,0 270,14.326888 270,32 L270,32 L270,80 L626,80 L626,32 C626,14.5036191 640.041783,0.286872383 657.470821,0.00428708574 Z M832,344 L64,344 L64,766 L832,766 L832,344 Z M503,598 C520.673112,598 535,612.326888 535,630 C535,647.673112 520.673112,662 503,662 L503,662 L393,662 C375.326888,662 361,647.673112 361,630 C361,612.326888 375.326888,598 393,598 L393,598 Z M743,598 C760.673112,598 775,612.326888 775,630 C775,647.673112 760.673112,662 743,662 L743,662 L633,662 C615.326888,662 601,647.673112 601,630 C601,612.326888 615.326888,598 633,598 L633,598 Z M263,598 C280.673112,598 295,612.326888 295,630 C295,647.673112 280.673112,662 263,662 L263,662 L153,662 C135.326888,662 121,647.673112 121,630 C121,612.326888 135.326888,598 153,598 L153,598 Z M503,448 C520.673112,448 535,462.326888 535,480 C535,497.673112 520.673112,512 503,512 L503,512 L393,512 C375.326888,512 361,497.673112 361,480 C361,462.326888 375.326888,448 393,448 L393,448 Z M743,448 C760.673112,448 775,462.326888 775,480 C775,497.673112 760.673112,512 743,512 L743,512 L633,512 C615.326888,512 601,497.673112 601,480 C601,462.326888 615.326888,448 633,448 L633,448 Z M263,448 C280.673112,448 295,462.326888 295,480 C295,497.673112 280.673112,512 263,512 L263,512 L153,512 C135.326888,512 121,497.673112 121,480 C121,462.326888 135.326888,448 153,448 L153,448 Z M206,144 L64,144 L64,280 L832,280 L832,144 L690,144 L690,220 C690,237.496381 675.958217,251.713128 658.529179,251.995713 L658,252 C640.326888,252 626,237.673112 626,220 L626,220 L626,144 L270,144 L270,220 C270,237.496381 255.958217,251.713128 238.529179,251.995713 L238,252 C220.326888,252 206,237.673112 206,220 L206,220 L206,144 Z" id="path-1"></path>

    </svg>
