<svg width="1024px" height="1024px" viewBox="0 0 1024 1024" version="1.1" xmlns="http://www.w3.org/2000/svg" xmlns:xlink="http://www.w3.org/1999/xlink">

        <path d="M176,478 C273.202116,478 352,556.797884 352,654 C352,751.202116 273.202116,830 176,830 C78.797884,830 1.1903826e-14,751.202116 0,654 C-1.1903826e-14,556.797884 78.797884,478 176,478 Z M798,622 C815.496381,622 829.713128,636.041783 829.995713,653.470821 L830,654 L830,798 C830,815.496381 815.958217,829.713128 798.529179,829.995713 L798,830 L654,830 C636.503619,830 622.286872,815.958217 622.004287,798.529179 L622,798 L622,654 C622,636.503619 636.041783,622.286872 653.470821,622.004287 L654,622 L798,622 Z M480,715 C497.673112,715 512,729.326888 512,747 C512,764.496381 497.958217,778.713128 480.529179,778.995713 L480,779 L450,779 C432.326888,779 418,764.673112 418,747 C418,729.503619 432.041783,715.286872 449.470821,715.004287 L450,715 L480,715 Z M176,542 C114.144108,542 64,592.144108 64,654 C64,715.855892 114.144108,766 176,766 C237.855892,766 288,715.855892 288,654 C288,592.144108 237.855892,542 176,542 Z M766,686 L686,686 L686,766 L766,766 L766,686 Z M714,528 C731.673112,528 746,542.326888 746,560 C746,577.673112 731.673112,592 714,592 L714,592 L592,592 L592,714 C592,731.496381 577.958217,745.713128 560.529179,745.995713 L560,746 C542.326888,746 528,731.673112 528,714 L528,714 L528,560 C528,542.326888 542.326888,528 560,528 L560,528 Z M480,529 C497.673112,529 512,543.326888 512,561 C512,578.496381 497.958217,592.713128 480.529179,592.995713 L480,593 L450,593 C432.326888,593 418,578.673112 418,561 C418,543.503619 432.041783,529.286872 449.470821,529.004287 L450,529 L480,529 Z M176,0 C273.202116,-1.7855739e-14 352,78.797884 352,176 C352,273.202116 273.202116,352 176,352 C78.797884,352 1.1903826e-14,273.202116 0,176 C-1.1903826e-14,78.797884 78.797884,1.7855739e-14 176,0 Z M798,237 C815.673112,237 830,251.326888 830,269 C830,286.496381 815.958217,300.713128 798.529179,300.995713 L798,301 L450,301 C432.326888,301 418,286.673112 418,269 C418,251.503619 432.041783,237.286872 449.470821,237.004287 L450,237 L798,237 Z M176,64 C114.144108,64 64,114.144108 64,176 C64,237.855892 114.144108,288 176,288 C237.855892,288 288,237.855892 288,176 C288,114.144108 237.855892,64 176,64 Z M798,51 C815.673112,51 830,65.326888 830,83 C830,100.496381 815.958217,114.713128 798.529179,114.995713 L798,115 L450,115 C432.326888,115 418,100.673112 418,83 C418,65.5036191 432.041783,51.2868724 449.470821,51.0042871 L450,51 L798,51 Z" id="path-1"></path>

    </svg>
