<svg width="1024px" height="1024px" viewBox="0 0 1024 1024" version="1.1" xmlns="http://www.w3.org/2000/svg" xmlns:xlink="http://www.w3.org/1999/xlink">

        <path d="M558,0 C567.693941,0 576.381113,4.31048888 582.249381,11.1193314 L818.840987,247.711939 C823.252532,252.123483 826.106737,257.502634 827.403602,263.166233 C828.063797,265.619132 828.439379,268.18826 828.493255,270.836353 L828.5,271.5 L828.5,528.5 C828.5,530.431818 828.328818,532.323654 828.000795,534.161167 L828,794 C828,811.673112 813.673112,826 796,826 L32,826 C14.326888,826 2.164332e-15,811.673112 0,794 L0,32 C-2.164332e-15,14.326888 14.326888,3.24649801e-15 32,0 L558,0 Z M544.62,64 L468,64 L468,258 L467.995713,258.529179 C467.713128,275.958217 453.496381,290 436,290 L436,290 L182,290 L181.470821,289.995713 C164.041783,289.713128 150,275.496381 150,258 L150,258 L150,64 L64,64 L64,762 L150,762 L150,527 C150,509.503619 164.041783,495.286872 181.470821,495.004287 L182,495 L182,495 L646,495 L646,495 L646.529179,495.004287 C663.958217,495.286872 678,509.503619 678,527 L678,527 L678,762 L764,762 L764,386 L764.5,386 L764.5,283.88 L544.62,64 Z M614,559 L214,559 L214,762 L614,762 L614,559 Z M404,64 L214,64 L214,226 L404,226 L404,64 Z M342,86 C359.673112,86 374,100.326888 374,118 L374,118 L374,178 L373.995713,178.529179 C373.713128,195.958217 359.496381,210 342,210 C324.326888,210 310,195.673112 310,178 L310,178 L310,118 L310.004287,117.470821 C310.286872,100.041783 324.503619,86 342,86 Z" id="path-1"></path>

    </svg>
