<svg width="1024px" height="1024px" viewBox="0 0 1024 1024" version="1.1" xmlns="http://www.w3.org/2000/svg" xmlns:xlink="http://www.w3.org/1999/xlink">

        <path d="M378,0 C575.984733,0 738.418572,152.211474 754.664366,345.997272 L1034,346 C1051.67311,346 1066,360.326888 1066,378 C1066,395.673112 1051.67311,410 1034,410 L754.66445,410.001727 C738.419132,603.788002 575.985074,756 378,756 C169.236365,756 0,586.763635 0,378 C0,169.236365 169.236365,0 378,0 Z M378,64 C204.582589,64 64,204.582589 64,378 C64,551.417411 204.582589,692 378,692 C551.417411,692 692,551.417411 692,378 C692,204.582589 551.417411,64 378,64 Z" id="path-1"></path>

    </svg>
