<svg width="1024px" height="1024px" viewBox="0 0 1024 1024" version="1.1" xmlns="http://www.w3.org/2000/svg" xmlns:xlink="http://www.w3.org/1999/xlink">

        <path d="M661,120 C678.673112,120 693,134.326888 693,152 L693,276 C693,293.673112 678.673112,308 661,308 L479.999,308 L479.999777,481.125234 C630.35136,491.736215 760.219205,576.538487 833.216149,699.144887 C845.067507,704.165856 856.170654,711.506657 865.831998,721.168002 C906.056001,761.392004 906.056001,826.607996 865.831998,866.831998 C825.607996,907.056001 760.392004,907.056001 720.168002,866.831998 C679.943999,826.607996 679.943999,761.392004 720.168002,721.168002 C730.575793,710.76021 742.656784,703.04539 755.545107,698.023543 C691.507565,612.522883 592.648209,554.608316 480.002268,545.314548 L480.000183,696.073849 C494.929926,700.939323 508.968038,709.304041 520.831998,721.168002 C561.056001,761.392004 561.056001,826.607996 520.831998,866.831998 C480.607996,907.056001 415.392004,907.056001 375.168002,866.831998 C334.943999,826.607996 334.943999,761.392004 375.168002,721.168002 C387.031697,709.304306 401.069447,700.939697 415.998816,696.074175 L415.996732,545.31463 C303.351206,554.608659 204.492245,612.523136 140.453686,698.024224 C153.343216,703.04539 165.424207,710.76021 175.831998,721.168002 C216.056001,761.392004 216.056001,826.607996 175.831998,866.831998 C135.607996,907.056001 70.3920036,907.056001 30.1680015,866.831998 C-10.0560005,826.607996 -10.0560005,761.392004 30.1680015,721.168002 C39.8293464,711.506657 50.9324926,704.165856 62.7848319,699.1456 C135.780633,576.53876 265.648064,491.736592 415.999221,481.125305 L415.999,308 L235,308 C217.326888,308 203,293.673112 203,276 L203,152 C203,134.326888 217.326888,120 235,120 L661,120 Z M75.4228355,766.422836 C60.1923882,781.653283 60.1923882,806.346717 75.4228355,821.577164 C90.6532829,836.807612 115.346717,836.807612 130.577164,821.577164 C145.807612,806.346717 145.807612,781.653283 130.577164,766.422836 C115.346717,751.192388 90.6532829,751.192388 75.4228355,766.422836 Z M765.422836,766.422836 C750.192388,781.653283 750.192388,806.346717 765.422836,821.577164 C780.653283,836.807612 805.346717,836.807612 820.577164,821.577164 C835.807612,806.346717 835.807612,781.653283 820.577164,766.422836 C805.346717,751.192388 780.653283,751.192388 765.422836,766.422836 Z M420.422836,766.422836 C405.192388,781.653283 405.192388,806.346717 420.422836,821.577164 C435.653283,836.807612 460.346717,836.807612 475.577164,821.577164 C490.807612,806.346717 490.807612,781.653283 475.577164,766.422836 C460.346717,751.192388 435.653283,751.192388 420.422836,766.422836 Z M831,-1.13686838e-13 C848.496381,-5.7411853e-14 862.713128,14.0417829 862.995713,31.4708215 L863,32 L863,396 C863,413.496381 848.958217,427.713128 831.529179,427.995713 L831,428 L625,428 C607.326888,428 593,413.673112 593,396 C593,378.503619 607.041783,364.286872 624.470821,364.004287 L625,364 L799,364 L799,64 L97,64 L97,364 L271,364 C288.673112,364 303,378.326888 303,396 C303,413.496381 288.958217,427.713128 271.529179,427.995713 L271,428 L65,428 C47.5036191,428 33.2868724,413.958217 33.0042871,396.529179 L33,396 L33,32 C33,14.5036191 47.0417829,0.286872383 64.4708215,0.00428708574 L65,-1.13686838e-13 L831,-1.13686838e-13 Z" id="path-1"></path>

    </svg>
