<svg width="1024px" height="1024px" viewBox="0 0 1024 1024" version="1.1" xmlns="http://www.w3.org/2000/svg" xmlns:xlink="http://www.w3.org/1999/xlink">

        <path d="M162,426 C162.358848,426 162.716317,426.005907 163.072314,426.017628 C174.27007,425.879266 185.212676,431.63246 191.210288,442.020628 L244.315,534 L471.561606,534.000785 C482.462286,515.156143 502.695564,502.385474 525.941643,502.008574 L527,502 C562.346224,502 591,530.653776 591,566 C591,601.346224 562.346224,630 527,630 C503.311051,630 482.628113,617.129738 471.562182,598.000209 L281.265,598 L325.144,674 L654.203958,673.999525 C668.288245,621.584433 716.138184,583 773,583 C840.931024,583 896,638.068976 896,706 C896,773.931024 840.931024,829 773,829 C716.138546,829 668.288855,790.416058 654.204227,738.001476 L307,738 C296.012423,738 286.318246,732.462297 280.556201,724.025623 C279.545006,722.766508 278.617193,721.41383 277.784662,719.971843 L207.364,598 L32,598 C14.5036191,598 0.286872383,583.958217 0.00428708574,566.529179 L0,566 C2.164332e-15,548.326888 14.326888,534 32,534 L32,534 L170.413,534 L145.01,490 L32,490 C14.5036191,490 0.286872383,475.958217 0.00428708574,458.529179 L0,458 C2.164332e-15,440.326888 14.326888,426 32,426 L32,426 Z M773,647 C740.4152,647 714,673.4152 714,706 C714,738.5848 740.4152,765 773,765 C805.5848,765 832,738.5848 832,706 C832,673.4152 805.5848,647 773,647 Z M538,197 C605.931024,197 661,252.068976 661,320 C661,387.931024 605.931024,443 538,443 C481.138546,443 433.288855,404.416058 419.204227,352.001476 L32,352 C14.326888,352 -2.164332e-15,337.673112 0,320 C2.164332e-15,302.326888 14.326888,288 32,288 L32,288 L419.203958,287.999525 C433.288245,235.584433 481.138184,197 538,197 Z M538,261 C505.4152,261 479,287.4152 479,320 C479,352.5848 505.4152,379 538,379 C570.5848,379 597,352.5848 597,320 C597,287.4152 570.5848,261 538,261 Z M658,0 C693.346224,0 722,28.653776 722,64 C722,99.346224 693.346224,128 658,128 C634.311051,128 613.628113,115.129738 602.562182,96.0002093 L331.254,96 L182.937554,244.31728 C182.888495,244.366339 182.839317,244.415205 182.790019,244.463879 C176.987339,250.350419 168.919872,254 160,254 L160,254 L32,254 C14.326888,254 -2.164332e-15,239.673112 0,222 C2.164332e-15,204.326888 14.326888,190 32,190 L32,190 L146.744,190 L295.372583,41.372583 C295.604217,41.1409486 295.839387,40.9128487 296.078002,40.6883714 L296.126532,40.6428231 C296.309219,40.4716141 296.493423,40.3029502 296.679101,40.1368314 C296.741838,40.0809796 296.805233,40.0247455 296.868852,39.96876 C296.90748,39.9343884 296.945739,39.9008579 296.984059,39.8674339 C297.066932,39.7956281 297.150453,39.7235813 297.234349,39.6519605 C297.312095,39.5849466 297.390368,39.5187183 297.468882,39.4529259 C297.509986,39.4192544 297.551036,39.3850562 297.592173,39.350959 C297.686026,39.2722817 297.780369,39.1949259 297.875049,39.1181911 C297.904504,39.0953401 297.933551,39.0719008 297.962639,39.0485112 C299.501108,37.8094383 301.128042,36.7343427 302.819739,35.8225717 C302.901571,35.7786013 302.983686,35.7347315 303.066014,35.6912103 C303.126953,35.6590755 303.187939,35.6271478 303.249007,35.5954302 C307.663123,33.2982465 312.67995,32 318,32 L318,32 L602.561606,32.0007852 C613.627396,12.8707084 634.31064,0 658,0 Z" id="path-1"></path>

    </svg>
