<svg width="1024px" height="1024px" viewBox="0 0 1024 1024" version="1.1" xmlns="http://www.w3.org/2000/svg" xmlns:xlink="http://www.w3.org/1999/xlink">

        <path d="M577.5,0 C595.173112,0 609.5,14.326888 609.5,32 L609.5,32 L609.5,134 L758,134 C775.496381,134 789.713128,148.041783 789.995713,165.470821 L790,166 L790,285.5 L862.5,285.5 C880.173112,285.5 894.5,299.826888 894.5,317.5 C894.5,335.173112 880.173112,349.5 862.5,349.5 L790,349.5 L790,545.5 L862.5,545.5 C880.173112,545.5 894.5,559.826888 894.5,577.5 C894.5,595.173112 880.173112,609.5 862.5,609.5 L790,609.5 L790,728 C790,745.496381 775.958217,759.713128 758.529179,759.995713 L758,760 L609.5,760 L609.5,863 C609.5,880.496381 595.458217,894.713128 578.029179,894.995713 L577.5,895 C559.826888,895 545.5,880.673112 545.5,863 L545.5,863 L545.5,760 L349.5,760 L349.5,863 C349.5,880.496381 335.458217,894.713128 318.029179,894.995713 L317.5,895 C299.826888,895 285.5,880.673112 285.5,863 L285.5,863 L285.5,760 L136,760 C118.503619,760 104.286872,745.958217 104.004287,728.529179 L104,728 L104,609.5 L32.5,609.5 C14.826888,609.5 0.5,595.173112 0.5,577.5 C0.5,559.826888 14.826888,545.5 32.5,545.5 L104,545.5 L104,349.5 L32.5,349.5 C14.826888,349.5 0.5,335.173112 0.5,317.5 C0.5,299.826888 14.826888,285.5 32.5,285.5 L104,285.5 L104,166 C104,148.503619 118.041783,134.286872 135.470821,134.004287 L136,134 L285.5,134 L285.5,32 C285.5,14.5036191 299.541783,0.286872383 316.970821,0.00428708574 L317.5,0 C335.173112,0 349.5,14.326888 349.5,32 L349.5,32 L349.5,134 L545.5,134 L545.5,32 C545.5,14.5036191 559.541783,0.286872383 576.970821,0.00428708574 Z M726,198 L168,198 L168.001187,307.792903 C168.974698,310.854516 169.5,314.115913 169.5,317.5 C169.5,320.884087 168.974698,324.145484 168.001187,327.207097 L168.001187,567.792903 C168.974698,570.854516 169.5,574.115913 169.5,577.5 C169.5,580.884087 168.974698,584.145484 168.001187,587.207097 L168,696 L726,696 L726.000273,583.167147 C725.671554,581.327758 725.5,579.433913 725.5,577.5 C725.5,575.566087 725.671554,573.672242 726.000273,571.832853 L726.000273,323.167147 C725.671554,321.327758 725.5,319.433913 725.5,317.5 C725.5,315.566087 725.671554,313.672242 726.000273,311.832853 L726,198 Z M578.5,284 C595.996381,284 610.213128,298.041783 610.495713,315.470821 L610.5,316 L610.5,578 C610.5,595.496381 596.458217,609.713128 579.029179,609.995713 L578.5,610 L316.5,610 C299.003619,610 284.786872,595.958217 284.504287,578.529179 L284.5,578 L284.5,316 C284.5,298.503619 298.541783,284.286872 315.970821,284.004287 L316.5,284 L578.5,284 Z M546.5,348 L348.5,348 L348.5,546 L546.5,546 L546.5,348 Z" id="path-1"></path>

    </svg>
