<svg width="1024px" height="1024px" viewBox="0 0 1024 1024" version="1.1" xmlns="http://www.w3.org/2000/svg" xmlns:xlink="http://www.w3.org/1999/xlink">

        <path d="M864,0 C881.673112,0 896,14.326888 896,32 L896,32 L896,182 C896,199.673112 881.673112,214 864,214 L864,214 L64,214 L64,762 L832,762 L832,729 C832,711.503619 846.041783,697.286872 863.470821,697.004287 L864,697 C881.673112,697 896,711.326888 896,729 L896,729 L896,794 C896,811.673112 881.673112,826 864,826 L864,826 L32,826 C14.326888,826 -2.164332e-15,811.673112 0,794 L0,794 L0,32 C2.164332e-15,14.326888 14.326888,0 32,0 L32,0 Z M762.170734,320.028923 L762.514167,320.431542 L888.500539,470.576252 C893.55426,476.599043 896.010263,483.937084 895.987708,491.228364 C896.010154,498.519406 893.554148,505.857254 888.500539,511.879911 L762.514167,662.024622 C751.15411,675.563011 730.969931,677.328898 717.431542,665.96884 C703.893152,654.608783 702.127265,634.424604 713.487323,620.886215 L822.283,491.228 L713.487323,361.569949 C702.240866,348.166943 703.859147,328.250399 717.028923,316.830756 L717.431542,316.487323 C730.834547,305.240866 750.751091,306.859147 762.170734,320.028923 Z M404.152291,316.153787 L404.55632,316.487323 L404.958939,316.830756 C417.997017,328.136203 419.713475,347.769462 408.834074,361.165919 L408.500539,361.569949 L299.704862,491.228 L408.500539,620.886215 C419.860596,634.424604 418.094709,654.608783 404.55632,665.96884 C391.153315,677.215297 371.236771,675.597016 359.817128,662.42724 L359.473694,662.024622 L233.487323,511.879911 C228.433714,505.857254 225.977708,498.519406 226.000154,491.228364 C225.978123,484.106649 228.320709,476.940322 233.138951,470.998564 L233.487323,470.576252 L359.473694,320.431542 L359.817128,320.028923 C371.122574,306.990845 390.755834,305.274387 404.152291,316.153787 Z M592.256672,313.734604 C609.66129,316.803508 621.282682,333.400577 618.213778,350.805194 L566.813918,642.308289 C563.745014,659.712907 547.147946,671.334299 529.743328,668.265396 C512.33871,665.196492 500.717318,648.599423 503.786222,631.194806 L555.186082,339.691711 C558.254986,322.287093 574.852054,310.665701 592.256672,313.734604 Z M64,150 L832,150 L832,64 L64,64 L64,150 Z" id="path-1"></path>

    </svg>
