<svg width="1024px" height="1024px" viewBox="0 0 1024 1024" version="1.1" xmlns="http://www.w3.org/2000/svg" xmlns:xlink="http://www.w3.org/1999/xlink">

        <path d="M402.349887,6.43475085 C467.848752,53.8137307 530.565456,84.0021471 590.5,97 C639.686849,107.667027 684.789303,107.568788 725.807363,96.7052815 C742.891456,92.1806135 760.408819,102.362038 764.933488,119.446131 C765.641509,122.119453 766,124.873278 766,127.638769 L766,339 L766,486 C766,651.579543 644.886366,785.536727 402.659097,887.871553 L395.281805,890.962928 C387.419959,894.230616 378.58004,894.230616 370.718194,890.962928 C123.572731,788.239706 0,653.252063 0,486 L0,129.54348 C1.75557824e-07,111.870368 14.3268881,97.5434799 32,97.5434799 C34.8317321,97.5434799 37.6509368,97.9193496 40.3837563,98.6612418 C78.1183058,108.90523 123.157054,108.351482 175.5,97 C240.493539,82.9050155 302.792761,53.3308559 362.397666,8.27752107 L364.20305,6.90753071 C375.424471,-1.64104092 390.920049,-1.83308822 402.349887,6.43475085 Z M367.343301,80.4180197 C317.243044,118.587706 264.853153,143.602127 210.173629,155.461283 C166.57749,164.916622 129.064946,165.377914 97.6359993,156.845159 C95.3597014,156.227159 93.0114395,155.914057 90.6527415,155.914057 C76.0800381,155.914057 64.2389359,167.609432 64.0035707,182.126046 L64,182.566798 L64,479.484513 C64,618.799401 166.923265,731.239231 372.769796,816.804002 C379.166037,819.462745 386.339635,819.524576 392.772032,816.989496 L393.230208,816.804002 L399.374726,814.228995 C599.107407,729.840158 699.972411,619.635248 701.969737,483.614263 L702,479.484513 L702,180.980239 C702,178.676711 701.701373,176.382902 701.111585,174.156157 C697.342749,159.926913 682.752422,151.447077 668.523178,155.215912 C634.359431,164.26471 596.793828,164.346501 555.826371,155.461283 C505.907245,144.634585 453.670885,119.488897 399.117292,80.02422 C389.597069,73.1371843 376.689913,73.2971527 367.343301,80.4180197 Z M636.025998,293.090359 C648.522775,305.587136 648.522775,325.848416 636.025998,338.345193 L365.531134,608.840496 C365.189221,609.21622 364.836763,609.585773 364.473762,609.948775 C351.976985,622.445552 331.715705,622.445552 319.218928,609.948775 L162.948329,453.678176 C150.451552,441.181399 150.451552,420.920119 162.948329,408.423342 C175.445107,395.926565 195.706386,395.926565 208.203163,408.423342 L341.820296,542.040246 L590.771164,293.090359 C603.267941,280.593582 623.529221,280.593582 636.025998,293.090359 Z" id="path-1"></path>

    </svg>
