<svg width="1024px" height="1024px" viewBox="0 0 1024 1024" version="1.1" xmlns="http://www.w3.org/2000/svg" xmlns:xlink="http://www.w3.org/1999/xlink">

        <path d="M798,152.019336 C815.496381,152.019336 829.713128,166.061119 829.995713,183.490157 L830,184.019336 L830,864.019336 C830,881.515717 815.958217,895.732464 798.529179,896.015049 L798,896.019336 L258,896.019336 C240.503619,896.019336 226.286872,881.977553 226.004287,864.548514 L226,864.019336 L226,628.019336 C226,610.346224 240.326888,596.019336 258,596.019336 C275.496381,596.019336 289.713128,610.061119 289.995713,627.490157 L290,628.019336 L290,832.019336 L766,832.019336 L766,216.019336 L576,216.019336 C558.503619,216.019336 544.286872,201.977553 544.004287,184.548514 L544,184.019336 C544,166.522955 558.041783,152.306208 575.470821,152.023623 L576,152.019336 L798,152.019336 Z M560.5,476.5 C643.894997,476.5 711.5,544.105003 711.5,627.5 C711.5,710.894997 643.894997,778.5 560.5,778.5 C477.105003,778.5 409.5,710.894997 409.5,627.5 C409.5,544.105003 477.105003,476.5 560.5,476.5 Z M352,0.0193359833 C369.673112,0.0193359833 384,14.346224 384,32.019336 C384,49.5157169 369.958217,63.7324636 352.529179,64.0150489 L352,64.019336 L64,64.019336 L64,680.019336 L140,680.019336 C157.496381,680.019336 171.713128,694.061119 171.995713,711.490157 L172,712.019336 C172,729.515717 157.958217,743.732464 140.529179,744.015049 L140,744.019336 L32,744.019336 C14.5036191,744.019336 0.286872383,729.977553 0.00428708574,712.548514 L0,712.019336 L0,32.019336 C2.14268868e-15,14.5229551 14.0417829,0.306208366 31.4708215,0.0236230691 L32,0.0193359833 L352,0.0193359833 Z M560.5,540.5 C512.451227,540.5 473.5,579.451227 473.5,627.5 C473.5,675.548773 512.451227,714.5 560.5,714.5 C608.548773,714.5 647.5,675.548773 647.5,627.5 C647.5,579.451227 608.548773,540.5 560.5,540.5 Z M150.20243,367.814519 L457.289855,367.814878 C474.962967,367.814878 489.289855,382.141766 489.289855,399.814878 C489.289855,417.48799 474.962967,431.814878 457.289855,431.814878 L226.489813,431.815191 L262.356898,467.681774 C274.853675,480.178552 274.853675,500.439831 262.356898,512.936608 C249.86012,525.433386 229.598841,525.433386 217.102064,512.936608 L126.592396,422.42694 C114.095618,409.930163 114.095618,389.668884 126.592396,377.172106 C133.09072,370.673782 141.688566,367.554586 150.20243,367.814519 Z M389.407604,134.172106 L479.917272,224.681774 C492.41405,237.178552 492.41405,257.439831 479.917272,269.936608 C473.418948,276.434932 464.821102,279.554128 456.307238,279.294195 L149.219813,279.293836 C131.546701,279.293836 117.219813,264.966948 117.219813,247.293836 C117.219813,229.620724 131.546701,215.293836 149.219813,215.293836 L380.019855,215.293523 L344.15277,179.42694 C331.655993,166.930163 331.655993,146.668884 344.15277,134.172106 C356.649548,121.675329 376.910827,121.675329 389.407604,134.172106 Z" id="path-1"></path>

    </svg>
