<svg width="1024px" height="1024px" viewBox="0 0 1024 1024" version="1.1" xmlns="http://www.w3.org/2000/svg" xmlns:xlink="http://www.w3.org/1999/xlink">

        <path d="M773,766 C790.673112,766 805,780.326888 805,798 C805,815.496381 790.958217,829.713128 773.529179,829.995713 L773,830 L115,830 C97.326888,830 83,815.673112 83,798 C83,780.503619 97.0417829,766.286872 114.470821,766.004287 L115,766 L773,766 Z M517,0 C534.673112,0 549,14.326888 549,32 C549,49.4963809 534.958217,63.7131276 517.529179,63.9957129 L517,64 L64,64 L64,626 L824,626 L824,362 C824,344.503619 838.041783,330.286872 855.470821,330.004287 L856,330 C873.496381,330 887.713128,344.041783 887.995713,361.470821 L888,362 L888,658 C888,675.496381 873.958217,689.713128 856.529179,689.995713 L856,690 L32,690 C14.5036191,690 0.286872383,675.958217 0.00428708574,658.529179 L0,658 L0,32 C2.14268868e-15,14.5036191 14.0417829,0.286872383 31.4708215,0.00428708574 L32,0 L517,0 Z M855.891179,0.0961940776 C864.81952,0.0961940776 872.893837,3.75270895 878.698328,9.64993899 C884.481805,15.3426424 888.110111,23.2187239 888.247522,31.9424555 L888.251569,32.4565838 L888.251569,228.456584 C888.251569,246.129696 873.924681,260.456584 856.251569,260.456584 C838.755188,260.456584 824.538441,246.414801 824.255856,228.985762 L824.251569,228.456584 L824.251,111.863 L542.874242,393.241165 C536.687346,399.428061 528.597345,402.551952 520.488613,402.612841 L519.992153,402.612741 C511.883464,402.677002 503.75482,399.678134 497.490899,393.616135 L497.10974,393.241165 L368.868766,265.000348 L284.56927,349.301908 C304.122882,387.945729 297.754298,436.342497 265.463518,468.633277 C225.239516,508.857279 160.023523,508.857279 119.799521,468.633277 C79.5755191,428.409275 79.5755191,363.193282 119.799521,322.96928 C152.157403,290.611398 200.688281,284.28356 239.371676,303.985765 L345.986327,197.372587 C352.299486,191.059428 360.594221,187.93557 368.868416,188.001011 C376.977105,187.936751 385.105749,190.935618 391.36967,196.997617 L391.750829,197.372587 L519.991766,325.613348 L781.509,64.095 L659.891179,64.0961941 C642.218067,64.0961941 627.891179,49.7693061 627.891179,32.0961941 C627.891179,14.4230821 642.218067,0.0961940776 659.891179,0.0961940776 L855.891179,0.0961940776 Z M165.054355,368.224114 C149.823908,383.454561 149.823908,408.147996 165.054355,423.378443 C180.284803,438.60889 204.978237,438.60889 220.208684,423.378443 C235.439131,408.147996 235.439131,383.454561 220.208684,368.224114 C204.978237,352.993667 180.284803,352.993667 165.054355,368.224114 Z" id="path-1"></path>

    </svg>
