<svg width="1024px" height="1024px" viewBox="0 0 1024 1024" version="1.1" xmlns="http://www.w3.org/2000/svg" xmlns:xlink="http://www.w3.org/1999/xlink">

        <path d="M448,0 C695.423568,0 896,200.576432 896,448 C896,695.423568 695.423568,896 448,896 C200.576432,896 0,695.423568 0,448 C0,200.576432 200.576432,0 448,0 Z M448,64 C235.922656,64 64,235.922656 64,448 C64,660.077344 235.922656,832 448,832 C660.077344,832 832,660.077344 832,448 C832,235.922656 660.077344,64 448,64 Z M448.301679,181 C459.860481,181 470.370836,186.895041 476.389697,196.780571 L476.402641,196.780571 L554.835518,325.402586 L701.30094,360.345279 C712.549091,363.02072 721.396169,371.19604 724.975126,382.208754 C728.541139,393.221467 726.191842,405.037461 718.652086,413.834676 L620.693506,528.263247 L632.750644,678.470181 C633.676125,690.007618 628.640991,700.968507 619.276162,707.770477 C609.937219,714.578926 597.990104,715.984666 587.272648,711.5148 L448.301679,653.620317 L309.298351,711.521278 C305.188699,713.237966 300.878418,714.091779 296.600496,714.091779 C289.798536,714.091779 283.074239,711.948831 277.327197,707.770477 C267.962367,700.962029 262.91429,690.007618 263.846243,678.470181 L275.916324,528.256769 L177.944801,413.828198 C170.42446,405.043939 168.062219,393.221467 171.634704,382.208754 C175.20719,371.19604 184.054268,363.02072 195.302419,360.345279 L341.767841,325.402586 L420.20719,196.780571 C426.238994,186.901519 436.742878,181 448.301679,181 Z M448.497041,244 L380.205747,355.867245 C376.033344,362.67918 369.209541,367.626859 361.468401,369.461524 L234,399.845951 L319.28274,499.367673 C324.455337,505.392477 327.065308,513.399904 326.43205,521.34223 L315.927063,651.994082 L436.932678,601.641393 C440.667127,600.096723 444.585043,599.321429 448.502959,599.321429 C452.414957,599.321429 456.321037,600.096723 460.037731,601.635475 L581.055182,652 L570.562032,521.359985 C569.916937,513.453169 572.526908,505.433905 577.705423,499.373591 L663,399.851869 L535.502007,369.461524 C527.766786,367.632777 520.937065,362.67918 516.788334,355.867245 L448.497041,244 Z" id="path-1"></path>

    </svg>
