<svg width="1024px" height="1024px" viewBox="0 0 1024 1024" version="1.1" xmlns="http://www.w3.org/2000/svg" xmlns:xlink="http://www.w3.org/1999/xlink">

        <path d="M448,0 C695.423568,0 896,200.576432 896,448 C896,695.423568 695.423568,896 448,896 C200.576432,896 0,695.423568 0,448 C0,200.576432 200.576432,0 448,0 Z M447.651804,242 C429.978692,242 415.651804,256.326888 415.651804,274 L415.651804,274 L415.652154,544.490042 L313.627417,442.46492 L313.2502,442.093766 C300.726191,429.969392 280.744393,430.09311 268.372583,442.46492 C255.875806,454.961697 255.875806,475.222977 268.372583,487.719754 L268.372583,487.719754 L422.389753,641.73769 C423.191465,642.764161 424.064558,643.752986 425.009032,644.697459 C431.300688,650.989116 439.560447,654.11316 447.806577,654.069588 C456.053039,654.113413 464.313211,650.98937 470.605122,644.697459 C471.549596,643.752986 472.422689,642.764161 473.224401,641.73769 L473.224401,641.73769 L627.241571,487.719754 C639.738348,475.222977 639.738348,454.961697 627.241571,442.46492 C614.744794,429.968143 594.483514,429.968143 581.986737,442.46492 L581.986737,442.46492 L479.652154,544.800042 L479.651804,274 C479.651804,256.326888 465.324916,242 447.651804,242 Z" id="path-1"></path>

    </svg>
