<svg width="1024px" height="1024px" viewBox="0 0 1024 1024" version="1.1" xmlns="http://www.w3.org/2000/svg" xmlns:xlink="http://www.w3.org/1999/xlink">

        <path d="M448,0 C695.423568,0 896,200.576432 896,448 C896,695.423568 695.423568,896 448,896 C200.576432,896 0,695.423568 0,448 C0,200.576432 200.576432,0 448,0 Z M628.312229,274.758839 C615.815452,262.262061 595.554173,262.262061 583.057395,274.758839 L583.057395,274.758839 L451.535534,406.2807 L320.013673,274.758839 C307.516895,262.262061 287.255616,262.262061 274.758839,274.758839 C262.262061,287.255616 262.262061,307.516895 274.758839,320.013673 L274.758839,320.013673 L406.279993,451.534827 L274.758839,583.057395 C262.262061,595.554173 262.262061,615.815452 274.758839,628.312229 C287.255616,640.809007 307.516895,640.809007 320.013673,628.312229 L320.013673,628.312229 L451.534827,496.789661 L583.057395,628.312229 C595.554173,640.809007 615.815452,640.809007 628.312229,628.312229 C640.809007,615.815452 640.809007,595.554173 628.312229,583.057395 L628.312229,583.057395 L496.790368,451.535534 L628.312229,320.013673 C640.809007,307.516895 640.809007,287.255616 628.312229,274.758839 Z" id="path-1"></path>

    </svg>
