<svg width="1024px" height="1024px" viewBox="0 0 1024 1024" version="1.1" xmlns="http://www.w3.org/2000/svg" xmlns:xlink="http://www.w3.org/1999/xlink">

        <path d="M448,0 C695.423568,0 896,200.576432 896,448 C896,695.423568 695.423568,896 448,896 C200.576432,896 0,695.423568 0,448 C0,200.576432 200.576432,0 448,0 Z M688.415085,290.788496 C675.918308,278.291719 655.657029,278.291719 643.160251,290.788496 L643.160251,290.788496 L391.380957,542.566811 L252.814076,404.000159 C240.317299,391.503382 220.056019,391.503382 207.559242,404.000159 C195.062465,416.496936 195.062465,436.758216 207.559242,449.254993 L207.559242,449.254993 L368.779588,610.475339 C381.276365,622.972116 401.537645,622.972116 414.034422,610.475339 C414.397424,610.112337 414.749881,609.742784 415.091794,609.367061 L415.091794,609.367061 L688.415085,336.04333 C700.911863,323.546553 700.911863,303.285274 688.415085,290.788496 Z" id="path-1"></path>

    </svg>
