<svg width="1024px" height="1024px" viewBox="0 0 1024 1024" version="1.1" xmlns="http://www.w3.org/2000/svg" xmlns:xlink="http://www.w3.org/1999/xlink">

        <path d="M396.263286,608 C413.936398,608 428.263286,622.326888 428.263286,640 L428.263286,798 C428.263286,815.673112 413.936398,830 396.263286,830 C378.590174,830 364.263286,815.673112 364.263286,798 L364.263286,640 C364.263286,622.326888 378.590174,608 396.263286,608 Z M554.403511,578.219696 L647.273581,706.044381 C657.661576,720.342229 654.492013,740.354058 640.194165,750.742053 C625.896317,761.130047 605.884488,757.960485 595.496494,743.662637 L502.626424,615.837952 C492.238429,601.540104 495.407991,581.528275 509.705839,571.14028 C524.003687,560.752285 544.015517,563.921848 554.403511,578.219696 Z M282.820732,571.14028 C297.11858,581.528275 300.288142,601.540104 289.900148,615.837952 L197.030078,743.662637 C186.642083,757.960485 166.630254,761.130047 152.332406,750.742053 C138.034558,740.354058 134.864996,720.342229 145.25299,706.044381 L238.12306,578.219696 C248.511055,563.921848 268.522884,560.752285 282.820732,571.14028 Z M212.709378,474.64028 C218.17067,491.448408 208.972242,509.50134 192.164113,514.962632 L41.8971838,563.787317 C25.0890555,569.248609 7.03612341,560.050181 1.57483146,543.242053 C-3.88646049,526.433924 5.31196783,508.380992 22.1200962,502.9197 L172.387026,454.095015 C189.195154,448.633723 207.248086,457.832152 212.709378,474.64028 Z M620.139546,454.095015 L770.406475,502.9197 C787.214604,508.380992 796.413032,526.433924 790.95174,543.242053 C785.490448,560.050181 767.437516,569.248609 750.629388,563.787317 L600.362458,514.962632 C583.55433,509.50134 574.355901,491.448408 579.817193,474.64028 C585.278485,457.832152 603.331417,448.633723 620.139546,454.095015 Z M790.95174,286.757947 C796.413032,303.566076 787.214604,321.619008 770.406475,327.0803 L620.139546,375.904985 C603.331417,381.366277 585.278485,372.167848 579.817193,355.35972 C574.355901,338.551592 583.55433,320.49866 600.362458,315.037368 L750.629388,266.212683 C767.437516,260.751391 785.490448,269.949819 790.95174,286.757947 Z M41.8971838,266.212683 L192.164113,315.037368 C208.972242,320.49866 218.17067,338.551592 212.709378,355.35972 C207.248086,372.167848 189.195154,381.366277 172.387026,375.904985 L22.1200962,327.0803 C5.31196783,321.619008 -3.88646049,303.566076 1.57483146,286.757947 C7.03612341,269.949819 25.0890555,260.751391 41.8971838,266.212683 Z M197.030078,86.3373631 L289.900148,214.162048 C300.288142,228.459896 297.11858,248.471725 282.820732,258.85972 C268.522884,269.247715 248.511055,266.078152 238.12306,251.780304 L145.25299,123.955619 C134.864996,109.657771 138.034558,89.6459419 152.332406,79.2579473 C166.630254,68.8699527 186.642083,72.0395151 197.030078,86.3373631 Z M640.194165,79.2579473 C654.492013,89.6459419 657.661576,109.657771 647.273581,123.955619 L554.403511,251.780304 C544.015517,266.078152 524.003687,269.247715 509.705839,258.85972 C495.407991,248.471725 492.238429,228.459896 502.626424,214.162048 L595.496494,86.3373631 C605.884488,72.0395151 625.896317,68.8699527 640.194165,79.2579473 Z M396.263286,0 C413.936398,-3.24649801e-15 428.263286,14.326888 428.263286,32 L428.263286,190 C428.263286,207.673112 413.936398,222 396.263286,222 C378.590174,222 364.263286,207.673112 364.263286,190 L364.263286,32 C364.263286,14.326888 378.590174,3.24649801e-15 396.263286,0 Z" id="path-1"></path>

    </svg>
