<svg width="1024px" height="1024px" viewBox="0 0 1024 1024" version="1.1" xmlns="http://www.w3.org/2000/svg" xmlns:xlink="http://www.w3.org/1999/xlink">

        <path d="M448,0 C695.423568,0 896,200.576432 896,448 C896,695.423568 695.423568,896 448,896 C200.576432,896 0,695.423568 0,448 C0,200.576432 200.576432,0 448,0 Z M448,64 C235.922656,64 64,235.922656 64,448 C64,660.077344 235.922656,832 448,832 C660.077344,832 832,660.077344 832,448 C832,235.922656 660.077344,64 448,64 Z M326,260 C343.496381,260 357.713128,274.041783 357.995713,291.470821 L358,292 L358,605 C358,622.673112 343.673112,637 326,637 C308.503619,637 294.286872,622.958217 294.004287,605.529179 L294,605 L294,292 C294,274.326888 308.326888,260 326,260 Z M570,260 C587.496381,260 601.713128,274.041783 601.995713,291.470821 L602,292 L602,605 C602,622.673112 587.673112,637 570,637 C552.503619,637 538.286872,622.958217 538.004287,605.529179 L538,605 L538,292 C538,274.326888 552.326888,260 570,260 Z" id="path-1"></path>

    </svg>
