<svg width="1024px" height="1024px" viewBox="0 0 1024 1024" version="1.1" xmlns="http://www.w3.org/2000/svg"
  xmlns:xlink="http://www.w3.org/1999/xlink">
  <path
    d="M448,0 C695.423568,0 896,200.576432 896,448 C896,695.423568 695.423568,896 448,896 C200.576432,896 0,695.423568 0,448 C0,200.576432 200.576432,0 448,0 Z M448,64 C235.922656,64 64,235.922656 64,448 C64,660.077344 235.922656,832 448,832 C660.077344,832 832,660.077344 832,448 C832,235.922656 660.077344,64 448,64 Z M358,206 C366.157638,206 373.602328,209.052493 379.254172,214.077581 L628.320206,423.06899 C635.920691,429.446554 639.810805,438.60524 639.751064,447.807242 C639.810033,456.848706 636.056246,465.847893 628.716819,472.208847 L628.320206,472.547074 L381.756627,679.4392 C375.900373,685.924379 367.426143,690 358,690 C340.326888,690 326,675.673112 326,658 L326,238 C326,220.326888 340.326888,206 358,206 Z M390,306.641 L390,588.974 L558.236769,447.808157 L390,306.641 Z"
    id="path-1"></path>
</svg>
