<svg width="1024px" height="1024px" viewBox="0 0 1024 1024" version="1.1" xmlns="http://www.w3.org/2000/svg" xmlns:xlink="http://www.w3.org/1999/xlink">

        <path d="M693.097687,499.884291 C699.324312,483.603002 717.486257,475.270456 733.927477,481.254571 C750.53477,487.299131 759.097557,505.662086 753.052996,522.269379 L753.052996,522.269379 L649.078873,807.935936 L648.920144,808.362759 C644.184398,820.830274 632.457938,828.654838 619.847444,828.98886 L619.847444,828.98886 L619.65515,828.993333 L619.65515,828.993333 L619.462708,828.996411 C619.396393,828.997408 619.330097,828.998197 619.26382,828.998779 L619.26382,828.998779 L619.129939,828.999759 L618.861511,828.999737 L618.861511,828.999737 L618.727721,828.998779 L618.727721,828.998779 L618.527146,828.996696 C618.389702,828.994713 618.252356,828.99184 618.115115,828.988079 L618.115115,828.988079 L617.685936,828.973418 C605.107306,828.458616 593.485279,820.49908 588.912669,807.935936 L588.912669,807.935936 L484.938545,522.269379 C478.893985,505.662086 487.456771,487.299131 504.064064,481.254571 C520.671357,475.21001 539.034312,483.772797 545.078873,500.38009 L545.078873,500.38009 L568.655,565.159 L669.335,565.159 L692.912669,500.38009 Z M188.806577,0.00045472058 C197.053039,-0.0433708106 205.313211,3.08067195 211.605122,9.372583 C212.549596,10.3170569 213.422689,11.3058812 214.224401,12.332352 L214.224401,12.332352 L368.241571,166.350288 C380.738348,178.847066 380.738348,199.108345 368.241571,211.605122 C355.744794,224.1019 335.483514,224.1019 322.986737,211.605122 L322.986737,211.605122 L220.652154,109.27 L220.651804,796.070043 C220.651804,813.743155 206.324916,828.070043 188.651804,828.070043 C170.978692,828.070043 156.651804,813.743155 156.651804,796.070043 L156.651804,796.070043 L156.652154,109.58 L54.627417,211.605122 L54.2501999,211.976277 C41.7261905,224.10065 21.7443926,223.976932 9.372583,211.605122 C-3.12419433,199.108345 -3.12419433,178.847066 9.372583,166.350288 L9.372583,166.350288 L163.389753,12.332352 C164.191465,11.3058812 165.064558,10.3170569 166.009032,9.372583 C172.300688,3.08092647 180.560447,-0.0431180614 188.806577,0.00045472058 Z M646.041,629.159 L591.949,629.159 L618.995,703.466 L646.041,629.159 Z M724.713516,-3.4194727e-09 L725.242695,0.00428708232 C742.671733,0.286872379 756.713516,14.5036191 756.713516,32 L756.713516,32 L756.709229,32.5291785 C756.426644,49.9582171 742.209897,64 724.713516,64 L724.713516,64 L584.705,64 L747.822885,238.921159 L748.22782,239.363473 C752.094673,243.666019 754.583517,248.740843 755.714652,254.036125 C756.366781,256.582204 756.713516,259.25061 756.713516,262 C756.713516,279.673112 742.386628,294 724.713516,294 L724.713516,294 L514.713516,294 L514.184338,293.995713 C496.755299,293.713128 482.713516,279.496381 482.713516,262 L482.713516,262 L482.717803,261.470821 C483.000389,244.041783 497.217135,230 514.713516,230 L514.713516,230 L651.994,230 L489.596756,55.8494065 L489.25557,55.4778177 C478.111186,43.1503984 478.324887,24.4331357 489.442206,12.3669838 C495.297236,4.84132241 504.44,-3.41941586e-09 514.713516,-3.4194727e-09 L514.713516,-3.4194727e-09 L724.713516,-3.4194727e-09 Z" id="path-1"></path>

    </svg>
