<?xml version="1.0" encoding="UTF-8"?>
<svg width="2048px" height="2048px" viewBox="0 0 2048 2048" version="1.1" xmlns="http://www.w3.org/2000/svg" xmlns:xlink="http://www.w3.org/1999/xlink">
    <title>调试</title>
    <defs>
        <linearGradient x1="106.702227%" y1="57.0668972%" x2="30.6106187%" y2="36.7299799%" id="linearGradient-1">
            <stop stop-color="#A3C4FF" offset="0%"></stop>
            <stop stop-color="#7894FF" offset="100%"></stop>
        </linearGradient>
        <linearGradient x1="-10.6589912%" y1="37.7379657%" x2="100%" y2="58.9679717%" id="linearGradient-2">
            <stop stop-color="#698EFD" offset="0%"></stop>
            <stop stop-color="#8DA6FE" offset="100%"></stop>
        </linearGradient>
        <linearGradient x1="-98.4450335%" y1="-16.2537299%" x2="83.3109541%" y2="58.4307894%" id="linearGradient-3">
            <stop stop-color="#E6EFFF" offset="0%"></stop>
            <stop stop-color="#DEE9FD" offset="45.9213168%"></stop>
            <stop stop-color="#F0F6FF" offset="100%"></stop>
        </linearGradient>
        <filter x="0.0%" y="0.0%" width="100.0%" height="100.0%" filterUnits="objectBoundingBox" id="filter-4">
            <feGaussianBlur stdDeviation="0" in="SourceGraphic"></feGaussianBlur>
        </filter>
        <linearGradient x1="7.34889634%" y1="44.3764395%" x2="100%" y2="53.2602481%" id="linearGradient-5">
            <stop stop-color="#4ECBF6" offset="0%"></stop>
            <stop stop-color="#88E2FF" offset="100%"></stop>
        </linearGradient>
        <polygon id="path-6" points="46.6434356 31.7874463 -1.66986491e-12 48.4615743 470.025186 202.427355 470.025186 191.20147 28.4897095 46.8803232 46.6434356 40.7405346"></polygon>
        <filter x="-0.7%" y="-2.1%" width="101.5%" height="104.1%" filterUnits="objectBoundingBox" id="filter-7">
            <feGaussianBlur stdDeviation="1.5" in="SourceAlpha" result="shadowBlurInner1"></feGaussianBlur>
            <feOffset dx="0" dy="4" in="shadowBlurInner1" result="shadowOffsetInner1"></feOffset>
            <feComposite in="shadowOffsetInner1" in2="SourceAlpha" operator="arithmetic" k2="-1" k3="1" result="shadowInnerInner1"></feComposite>
            <feColorMatrix values="0 0 0 0 1   0 0 0 0 1   0 0 0 0 1  0 0 0 0.5 0" type="matrix" in="shadowInnerInner1" result="shadowMatrixInner1"></feColorMatrix>
            <feGaussianBlur stdDeviation="1.5" in="SourceAlpha" result="shadowBlurInner2"></feGaussianBlur>
            <feOffset dx="0" dy="-4" in="shadowBlurInner2" result="shadowOffsetInner2"></feOffset>
            <feComposite in="shadowOffsetInner2" in2="SourceAlpha" operator="arithmetic" k2="-1" k3="1" result="shadowInnerInner2"></feComposite>
            <feColorMatrix values="0 0 0 0 0.221930647   0 0 0 0 0.773317673   0 0 0 0 0.952630527  0 0 0 1 0" type="matrix" in="shadowInnerInner2" result="shadowMatrixInner2"></feColorMatrix>
            <feMerge>
                <feMergeNode in="shadowMatrixInner1"></feMergeNode>
                <feMergeNode in="shadowMatrixInner2"></feMergeNode>
            </feMerge>
        </filter>
        <filter x="0.0%" y="0.0%" width="100.0%" height="100.0%" filterUnits="objectBoundingBox" id="filter-8">
            <feGaussianBlur stdDeviation="0" in="SourceGraphic"></feGaussianBlur>
        </filter>
        <polygon id="path-9" points="46.6434356 31.7874463 -1.66986491e-12 48.4615743 470.025186 202.427355 470.025186 191.20147 28.4897095 46.8803232 46.6434356 40.7405346"></polygon>
        <filter x="-0.7%" y="-2.1%" width="101.5%" height="104.1%" filterUnits="objectBoundingBox" id="filter-10">
            <feGaussianBlur stdDeviation="1.5" in="SourceAlpha" result="shadowBlurInner1"></feGaussianBlur>
            <feOffset dx="0" dy="4" in="shadowBlurInner1" result="shadowOffsetInner1"></feOffset>
            <feComposite in="shadowOffsetInner1" in2="SourceAlpha" operator="arithmetic" k2="-1" k3="1" result="shadowInnerInner1"></feComposite>
            <feColorMatrix values="0 0 0 0 1   0 0 0 0 1   0 0 0 0 1  0 0 0 0.5 0" type="matrix" in="shadowInnerInner1" result="shadowMatrixInner1"></feColorMatrix>
            <feGaussianBlur stdDeviation="1.5" in="SourceAlpha" result="shadowBlurInner2"></feGaussianBlur>
            <feOffset dx="0" dy="-4" in="shadowBlurInner2" result="shadowOffsetInner2"></feOffset>
            <feComposite in="shadowOffsetInner2" in2="SourceAlpha" operator="arithmetic" k2="-1" k3="1" result="shadowInnerInner2"></feComposite>
            <feColorMatrix values="0 0 0 0 0.221930647   0 0 0 0 0.773317673   0 0 0 0 0.952630527  0 0 0 1 0" type="matrix" in="shadowInnerInner2" result="shadowMatrixInner2"></feColorMatrix>
            <feMerge>
                <feMergeNode in="shadowMatrixInner1"></feMergeNode>
                <feMergeNode in="shadowMatrixInner2"></feMergeNode>
            </feMerge>
        </filter>
        <linearGradient x1="50%" y1="18.9473175%" x2="50%" y2="100%" id="linearGradient-11">
            <stop stop-color="#E6EFFF" offset="0%"></stop>
            <stop stop-color="#DEE9FD" offset="45.9213168%"></stop>
            <stop stop-color="#E6EFFF" offset="100%"></stop>
        </linearGradient>
        <filter x="0.0%" y="0.0%" width="100.0%" height="100.0%" filterUnits="objectBoundingBox" id="filter-12">
            <feGaussianBlur stdDeviation="0" in="SourceGraphic"></feGaussianBlur>
        </filter>
        <linearGradient x1="5.31629929%" y1="42.8354366%" x2="83.3109541%" y2="53.851585%" id="linearGradient-13">
            <stop stop-color="#E6EFFF" offset="0%"></stop>
            <stop stop-color="#DEE9FD" offset="45.9213168%"></stop>
            <stop stop-color="#F0F6FF" offset="100%"></stop>
        </linearGradient>
        <filter x="0.0%" y="0.0%" width="100.0%" height="100.0%" filterUnits="objectBoundingBox" id="filter-14">
            <feGaussianBlur stdDeviation="0" in="SourceGraphic"></feGaussianBlur>
        </filter>
        <linearGradient x1="-10.3041622%" y1="39.8286611%" x2="50%" y2="55.013294%" id="linearGradient-15">
            <stop stop-color="#FFFFFF" stop-opacity="0" offset="0%"></stop>
            <stop stop-color="#FFFFFF" offset="100%"></stop>
        </linearGradient>
        <filter x="-0.8%" y="-3.6%" width="101.6%" height="107.2%" filterUnits="objectBoundingBox" id="filter-16">
            <feGaussianBlur stdDeviation="1" in="SourceGraphic"></feGaussianBlur>
        </filter>
        <linearGradient x1="59.7262507%" y1="10.8164488%" x2="50%" y2="100%" id="linearGradient-17">
            <stop stop-color="#B0C6FA" offset="0%"></stop>
            <stop stop-color="#C2D8FF" offset="100%"></stop>
        </linearGradient>
        <filter x="0.0%" y="0.0%" width="100.0%" height="100.0%" filterUnits="objectBoundingBox" id="filter-18">
            <feGaussianBlur stdDeviation="0" in="SourceGraphic"></feGaussianBlur>
        </filter>
        <linearGradient x1="0%" y1="40.8120169%" x2="100%" y2="58.352643%" id="linearGradient-19">
            <stop stop-color="#F3F7FF" offset="0%"></stop>
            <stop stop-color="#F0F5FF" offset="45.9213168%"></stop>
            <stop stop-color="#F0F5FF" offset="100%"></stop>
        </linearGradient>
        <filter x="0.0%" y="0.0%" width="100.0%" height="100.0%" filterUnits="objectBoundingBox" id="filter-20">
            <feGaussianBlur stdDeviation="0" in="SourceGraphic"></feGaussianBlur>
        </filter>
        <filter x="0.0%" y="0.0%" width="100.0%" height="100.0%" filterUnits="objectBoundingBox" id="filter-21">
            <feGaussianBlur stdDeviation="0" in="SourceGraphic"></feGaussianBlur>
        </filter>
        <filter x="-0.8%" y="-3.6%" width="101.6%" height="107.2%" filterUnits="objectBoundingBox" id="filter-22">
            <feGaussianBlur stdDeviation="1" in="SourceGraphic"></feGaussianBlur>
        </filter>
        <filter x="0.0%" y="0.0%" width="100.0%" height="100.0%" filterUnits="objectBoundingBox" id="filter-23">
            <feGaussianBlur stdDeviation="0" in="SourceGraphic"></feGaussianBlur>
        </filter>
        <linearGradient x1="50%" y1="18.9473175%" x2="50%" y2="100%" id="linearGradient-24">
            <stop stop-color="#EFF5FF" offset="0%"></stop>
            <stop stop-color="#EDF4FF" offset="31.7235448%"></stop>
            <stop stop-color="#D1DFF6" offset="100%"></stop>
        </linearGradient>
        <filter x="0.0%" y="0.0%" width="100.0%" height="100.0%" filterUnits="objectBoundingBox" id="filter-25">
            <feGaussianBlur stdDeviation="0" in="SourceGraphic"></feGaussianBlur>
        </filter>
        <linearGradient x1="50%" y1="14.5473455%" x2="50%" y2="100%" id="linearGradient-26">
            <stop stop-color="#FFFFFF" stop-opacity="0" offset="0%"></stop>
            <stop stop-color="#FFFFFF" offset="100%"></stop>
        </linearGradient>
        <filter x="-0.7%" y="-1.2%" width="101.5%" height="102.4%" filterUnits="objectBoundingBox" id="filter-27">
            <feGaussianBlur stdDeviation="1" in="SourceGraphic"></feGaussianBlur>
        </filter>
        <linearGradient x1="50.0028151%" y1="104.966794%" x2="50%" y2="0%" id="linearGradient-28">
            <stop stop-color="#FFFFFF" stop-opacity="0" offset="0%"></stop>
            <stop stop-color="#FFFFFF" offset="100%"></stop>
        </linearGradient>
        <filter x="-468.0%" y="-2.3%" width="1036.0%" height="104.5%" filterUnits="objectBoundingBox" id="filter-29">
            <feGaussianBlur stdDeviation="1" in="SourceGraphic"></feGaussianBlur>
        </filter>
        <filter x="-450.0%" y="-7.0%" width="1000.0%" height="113.7%" filterUnits="objectBoundingBox" id="filter-30">
            <feGaussianBlur stdDeviation="1" in="SourceGraphic"></feGaussianBlur>
        </filter>
        <filter x="-450.0%" y="-3.5%" width="1000.0%" height="107.5%" filterUnits="objectBoundingBox" id="filter-31">
            <feGaussianBlur stdDeviation="1" in="SourceGraphic"></feGaussianBlur>
        </filter>
        <linearGradient x1="50%" y1="18.9473175%" x2="50%" y2="100%" id="linearGradient-32">
            <stop stop-color="#F0F5FF" offset="0%"></stop>
            <stop stop-color="#DEE9FD" offset="45.9213168%"></stop>
            <stop stop-color="#E6EFFF" offset="100%"></stop>
        </linearGradient>
        <filter x="0.0%" y="0.0%" width="100.0%" height="100.0%" filterUnits="objectBoundingBox" id="filter-33">
            <feGaussianBlur stdDeviation="0" in="SourceGraphic"></feGaussianBlur>
        </filter>
        <linearGradient x1="51.9031572%" y1="48.0791236%" x2="40.9724094%" y2="56.3471418%" id="linearGradient-34">
            <stop stop-color="#BAD3FF" offset="0%"></stop>
            <stop stop-color="#E6EFFF" offset="100%"></stop>
        </linearGradient>
        <polygon id="path-35" points="942.635895 50.6709205 1490.69682 218.520997 1320.00005 269.874408 946.209481 152.762793"></polygon>
        <filter x="0.0%" y="0.0%" width="100.0%" height="100.0%" filterUnits="objectBoundingBox" id="filter-36">
            <feGaussianBlur stdDeviation="0" in="SourceGraphic"></feGaussianBlur>
        </filter>
        <filter x="-1.7%" y="-4.3%" width="103.5%" height="108.7%" filterUnits="objectBoundingBox" id="filter-37">
            <feGaussianBlur stdDeviation="1.5" in="SourceAlpha" result="shadowBlurInner1"></feGaussianBlur>
            <feOffset dx="16" dy="-6" in="shadowBlurInner1" result="shadowOffsetInner1"></feOffset>
            <feComposite in="shadowOffsetInner1" in2="SourceAlpha" operator="arithmetic" k2="-1" k3="1" result="shadowInnerInner1"></feComposite>
            <feColorMatrix values="0 0 0 0 0.941812357   0 0 0 0 0.967673532   0 0 0 0 1  0 0 0 0.322654884 0" type="matrix" in="shadowInnerInner1"></feColorMatrix>
        </filter>
        <linearGradient x1="94.6352639%" y1="55.2087375%" x2="31.0369516%" y2="48.2509214%" id="linearGradient-38">
            <stop stop-color="#FFFFFF" stop-opacity="0" offset="0%"></stop>
            <stop stop-color="#FFFFFF" offset="100%"></stop>
        </linearGradient>
        <filter x="-0.7%" y="-3.0%" width="101.3%" height="106.1%" filterUnits="objectBoundingBox" id="filter-39">
            <feGaussianBlur stdDeviation="1" in="SourceGraphic"></feGaussianBlur>
        </filter>
        <linearGradient x1="37.9915658%" y1="48.5646753%" x2="44.3052946%" y2="53.9475332%" id="linearGradient-40">
            <stop stop-color="#BAD3FF" offset="0%"></stop>
            <stop stop-color="#E6EFFF" offset="100%"></stop>
        </linearGradient>
        <polygon id="path-41" points="0.234647935 160.758205 534.72956 -2.30582777e-12 535.913206 95 170.675051 212.977625"></polygon>
        <linearGradient x1="9.17700567%" y1="44.4776123%" x2="101.947791%" y2="54.6511196%" id="linearGradient-43">
            <stop stop-color="#4689FF" offset="0%"></stop>
            <stop stop-color="#C1D8FF" offset="44.1884574%"></stop>
            <stop stop-color="#FFFFFF" offset="100%"></stop>
        </linearGradient>
        <filter x="-0.9%" y="-2.8%" width="101.8%" height="105.6%" filterUnits="objectBoundingBox" id="filter-44">
            <feGaussianBlur stdDeviation="1" in="SourceGraphic"></feGaussianBlur>
        </filter>
        <linearGradient x1="94.6352639%" y1="55.0234976%" x2="31.0369516%" y2="48.3131244%" id="linearGradient-45">
            <stop stop-color="#FFFFFF" stop-opacity="0" offset="0%"></stop>
            <stop stop-color="#FFFFFF" offset="100%"></stop>
        </linearGradient>
        <filter x="-0.7%" y="-3.2%" width="101.4%" height="106.3%" filterUnits="objectBoundingBox" id="filter-46">
            <feGaussianBlur stdDeviation="1" in="SourceGraphic"></feGaussianBlur>
        </filter>
        <linearGradient x1="71.5526654%" y1="45.3717254%" x2="50%" y2="54.8319773%" id="linearGradient-47">
            <stop stop-color="#4ECBF6" offset="0%"></stop>
            <stop stop-color="#5CD7FF" offset="100%"></stop>
        </linearGradient>
        <polygon id="path-48" points="364.72956 -8.1023017e-14 739.005242 116.91713 364.72956 229.51641 0.69940901 117.985088"></polygon>
        <filter x="-0.6%" y="-2.0%" width="101.2%" height="103.9%" filterUnits="objectBoundingBox" id="filter-50">
            <feGaussianBlur stdDeviation="1.5" in="SourceAlpha" result="shadowBlurInner1"></feGaussianBlur>
            <feOffset dx="0" dy="6" in="shadowBlurInner1" result="shadowOffsetInner1"></feOffset>
            <feComposite in="shadowOffsetInner1" in2="SourceAlpha" operator="arithmetic" k2="-1" k3="1" result="shadowInnerInner1"></feComposite>
            <feColorMatrix values="0 0 0 0 0.118143468   0 0 0 0 0.641788739   0 0 0 0 0.830301036  0 0 0 0.875129753 0" type="matrix" in="shadowInnerInner1"></feColorMatrix>
        </filter>
        <linearGradient x1="9.17700567%" y1="44.4776123%" x2="101.947791%" y2="54.6511196%" id="linearGradient-51">
            <stop stop-color="#4689FF" offset="0%"></stop>
            <stop stop-color="#4FCCF7" offset="44.1884574%"></stop>
            <stop stop-color="#27ABD9" offset="100%"></stop>
        </linearGradient>
        <filter x="-0.9%" y="-2.8%" width="101.8%" height="105.6%" filterUnits="objectBoundingBox" id="filter-52">
            <feGaussianBlur stdDeviation="1" in="SourceGraphic"></feGaussianBlur>
        </filter>
        <linearGradient x1="50%" y1="18.9473175%" x2="50%" y2="100%" id="linearGradient-53">
            <stop stop-color="#E6EFFF" offset="0%"></stop>
            <stop stop-color="#DEE9FD" offset="45.9213168%"></stop>
            <stop stop-color="#E6EFFF" offset="100%"></stop>
        </linearGradient>
        <polygon id="path-54" points="315.750934 -8.62949707e-13 635.527001 103.313112 315.750934 199.51641 8.05383907e-13 102.776843"></polygon>
        <filter x="-1.1%" y="-3.5%" width="102.2%" height="107.0%" filterUnits="objectBoundingBox" id="filter-56">
            <feGaussianBlur stdDeviation="2" in="SourceAlpha" result="shadowBlurInner1"></feGaussianBlur>
            <feOffset dx="0" dy="-10" in="shadowBlurInner1" result="shadowOffsetInner1"></feOffset>
            <feComposite in="shadowOffsetInner1" in2="SourceAlpha" operator="arithmetic" k2="-1" k3="1" result="shadowInnerInner1"></feComposite>
            <feColorMatrix values="0 0 0 0 0.740084318   0 0 0 0 0.831819264   0 0 0 0 1  0 0 0 1 0" type="matrix" in="shadowInnerInner1"></feColorMatrix>
        </filter>
        <linearGradient x1="9.17700567%" y1="44.4776123%" x2="101.947791%" y2="54.6511196%" id="linearGradient-57">
            <stop stop-color="#EFF5FF" offset="0%"></stop>
            <stop stop-color="#EDF4FF" offset="31.7235448%"></stop>
            <stop stop-color="#FFFFFF" offset="100%"></stop>
        </linearGradient>
        <filter x="-0.9%" y="-2.8%" width="101.8%" height="105.6%" filterUnits="objectBoundingBox" id="filter-58">
            <feGaussianBlur stdDeviation="1" in="SourceGraphic"></feGaussianBlur>
        </filter>
        <filter x="-47.2%" y="-122.0%" width="194.3%" height="343.9%" filterUnits="objectBoundingBox" id="filter-59">
            <feGaussianBlur stdDeviation="50" in="SourceGraphic"></feGaussianBlur>
        </filter>
        <filter x="-47.2%" y="-122.0%" width="194.3%" height="343.9%" filterUnits="objectBoundingBox" id="filter-60">
            <feGaussianBlur stdDeviation="50" in="SourceGraphic"></feGaussianBlur>
        </filter>
        <filter x="-47.2%" y="-122.0%" width="194.3%" height="343.9%" filterUnits="objectBoundingBox" id="filter-61">
            <feGaussianBlur stdDeviation="50" in="SourceGraphic"></feGaussianBlur>
        </filter>
        <linearGradient x1="54.8402835%" y1="-12.3703343%" x2="50%" y2="100%" id="linearGradient-62">
            <stop stop-color="#F1F6FF" offset="0%"></stop>
            <stop stop-color="#ECF1FF" offset="53.682297%"></stop>
            <stop stop-color="#E5F0FF" offset="100%"></stop>
        </linearGradient>
        <linearGradient x1="34.3141143%" y1="0%" x2="36.5304501%" y2="88.9366474%" id="linearGradient-63">
            <stop stop-color="#E3F0FF" stop-opacity="0.7436421" offset="0%"></stop>
            <stop stop-color="#C2D5F9" offset="34.2558291%"></stop>
            <stop stop-color="#C9E1FF" stop-opacity="0.617358228" offset="85.1082609%"></stop>
            <stop stop-color="#C2DDFF" stop-opacity="0.776322798" offset="100%"></stop>
        </linearGradient>
        <linearGradient x1="51.7886323%" y1="-2.71895609%" x2="51.4008104%" y2="100%" id="linearGradient-64">
            <stop stop-color="#1948FF" offset="0%"></stop>
            <stop stop-color="#6488EC" offset="66.4862385%"></stop>
            <stop stop-color="#90B8FF" offset="100%"></stop>
        </linearGradient>
        <path d="M177.635609,7.42053182 C200.445792,0.879816963 223.807887,-1.23490232 247.245326,0.67387569 C148.933024,81.2873463 111.195717,259.306551 163.698748,442.40638 C217.566803,630.266612 349.1599,763.252318 478.459721,773.782047 C457.627581,790.868842 434.067499,803.580199 408.068438,811.03531 C259.419189,853.659796 87.3310172,708.318474 23.6987484,486.40638 C-39.9335203,264.494287 28.9863595,50.0450181 177.635609,7.42053182 Z" id="path-65"></path>
        <filter x="-33.8%" y="-63.2%" width="167.5%" height="226.3%" filterUnits="objectBoundingBox" id="filter-67">
            <feGaussianBlur stdDeviation="44" in="SourceGraphic"></feGaussianBlur>
        </filter>
        <linearGradient x1="51.8506028%" y1="-1.95686232%" x2="52.2176301%" y2="100%" id="linearGradient-68">
            <stop stop-color="#6081FF" offset="0%"></stop>
            <stop stop-color="#8AA8F9" offset="66.4862385%"></stop>
            <stop stop-color="#CEDFFF" offset="100%"></stop>
        </linearGradient>
        <linearGradient x1="55.2338445%" y1="5.10923203%" x2="54.0990111%" y2="92.5755471%" id="linearGradient-69">
            <stop stop-color="#1948FF" offset="0%"></stop>
            <stop stop-color="#6488EC" offset="66.4862385%"></stop>
            <stop stop-color="#90B8FF" offset="100%"></stop>
        </linearGradient>
        <linearGradient x1="55.2338445%" y1="5.56369121%" x2="54.0990111%" y2="92.1445265%" id="linearGradient-70">
            <stop stop-color="#1948FF" offset="0%"></stop>
            <stop stop-color="#6488EC" offset="66.4862385%"></stop>
            <stop stop-color="#90B8FF" offset="100%"></stop>
        </linearGradient>
        <linearGradient x1="51.259866%" y1="-2.71895609%" x2="50.9866943%" y2="100%" id="linearGradient-71">
            <stop stop-color="#1948FF" offset="0%"></stop>
            <stop stop-color="#6488EC" offset="66.4862385%"></stop>
            <stop stop-color="#90B8FF" offset="100%"></stop>
        </linearGradient>
        <linearGradient x1="52.0464526%" y1="-2.71895609%" x2="51.6027286%" y2="100%" id="linearGradient-72">
            <stop stop-color="#1948FF" offset="0%"></stop>
            <stop stop-color="#6488EC" offset="66.4862385%"></stop>
            <stop stop-color="#90B8FF" offset="100%"></stop>
        </linearGradient>
        <path d="M540.73459,686.256597 L540.616821,686.583315 C509.756268,769.4481 453.288078,832.779113 374.802744,863.389154 C339.682824,875.767392 226.418057,915.135682 177.879922,906.859911 C195.473058,906.49231 212.952189,903.918148 230.13951,898.989763 C304.882335,877.557603 360.712333,815.444649 391.660026,731.084799 C395.397647,728.633301 445.089168,713.690568 540.73459,686.256597 Z M130.318655,8.13258503 C280.25921,-34.8621774 451.470916,96.6963211 527.835903,306.400741 C494.190188,319.089917 437.064647,345.052414 385.891195,365.027579 C314.952812,152.267416 148.490741,14.0674254 8.74855743e-12,45.851818 C45.1731183,29.6023031 107.840178,14.5781845 130.318655,8.13258503 Z" id="path-73"></path>
        <filter x="-33.8%" y="-63.2%" width="167.5%" height="226.3%" filterUnits="objectBoundingBox" id="filter-75">
            <feGaussianBlur stdDeviation="44" in="SourceGraphic"></feGaussianBlur>
        </filter>
        <linearGradient x1="54.62416%" y1="-12.3703343%" x2="50%" y2="100%" id="linearGradient-76">
            <stop stop-color="#F1F6FF" offset="0%"></stop>
            <stop stop-color="#678DFF" offset="53.682297%"></stop>
            <stop stop-color="#96AEF2" offset="100%"></stop>
        </linearGradient>
        <linearGradient x1="35.0145111%" y1="0%" x2="37.1318845%" y2="88.9366474%" id="linearGradient-77">
            <stop stop-color="#E3F0FF" stop-opacity="0.7436421" offset="0%"></stop>
            <stop stop-color="#C2D5F9" offset="34.2558291%"></stop>
            <stop stop-color="#C9E1FF" stop-opacity="0.617358228" offset="85.1082609%"></stop>
            <stop stop-color="#C2DDFF" stop-opacity="0.776322798" offset="100%"></stop>
        </linearGradient>
        <linearGradient x1="37.7064875%" y1="46.1214837%" x2="68.7632216%" y2="31.9875846%" id="linearGradient-78">
            <stop stop-color="#CCE0FF" offset="0%"></stop>
            <stop stop-color="#FFFFFF" offset="100%"></stop>
        </linearGradient>
        <filter x="-22.4%" y="-20.6%" width="144.9%" height="141.2%" filterUnits="objectBoundingBox" id="filter-79">
            <feGaussianBlur stdDeviation="24" in="SourceGraphic"></feGaussianBlur>
        </filter>
        <linearGradient x1="50%" y1="0%" x2="50%" y2="100%" id="linearGradient-80">
            <stop stop-color="#FFFFFF" offset="0%"></stop>
            <stop stop-color="#EEFCFF" offset="100%"></stop>
        </linearGradient>
        <linearGradient x1="100%" y1="-11.4843658%" x2="-12.4179247%" y2="89.529511%" id="linearGradient-81">
            <stop stop-color="#B9D2FF" offset="0%"></stop>
            <stop stop-color="#B3E4FF" offset="100%"></stop>
        </linearGradient>
        <linearGradient x1="50%" y1="48.4985345%" x2="29.7145276%" y2="51.5014655%" id="linearGradient-82">
            <stop stop-color="#EEEEEE" offset="0%"></stop>
            <stop stop-color="#E1EBFD" offset="37.6483701%"></stop>
            <stop stop-color="#B8D4FF" offset="100%"></stop>
        </linearGradient>
        <linearGradient x1="50%" y1="0%" x2="39.9121967%" y2="100%" id="linearGradient-83">
            <stop stop-color="#EEEEEE" offset="0%"></stop>
            <stop stop-color="#E1EBFD" offset="37.6483701%"></stop>
            <stop stop-color="#B8D4FF" offset="100%"></stop>
        </linearGradient>
        <linearGradient x1="16.61157%" y1="44.9810701%" x2="100%" y2="55.0189299%" id="linearGradient-84">
            <stop stop-color="#BAD5FF" offset="0%"></stop>
            <stop stop-color="#E1EBFD" offset="100%"></stop>
            <stop stop-color="#BAD5FF" offset="100%"></stop>
        </linearGradient>
        <linearGradient x1="50%" y1="18.13294%" x2="100%" y2="81.86706%" id="linearGradient-85">
            <stop stop-color="#4770F4" offset="0%"></stop>
            <stop stop-color="#3661F8" offset="100%"></stop>
        </linearGradient>
        <linearGradient x1="50%" y1="27.7067674%" x2="100%" y2="72.2932326%" id="linearGradient-86">
            <stop stop-color="#4770F4" offset="0%"></stop>
            <stop stop-color="#3661F8" offset="100%"></stop>
        </linearGradient>
        <linearGradient x1="51.8378228%" y1="-1.95686232%" x2="52.2023155%" y2="100%" id="linearGradient-87">
            <stop stop-color="#6081FF" offset="0%"></stop>
            <stop stop-color="#8AA8F9" offset="66.4862385%"></stop>
            <stop stop-color="#CEDFFF" offset="100%"></stop>
        </linearGradient>
        <linearGradient x1="50%" y1="0%" x2="50%" y2="100%" id="linearGradient-88">
            <stop stop-color="#FFFFFF" offset="0%"></stop>
            <stop stop-color="#FFFFFF" stop-opacity="0.324872637" offset="44.0106553%"></stop>
            <stop stop-color="#FFFFFF" stop-opacity="0.383437363" offset="100%"></stop>
        </linearGradient>
        <filter x="-0.7%" y="-0.5%" width="101.4%" height="101.0%" filterUnits="objectBoundingBox" id="filter-89">
            <feGaussianBlur stdDeviation="1" in="SourceGraphic"></feGaussianBlur>
        </filter>
    </defs>
    <g id="调试" stroke="none" stroke-width="1" fill="none" fill-rule="evenodd">
        <g id="编组-4" transform="translate(81.096958, 1082.549748)">
            <g id="编组-3">
                <g id="编组-2" transform="translate(0.000000, 313.000000)">
                    <g id="编组" transform="translate(0.000000, 0.684242)">
                        <polygon id="路径-38" fill="url(#linearGradient-1)" points="544.887471 161.844312 942.635895 292.183913 942.635895 253.414209 605.769468 142.650636"></polygon>
                        <polygon id="路径-38" fill="url(#linearGradient-2)" points="544.887471 161.844312 942.635895 292.183913 942.635895 358.816417 544.887471 231.729186"></polygon>
                        <polygon id="路径-39" fill="url(#linearGradient-3)" filter="url(#filter-4)" points="46.6434356 108.145671 492.438195 250.156552 492.438195 141.650636 46.6434356 0.490669632"></polygon>
                        <g id="路径-40">
                            <use fill="url(#linearGradient-5)" fill-rule="evenodd" xlink:href="#path-6"></use>
                            <use fill="black" fill-opacity="1" filter="url(#filter-7)" xlink:href="#path-6"></use>
                        </g>
                    </g>
                    <g id="编组" transform="translate(1414.500000, 179.950252) scale(-1, 1) translate(-1414.500000, -179.950252) translate(943.000000, 0.450252)">
                        <polygon id="路径-38" fill="url(#linearGradient-1)" points="544.887471 161.844312 942.635895 292.183913 942.635895 253.414209 605.769468 142.650636"></polygon>
                        <polygon id="路径-38" fill="url(#linearGradient-2)" points="544.887471 161.844312 942.635895 292.183913 942.635895 358.816417 544.887471 231.729186"></polygon>
                        <polygon id="路径-39" fill="url(#linearGradient-3)" filter="url(#filter-8)" points="46.6434356 108.145671 492.438195 250.156552 492.438195 141.650636 46.6434356 0.490669632"></polygon>
                        <g id="路径-40">
                            <use fill="url(#linearGradient-5)" fill-rule="evenodd" xlink:href="#path-9"></use>
                            <use fill="black" fill-opacity="1" filter="url(#filter-10)" xlink:href="#path-9"></use>
                        </g>
                    </g>
                </g>
                <polygon id="路径-3" fill="url(#linearGradient-11)" filter="url(#filter-12)" points="942.903042 567.098451 1631.04135 345.245702 1631.04135 216.450252 942.903042 433.363697"></polygon>
                <polygon id="路径-39" fill="url(#linearGradient-13)" filter="url(#filter-14)" transform="translate(1559.793548, 349.275569) scale(-1, 1) translate(-1559.793548, -349.275569) " points="1502.49014 313.940921 1502.49014 243.450252 1280.23053 313.940921 1726.02529 455.100887 1839.35656 415.870024"></polygon>
                <line x1="1838.6978" y1="456.610218" x2="1392.90304" y2="315.450252" id="路径" stroke="url(#linearGradient-15)" stroke-width="4.36" filter="url(#filter-16)" transform="translate(1615.800422, 386.030235) scale(-1, 1) translate(-1615.800422, -386.030235) "></line>
                <polygon id="路径-39" fill="url(#linearGradient-17)" filter="url(#filter-18)" transform="translate(1336.896168, 489.738413) scale(-1, 1) translate(-1336.896168, -489.738413) " points="1393.56181 456.100887 1332.67981 475.294563 1332.67981 545.179438 1280.23053 563.606803 1280.23053 455.100887 1393.56181 415.870024"></polygon>
                <polygon id="路径-3" fill="url(#linearGradient-19)" filter="url(#filter-20)" points="942.635895 567.098451 268.903042 345.245702 268.903042 216.450252 942.635895 433.363697"></polygon>
                <polygon id="路径-39" fill="url(#linearGradient-13)" filter="url(#filter-21)" points="268.903042 314.174911 268.903042 243.684242 46.6434356 314.174911 492.438195 455.334877 605.769468 416.104014"></polygon>
                <line x1="492.438195" y1="455.334877" x2="46.6434356" y2="314.174911" id="路径" stroke="url(#linearGradient-15)" stroke-width="4.36" filter="url(#filter-22)"></line>
                <polygon id="路径-39" fill="url(#linearGradient-17)" filter="url(#filter-23)" points="605.769468 456.334877 544.887471 475.528553 544.887471 545.413428 492.438195 563.840793 492.438195 455.334877 605.769468 416.104014"></polygon>
                <polygon id="路径-3" fill="url(#linearGradient-24)" filter="url(#filter-25)" points="269.17019 216.450252 942.903042 -1.42108547e-13 1631.04135 216.450252 942.903042 433.826892"></polygon>
                <polygon id="路径-3" stroke="url(#linearGradient-26)" stroke-width="4.36" filter="url(#filter-27)" points="269.17019 216.450252 942.903042 -1.42108547e-13 1631.04135 216.450252 942.903042 433.826892"></polygon>
                <line x1="942.903042" y1="433.826892" x2="942.903042" y2="567.098451" id="路径-2" stroke="url(#linearGradient-28)" stroke-width="4.36" filter="url(#filter-29)"></line>
                <line x1="942.903042" y1="605.450252" x2="942.903042" y2="567.098451" id="路径-2" stroke="#B5C8FF" stroke-width="4" filter="url(#filter-30)"></line>
                <line x1="942.903042" y1="605.450252" x2="942.903042" y2="671.450252" id="路径-2" stroke="#9AB4FF" stroke-width="4" filter="url(#filter-31)"></line>
                <polygon id="路径-3" fill="url(#linearGradient-32)" filter="url(#filter-33)" points="411.875919 218.520997 946.370832 57.7627926 1490.69682 218.520997 946.370832 382.279202"></polygon>
                <g id="路径-3" filter="url(#filter-36)">
                    <use fill="url(#linearGradient-34)" fill-rule="evenodd" xlink:href="#path-35"></use>
                    <use fill="black" fill-opacity="1" filter="url(#filter-37)" xlink:href="#path-35"></use>
                </g>
                <line x1="942.635895" y1="50.6709205" x2="1490.69682" y2="218.520997" id="路径" stroke="url(#linearGradient-38)" stroke-width="4.36" filter="url(#filter-39)"></line>
                <g id="路径-45" transform="translate(411.641271, 57.762793)">
                    <mask id="mask-42" fill="white">
                        <use xlink:href="#path-41"></use>
                    </mask>
                    <use id="蒙版" fill="url(#linearGradient-40)" xlink:href="#path-41"></use>
                    <polygon fill="url(#linearGradient-43)" filter="url(#filter-44)" mask="url(#mask-42)" points="-43.488853 136.817812 259.033747 229.516451 259.26205 244.914363 -66 146.233266"></polygon>
                </g>
                <line x1="411.875919" y1="218.520997" x2="946.370832" y2="57.7627926" id="路径" stroke="url(#linearGradient-45)" stroke-width="4.36" filter="url(#filter-46)"></line>
                <g id="路径-45" transform="translate(581.641271, 152.762793)">
                    <mask id="mask-49" fill="white">
                        <use xlink:href="#path-48"></use>
                    </mask>
                    <g id="蒙版">
                        <use fill="url(#linearGradient-47)" fill-rule="evenodd" xlink:href="#path-48"></use>
                        <use fill="black" fill-opacity="1" filter="url(#filter-50)" xlink:href="#path-48"></use>
                    </g>
                    <polygon fill="url(#linearGradient-51)" filter="url(#filter-52)" mask="url(#mask-49)" points="-213.488853 41.817812 89.0337468 134.516451 89.2620501 149.914363 -236 51.2332663"></polygon>
                </g>
                <g id="路径-45" transform="translate(630.619898, 182.762793)">
                    <mask id="mask-55" fill="white">
                        <use xlink:href="#path-54"></use>
                    </mask>
                    <g id="蒙版">
                        <use fill="url(#linearGradient-53)" fill-rule="evenodd" xlink:href="#path-54"></use>
                        <use fill="black" fill-opacity="1" filter="url(#filter-56)" xlink:href="#path-54"></use>
                    </g>
                    <polygon fill="url(#linearGradient-57)" filter="url(#filter-58)" mask="url(#mask-55)" points="13.2283337 96.273337 315.750934 188.971976 315.979237 204.369888 -9.28281327 105.688791"></polygon>
                </g>
            </g>
            <path d="M1193.84139,246.775201 C1281.65467,246.775201 1352.84139,219.240713 1352.84139,185.275201 C1352.84139,151.309689 1281.65467,123.775201 1193.84139,123.775201 C1106.02812,123.775201 1034.84139,151.309689 1034.84139,185.275201 C1034.84139,219.240713 1106.02812,246.775201 1193.84139,246.775201 Z" id="椭圆形" fill="#EAFAFF" filter="url(#filter-59)" transform="translate(1193.841394, 185.275201) rotate(15.000000) translate(-1193.841394, -185.275201) "></path>
            <path d="M650.254456,379.605121 C738.067731,379.605121 809.254456,352.070633 809.254456,318.105121 C809.254456,284.139609 738.067731,256.605121 650.254456,256.605121 C562.441181,256.605121 491.254456,284.139609 491.254456,318.105121 C491.254456,352.070633 562.441181,379.605121 650.254456,379.605121 Z" id="椭圆形" fill-opacity="0.743036017" fill="#FFFFFF" filter="url(#filter-60)" transform="translate(650.254456, 318.105121) rotate(15.000000) translate(-650.254456, -318.105121) "></path>
            <path d="M938.254456,315.605121 C1026.06773,315.605121 1097.25446,288.070633 1097.25446,254.105121 C1097.25446,220.139609 1026.06773,192.605121 938.254456,192.605121 C850.441181,192.605121 779.254456,220.139609 779.254456,254.105121 C779.254456,288.070633 850.441181,315.605121 938.254456,315.605121 Z" id="椭圆形" fill-opacity="0.353659036" fill="#5D86FF" opacity="0.677683512" filter="url(#filter-61)" transform="translate(938.254456, 254.105121) rotate(15.000000) translate(-938.254456, -254.105121) "></path>
        </g>
        <g id="编组-6" transform="translate(842.125572, 381.403641)">
            <path d="M220.939334,55.3004353 C342.513184,20.4396947 480.681925,130.328739 529.547854,300.744485 C578.413783,471.160231 519.472367,637.569704 397.898517,672.430444 C395.403437,673.145897 392.901368,673.800381 390.393224,674.394624 C499.200996,637.233199 548.573414,475.933157 500.710003,309.013606 C452.846167,142.092574 325.498148,31.4652939 213.531806,57.6121429 C215.974725,56.7870081 218.443835,56.0160082 220.939334,55.3004353 Z" id="形状结合" fill="url(#linearGradient-62)"></path>
            <ellipse id="椭圆形" fill="url(#linearGradient-63)" transform="translate(295.000000, 368.000000) rotate(-16.000000) translate(-295.000000, -368.000000) " cx="295" cy="368" rx="214" ry="321"></ellipse>
        </g>
        <g id="路径-63" transform="translate(524.767790, 437.942716)">
            <mask id="mask-66" fill="white">
                <use xlink:href="#path-65"></use>
            </mask>
            <use id="蒙版" fill="url(#linearGradient-64)" xlink:href="#path-65"></use>
            <polygon fill-opacity="0.830562992" fill="#BED3FE" opacity="0.499218169" filter="url(#filter-67)" mask="url(#mask-66)" points="-56 44.2299725 27.5356605 165 335 76.1168865 239.032481 -44"></polygon>
        </g>
        <path d="M1010.08279,298.372824 C1174.62522,251.364185 1363.86464,402.921463 1442.84777,639.979125 C1444.73755,638.471067 1478.45916,532.643655 1480.09905,537.977402 C1480.29035,538.599332 1484.3701,545.924743 1492.33831,559.953636 L1492.33831,559.953636 L1455.09567,680.738931 C1455.03068,680.793016 1454.96581,680.847017 1454.90105,680.900933 C1447.30636,682.012644 1439.89118,683.203769 1434.60715,683.691531 C1429.03333,680.737415 1311.12546,612.045643 1310.29518,609.160141 C1309.95507,607.978169 1313.45592,601.688954 1320.79771,590.292494 C1370.34726,620.042133 1405.07899,640.49459 1424.9929,651.649868 C1351.03077,425.478941 1171.64217,280.27927 1015.98803,324.757316 C855.032103,370.750713 780.40581,602.146775 849.302537,841.595929 C918.205359,1081.04334 1104.54026,1237.86964 1265.49861,1191.88471 C1342.29036,1169.93246 1399.43271,1105.78406 1430.71167,1018.69284 C1438.12527,1024.48255 1443.99264,1030.11983 1448.42367,1034.30709 C1448.41953,1034.87081 1448.37529,1035.29095 1448.28253,1035.54013 C1414.66806,1125.83995 1354.42606,1192.28235 1273.92162,1215.29539 C1102.90512,1264.15455 905.209507,1098.51304 832.352004,845.317042 C759.498022,592.12003 839.071135,347.248887 1010.08279,298.372824 Z" id="形状结合" fill="url(#linearGradient-68)"></path>
        <path d="M1469.48988,1027.41001 L1469.6733,1027.49501 L1468.69951,1030.07701 C1434.57279,1119.53308 1373.98295,1187.22119 1293.34994,1211.27531 L1290.87533,1211.99801 C1281.65124,1214.63395 1272.35423,1216.66696 1263.0073,1218.1159 C1266.65612,1217.26491 1270.29399,1216.32529 1273.91986,1215.28925 C1354.42606,1192.28235 1414.85293,1124.49129 1448.4674,1034.19147 C1448.4959,1034.11744 1455.50339,1031.85695 1469.48988,1027.41001 Z" id="形状结合" fill="url(#linearGradient-69)"></path>
        <path d="M1065.00718,289.921824 C1212.3245,267.12114 1375.59172,408.508334 1449.13514,622.905407 C1449.21498,623.138536 1447.14618,628.897397 1442.92874,640.181992 L1442.92874,640.181992 C1372.63376,429.200672 1214.94062,285.783517 1065.10303,289.929943 Z" id="形状结合" fill="url(#linearGradient-70)"></path>
        <path d="M866.420378,834.074065 C928.635821,1050.27009 1087.79186,1199.53321 1240.70305,1197.35424 C1085.84831,1221.66628 914.693101,1068.8373 849.304745,841.595296 C788.887426,631.623436 838.833774,427.84351 960.577345,349.840959 C851.625344,441.123922 809.204935,635.245709 866.420378,834.074065 Z" id="椭圆形-2" fill="url(#linearGradient-71)"></path>
        <g id="路径-63" transform="translate(710.478270, 371.923387)">
            <mask id="mask-74" fill="white">
                <use xlink:href="#path-73"></use>
            </mask>
            <use id="蒙版" fill="url(#linearGradient-72)" xlink:href="#path-73"></use>
            <polygon fill-opacity="0.830562992" fill="#BED3FE" filter="url(#filter-75)" mask="url(#mask-74)" points="142.659292 88.2493022 226.194953 209.01933 533.659292 120.136216 437.691774 0.0193296479"></polygon>
        </g>
        <path d="M728.513681,544.733237 C842.124179,512.155951 972.479869,619.162014 1019.67126,783.737968 C1066.86266,948.313923 1013.01934,1108.1382 899.408842,1140.71549 C897.425388,1141.28423 895.43683,1141.81044 893.4437,1142.29453 C996.786803,1107.73244 1042.96709,952.05109 996.600984,790.353265 C950.235438,628.65739 828.576162,521.104583 722.62461,546.553962 C724.567536,545.908727 726.531512,545.301615 728.513681,544.733237 Z" id="形状结合" fill="url(#linearGradient-76)"></path>
        <ellipse id="椭圆形" fill="url(#linearGradient-77)" transform="translate(802.426121, 846.032011) rotate(-16.000000) translate(-802.426121, -846.032011) " cx="802.426121" cy="846.032011" rx="202" ry="310"></ellipse>
        <ellipse id="椭圆形" stroke="url(#linearGradient-78)" stroke-width="6" transform="translate(802.426121, 846.032011) rotate(-16.000000) translate(-802.426121, -846.032011) " cx="802.426121" cy="846.032011" rx="202" ry="310"></ellipse>
        <g id="编组-5" transform="translate(620.137562, 691.455816)" fill="#2E5BFA" opacity="0.545914423">
            <path d="M255.562754,6.99008751 C248.297471,5.67415677 241.900405,5.0161914 236.371554,5.0161914 L235.970906,4.88934257 C221.56498,21.6361711 207.338585,37.9912549 193.29172,53.9545939 L193.29172,53.9545939 L236.371554,5.0161914 C241.489113,5.36041274 245.382455,5.72737444 248.051581,6.1170765 C250.720707,6.50677855 254.476309,7.2565906 259.318388,8.36651263 L259.318388,8.36651263 L217.610313,53.9545939 L229.314308,105.812179 L255.562754,115.075464 L250.503848,121.954382 C268.765589,102.535346 283.218944,85.941382 293.863915,72.1724887 C293.973212,72.6329998 294.079662,73.0948959 294.183244,73.5581495 L294.119243,73.2736998 L294.119243,73.2736998 C301.079654,73.235869 308.37489,73.2142765 316.003031,73.2098232 L318.992944,73.2089554 C320.217145,79.918846 320.862438,86.8906143 320.862438,94.0441839 C320.862438,147.339662 285.045218,190.544184 240.862438,190.544184 C239.939382,190.544184 239.019976,190.525327 238.104473,190.487914 L239.121409,190.122649 L239.121409,190.122649 L237.96308,190.537823 C230.485781,193.144357 222.563866,194.544184 214.362438,194.544184 L214.362438,194.544184 C172.461353,245.380586 129.711452,293.697252 86.112735,339.49418 C77.1103,349.799424 64.93773,352.219501 49.5950249,346.754411 L49.2061839,346.710558 C45.0496591,346.186466 40.6087638,343.859853 35.883498,339.730719 L35.883498,339.730719 L2.72650463,296.524068 C0.318480101,292.066302 -0.494485115,288.289096 0.287608978,285.192451 C1.06970307,282.095805 4.03423351,277.354042 9.1812003,270.967162 C59.211683,211.685177 101.001529,162.219758 134.550738,122.570908 C132.796485,114.739286 131.862438,106.519325 131.862438,98.0441839 C131.862438,44.7487055 168.798946,1.5441839 214.362438,1.5441839 C214.817088,1.5441839 215.270879,1.5484857 215.723783,1.55705639 C215.270865,1.54848556 214.817081,1.5441839 214.362438,1.5441839 C230.190461,-1.67555163 243.9239,0.139749572 255.562754,6.99008751 Z" id="形状结合" filter="url(#filter-79)"></path>
        </g>
        <g id="编组-5" transform="translate(570.137562, 681.455816)">
            <path d="M214.362438,194.544184 C259.92593,194.544184 296.862438,151.339662 296.862438,98.0441839 C296.862438,89.0824867 295.818065,80.4061094 293.863915,72.1724887 C283.218944,85.941382 268.765589,102.535346 250.503848,121.954382 L205.880211,105.812179 L193.29172,53.9545939 C207.338865,37.9909367 221.565548,21.635519 235.971767,4.88834098 C229.084388,2.7076827 221.839575,1.5441839 214.362438,1.5441839 C168.798946,1.5441839 131.862438,44.7487055 131.862438,98.0441839 C131.862438,106.519325 132.796485,114.739286 134.550738,122.570908 C101.001529,162.219758 59.211683,211.685177 9.1812003,270.967162 C4.03423351,277.354042 1.06970307,282.095805 0.287608978,285.192451 C-0.494485115,288.289096 0.318480101,292.066302 2.72650463,296.524068 L35.883498,339.730719 C40.7564283,343.988888 45.3269373,346.330119 49.5950249,346.754411 C53.8631126,347.178703 58.5103711,345.775294 63.5368006,342.544184 C126.605435,271.203884 170.583397,221.023267 195.470686,192.002335 C201.537554,193.664851 207.862204,194.544184 214.362438,194.544184 Z" id="椭圆形" fill="url(#linearGradient-80)"></path>
            <path d="M214.362438,194.544184 C172.461353,245.380586 129.711452,293.697252 86.112735,339.49418 C77.1103,349.799424 64.93773,352.219501 49.5950249,346.754411 C53.8631126,347.178703 58.5103711,345.775294 63.5368006,342.544184 C126.605435,271.203884 170.583397,221.023267 195.470686,192.002335 C201.537554,193.664851 207.862204,194.544184 214.362438,194.544184 Z" id="椭圆形" fill="url(#linearGradient-81)"></path>
            <path d="M259.762508,7.96058706 C249.430865,5.91242301 241.500618,4.88834098 235.971767,4.88834098 C228.965153,2.62533869 221.984395,1.5441839 214.362438,1.5441839 C230.190461,-1.67555163 245.323818,0.463249424 259.762508,7.96058706 Z" id="椭圆形" fill="url(#linearGradient-82)"></path>
            <path d="M295.381509,72.1686331 C302.982061,72.1726617 310.780756,72.5113233 319.203295,72.5113233 C320.427496,79.2212139 320.862438,86.8906143 320.862438,94.0441839 C320.862438,147.339662 285.045218,190.544184 240.862438,190.544184 C239.939382,190.544184 239.019976,190.525327 238.104473,190.487914 C272.095107,178.561292 296.862438,141.685923 296.862438,98.0441839 C296.862438,89.2053285 295.766654,80.3051902 293.863915,72.1724887 Z" id="形状结合" fill="url(#linearGradient-83)"></path>
            <path d="M193.29172,53.9545939 L217.610313,53.9545939 L259.762508,7.96058706 C254.244796,6.9682167 250.151377,6.27718049 247.482251,5.88747843 C244.813125,5.49777637 240.912523,5.20734736 235.780445,5.0161914 L193.29172,53.9545939 Z" id="路径-60" fill="#BAD5FF"></path>
            <polygon id="路径-61" fill="#DDEAFF" points="193.29172 53.9545939 217.610313 53.9545939 229.314308 105.812179 205.880211 105.812179"></polygon>
            <polygon id="路径-62" fill="url(#linearGradient-84)" points="205.880211 105.812179 229.314308 105.812179 256.829981 115.152551 250.503848 121.954382"></polygon>
        </g>
        <path d="M983.908024,691.691661 C1009.6418,708.290084 1028.91363,720.428229 1041.72351,728.106095 C1054.53338,735.783961 1067.35743,742.883143 1080.19565,749.403641 C1073.94663,730.695283 1068.95558,716.696389 1065.22249,707.406957 C1061.48941,698.117526 1056.18337,686.493112 1049.30439,672.533714 L983.908024,691.691661 Z" id="路径-53" fill="url(#linearGradient-85)"></path>
        <polygon id="路径-54" fill="#93BEFF" points="1131.03477 643.206686 1142.33831 663.573473 1287.9329 620.231734 1280.56593 600.807233"></polygon>
        <polygon id="路径-54" fill="#6C91FE" points="1107.94293 775.51296 1142.33831 663.573473 1287.9329 620.231734 1254.51557 729.424977"></polygon>
        <polygon id="路径-55" fill="#93BEFF" points="1085.41898 1088.71774 1102.04856 1103.63367 1251.09509 1058.5067 1236.96629 1043.68415"></polygon>
        <polygon id="路径-56" fill="#93BEFF" points="1430.71167 1018.69284 1450.34909 1011.53291 1469.25795 1027.54052 1448.4674 1034.19147"></polygon>
        <polygon id="路径-57" fill="url(#linearGradient-86)" points="1320.79771 590.292494 1332.32715 583.592864 1418.35279 632.190353 1426.11199 653.914472"></polygon>
        <path d="M696.954357,421.15781 C848.914927,377.583818 1023.68667,518.041677 1096.6314,737.738232 C1098.24721,742.604736 1129.52025,638.263561 1131.03477,643.206686 C1131.21144,643.783069 1134.97928,650.571998 1142.33831,663.573473 L1142.33831,663.573473 L1107.94293,775.51296 C1107.88265,775.563306 1107.82247,775.613572 1107.7624,775.66376 C1100.74657,776.694437 1093.89676,777.798629 1089.01586,778.25074 C1083.8682,775.51296 974.975365,711.851665 974.208557,709.177484 C973.894453,708.082076 977.127609,702.253468 983.908024,691.691661 C1049.26289,733.290836 1081.3391,752.245507 1080.13664,748.555672 C1011.82911,538.948534 846.156154,404.382369 702.403398,445.602809 C553.754149,488.227295 484.834269,702.676564 548.466538,924.588657 C612.098807,1146.50075 784.186979,1291.84207 932.836228,1249.21759 C1003.75866,1228.88091 1056.53179,1169.43064 1085.41898,1088.71774 C1092.26774,1094.085 1097.68766,1099.31091 1101.78033,1103.19187 C1101.77702,1103.71135 1101.73615,1104.09957 1101.65067,1104.33001 C1070.60608,1188.01665 1014.96969,1249.59308 940.617779,1270.91315 C782.677952,1316.20167 600.09651,1162.69105 532.810714,928.037593 C465.524917,693.384136 539.01453,466.446327 696.954357,421.15781 Z" id="形状结合" fill="url(#linearGradient-87)"></path>
        <path d="M696.954357,421.15781 C848.914927,377.583818 1023.68667,518.041677 1096.6314,737.738232 C1098.24721,742.604736 1129.52025,638.263561 1131.03477,643.206686 C1131.21144,643.783069 1134.97928,650.571998 1142.33831,663.573473 L1142.33831,663.573473 L1107.94293,775.51296 C1107.88265,775.563306 1107.82247,775.613572 1107.7624,775.66376 C1100.74657,776.694437 1093.89676,777.798629 1089.01586,778.25074 C1083.8682,775.51296 974.975365,711.851665 974.208557,709.177484 C973.894453,708.082076 977.127609,702.253468 983.908024,691.691661 C1049.26289,733.290836 1081.3391,752.245507 1080.13664,748.555672 C1011.82911,538.948534 846.156154,404.382369 702.403398,445.602809 C553.754149,488.227295 484.834269,702.676564 548.466538,924.588657 C612.098807,1146.50075 784.186979,1291.84207 932.836228,1249.21759 C1003.75866,1228.88091 1056.53179,1169.43064 1085.41898,1088.71774 C1092.26774,1094.085 1097.68766,1099.31091 1101.78033,1103.19187 C1101.77702,1103.71135 1101.73615,1104.09957 1101.65067,1104.33001 C1070.60608,1188.01665 1014.96969,1249.59308 940.617779,1270.91315 C782.677952,1316.20167 600.09651,1162.69105 532.810714,928.037593 C465.524917,693.384136 539.01453,466.446327 696.954357,421.15781 Z" id="形状结合" stroke="url(#linearGradient-88)" stroke-width="2.6712" filter="url(#filter-89)"></path>
        <polygon id="路径-58" fill="#6C91FE" points="1455.09567 680.738931 1470.60867 675.785873 1509.26779 559.273288 1492.33831 559.953636"></polygon>
        <polygon id="路径-59" fill="#93BEFF" points="1480.09905 537.977402 1497.01007 537.977402 1509.26779 559.273288 1492.33831 559.953636"></polygon>
    </g>
</svg>