<svg width="1024px" height="1024px" viewBox="0 0 1024 1024" version="1.1" xmlns="http://www.w3.org/2000/svg" xmlns:xlink="http://www.w3.org/1999/xlink">

        <path d="M926,101 C943.496381,101 957.713128,115.041783 957.995713,132.470821 L958,133 L958,891 C958,908.496381 943.958217,922.713128 926.529179,922.995713 L926,923 L634,923 C616.503619,923 602.286872,908.958217 602.004287,891.529179 L602,891 L602,133 C602,115.503619 616.041783,101.286872 633.470821,101.004287 L634,101 L926,101 Z M474,685 C491.496381,685 505.713128,699.041783 505.995713,716.470821 L506,717 L506,891 C506,908.496381 491.958217,922.713128 474.529179,922.995713 L474,923 L100,923 C82.5036191,923 68.2868724,908.958217 68.0042871,891.529179 L68,891 L68,717 C68,699.503619 82.0417829,685.286872 99.4708215,685.004287 L100,685 L474,685 Z M894,165 L666,165 L666,859 L894,859 L894,165 Z M442,749 L132,749 L132,859 L442,859 L442,749 Z M339.649344,109.372583 L493.66728,263.389753 C494.693751,264.191465 495.682576,265.064558 496.62705,266.009032 C502.918961,272.300943 506.043003,280.561115 505.999178,288.807577 C506.042751,297.053708 502.918706,305.313466 496.62705,311.605122 C495.682576,312.549596 494.693751,313.422689 493.66728,314.224401 L339.649344,468.241571 C327.152567,480.738348 306.891287,480.738348 294.39451,468.241571 C282.022701,455.869762 281.898982,435.887964 294.023356,423.363954 L294.39451,422.986737 L396.350292,321.024163 C251.861631,322.938389 134.763628,438.348233 130.141715,582.168265 L130.036172,586.535056 L130.004165,590.5 C129.728871,607.942662 115.506069,622 98,622 C80.5036191,622 66.2868724,607.958217 66.0042871,590.529179 L66.004,590.499 C66.0004753,590.425724 66.0006068,590.352264 66.000762,590.278809 L66,586 L66.0366781,585.999085 C68.6835082,405.663339 214.251408,259.940367 394.526603,257.043941 L395.929,257.032 L395.92959,256.96235 L396.729633,256.962 L294.39451,154.627417 C281.897733,142.13064 281.897733,121.86936 294.39451,109.372583 C306.891287,96.8758057 327.152567,96.8758057 339.649344,109.372583 Z" id="path-1"></path>

    </svg>
