<svg width="1024px" height="1024px" viewBox="0 0 1024 1024" version="1.1" xmlns="http://www.w3.org/2000/svg" xmlns:xlink="http://www.w3.org/1999/xlink">

        <path d="M158,239 L158.529179,239.004287 C175.958217,239.286872 190,253.503619 190,271 L190,271 L189.995713,271.529178 C189.713128,288.958217 175.496381,303 158,303 L158,303 L64,303 L64,761 L766,761 L766,303 L672,303 L671.470821,302.995713 C654.041783,302.713127 640,288.496381 640,271 C640,253.326888 654.326888,239 672,239 L672,239 L798,239 C815.673112,239 830,253.326888 830,271 L830,271 L830,793 L829.995713,793.529178 C829.713128,810.958217 815.496381,825 798,825 L798,825 L32,825 C14.326888,825 -9.50947992e-14,810.673112 -9.07661352e-14,793 L-9.07661352e-14,793 L-5.88028537e-14,271 L0.00428708574,270.470821 C0.286872383,253.041783 14.5036191,239 32,239 L32,239 L158,239 Z M414.806577,0.000454554044 C423.053039,-0.0433709771 431.313211,3.08067178 437.605122,9.37258283 C438.549596,10.3170567 439.422689,11.305881 440.224401,12.3323519 L440.224401,12.3323519 L594.241571,166.350288 C606.738348,178.847066 606.738348,199.108345 594.241571,211.605122 C581.744794,224.1019 561.483514,224.1019 548.986737,211.605122 L548.986737,211.605122 L446.652154,109.27 L446.651804,570.070042 C446.651804,587.743154 432.324916,602.070042 414.651804,602.070042 C396.978692,602.070042 382.651804,587.743154 382.651804,570.070042 L382.651804,570.070042 L382.652154,109.58 L280.627417,211.605122 L280.2502,211.976277 C267.726191,224.10065 247.744393,223.976932 235.372583,211.605122 C222.875806,199.108345 222.875806,178.847066 235.372583,166.350288 L235.372583,166.350288 L389.389753,12.3323519 C390.191465,11.305881 391.064558,10.3170567 392.009032,9.37258283 C398.300688,3.0809263 406.560447,-0.0431182279 414.806577,0.000454554044 Z" id="path-1"></path>

    </svg>
