<svg width="1024px" height="1024px" viewBox="0 0 1024 1024" version="1.1" xmlns="http://www.w3.org/2000/svg" xmlns:xlink="http://www.w3.org/1999/xlink">

        <path d="M726,64 C833.561491,64 921.191505,149.336797 924.879168,255.999516 L925,256 L925,278 C925,295.673112 910.673112,310 893,310 C875.503619,310 861.286872,295.958217 861.004287,278.529179 L861,278 L861,264 L860.996372,264.000275 C860.998789,263.667136 861,263.333709 861,263 C861,188.441559 800.558441,128 726,128 C651.441559,128 591,188.441559 591,263 L591.008,263.999 L591,263.999 L591,389 L865,389 C882.496381,389 896.713128,403.041783 896.995713,420.470822 L897,421 L897,928 C897,945.496381 882.958217,959.713128 865.529179,959.995713 L865,960 L159,960 C141.503619,960 127.286872,945.958217 127.004287,928.529179 L127,928 L127,421 C127,403.503619 141.041783,389.286872 158.470821,389.004287 L159,389 L527,389 L527,256 L527.120866,255.998514 C530.809043,149.336263 618.438846,64 726,64 Z M833,453 L191,453 L191,896 L833,896 L833,453 Z M512,526 C568.885329,526 615,572.114671 615,629 C615,674.446916 585.566127,713.019184 544.721432,726.693752 L544.721432,726.693752 L544.720166,802.865596 C544.720166,820.538708 530.393278,834.865596 512.720166,834.865596 C495.047054,834.865596 480.720166,820.538708 480.720166,802.865596 L480.720166,802.865596 L480.719461,727.164299 C439.127904,713.922449 409,674.979599 409,629 C409,572.114671 455.114671,526 512,526 Z M512,590 C490.460895,590 473,607.460895 473,629 C473,650.539105 490.460895,668 512,668 C533.539105,668 551,650.539105 551,629 C551,607.460895 533.539105,590 512,590 Z" id="path-1"></path>

    </svg>
