<svg width="1024px" height="1024px" viewBox="0 0 1024 1024" version="1.1" xmlns="http://www.w3.org/2000/svg" xmlns:xlink="http://www.w3.org/1999/xlink">

        <path d="M448,0 C695.423568,0 896,200.576432 896,448 C896,695.423568 695.423568,896 448,896 C327.91925,896 218.872874,848.756229 138.434184,771.842 L138.441757,775.176469 C138.37989,774.010488 138.324466,772.842799 138.27552,771.673435 L138.268316,771.683318 C53.0619722,690.127234 0,575.260261 0,448 C0,200.576432 200.576432,0 448,0 Z M448,512.48392 C317.251963,512.48392 210.327898,614.486471 202.463648,743.255731 C269.02945,798.670451 354.622458,832 448,832 C541.377542,832 626.97055,798.670451 693.531569,743.258811 C685.672102,614.486471 578.748037,512.48392 448,512.48392 Z M448,64 C235.922656,64 64,235.922656 64,448 C64,537.841173 94.8528572,620.476275 146.541212,685.887947 C170.254987,587.093919 241.259138,506.707806 334.274843,470.008626 C296.771436,437.920724 273,390.23642 273,337 C273,240.350169 351.350169,162 448,162 C544.649831,162 623,240.350169 623,337 C623,390.23642 599.228564,437.920724 561.721211,470.017391 C654.740109,506.709478 725.744869,587.094238 749.451227,685.880671 C801.147143,620.476275 832,537.841173 832,448 C832,235.922656 660.077344,64 448,64 Z M448,226 C386.696393,226 337,275.696393 337,337 C337,398.303607 386.696393,448 448,448 C509.303607,448 559,398.303607 559,337 C559,275.696393 509.303607,226 448,226 Z" id="path-1"></path>

    </svg>
