<svg width="1024px" height="1024px" viewBox="0 0 1024 1024" version="1.1" xmlns="http://www.w3.org/2000/svg" xmlns:xlink="http://www.w3.org/1999/xlink">

        <path d="M864,7.91260391e-11 C881.496381,7.91260391e-11 895.713128,14.0417829 895.995713,31.4708215 L896,32 L896,796 C896,813.496381 881.958217,827.713128 864.529179,827.995713 L864,828 L304,828 C286.503619,828 272.286872,813.958217 272.004287,796.529179 L272,796 L272,748 L151,748 C133.503619,748 119.286872,733.958217 119.004287,716.529179 L119,716 L119,668 L32,668 C14.5036191,668 0.286872383,653.958217 0.00428708574,636.529179 L0,636 L0,192 C2.14268868e-15,174.503619 14.0417829,160.286872 31.4708215,160.004287 L32,160 L119,160 L119,112 C119,94.5036191 133.041783,80.2868724 150.470821,80.0042871 L151,80 L272,80 L272,32 C272,14.5036191 286.041783,0.286872383 303.470821,0.00428708574 L304,0 L864,7.91260391e-11 Z M832,63.999 L336,63.999 L336,764 L832,764 L832,63.999 Z M272,144 L183,144 L183,684 L272,684 L272,144 Z M119,224 L64,224 L64,604 L119,604 L119,224 Z M754.544918,252.031654 L755.005343,252.29253 C770.157654,261.040721 775.448826,280.309635 766.979033,295.544918 L766.718156,296.005343 L611.977302,564.025692 C610.579636,566.545091 608.832388,568.892301 606.757058,570.987081 L606.704993,571.039381 L606.704993,571.039381 L606.652983,571.091608 C606.593107,571.151526 606.532279,571.211871 606.471175,571.271999 C606.400037,571.342595 606.328668,571.412339 606.257013,571.481706 C606.221323,571.515231 606.18598,571.549202 606.150547,571.583102 C603.514852,574.112292 600.496846,576.133437 597.250561,577.606055 C593.139427,579.48086 588.798192,580.413556 584.493339,580.475278 L584.054202,580.478465 C579.576405,580.489494 575.047173,579.559851 570.767074,577.608999 C567.522039,576.138127 564.504676,574.11878 561.868569,571.592376 C561.826754,571.55119 561.784416,571.51049 561.742206,571.469688 C561.688895,571.418936 561.636233,571.367546 561.583728,571.315951 C559.363209,569.138927 557.50462,566.677707 556.033385,564.025692 L401.29253,296.005343 C392.455974,280.699979 397.699979,261.129086 413.005343,252.29253 C428.310707,243.455974 447.8816,248.699979 456.718156,264.005343 L584.005,484.473 L711.29253,264.005343 C720.040721,248.853033 739.309635,243.561861 754.544918,252.031654 Z" id="path-1"></path>

    </svg>
