<svg width="1024px" height="1024px" viewBox="0 0 1024 1024" version="1.1" xmlns="http://www.w3.org/2000/svg" xmlns:xlink="http://www.w3.org/1999/xlink">

        <path d="M448,0 C695.423568,0 896,200.576432 896,448 C896,695.423568 695.423568,896 448,896 C200.576432,896 0,695.423568 0,448 C0,200.576432 200.576432,0 448,0 Z M448,64 C235.922656,64 64,235.922656 64,448 C64,660.077344 235.922656,832 448,832 C660.077344,832 832,660.077344 832,448 C832,235.922656 660.077344,64 448,64 Z M448,198 C465.673112,198 480,212.326888 480,230 L480,416 L666,416 C683.673112,416 698,430.326888 698,448 C698,465.673112 683.673112,480 666,480 L480,480 L480,666 C480,683.673112 465.673112,698 448,698 C430.326888,698 416,683.673112 416,666 L416,480 L230,480 C212.326888,480 198,465.673112 198,448 C198,430.326888 212.326888,416 230,416 L416,415.999 L416,230 C416,212.326888 430.326888,198 448,198 Z" id="path-1"></path>

    </svg>
