<svg width="1024px" height="1024px" viewBox="0 0 1024 1024" version="1.1" xmlns="http://www.w3.org/2000/svg" xmlns:xlink="http://www.w3.org/1999/xlink">

        <path d="M171.130733,0.019185777 L572,0.0193359831 C589.496381,0.0193359831 603.713128,14.0611189 603.995713,31.4901575 L604,32.019336 L604,152 L755,152 C772.496381,152 786.713128,166.041783 786.995713,183.470821 L787,184 L787,864 C787,881.496381 772.958217,895.713128 755.529179,895.995713 L755,896 L215,896 C197.503619,896 183.286872,881.958217 183.004287,864.529179 L183,864 L183,744.019 L32,744.019336 C14.5036191,744.019336 0.286872383,729.977553 0.00428708574,712.548514 L0,712.019336 L0,170.019336 C1.0878551e-15,161.136325 3.61948024,153.098689 9.46409612,147.300772 L9.50609665,147.258405 L147.391919,9.372583 C153.923009,2.84149285 162.574846,-0.276306229 171.130733,0.019185777 Z M723,215.999664 L366.254,215.999664 L247,335.253664 L247,831.999664 L723,831.999664 L723,215.999664 Z M540,151.999 L540,64.019 L183.254,64.019 L64,183.273 L64,680.019 L183,680.019 L183,322 C183,313.116989 186.61948,305.079353 192.464096,299.281436 L192.506097,299.239069 L330.391919,161.353247 C336.923009,154.822157 345.574846,151.704358 354.130733,151.99985 L540,151.999 Z" id="path-1"></path>

    </svg>
