<svg width="1024px" height="1024px" viewBox="0 0 1024 1024" version="1.1" xmlns="http://www.w3.org/2000/svg" xmlns:xlink="http://www.w3.org/1999/xlink">

        <path d="M44.5116528,606.54904 L412.136,762.595939 L779.760972,606.54904 C795.866476,599.71266 814.439622,607.083264 821.509811,623.016363 L821.720524,623.5018 C828.556904,639.607303 821.186301,658.180449 805.253201,665.250638 L804.767765,665.461351 L425.979203,826.247844 C421.834046,828.227633 417.275241,829.315123 412.620085,829.382115 L412.196002,829.385293 C407.352545,829.398347 402.599762,828.304617 398.293422,826.247844 L19.5048606,665.461351 C3.23667524,658.555916 -4.35333359,639.769985 2.55210141,623.5018 C9.4575364,607.233614 28.2434675,599.643605 44.5116528,606.54904 Z M821.509811,402.017894 L821.720524,402.50333 C828.556904,418.608834 821.186301,437.18198 805.253201,444.252169 L804.767765,444.462882 L425.979203,605.249374 C421.834046,607.229164 417.275241,608.316653 412.620085,608.383645 L412.196002,608.386823 C407.352545,608.399877 402.599762,607.306147 398.293422,605.249374 L19.5048606,444.462882 C3.23667524,437.557447 -4.35333359,418.771515 2.55210141,402.50333 C9.4575364,386.235145 28.2434675,378.645136 44.5116528,385.550571 L412.136,541.597469 L779.760972,385.550571 C795.866476,378.71419 814.439622,386.084794 821.509811,402.017894 Z M412.196007,0.000115501891 L412.62009,0.00329382832 C417.072848,0.0673732131 421.437451,1.06513998 425.436215,2.88440237 L425.979208,3.13756498 L804.767769,163.924057 L805.253206,164.13477 C817.24633,169.456626 824.388083,181.295869 824.271218,193.694354 C824.387884,206.09293 817.246162,217.931918 805.253206,223.253699 L804.767769,223.464412 L425.979208,384.250905 C421.834051,386.230694 417.275246,387.318184 412.62009,387.385176 L412.196007,387.388354 C407.35255,387.401408 402.599767,386.307678 398.293427,384.250905 L19.5048654,223.464412 C7.21945714,218.249566 -0.116814489,206.25931 0.00141230526,193.694633 C-0.115670399,181.272275 7.05351672,169.411561 19.0879599,164.104455 L19.5048654,163.924057 L398.293427,3.13756498 C402.599767,1.08079154 407.35255,-0.0129383852 412.196007,0.000115501891 Z M412.136005,66.7894695 L113.165,193.694 L412.136005,320.599 L711.106,193.694 L412.136005,66.7894695 Z" id="path-1"></path>

    </svg>
