<svg width="1024px" height="1024px" viewBox="0 0 1024 1024" version="1.1" xmlns="http://www.w3.org/2000/svg" xmlns:xlink="http://www.w3.org/1999/xlink">

        <path d="M661,120 C678.673112,120 693,134.326888 693,152 L693,276 C693,293.673112 678.673112,308 661,308 L480,308 L480,479 L770,479 L770,479 L770.529179,479.004287 C787.958217,479.286872 802,493.503619 802,511 L802,511 L802,644 L864,644 C881.673112,644 896,658.326888 896,676 L896,864 C896,881.673112 881.673112,896 864,896 L676,896 C658.326888,896 644,881.673112 644,864 L644,676 C644,658.326888 658.326888,644 676,644 L738,644 L738,543 L480,543 L480.001184,696.074175 C494.930553,700.939697 508.968303,709.304306 520.831998,721.168002 C561.056001,761.392004 561.056001,826.607996 520.831998,866.831998 C480.607996,907.056001 415.392004,907.056001 375.168002,866.831998 C334.943999,826.607996 334.943999,761.392004 375.168002,721.168002 C387.031962,709.304041 401.070074,700.939323 415.999817,696.073849 L416,543 L158,543 L158,641 C158,642.011939 157.953028,643.012908 157.861147,644.000844 L220,644 C237.673112,644 252,658.326888 252,676 L252,864 C252,881.673112 237.673112,896 220,896 L32,896 C14.326888,896 2.164332e-15,881.673112 0,864 L0,676 C-2.164332e-15,658.326888 14.326888,644 32,644 L94.1388532,644.000844 C94.0469715,643.012908 94,642.011939 94,641 L94,641 L94,511 C94,493.326888 108.326888,479 126,479 L126,479 L416,479 L416,308 L235,308 C217.326888,308 203,293.673112 203,276 L203,152 C203,134.326888 217.326888,120 235,120 L661,120 Z M420.422836,766.422836 C405.192388,781.653283 405.192388,806.346717 420.422836,821.577164 C435.653283,836.807612 460.346717,836.807612 475.577164,821.577164 C490.807612,806.346717 490.807612,781.653283 475.577164,766.422836 C460.346717,751.192388 435.653283,751.192388 420.422836,766.422836 Z M832,708 L708,708 L708,832 L832,832 L832,708 Z M188,708 L64,708 L64,832 L188,832 L188,708 Z M831,0 C848.496381,5.62749847e-14 862.713128,14.0417829 862.995713,31.4708215 L863,32 L863,396 C863,413.496381 848.958217,427.713128 831.529179,427.995713 L831,428 L625,428 C607.326888,428 593,413.673112 593,396 C593,378.503619 607.041783,364.286872 624.470821,364.004287 L625,364 L799,364 L799,64 L97,64 L97,364 L271,364 C288.673112,364 303,378.326888 303,396 C303,413.496381 288.958217,427.713128 271.529179,427.995713 L271,428 L65,428 C47.5036191,428 33.2868724,413.958217 33.0042871,396.529179 L33,396 L33,32 C33,14.5036191 47.0417829,0.286872383 64.4708215,0.00428708574 L65,0 L831,0 Z" id="path-1"></path>

    </svg>
