<?xml version="1.0" encoding="UTF-8"?>
<svg width="20px" height="20px" viewBox="0 0 20 20" version="1.1" xmlns="http://www.w3.org/2000/svg" xmlns:xlink="http://www.w3.org/1999/xlink">
    <title>assets</title>
    <g id="assets" stroke="none" stroke-width="1" fill="none" fill-rule="evenodd" opacity="0.85">
        <g fill="#000000" fill-rule="nonzero">
            <rect id="矩形" opacity="0" x="0" y="0" width="20" height="20"></rect>
            <path d="M8.50390625,13.1884766 L8.54114591,13.1956692 L12.9752151,15.0011652 L17.6562503,13.3871095 C17.9394514,13.289394 18.2524177,13.3345734 18.4964201,13.5083953 C18.7100035,13.6605473 18.8477411,13.8947799 18.8788383,14.1516103 L18.8855469,14.2628906 L18.8855469,17.0559063 C18.8853238,17.5310099 18.5281093,17.9227354 18.0672551,17.9771419 L17.9591797,17.9835938 L2.19734308,17.9835938 C1.72216078,17.9830337 1.33065259,17.6254271 1.27666431,17.1645254 L1.2703125,17.0564453 L1.2703125,14.1153118 C1.27087282,13.6401504 1.62851886,13.2486887 2.08938937,13.1948036 L2.19746094,13.1884766 L8.50390625,13.1884766 Z M8.3063125,14.3069609 L2.3893125,14.3069609 L2.3893125,16.8639609 L17.7673125,16.8639609 L17.7673125,14.5309609 L12.947336,16.1689814 L8.3063125,14.3069609 Z M4.35761719,14.6957031 C4.72224869,14.6961336 5.01773356,14.9916185 5.01816406,15.35625 L5.01816406,15.815625 C5.01784119,16.1803328 4.72232485,16.4759365 4.35761719,16.4763672 L3.89804688,16.4763672 C3.53333922,16.4759365 3.23782288,16.1803328 3.2375,15.815625 L3.2375,15.35625 C3.2379305,14.9916185 3.53341538,14.6961336 3.89804688,14.6957031 L4.35761719,14.6957031 Z M4.35761719,15.2816406 L3.89804688,15.2816406 C3.87825924,15.2816406 3.85928205,15.2895012 3.84529008,15.3034932 C3.83129811,15.3174852 3.8234375,15.3364624 3.8234375,15.35625 L3.8234375,15.815625 C3.8234375,15.8568623 3.85680968,15.890322 3.89804688,15.8904297 L4.35761719,15.8904297 C4.39885438,15.890322 4.43222656,15.8568623 4.43222656,15.815625 L4.43222656,15.35625 C4.43222656,15.3364624 4.42436595,15.3174852 4.41037398,15.3034932 C4.39638201,15.2895012 4.37740482,15.2816406 4.35761719,15.2816406 Z M17.9596882,7.6734375 C18.4348705,7.6739976 18.8263787,8.03160419 18.8803669,8.49250587 L18.8867188,8.60058594 L18.8867188,11.6339609 C18.8853566,12.0047653 18.664848,12.335099 18.3323143,12.4821462 L18.2174675,12.5241776 L12.9111036,14.0419819 L8.37460938,12.4693359 L2.19773386,12.4693359 C1.72286836,12.468777 1.33150427,12.1116295 1.27714888,11.6509917 L1.27070313,11.5429688 L1.27070313,8.60136719 C1.27070313,8.12588661 1.62846154,7.73385952 2.08969258,7.679798 L2.19785156,7.6734375 L17.9596882,7.6734375 Z M17.7673125,8.79296094 L2.3893125,8.79296094 L2.3893125,11.3499609 L8.56135101,11.3558675 L12.940924,12.8875432 L17.7673125,11.4889609 L17.7673125,8.79296094 Z M4.35761719,9.18144531 C4.72224869,9.18187581 5.01773356,9.47736069 5.01816406,9.84199219 L5.01816406,10.3015625 C5.01773356,10.666194 4.72224869,10.9616789 4.35761719,10.9621094 L3.89804688,10.9621094 C3.53341538,10.9616789 3.2379305,10.666194 3.2375,10.3015625 L3.2375,9.84199219 C3.2379305,9.47736069 3.53341538,9.18187581 3.89804688,9.18144531 L4.35761719,9.18144531 Z M16.6955078,9.62009807 C16.8619198,9.6166669 17.0171804,9.70348371 17.1013926,9.84705601 C17.1856049,9.99062831 17.1856049,10.1685131 17.1013926,10.3120854 C17.0171804,10.4556577 16.8619198,10.5424746 16.6955078,10.5390434 L8.60800781,10.5390434 C8.3579394,10.5338873 8.15791116,10.3296923 8.15791116,10.0795707 C8.15791116,9.82944916 8.3579394,9.62525412 8.60800781,9.62009807 L16.6955078,9.62009807 Z M4.35761719,9.76738281 L3.89804688,9.76738281 C3.85684125,9.76738281 3.8234375,9.80078657 3.8234375,9.84199219 L3.8234375,10.3015625 C3.8234375,10.3213501 3.83129811,10.3403273 3.84529008,10.3543193 C3.85928205,10.3683113 3.87825924,10.3761719 3.89804688,10.3761719 L4.35761719,10.3761719 C4.37740482,10.3761719 4.39638201,10.3683113 4.41037398,10.3543193 C4.42436595,10.3403273 4.43222656,10.3213501 4.43222656,10.3015625 L4.43222656,9.84199219 C4.43222656,9.80078657 4.39882281,9.76738281 4.35761719,9.76738281 Z M17.9591797,2.15996094 C18.4344714,2.16052103 18.8259874,2.51812763 18.8799763,2.97902931 L18.8863281,3.08710938 L18.8863281,6.02819573 C18.8859919,6.50351587 18.528301,6.89521863 18.0672862,6.94913773 L17.9591797,6.95546875 L2.19736665,6.95546875 C1.72220514,6.95502066 1.33065902,6.59746709 1.27666502,6.13659041 L1.2703125,6.02851563 L1.2703125,3.08699152 C1.2708726,2.61180921 1.62847919,2.22030103 2.08938087,2.16631275 L2.19746094,2.15996094 L17.9591797,2.15996094 Z M17.7673125,3.27896094 L2.3893125,3.27896094 L2.3893125,5.83596094 L17.7673125,5.83596094 L17.7673125,3.27896094 Z M4.35761719,3.6671875 C4.72232485,3.6676182 5.01784119,3.96322192 5.01816406,4.32792969 L5.01816406,4.78730469 C5.01773356,5.15193619 4.72224869,5.44742106 4.35761719,5.44785156 L3.89804688,5.44785156 C3.53341538,5.44742106 3.2379305,5.15193619 3.2375,4.78730469 L3.2375,4.32792969 C3.23782288,3.96322192 3.53333922,3.6676182 3.89804688,3.6671875 L4.35761719,3.6671875 Z M16.6955078,4.12109375 C16.8619198,4.11766258 17.0171804,4.20447939 17.1013926,4.34805169 C17.1856049,4.49162399 17.1856049,4.66950882 17.1013926,4.81308112 C17.0171804,4.95665342 16.8619198,5.04347024 16.6955078,5.04003906 L8.60800781,5.04003906 C8.3579394,5.03488301 8.15791116,4.83068797 8.15791116,4.58056641 C8.15791116,4.33044484 8.3579394,4.1262498 8.60800781,4.12109375 L16.6955078,4.12109375 Z M4.35761719,4.253125 L3.89804688,4.253125 C3.85680968,4.25323267 3.8234375,4.28669235 3.8234375,4.32792969 L3.8234375,4.78730469 C3.8234375,4.82851031 3.85684125,4.86191406 3.89804688,4.86191406 L4.35761719,4.86191406 C4.39882281,4.86191406 4.43222656,4.82851031 4.43222656,4.78730469 L4.43222656,4.32792969 C4.43222656,4.28669235 4.39885438,4.25323267 4.35761719,4.253125 Z" id="形状结合"></path>
        </g>
    </g>
</svg>