<?xml version="1.0" encoding="UTF-8"?>
<svg width="20px" height="20px" viewBox="0 0 20 20" version="1.1" xmlns="http://www.w3.org/2000/svg" xmlns:xlink="http://www.w3.org/1999/xlink">
    <title>datawarehouse</title>
    <g id="datawarehouse" stroke="none" stroke-width="1" fill="none" fill-rule="evenodd" opacity="0.85">
        <g fill="#000000" fill-rule="nonzero">
            <rect id="矩形" opacity="0" x="0" y="0" width="20" height="20"></rect>
            <path d="M9.68809245,0.981947444 C9.87498292,0.87275008 10.1062013,0.87267973 10.2931582,0.981763349 L10.2931582,0.981763349 L17.644207,5.27087526 C17.8285079,5.37840921 17.9418317,5.57573342 17.9418317,5.78911191 L17.9418317,5.78911191 L17.9418317,14.1576666 C17.9418317,14.3702056 17.8293906,14.5668844 17.6462361,14.674714 L17.6462361,14.674714 L10.2705449,19.0170474 C10.0820212,19.128038 9.84803043,19.1276226 9.65990207,19.0159632 L9.65990207,19.0159632 L2.34376149,14.6736297 C2.16164474,14.5655384 2.05,14.3694454 2.05,14.1576666 L2.05,14.1576666 L2.05,5.78911191 C2.05,5.57586377 2.16318658,5.37863967 2.34730948,5.27105936 L2.34730948,5.27105936 Z M9.991,2.195 L3.249,6.133 L3.249,13.815 L9.966,17.802 L16.741,13.814 L16.741,6.133 L9.991,2.195 Z M14,10.4 C14.3313708,10.4 14.6,10.6686292 14.6,11 L14.6,11 L14.6,14 C14.6,14.3313708 14.3313708,14.6 14,14.6 L14,14.6 L11,14.6 C10.6686292,14.6 10.4,14.3313708 10.4,14 L10.4,14 L10.4,11 C10.4,10.6686292 10.6686292,10.4 11,10.4 L11,10.4 Z M9,10.4 C9.33137085,10.4 9.6,10.6686292 9.6,11 L9.6,11 L9.6,14 C9.6,14.3313708 9.33137085,14.6 9,14.6 L9,14.6 L6,14.6 C5.66862915,14.6 5.4,14.3313708 5.4,14 L5.4,14 L5.4,11 C5.4,10.6686292 5.66862915,10.4 6,10.4 L6,10.4 Z M13.4,11.6 L11.6,11.6 L11.6,13.4 L13.4,13.4 L13.4,11.6 Z M8.4,11.6 L6.6,11.6 L6.6,13.4 L8.4,13.4 L8.4,11.6 Z M14,5.4 C14.3313708,5.4 14.6,5.66862915 14.6,6 L14.6,6 L14.6,9 C14.6,9.33137085 14.3313708,9.6 14,9.6 L14,9.6 L11,9.6 C10.6686292,9.6 10.4,9.33137085 10.4,9 L10.4,9 L10.4,6 C10.4,5.66862915 10.6686292,5.4 11,5.4 L11,5.4 Z M13.4,6.6 L11.6,6.6 L11.6,8.4 L13.4,8.4 L13.4,6.6 Z" id="形状结合"></path>
        </g>
    </g>
</svg>