<?xml version="1.0" encoding="UTF-8"?>
<svg width="20px" height="20px" viewBox="0 0 20 20" version="1.1" xmlns="http://www.w3.org/2000/svg" xmlns:xlink="http://www.w3.org/1999/xlink">
    <title>datamodel</title>
    <g id="datamodel" stroke="none" stroke-width="1" fill="none" fill-rule="evenodd" opacity="0.85">
        <g fill="#000000" fill-rule="nonzero">
            <rect id="矩形" opacity="0" x="0" y="0" width="20" height="20"></rect>
            <g id="编组-10" transform="translate(2.074638, 1.900000)">
                <path d="M12.8368809,0 C13.002809,0 13.15973,0.0685960584 13.2720192,0.186883656 L13.3337519,0.263667963 L15.7642761,3.85433664 C15.8391581,3.96496154 15.8712456,4.08633695 15.8682317,4.20396533 L15.8674051,15.6085039 C15.8674051,15.9067377 15.6498155,16.1541507 15.3647282,16.2006509 L15.2674051,16.2085039 L0.6,16.2085039 C0.301766235,16.2085039 0.054353247,15.9909143 0.00785298705,15.705827 L0,15.6085039 L0,4.19066868 L0.00172218051,4.13414089 C0.00701459496,4.07849788 0.0203784522,4.02254409 0.0426386342,3.96772156 L0.0828042612,3.88651647 L2.1944029,0.295847788 C2.28679711,0.138736023 2.44455402,0.0336011537 2.62165134,0.00676898223 L2.71159864,0 L12.8368809,0 Z M14.667,4.79 L1.2,4.79 L1.2,15.008 L14.667,15.008 L14.667,4.79 Z M7.35463799,5.82 C8.3211363,5.82 9.10463799,6.60350169 9.10463799,7.57 C9.10463799,7.85327044 9.03733408,8.12082121 8.91784507,8.35753352 L10.6475669,10.2355507 C10.8590195,10.1594865 11.0869882,10.1180368 11.324638,10.1180368 C12.4292075,10.1180368 13.324638,11.0134673 13.324638,12.1180368 C13.324638,13.2226063 12.4292075,14.1180368 11.324638,14.1180368 C10.2200685,14.1180368 9.32463799,13.2226063 9.32463799,12.1180368 C9.32463799,11.6897433 9.45926396,11.2928933 9.68850724,10.9674956 L8.04193882,9.17987318 C7.83094022,9.27007099 7.59861988,9.32 7.35463799,9.32 C7.20421306,9.32 7.05822096,9.30102082 6.91892566,9.26532645 L5.94234279,10.4417743 C6.18278131,10.7718795 6.32463799,11.178392 6.32463799,11.6180368 C6.32463799,12.7226063 5.42920748,13.6180368 4.32463799,13.6180368 C3.22006849,13.6180368 2.32463799,12.7226063 2.32463799,11.6180368 C2.32463799,10.5134673 3.22006849,9.61803684 4.32463799,9.61803684 C4.55670915,9.61803684 4.77954842,9.65756332 4.98679085,9.73025137 L5.93310126,8.59087892 C5.72638696,8.30354437 5.60463799,7.95099018 5.60463799,7.57 C5.60463799,6.60350169 6.38813967,5.82 7.35463799,5.82 Z M11.324638,11.3180368 C10.8828102,11.3180368 10.524638,11.676209 10.524638,12.1180368 C10.524638,12.5598646 10.8828102,12.9180368 11.324638,12.9180368 C11.7664658,12.9180368 12.124638,12.5598646 12.124638,12.1180368 C12.124638,11.676209 11.7664658,11.3180368 11.324638,11.3180368 Z M4.32463799,10.8180368 C3.88281019,10.8180368 3.52463799,11.176209 3.52463799,11.6180368 C3.52463799,12.0598646 3.88281019,12.4180368 4.32463799,12.4180368 C4.76646579,12.4180368 5.12463799,12.0598646 5.12463799,11.6180368 C5.12463799,11.176209 4.76646579,10.8180368 4.32463799,10.8180368 Z M7.35463799,7.02 C7.05088137,7.02 6.80463799,7.26624339 6.80463799,7.57 C6.80463799,7.87375661 7.05088137,8.12 7.35463799,8.12 C7.6583946,8.12 7.90463799,7.87375661 7.90463799,7.57 C7.90463799,7.26624339 7.6583946,7.02 7.35463799,7.02 Z M12.519,1.2 L3.054,1.2 L1.649,3.59 L14.136,3.59 L12.519,1.2 Z" id="形状结合"></path>
            </g>
        </g>
    </g>
</svg>