<?xml version="1.0" encoding="UTF-8"?>
<svg width="20px" height="20px" viewBox="0 0 20 20" version="1.1" xmlns="http://www.w3.org/2000/svg" xmlns:xlink="http://www.w3.org/1999/xlink">
    <title>streamSQL开发</title>
    <g id="streamSQL开发" stroke="none" stroke-width="1" fill="none" fill-rule="evenodd" opacity="0.85">
        <g id="sc-实时计算（流计算）" transform="translate(2.000000, 2.000000)" fill="#000000" fill-rule="nonzero">
            <rect id="矩形" fill-opacity="0.85" opacity="0" x="3.20599946e-05" y="0" width="15.9999646" height="15.9999646"></rect>
            <path d="M13.9220046,1.02599773 C14.49467,1.02599773 14.9610023,1.48599671 14.9610023,2.05132879 C14.9610023,2.61699421 14.4943367,3.07665987 13.9220046,3.07665987 C13.3493392,3.07665987 12.8830069,2.61666088 12.8830069,2.05132879 C12.8830069,1.48599671 13.3493392,1.02599773 13.9220046,1.02599773 M4.36402574,6.8719848 L0.520700908,6.8719848 C0.380701218,6.87331813 0.24803484,6.928318 0.150701727,7.02431779 C0.0538066464,7.11891274 -0.000357824666,7.24890748 0.000702058513,7.384317 C0.000702058513,7.6676497 0.233701543,7.8976492 0.520700908,7.8976492 L4.36402574,7.8976492 C5.64668957,7.8976492 6.69302058,6.8943181 6.74868713,5.64098752 L8.96934889,5.64098752 C9.20283872,6.24054411 9.78126575,6.63455281 10.424679,6.63231866 C11.2846771,6.63231866 11.9826756,5.94398685 11.9826756,5.09432206 C11.9826756,4.24432394 11.2850104,3.55565879 10.424679,3.55565881 C9.75440624,3.55318542 9.15790821,3.98031078 8.94434895,4.61565646 L6.75402045,4.61565646 L6.75402045,3.89732471 C6.75402045,3.16265966 7.35935244,2.56432766 8.10401746,2.56432766 L11.9126757,2.56432766 C12.1436752,3.44865903 12.9546734,4.10232425 13.9220046,4.10232425 C15.0693354,4.10232425 16,3.18432629 16,2.05166213 C16,0.918331297 15.0693354,0 13.9220046,0 C12.9540067,0 12.1430085,0.654331881 11.912009,1.53866327 L8.10435081,1.53866327 C6.78702039,1.53866327 5.71468942,2.59699426 5.71468942,3.89732471 L5.71468942,4.61565646 L0.520367581,4.61565646 C0.381034561,4.61698979 0.248034855,4.67198967 0.150368399,4.76798945 C0.053473319,4.86258441 -0.000691152054,4.99257914 0.000353463858,5.12798866 C0.000353463858,5.4116547 0.233701543,5.64098752 0.520367581,5.64098752 L5.71002276,5.64098752 C5.65668955,6.32831933 5.07435749,6.8719848 4.36435908,6.8719848 M0.520034238,10.3589771 L7.09901969,10.3589771 C7.3328191,10.9582873 7.9110525,11.3521641 8.55434981,11.3503148 C9.41501458,11.3503148 10.1126797,10.6616431 10.1126797,9.8119783 C10.1126797,8.96198018 9.41501456,8.27330434 8.55434981,8.27330434 C7.88407705,8.27084164 7.28757901,8.697967 7.07401974,9.33331269 L0.520700908,9.33331269 C0.380701218,9.33464601 0.247701512,9.38964589 0.150368399,9.48597902 C0.0532669895,9.58059809 -0.00102800043,9.71073751 2.00568639e-05,9.84631155 C2.00568639e-05,10.1296443 0.2333682,10.3589771 0.520034238,10.3589771 M13.9216713,14.9746336 C13.3490059,14.9746336 12.8826736,14.5146346 12.8826736,13.9486358 C12.8826736,13.3829704 13.3490059,12.9233047 13.9216713,12.9233047 C14.4943367,12.9233047 14.960669,13.3833037 14.960669,13.9486358 C14.960669,14.5146346 14.4940033,14.9739669 13.9216713,14.9739669 M13.9216713,11.897307 C12.9536734,11.897307 12.1426752,12.5519722 11.9116757,13.4359703 L10.7800115,13.4359703 C10.0777958,13.4350373 9.38451204,13.2785077 8.75001604,12.977638 L7.01001988,12.1496398 C6.23429404,11.7820674 5.38676371,11.590932 4.52835872,11.5899744 L0.520034238,11.5899744 C0.380367875,11.5913077 0.247368169,11.6463076 0.150035056,11.7423074 C0.0530561517,11.8369827 -0.00111546638,11.967115 1.74183794e-05,12.1026399 C1.74183794e-05,12.3859726 0.233034873,12.6153054 0.520034238,12.6153054 L4.52735872,12.6153054 C5.22635717,12.6153054 5.92802229,12.7739717 6.55735423,13.0739711 L8.29835038,13.9019693 C9.07402995,14.2692946 9.92142085,14.4603104 10.7796782,14.4613013 L11.9123424,14.4613013 C12.1430085,15.3456327 12.9540067,15.9999646 13.9213379,15.9999646 C15.0690021,15.9999646 15.9993333,15.0816333 15.9993333,13.9486358 C15.9993333,12.8156383 15.0690021,11.8976404 13.9213379,11.8976404" id="形状"></path>
        </g>
    </g>
</svg>