<?xml version="1.0" standalone="no"?><!DOCTYPE svg PUBLIC "-//W3C//DTD SVG 1.1//EN" "http://www.w3.org/Graphics/SVG/1.1/DTD/svg11.dtd"><svg t="1596634737335" class="icon" viewBox="0 0 1024 1024" version="1.1" xmlns="http://www.w3.org/2000/svg" p-id="1756" xmlns:xlink="http://www.w3.org/1999/xlink" width="200" height="200"><defs><style type="text/css"></style></defs><path d="M512 149.333333c-65.7792 0-126.442667 16.221867-181.998933 48.6656C274.4448 230.442667 230.442667 274.4448 197.998933 330.001067 165.5552 385.553067 149.333333 446.225067 149.333333 512c0 65.7792 16.221867 126.442667 48.6656 181.998933 32.443733 55.556267 76.445867 99.5584 132.002134 132.002134C385.553067 858.4448 446.225067 874.666667 512 874.666667c65.7792 0 126.442667-16.221867 181.998933-48.6656 55.556267-32.443733 99.5584-76.445867 132.002134-132.002134C858.4448 638.446933 874.666667 577.774933 874.666667 512c0-65.7792-16.221867-126.442667-48.6656-181.998933-32.443733-55.556267-76.445867-99.5584-132.002134-132.002134C638.446933 165.5552 577.774933 149.333333 512 149.333333z m512 362.666667c0 92.885333-22.890667 178.555733-68.667733 256.9984-45.777067 78.446933-107.886933 140.5568-186.333867 186.333867C690.56 1001.1136 604.8896 1024 512 1024c-92.885333 0-178.555733-22.890667-256.9984-68.667733-78.446933-45.777067-140.5568-107.886933-186.333867-186.333867C22.8864 690.56 0 604.8896 0 512c0-92.885333 22.890667-178.555733 68.667733-256.9984C114.4448 176.554667 176.554667 114.4448 255.0016 68.667733 333.44 22.8864 419.1104 0 512 0c92.885333 0 178.555733 22.890667 256.9984 68.667733 78.446933 45.777067 140.5568 107.886933 186.333867 186.333867C1001.1136 333.44 1024 419.1104 1024 512z" p-id="1757" fill="#1296db"></path></svg>