<?xml version="1.0" standalone="no"?><!DOCTYPE svg PUBLIC "-//W3C//DTD SVG 1.1//EN" "http://www.w3.org/Graphics/SVG/1.1/DTD/svg11.dtd"><svg t="1607326977327" class="icon" viewBox="0 0 1024 1024" version="1.1" xmlns="http://www.w3.org/2000/svg" p-id="707" xmlns:xlink="http://www.w3.org/1999/xlink" width="200" height="200"><defs><style type="text/css"></style></defs><path d="M512 949.333333C753.06666699 949.333333 949.333333 753.066667 949.333333 512S753.066667 74.666667 512 74.66666699 74.666667 270.933333 74.666667 512 270.93333301 949.333333 512 949.333333z m0-810.666666c204.8 0 373.333333 168.533333 373.333333 373.333333S716.8 885.333333 512 885.33333299 138.666667 716.8 138.666667 512 307.2 138.666667 512 138.666667z" fill="#ffffff" p-id="708"></path><path d="M490.666667 716.79999999c12.8 10.666667 32 10.666667 44.8 1e-8l181.333333-170.666667c12.8-12.8 12.8-32 2.133333-44.8s-32-12.8-44.8-2.133333l-128 119.466667 0-277.333334c0-17.066667-14.933333-32-32-32s-32 14.933333-32 32L482.133333 618.666667l-128-119.466667c-6.4-6.4-14.933333-8.533333-21.333333-8.533333-8.533333 0-17.066667 4.266667-23.466667 10.66666599-12.8 12.8-10.666667 34.133333 2.133334 44.80000001l179.2 170.66666699z" fill="#ffffff" p-id="709"></path></svg>