<?xml version="1.0" encoding="UTF-8"?>
<svg width="145px" height="100px" viewBox="0 0 145 100" version="1.1" xmlns="http://www.w3.org/2000/svg" xmlns:xlink="http://www.w3.org/1999/xlink">
    <!-- Generator: Sketch 64 (93537) - https://sketch.com -->
    <title>编组 14</title>
    <desc>Created with Sketch.</desc>
    <g id="鲁班我的资源和打包" stroke="none" stroke-width="1" fill="none" fill-rule="evenodd">
        <g id="我的资源" transform="translate(-135.000000, -138.000000)">
            <g id="编组-8" transform="translate(24.000000, 110.000000)">
                <g id="编组-14">
                    <g transform="translate(95.000000, 0.000000)">
                        <rect id="矩形备份-4" x="0" y="0" width="177" height="177"></rect>
                        <path d="M54.8027047,87.4482368 L54.8027047,91.7109917 L20.9740188,91.7109917 L20.9740188,121.400241 L70.6593536,121.400241 L70.6593536,91.7109917 L61.5419448,91.7109917 L61.5419448,87.4482368 L74.8901292,87.4482368 L74.8901292,136.979595 L55.1366556,136.979595 L56.5370599,144.034542 L61.5419448,144.034542 L61.5419448,148.297297 L30.0914278,148.297297 L30.0914278,144.034542 L35.0963125,144.034542 L36.4967168,136.979595 L16.7432432,136.979595 L16.7432432,87.4482368 L54.8027047,87.4482368 Z M140.169332,87.4482368 L140.169332,91.7109917 L106.340646,91.7109917 L106.340646,121.400241 L156.025981,121.400241 L156.025981,91.7109917 L146.908572,91.7109917 L146.908572,87.4482368 L160.256757,87.4482368 L160.256757,136.979595 L140.503283,136.979595 L141.903687,144.034542 L146.908572,144.034542 L146.908572,148.297297 L115.458055,148.297297 L115.458055,144.034542 L120.46294,144.034542 L121.863344,136.979595 L102.109871,136.979595 L102.109871,87.4482368 L140.169332,87.4482368 Z M50.8215711,136.979595 L40.8107064,136.979595 L39.4113972,144.034542 L52.2219754,144.034542 L50.8215711,136.979595 Z M136.188198,136.979595 L126.178429,136.979595 L124.778025,144.034542 L137.588603,144.034542 L136.188198,136.979595 Z M70.6593536,125.662996 L20.9740188,125.662996 L20.9740188,132.71684 L70.6593536,132.71684 L70.6593536,125.662996 Z M156.025981,125.662996 L106.340646,125.662996 L106.340646,132.71684 L156.025981,132.71684 L156.025981,125.662996 Z M66.0355015,112.345196 L66.0355015,116.609054 L61.5419448,116.609054 L61.5419448,112.345196 L66.0355015,112.345196 Z M57.049483,112.345196 L57.049483,116.609054 L52.5559263,116.609054 L52.5559263,112.345196 L57.049483,112.345196 Z M151.402129,112.345196 L151.402129,116.609054 L146.908572,116.609054 L146.908572,112.345196 L151.402129,112.345196 Z M142.41611,112.345196 L142.41611,116.609054 L137.922554,116.609054 L137.922554,112.345196 L142.41611,112.345196 Z M34.5838897,96.5010748 L34.5838897,100.76383 L29.9600373,100.76383 L29.9600373,107.687497 L25.7292617,107.687497 L25.7292617,96.5010748 L34.5838897,96.5010748 Z M119.950517,96.5010748 L119.950517,100.76383 L115.326665,100.76383 L115.326665,107.687497 L111.095889,107.687497 L111.095889,96.5010748 L119.950517,96.5010748 Z M66.0355015,103.292358 L66.0355015,107.555113 L61.5419448,107.555113 L61.5419448,103.292358 L66.0355015,103.292358 Z M151.402129,103.292358 L151.402129,107.555113 L146.908572,107.555113 L146.908572,103.292358 L151.402129,103.292358 Z M90.6153878,98.6324522 L90.6153878,103.159974 L86.3846122,103.159974 L86.3846122,98.6324522 L90.6153878,98.6324522 Z M90.6153878,89.5796142 L90.6153878,94.1060334 L86.3846122,94.1060334 L86.3846122,89.5796142 L90.6153878,89.5796142 Z M138.963201,62.2854065 L90.6153878,62.2854065 L90.6153878,71.6030121 L133.298702,71.6030121 L133.298702,82.7883309 L129.067926,82.7883309 L129.067926,75.8657669 L90.6153878,75.8657669 L90.6153878,85.052092 L86.3846122,85.052092 L86.3846122,75.8657669 L47.932074,75.8657669 L47.932074,82.7883309 L43.7012984,82.7883309 L43.7012984,71.6030121 L86.3846122,71.6030121 L86.3846122,62.2854065 L45.8432332,62.2854065 L45.8432332,48.2493353 L38.0832359,48.2493353 L38.0832359,28.7027027 L57.4832292,28.7027027 L57.4832292,48.2493353 L49.7232319,48.2493353 L49.7232319,58.0206969 L86.5832191,58.0206969 L86.5832191,48.2493353 L78.8232218,48.2493353 L78.8232218,28.7027027 L98.2232151,28.7027027 L98.2232151,48.2493353 L90.4632178,48.2493353 L90.4632178,58.0206969 L135.083202,58.0206969 L135.083202,48.2493353 L127.323205,48.2493353 L127.323205,28.7027027 L146.723198,28.7027027 L146.723198,48.2493353 L138.963201,48.2493353 L138.963201,62.2854065 Z M53.6032305,32.6120292 L41.9632345,32.6120292 L41.9632345,44.3400088 L53.6032305,44.3400088 L53.6032305,32.6120292 Z M94.3432164,32.6120292 L82.7032205,32.6120292 L82.7032205,44.3400088 L94.3432164,44.3400088 L94.3432164,32.6120292 Z M142.8432,32.6120292 L131.203204,32.6120292 L131.203204,44.3400088 L142.8432,44.3400088 L142.8432,32.6120292 Z" id="形状" fill-opacity="0.25" fill="#FFFFFF" fill-rule="nonzero"></path>
                    </g>
                </g>
            </g>
        </g>
    </g>
</svg>