<svg xmlns="http://www.w3.org/2000/svg" viewBox="0 0 79.9 22.5" class="logo">
    <defs>
      <style>
        .cls-1 {
          fill: #fff;
        }
      </style>
    </defs>
    <title>资源 2</title>
    <g id="图层_2" data-name="图层 2">
      <g id="图层_1-2" data-name="图层 1">
        <path class="cls-1" d="M40.3,2.2V3.6h5V5.9H40.2V7.4h5.1c-.4,2.9-2.5,4.2-5.1,4.8v1.2a8.4,8.4,0,0,0,6.1-4.1c1.7,2.1,1.9,3,6.3,4.1V12.2c-2.2-.4-5.2-2.1-5.3-4.8h5.4V5.9H47.3V3.6h5V2.2Z"></path>
        <path class="cls-1" d="M58.4,5.4H53.9V4.8h4.3c.3,0,.4-.1.4-.2V3.5c0-.4-.4-.6-1.1-.6H53.9V2.2h4.2c1,0,1.6.1,1.6,1V4.5c0,.6-.4.9-1.3.9"></path>
        <path class="cls-1" d="M64.8,5.4H60.4V4.8h3.3c.2,0,.3-.1.3-.2V3.5q0-.6-.9-.6H60.3V2.2h4.2c1,0,1.5.1,1.6.9V4.6c0,.6-.4.8-1.3.8"></path>
        <path class="cls-1" d="M63.1,10.6H66V9.8H63.1V9.3H66V6H53.8V9.3h3.1v.6H53.7v.8h3.2V11H53.7v.8h2.7a2.3,2.3,0,0,1-.7.6,7.6,7.6,0,0,1-1.9.2v.7a8.1,8.1,0,0,0,2.9-.2c.5-.2,1.2-1.3,1.2-1.3h3.9a2.8,2.8,0,0,0,1.5,1.3,6.9,6.9,0,0,0,2.7.2v-.7a9.4,9.4,0,0,1-2.2-.2,2.8,2.8,0,0,1-.6-.6H66V11H63.1ZM60.5,6.8h4.3v.4H60.5Zm-5,0h4v.4h-4Zm0,1.6V8h4v.4Zm6,2.6H58.1v-.4h3.4v.3ZM58.1,9.8V9.3h3.4v.5Zm2.4-1.4V8h4.3v.4Z"></path>
        <path class="cls-1" d="M67.2,5.4V6.8h1.2l-.8,4.7c-.2,1.4.4,1.9,1.8,1.9h8.9c.9-.1,1.2-.5,1-1.4l-.9-3.4H77.2l.6,2.9c.1.3,0,.4-.3.4H68.9l.9-5.1h9.7V5.4Zm.2-1.9H79V2.2H67.4Z"></path>
        <rect class="cls-1" x="54.5" y="3.7" width="3.8" height="0.39"></rect>
        <rect class="cls-1" x="60.9" y="3.7" width="3.5" height="0.39"></rect>
        <path class="cls-1" d="M47.1,19.8a2.4,2.4,0,0,1-1.3,1.3,5.4,5.4,0,0,1-2.2.5,3.9,3.9,0,0,1-2.8-.9,2.9,2.9,0,0,1-1-2.3,5.1,5.1,0,0,1,.2-1.3,3.9,3.9,0,0,1,.8-1,3.5,3.5,0,0,1,1.2-.7,4.1,4.1,0,0,1,1.6-.3,3.8,3.8,0,0,1,1.6.3,2.4,2.4,0,0,1,1.2.7,2.1,2.1,0,0,1,.6,1,3.2,3.2,0,0,1,.3,1.4H41.2a2.1,2.1,0,0,0,.4,1.4,3.5,3.5,0,0,0,.9.7l1.2.2a3.2,3.2,0,0,0,1.4-.3,1.4,1.4,0,0,0,.8-.9Zm-1.2-2.1a1.6,1.6,0,0,0-.6-1.3,2.4,2.4,0,0,0-1.7-.6,2.3,2.3,0,0,0-1.6.6,1.6,1.6,0,0,0-.7,1.3Z"></path>
        <path class="cls-1" d="M57.2,19.4a2.4,2.4,0,0,1-.6,1.1,1.9,1.9,0,0,1-1.1.8,3.3,3.3,0,0,1-1.5.3,3.7,3.7,0,0,1-2.7-.9,3.3,3.3,0,0,1-.9-2.3,3.3,3.3,0,0,1,1-2.3,3.6,3.6,0,0,1,2.6-1,3.8,3.8,0,0,1,2.2.6,2.5,2.5,0,0,1,1,1.6H56a1.1,1.1,0,0,0-.6-1,2,2,0,0,0-1.4-.5,2.1,2.1,0,0,0-1.7.8,2.8,2.8,0,0,0-.5,1.6,3.1,3.1,0,0,0,.5,1.7,1.9,1.9,0,0,0,1.7.8,1.8,1.8,0,0,0,2-1.5Z"></path>
        <rect class="cls-1" x="59.2" y="15.1" width="1.2" height="6.48"></rect>
        <path class="cls-1" d="M61.8,19.2a2.7,2.7,0,0,1,.3-1.2,2.7,2.7,0,0,1,1-.8,2.4,2.4,0,0,1,1.5-.4,3.3,3.3,0,0,1,1.5.4,2.4,2.4,0,0,1,.9.8,2.7,2.7,0,0,1,.3,1.2,2.1,2.1,0,0,1-.8,1.7,2.7,2.7,0,0,1-2,.7,3.3,3.3,0,0,1-1.5-.3,3.8,3.8,0,0,1-.9-.9,2.7,2.7,0,0,1-.3-1.2m4.1,1.2a2.1,2.1,0,0,0,.3-1.2,2.1,2.1,0,0,0-.3-1.2,1.8,1.8,0,0,0-1.4-.6l-.8.2-.5.4a1.6,1.6,0,0,0-.4,1.2,2.1,2.1,0,0,0,.4,1.2,1,1,0,0,0,.6.5h.7a1.6,1.6,0,0,0,1.4-.6"></path>
        <path class="cls-1" d="M72.6,21.6V20.4h0a1.8,1.8,0,0,1-.8.9,2,2,0,0,1-1.1.3,1.9,1.9,0,0,1-1.5-.6,2.6,2.6,0,0,1-.5-1.7V16.8h.9v2.5a2.2,2.2,0,0,0,.2,1,1.1,1.1,0,0,0,1,.6,1.4,1.4,0,0,0,1.2-.6,1.6,1.6,0,0,0,.5-1.4V16.8h.9v4.8Z"></path>
        <path class="cls-1" d="M79,15.1h.9v6.5h-.8v-.9H79a2.1,2.1,0,0,1-1.9.9,2.6,2.6,0,0,1-1.9-.8,2.5,2.5,0,0,1-.5-1.6,2.3,2.3,0,0,1,.6-1.6,2.6,2.6,0,0,1,1.9-.8,2.5,2.5,0,0,1,1.8.8Zm0,3.7a1.2,1.2,0,0,0-.3-.9l-.6-.4h-.8a1.4,1.4,0,0,0-1.2.6,1.5,1.5,0,0,0-.4,1.1,2.5,2.5,0,0,0,.3,1.3,1.5,1.5,0,0,0,1.3.6,1.9,1.9,0,0,0,1.3-.5,1.3,1.3,0,0,0,.4-1Z"></path>
        <path class="cls-1" d="M29.9,7a6.2,6.2,0,0,0-5.7-4h-1A8.9,8.9,0,0,0,16.4,0,9.1,9.1,0,0,0,8.2,5.2h0a8.2,8.2,0,0,0-8.2,8,8.4,8.4,0,0,0,8.4,8.4H22.2c.2,0,.2-.2.1-.3a10.3,10.3,0,0,1-2.1-2.9c0-.2-.2-.3-.4-.3H8.3a4.7,4.7,0,0,1-4.8-4.7A4.7,4.7,0,0,1,7.4,8.7h.8a4.5,4.5,0,0,1,2.6.8V9.1A5.4,5.4,0,0,1,11.7,6a5.7,5.7,0,0,1,4.7-2.5A5.6,5.6,0,0,1,20,4.7a5.6,5.6,0,0,1,1.7,2.6A3.1,3.1,0,0,1,24.2,6l.8.2a2.5,2.5,0,0,1,1.5,1,2.5,2.5,0,0,1,.7,1.9,3.5,3.5,0,0,1-.3,1.4,3.6,3.6,0,0,1,2-.6l1.2.2a4.3,4.3,0,0,1,3.1,4.7,4.2,4.2,0,0,1-3.8,3.7,4.2,4.2,0,0,1-4.7-3.4,2.5,2.5,0,0,1-.1-.8h2.2a.2.2,0,0,0,.1-.3l-1.8-1.7L23,10.2h-.6l-.6.6L18.5,14c-.2.1-.1.3.1.3h2.1v.4a7.8,7.8,0,0,0,15.6.5A7.9,7.9,0,0,0,29.9,7Z"></path>
      </g>
    </g>
  </svg>