<?xml version="1.0" encoding="UTF-8"?>
<svg width="135px" height="102px" viewBox="0 0 135 102" version="1.1" xmlns="http://www.w3.org/2000/svg" xmlns:xlink="http://www.w3.org/1999/xlink">
    <!-- Generator: Sketch 64 (93537) - https://sketch.com -->
    <title>编组 21</title>
    <desc>Created with Sketch.</desc>
    <g id="鲁班我的资源和打包" stroke="none" stroke-width="1" fill="none" fill-rule="evenodd">
        <g id="我的资源" transform="translate(-1202.000000, -136.000000)">
            <g id="编组-3备份-3" transform="translate(1086.000000, 110.000000)">
                <g id="编组-8">
                    <g id="编组-5">
                        <g id="编组-21">
                            <g transform="translate(95.000000, 0.000000)">
                                <rect id="矩形备份-8" x="0" y="0" width="177" height="177"></rect>
                                <path d="M88.5,26.3108108 C105.340235,26.3108108 119.65858,37.203837 124.659889,52.2504786 L124.90613,53.019109 L146.778276,53.019109 L146.778276,128.692078 L151.533519,128.692078 L151.533519,48.307922 L131.183314,48.307922 L131.183314,44.1163431 L155.764295,44.1163431 L155.764295,128.692078 L160.256757,128.692078 L160.256757,150.689189 L84.0075382,150.689189 L84.0075382,146.49761 L156.025981,146.49761 L156.025981,132.883657 L105.750484,132.883657 L103.503705,139.561545 L73.4962945,139.561545 L71.2495162,132.883657 L20.9740188,132.883657 L20.9740188,146.49761 L77.2672032,146.49761 L77.2672032,150.689189 L16.7432432,150.689189 L16.7432432,128.692078 L21.2357051,128.692078 L21.2357051,44.1163431 L56.1877799,44.1163431 C59.5455001,38.7847202 64.2082448,34.3410165 69.7310065,31.2261159 L70.8246868,30.632563 C76.1098715,27.8750593 82.1231788,26.3108108 88.5,26.3108108 Z M30.0914278,137.594844 L30.0914278,141.786423 L25.5978712,141.786423 L25.5978712,137.594844 L30.0914278,137.594844 Z M151.402129,137.594844 L151.402129,141.786423 L146.908572,141.786423 L146.908572,137.594844 L151.402129,137.594844 Z M57.049483,137.594844 L57.049483,141.786423 L34.5838897,141.786423 L34.5838897,137.594844 L57.049483,137.594844 Z M142.41611,137.594844 L142.41611,141.786423 L119.950517,141.786423 L119.950517,137.594844 L142.41611,137.594844 Z M53.9048693,48.307922 L25.4675755,48.307922 L25.4675755,128.692078 L30.2217235,128.692078 L30.2217235,53.019109 L45.8166862,53.019109 L45.8166862,57.2106879 L34.453594,57.2106879 L34.453594,128.692078 L74.2999668,128.692078 L76.54565,135.369966 L100.45435,135.369966 L102.701128,128.692078 L142.547501,128.692078 L142.547501,57.2106879 L125.936451,57.2106879 C126.344857,59.4192942 126.559461,61.6940718 126.559461,64.0176646 C126.559461,78.1375143 118.684311,90.4675178 107.057165,96.9278238 L106.175313,97.4027661 C100.890128,100.16027 94.8768212,101.724518 88.5,101.724518 C67.513645,101.724518 50.4405386,84.8095883 50.4405386,64.0176646 C50.4405386,58.7883156 51.5221457,53.8037114 53.4734892,49.271996 L53.9048693,48.307922 Z M131.183314,115.338472 L131.183314,119.530051 L126.689757,119.530051 L126.689757,115.338472 L131.183314,115.338472 Z M90.6153878,106.305532 L90.6153878,115.338472 L113.211277,115.338472 L113.211277,119.530051 L63.7887232,119.530051 L63.7887232,115.338472 L86.3846122,115.338472 L86.3846122,106.305532 L90.6153878,106.305532 Z M122.197295,115.338472 L122.197295,119.530051 L117.704834,119.530051 L117.704834,115.338472 L122.197295,115.338472 Z M50.3102429,115.338472 L50.3102429,119.530051 L45.8166862,119.530051 L45.8166862,115.338472 L50.3102429,115.338472 Z M59.2962613,115.338472 L59.2962613,119.530051 L54.8027047,119.530051 L54.8027047,115.338472 L59.2962613,115.338472 Z M50.3102429,106.435706 L50.3102429,110.627284 L45.8166862,110.627284 L45.8166862,106.435706 L50.3102429,106.435706 Z M131.183314,106.435706 L131.183314,110.627284 L126.689757,110.627284 L126.689757,106.435706 L131.183314,106.435706 Z M88.3,30 C69.5223185,30 54.3,45.2223185 54.3,64 C54.3,82.7776815 69.5223185,98 88.3,98 C104.107426,98 117.395306,87.2125398 121.203546,72.5977141 C121.673869,70.8364492 122.003459,69.0190797 122.178898,67.1578801 L122.260801,66.113454 L122.235373,66.1136188 C122.278248,65.4145799 122.3,64.7098302 122.3,64 C122.3,63.3022538 122.278982,62.6094166 122.237545,61.922087 L122.260801,61.9218751 C122.154106,60.2184965 121.918512,58.5492778 121.563571,56.9236383 C118.306921,41.5427324 104.651435,30 88.3,30 Z M79.4093098,44 L79.4089326,46.6282051 L97.0624494,46.6282051 L97.0626003,44 L100.004815,44 L100.004438,46.6282051 L112,46.6282051 L112,85 L65,85 L65,46.6282051 L76.4669438,46.6282051 L76.4670947,44 L79.4093098,44 Z M76.5037271,49 L68,49.000444 L68,58.3727054 L108.769664,58.3730551 L108.769664,61.3026268 L68,61.3021021 L68,82 L109,82 L109,49.000444 L99.9695283,49 L99.9699044,52.5139118 L97.036651,52.5139118 L97.0365006,49 L79.4367548,49 L79.4371309,52.5139118 L76.5038775,52.5139118 L76.5037271,49 Z M103,73 L103,79 L97,79 L97,73 L103,73 Z M91,73 L91,79 L85,79 L85,73 L91,73 Z M79,73 L79,79 L73,79 L73,73 L79,73 Z M103,64 L103,70 L97,70 L97,64 L103,64 Z M91,64 L91,70 L85,70 L85,64 L91,64 Z M79,64 L79,70 L73,70 L73,64 L79,64 Z" id="形状结合" fill-opacity="0.25" fill="#FFFFFF" fill-rule="nonzero"></path>
                            </g>
                        </g>
                    </g>
                </g>
            </g>
        </g>
    </g>
</svg>