<?xml version="1.0" encoding="UTF-8"?>
<svg width="144px" height="111px" viewBox="0 0 144 111" version="1.1" xmlns="http://www.w3.org/2000/svg" xmlns:xlink="http://www.w3.org/1999/xlink">
    <!-- Generator: Sketch 64 (93537) - https://sketch.com -->
    <title>编组 8</title>
    <desc>Created with Sketch.</desc>
    <g id="鲁班我的资源和打包" stroke="none" stroke-width="1" fill="none" fill-rule="evenodd">
        <g id="我的资源" transform="translate(-489.000000, -127.000000)">
            <g id="编组-3备份" transform="translate(378.000000, 110.000000)">
                <g id="编组-8">
                    <g>
                        <g transform="translate(95.000000, 0.000000)">
                            <rect id="矩形" x="0" y="0" width="177" height="177"></rect>
                            <path d="M114.916848,143.097915 L114.916848,148.087867 C117.53487,148.975556 119.425603,151.454052 119.425603,154.368703 C119.425603,158.024925 116.450528,160.998901 112.794305,160.998901 C109.138083,160.998901 106.163008,158.024925 106.163008,154.368703 C106.163008,151.580776 107.892904,149.191902 110.334502,148.212579 L110.671763,148.087867 L110.671763,143.097915 L114.916848,143.097915 Z M112.794305,17 C116.450528,17 119.425603,19.975075 119.425603,23.6312971 C119.425603,26.4181729 117.695707,28.808007 115.254109,29.7864533 L114.916848,29.9110343 L114.916848,37.2871986 L121.678881,37.2871986 L121.678881,44.0492321 L132.949669,44.0492321 L132.949669,55.3200202 L139.711703,55.3200202 L139.711703,62.0820536 L147.087867,62.0820536 C147.974457,59.4640315 150.454052,57.5743975 153.367604,57.5743975 C157.024925,57.5743975 160,60.5483739 160,64.204596 C160,67.8608181 157.024925,70.8358931 153.367604,70.8358931 C150.580729,70.8358931 148.190894,69.1059976 147.212448,66.6643994 L147.087867,66.3271384 L139.711703,66.3271384 L139.711703,73.0902704 L132.949669,73.0902704 L132.949669,80.1148749 L139.711703,80.1148749 L139.711703,97.8840266 L132.949669,97.8840266 L132.949669,104.90973 L139.711703,104.90973 L139.711703,111.671763 L147.087867,111.671763 C147.974457,109.053741 150.454052,107.164107 153.367604,107.164107 C157.024925,107.164107 160,110.138083 160,113.794305 C160,117.450528 157.024925,120.425603 153.368703,120.425603 C150.581827,120.425603 148.191993,118.695707 147.212585,116.254109 L147.087867,115.916848 L139.712801,115.916848 L139.712801,122.67998 L132.949669,122.67998 L132.949669,133.949669 L121.67998,133.949669 L121.67998,140.712801 L103.90973,140.712801 L103.90973,133.949669 L96.8851251,133.949669 L96.8851251,140.712801 L90.1230917,140.712801 L90.1230917,148.087867 C92.7411138,148.975556 94.6307478,151.455151 94.6307478,154.368703 C94.6307478,158.024925 91.6567714,161 88.0005493,161 C84.3432286,161 81.3692522,158.024925 81.3692522,154.368703 C81.3692522,151.581827 83.0981423,149.191993 85.5396534,148.212585 L85.8769083,148.087867 L85.8769083,140.712801 L79.1148749,140.712801 L79.1148749,133.949669 L72.0902704,133.949669 L72.0902704,140.712801 L65.3271384,140.712801 L65.3271384,148.087867 C67.9451602,148.975556 69.8358931,151.455151 69.8358931,154.368703 C69.8358931,158.024925 66.8608181,161 63.204596,161 C59.5483739,161 56.5732989,158.024925 56.5732989,154.368703 C56.5732989,151.581827 58.3031941,149.191993 60.7447926,148.212585 L61.0820536,148.087867 L61.0820536,140.712801 L54.3200202,140.712801 L54.3200202,133.949669 L43.0492321,133.949669 L43.0492321,122.67998 L36.2871986,122.67998 L36.2871986,115.916848 L28.9110343,115.916848 C28.0244443,118.535968 25.5448491,120.425603 22.6312971,120.425603 C18.975075,120.425603 16,117.450528 16,113.794305 C16,110.138083 18.975075,107.164107 22.6312971,107.164107 C25.4181729,107.164107 27.808007,108.892997 28.7864533,111.334508 L28.9110343,111.671763 L36.2871986,111.671763 L36.2871986,104.90973 L43.0492321,104.90973 L43.0492321,97.8840266 L36.2871986,97.8840266 L36.2871986,80.1148749 L43.0492321,80.1148749 L43.0492321,73.0902704 L36.2871986,73.0902704 L36.2871986,66.3271384 L28.9110343,66.3271384 C28.0244443,68.9451602 25.5448491,70.8358931 22.6312971,70.8358931 C18.975075,70.8358931 16,67.8608181 16,64.204596 C16,60.5483739 18.975075,57.5743975 22.6312971,57.5743975 C25.4181729,57.5743975 27.808007,59.3032876 28.7864533,61.7447986 L28.9110343,62.0820536 L36.2871986,62.0820536 L36.2871986,55.3200202 L43.0492321,55.3200202 L43.0492321,44.0492321 L54.3189216,44.0492321 L54.3189216,37.2871986 L72.0891719,37.2871986 L72.0891719,44.0492321 L79.1137763,44.0492321 L79.1137763,37.2871986 L85.8769083,37.2871986 L85.8769083,29.9110343 C83.2577877,29.0244443 81.3681537,26.5448491 81.3681537,23.6312971 C81.3681537,19.975075 84.3432286,17 87.9994507,17 C91.6556728,17 94.6296492,19.975075 94.6296492,23.6312971 C94.6296492,26.4181729 92.9007591,28.808007 90.4592481,29.7864533 L90.1219931,29.9110343 L90.1219931,37.2871986 L96.8840266,37.2871986 L96.8840266,44.0492321 L103.90973,44.0492321 L103.90973,37.2871986 L110.671763,37.2871986 L110.671763,29.9110343 C108.053741,29.0244443 106.163008,26.5448491 106.163008,23.6312971 C106.163008,19.975075 109.138083,17 112.794305,17 Z M112.794305,151.982491 C111.479252,151.982491 110.409192,153.052551 110.409192,154.368703 C110.409192,155.683756 111.479252,156.753817 112.794305,156.753817 C114.109359,156.753817 115.180518,155.683756 115.180518,154.368703 C115.180518,153.052551 114.109359,151.982491 112.794305,151.982491 Z M87.9994507,151.982491 C86.6832985,151.982491 85.6132385,153.052551 85.6132385,154.368703 C85.6132385,155.683756 86.6843973,156.753817 87.9994507,156.753817 C89.3145041,156.753817 90.3845644,155.683756 90.3845644,154.368703 C90.3845644,153.052551 89.3145041,151.982491 87.9994507,151.982491 Z M63.204596,151.982491 C61.8884438,151.982491 60.8183837,153.052551 60.8183837,154.368703 C60.8183837,155.683756 61.8895424,156.753817 63.204596,156.753817 C64.5196494,156.753817 65.5897094,155.683756 65.5897094,154.368703 C65.5897094,153.052551 64.5196494,151.982491 63.204596,151.982491 Z M117.433796,133.949669 L108.154814,133.949669 L108.154814,136.466618 L117.433796,136.466618 L117.433796,133.949669 Z M67.844087,133.949669 L58.565105,133.949669 L58.565105,136.466618 L67.844087,136.466618 L67.844087,133.949669 Z M92.6389418,133.949669 L83.3599597,133.949669 L83.3599597,136.466618 L92.6389418,136.466618 L92.6389418,133.949669 Z M128.704585,48.2943169 L47.2943169,48.2943169 L47.2943169,129.704585 L128.704585,129.704585 L128.704585,48.2943169 Z M121.678881,55.3200202 L121.678881,122.678881 L74.4753838,122.678881 L74.4753838,118.433796 L117.433796,118.433796 L117.433796,59.565105 L106.032272,59.565105 L106.032272,55.3200202 L121.678881,55.3200202 Z M99.2702388,55.3200202 L99.2702388,59.565105 L58.565105,59.565105 L58.565105,118.433796 L67.7122521,118.433796 L67.7122521,122.678881 L54.3200202,122.678881 L54.3200202,55.3200202 L99.2702388,55.3200202 Z M43.0492321,109.154814 L40.5322834,109.154814 L40.5322834,118.433796 L43.0492321,118.433796 L43.0492321,109.154814 Z M135.466618,109.154814 L132.949669,109.154814 L132.949669,118.433796 L135.466618,118.433796 L135.466618,109.154814 Z M22.6312971,111.409192 C21.3151451,111.409192 20.2450848,112.479252 20.2450848,113.794305 C20.2450848,115.110458 21.3151451,116.180518 22.6312971,116.180518 C23.9463504,116.180518 25.0164108,115.110458 25.0164108,113.794305 C25.0164108,112.479252 23.9463504,111.409192 22.6312971,111.409192 Z M153.367604,111.409192 C152.052551,111.409192 150.982491,112.479252 150.982491,113.794305 C150.982491,115.110458 152.052551,116.180518 153.367604,116.180518 C154.683756,116.180518 155.753817,115.110458 155.753817,113.794305 C155.753817,112.479252 154.683756,111.409192 153.367604,111.409192 Z M69.9666292,102.655353 L69.9666292,106.900437 L65.4589733,106.900437 L65.4589733,102.655353 L69.9666292,102.655353 Z M78.9830399,102.655353 L78.9830399,106.900437 L74.4753838,106.900437 L74.4753838,102.655353 L78.9830399,102.655353 Z M110.539928,102.655353 L110.539928,106.900437 L99.2702388,106.900437 L99.2702388,102.655353 L110.539928,102.655353 Z M69.9666292,93.6389418 L69.9666292,97.8840266 L65.4589733,97.8840266 L65.4589733,93.6389418 L69.9666292,93.6389418 Z M78.9830399,93.6389418 L78.9830399,97.8840266 L74.4753838,97.8840266 L74.4753838,93.6389418 L78.9830399,93.6389418 Z M110.539928,93.6389418 L110.539928,97.8840266 L99.2702388,97.8840266 L99.2702388,93.6389418 L110.539928,93.6389418 Z M22.6312971,82.3681537 C25.4181729,82.3681537 27.808007,84.0980489 28.7864533,86.5396473 L28.9110343,86.8769083 L33.9009866,86.8769083 L33.9009866,91.1219931 L28.9110343,91.1219931 C28.0244443,93.7411138 25.5448491,95.6307478 22.6312971,95.6307478 C18.975075,95.6307478 16,92.6556728 16,88.9994507 C16,85.3432286 18.975075,82.3692522 22.6312971,82.3681537 Z M153.367604,82.3692522 C157.024925,82.3692522 159.998901,85.3432286 159.998901,89.0005493 C159.998901,92.6567714 157.024925,95.6307478 153.367604,95.6307478 C150.580729,95.6307478 148.190894,93.9018577 147.212448,91.4603466 L147.087867,91.1230917 L142.097915,91.1230917 L142.097915,86.8769083 L147.087867,86.8769083 C147.974457,84.2588862 150.454052,82.3692522 153.367604,82.3692522 Z M43.0492321,84.3599597 L40.5322834,84.3599597 L40.5322834,93.6389418 L43.0492321,93.6389418 L43.0492321,84.3599597 Z M135.466618,84.3599597 L132.949669,84.3599597 L132.949669,93.6389418 L135.466618,93.6389418 L135.466618,84.3599597 Z M22.6312971,86.614337 C21.3151451,86.614337 20.2450848,87.6843973 20.2450848,89.0005493 C20.2450848,90.3156029 21.3151451,91.385663 22.6312971,91.385663 C23.9463504,91.385663 25.0164108,90.3156029 25.0164108,89.0005493 C25.0164108,87.6843973 23.9463504,86.614337 22.6312971,86.614337 Z M153.367604,86.614337 C152.052551,86.614337 150.982491,87.6843973 150.982491,88.9994507 C150.982491,90.3156029 152.052551,91.385663 153.367604,91.385663 C154.683756,91.385663 155.753817,90.3156029 155.753817,88.9994507 C155.753817,87.6843973 154.683756,86.614337 153.367604,86.614337 Z M101.150353,70.3980545 L101.150353,80.7693301 C101.150353,82.2642888 101.477376,83.362149 102.178137,84.0862696 C102.878899,84.8103902 103.97676,85.1841299 105.495077,85.1841299 C106.990036,85.1841299 108.087896,84.8103902 108.788658,84.0862696 C109.398321,83.4345611 109.743095,82.4801234 109.805954,81.2059281 L109.816442,80.7693301 L109.816442,70.3980545 L112.362543,70.3980545 L112.362543,80.7226127 C112.362543,82.8949745 111.755216,84.5534442 110.563921,85.6980219 C109.372626,86.8192409 107.690798,87.4032092 105.495077,87.4032092 C103.275998,87.4032092 101.594169,86.8425997 100.426233,85.7213807 C99.3050138,84.6432855 98.7012805,83.1472211 98.6150329,81.2148152 L98.6042519,80.7226127 L98.6042519,70.3980545 L101.150353,70.3980545 Z M73.5403357,70.0710323 C75.4791102,70.0710323 77.0908625,70.5615656 78.3522339,71.5893496 C79.4564647,72.4812284 80.1746009,73.6819829 80.4890925,75.1565136 L80.5713132,75.607051 L78.0952879,75.607051 C77.8149831,74.485832 77.2777324,73.6449178 76.4835356,73.107667 C75.6893388,72.5704163 74.7082722,72.3134702 73.4936183,72.3134702 C71.6949961,72.3134702 70.3401899,72.9207972 69.4291994,74.1588098 C68.5649265,75.2800288 68.1444693,76.8217049 68.1444693,78.7604794 C68.1444693,80.7693301 68.5649265,82.3110062 69.4058407,83.4088665 C70.2934724,84.576803 71.6716374,85.1607712 73.5403357,85.1607712 C74.7549896,85.1607712 75.7827737,84.8571077 76.5769705,84.2497807 C77.3244498,83.6684079 77.8689101,82.8286472 78.2103513,81.7304986 L78.3288752,81.3065809 L80.8049004,81.3065809 C80.4311608,83.2453554 79.5668878,84.7636728 78.1887228,85.861533 C76.9039927,86.8893171 75.3623166,87.4032092 73.5636945,87.4032092 C70.8307232,87.4032092 68.775155,86.5155775 67.39699,84.7870315 C66.1823361,83.2920729 65.5983679,81.2832222 65.5983679,78.7604794 C65.5983679,76.2844542 66.2056948,74.2756035 67.4670662,72.7105686 C68.8685899,70.9353052 70.8774406,70.0710323 73.5403357,70.0710323 Z M90.2885444,70.3980545 C94.2595283,70.3980545 96.2450203,72.0798829 96.2450203,75.4668986 C96.2450203,78.755474 94.3770966,80.4584862 90.6621936,80.5759353 L90.241827,80.5824603 L85.9204621,80.5824603 L85.9204621,87.076187 L83.3743606,87.076187 L83.3743606,70.3980545 L90.2885444,70.3980545 Z M90.0783159,72.5704163 L85.9204621,72.5704163 L85.9204621,78.4100985 L90.0783159,78.4100985 C91.3396872,78.4100985 92.2506776,78.1765112 92.8346459,77.7093366 C93.3952554,77.242162 93.6989188,76.4946827 93.6989188,75.4668986 C93.6989188,74.4391146 93.3952554,73.6916352 92.8112871,73.2711781 C92.2922043,72.8559118 91.5147335,72.6252083 90.4788748,72.5790676 L90.0783159,72.5704163 Z M43.0492321,59.565105 L40.5322834,59.565105 L40.5322834,68.844087 L43.0492321,68.844087 L43.0492321,59.565105 Z M135.466618,59.565105 L132.949669,59.565105 L132.949669,68.844087 L135.466618,68.844087 L135.466618,59.565105 Z M153.367604,61.8194823 C152.052551,61.8194823 150.982491,62.8895424 150.982491,64.204596 C150.982491,65.5207479 152.052551,66.5908083 153.367604,66.5908083 C154.683756,66.5908083 155.753817,65.5207479 155.753817,64.204596 C155.753817,62.8895424 154.683756,61.8194823 153.367604,61.8194823 Z M22.6312971,61.8194823 C21.3151451,61.8194823 20.2450848,62.8895424 20.2450848,64.204596 C20.2450848,65.5207479 21.3151451,66.5908083 22.6312971,66.5908083 C23.9463504,66.5908083 25.0164108,65.5207479 25.0164108,64.204596 C25.0164108,62.8895424 23.9463504,61.8194823 22.6312971,61.8194823 Z M117.433796,41.5322834 L108.154814,41.5322834 L108.154814,44.0492321 L117.433796,44.0492321 L117.433796,41.5322834 Z M92.6389418,41.5322834 L83.3599597,41.5322834 L83.3599597,44.0492321 L92.6389418,44.0492321 L92.6389418,41.5322834 Z M67.844087,41.5322834 L58.565105,41.5322834 L58.565105,44.0492321 L67.844087,44.0492321 L67.844087,41.5322834 Z M63.204596,17 C66.8608181,17 69.8358931,19.975075 69.8358931,23.6312971 C69.8358931,26.4181729 68.1059976,28.808007 65.6643994,29.7864533 L65.3271384,29.9110343 L65.3271384,34.9020852 L61.0820536,34.9020852 L61.0820536,29.9110343 C58.4640315,29.0244443 56.5732989,26.5448491 56.5732989,23.6312971 C56.5732989,19.975075 59.5483739,17 63.204596,17 Z M112.794305,21.2450848 C111.479252,21.2450848 110.409192,22.3151451 110.409192,23.6312971 C110.409192,24.9463504 111.479252,26.0164108 112.794305,26.0164108 C114.110458,26.0164108 115.180518,24.9463504 115.180518,23.6312971 C115.180518,22.3151451 114.109359,21.2450848 112.794305,21.2450848 Z M87.9994507,21.2450848 C86.6843973,21.2450848 85.614337,22.3151451 85.6132385,23.6312971 C85.6132385,24.9463504 86.6843973,26.0164108 87.9994507,26.0164108 C89.3145041,26.0164108 90.3845644,24.9463504 90.3845644,23.6312971 C90.3845644,22.3151451 89.3145041,21.2450848 87.9994507,21.2450848 Z M63.204596,21.2450848 C61.8895424,21.2450848 60.8183837,22.3151451 60.8183837,23.6312971 C60.8183837,24.9463504 61.8895424,26.0164108 63.204596,26.0164108 C64.5196494,26.0164108 65.5897094,24.9463504 65.5897094,23.6312971 C65.5897094,22.3151451 64.5196494,21.2450848 63.204596,21.2450848 Z" id="形状" fill-opacity="0.25" fill="#FFFFFF" fill-rule="nonzero"></path>
                        </g>
                    </g>
                </g>
            </g>
        </g>
    </g>
</svg>