<?xml version="1.0" standalone="no"?><!DOCTYPE svg PUBLIC "-//W3C//DTD SVG 1.1//EN" "http://www.w3.org/Graphics/SVG/1.1/DTD/svg11.dtd"><svg t="1606376905727" class="icon" viewBox="0 0 1024 1024" version="1.1" xmlns="http://www.w3.org/2000/svg" p-id="4171" xmlns:xlink="http://www.w3.org/1999/xlink" width="200" height="200"><defs><style type="text/css"></style></defs><path d="M721.92 272.896H302.08c-132.096 0-239.104 107.008-239.104 239.104 0 170.496 190.976 175.104 0 239.104H721.92c132.096 0 239.104-107.008 239.104-239.104 0-132.096-107.008-239.104-239.104-239.104z m-366.08 360.448h-32.768L209.92 467.968h-1.024v164.864h-33.28V413.696h33.792l112.128 163.328h1.024V413.696h33.28v219.648z m205.824 0H398.848V413.696h157.696v28.672H432.64v64h116.736v28.672H432.64v69.632h129.536v28.672z m239.104 0h-35.84l-44.544-169.472h-1.024l-44.544 169.472h-35.84l-62.976-219.136h37.888l42.496 171.008h1.024l45.056-171.008h34.816l45.056 171.008h1.024l42.496-171.008h37.888l-62.976 219.136z" fill="#d81e06" p-id="4172"></path></svg>