<?xml version="1.0" encoding="UTF-8"?>
<svg width="65px" height="65px" viewBox="0 0 65 65" version="1.1" xmlns="http://www.w3.org/2000/svg" xmlns:xlink="http://www.w3.org/1999/xlink">
    <!-- Generator: Sketch 64 (93537) - https://sketch.com -->
    <title>4.背景组件/灰色版/加载符号</title>
    <desc>Created with Sketch.</desc>
    <g id="鲁班我的资源和打包" stroke="none" stroke-width="1" fill="none" fill-rule="evenodd">
        <g id="打包加载中" transform="translate(-688.000000, -324.000000)" fill="#4E5C93">
            <g id="4.背景组件/灰色版/加载符号" transform="translate(670.000000, 306.000000)">
                <g id="编组" transform="translate(18.247070, 18.247070)">
                    <path d="M32.3515625,14.3017578 C31.8612588,14.3017578 31.4638672,13.8842087 31.4638672,13.3690345 L31.4638672,0.932723336 C31.4638672,0.417549147 31.8612588,0 32.3515625,0 C32.8418662,0 33.2392578,0.417549147 33.2392578,0.932723336 L33.2392578,13.3690345 C33.2392578,13.8842087 32.8418662,14.3017578 32.3515625,14.3017578" id="Fill-1"></path>
                    <path d="M32.3515625,14.3017578 C31.8612588,14.3017578 31.4638672,13.8842087 31.4638672,13.3690345 L31.4638672,0.932723336 C31.4638672,0.417549147 31.8612588,0 32.3515625,0 C32.8418662,0 33.2392578,0.417549147 33.2392578,0.932723336 L33.2392578,13.3690345 C33.2392578,13.8842087 32.8418662,14.3017578 32.3515625,14.3017578" id="Fill-3"></path>
                    <path d="M22.9253385,16.8662109 C22.5988339,16.8662109 22.2813551,16.6977825 22.1064007,16.3964063 L15.8093011,5.55145457 C15.5484962,5.10231219 15.7032999,4.52794425 16.1550118,4.26851861 C16.6070386,4.00919732 17.1845876,4.16322478 17.4452876,4.6122628 L23.7423872,15.4572146 C24.003297,15.9064613 23.8484933,16.4808292 23.3966764,16.7401505 C23.2479599,16.8255126 23.0854948,16.8662109 22.9253385,16.8662109" id="Fill-5"></path>
                    <path d="M15.9259646,23.8691406 C15.7667188,23.8691406 15.6051771,23.8282099 15.457306,23.7423602 L4.61231023,17.4453181 C4.16306168,17.1845156 4.00924231,16.6068669 4.26856465,16.1550542 C4.52778263,15.7033463 5.10215291,15.5484391 5.55150582,15.8093466 L16.3965016,22.1063886 C16.8456458,22.3671911 16.9995695,22.9448398 16.7402472,23.3966526 C16.5662873,23.6996452 16.2505089,23.8691406 15.9259646,23.8691406" id="Fill-7"></path>
                    <path d="M13.3690345,33.2392578 L0.932723336,33.2392578 C0.417549147,33.2392578 0,32.8418662 0,32.3515625 C0,31.8612588 0.417549147,31.4638672 0.932723336,31.4638672 L13.3690345,31.4638672 C13.8842087,31.4638672 14.3017578,31.8612588 14.3017578,32.3515625 C14.3017578,32.8418662 13.8842087,33.2392578 13.3690345,33.2392578" id="Fill-9"></path>
                    <path d="M5.08282445,48.8232422 C4.75817585,48.8232422 4.44250177,48.6538508 4.26854188,48.3507514 C4.00921954,47.8989361 4.16314327,47.3212841 4.61228747,47.0604802 L15.4572832,40.7634022 C15.9066362,40.5025982 16.4809021,40.6574014 16.7402244,41.1091118 C16.9995468,41.5609271 16.8457274,42.1385791 16.3964788,42.3993831 L5.55148305,48.696461 C5.40361192,48.7823112 5.24207028,48.8232422 5.08282445,48.8232422" id="Fill-11"></path>
                    <path d="M16.6264193,60.3632812 C16.4662631,60.3632812 16.3039028,60.3225832 16.1550814,60.2372218 C15.7032645,59.9779024 15.5484608,59.4035386 15.8093706,58.9542952 L22.1064703,48.1094224 C22.3672751,47.6603877 22.9446142,47.5061526 23.396746,47.7656808 C23.8484579,48.0251045 24.0032616,48.5994683 23.7424567,49.0486074 L17.4453571,59.8934801 C17.2704027,60.1947497 16.952819,60.3632812 16.6264193,60.3632812" id="Fill-13"></path>
                    <path d="M32.3515625,64.5058594 C31.8612588,64.5058594 31.4638672,64.0883102 31.4638672,63.573136 L31.4638672,51.1368249 C31.4638672,50.6216507 31.8612588,50.2041016 32.3515625,50.2041016 C32.8418662,50.2041016 33.2392578,50.6216507 33.2392578,51.1368249 L33.2392578,63.573136 C33.2392578,64.0883102 32.8418662,64.5058594 32.3515625,64.5058594" id="Fill-15"></path>
                    <path d="M47.8794401,60.3632812 C47.5529355,60.3632812 47.2354567,60.1948529 47.0605023,59.8934767 L40.7634026,49.0485249 C40.5025978,48.5993825 40.6574015,48.0250146 41.1091134,47.7655889 C41.5611402,47.5062676 42.1386892,47.6602951 42.3993891,48.1093331 L48.6964888,58.9542849 C48.9573986,59.4035316 48.8025949,59.9778996 48.350778,60.2372208 C48.2020615,60.3225829 48.0395963,60.3632812 47.8794401,60.3632812" id="Fill-17"></path>
                    <path d="M59.4230349,48.8232422 C59.2637891,48.8232422 59.1022475,48.7823114 58.9543763,48.6964617 L48.1093805,42.3994197 C47.660132,42.1386172 47.5063126,41.5609685 47.765635,41.1091557 C48.0248529,40.6574479 48.5993276,40.5025407 49.0485761,40.7634481 L59.8935719,47.0604902 C60.3427161,47.3212927 60.4966398,47.8989414 60.2373175,48.3507541 C60.0633576,48.6537468 59.7475792,48.8232422 59.4230349,48.8232422" id="Fill-19"></path>
                    <path d="M63.573136,33.2392578 L51.1368249,33.2392578 C50.6216507,33.2392578 50.2041016,32.8418662 50.2041016,32.3515625 C50.2041016,31.8612588 50.6216507,31.4638672 51.1368249,31.4638672 L63.573136,31.4638672 C64.0883102,31.4638672 64.5058594,31.8612588 64.5058594,32.3515625 C64.5058594,32.8418662 64.0883102,33.2392578 63.573136,33.2392578" id="Fill-21"></path>
                    <path d="M48.5798948,23.8691406 C48.2552462,23.8691406 47.9395721,23.6997492 47.7656122,23.3966499 C47.5062899,22.9448345 47.6602136,22.3671826 48.1093578,22.1063786 L58.9543536,15.8093006 C59.4038108,15.5484967 59.9780767,15.7032998 60.2372947,16.1550102 C60.4966171,16.6068256 60.3427977,17.1844775 59.8935491,17.4452815 L49.0485534,23.7423595 C48.9006822,23.8282096 48.7391406,23.8691406 48.5798948,23.8691406" id="Fill-23"></path>
                    <path d="M41.5805209,16.8662109 C41.4203646,16.8662109 41.2580044,16.8255129 41.1091829,16.7401514 C40.657366,16.4808321 40.5025623,15.9064683 40.7634722,15.4572248 L47.0605718,4.61235212 C47.3212717,4.16331737 47.8986108,4.00908234 48.3508475,4.26861044 C48.8025595,4.52803419 48.9573632,5.10239795 48.6965583,5.55153705 L42.3994587,16.3964098 C42.2245042,16.6976794 41.9069205,16.8662109 41.5805209,16.8662109" id="Fill-25"></path>
                </g>
            </g>
        </g>
    </g>
</svg>