<?xml version="1.0" encoding="UTF-8"?>
<svg width="112px" height="112px" viewBox="0 0 112 112" version="1.1" xmlns="http://www.w3.org/2000/svg" xmlns:xlink="http://www.w3.org/1999/xlink">
    <!-- Generator: Sketch 64 (93537) - https://sketch.com -->
    <title>编组 10</title>
    <desc>Created with Sketch.</desc>
    <g id="鲁班我的资源和打包" stroke="none" stroke-width="1" fill="none" fill-rule="evenodd">
        <g id="我的资源" transform="translate(-857.000000, -126.000000)">
            <g id="编组-3备份-2" transform="translate(732.000000, 110.000000)">
                <g id="编组-8">
                    <g id="编组-10">
                        <g transform="translate(95.000000, 0.000000)">
                            <rect id="矩形" x="0" y="0" width="177" height="177"></rect>
                            <path d="M99.6569459,120.081908 L99.6569459,124.313778 L95.0640929,124.313778 L95.0640929,129.067926 L99.6569459,129.067926 L99.6569459,133.298702 L95.0640929,133.298702 L95.0640929,140.300723 L128.309257,140.300723 C130.651906,136.16411 135.031593,133.560388 139.822386,133.560388 C147.13419,133.560388 153.081081,139.548512 153.081081,146.908572 C153.081081,154.268633 147.13419,160.256757 139.822386,160.256757 C135.202693,160.256757 130.965265,157.834675 128.567976,153.954588 L128.309257,153.517517 L72.8796232,153.517517 L72.8796232,149.285646 L130.977093,149.285646 L131.528496,150.553565 C132.972803,153.877746 136.229019,156.024886 139.822386,156.024886 C144.816556,156.024886 148.87867,151.935356 148.87867,146.908572 C148.87867,141.881789 144.816556,137.791163 139.822386,137.791163 C136.372754,137.791163 133.23384,139.770977 131.710416,142.870385 L131.528496,143.263579 L130.977093,144.530403 L90.8616814,144.530403 L90.8616814,133.298702 L86.1383186,133.298702 L86.1383186,144.530403 L46.0229075,144.530403 L45.471504,143.263579 C44.027197,139.939399 40.7709807,137.791163 37.1776143,137.791163 C32.1834441,137.791163 28.1213304,141.881789 28.1213304,146.908572 C28.1213304,151.935356 32.1834441,156.024886 37.1776143,156.024886 C40.6282901,156.024886 43.7662437,154.046082 45.2895894,150.946755 L45.471504,150.553565 L46.0229075,149.285646 L66.1855647,149.285646 L66.1855647,153.517517 L48.6896552,153.517517 C46.3480942,157.653034 41.9684069,160.256757 37.1776143,160.256757 C29.8668973,160.256757 23.9189189,154.268633 23.9189189,146.908572 C23.9189189,139.548512 29.8658098,133.560388 37.1776143,133.560388 C41.7973072,133.560388 46.034735,135.982469 48.4310488,139.863538 L48.6896552,140.300723 L81.9359071,140.300723 L81.9359071,133.298702 L77.3430541,133.298702 L77.3430541,129.067926 L81.9359071,129.067926 L81.9359071,124.313778 L77.3430541,124.313778 L77.3430541,120.081908 L99.6569459,120.081908 Z M142.054101,144.793184 L142.054101,149.02396 L137.591758,149.02396 L137.591758,144.793184 L142.054101,144.793184 Z M39.408242,144.793184 L39.408242,149.02396 L34.9458989,149.02396 L34.9458989,144.793184 L39.408242,144.793184 Z M86.2688283,16.7432432 C100.815219,16.7432432 114.524173,18.8947634 124.870328,22.8003474 C135.6278,26.860958 141.658962,32.4817925 141.916102,38.6644479 L141.924679,39.0774463 L141.924679,52.5559263 L137.72118,52.5559263 L137.72118,47.8401006 C134.830391,50.6759467 130.499645,53.229303 124.870328,55.354545 C114.523085,59.260129 100.814132,61.4116491 86.2677408,61.4116491 C71.7213499,61.4116491 58.0123963,59.260129 47.6662419,55.354545 C42.3486371,53.347372 38.1902962,50.9583316 35.3103249,48.310101 L34.8153892,47.8401006 L34.8153892,63.7887232 C34.8153892,68.1782622 40.0368637,72.6663444 49.1410012,76.104397 C59.0281964,79.8358885 72.2129364,81.8921504 86.2677408,81.8921504 C100.323633,81.8921504 113.508373,79.8358885 123.395568,76.104397 C132.272102,72.7533632 137.45768,68.4020635 137.711411,64.1181074 L137.72118,63.7887232 L137.72118,59.2951665 L141.924679,59.2951665 L141.924679,108.718815 C141.924679,113.644866 138.303036,118.239155 131.452365,122.005684 C125.496948,125.278885 117.359492,127.817477 107.861735,129.369592 L106.66749,129.558451 L106.036694,125.374757 C124.40496,122.566368 137.31895,115.882477 137.711956,109.039674 L137.72118,108.718815 L137.72118,95.0169711 C134.831478,97.8528172 130.500732,100.405078 124.870328,102.530321 C114.524173,106.436999 100.815219,108.587424 86.2688283,108.587424 C81.5430187,108.587424 76.8671697,108.359407 72.3403703,107.90704 L70.4097278,107.699444 L70.8871755,103.497136 C75.8519813,104.06759 81.0266897,104.356649 86.2677408,104.356649 C100.323633,104.356649 113.508373,102.301482 123.395568,98.5688955 C132.272102,95.2189292 137.45768,90.8676564 137.711411,86.5837008 L137.72118,86.2543165 L137.72118,72.5524726 C134.831478,75.3883184 130.500732,77.9405798 124.870328,80.0658218 C114.524173,83.9714059 100.815219,86.122926 86.2688283,86.122926 C71.7224374,86.122926 58.0134838,83.9714059 47.6662419,80.0658218 C42.3496644,78.0586488 38.1913803,75.670585 35.3104961,73.0224632 L34.8153892,72.5524726 L34.8153892,86.2543165 C34.8153892,92.8391728 46.2956141,99.2872324 63.4748966,102.405064 L64.3105757,102.553314 L63.5971228,106.722774 C54.1688865,105.088057 46.1392787,102.466815 40.3772764,99.1426342 C38.2512738,97.9157751 36.5701462,96.6711779 35.2443017,95.4415695 L34.8153892,95.0323001 L34.8153892,108.718815 C34.8153892,116.098734 49.1651406,123.159643 69.1822885,125.753189 L70.8871755,125.961635 L70.4097278,130.165037 C59.2663766,128.882884 49.6195367,126.320769 42.5121972,122.75461 C34.9497208,118.960614 30.851078,114.271826 30.6230432,109.170033 L30.6129777,108.718815 L30.6129777,39.0774463 C30.6129777,31.5993298 39.0046105,24.9735394 53.6746255,20.8359066 L54.4810219,20.612695 L55.5762157,24.6978458 C42.7699538,28.1764104 34.8153892,33.686054 34.8153892,39.0774463 C34.8153892,43.4669854 40.0368637,47.9561624 49.1420887,51.3931202 C59.0281964,55.1246117 72.2140242,57.1797787 86.2688283,57.1797787 C100.323633,57.1797787 113.508373,55.1246117 123.395568,51.3931202 C132.499705,47.9561624 137.722268,43.4669854 137.722268,39.0774463 C137.722268,34.687907 132.499705,30.19873 123.395568,26.7617725 C113.508373,23.0291859 100.323633,20.9740188 86.2688283,20.9740188 C78.4294024,20.9740188 70.6326093,21.638816 63.6123714,22.9016446 L62.1201882,23.18138 L61.3197289,19.027249 C69.0883173,17.5118781 77.4822644,16.7432432 86.2688283,16.7432432 Z M90.8616814,124.313778 L86.1383186,124.313778 L86.1383186,129.067926 L90.8616814,129.067926 L90.8616814,124.313778 Z M90.7322592,93.1238524 L90.7322592,97.3546279 L86.2688283,97.3546279 L86.2688283,93.1238524 L90.7322592,93.1238524 Z M101.888661,93.1238524 L101.888661,97.3546279 L97.4252305,97.3546279 L97.4252305,93.1238524 L101.888661,93.1238524 Z M79.573682,93.1238524 L79.573682,97.3546279 L75.1113389,97.3546279 L75.1113389,93.1238524 L79.573682,93.1238524 Z M90.7322592,68.4125755 L90.7322592,72.6433511 L86.2688283,72.6433511 L86.2688283,68.4125755 L90.7322592,68.4125755 Z M101.888661,68.4125755 L101.888661,72.6433511 L97.4252305,72.6433511 L97.4252305,68.4125755 L101.888661,68.4125755 Z M79.573682,68.4125755 L79.573682,72.6433511 L75.1113389,72.6433511 L75.1113389,68.4125755 L79.573682,68.4125755 Z M59.3609962,39.0774463 C59.3609962,39.6687035 60.7313478,41.5979548 66.9871115,43.3969105 C72.4333008,44.963169 79.6225789,45.860061 87.3383016,45.9419276 L88.4994562,45.9480767 L88.4994562,50.1788523 C79.965211,50.1788523 71.9160269,49.2153217 65.8331886,47.4656377 C58.9644246,45.4897363 55.3794395,42.7756346 55.168475,39.396214 L55.1585847,39.0774463 L59.3609962,39.0774463 Z M99.6569459,45.9480767 L99.6569459,50.1788523 L95.1946026,50.1788523 L95.1946026,45.9480767 L99.6569459,45.9480767 Z M88.4994562,27.9760401 C97.0337015,27.9760401 105.083973,28.9395707 111.166812,30.6892547 C118.035575,32.6651564 121.620561,35.3782283 121.831525,38.7585851 L121.841415,39.0774463 L117.639004,39.0774463 C117.639004,38.4861886 116.268652,36.5569376 110.012888,34.7579819 C104.566699,33.1906806 97.3774214,32.2947321 89.660759,32.2129576 L88.4994562,32.2068156 L88.4994562,27.9760401 Z M84.0371129,27.9760401 L84.0371129,32.2068156 L79.573682,32.2068156 L79.573682,27.9760401 L84.0371129,27.9760401 Z" id="形状" fill-opacity="0.25" fill="#FFFFFF" fill-rule="nonzero"></path>
                        </g>
                    </g>
                </g>
            </g>
        </g>
    </g>
</svg>