<svg t="1570779437164" class="icon" viewBox="0 0 1024 1024" version="1.1" xmlns="http://www.w3.org/2000/svg" p-id="8168" width="16" height="16"><path d="M906.24 316.8v-3.84a28.16 28.16 0 0 0-7.04-12.8l-256-256a28.16 28.16 0 0 0-12.8-7.04H201.6a84.48 84.48 0 0 0-85.12 83.84v782.08a84.48 84.48 0 0 0 84.48 84.48H822.4a84.48 84.48 0 0 0 84.48-84.48V320a27.52 27.52 0 0 0-0.64-3.2z m-95.36-24.32H651.52v-160l159.36 160z m11.52 640H201.6a28.16 28.16 0 0 1-28.16-28.16V120.96A28.16 28.16 0 0 1 201.6 92.8h393.6V320a28.16 28.16 0 0 0 28.16 28.16H851.2v554.88a28.16 28.16 0 0 1-28.8 28.16v1.28z" fill="#34d6af" p-id="8169"></path><path d="M544.728 713.625c-27.824 0-53.118-10.118-75.883-30.354-10.118-10.118-10.118-25.294-2.53-35.412 10.118-10.118 25.295-10.118 35.413-2.53 22.765 20.236 58.177 20.236 78.413 0l65.765-65.765c10.118-10.118 15.177-25.295 15.177-40.471 0-10.118-2.53-25.295-15.177-37.942-22.765-20.236-58.177-20.236-78.413 0L542.2 531.504c-10.118 10.118-25.295 10.118-35.412 0-10.118-10.118-10.118-25.294 0-35.412l27.824-27.824c40.47-40.471 106.236-40.471 149.237 0 20.236 20.236 32.883 45.53 32.883 75.883 0 27.824-10.118 53.119-30.353 75.884L620.612 685.8c-22.765 17.706-48.06 27.824-75.884 27.824z" fill="#34d6af" p-id="8170"></path><path d="M415.726 842.626c-27.824 0-53.118-10.117-75.883-30.353-43-37.942-43-103.707-2.53-149.237l65.766-65.766c43-40.471 108.766-40.471 149.238 0 10.117 10.118 10.117 25.294 0 35.412s-25.295 10.118-35.413 0c-20.235-20.235-55.647-20.235-78.413 0l-65.765 65.766c-17.706 20.235-25.295 55.648 0 78.413 22.765 20.235 58.177 20.235 78.413 0l27.824-27.824c10.117-10.118 25.294-10.118 35.412 0s10.118 25.294 0 35.412l-27.824 27.824c-17.706 20.236-43 30.353-70.825 30.353z" fill="#34d6af" p-id="8171"></path></svg>