<svg t="1570779947186" class="icon" viewBox="0 0 1216 1024" version="1.1" xmlns="http://www.w3.org/2000/svg" p-id="20777" width="16" height="16"><path d="M1203.264 25.6a50.688 50.688 0 0 1 6.912 53.568l-361.92 777.984a50.624 50.624 0 0 1-74.88 20.16l-278.4-194.56a50.688 50.688 0 0 1 57.92-83.072l228.992 160 291.712-627.072L174.272 357.056l185.984 123.776a50.56 50.56 0 0 0 53.504 1.6l279.616-162.752a50.56 50.56 0 1 1 50.944 87.552L464.64 570.048a151.68 151.68 0 0 1-160.448-4.8L22.72 377.856A50.688 50.688 0 0 1 38.4 286.464l1113.6-277.824a50.56 50.56 0 0 1 51.264 16.896h-0.064z" fill="#17abe3" p-id="20778"></path><path d="M571.136 687.68c20.416 19.136 21.44 51.2 2.304 71.616l-182.144 194.496a50.56 50.56 0 0 1-87.552-34.688v-194.56a50.688 50.688 0 1 1 101.248 0v66.432l94.656-100.992a50.56 50.56 0 0 1 71.552-2.304z" fill="#17abe3" p-id="20779"></path></svg>