<svg xmlns="http://www.w3.org/2000/svg" xmlns:xlink="http://www.w3.org/1999/xlink" fill="none" version="1.1" width="1024" height="1024" viewBox="0 0 1024 1024"><defs><clipPath id="master_svg0_0_175"><rect x="0" y="0" width="1024" height="1024" rx="0"/></clipPath></defs><g clip-path="url(#master_svg0_0_175)"><rect x="0" y="0" width="1024" height="1024" rx="0" fill="#FFFFFF" fill-opacity="1"/><g transform="matrix(0.7071067690849304,0.7071067690849304,-0.7071067690849304,0.7071067690849304,255.1253315607405,-515.4438358849088)"><g><path d="M907.7494134242024,399.85022735595703L877.3664134242024,399.85022735595703Q876.5804134242024,399.85022735595703,875.7964134242025,399.88872735595703Q875.0114134242025,399.927327355957,874.2294134242024,400.004327355957Q873.4484134242025,400.08132735595706,872.6714134242025,400.19662735595705Q871.8944134242024,400.311827355957,871.1234134242025,400.465127355957Q870.3534134242025,400.61832735595704,869.5914134242024,400.80922735595703Q868.8294134242025,401.00012735595703,868.0774134242024,401.22812735595704Q867.3254134242025,401.45612735595705,866.5864134242024,401.72082735595706Q865.8464134242024,401.98542735595703,865.1204134242024,402.28612735595703Q864.3944134242024,402.586727355957,863.6844134242025,402.922527355957Q862.9744134242025,403.25842735595705,862.2814134242025,403.62872735595704Q861.5894134242025,403.999027355957,860.9154134242025,404.40292735595705Q860.2414134242024,404.80672735595704,859.5884134242025,405.24322735595706Q858.9354134242025,405.67962735595705,858.3044134242025,406.147627355957Q857.6734134242024,406.61552735595706,857.0654134242025,407.113927355957Q856.4584134242025,407.61222735595703,855.8764134242024,408.13982735595704Q855.2944134242025,408.667327355957,854.7394134242024,409.222827355957Q854.1834134242024,409.778327355957,853.6564134242025,410.36032735595705Q853.1284134242024,410.942427355957,852.6304134242024,411.54962735595706Q852.1314134242025,412.156927355957,851.6634134242024,412.787827355957Q851.1954134242025,413.41882735595703,850.7594134242024,414.07202735595706Q850.3234134242025,414.72512735595706,849.9194134242025,415.398927355957Q849.5152134242024,416.07272735595706,849.1449134242024,416.76552735595703Q848.7746134242025,417.458327355957,848.4388134242024,418.168427355957Q848.1029134242025,418.878627355957,847.8023134242025,419.604327355957Q847.5017134242024,420.330127355957,847.2370134242025,421.069727355957Q846.9724134242024,421.80942735595704,846.7443134242025,422.56111735595704Q846.5163134242025,423.31284735595705,846.3254134242025,424.074857355957Q846.1345134242024,424.83687735595703,845.9813134242024,425.60733735595704Q845.8280134242025,426.37779735595706,845.7128134242024,427.154857355957Q845.5975134242025,427.93190735595704,845.5205134242025,428.71367735595703Q845.4435134242025,429.49545735595706,845.4050134242025,430.280057355957Q845.3664134242024,431.06467135595705,845.3664134242024,431.85022735595703Q845.3664134242024,432.635783355957,845.4050134242025,433.42039735595705Q845.4435134242025,434.204997355957,845.5205134242025,434.98677735595703Q845.5975134242025,435.768547355957,845.7128134242024,436.54559735595706Q845.8280134242025,437.322657355957,845.9813134242024,438.093117355957Q846.1345134242024,438.86357735595703,846.3254134242025,439.62559735595704Q846.5163134242025,440.387607355957,846.7443134242025,441.139337355957Q846.9724134242024,441.891027355957,847.2370134242025,442.63072735595705Q847.5017134242024,443.37032735595704,847.8023134242025,444.09612735595704Q848.1029134242025,444.82182735595705,848.4388134242024,445.53202735595704Q848.7746134242025,446.24212735595705,849.1449134242024,446.93492735595703Q849.5152134242024,447.627727355957,849.9194134242025,448.30152735595703Q850.3234134242025,448.975327355957,850.7594134242024,449.628427355957Q851.1954134242025,450.281627355957,851.6634134242024,450.91262735595706Q852.1314134242025,451.54352735595705,852.6304134242024,452.150827355957Q853.1284134242024,452.75802735595704,853.6564134242025,453.340127355957Q854.1834134242024,453.92212735595706,854.7394134242024,454.47762735595705Q855.2944134242025,455.03312735595705,855.8764134242024,455.560627355957Q856.4584134242025,456.08822735595703,857.0654134242025,456.58652735595706Q857.6734134242024,457.084927355957,858.3044134242025,457.55282735595705Q858.9354134242025,458.020827355957,859.5884134242025,458.457227355957Q860.2414134242024,458.893727355957,860.9154134242025,459.297527355957Q861.5894134242025,459.70142735595704,862.2814134242025,460.071727355957Q862.9744134242025,460.442027355957,863.6844134242025,460.77792735595705Q864.3944134242024,461.11372735595705,865.1204134242024,461.414327355957Q865.8464134242024,461.71502735595703,866.5864134242024,461.979627355957Q867.3254134242025,462.244327355957,868.0774134242024,462.472327355957Q868.8294134242025,462.70032735595703,869.5914134242024,462.891227355957Q870.3534134242025,463.082127355957,871.1234134242025,463.23532735595705Q871.8944134242024,463.38862735595706,872.6714134242025,463.503827355957Q873.4484134242025,463.619127355957,874.2294134242024,463.69612735595706Q875.0114134242025,463.77312735595706,875.7964134242025,463.81172735595703Q876.5804134242024,463.85022735595703,877.3664134242024,463.85022735595703L919.7874134242024,463.85022735595703Q943.0024134242025,463.85022735595703,964.1454134242024,472.792327355957Q984.5884134242025,481.43872735595704,1000.3714134242025,497.225927355957Q1016.1554134242024,513.0131273559571,1024.8004134242024,533.461227355957Q1033.7404134242024,554.609227355957,1033.7404134242024,577.827227355957L1033.7404134242024,735.679227355957L1033.7404134242024,893.5302273559571Q1033.7404134242024,916.748227355957,1024.7994134242024,937.8952273559571Q1016.1534134242024,958.3432273559571,1000.3674134242025,974.131227355957Q984.5824134242025,989.918227355957,964.1374134242025,998.5652273559571Q942.9934134242025,1007.5072273559571,919.7774134242025,1007.5072273559571L907.7534134242024,1007.5072273559571L895.7204134242024,1007.5072273559571Q872.5054134242024,1007.5072273559571,851.3614134242024,998.5652273559571Q830.9157134242024,989.919227355957,815.1305134242025,974.1322273559571Q799.3452134242025,958.345227355957,790.6996134242024,937.898227355957Q781.7584134242024,916.7522273559571,781.7584134242024,893.534227355957L781.7584134242024,735.679227355957Q781.7584134242024,734.893227355957,781.7199134242024,734.1082273559571Q781.6813134242025,733.324227355957,781.6043134242025,732.542227355957Q781.5273134242025,731.7602273559571,781.4120134242024,730.9832273559571Q781.2968134242025,730.206227355957,781.1435134242024,729.436227355957Q780.9903134242024,728.6652273559571,780.7994134242025,727.903227355957Q780.6085134242024,727.141227355957,780.3805134242025,726.390227355957Q780.1525134242024,725.638227355957,779.8878134242025,724.898227355957Q779.6232134242024,724.158227355957,779.3225134242025,723.4332273559571Q779.0219134242025,722.707227355957,778.6861134242024,721.997227355957Q778.3502134242025,721.287227355957,777.9799134242024,720.5942273559571Q777.6096134242024,719.901227355957,777.2057134242025,719.227227355957Q776.8019134242024,718.553227355957,776.3654134242024,717.900227355957Q775.9290134242025,717.247227355957,775.4610134242024,716.6162273559571Q774.9931134242024,715.985227355957,774.4947134242025,715.378227355957Q773.9964134242025,714.7712273559571,773.4688134242025,714.189227355957Q772.9413134242025,713.6072273559571,772.3858134242024,713.051227355957Q771.8303134242025,712.496227355957,771.2483134242025,711.968227355957Q770.6662134242024,711.441227355957,770.0590134242025,710.942227355957Q769.4517134242025,710.4442273559571,768.8208134242025,709.976227355957Q768.1898134242025,709.508227355957,767.5366134242024,709.072227355957Q766.8835134242024,708.6352273559571,766.2097134242024,708.231227355957Q765.5359134242025,707.827227355957,764.8431134242024,707.457227355957Q764.1503134242024,707.0872273559571,763.4402134242024,706.7512273559571Q762.7300134242024,706.4152273559571,762.0043134242025,706.114227355957Q761.2785134242024,705.814227355957,760.5389134242024,705.5492273559571Q759.7992134242024,705.285227355957,759.0475234242025,705.057227355957Q758.2957934242024,704.8282273559571,757.5337834242024,704.638227355957Q756.7717634242024,704.447227355957,756.0013034242024,704.293227355957Q755.2308434242025,704.140227355957,754.4537834242025,704.025227355957Q753.6767334242024,703.910227355957,752.8949634242025,703.833227355957Q752.1131834242025,703.756227355957,751.3285834242024,703.717227355957Q750.5439694242025,703.679227355957,749.7584134242024,703.679227355957Q748.9728574242024,703.679227355957,748.1882434242025,703.717227355957Q747.4036434242024,703.756227355957,746.6218634242024,703.833227355957Q745.8400934242025,703.910227355957,745.0630434242024,704.025227355957Q744.2859834242024,704.140227355957,743.5155234242025,704.293227355957Q742.7450634242025,704.447227355957,741.9830434242025,704.638227355957Q741.2210334242025,704.8282273559571,740.4693034242024,705.057227355957Q739.7176134242025,705.285227355957,738.9779134242025,705.5492273559571Q738.2383134242025,705.814227355957,737.5125134242024,706.114227355957Q736.7868134242025,706.4152273559571,736.0766134242025,706.7512273559571Q735.3665134242025,707.0872273559571,734.6737134242024,707.457227355957Q733.9809134242024,707.827227355957,733.3071134242025,708.231227355957Q732.6333134242025,708.6352273559571,731.9802134242025,709.072227355957Q731.3270134242024,709.508227355957,730.6960134242024,709.976227355957Q730.0651134242024,710.4442273559571,729.4578134242024,710.942227355957Q728.8506134242025,711.441227355957,728.2685134242024,711.968227355957Q727.6865134242024,712.496227355957,727.1310134242025,713.051227355957Q726.5755134242024,713.6072273559571,726.0480134242024,714.189227355957Q725.5204134242024,714.7712273559571,725.0221134242024,715.378227355957Q724.5237134242025,715.985227355957,724.0558134242025,716.6162273559571Q723.5878134242024,717.247227355957,723.1514134242025,717.900227355957Q722.7149134242025,718.553227355957,722.3111134242024,719.227227355957Q721.9072134242025,719.901227355957,721.5369134242025,720.5942273559571Q721.1666134242024,721.287227355957,720.8307134242025,721.997227355957Q720.4949134242024,722.707227355957,720.1943134242024,723.4332273559571Q719.8936134242025,724.158227355957,719.6290134242024,724.898227355957Q719.3643134242025,725.638227355957,719.1363134242024,726.390227355957Q718.9083134242024,727.141227355957,718.7174134242024,727.903227355957Q718.5265134242024,728.6652273559571,718.3733134242025,729.436227355957Q718.2200134242024,730.206227355957,718.1048134242025,730.9832273559571Q717.9895134242024,731.7602273559571,717.9125134242024,732.542227355957Q717.8355134242024,733.324227355957,717.7969134242024,734.1082273559571Q717.7584134242024,734.893227355957,717.7584134242024,735.679227355957L717.7584134242024,893.534227355957Q717.7584134242024,911.702227355957,721.3721134242024,929.370227355957Q724.8992134242025,946.614227355957,731.7523134242025,962.822227355957Q738.4769134242024,978.726227355957,748.1632734242024,993.067227355957Q757.7494434242025,1007.260227355957,769.8734134242025,1019.385227355957Q781.9976134242024,1031.5102273559569,796.1891134242024,1041.0972273559569Q810.5290134242025,1050.785227355957,826.4327134242025,1057.511227355957Q842.6403134242024,1064.365227355957,859.8844134242024,1067.8932273559572Q877.5524134242024,1071.5072273559572,895.7204134242024,1071.5072273559572L907.7534134242024,1071.5072273559572L919.7774134242025,1071.5072273559572Q937.9464134242024,1071.5072273559572,955.6144134242024,1067.8932273559572Q972.8584134242025,1064.365227355957,989.0664134242024,1057.5102273559569Q1004.9694134242025,1050.784227355957,1019.3104134242025,1041.0962273559571Q1033.5014134242024,1031.508227355957,1045.6254134242024,1019.3822273559571Q1057.7494134242024,1007.2572273559571,1067.3354134242024,993.0642273559571Q1077.0214134242024,978.7232273559571,1083.7464134242025,962.818227355957Q1090.5994134242023,946.610227355957,1094.1264134242024,929.3662273559571Q1097.7404134242024,911.698227355957,1097.7404134242024,893.5302273559571L1097.7404134242024,735.679227355957L1097.7404134242024,577.827227355957Q1097.7404134242024,559.660227355957,1094.1274134242026,541.9922273559571Q1090.6004134242025,524.748227355957,1083.7484134242025,508.54042735595704Q1077.0244134242025,492.636127355957,1067.3394134242026,478.29512735595705Q1057.7544134242025,464.101827355957,1045.6314134242025,451.97632735595704Q1033.5084134242024,439.85042735595704,1019.3174134242024,430.262357355957Q1004.9784134242025,420.57392735595704,989.0754134242025,413.84772735595703Q972.8684134242025,406.99282735595705,955.6244134242024,403.464827355957Q937.9564134242024,399.85022735595703,919.7874134242024,399.85022735595703L907.7494134242024,399.85022735595703Z" fill-rule="evenodd" fill="#323232" fill-opacity="1"/></g><g transform="matrix(-1,0,0,-1,2131.4804077148438,1315.797622680664)"><path d="M1223.7312038574219,625.898811340332L1193.3482038574218,625.898811340332Q1192.562203857422,625.898811340332,1191.7782038574219,625.937311340332Q1190.9932038574218,625.975911340332,1190.2112038574219,626.052911340332Q1189.430203857422,626.129911340332,1188.6532038574219,626.245211340332Q1187.8762038574218,626.360411340332,1187.1052038574219,626.5137113403321Q1186.335203857422,626.666911340332,1185.573203857422,626.857811340332Q1184.8112038574218,627.048711340332,1184.0592038574218,627.276711340332Q1183.3072038574219,627.504711340332,1182.5682038574218,627.769411340332Q1181.8282038574218,628.0340113403321,1181.102203857422,628.334711340332Q1180.3762038574218,628.635311340332,1179.6662038574218,628.9711113403321Q1178.9562038574218,629.307011340332,1178.2632038574218,629.677311340332Q1177.5712038574218,630.0476113403321,1176.8972038574218,630.451511340332Q1176.2232038574218,630.855311340332,1175.5702038574218,631.2918113403321Q1174.9172038574218,631.728211340332,1174.286203857422,632.1962113403321Q1173.6552038574218,632.664111340332,1173.047203857422,633.162511340332Q1172.440203857422,633.660811340332,1171.8582038574218,634.188411340332Q1171.276203857422,634.715911340332,1170.7212038574219,635.2714113403321Q1170.1652038574218,635.826911340332,1169.6382038574218,636.408911340332Q1169.1102038574218,636.9910113403321,1168.612203857422,637.598211340332Q1168.113203857422,638.205511340332,1167.6452038574218,638.836411340332Q1167.1772038574218,639.467411340332,1166.7412038574219,640.1206113403321Q1166.305203857422,640.773711340332,1165.901203857422,641.4475113403321Q1165.497003857422,642.121311340332,1165.126703857422,642.814111340332Q1164.756403857422,643.5069113403321,1164.4206038574218,644.2170113403321Q1164.0847038574218,644.9272113403321,1163.7841038574218,645.652911340332Q1163.483503857422,646.3787113403321,1163.2188038574218,647.1183113403321Q1162.9542038574218,647.858011340332,1162.7261038574218,648.609701340332Q1162.498103857422,649.361431340332,1162.3072038574219,650.1234413403321Q1162.1163038574218,650.8854613403321,1161.9631038574219,651.655921340332Q1161.809803857422,652.426381340332,1161.694603857422,653.203441340332Q1161.5793038574218,653.980491340332,1161.5023038574218,654.762261340332Q1161.4253038574218,655.544041340332,1161.386803857422,656.3286413403321Q1161.3482038574218,657.113255340332,1161.3482038574218,657.898811340332Q1161.3482038574218,658.6843673403321,1161.386803857422,659.468981340332Q1161.4253038574218,660.2535813403321,1161.5023038574218,661.0353613403321Q1161.5793038574218,661.817131340332,1161.694603857422,662.594181340332Q1161.809803857422,663.3712413403321,1161.9631038574219,664.141701340332Q1162.1163038574218,664.912161340332,1162.3072038574219,665.674181340332Q1162.498103857422,666.436191340332,1162.7261038574218,667.1879213403321Q1162.9542038574218,667.939611340332,1163.2188038574218,668.679311340332Q1163.483503857422,669.418911340332,1163.7841038574218,670.144711340332Q1164.0847038574218,670.870411340332,1164.4206038574218,671.580611340332Q1164.756403857422,672.290711340332,1165.126703857422,672.983511340332Q1165.497003857422,673.6763113403321,1165.901203857422,674.350111340332Q1166.305203857422,675.023911340332,1166.7412038574219,675.677011340332Q1167.1772038574218,676.3302113403321,1167.6452038574218,676.961211340332Q1168.113203857422,677.592111340332,1168.612203857422,678.1994113403321Q1169.1102038574218,678.806611340332,1169.6382038574218,679.3887113403321Q1170.1652038574218,679.9707113403321,1170.7212038574219,680.526211340332Q1171.276203857422,681.081711340332,1171.8582038574218,681.6092113403321Q1172.440203857422,682.1368113403321,1173.047203857422,682.6351113403321Q1173.6552038574218,683.133511340332,1174.286203857422,683.601411340332Q1174.9172038574218,684.0694113403321,1175.5702038574218,684.505811340332Q1176.2232038574218,684.942311340332,1176.8972038574218,685.3461113403321Q1177.5712038574218,685.750011340332,1178.2632038574218,686.120311340332Q1178.9562038574218,686.4906113403321,1179.6662038574218,686.826511340332Q1180.3762038574218,687.162311340332,1181.102203857422,687.4629113403321Q1181.8282038574218,687.763611340332,1182.5682038574218,688.0282113403321Q1183.3072038574219,688.292911340332,1184.0592038574218,688.5209113403321Q1184.8112038574218,688.748911340332,1185.573203857422,688.9398113403321Q1186.335203857422,689.130711340332,1187.1052038574219,689.283911340332Q1187.8762038574218,689.437211340332,1188.6532038574219,689.552411340332Q1189.430203857422,689.6677113403321,1190.2112038574219,689.7447113403321Q1190.9932038574218,689.8217113403321,1191.7782038574219,689.860311340332Q1192.562203857422,689.898811340332,1193.3482038574218,689.898811340332L1235.7692038574219,689.898811340332Q1258.9842038574218,689.898811340332,1280.1272038574218,698.840911340332Q1300.5702038574218,707.487311340332,1316.353203857422,723.2745113403321Q1332.1372038574218,739.0617113403321,1340.7822038574218,759.509811340332Q1349.7222038574218,780.657811340332,1349.7222038574218,803.875811340332L1349.7222038574218,961.727811340332L1349.7222038574218,1119.578811340332Q1349.7222038574218,1142.7968113403322,1340.7812038574218,1163.943811340332Q1332.1352038574219,1184.391811340332,1316.3492038574218,1200.179811340332Q1300.564203857422,1215.966811340332,1280.1192038574218,1224.6138113403322Q1258.975203857422,1233.5558113403322,1235.7592038574219,1233.5558113403322L1223.7352038574218,1233.5558113403322L1211.7022038574219,1233.5558113403322Q1188.487203857422,1233.5558113403322,1167.343203857422,1224.6138113403322Q1146.897503857422,1215.967811340332,1131.112303857422,1200.1808113403322Q1115.327003857422,1184.393811340332,1106.6814038574219,1163.946811340332Q1097.7402038574219,1142.800811340332,1097.7402038574219,1119.582811340332L1097.7402038574219,961.727811340332Q1097.7402038574219,960.941811340332,1097.7017038574218,960.1568113403321Q1097.663103857422,959.372811340332,1097.586103857422,958.590811340332Q1097.509103857422,957.8088113403321,1097.393803857422,957.0318113403321Q1097.2786038574218,956.254811340332,1097.1253038574218,955.484811340332Q1096.9721038574219,954.7138113403321,1096.7812038574218,953.951811340332Q1096.590303857422,953.189811340332,1096.362303857422,952.438811340332Q1096.1343038574219,951.686811340332,1095.869603857422,950.946811340332Q1095.605003857422,950.206811340332,1095.304303857422,949.4818113403321Q1095.003703857422,948.755811340332,1094.6679038574218,948.045811340332Q1094.3320038574218,947.335811340332,1093.961703857422,946.6428113403321Q1093.591403857422,945.949811340332,1093.187503857422,945.275811340332Q1092.7837038574219,944.601811340332,1092.3472038574218,943.948811340332Q1091.9108038574218,943.295811340332,1091.442803857422,942.6648113403321Q1090.9749038574219,942.033811340332,1090.476503857422,941.426811340332Q1089.978203857422,940.8198113403321,1089.4506038574218,940.237811340332Q1088.923103857422,939.6558113403321,1088.367603857422,939.099811340332Q1087.8121038574218,938.544811340332,1087.230103857422,938.016811340332Q1086.6480038574218,937.489811340332,1086.040803857422,936.990811340332Q1085.4335038574218,936.4928113403321,1084.802603857422,936.024811340332Q1084.1716038574218,935.556811340332,1083.5184038574218,935.120811340332Q1082.8653038574218,934.6838113403321,1082.1915038574218,934.279811340332Q1081.5177038574218,933.875811340332,1080.824903857422,933.505811340332Q1080.132103857422,933.1358113403321,1079.422003857422,932.7998113403321Q1078.711803857422,932.4638113403321,1077.9861038574218,932.162811340332Q1077.2603038574218,931.862811340332,1076.520703857422,931.5978113403321Q1075.7810038574219,931.333811340332,1075.0293138574218,931.105811340332Q1074.2775838574219,930.8768113403321,1073.515573857422,930.686811340332Q1072.7535538574218,930.495811340332,1071.9830938574219,930.341811340332Q1071.212633857422,930.188811340332,1070.4355738574218,930.073811340332Q1069.6585238574219,929.958811340332,1068.8767538574218,929.881811340332Q1068.0949738574218,929.804811340332,1067.3103738574218,929.765811340332Q1066.525759857422,929.727811340332,1065.7402038574219,929.727811340332Q1064.9546478574218,929.727811340332,1064.170033857422,929.765811340332Q1063.385433857422,929.804811340332,1062.603653857422,929.881811340332Q1061.8218838574219,929.958811340332,1061.044833857422,930.073811340332Q1060.2677738574218,930.188811340332,1059.497313857422,930.341811340332Q1058.726853857422,930.495811340332,1057.9648338574218,930.686811340332Q1057.202823857422,930.8768113403321,1056.451093857422,931.105811340332Q1055.6994038574219,931.333811340332,1054.9597038574218,931.5978113403321Q1054.220103857422,931.862811340332,1053.494303857422,932.162811340332Q1052.7686038574218,932.4638113403321,1052.0584038574218,932.7998113403321Q1051.3483038574218,933.1358113403321,1050.6555038574218,933.505811340332Q1049.962703857422,933.875811340332,1049.288903857422,934.279811340332Q1048.615103857422,934.6838113403321,1047.962003857422,935.120811340332Q1047.308803857422,935.556811340332,1046.6778038574218,936.024811340332Q1046.046903857422,936.4928113403321,1045.4396038574218,936.990811340332Q1044.832403857422,937.489811340332,1044.2503038574218,938.016811340332Q1043.668303857422,938.544811340332,1043.1128038574218,939.099811340332Q1042.5573038574219,939.6558113403321,1042.029803857422,940.237811340332Q1041.5022038574218,940.8198113403321,1041.0039038574218,941.426811340332Q1040.505503857422,942.033811340332,1040.0376038574218,942.6648113403321Q1039.569603857422,943.295811340332,1039.133203857422,943.948811340332Q1038.6967038574219,944.601811340332,1038.2929038574218,945.275811340332Q1037.8890038574218,945.949811340332,1037.5187038574218,946.6428113403321Q1037.148403857422,947.335811340332,1036.812503857422,948.045811340332Q1036.4767038574219,948.755811340332,1036.1761038574218,949.4818113403321Q1035.8754038574218,950.206811340332,1035.6108038574218,950.946811340332Q1035.346103857422,951.686811340332,1035.1181038574218,952.438811340332Q1034.8901038574218,953.189811340332,1034.699203857422,953.951811340332Q1034.5083038574219,954.7138113403321,1034.355103857422,955.484811340332Q1034.201803857422,956.254811340332,1034.0866038574218,957.0318113403321Q1033.9713038574218,957.8088113403321,1033.8943038574218,958.590811340332Q1033.8173038574218,959.372811340332,1033.778703857422,960.1568113403321Q1033.7402038574219,960.941811340332,1033.7402038574219,961.727811340332L1033.7402038574219,1119.582811340332Q1033.7402038574219,1137.750811340332,1037.353903857422,1155.418811340332Q1040.8810038574218,1172.6628113403322,1047.7341038574218,1188.870811340332Q1054.4587038574218,1204.774811340332,1064.145063857422,1219.1158113403321Q1073.7312338574218,1233.3088113403319,1085.8552038574219,1245.4338113403319Q1097.9794038574219,1257.5588113403319,1112.1709038574218,1267.1458113403319Q1126.510803857422,1276.833811340332,1142.4145038574218,1283.559811340332Q1158.622103857422,1290.413811340332,1175.8662038574219,1293.9418113403322Q1193.534203857422,1297.5558113403322,1211.7022038574219,1297.5558113403322L1223.7352038574218,1297.5558113403322L1235.7592038574219,1297.5558113403322Q1253.928203857422,1297.5558113403322,1271.5962038574219,1293.9418113403322Q1288.8402038574218,1290.413811340332,1305.0482038574219,1283.5588113403319Q1320.951203857422,1276.832811340332,1335.292203857422,1267.1448113403321Q1349.4832038574218,1257.556811340332,1361.6072038574218,1245.4308113403322Q1373.7312038574219,1233.3058113403322,1383.3172038574219,1219.112811340332Q1393.0032038574218,1204.771811340332,1399.728203857422,1188.8668113403319Q1406.5812038574218,1172.658811340332,1410.1082038574218,1155.414811340332Q1413.7222038574218,1137.746811340332,1413.7222038574218,1119.578811340332L1413.7222038574218,961.727811340332L1413.7222038574218,803.875811340332Q1413.7222038574218,785.708811340332,1410.109203857422,768.0408113403321Q1406.582203857422,750.796811340332,1399.7302038574219,734.589011340332Q1393.006203857422,718.684711340332,1383.321203857422,704.343711340332Q1373.736203857422,690.1504113403321,1361.613203857422,678.024911340332Q1349.4902038574219,665.899011340332,1335.2992038574218,656.3109413403321Q1320.960203857422,646.622511340332,1305.0572038574219,639.896311340332Q1288.850203857422,633.041411340332,1271.6062038574219,629.513411340332Q1253.938203857422,625.898811340332,1235.7692038574219,625.898811340332L1223.7312038574219,625.898811340332Z" fill-rule="evenodd" fill="#323232" fill-opacity="1"/></g></g></g></svg>