<svg xmlns="http://www.w3.org/2000/svg" xmlns:xlink="http://www.w3.org/1999/xlink" fill="none" version="1.1" width="1024" height="1024" viewBox="0 0 1024 1024"><defs><clipPath id="master_svg0_0_54"><rect x="0" y="0" width="1024" height="1024" rx="0"/></clipPath></defs><g clip-path="url(#master_svg0_0_54)"><rect x="0" y="0" width="1024" height="1024" rx="0" fill="#FFFFFF" fill-opacity="1"/><g><path d="M957,879.1049938964844L957,144.89499389648438C957,125.23369389648437,941.077,109.27499389648438,921.416,109.27499389648438L102.5839,109.27499389648438C82.9226,109.27499389648438,67,125.23369389648437,67,144.89499389648438L67,879.1049938964844C67,898.7659938964844,82.9226,914.7249938964844,102.5839,914.7249938964844L921.416,914.7249938964844C941.077,914.7249938964844,957,898.7659938964844,957,879.1049938964844ZM885.8,843.5249938964844L885.8,180.47499389648436L138.2,180.47499389648436L138.2,843.5249938964844L512,843.5249938964844L885.8,843.5249938964844Z" fill-rule="evenodd" fill="#323232" fill-opacity="1"/></g><g><g transform="matrix(-1,8.742277657347586e-8,8.742277657347586e-8,1,1447.9999637195478,-0.00006329409023919652)"><rect x="724" y="415" width="64.0000228881836" height="305" rx="32.0000114440918" fill="#323232" fill-opacity="1"/></g><g transform="matrix(-1,8.742277657347586e-8,8.742277657347586e-8,1,727.9999863690759,-0.000031821891980143846)"><rect x="364.00001525878906" y="505" width="64.00001525878906" height="215" rx="32.00000762939453" fill="#323232" fill-opacity="1"/></g><g transform="matrix(-1,8.742277657347586e-8,8.742277657347586e-8,1,1088.0000038536314,-0.0000475579917633695)"><rect x="544.0000152587891" y="305" width="64.00003814697266" height="415" rx="32.00001907348633" fill="#323232" fill-opacity="1"/></g></g></g></svg>