<svg xmlns="http://www.w3.org/2000/svg" xmlns:xlink="http://www.w3.org/1999/xlink" fill="none" version="1.1" width="1024" height="1024" viewBox="0 0 1024 1024"><defs><clipPath id="master_svg0_0_119"><rect x="0" y="0" width="1024" height="1024" rx="0"/></clipPath></defs><g clip-path="url(#master_svg0_0_119)"><rect x="0" y="0" width="1024" height="1024" rx="0" fill="#FFFFFF" fill-opacity="1"/><g><g transform="matrix(0,-1,-1,0,1081.86669921875,1081.86669921875)"><rect x="715" y="366.86669921875" width="64" height="428" rx="32" fill="#323232" fill-opacity="1"/></g><g transform="matrix(0,-1,-1,0,1239.86669921875,1239.86669921875)"><rect x="715" y="524.86669921875" width="64" height="428" rx="32" fill="#323232" fill-opacity="1"/></g><g transform="matrix(1,0,0,-1,0,1721.7333984375)"><path d="M362.25,892.86669921875L623.5,892.86669921875Q624.285,892.86669921875,625.07,892.82819921875Q625.855,892.78959921875,626.637,892.71259921875Q627.418,892.63559921875,628.195,892.52029921875Q628.972,892.40509921875,629.743,892.25179921875Q630.513,892.09859921875,631.275,891.90769921875Q632.037,891.71679921875,632.789,891.48879921875Q633.541,891.26079921875,634.28,890.99609921875Q635.02,890.73149921875,635.746,890.43079921875Q636.472,890.13019921875,637.182,889.79439921875Q637.892,889.45849921875,638.585,889.08819921875Q639.277,888.71789921875,639.951,888.31399921875Q640.625,887.91019921875,641.278,887.47369921875Q641.931,887.03729921875,642.562,886.56929921875Q643.193,886.10139921875,643.801,885.60299921875Q644.408,885.10469921875,644.99,884.57709921875Q645.572,884.04959921875,646.127,883.49409921875Q646.683,882.93859921875,647.21,882.35659921875Q647.738,881.77449921875,648.236,881.16729921875Q648.735,880.55999921875,649.203,879.92909921875Q649.671,879.29809921875,650.107,878.64489921875Q650.543,877.99179921875,650.947,877.31799921875Q651.351,876.64419921875,651.721,875.95139921875Q652.092,875.25859921875,652.428,874.54849921875Q652.763,873.83829921875,653.064,873.11259921875Q653.365,872.38679921875,653.629,871.64719921875Q653.894,870.90749921875,654.122,870.15580921875Q654.35,869.40407921875,654.541,868.64206921875Q654.732,867.88004921875,654.885,867.10958921875Q655.038,866.33912921875,655.154,865.56206921875Q655.269,864.78501921875,655.346,864.00324921875Q655.423,863.22146921875,655.461,862.43686921875Q655.5,861.65225521875,655.5,860.86669921875Q655.5,860.08114321875,655.461,859.29652921875Q655.423,858.51192921875,655.346,857.73014921875Q655.269,856.94837921875,655.154,856.17132921875Q655.038,855.39426921875,654.885,854.62380921875Q654.732,853.85334921875,654.541,853.09132921875Q654.35,852.32931921875,654.122,851.57758921875Q653.894,850.82589921875,653.629,850.08619921875Q653.365,849.34659921875,653.064,848.62079921875Q652.763,847.89509921875,652.428,847.18489921875Q652.092,846.47479921875,651.721,845.78199921875Q651.351,845.08919921875,650.947,844.41539921875Q650.543,843.74159921875,650.107,843.08849921875Q649.671,842.43529921875,649.203,841.80429921875Q648.735,841.17339921875,648.236,840.56609921875Q647.738,839.95889921875,647.21,839.37679921875Q646.683,838.79479921875,646.127,838.23929921875Q645.572,837.68379921875,644.99,837.15629921875Q644.408,836.62869921875,643.801,836.13039921875Q643.193,835.63199921875,642.562,835.16409921875Q641.931,834.69609921875,641.278,834.25969921875Q640.625,833.82319921875,639.951,833.41939921875Q639.277,833.01549921875,638.585,832.64519921875Q637.892,832.27489921875,637.182,831.93899921875Q636.472,831.60319921875,635.746,831.30259921875Q635.02,831.00189921875,634.28,830.73729921875Q633.541,830.47259921875,632.789,830.24459921875Q632.037,830.01659921875,631.275,829.82569921875Q630.513,829.63479921875,629.743,829.48159921875Q628.972,829.32829921875,628.195,829.21309921875Q627.418,829.09779921875,626.637,829.02079921875Q625.855,828.94379921875,625.07,828.90519921875Q624.285,828.86669921875,623.5,828.86669921875L103.04438,828.86669921875Q96.38428,828.86669921875,90.2145,831.37319921875Q84.2101,833.81259921875,79.5221,838.28389921875Q74.654,842.92689921875,71.9242,849.06629921875Q69,855.64296921875,69,862.84210921875L69,1582.89169921875Q69,1589.77769921875,71.6759,1596.11469921875Q74.2858,1602.2946992187499,79.0513,1607.01869921875Q83.7836,1611.71069921875,89.9383,1614.26669921875Q96.19997000000001,1616.86669921875,102.98783,1616.86669921875L501,1616.86669921875L899.012,1616.86669921875Q906.026,1616.86669921875,912.463,1614.08969921875Q918.591,1611.44669921875,923.267,1606.67869921875Q927.871,1601.98469921875,930.394,1595.91169921875Q933,1589.6426992187498,933,1582.85069921875L933,1362.29969921875L933,1139.73369921875Q933,1136.79769921875,932.466,1133.9106992187499Q932.339,1133.2276992187499,932.184,1132.55169921875Q932.028,1131.87569921875,931.843,1131.20669921875Q931.658,1130.53769921875,931.444,1129.87769921875Q931.231,1129.21669921875,930.988,1128.56669921875Q930.746,1127.91669921875,930.476,1127.27669921875Q930.206,1126.63769921875,929.908,1126.01069921875Q929.611,1125.38369921875,929.286,1124.77069921875Q928.962,1124.15669921875,928.611,1123.55769921875Q928.26,1122.95969921875,927.884,1122.37669921875Q927.507,1121.79269921875,927.106,1121.2266992187501Q926.704,1120.6606992187499,926.279,1120.11269921875Q925.853,1119.5646992187499,925.404,1119.0346992187501Q924.956,1118.5056992187501,924.484,1117.99669921875Q924.013,1117.48669921875,923.52,1116.99869921875Q923.026,1116.51069921875,922.513,1116.04369921875Q921.999,1115.57669921875,921.465,1115.13369921875Q920.932,1114.68969921875,920.38,1114.26869921875Q919.827,1113.84869921875,919.257,1113.45269921875Q918.687,1113.05669921875,918.101,1112.68569921875Q917.514,1112.31469921875,916.912,1111.96969921875Q916.31,1111.62469921875,915.693,1111.30669921875Q915.077,1110.98769921875,914.447,1110.69569921875Q913.817,1110.40469921875,913.176,1110.14069921875Q912.534,1109.87569921875,911.881,1109.63969921875Q911.228,1109.40369921875,910.566,1109.19669921875Q909.904,1108.98969921875,909.233,1108.81069921875Q908.563,1108.6316992187499,907.885,1108.48269921875Q907.207,1108.33369921875,906.523,1108.21369921875Q905.84,1108.09369921875,905.152,1108.00369921875Q904.464,1107.91369921875,903.772,1107.85369921875Q903.081,1107.79369921875,902.387,1107.76369921875Q901.694,1107.73369921875,901,1107.73369921875Q900.214,1107.73369921875,899.43,1107.77169921875Q898.645,1107.81069921875,897.863,1107.88769921875Q897.082,1107.96469921875,896.305,1108.07969921875Q895.527,1108.19469921875,894.757,1108.34869921875Q893.987,1108.50169921875,893.225,1108.69269921875Q892.462,1108.88369921875,891.711,1109.11169921875Q890.959,1109.33969921875,890.219,1109.60369921875Q889.48,1109.86869921875,888.754,1110.1696992187499Q888.028,1110.46969921875,887.318,1110.80569921875Q886.608,1111.14169921875,885.915,1111.51169921875Q885.222,1111.88269921875,884.549,1112.28569921875Q883.875,1112.68969921875,883.222,1113.12669921875Q882.568,1113.56269921875,881.938,1114.03069921875Q881.307,1114.49869921875,880.699,1114.99669921875Q880.092,1115.49569921875,879.51,1116.02269921875Q878.928,1116.55069921875,878.372,1117.10569921875Q877.817,1117.66169921875,877.289,1118.24369921875Q876.762,1118.82569921875,876.264,1119.43269921875Q875.765,1120.03969921875,875.297,1120.67069921875Q874.829,1121.30169921875,874.393,1121.95469921875Q873.956,1122.60869921875,873.553,1123.28169921875Q873.149,1123.95569921875,872.778,1124.64869921875Q872.408,1125.34169921875,872.072,1126.05169921875Q871.736,1126.76169921875,871.436,1127.48769921875Q871.135,1128.21369921875,870.87,1128.95269921875Q870.606,1129.69269921875,870.378,1130.44469921875Q870.15,1131.19569921875,869.959,1131.95769921875Q869.768,1132.71969921875,869.615,1133.49069921875Q869.461,1134.26069921875,869.346,1135.03769921875Q869.231,1135.8146992187499,869.154,1136.59669921875Q869.077,1137.37869921875,869.038,1138.16369921875Q869,1138.9476992187501,869,1139.73369921875L869,1362.29969921875L869,1552.86669921875L501,1552.86669921875L133,1552.86669921875L133,892.86669921875L362.25,892.86669921875Z" fill-rule="evenodd" fill="#323232" fill-opacity="1"/></g><g><g transform="matrix(0.7071067690849304,-0.7071067690849304,0.7071067690849304,0.7071067690849304,-353.81722675893616,838.6905849964714)"><rect x="835.48046875" y="846.4404907226562" width="64" height="120" rx="32" fill="#323232" fill-opacity="1"/></g><g transform="matrix(0.7071067690849304,-0.7071067690849304,0.7071067690849304,0.7071067690849304,-361.36874050080587,688.9899002891798)"><ellipse cx="771" cy="900.7056274414062" rx="88" ry="88" fill-opacity="0" stroke-opacity="1" stroke="#323232" fill="none" stroke-width="64"/></g></g></g></g></svg>