<svg xmlns="http://www.w3.org/2000/svg" xmlns:xlink="http://www.w3.org/1999/xlink" fill="none" version="1.1" width="1024" height="1024" viewBox="0 0 1024 1024"><defs><clipPath id="master_svg0_0_127"><rect x="0" y="0" width="1024" height="1024" rx="0"/></clipPath></defs><g clip-path="url(#master_svg0_0_127)"><rect x="0" y="0" width="1024" height="1024" rx="0" fill="#FFFFFF" fill-opacity="1"/><g><g><path d="M593.3349531250001,542.54267578125Q597.958953125,540.9516757812501,601.954953125,538.11667578125L883.536953125,338.35967578124996Q890.474953125,333.43767578125,894.274953125,325.83667578125Q897.863953125,318.65867578125,897.863953125,310.62867578124997Q897.863953125,302.59867578125,894.274953125,295.42167578125Q890.474953125,287.82067578125,883.536953125,282.89767578125L601.954953125,83.14047578125Q597.958953125,80.30567578125,593.3349531250001,78.71457578125Q588.790953125,77.***REMOVED***,583.991953125,76.91037578125Q574.8319531249999,76.45057578125,566.675953125,80.66467578125Q558.518953125,84.87867578125,553.5949531250001,92.61547578125Q551.013953125,96.66897578125,549.659953125,101.27950578125Q548.281953125,105.97161578125,548.281953125,110.87117578125L548.281953125,215.21667578125L319.61895312499996,215.21667578125Q300.109953125,215.21667578125,281.128953125,219.04867578124998Q262.600953125,222.78967578125,245.158753125,230.06167578125002Q228.042753125,237.19667578125,212.56315312499999,247.48467578125Q197.246753125,257.66467578125,184.096053125,270.55467578125Q170.952753125,283.43767578125,160.469593125,298.54067578125Q149.885453125,313.78867578125,142.409253125,330.73167578125003Q134.796253125,347.98367578125,130.677553125,366.38067578125Q126.459853125,385.22067578125,126.046453125,404.64667578125Q125.94345312499999,409.48767578125,127.193253125,414.***REMOVED***Q128.42965312500002,418.77367578125,130.895653125,422.86767578125Q135.565553125,430.62267578125,143.490753125,435.02567578125Q151.132243125,439.27167578125,159.873833125,439.31067578125Q169.109353125,439.35167578125,177.110053125,434.71367578125Q200.45015312499999,421.***REMOVED***,226.503653125,414.***REMOVED***Q252.569453125,407.16367578125,279.561953125,407.16367578125L548.281953125,407.16367578125L548.281953125,442.77467578125L548.281953125,510.38667578125Q548.281953125,515.28567578125,549.659953125,519.97767578125Q551.013953125,524.58867578125,553.593953125,528.64167578125Q558.518953125,536.37867578125,566.674953125,540.59267578125Q574.8319531249999,544.8066757812501,583.991953125,544.34767578125Q588.790953125,544.10667578125,593.3349531250001,542.54267578125ZM612.281953125,452.32167578125L612.281953125,442.77467578125L612.281953125,377.12467578125Q612.281953125,370.***REMOVED***,609.5429531249999,363.75967578125Q606.8839531250001,357.54767578125,602.045953125,352.82667578125Q597.301953125,348.19767578125004,591.1629531250001,345.69067578125Q584.9759531249999,343.16367578125,578.285953125,343.16367578125L279.561953125,343.16367578125Q244.112453125,343.16367578125,209.879853125,352.37167578125Q205.822953125,353.46267578125,201.81565312499998,354.67467578125Q211.762453125,333.05367578125004,228.89545312500002,316.26067578125003Q246.790053125,298.72067578125,269.785953125,289.13367578124996Q293.571953125,279.21667578125,319.61895312499996,279.21667578125L578.274953125,279.21667578125Q585.030953125,279.21667578125,591.271953125,276.63867578124996Q597.371953125,274.11967578125,602.0859531250001,269.50167578125Q606.877953125,264.80667578124996,609.524953125,258.64667578125Q612.281953125,252.22967578125,612.281953125,245.23867578125L612.281953125,168.93587578125L812.014953125,310.62867578124997L612.281953125,452.32167578125Z" fill-rule="evenodd" fill="#323232" fill-opacity="1"/></g><g transform="matrix(-1,0,0,-1,1731.728515625,1831.044921875)"><path d="M1301.1972578125,1349.1974609375Q1305.8212578124999,1347.6064609375,1309.8172578125,1344.7714609375L1591.3992578124999,1145.0144609375Q1598.3372578125,1140.0924609375,1602.1372578125001,1132.4914609375Q1605.7262578125,1125.3134609375,1605.7262578125,1117.2834609375Q1605.7262578125,1109.2534609375,1602.1372578125001,1102.0764609375Q1598.3372578125,1094.4754609375,1591.3992578124999,1089.5524609375L1309.8172578125,889.7952609375Q1305.8212578124999,886.9604609375,1301.1972578125,885.3693609375Q1296.6532578125,883.8060609375,1291.8542578125,883.5651609375Q1282.6942578125,883.1053609375,1274.5382578125,887.3194609375Q1266.3812578125,891.5334609375,1261.4572578125,899.2702609375Q1258.8762578125,903.3237609375,1257.5222578125,907.9342909375Q1256.1442578125,912.6264009375,1256.1442578125,917.5259609375L1256.1442578125,1021.8714609375L1027.4812578125,1021.8714609375Q1007.9722578125,1021.8714609375,988.9912578125,1025.7034609375Q970.4632578125,1029.4444609375,953.0210578125,1036.7164609375Q935.9050578125,1043.8514609375,920.4254578125,1054.1394609375Q905.1090578124999,1064.3194609375,891.9583578125,1077.2094609375Q878.8150578125,1090.0924609375,868.3318978125,1105.1954609375Q857.7477578125,1120.4434609375,850.2715578125,1137.3864609375Q842.6585578125,1154.6384609375,838.5398578125,1173.0354609375Q834.3221578125,1191.8754609375,833.9087578125,1211.3014609375Q833.8057578125,1216.1424609375,835.0555578125,1220.8104609375Q836.2919578125,1225.4284609375,838.7579578125,1229.5224609375Q843.4278578125,1237.2774609375,851.3530578125,1241.6804609375Q858.9945478125,1245.9264609375,867.7361378125,1245.9654609375Q876.9716578125,1246.0064609375,884.9723578125,1241.3684609375Q908.3124578125,1227.8374609375,934.3659578125,1220.8294609375Q960.4317578125,1213.8184609375,987.4242578125,1213.8184609375L1256.1442578125,1213.8184609375L1256.1442578125,1249.4294609375L1256.1442578125,1317.0414609375Q1256.1442578125,1321.9404609375001,1257.5222578125,1326.6324609375001Q1258.8762578125,1331.2434609375,1261.4562578125,1335.2964609375Q1266.3812578125,1343.0334609375,1274.5372578125,1347.2474609375Q1282.6942578125,1351.4614609375,1291.8542578125,1351.0024609375Q1296.6532578125,1350.7614609375,1301.1972578125,1349.1974609375ZM1320.1442578125,1258.9764609375L1320.1442578125,1249.4294609375L1320.1442578125,1183.7794609375Q1320.1442578125,1176.8114609375,1317.4052578125,1170.4144609375Q1314.7462578125,1164.2024609375,1309.9082578124999,1159.4814609375Q1305.1642578125,1154.8524609375,1299.0252578125,1152.3454609375Q1292.8382578125,1149.8184609375,1286.1482578125,1149.8184609375L987.4242578125,1149.8184609375Q951.9747578125,1149.8184609375,917.7421578125,1159.0264609375Q913.6852578125,1160.1174609375,909.6779578125,1161.3294609375Q919.6247578125,1139.7084609375,936.7577578125,1122.9154609375Q954.6523578125,1105.3754609375,977.6482578125,1095.7884609375Q1001.4342578124999,1085.8714609375,1027.4812578125,1085.8714609375L1286.1372578125001,1085.8714609375Q1292.8932578125,1085.8714609375,1299.1342578125,1083.2934609375Q1305.2342578125,1080.7744609375,1309.9482578125,1076.1564609375Q1314.7402578125,1071.4614609375,1317.3872578125001,1065.3014609375Q1320.1442578125,1058.8844609375,1320.1442578125,1051.8934609375L1320.1442578125,975.5906609375L1519.8772578125,1117.2834609375L1320.1442578125,1258.9764609375Z" fill-rule="evenodd" fill="#323232" fill-opacity="1"/></g></g></g></svg>