<svg xmlns="http://www.w3.org/2000/svg" xmlns:xlink="http://www.w3.org/1999/xlink" fill="none" version="1.1" width="1024" height="1024" viewBox="0 0 1024 1024"><defs><clipPath id="master_svg0_0_66"><rect x="0" y="0" width="1024" height="1024" rx="0"/></clipPath><clipPath id="master_svg1_0_69"><rect x="67" y="72" width="890" height="879.4207763671875" rx="0"/></clipPath></defs><g clip-path="url(#master_svg0_0_66)"><rect x="0" y="0" width="1024" height="1024" rx="0" fill="#FFFFFF" fill-opacity="1"/><g clip-path="url(#master_svg1_0_69)"><g><path d="M624.8658415527343,401.0069549560547C610.9498415527344,390.0622549560547,598.5708415527344,351.3632549560547,577.4888415527344,343.31075495605467C557.9958415527344,341.6689549560547,550.8293415527344,335.4927549560547,525.1863415527343,340.70475495605467C534.4897415527344,336.0660549560547,543.2719415527343,330.0981549560547,553.1486415527344,326.89275495605466C559.8460415527344,325.3031549560547,566.1788415527344,327.07525495605466,572.5368415527344,327.96135495605466C574.1008415527344,327.2055549560547,575.1428415527344,326.2674549560547,574.7528415527344,324.8862549560547C548.9269415527344,308.9114949560547,495.9731415527344,308.70295495605467,460.2188415527344,299.5819549560547C501.7063415527344,300.96313495605466,547.6239415527343,298.6698299560547,578.8178415527344,308.6768649560547C603.8878415527344,330.93215495605466,612.0438415527344,372.8366549560547,624.8658415527343,400.9549549560547C624.8658415527343,400.9549549560547,624.8658415527343,401.0069549560547,624.8658415527343,401.0069549560547Z" fill-rule="evenodd" fill="#323232" fill-opacity="1"/></g><g><path d="M700.90869140625,214.4178924560547C706.66794140625,214.93909245605468,737.65319140625,263.9318924560547,739.11259140625,272.0886924560547C741.71859140625,289.9136924560547,748.02509140625,309.90169245605466,749.74509140625,328.5608924560547C744.53309140625,310.6573924560547,739.08649140625,292.7803924560547,732.12849140625,274.9031924560547C730.09589140625,269.9778924560547,724.96209140625,258.8240924560547,710.68118140625,243.08389245605468C704.03589140625,231.9822924560547,702.60259140625,223.25223245605468,700.90869140625,214.4178924560547Z" fill-rule="evenodd" fill="#323232" fill-opacity="1"/></g><g><path d="M805.9043315429687,481.2462463378906C805.9043315429687,481.2462463378906,792.6398315429688,481.2462463378906,792.6398315429688,481.2462463378906C792.6398315429688,481.2462463378906,807.2855315429688,485.1030763378906,807.2855315429688,485.1030763378906C807.2855315429688,485.1030763378906,805.9043315429687,481.2462463378906,805.9043315429687,481.2462463378906Z" fill-rule="evenodd" fill="#323232" fill-opacity="1"/></g><g><path d="M715.450113671875,468.00766150390626C702.038613671875,466.07853950390626,688.396513671875,466.44863150390626,675.109343671875,469.10214150390624C669.688873671875,476.39894150390626,669.324033671875,483.80004150390624,666.926513671875,490.67994150390626C683.135813671875,472.8027315039063,689.572613671875,471.70818150390625,715.450113671875,468.00766150390626Z" fill-rule="evenodd" fill="#323232" fill-opacity="1"/></g><g><path d="M897.2445134765625,560.1819458007812C889.8174134765625,566.0975658007812,889.0877134765625,571.6744458007812,867.1452134765625,578.4239458007812C851.1704134765625,582.2026458007813,842.1276434765625,575.8179458007812,834.5963134765625,567.1920958007812C846.0106134765625,570.4495458007813,847.8348134765625,579.0753458007813,878.4292134765625,569.4071258007813C878.4292134765625,569.4071258007813,897.2445134765625,560.1819458007812,897.2445134765625,560.1819458007812Z" fill-rule="evenodd" fill="#323232" fill-opacity="1"/></g><g><path d="M830.7667436523437,563.8825073242188C825.5547436523437,578.5803073242188,819.6912436523437,593.4086073242188,813.8798436523438,607.1422073242187C800.0680436523437,623.3515073242188,806.0618436523438,614.1263073242187,785.2139436523438,639.2742073242188C791.8331436523438,629.0848073242188,800.4329436523437,619.2601073242188,804.9413436523438,608.6276073242187C808.3557436523438,601.9549073242188,811.3158436523438,595.0593073242187,813.8017436523437,587.9880073242188C808.3030436523437,585.2517073242187,797.0972436523438,585.0173073242188,795.5597436523437,586.0076073242187C777.1874436523437,596.8485073242188,773.8517436523438,608.3410073242187,763.0108436523437,619.5207073242187C770.8288436523437,606.9598073242188,777.5783436523437,593.2523073242188,786.6993436523437,581.9422073242188C787.7417436523438,580.4568073242187,794.5173436523437,580.1701073242187,798.6348436523438,579.3362073242188C792.1719436523438,578.2417073242187,780.3928436523438,575.9223073242188,779.2982436523438,576.0265073242188C767.3107436523437,578.9192073242187,760.5872536523437,589.3692073242188,751.6747436523438,596.3011073242187C758.1636736523437,586.9195073242188,764.1574436523438,577.1731073242188,772.3924436523438,569.0945073242187C773.2002436523437,568.1563473242187,795.4815436523437,570.1109373242188,807.0521436523437,574.7235073242188C807.0521436523437,574.7235073242188,807.2606436523438,579.3101073242187,807.2606436523438,579.3101073242187C807.2606436523438,579.3101073242187,813.8277436523438,581.9161073242187,813.8277436523438,581.9161073242187C813.8277436523438,581.9161073242187,818.7530436523438,569.5376373242187,818.7530436523438,569.5376373242187C818.7530436523438,569.5376373242187,830.7667436523437,563.8825073242188,830.7667436523437,563.8825073242188Z" fill-rule="evenodd" fill="#323232" fill-opacity="1"/></g><g><path d="M685.2457810546875,652.382552421875C682.3010810546875,651.366212421875,656.1628810546875,648.004484421875,656.1628810546875,648.812344421875C646.1037410546875,655.952782421875,644.5922560546875,662.780532421875,644.8007362546875,668.696132421875C661.5051810546875,652.278332421875,660.8797810546876,652.226192421875,685.2457810546875,652.382552421875Z" fill-rule="evenodd" fill="#323232" fill-opacity="1"/></g><g><path d="M665.38892996875,534.226169921875C665.38892996875,534.226169921875,684.25636796875,531.490069921875,683.89146796875,533.236069921875C682.53636796875,539.777069921875,686.21086796875,555.725769921875,686.49746796875,553.510669921875C686.49746796875,553.510669921875,675.89106796875,562.162569921875,675.89106796875,562.162569921875C698.12026796875,550.982869921875,721.49606796875,553.249969921875,745.21066796875,551.530069921875C745.21066796875,551.530069921875,725.2486679687499,546.031369921875,726.47346796875,545.848969921875C730.90366796875,545.223569921875,725.27476796875,525.001059921875,723.73716796875,524.584099921875C727.54196796875,523.307159921875,731.26856796875,522.342829921875,735.09936796875,521.378609921875C706.43336796875,513.899399921875,690.04166796875,518.303514921875,665.28466796875,534.226169921875C665.28466796875,534.226169921875,665.38892996875,534.226169921875,665.38892996875,534.226169921875Z" fill-rule="evenodd" fill="#323232" fill-opacity="1"/></g><g><path d="M828.68183203125,548.2981465332032C828.68183203125,548.2981465332032,824.48613203125,550.4090465332031,824.48613203125,550.4090465332031C823.88683203125,538.1347765332031,810.70043203125,539.0208865332031,799.57283203125,538.9166465332031C799.57283203125,538.9166465332031,790.45188203125,536.7014465332031,790.45188203125,536.7014465332031C793.21424203125,539.3074465332031,801.81403203125,539.0468465332032,798.26983203125,544.5194465332031C795.35116203125,546.0830465332032,794.02209203125,552.7544465332031,792.35425203125,558.3573465332031C792.35425203125,558.3573465332031,787.40283203125,558.6179465332032,787.40283203125,558.6179465332032C796.13292203125,562.0318465332032,804.21153203125,565.0027465332031,813.80163203125,569.0419465332031C813.80163203125,569.0419465332031,819.48263203125,569.9279465332031,819.48263203125,569.9279465332031C819.48263203125,569.9279465332031,833.03383203125,562.6311465332032,833.03383203125,562.6311465332032C833.03383203125,562.6311465332032,828.68183203125,548.2981465332032,828.68183203125,548.2981465332032Z" fill-rule="evenodd" fill="#323232" fill-opacity="1"/></g><g><path d="M703.6189357421875,540.1678609179687C701.5081357421875,535.9461409179687,690.8235257421875,536.5454549179688,688.5302477421875,539.2817509179688C686.6539257421875,541.4707909179688,688.3999357421875,555.6475409179687,690.7974557421875,553.2500409179687C692.6589157421874,551.7173409179687,694.8057857421875,550.5688409179687,697.1139057421875,549.8710409179688C699.4220357421875,549.1732409179688,701.8455357421875,548.9399409179688,704.2444357421875,549.1846409179687C704.8822357421875,546.1796809179688,704.6655357421876,543.0560309179688,703.6189357421875,540.1678609179687Z" fill-rule="evenodd" fill="#FFFFFF" fill-opacity="1"/></g><g><path d="M806.0607021484375,561.1461221191406C807.8266021484375,558.1266221191406,808.6776021484375,554.6591521191406,808.5103021484375,551.1651321191406C807.1031021484375,546.1616101191406,797.1742221484375,547.2041177191406,797.1742221484375,547.2041177191406C794.7506421484375,548.6374221191406,792.6398011484375,556.4553621191407,793.5258401484375,559.0353221191406C793.9427991484375,561.2243221191407,804.4710021484375,561.9279221191406,806.0607021484375,561.1461221191406Z" fill-rule="evenodd" fill="#FFFFFF" fill-opacity="1"/></g><g><path d="M381.283203125,806.2665405273438C381.283203125,806.2665405273438,387.563663125,806.8660285273437,387.563663125,806.8660285273437C424.751203125,825.1080405273437,486.018203125,852.2363405273437,574.700203125,837.6688405273437C574.700203125,837.6688405273437,590.000203125,857.9999405273437,590.000203125,857.9999405273437C550.910203125,876.9976405273437,499.830203125,872.7978405273437,460.453403125,874.1268405273438C460.453403125,874.1268405273438,381.283203125,806.2665405273438,381.283203125,806.2665405273438Z" fill-rule="evenodd" fill="#323232" fill-opacity="1"/></g><g><path d="M327.8863525390625,661.86808886875C327.8863525390625,661.86808886875,346.5192525390625,740.04811796875,346.5192525390625,740.04811796875C396.3979525390625,771.31991796875,481.6143525390625,806.9439179687499,552.6533525390626,804.07791796875C552.6533525390626,804.07791796875,537.0173525390625,768.06291796875,537.0173525390625,768.06291796875C388.7363525390625,736.55601796875,376.1754525390625,696.76241796875,327.9384438390625,661.81591796875C327.9384438390625,661.81591796875,327.8863525390625,661.86808886875,327.8863525390625,661.86808886875Z" fill-rule="evenodd" fill="#323232" fill-opacity="1"/></g><g><path d="M374.24698247070313,501.6252136230469C383.3418824707031,562.2408136230468,395.5119824707031,608.2102136230469,448.23128247070315,646.7012136230469C480.5452824707031,669.9462136230469,512.5992824707031,693.0882136230468,551.6112824707031,712.1902136230469C551.6112824707031,712.1902136230469,548.1972824707032,729.9892136230469,545.3302824707032,729.6502136230469C429.2595824707031,716.7762136230469,344.2519824707031,620.5112136230468,333.9582824707031,576.5477136230469C343.93925247070314,542.6697136230468,358.2461824707031,521.8217136230469,374.24698247070313,501.6252136230469Z" fill-rule="evenodd" fill="#323232" fill-opacity="1"/></g><g><path d="M425.63720703125,466.027148828125C441.11680703125,533.235848828125,477.99170703125003,601.2785488281249,514.65810703125,663.014548828125C528.10520703125,680.0575488281249,531.62320703125,687.589548828125,552.31520703125,697.987548828125C580.32920703125,706.847548828125,600.13520703125,704.5805488281251,620.43520703125,703.199548828125C614.88520703125,692.775548828125,610.01120703125,682.116548828125,603.52220703125,672.422548828125C558.02220703125,636.433548828125,579.05220703125,603.675548828125,591.1442070312501,582.9325488281249C565.84020703125,576.547548828125,532.32720703125,562.944548828125,527.68820703125,545.067548828125C520.26100703125,487.266048828125,524.03970703125,468.919848828125,531.46720703125,439.237548828125C497.19790703125,446.456168828125,462.48600703125,453.622648828125,425.63720703125,465.975148828125C425.63720703125,465.975148828125,425.63720703125,466.027148828125,425.63720703125,466.027148828125Z" fill-rule="evenodd" fill="#323232" fill-opacity="1"/></g><g><path d="M314.46581085285544,124.11989626449346C411.64281085285546,124.11989626449346,565.3188108528554,228.04689626449345,579.5218108528554,230.52289626449345C586.1408108528555,208.86689626449348,638.7298108528554,179.67989626449346,677.3248108528554,179.67989626449346C685.2668108528554,179.45789626449346,693.1528108528554,181.08089626449345,700.3618108528555,184.42289626449346C760.5338108528555,216.29389626449347,805.7478108528554,292.9368962644935,795.4018108528554,315.5048962644935C753.7058108528554,401.3458962644935,780.3138108528555,446.7688962644935,780.3138108528555,446.7688962644935C780.3138108528555,446.7688962644935,777.2648108528555,429.5168962644935,780.6258108528555,429.5168962644935C781.2778108528554,429.5168962644935,782.1378108528554,430.14289626449346,783.2318108528555,431.6278962644935C785.8378108528555,434.9378962644935,813.9308108528554,495.60489626449345,824.9278108528555,518.1728962644935C835.9258108528554,540.7408962644935,820.0548108528554,554.3188962644934,831.4688108528554,560.5208962644934C835.0558108528554,562.4728962644934,839.0878108528555,563.4608962644934,843.1698108528554,563.3868962644935C853.3858108528555,563.3868962644935,867.3538108528554,558.3058962644934,890.5208108528554,547.4648962644935C891.5888108528554,546.9298962644934,892.7668108528554,546.6538962644935,893.9608108528554,546.6568962644935C902.1438108528555,546.6568962644935,908.8678108528554,561.1458962644934,902.2998108528554,594.5028962644934C894.8208108528554,632.4718962644935,865.0348108528555,722.0408962644934,801.1098108528554,734.9138962644935C798.0598108528554,735.3228962644935,794.9868108528555,735.5228962644935,791.9098108528555,735.5138962644935C730.9558108528554,735.5138962644935,667.2388108528554,662.1548962644935,667.2388108528554,662.1548962644935C667.2388108528554,662.1548962644935,701.4298108528554,707.7078962644935,704.1658108528554,716.8808962644935C706.9028108528554,726.0538962644935,691.9698108528554,737.1548962644935,666.0928108528555,740.7778962644935C663.8658108528555,741.1018962644935,661.6188108528554,741.2668962644934,659.3688108528554,741.2728962644935C624.2928108528555,741.2728962644935,622.8848108528555,698.0128962644935,618.2728108528554,697.7528962644934C612.4088108528555,697.3878962644935,592.7338108528554,693.6868962644935,577.3328108528555,693.6868962644935C570.2178108528555,693.6868962644935,564.0158108528555,694.4688962644934,560.5238108528554,696.7628962644935C543.3758108528555,707.9938962644935,525.3948108528555,737.1028962644934,533.9168108528554,775.4898962644935C537.9818108528555,790.0568962644935,574.7528108528554,858.1518962644934,606.6498108528555,870.4258962644934C636.5668108528555,882.1788962644935,682.9278108528555,890.2838962644935,704.2708108528554,890.2838962644935C691.2408108528555,896.7208962644935,648.2678108528554,899.2748962644935,605.0078108528554,899.2748962644935C598.4408108528554,899.2748962644935,591.9778108528554,899.2748962644935,585.4108108528554,899.1178962644934C534.5158108528555,898.2058962644935,429.18181085285545,870.1658962644934,379.01581085285545,794.5398962644934C275.37581085285547,595.8058962644934,374.71581085285544,510.4858962644935,426.70581085285545,465.71489626449346C367.44581085285546,497.4038962644935,304.2238108528554,507.5668962644935,266.41081085285543,507.5668962644935C248.53381085285545,507.5668962644935,236.36381085285544,505.29989626449344,233.05381085285543,501.9378962644935C223.51581085285545,487.78689626449346,212.83181085285545,436.78789626449344,191.87981085285543,417.3988962644935C87.01401085285545,329.83789626449345,122.74231085285544,264.2448962644935,134.88621085285544,242.53689626449346C139.08191085285546,235.03089626449346,148.46351085285545,220.56789626449347,158.34021085285545,218.76989626449347C160.11231085285544,218.76989626449347,161.88431085285544,218.76989626449347,163.68251085285544,218.76989626449347C232.84581085285544,218.76989626449347,321.3448108528554,265.49589626449347,332.00381085285545,267.86689626449345C315.5338108528555,253.03889626449347,247.85581085285546,218.09189626449347,214.60381085285545,207.56389626449348C225.02781085285545,198.59989626449345,284.26181085285543,129.56649626449348,303.8848108528555,124.64109626449346C307.35081085285543,124.35449626449346,310.89481085285547,124.19819626449348,314.5178108528554,124.19819626449348M314.5178108528554,72.07816426449347C309.3058108528554,72.07816426449347,304.27581085285544,72.31270426449346,299.37681085285544,72.72966426449346C299.37681085285544,72.72966426449346,295.25881085285545,73.09454626449346,295.25881085285545,73.09454626449346C295.25881085285545,73.09454626449346,291.24581085285547,74.08483626449346,291.24581085285547,74.08483626449346C266.07181085285544,80.39135626449347,241.91481085285545,102.75079626449346,193.85981085285545,154.06299626449345C189.37781085285545,158.83199626449345,183.98281085285544,164.48689626449345,181.24681085285545,167.37959626449347C175.35681085285546,166.91049626449347,169.49381085285546,166.64989626449346,163.68251085285544,166.64989626449346C161.25891085285545,166.64989626449346,158.80921085285544,166.64979626449346,156.43781085285545,166.78009626449347C156.43781085285545,166.78009626449347,152.65911085285546,166.78009626449347,152.65911085285546,166.78009626449347C152.65911085285546,166.78009626449347,148.93251085285544,167.48379626449346,148.93251085285544,167.48379626449346C125.47851085285544,171.78369626449347,105.43851085285544,188.33189626449348,89.43761085285544,216.99789626449348C82.34931085285544,229.66289626449347,63.534050852855444,263.3068962644935,67.62546185285544,309.7718962644935C72.13384085285544,360.48389626449347,102.02461085285545,409.5288962644935,156.51601085285546,455.70789626449346C161.72801085285545,462.1438962644935,169.23281085285544,483.09689626449347,172.93381085285546,493.2858962644935C178.27581085285544,507.98389626449347,182.86281085285543,520.6748962644934,189.89881085285543,531.0988962644935C189.89881085285543,531.0988962644935,192.50481085285543,535.1118962644935,192.50481085285543,535.1118962644935C192.50481085285543,535.1118962644935,195.91881085285544,538.5518962644935,195.91881085285544,538.5518962644935C210.53781085285544,553.3798962644935,231.62081085285544,559.6868962644935,266.28081085285544,559.6868962644935C272.03981085285545,559.6868962644935,281.6298108528555,559.4518962644935,294.0868108528555,558.3578962644935C268.72981085285545,633.3578962644934,281.68181085285545,720.9198962644934,332.65481085285546,818.6448962644935C332.65481085285546,818.6448962644935,333.93181085285545,821.0948962644935,333.93181085285545,821.0948962644935C333.93181085285545,821.0948962644935,335.44381085285545,823.3618962644935,335.44381085285545,823.3618962644935C396.26781085285546,915.0408962644934,517.6288108528554,950.0658962644935,584.3688108528554,951.2118962644935C591.1958108528554,951.2118962644935,598.1018108528555,951.3948962644935,604.8778108528554,951.3948962644935C714.3108108528554,951.3948962644935,797.1408108528555,905.2668962644934,890.4698108528554,857.4128962644935C899.8958108528554,852.5798962644934,896.3928108528554,838.0598962644934,885.7998108528554,838.0598962644934C820.5608108528554,838.0598962644934,704.2708108528554,838.0598962644934,704.2708108528554,838.0598962644934C689.4158108528554,838.0598962644934,650.4568108528555,831.3618962644935,626.4558108528554,822.0848962644934C623.5368108528554,820.1298962644935,614.7288108528554,812.0778962644935,602.5328108528554,793.7838962644935C595.6698108528554,783.5638962644935,589.6058108528555,772.8308962644935,584.3948108528555,761.6778962644935C583.7238108528554,757.7908962644934,583.7948108528554,753.8118962644935,584.6028108528554,749.9508962644935C586.5748108528554,753.3208962644935,588.7508108528555,756.5668962644935,591.1178108528554,759.6708962644934C599.0278108528554,770.3148962644934,609.3448108528554,778.9328962644935,621.2258108528555,784.8218962644935C633.1068108528555,790.7098962644934,646.2138108528554,793.7008962644935,659.4738108528554,793.5488962644935C664.1548108528555,793.5388962644935,668.8308108528554,793.2078962644935,673.4678108528555,792.5588962644935C695.0448108528554,789.5098962644935,713.4438108528554,782.6558962644934,727.4118108528554,772.6488962644935C747.6168108528555,782.2508962644935,769.6468108528554,787.4048962644935,792.0148108528555,787.7638962644935C797.3208108528554,787.7678962644935,802.6218108528554,787.4288962644935,807.8848108528555,786.7478962644934C807.8848108528555,786.7478962644934,809.7088108528554,786.5128962644935,809.7088108528554,786.5128962644935C809.7088108528554,786.5128962644935,811.5068108528554,786.1478962644935,811.5068108528554,786.1478962644935C854.1678108528555,777.5488962644935,891.0948108528554,747.7878962644935,918.3528108528554,700.1498962644935C934.8788108528554,670.3398962644935,946.7688108528555,638.1868962644935,953.6118108528555,604.7968962644935C961.1698108528554,566.3578962644935,956.7138108528554,536.8058962644934,940.3738108528554,516.9218962644934C934.7878108528555,510.03689626449346,927.7438108528554,504.4758962644935,919.7498108528555,500.64089626449345C911.7558108528555,496.80589626449347,903.0098108528555,494.79189626449346,894.1438108528555,494.7448962644935C887.0238108528555,494.74189626449345,879.9608108528554,496.0218962644935,873.2958108528554,498.5238962644935C872.8788108528554,497.58589626449344,872.4618108528555,496.67389626449346,872.0188108528555,495.7358962644935C868.5008108528555,488.4908962644935,863.0798108528554,476.97189626449347,857.3208108528554,464.7498962644935C830.7138108528554,408.38289626449347,829.3058108528554,405.82889626449344,824.4588108528554,399.59989626449345C824.4588108528554,399.59989626449345,824.3028108528555,399.4178962644935,824.3028108528555,399.4178962644935C825.1628108528555,385.4498962644935,829.5148108528555,365.22689626449346,842.5448108528554,338.48989626449344C842.5448108528554,338.48989626449344,842.8048108528554,337.9418962644935,842.8048108528554,337.9418962644935C842.8048108528554,337.9418962644935,843.0398108528555,337.39489626449347,843.0398108528555,337.39489626449347C860.0828108528555,300.23389626449347,838.7138108528554,255.46189626449348,817.7878108528555,224.47689626449346C793.2128108528555,187.99289626449348,759.4138108528555,156.72099626449346,725.0398108528555,138.47899626449345C725.0398108528555,138.47899626449345,724.5448108528554,138.21849626449347,724.5448108528554,138.21849626449347C724.5448108528554,138.21849626449347,724.0498108528554,137.95779626449348,724.0498108528554,137.95779626449348C709.6038108528554,130.88549626449347,693.6948108528554,127.31449626449347,677.6108108528555,127.53379626449347C641.5698108528554,127.53379626449347,608.6308108528555,142.20549626449346,592.2128108528555,150.98779626449345C583.9848108528554,155.33069626449347,576.0848108528555,160.26929626449345,568.5758108528555,165.76389626449347C507.64781085285546,131.46889626449348,399.81181085285544,71.94789626449347,314.75181085285544,71.94789626449347C314.75181085285544,71.94789626449347,314.5178108528554,72.07816426449347,314.5178108528554,72.07816426449347Z" fill="#323232" fill-opacity="1"/></g></g></g></svg>