<svg xmlns="http://www.w3.org/2000/svg" xmlns:xlink="http://www.w3.org/1999/xlink" fill="none" version="1.1" width="1024" height="1024" viewBox="0 0 1024 1024"><defs><clipPath id="master_svg0_0_86"><rect x="0" y="0" width="1024" height="1024" rx="0"/></clipPath></defs><g clip-path="url(#master_svg0_0_86)"><rect x="0" y="0" width="1024" height="1024" rx="0" fill="#FFFFFF" fill-opacity="1"/><g><g transform="matrix(-0.5000001192092896,0.8660253286361694,-0.866025447845459,-0.4999999701976776,706.6798655366001,72.38989881411453)"><path d="M478.20874902343746,222.3229312988281Q454.98474902343753,212.49983129882813,429.6015490234375,212.49983129882813Q404.2183490234375,212.49983129882813,380.9939490234375,222.3229312988281Q358.5828490234375,231.80204129882813,341.3158890234375,249.06898129882813Q324.0489490234375,266.33593129882814,314.5698490234375,288.7470312988281Q304.7467490234375,311.9714312988281,304.7467490234375,337.3546312988281Q304.7467490234375,362.73783129882816,314.5698490234375,385.9618312988281Q324.0489490234375,408.3738312988281,341.3158890234375,425.6398312988281Q358.5828490234375,442.90683129882814,380.9939490234375,452.38683129882816Q404.2183490234375,462.20983129882814,429.6015490234375,462.20983129882814Q454.98474902343753,462.20983129882814,478.20874902343746,452.38683129882816Q500.6207490234375,442.90683129882814,517.8867490234375,425.6398312988281Q535.1537490234375,408.37283129882815,544.6327490234376,385.9618312988281Q554.4567490234375,362.73783129882816,554.4567490234375,337.3546312988281Q554.4567490234375,311.9714312988281,544.6327490234376,288.7470312988281Q535.1537490234375,266.33593129882814,517.8867490234375,249.06898129882813Q500.6207490234375,231.80206129882814,478.20874902343746,222.3229312988281ZM402.57194902343747,273.33913129882814Q415.4509490234375,267.89183129882815,429.6015490234375,267.89183129882815Q443.75174902343747,267.89183129882815,456.6307490234375,273.33913129882814Q469.0917490234375,278.60953129882813,478.7187490234375,288.23703129882813Q488.3467490234375,297.8644312988281,493.6167490234375,310.3250312988281Q499.0647490234375,323.20413129882814,499.0647490234375,337.3546312988281Q499.0647490234375,351.5048312988281,493.6167490234375,364.3838312988281Q488.3467490234375,376.8448312988281,478.7187490234375,386.47183129882814Q469.0917490234375,396.0998312988281,456.6307490234375,401.3698312988281Q443.75174902343747,406.81783129882814,429.6015490234375,406.81783129882814Q415.4510490234375,406.81783129882814,402.57194902343747,401.3698312988281Q390.1112490234375,396.0998312988281,380.4839490234375,386.47183129882814Q370.8565490234375,376.8448312988281,365.5860490234375,364.3838312988281Q360.1387490234375,351.5048312988281,360.1387490234375,337.3546312988281Q360.1387490234375,323.20413129882814,365.5860490234375,310.3250312988281Q370.8564490234375,297.8644312988281,380.4839490234375,288.23703129882813Q390.11134902343747,278.60953129882813,402.57194902343747,273.33913129882814Z" fill-rule="evenodd" fill="#323232" fill-opacity="1"/></g><g transform="matrix(-0.5000001192092896,0.8660253286361694,-0.866025447845459,-0.4999999701976776,2052.952197639541,240.67269909045353)"><path d="M1102.7658168945313,695.0996341796875Q1079.5418168945312,685.2765341796875,1054.1586168945312,685.2765341796875Q1028.7754168945312,685.2765341796875,1005.5510168945312,695.0996341796875Q983.1399168945312,704.5787441796875,965.8729568945313,721.8456841796875Q948.6060168945312,739.1126341796875,939.1269168945313,761.5237341796875Q929.3038168945312,784.7481341796874,929.3038168945312,810.1313341796875Q929.3038168945312,835.5145341796875,939.1269168945313,858.7385341796875Q948.6060168945312,881.1505341796875,965.8729568945313,898.4165341796875Q983.1399168945312,915.6835341796875,1005.5510168945312,925.1635341796875Q1028.7754168945312,934.9865341796875,1054.1586168945312,934.9865341796875Q1079.5418168945312,934.9865341796875,1102.7658168945313,925.1635341796875Q1125.1778168945311,915.6835341796875,1142.4438168945312,898.4165341796875Q1159.7108168945313,881.1495341796875,1169.1898168945313,858.7385341796875Q1179.0138168945314,835.5145341796875,1179.0138168945314,810.1313341796875Q1179.0138168945314,784.7481341796874,1169.1898168945313,761.5237341796875Q1159.7108168945313,739.1126341796875,1142.4438168945312,721.8456841796875Q1125.1778168945311,704.5787641796875,1102.7658168945313,695.0996341796875ZM1027.1290168945313,746.1158341796875Q1040.0080168945312,740.6685341796875,1054.1586168945312,740.6685341796875Q1068.3088168945312,740.6685341796875,1081.1878168945314,746.1158341796875Q1093.6488168945311,751.3862341796874,1103.2758168945313,761.0137341796875Q1112.9038168945312,770.6411341796875,1118.1738168945312,783.1017341796875Q1123.6218168945313,795.9808341796875,1123.6218168945313,810.1313341796875Q1123.6218168945313,824.2815341796875,1118.1738168945312,837.1605341796875Q1112.9038168945312,849.6215341796875,1103.2758168945313,859.2485341796876Q1093.6488168945311,868.8765341796875,1081.1878168945314,874.1465341796875Q1068.3088168945312,879.5945341796876,1054.1586168945312,879.5945341796876Q1040.0081168945312,879.5945341796876,1027.1290168945313,874.1465341796875Q1014.6683168945312,868.8765341796875,1005.0410168945313,859.2485341796876Q995.4136168945313,849.6215341796875,990.1431168945312,837.1605341796875Q984.6958168945313,824.2815341796875,984.6958168945313,810.1313341796875Q984.6958168945313,795.9808341796875,990.1431168945312,783.1017341796875Q995.4135168945312,770.6411341796875,1005.0410168945313,761.0137341796875Q1014.6684168945312,751.3862341796874,1027.1290168945313,746.1158341796875Z" fill-rule="evenodd" fill="#323232" fill-opacity="1"/></g><g transform="matrix(-0.5000001192092896,0.8660253286361694,-0.866025447845459,-0.4999999701976776,1379.8167293785154,661.3822839109962)"><path d="M644.7497036132812,711.1369876953125Q621.5257036132813,701.3138876953125,596.1425036132813,701.3138876953125Q570.7593036132812,701.3138876953125,547.5349036132812,711.1369876953125Q525.1238036132812,720.6160976953125,507.8568436132812,737.8830376953125Q490.58990361328125,755.1499876953125,481.11080361328123,777.5610876953125Q471.2877036132812,800.7854876953124,471.2877036132812,826.1686876953125Q471.2877036132812,851.5518876953125,481.11080361328123,874.7758876953125Q490.58990361328125,897.1878876953125,507.8568436132812,914.4538876953125Q525.1238036132812,931.7208876953125,547.5349036132812,941.2008876953125Q570.7593036132812,951.0238876953125,596.1425036132813,951.0238876953125Q621.5257036132813,951.0238876953125,644.7497036132812,941.2008876953125Q667.1617036132812,931.7208876953125,684.4277036132812,914.4538876953125Q701.6947036132813,897.1868876953125,711.1737036132813,874.7758876953125Q720.9977036132813,851.5518876953125,720.9977036132813,826.1686876953125Q720.9977036132813,800.7854876953124,711.1737036132813,777.5610876953125Q701.6947036132813,755.1499876953125,684.4277036132812,737.8830376953125Q667.1617036132812,720.6161176953125,644.7497036132812,711.1369876953125ZM569.1129036132812,762.1531876953125Q581.9919036132812,756.7058876953125,596.1425036132813,756.7058876953125Q610.2927036132812,756.7058876953125,623.1717036132812,762.1531876953125Q635.6327036132813,767.4235876953124,645.2597036132813,777.0510876953125Q654.8877036132812,786.6784876953125,660.1577036132812,799.1390876953125Q665.6057036132813,812.0181876953125,665.6057036132813,826.1686876953125Q665.6057036132813,840.3188876953125,660.1577036132812,853.1978876953125Q654.8877036132812,865.6588876953125,645.2597036132813,875.2858876953126Q635.6327036132813,884.9138876953125,623.1717036132812,890.1838876953125Q610.2927036132812,895.6318876953126,596.1425036132813,895.6318876953126Q581.9920036132812,895.6318876953126,569.1129036132812,890.1838876953125Q556.6522036132812,884.9138876953125,547.0249036132813,875.2858876953126Q537.3975036132813,865.6588876953125,532.1270036132812,853.1978876953125Q526.6797036132813,840.3188876953125,526.6797036132813,826.1686876953125Q526.6797036132813,812.0181876953125,532.1270036132812,799.1390876953125Q537.3974036132812,786.6784876953125,547.0249036132813,777.0510876953125Q556.6523036132812,767.4235876953124,569.1129036132812,762.1531876953125Z" fill-rule="evenodd" fill="#323232" fill-opacity="1"/></g><g transform="matrix(-0.5000001192092896,0.8660253286361694,-0.866025447845459,-0.4999999701976776,1379.81716674997,-348.3203170157067)"><path d="M936.2259609375,206.28579140624998Q913.0019609375,196.46269140625,887.6187609375,196.46269140625Q862.2355609374999,196.46269140625,839.0111609375,206.28579140624998Q816.6000609375,215.76490140625,799.3331009375,233.03184140625Q782.0661609375,250.29879140625,772.5870609375,272.70989140625Q762.7639609375,295.93429140625,762.7639609375,321.31749140625Q762.7639609375,346.70069140625003,772.5870609375,369.92469140624996Q782.0661609375,392.33669140625,799.3331009375,409.60269140624996Q816.6000609375,426.86969140625,839.0111609375,436.34969140625003Q862.2355609374999,446.17269140625,887.6187609375,446.17269140625Q913.0019609375,446.17269140625,936.2259609375,436.34969140625003Q958.6379609375,426.86969140625,975.9039609375,409.60269140624996Q993.1709609375,392.33569140625,1002.6499609375,369.92469140624996Q1012.4739609375,346.70069140625003,1012.4739609375,321.31749140625Q1012.4739609375,295.93429140625,1002.6499609375,272.70989140625Q993.1709609375,250.29879140625,975.9039609375,233.03184140625Q958.6379609375,215.76492140625,936.2259609375,206.28579140624998ZM860.5891609375,257.30199140625Q873.4681609375,251.85469140625,887.6187609375,251.85469140625Q901.7689609375,251.85469140625,914.6479609375,257.30199140625Q927.1089609375,262.57239140625,936.7359609375001,272.19989140625Q946.3639609375,281.82729140624997,951.6339609375,294.28789140624997Q957.0819609375001,307.16699140625,957.0819609375001,321.31749140625Q957.0819609375001,335.46769140624997,951.6339609375,348.34669140625Q946.3639609375,360.80769140625,936.7359609375001,370.43469140625Q927.1089609375,380.06269140625,914.6479609375,385.33269140625Q901.7689609375,390.78069140625,887.6187609375,390.78069140625Q873.4682609375,390.78069140625,860.5891609375,385.33269140625Q848.1284609375,380.06269140625,838.5011609375,370.43469140625Q828.8737609375,360.80769140625,823.6032609375,348.34669140625Q818.1559609375,335.46769140624997,818.1559609375,321.31749140625Q818.1559609375,307.16699140625,823.6032609375,294.28789140624997Q828.8736609375,281.82729140624997,838.5011609375,272.19989140625Q848.1285609375,262.57239140625,860.5891609375,257.30199140625Z" fill-rule="evenodd" fill="#323232" fill-opacity="1"/></g><g transform="matrix(-0.5000001192092896,0.8660253286361694,-0.866025447845459,-0.4999999701976776,1211.531438727965,-11.752024965700002)"><path d="M997.793203125,316.1669455566406L609.158203125,316.1669455566406Q608.478305125,316.1669455566406,607.799223125,316.2003455566406Q607.120143125,316.2337455566406,606.443523125,316.30034555664065Q605.766903125,316.36694555664064,605.094363125,316.4667455566406Q604.421823125,316.5665455566406,603.754993125,316.69914555664064Q603.088153125,316.8317455566406,602.428633125,316.99694555664064Q601.769113125,317.1621455566406,601.118483125,317.3595455566406Q600.467863125,317.55694555664064,599.827713125,317.7859455566406Q599.187563125,318.01504555664064,598.559403125,318.27524555664064Q597.931303125,318.5353455566406,597.316603125,318.8260455566406Q596.702003125,319.11674555664064,596.102403125,319.4372455566406Q595.502803125,319.7577455566406,594.919603125,320.1073455566406Q594.336503125,320.45684555664064,593.771103125,320.83454555664065Q593.205803125,321.2123455566406,592.659703125,321.6173455566406Q592.113603125,322.02234555664063,591.588103125,322.4536455566406Q591.062503125,322.8849455566406,590.558703125,323.34154555664065Q590.055003125,323.79814555664063,589.574203125,324.2789455566406Q589.093403125,324.7597455566406,588.636803125,325.26344555664065Q588.180203125,325.7672455566406,587.748903125,326.2928455566406Q587.317603125,326.8183455566406,586.912603125,327.36444555664065Q586.507603125,327.9105455566406,586.129803125,328.47584555664065Q585.752103125,329.0412455566406,585.402603125,329.6243455566406Q585.053003125,330.20754555664064,584.732503125,330.80714555664065Q584.412003125,331.4067455566406,584.121303125,332.02134555664065Q583.830603125,332.6360455566406,583.570503125,333.26414555664064Q583.310303125,333.8923055566406,583.081203125,334.5324555566406Q582.852203125,335.17260555664063,582.654803125,335.82322555664064Q582.457403125,336.4738555566406,582.292203125,337.1333755566406Q582.127003125,337.79289555664064,581.994403125,338.4597355566406Q581.861803125,339.1265655566406,581.762003125,339.7991055566406Q581.662203125,340.4716455566406,581.595603125,341.14826555664064Q581.529003125,341.82488555664065,581.495603125,342.50396555664065Q581.462203125,343.18304755664064,581.462203125,343.8629455566406Q581.462203125,344.5428435566406,581.495603125,345.2219255566406Q581.529003125,345.9010055566406,581.595603125,346.5776255566406Q581.662203125,347.2542455566406,581.762003125,347.92678555664065Q581.861803125,348.5993255566406,581.994403125,349.2661555566406Q582.127003125,349.9329955566406,582.292203125,350.59251555664065Q582.457403125,351.25203555664064,582.654803125,351.9026655566406Q582.852203125,352.5532855566406,583.081203125,353.1934355566406Q583.310303125,353.8335855566406,583.570503125,354.4617455566406Q583.830603125,355.0898455566406,584.121303125,355.7045455566406Q584.412003125,356.31914555664065,584.732503125,356.9187455566406Q585.053003125,357.5183455566406,585.402603125,358.10154555664064Q585.752103125,358.68464555664065,586.129803125,359.2500455566406Q586.507603125,359.81534555664064,586.912603125,360.3614455566406Q587.317603125,360.9075455566406,587.748903125,361.43304555664065Q588.180203125,361.95864555664065,588.636803125,362.4624455566406Q589.093403125,362.96614555664064,589.574203125,363.4469455566406Q590.055003125,363.9277455566406,590.558703125,364.3843455566406Q591.062503125,364.84094555664063,591.588103125,365.27224555664066Q592.113603125,365.7035455566406,592.659703125,366.10854555664065Q593.205803125,366.5135455566406,593.771103125,366.8913455566406Q594.336503125,367.2690455566406,594.919603125,367.61854555664064Q595.502803125,367.96814555664065,596.102403125,368.28864555664063Q596.702003125,368.6091455566406,597.316603125,368.8998455566406Q597.931303125,369.19054555664064,598.559403125,369.4506455566406Q599.187563125,369.7108455566406,599.827713125,369.9399455566406Q600.467863125,370.1689455566406,601.118483125,370.3663455566406Q601.769113125,370.56374555664064,602.428633125,370.7289455566406Q603.088153125,370.89414555664064,603.754993125,371.0267455566406Q604.421823125,371.15934555664063,605.094363125,371.25914555664065Q605.766903125,371.3589455566406,606.443523125,371.4255455566406Q607.120143125,371.49214555664065,607.799223125,371.5255455566406Q608.478305125,371.55894555664065,609.158203125,371.55894555664065L997.793203125,371.55894555664065Q998.473203125,371.55894555664065,999.152203125,371.5255455566406Q999.831203125,371.49214555664065,1000.508203125,371.4255455566406Q1001.1842031250001,371.3589455566406,1001.8572031250001,371.25914555664065Q1002.5302031250001,371.15934555664063,1003.196203125,371.0267455566406Q1003.8632031249999,370.89414555664064,1004.523203125,370.7289455566406Q1005.182203125,370.56374555664064,1005.833203125,370.3663455566406Q1006.484203125,370.1689455566406,1007.124203125,369.9399455566406Q1007.764203125,369.7108455566406,1008.3922031249999,369.4506455566406Q1009.0202031250001,369.19054555664064,1009.635203125,368.8998455566406Q1010.249203125,368.6091455566406,1010.849203125,368.28864555664063Q1011.4492031249999,367.96814555664065,1012.032203125,367.61854555664064Q1012.615203125,367.2690455566406,1013.1802031249999,366.8913455566406Q1013.746203125,366.5135455566406,1014.292203125,366.10854555664065Q1014.8382031250001,365.7035455566406,1015.3632031249999,365.27224555664066Q1015.889203125,364.84094555664063,1016.393203125,364.3843455566406Q1016.896203125,363.9277455566406,1017.377203125,363.4469455566406Q1017.858203125,362.96614555664064,1018.314203125,362.4624455566406Q1018.771203125,361.95864555664065,1019.202203125,361.43304555664065Q1019.634203125,360.9075455566406,1020.039203125,360.3614455566406Q1020.4442031250001,359.81534555664064,1020.822203125,359.2500455566406Q1021.1992031249999,358.68464555664065,1021.5492031250001,358.10154555664064Q1021.898203125,357.5183455566406,1022.2192031249999,356.9187455566406Q1022.539203125,356.31914555664065,1022.830203125,355.7045455566406Q1023.121203125,355.0898455566406,1023.381203125,354.4617455566406Q1023.641203125,353.8335855566406,1023.870203125,353.1934355566406Q1024.099203125,352.5532855566406,1024.2972031250001,351.9026655566406Q1024.494203125,351.25203555664064,1024.659203125,350.59251555664065Q1024.824203125,349.9329955566406,1024.957203125,349.2661555566406Q1025.090203125,348.5993255566406,1025.189203125,347.92678555664065Q1025.2892031249999,347.2542455566406,1025.3562031249999,346.5776255566406Q1025.4222031250001,345.9010055566406,1025.456203125,345.2219255566406Q1025.4892031250001,344.5428435566406,1025.4892031250001,343.8629455566406Q1025.4892031250001,343.18304755664064,1025.456203125,342.50396555664065Q1025.4222031250001,341.82488555664065,1025.3562031249999,341.14826555664064Q1025.2892031249999,340.4716455566406,1025.189203125,339.7991055566406Q1025.090203125,339.1265655566406,1024.957203125,338.4597355566406Q1024.824203125,337.79289555664064,1024.659203125,337.1333755566406Q1024.494203125,336.4738555566406,1024.2972031250001,335.82322555664064Q1024.099203125,335.17260555664063,1023.870203125,334.5324555566406Q1023.641203125,333.8923055566406,1023.381203125,333.26414555664064Q1023.121203125,332.6360455566406,1022.830203125,332.02134555664065Q1022.539203125,331.4067455566406,1022.2192031249999,330.80714555664065Q1021.898203125,330.20754555664064,1021.5492031250001,329.6243455566406Q1021.1992031249999,329.0412455566406,1020.822203125,328.47584555664065Q1020.4442031250001,327.9105455566406,1020.039203125,327.36444555664065Q1019.634203125,326.8183455566406,1019.202203125,326.2928455566406Q1018.771203125,325.7672455566406,1018.314203125,325.26344555664065Q1017.858203125,324.7597455566406,1017.377203125,324.2789455566406Q1016.896203125,323.79814555664063,1016.393203125,323.34154555664065Q1015.889203125,322.8849455566406,1015.3632031249999,322.4536455566406Q1014.8382031250001,322.02234555664063,1014.292203125,321.6173455566406Q1013.746203125,321.2123455566406,1013.1802031249999,320.83454555664065Q1012.615203125,320.45684555664064,1012.032203125,320.1073455566406Q1011.4492031249999,319.7577455566406,1010.849203125,319.4372455566406Q1010.249203125,319.11674555664064,1009.635203125,318.8260455566406Q1009.0202031250001,318.5353455566406,1008.3922031249999,318.27524555664064Q1007.764203125,318.01504555664064,1007.124203125,317.7859455566406Q1006.484203125,317.55694555664064,1005.833203125,317.3595455566406Q1005.182203125,317.1621455566406,1004.523203125,316.99694555664064Q1003.8632031249999,316.8317455566406,1003.196203125,316.69914555664064Q1002.5302031250001,316.5665455566406,1001.8572031250001,316.4667455566406Q1001.1842031250001,316.36694555664064,1000.508203125,316.30034555664065Q999.831203125,316.2337455566406,999.152203125,316.2003455566406Q998.473203125,316.1669455566406,997.793203125,316.1669455566406Z" fill-rule="evenodd" fill="#323232" fill-opacity="1"/></g><g transform="matrix(-0.5000001192092896,0.8660253286361694,-0.866025447845459,-0.4999999701976776,1758.4557534723208,-53.82345021661513)"><path d="M1067.4563198242188,463.4091628417969L873.1384198242188,706.3066628417969Q872.7137198242187,706.8366628417969,872.3155198242188,707.3886628417969Q871.9173198242188,707.9396628417969,871.5467198242187,708.5096628417969Q871.1760198242188,709.0796628417969,870.8338198242187,709.6666628417969Q870.4916198242188,710.2546628417969,870.1786198242188,710.8576628417968Q869.8656198242187,711.4616628417969,869.5826198242188,712.0796628417969Q869.2996198242188,712.6976628417968,869.0473198242188,713.3286628417968Q868.7949198242187,713.9606628417969,868.5739198242187,714.6036628417969Q868.3529198242187,715.2466628417969,868.1636198242187,715.8996628417968Q867.9744198242188,716.5526628417969,867.8174198242187,717.2136628417968Q867.6605198242188,717.8756628417968,867.5362198242187,718.5436628417968Q867.4119198242188,719.2126628417968,867.3205198242188,719.8856628417968Q867.2292198242187,720.5596628417968,867.1710198242188,721.2376628417969Q867.1128198242187,721.9146628417968,867.0879198242187,722.5936628417969Q867.0630198242187,723.2736628417969,867.0715198242187,723.9536628417968Q867.0800198242188,724.6336628417969,867.1218198242187,725.3116628417969Q867.1636198242187,725.9906628417968,867.2387198242187,726.6666628417969Q867.3138198242187,727.3416628417968,867.4220198242188,728.0126628417969Q867.5301198242188,728.6846628417968,867.6711198242187,729.3496628417969Q867.8120198242187,730.0146628417968,867.9854198242188,730.6716628417969Q868.1589198242187,731.3296628417969,868.3643198242188,731.9776628417969Q868.5698198242187,732.6256628417968,868.8068198242188,733.2626628417969Q869.0439198242187,733.9006628417969,869.3119198242188,734.5246628417968Q869.5799198242188,735.1496628417968,869.8782198242187,735.7606628417968Q870.1765198242188,736.3716628417969,870.5045198242187,736.9676628417969Q870.8325198242187,737.5626628417969,871.1893198242187,738.1416628417969Q871.5460198242188,738.7206628417969,871.9308198242187,739.2806628417968Q872.3156198242187,739.8416628417968,872.7274198242187,740.3826628417969Q873.1392198242188,740.9236628417968,873.5770198242187,741.4436628417968Q874.0149198242187,741.9636628417968,874.4777198242188,742.4616628417969Q874.9405198242188,742.9596628417969,875.4273198242188,743.4346628417968Q875.9140198242187,743.909662841797,876.4234198242187,744.3596628417969Q876.9329198242187,744.8096628417968,877.4638198242187,745.2346628417969Q877.9947198242187,745.659662841797,878.5458198242187,746.0576628417969Q879.0969198242187,746.4556628417969,879.6669198242188,746.8266628417969Q880.2369198242187,747.1966628417969,880.8244198242187,747.5396628417968Q881.4118198242187,747.8816628417969,882.0154198242187,748.1946628417968Q882.6190198242188,748.5076628417969,883.2372198242188,748.7906628417968Q883.8554198242188,749.0736628417969,884.4867198242188,749.3256628417969Q885.1180898242187,749.5776628417968,885.7610598242187,749.7986628417968Q886.4040198242187,750.0196628417968,887.0570498242188,750.2096628417969Q887.7100898242187,750.3986628417969,888.3716198242188,750.5556628417969Q889.0331498242188,750.7126628417968,889.7015898242188,750.8366628417969Q890.3700298242187,750.9606628417969,891.0437598242188,751.0526628417969Q891.7174898242188,751.1436628417969,892.3948998242188,751.2016628417969Q893.0722998242187,751.2606628417968,893.7517398242187,751.284662841797Q894.4311848242188,751.3096628417968,895.1110298242188,751.3016628417969Q895.7908798242188,751.2926628417969,896.4694798242188,751.2506628417968Q897.1480898242188,751.2096628417969,897.8238298242187,751.1346628417969Q898.4995698242187,751.0586628417968,899.1708098242187,750.9506628417969Q899.8420598242187,750.8426628417969,900.5071798242187,750.7016628417969Q901.1723098242187,750.5606628417969,901.8297198242187,750.3876628417969Q902.4871298242188,750.2136628417968,903.1352298242188,750.0086628417969Q903.7833398242187,749.803662841797,904.4205798242187,749.5666628417969Q905.0578198242188,749.3286628417968,905.6827198242188,749.0606628417969Q906.3075198242187,748.7926628417969,906.9184198242187,748.4946628417969Q907.5294198242187,748.1966628417969,908.1250198242187,747.8686628417969Q908.7205198242187,747.5406628417968,909.2993198242187,747.1836628417968Q909.8780198242188,746.8266628417969,910.4386198242188,746.4426628417968Q910.9992198242187,746.0576628417969,911.5402198242188,745.6456628417968Q912.0812198242188,745.2336628417969,912.6013198242188,744.7956628417969Q913.1214198242187,744.3576628417968,913.6195198242187,743.8956628417968Q914.1175198242188,743.4326628417969,914.5922198242188,742.9456628417969Q915.0670198242187,742.4586628417969,915.5172198242187,741.9496628417969Q915.9675198242187,741.4396628417969,916.3922198242187,740.909662841797L1110.7103198242187,498.01216284179685Q1111.1343198242187,497.4812628417969,1111.5323198242188,496.93016284179686Q1111.9313198242187,496.3790628417969,1112.3013198242188,495.8090628417969Q1112.6723198242187,495.23906284179685,1113.0143198242188,494.6515628417969Q1113.3563198242186,494.0641628417969,1113.6693198242187,493.4605628417969Q1113.9823198242188,492.85696284179687,1114.2653198242188,492.23876284179687Q1114.5483198242187,491.62056284179687,1114.8013198242188,490.98926284179686Q1115.0533198242188,490.35789284179685,1115.2743198242188,489.71492284179686Q1115.4953198242188,489.0719628417969,1115.6843198242188,488.4189328417969Q1115.8733198242187,487.76589284179687,1116.0303198242186,487.1043628417969Q1116.1873198242188,486.44283284179687,1116.3123198242188,485.7743928417969Q1116.4363198242188,485.10595284179686,1116.5273198242187,484.4322228417969Q1116.6193198242188,483.75849284179685,1116.6773198242188,483.0810928417969Q1116.7353198242188,482.40368284179686,1116.7603198242186,481.72424284179687Q1116.7853198242187,481.04480184179687,1116.7763198242187,480.36495684179687Q1116.7683198242187,479.68511284179687,1116.7263198242188,479.0065028417969Q1116.6843198242188,478.3278928417969,1116.6093198242188,477.65215284179686Q1116.5343198242188,476.9764128417969,1116.4263198242188,476.3051728417969Q1116.3183198242186,475.6339328417969,1116.1773198242188,474.9688028417969Q1116.0363198242187,474.3036828417969,1115.8623198242187,473.6462728417969Q1115.6893198242187,472.9888628417969,1115.4843198242188,472.34075284179687Q1115.2783198242187,471.6926428417969,1115.0413198242188,471.0554028417969Q1114.8043198242187,470.41816284179686,1114.5363198242187,469.7932628417969Q1114.2683198242187,469.1684628417969,1113.9703198242187,468.5575628417969Q1113.6713198242187,467.9465628417969,1113.3433198242187,467.3509628417969Q1113.0153198242188,466.7554628417969,1112.6593198242188,466.1766628417969Q1112.3023198242188,465.59796284179686,1111.9173198242188,465.0373628417969Q1111.5323198242188,464.47676284179687,1111.1203198242188,463.9357628417969Q1110.7093198242187,463.3947628417969,1110.2713198242188,462.87466284179686Q1109.8333198242187,462.35456284179685,1109.3703198242188,461.8564628417969Q1108.9073198242188,461.3584628417969,1108.4213198242187,460.88376284179685Q1107.9343198242188,460.4089628417969,1107.4243198242189,459.9587628417969Q1106.9153198242188,459.50846284179687,1106.3843198242187,459.0837628417969Q1105.8533198242187,458.65906284179687,1105.3023198242188,458.2608628417969Q1104.7513198242186,457.86266284179686,1104.1813198242187,457.4920628417969Q1103.6113198242188,457.1213628417969,1103.0243198242188,456.77916284179685Q1102.4363198242188,456.43696284179686,1101.8323198242188,456.12396284179687Q1101.2293198242187,455.8109628417969,1100.6113198242188,455.52796284179686Q1099.9923198242188,455.2449628417969,1099.3613198242188,454.99266284179686Q1098.7303198242187,454.7402628417969,1098.0873198242189,454.5192628417969Q1097.4443198242188,454.2982628417969,1096.7913198242188,454.1089628417969Q1096.1383198242188,453.91976284179685,1095.4763198242188,453.76276284179687Q1094.8153198242187,453.60586284179686,1094.1463198242188,453.48156284179686Q1093.4783198242187,453.35726284179685,1092.8043198242187,453.2658628417969Q1092.1303198242188,453.1745628417969,1091.4533198242189,453.1163628417969Q1090.7763198242187,453.0581628417969,1090.0963198242187,453.0332628417969Q1089.4173198242188,453.0083628417969,1088.7373198242187,453.01686284179686Q1088.0573198242187,453.0253628417969,1087.3783198242188,453.06716284179686Q1086.7003198242187,453.1089628417969,1086.0243198242188,453.1840628417969Q1085.3483198242188,453.25916284179686,1084.6773198242188,453.3673628417969Q1084.0063198242187,453.47546284179685,1083.3413198242188,453.6164628417969Q1082.6763198242188,453.75736284179686,1082.0183198242187,453.9307628417969Q1081.3613198242188,454.10426284179687,1080.7133198242188,454.30966284179686Q1080.0653198242187,454.5151628417969,1079.4273198242188,454.75216284179686Q1078.7903198242188,454.98926284179686,1078.1653198242188,455.2572628417969Q1077.5403198242188,455.52526284179686,1076.9293198242187,455.8235628417969Q1076.3183198242186,456.1218628417969,1075.7233198242188,456.44986284179686Q1075.1273198242188,456.7778628417969,1074.5493198242189,457.13466284179685Q1073.9703198242187,457.4913628417969,1073.4093198242188,457.8761628417969Q1072.8493198242188,458.26096284179687,1072.3083198242189,458.6727628417969Q1071.7673198242187,459.08456284179687,1071.2473198242187,459.52236284179685Q1070.7263198242188,459.96026284179686,1070.2283198242187,460.4230628417969Q1069.7303198242187,460.8858628417969,1069.2563198242187,461.37266284179685Q1068.7813198242188,461.8593628417969,1068.3313198242188,462.36876284179687Q1067.8803198242188,462.87826284179687,1067.4563198242188,463.4091628417969Z" fill-rule="evenodd" fill="#323232" fill-opacity="1"/></g><g transform="matrix(-0.5000001192092896,0.8660253286361694,-0.866025447845459,-0.4999999701976776,1085.319038363872,366.80341941655934)"><path d="M415.1466609375,722.300298828125L609.4914609375,479.403298828125L652.7424609375,514.009298828125L458.3982609375,756.906298828125L415.1466609375,722.300298828125Z" fill-rule="evenodd" fill="#323232" fill-opacity="1"/></g></g></g></svg>