<svg xmlns="http://www.w3.org/2000/svg" xmlns:xlink="http://www.w3.org/1999/xlink" fill="none" version="1.1" width="1024" height="1024" viewBox="0 0 1024 1024"><defs><clipPath id="master_svg0_0_112"><rect x="0" y="0" width="1024" height="1024" rx="0"/></clipPath><clipPath id="master_svg1_0_115"><rect x="292" y="608" width="306" height="306" rx="0"/></clipPath></defs><g clip-path="url(#master_svg0_0_112)"><rect x="0" y="0" width="1024" height="1024" rx="0" fill="#FFFFFF" fill-opacity="1"/><g><g><path d="M757.896,556.657C757.896,556.657,920.926,368.509,920.926,368.509C920.926,368.509,920.934,368.5,920.949,368.482C958.177,325.519,917.56,260.278,862.564,274.66999999999996C862.582,274.666,862.564,274.66999999999996,862.564,274.66999999999996C862.564,274.66999999999996,631.148,335.22,631.148,335.22C631.148,335.22,521.618,155.849,521.618,155.849C521.618,155.849,521.61,155.836,521.594,155.81C493.89599999999996,110.454,424.757,123.3795,415.315,175.725C415.317,175.71,415.315,175.725,415.315,175.725C415.315,175.725,373.24,409.02,373.24,409.02C373.24,409.02,136.907,482.685,136.907,482.685C136.907,482.685,136.892,482.69,136.861,482.7C84.873,498.906,82.09,571.512,132.731,591.664C132.716,591.658,132.731,591.664,132.731,591.664C132.731,591.664,272.893,647.432,272.893,647.432C272.893,647.432,279.355,650.005,285.869,652.598C294.252,655.936,303.735,655.144,311.473,650.5C331.926,638.226,329.523,607.71,307.277,598.858C245.81900000000002,574.402,154.117,537.9110000000001,154.117,537.9110000000001C154.117,537.9110000000001,423.947,453.807,423.947,453.807C423.947,453.807,472.249,185.993,472.249,185.993C472.249,185.993,604.195,402.07,604.195,402.07C604.195,402.07,877.206,330.629,877.206,330.629C877.206,330.629,688.2,548.757,688.2,548.757C688.2,548.757,807.365,773.069,807.365,773.069C807.365,773.069,717.812,748.62,659.244,732.631C637.487,726.691,617.59,746.783,623.809,768.462C626.597,778.182,634.247,785.771,643.994,788.432C684.981,799.621,792.135,828.873,792.135,828.873C792.135,828.873,792.148,828.877,792.173,828.884C841.072,842.231,882.232,790.688,858.451,745.926C858.457,745.938,858.451,745.926,858.451,745.926C858.451,745.926,757.896,556.657,757.896,556.657Z" fill="#323232" fill-opacity="1"/></g><g clip-path="url(#master_svg1_0_115)"><g><path d="M461.40867614746094,867.6562936035157C461.40867614746094,870.5574936035156,462.5611761474609,873.3399936035156,464.61265614746094,875.3913936035157C466.66413614746097,877.4428936035156,469.4465561474609,878.5953936035156,472.34777614746093,878.5953936035156C475.24897614746095,878.5953936035156,478.0314761474609,877.4428936035156,480.0828761474609,875.3913936035157C482.13437614746096,873.3399936035156,483.28687614746093,870.5574936035156,483.28687614746093,867.6562936035157C483.28687614746093,864.7550736035156,482.13437614746096,861.9726536035156,480.0828761474609,859.9211736035156C478.0314761474609,857.8696936035157,475.24897614746095,856.7171936035156,472.34777614746093,856.7171936035156C469.4465561474609,856.7171936035156,466.66413614746097,857.8696936035157,464.61265614746094,859.9211736035156C462.5611761474609,861.9726536035156,461.40867614746094,864.7550736035156,461.40867614746094,867.6562936035157Z" fill="#323233" fill-opacity="1"/></g><g><path d="M406.71312713623047,654.3437020507813C406.71312713623047,657.2449020507812,407.86562713623044,660.0274020507812,409.91710713623047,662.0788020507813C411.9685871362305,664.1303020507812,414.75100713623044,665.2828020507812,417.65222713623047,665.2828020507812C420.5534271362305,665.2828020507812,423.33592713623045,664.1303020507812,425.38732713623045,662.0788020507813C427.4388271362305,660.0274020507812,428.59132713623046,657.2449020507812,428.59132713623046,654.3437020507813C428.59132713623046,651.4424820507812,427.4388271362305,648.6600620507812,425.38732713623045,646.6085820507813C423.33592713623045,644.5571020507813,420.5534271362305,643.4046020507812,417.65222713623047,643.4046020507812C414.75100713623044,643.4046020507812,411.9685871362305,644.5571020507813,409.91710713623047,646.6085820507813C407.86562713623044,648.6600620507812,406.71312713623047,651.4424820507812,406.71312713623047,654.3437020507813Z" fill="#323233" fill-opacity="1"/></g><g><path d="M563.506506428957,678.956706428957C563.506506428957,678.956706428957,527.043506428957,678.956706428957,527.043506428957,678.956706428957C527.043506428957,678.956706428957,527.043506428957,642.493006428957,527.043506428957,642.493006428957C527.043506428957,623.386006428957,511.509506428957,607.852506428957,492.402506428957,607.852506428957C492.402506428957,607.852506428957,397.597506428957,607.852506428957,397.597506428957,607.852506428957C378.490206428957,607.852506428957,362.956706428957,623.386006428957,362.956706428957,642.493006428957C362.956706428957,642.493006428957,362.956706428957,678.956706428957,362.956706428957,678.956706428957C362.956706428957,678.956706428957,326.49300642895696,678.956706428957,326.49300642895696,678.956706428957C307.386006428957,678.956706428957,291.852506428957,694.490206428957,291.852506428957,713.597506428957C291.852506428957,713.597506428957,291.852506428957,808.4025064289569,291.852506428957,808.4025064289569C291.852506428957,827.509506428957,307.386006428957,843.043506428957,326.49300642895696,843.043506428957C326.49300642895696,843.043506428957,362.956706428957,843.043506428957,362.956706428957,843.043506428957C362.956706428957,843.043506428957,362.956706428957,879.506506428957,362.956706428957,879.506506428957C362.956706428957,898.613506428957,378.490206428957,914.1475064289571,397.597506428957,914.1475064289571C397.597506428957,914.1475064289571,492.402506428957,914.1475064289571,492.402506428957,914.1475064289571C511.509506428957,914.1475064289571,527.043506428957,898.613506428957,527.043506428957,879.506506428957C527.043506428957,879.506506428957,527.043506428957,843.043506428957,527.043506428957,843.043506428957C527.043506428957,843.043506428957,563.506506428957,843.043506428957,563.506506428957,843.043506428957C582.613506428957,843.043506428957,598.1475064289571,827.509506428957,598.1475064289571,808.4025064289569C598.1475064289571,808.4025064289569,598.1475064289571,713.597506428957,598.1475064289571,713.597506428957C598.1475064289571,694.490206428957,582.613506428957,678.956706428957,563.506506428957,678.956706428957ZM326.49300642895696,821.165506428957C319.455506428957,821.165506428957,313.730706428957,815.440506428957,313.730706428957,808.4025064289569C313.730706428957,808.4025064289569,313.730706428957,713.597506428957,313.730706428957,713.597506428957C313.730706428957,706.559706428957,319.455506428957,700.834906428957,326.49300642895696,700.834906428957C326.49300642895696,700.834906428957,433.149506428957,700.834906428957,433.149506428957,700.834906428957C439.202506428957,700.834906428957,444.088506428957,695.948806428957,444.088506428957,689.895806428957C444.088506428957,683.842806428957,439.202506428957,678.956706428957,433.149506428957,678.956706428957C433.149506428957,678.956706428957,384.83490642895697,678.956706428957,384.83490642895697,678.956706428957C384.83490642895697,678.956706428957,384.83490642895697,642.493006428957,384.83490642895697,642.493006428957C384.83490642895697,635.4555064289569,390.559706428957,629.730706428957,397.597506428957,629.730706428957C397.597506428957,629.730706428957,492.402506428957,629.730706428957,492.402506428957,629.730706428957C499.44050642895695,629.730706428957,505.165506428957,635.4555064289569,505.165506428957,642.493006428957C505.165506428957,642.493006428957,505.165506428957,740.689506428957,505.165506428957,740.689506428957C505.165506428957,745.867506428957,500.971506428957,750.060506428957,495.793506428957,750.060506428957C495.793506428957,750.060506428957,394.20650642895697,750.060506428957,394.20650642895697,750.060506428957C376.958706428957,750.060506428957,362.956706428957,764.099506428957,362.956706428957,781.310506428957C362.956706428957,781.310506428957,362.956706428957,821.165506428957,362.956706428957,821.165506428957C362.956706428957,821.165506428957,326.49300642895696,821.165506428957,326.49300642895696,821.165506428957ZM576.2695064289569,808.4025064289569C576.2695064289569,815.440506428957,570.544506428957,821.165506428957,563.506506428957,821.165506428957C563.506506428957,821.165506428957,456.850506428957,821.165506428957,456.850506428957,821.165506428957C450.797506428957,821.165506428957,445.91150642895695,826.051506428957,445.91150642895695,832.1045064289569C445.91150642895695,838.157506428957,450.797506428957,843.043506428957,456.850506428957,843.043506428957C456.850506428957,843.043506428957,505.165506428957,843.043506428957,505.165506428957,843.043506428957C505.165506428957,843.043506428957,505.165506428957,879.506506428957,505.165506428957,879.506506428957C505.165506428957,886.544506428957,499.44050642895695,892.2695064289569,492.402506428957,892.2695064289569C492.402506428957,892.2695064289569,397.597506428957,892.2695064289569,397.597506428957,892.2695064289569C390.559706428957,892.2695064289569,384.83490642895697,886.544506428957,384.83490642895697,879.506506428957C384.83490642895697,879.506506428957,384.83490642895697,781.310506428957,384.83490642895697,781.310506428957C384.83490642895697,776.132506428957,389.028206428957,771.939506428957,394.20650642895697,771.939506428957C394.20650642895697,771.939506428957,495.793506428957,771.939506428957,495.793506428957,771.939506428957C513.041506428957,771.939506428957,527.043506428957,757.900506428957,527.043506428957,740.689506428957C527.043506428957,740.689506428957,527.043506428957,700.834906428957,527.043506428957,700.834906428957C527.043506428957,700.834906428957,563.506506428957,700.834906428957,563.506506428957,700.834906428957C570.544506428957,700.834906428957,576.2695064289569,706.559706428957,576.2695064289569,713.597506428957C576.2695064289569,713.597506428957,576.2695064289569,808.4025064289569,576.2695064289569,808.4025064289569Z" fill="#323233" fill-opacity="1"/></g></g></g></g></svg>