<svg xmlns="http://www.w3.org/2000/svg" xmlns:xlink="http://www.w3.org/1999/xlink" fill="none" version="1.1" width="1024" height="1024" viewBox="0 0 1024 1024"><defs><clipPath id="master_svg0_0_95"><rect x="0" y="0" width="1024" height="1024" rx="0"/></clipPath><clipPath id="master_svg1_0_96"><rect x="67" y="67" width="890" height="890" rx="0"/></clipPath></defs><g clip-path="url(#master_svg0_0_95)"><rect x="0" y="0" width="1024" height="1024" rx="0" fill="#FFFFFF" fill-opacity="1"/><g clip-path="url(#master_svg1_0_96)"><g><path d="M559.7245483398438,822.2095274414063C559.7245483398438,830.6477274414062,563.0765983398437,838.7403274414063,569.0433183398437,844.7070274414062C575.0100483398437,850.6738274414063,583.1026483398438,854.0258274414062,591.5409483398438,854.0258274414062C599.9791483398437,854.0258274414062,608.0717483398438,850.6738274414063,614.0384483398437,844.7070274414062C620.0052483398438,838.7403274414063,623.3572483398437,830.6477274414062,623.3572483398437,822.2095274414063C623.3572483398437,813.7712274414063,620.0052483398438,805.6786274414062,614.0384483398437,799.7118974414062C608.0717483398438,793.7451774414062,599.9791483398437,790.3931274414062,591.5409483398438,790.3931274414062C583.1026483398438,790.3931274414062,575.0100483398437,793.7451774414062,569.0433183398437,799.7118974414062C563.0765983398437,805.6786274414062,559.7245483398438,813.7712274414063,559.7245483398438,822.2095274414063Z" fill="#323233" fill-opacity="1"/></g><g><path d="M400.64276123046875,201.7905744995117C400.64276123046875,210.22877449951173,403.99484123046875,218.3213744995117,409.96156123046876,224.2880744995117C415.92826123046876,230.2547744995117,424.02086123046877,233.60687449951172,432.45916123046874,233.60687449951172C440.89736123046873,233.60687449951172,448.98996123046874,230.2547744995117,454.95666123046874,224.2880744995117C460.92336123046874,218.3213744995117,464.27546123046875,210.22877449951173,464.27546123046875,201.7905744995117C464.27546123046875,193.3522744995117,460.92336123046874,185.25967449951173,454.95666123046874,179.29297449951173C448.98996123046874,173.32625449951172,440.89736123046873,169.97417449951172,432.45916123046874,169.97417449951172C424.02086123046877,169.97417449951172,415.92826123046876,173.32625449951172,409.96156123046876,179.29297449951173C403.99484123046875,185.25967449951173,400.64276123046875,193.3522744995117,400.64276123046875,201.7905744995117Z" fill="#323233" fill-opacity="1"/></g><g><path d="M856.6770154175758,273.3770154175759C856.6770154175758,273.3770154175759,750.6230154175759,273.3770154175759,750.6230154175759,273.3770154175759C750.6230154175759,273.3770154175759,750.6230154175759,167.32301541757585,750.6230154175759,167.32301541757585C750.6230154175759,111.75021541757584,705.4430154175758,66.57101541757584,649.8710154175758,66.57101541757584C649.8710154175758,66.57101541757584,374.12901541757583,66.57101541757584,374.12901541757583,66.57101541757584C318.5570154175758,66.57101541757584,273.3770154175759,111.75021541757584,273.3770154175759,167.32301541757585C273.3770154175759,167.32301541757585,273.3770154175759,273.3770154175759,273.3770154175759,273.3770154175759C273.3770154175759,273.3770154175759,167.32301541757585,273.3770154175759,167.32301541757585,273.3770154175759C111.75021541757584,273.3770154175759,66.57101541757584,318.5570154175758,66.57101541757584,374.12901541757583C66.57101541757584,374.12901541757583,66.57101541757584,649.8710154175758,66.57101541757584,649.8710154175758C66.57101541757584,705.4430154175758,111.75021541757584,750.6230154175759,167.32301541757585,750.6230154175759C167.32301541757585,750.6230154175759,273.3770154175759,750.6230154175759,273.3770154175759,750.6230154175759C273.3770154175759,750.6230154175759,273.3770154175759,856.6770154175758,273.3770154175759,856.6770154175758C273.3770154175759,912.2500154175758,318.5570154175758,957.4290154175758,374.12901541757583,957.4290154175758C374.12901541757583,957.4290154175758,649.8710154175758,957.4290154175758,649.8710154175758,957.4290154175758C705.4430154175758,957.4290154175758,750.6230154175759,912.2500154175758,750.6230154175759,856.6770154175758C750.6230154175759,856.6770154175758,750.6230154175759,750.6230154175759,750.6230154175759,750.6230154175759C750.6230154175759,750.6230154175759,856.6770154175758,750.6230154175759,856.6770154175758,750.6230154175759C912.2500154175758,750.6230154175759,957.4290154175758,705.4430154175758,957.4290154175758,649.8710154175758C957.4290154175758,649.8710154175758,957.4290154175758,374.12901541757583,957.4290154175758,374.12901541757583C957.4290154175758,318.5570154175758,912.2500154175758,273.3770154175759,856.6770154175758,273.3770154175759ZM167.32301541757585,686.9900154175758C146.85431541757583,686.9900154175758,130.20371541757584,670.3390154175759,130.20371541757584,649.8710154175758C130.20371541757584,649.8710154175758,130.20371541757584,374.12901541757583,130.20371541757584,374.12901541757583C130.20371541757584,353.6610154175758,146.85431541757583,337.01001541757586,167.32301541757585,337.01001541757586C167.32301541757585,337.01001541757586,477.53201541757585,337.01001541757586,477.53201541757585,337.01001541757586C495.1370154175758,337.01001541757586,509.34901541757586,322.79901541757584,509.34901541757586,305.1940154175758C509.34901541757586,287.58901541757587,495.1370154175758,273.3770154175759,477.53201541757585,273.3770154175759C477.53201541757585,273.3770154175759,337.01001541757586,273.3770154175759,337.01001541757586,273.3770154175759C337.01001541757586,273.3770154175759,337.01001541757586,167.32301541757585,337.01001541757586,167.32301541757585C337.01001541757586,146.85431541757583,353.6610154175758,130.20371541757584,374.12901541757583,130.20371541757584C374.12901541757583,130.20371541757584,649.8710154175758,130.20371541757584,649.8710154175758,130.20371541757584C670.3390154175759,130.20371541757584,686.9900154175758,146.85431541757583,686.9900154175758,167.32301541757585C686.9900154175758,167.32301541757585,686.9900154175758,452.92801541757586,686.9900154175758,452.92801541757586C686.9900154175758,467.98701541757583,674.7940154175758,480.18401541757584,659.7340154175758,480.18401541757584C659.7340154175758,480.18401541757584,364.26601541757583,480.18401541757584,364.26601541757583,480.18401541757584C314.10201541757584,480.18401541757584,273.3770154175759,521.0150154175758,273.3770154175759,571.0720154175758C273.3770154175759,571.0720154175758,273.3770154175759,686.9900154175758,273.3770154175759,686.9900154175758C273.3770154175759,686.9900154175758,167.32301541757585,686.9900154175758,167.32301541757585,686.9900154175758ZM893.7960154175759,649.8710154175758C893.7960154175759,670.3390154175759,877.1460154175759,686.9900154175758,856.6770154175758,686.9900154175758C856.6770154175758,686.9900154175758,546.4680154175758,686.9900154175758,546.4680154175758,686.9900154175758C528.8630154175758,686.9900154175758,514.6510154175758,701.2010154175758,514.6510154175758,718.8060154175758C514.6510154175758,736.4110154175759,528.8630154175758,750.6230154175759,546.4680154175758,750.6230154175759C546.4680154175758,750.6230154175759,686.9900154175758,750.6230154175759,686.9900154175758,750.6230154175759C686.9900154175758,750.6230154175759,686.9900154175758,856.6770154175758,686.9900154175758,856.6770154175758C686.9900154175758,877.1460154175759,670.3390154175759,893.7960154175759,649.8710154175758,893.7960154175759C649.8710154175758,893.7960154175759,374.12901541757583,893.7960154175759,374.12901541757583,893.7960154175759C353.6610154175758,893.7960154175759,337.01001541757586,877.1460154175759,337.01001541757586,856.6770154175758C337.01001541757586,856.6770154175758,337.01001541757586,571.0720154175758,337.01001541757586,571.0720154175758C337.01001541757586,556.0130154175758,349.2060154175758,543.8160154175758,364.26601541757583,543.8160154175758C364.26601541757583,543.8160154175758,659.7340154175758,543.8160154175758,659.7340154175758,543.8160154175758C709.8980154175758,543.8160154175758,750.6230154175759,502.9850154175758,750.6230154175759,452.92801541757586C750.6230154175759,452.92801541757586,750.6230154175759,337.01001541757586,750.6230154175759,337.01001541757586C750.6230154175759,337.01001541757586,856.6770154175758,337.01001541757586,856.6770154175758,337.01001541757586C877.1460154175759,337.01001541757586,893.7960154175759,353.6610154175758,893.7960154175759,374.12901541757583C893.7960154175759,374.12901541757583,893.7960154175759,649.8710154175758,893.7960154175759,649.8710154175758Z" fill="#323233" fill-opacity="1"/></g></g></g></svg>