<svg xmlns="http://www.w3.org/2000/svg" xmlns:xlink="http://www.w3.org/1999/xlink" fill="none" version="1.1" width="1024" height="1024" viewBox="0 0 1024 1024"><defs><clipPath id="master_svg0_0_102"><rect x="0" y="0" width="1024" height="1024" rx="0"/></clipPath></defs><g clip-path="url(#master_svg0_0_102)"><rect x="0" y="0" width="1024" height="1024" rx="0" fill="#FFFFFF" fill-opacity="1"/><g><g><path d="M844.1098168945313,146.42340000000002L518.2988168945312,83.1888C514.2718168945312,82.407219,510.0758168945313,82.407219,506.0488168945312,83.1888L180.23861689453125,146.42340000000002C172.78841689453125,148.09359999999998,166.12981689453125,152.2514,161.36013689453125,158.2114C156.59048689453124,164.17149999999998,153.99443421453125,171.57819999999998,153.99982527406124,179.2108L153.99982527406124,602.749C154.02744179453126,632.359,161.29271689453125,661.513,175.16331689453125,687.675C189.03381689453124,713.837,209.08951689453124,736.215,233.58531689453125,752.86L494.46781689453127,929.828C505.31381689453127,937.186,519.5078168945313,937.186,530.3538168945313,929.828L791.2368168945312,752.86C815.7328168945312,736.215,835.7888168945312,713.837,849.6588168945312,687.675C863.5298168945312,661.513,870.7948168945312,632.359,870.8228168945312,602.749L870.8228168945312,179.2108C870.7898168945312,171.5165,868.1208168945312,164.0657,863.2598168945312,158.09969999999998C858.3998168945312,152.1337,851.6408168945312,148.0128,844.1098168945313,146.42340000000002ZM217.99981689453125,602.749L217.99981689453125,204.289L358.3998168945312,177.0393L512.1738168945312,147.1943L665.9478168945312,177.0393L806.8228168945312,204.381L806.8228168945312,602.69Q806.8088168945312,617.073,803.3308168945313,631.029Q799.8528168945312,644.987,793.1148168945313,657.696Q786.3758168945312,670.407,776.7728168945313,681.121Q767.1688168945312,691.837,755.3088168945312,699.896L615.8958168945312,794.466L512.4108168945313,864.665L408.92581689453124,794.466L269.55581689453123,699.925Q257.65281689453127,691.837,248.04951689453125,681.121Q238.44661689453125,670.407,231.70781689453125,657.696Q224.96941689453126,644.987,221.49121689453125,631.029Q218.01321689453124,617.073,217.99981689453125,602.749Z" fill-rule="evenodd" fill="#323232" fill-opacity="1"/></g><g><path d="M481.83895617675785,662.3928615722657L766.9889561767578,387.41126157226563L722.5619561767578,341.3424615722656L482.60895617675783,572.7398615722657L349.78195617675783,440.17656157226565L304.5719561767578,485.4758615722656L481.83895617675785,662.3928615722657Z" fill-rule="evenodd" fill="#323232" fill-opacity="1"/></g></g></g></svg>