<svg xmlns="http://www.w3.org/2000/svg" xmlns:xlink="http://www.w3.org/1999/xlink" fill="none" version="1.1" width="1024" height="1024" viewBox="0 0 1024 1024"><defs><clipPath id="master_svg0_0_170"><rect x="0" y="0" width="1024" height="1024" rx="0"/></clipPath></defs><g clip-path="url(#master_svg0_0_170)"><rect x="0" y="0" width="1024" height="1024" rx="0" fill="#FFFFFF" fill-opacity="1"/><g><g><path d="M511.919,137.4576C407.679,152.7711,313.0344,155.304,265.061,155.4266C246.9698,155.9108,232,170.058,232,188.156L232,361.381C232,378.863,246.0292,393.346,263.5033,392.842C313.2093,392.331,414.253,389.415,511.919,375.252C616.698,360.058,725.365,326.742,770.357,312.026C783.323,308.051,791.839,295.755,791.839,282.193L791.839,113.06569999999999C791.839,90.7529,769.646,75.65189,748.19,81.7778C697.6949999999999,97.8669,608.9649999999999,123.201,511.919,137.4576ZM662.991,172.405Q695.7529999999999,164.238,727.8389999999999,154.8877L727.8389999999999,185.897L727.8389999999999,258.425Q687.906,270.88,647.281,281.56399999999996Q567.6890000000001,302.495,502.735,311.91499999999996Q440.916,320.879,365.977,325.276Q330.8653,327.336,296,328.243L296,219.073Q332.877,218.326,371.225,216.024Q449.382,211.332,521.221,200.778Q589.27,190.781,662.991,172.405ZM751.597,250.837Q751.012,251.029,750.389,251.232Q750.988,251.024,751.597,250.837ZM262.8453,328.845Q263.34069999999997,328.83,263.841,328.835Q263.3546,328.84,262.8453,328.845Z" fill-rule="evenodd" fill="#323232" fill-opacity="1"/></g><g><path d="M511.919,419.4878734375C407.679,434.8013734375,313.0344,437.3342734375,265.061,437.4568734375C246.9698,437.9410734375,232,452.0882734375,232,470.1862734375L232,643.4112734375C232,660.8932734375,246.0292,675.3762734375,263.5033,674.8722734375C313.2093,674.3612734375,414.253,671.4452734375,511.919,657.2822734375C616.698,642.0882734375,725.365,608.7722734375,770.357,594.0562734375001C783.323,590.0812734374999,791.839,577.7852734375,791.839,564.2232734375L791.839,395.0959734375C791.839,372.7831734375,769.646,357.6821634375,748.19,363.8080734375C697.6949999999999,379.8971734375,608.9649999999999,405.2312734375,511.919,419.4878734375ZM662.991,454.4352734375Q695.7529999999999,446.2682734375,727.8389999999999,436.9179734375L727.8389999999999,467.9272734375L727.8389999999999,540.4552734375Q687.906,552.9102734375,647.281,563.5942734375Q567.6890000000001,584.5252734375,502.735,593.9452734375Q440.916,602.9092734375,365.977,607.3062734375001Q330.8653,609.3662734375,296,610.2732734374999L296,501.1032734375Q332.877,500.3562734375,371.225,498.0542734375Q449.382,493.3622734375,521.221,482.8082734375Q589.27,472.8112734375,662.991,454.4352734375ZM751.597,532.8672734375Q751.012,533.0592734375,750.389,533.2622734375Q750.988,533.0542734375,751.597,532.8672734375ZM262.8453,610.8752734375Q263.34069999999997,610.8602734374999,263.841,610.8652734375Q263.3546,610.8702734374999,262.8453,610.8752734375Z" fill-rule="evenodd" fill="#323232" fill-opacity="1"/></g><g><path d="M511.919,701.518146875C407.679,716.831646875,313.0344,719.364546875,265.061,719.487146875C246.9698,719.971346875,232,734.118546875,232,752.216546875L232,925.441546875C232,942.923546875,246.0292,957.406546875,263.5033,956.902546875C313.2093,956.391546875,414.253,953.475546875,511.919,939.312546875C616.698,924.118546875,725.365,890.802546875,770.357,876.0865468750001C783.323,872.1115468749999,791.839,859.815546875,791.839,846.253546875L791.839,677.126246875C791.839,654.813446875,769.646,639.712436875,748.19,645.838346875C697.6949999999999,661.927446875,608.9649999999999,687.261546875,511.919,701.518146875ZM662.991,736.465546875Q695.7529999999999,728.298546875,727.8389999999999,718.948246875L727.8389999999999,749.957546875L727.8389999999999,822.485546875Q687.906,834.940546875,647.281,845.624546875Q567.6890000000001,866.555546875,502.735,875.975546875Q440.916,884.939546875,365.977,889.3365468750001Q330.8653,891.396546875,296,892.3035468749999L296,783.133546875Q332.877,782.386546875,371.225,780.084546875Q449.382,775.392546875,521.221,764.838546875Q589.27,754.841546875,662.991,736.465546875ZM751.597,814.897546875Q751.012,815.089546875,750.389,815.292546875Q750.988,815.084546875,751.597,814.897546875ZM262.8453,892.905546875Q263.34069999999997,892.8905468749999,263.841,892.895546875Q263.3546,892.9005468749999,262.8453,892.905546875Z" fill-rule="evenodd" fill="#323232" fill-opacity="1"/></g></g></g></svg>