<svg xmlns="http://www.w3.org/2000/svg" xmlns:xlink="http://www.w3.org/1999/xlink" fill="none" version="1.1" width="1024" height="1024" viewBox="0 0 1024 1024"><defs><clipPath id="master_svg0_0_106"><rect x="0" y="0" width="1024" height="1024" rx="0"/></clipPath></defs><g clip-path="url(#master_svg0_0_106)"><rect x="0" y="0" width="1024" height="1024" rx="0" fill="#FFFFFF" fill-opacity="1"/><g><g><path d="M957,879.1049938964844L957,144.89499389648438C957,125.23369389648437,941.077,109.27499389648438,921.416,109.27499389648438L102.5839,109.27499389648438C82.9226,109.27499389648438,67,125.23369389648437,67,144.89499389648438L67,879.1049938964844C67,898.7659938964844,82.9226,914.7249938964844,102.5839,914.7249938964844L921.416,914.7249938964844C941.077,914.7249938964844,957,898.7659938964844,957,879.1049938964844ZM885.8,843.5249938964844L885.8,180.47499389648436L138.2,180.47499389648436L138.2,843.5249938964844L512,843.5249938964844L885.8,843.5249938964844Z" fill-rule="evenodd" fill="#323232" fill-opacity="1"/></g><g><g transform="matrix(0,-1,-1,0,1434.5127868652344,1434.5127868652344)"><rect x="773.4374389648438" y="661.0753479003906" width="71.20001220703125" height="222.5" rx="35.600006103515625" fill="#323232" fill-opacity="1"/></g><g><path d="M292.3846,563.7770915527344L292.3726,563.7890915527344Q291.8171,564.3450915527344,291.2896,564.9270915527344Q290.762,565.5090915527344,290.2637,566.1160915527344Q289.7653,566.7230915527343,289.2974,567.3540915527344Q288.8294,567.9850915527344,288.39300000000003,568.6380915527344Q287.9565,569.2920915527344,287.5527,569.9650915527344Q287.1488,570.6390915527344,286.7785,571.3320915527344Q286.4082,572.0250915527344,286.0723,572.7350915527344Q285.7365,573.4450915527343,285.4359,574.1710915527344Q285.1352,574.8970915527343,284.8706,575.6360915527343Q284.6059,576.3760915527344,284.3779,577.1280915527343Q284.1499,577.8790915527344,283.959,578.6410915527343Q283.7681,579.4030915527344,283.6149,580.1740915527344Q283.4616,580.9440915527343,283.3464,581.7210915527344Q283.2311,582.4980915527344,283.15409999999997,583.2800915527343Q283.0771,584.0620915527344,283.0385,584.8470915527344Q283,585.6310915527343,283,586.4170915527344Q283,587.2020915527344,283.0385,587.9870915527343Q283.0771,588.7710915527343,283.15409999999997,589.5530915527344Q283.2311,590.3350915527344,283.3464,591.1120915527343Q283.4616,591.8890915527344,283.6149,592.6600915527343Q283.7681,593.4300915527344,283.959,594.1920915527344Q284.1499,594.9540915527343,284.3779,595.7060915527344Q284.6059,596.4580915527343,284.8706,597.1970915527344Q285.1352,597.9370915527344,285.4359,598.6630915527344Q285.7365,599.3880915527344,286.0723,600.0980915527343Q286.4082,600.8090915527343,286.7785,601.5010915527344Q287.1488,602.1940915527343,287.5527,602.8680915527343Q287.9565,603.5420915527344,288.39300000000003,604.1950915527343Q288.8294,604.8480915527343,289.2974,605.4790915527344Q289.7653,606.1100915527344,290.2637,606.7170915527344Q290.762,607.3240915527344,291.2896,607.9070915527344Q291.8171,608.4890915527344,292.3726,609.0440915527344Q292.9281,609.6000915527344,293.5101,610.1270915527343Q294.0922,610.6550915527343,294.6994,611.1530915527344Q295.3067,611.6510915527344,295.9376,612.1190915527344Q296.5686,612.5870915527344,297.22180000000003,613.0240915527344Q297.8749,613.4600915527344,298.5487,613.8640915527344Q299.2225,614.2680915527344,299.9153,614.6380915527344Q300.6081,615.0080915527344,301.3182,615.3440915527344Q302.0284,615.6800915527344,302.7541,615.9810915527344Q303.4799,616.2810915527343,304.2195,616.5460915527344Q304.9592,616.8110915527344,305.71089,617.0390915527344Q306.46262,617.2670915527344,307.22463,617.4580915527343Q307.98665,617.6490915527344,308.75711,617.8020915527344Q309.52757,617.9550915527344,310.30463,618.0700915527343Q311.08168,618.1860915527344,311.86345,618.2630915527344Q312.64522,618.3400915527344,313.42983,618.3780915527343Q314.214444,618.4170915527344,315,618.4170915527344Q315.785556,618.4170915527344,316.57017,618.3780915527343Q317.35477,618.3400915527344,318.13655,618.2630915527344Q318.91832,618.1860915527344,319.69537,618.0700915527343Q320.47243,617.9550915527344,321.24289,617.8020915527344Q322.01335,617.6490915527344,322.77537,617.4580915527343Q323.53738,617.2670915527344,324.28911,617.0390915527344Q325.0408,616.8110915527344,325.7805,616.5460915527344Q326.5201,616.2810915527343,327.2459,615.9810915527344Q327.9716,615.6800915527344,328.6818,615.3440915527344Q329.3919,615.0080915527344,330.0847,614.6380915527344Q330.7775,614.2680915527344,331.4513,613.8640915527344Q332.1251,613.4600915527344,332.77819999999997,613.0240915527344Q333.4314,612.5870915527344,334.0624,612.1190915527344Q334.6933,611.6510915527344,335.3006,611.1530915527344Q335.9078,610.6550915527343,336.4899,610.1270915527343Q337.0719,609.6000915527344,337.6274,609.0440915527344L337.6394,609.0320915527344L430.336,516.3360915527344Q430.891,515.7800915527343,431.419,515.1980915527344Q431.946,514.6160915527344,432.445,514.0090915527344Q432.943,513.4020915527344,433.411,512.7710915527343Q433.879,512.1400915527344,434.315,511.48709155273434Q434.752,510.83309155273434,435.156,510.16009155273434Q435.55899999999997,509.48609155273436,435.93,508.7930915527344Q436.3,508.1000915527344,436.63599999999997,507.39009155273436Q436.972,506.6800915527344,437.272,505.9540915527344Q437.573,505.2280915527344,437.83799999999997,504.4890915527344Q438.102,503.7490915527344,438.33,502.9970915527344Q438.558,502.24609155273436,438.749,501.48409155273436Q438.94,500.7217915527344,439.093,499.95129155273435Q439.247,499.18089155273435,439.36199999999997,498.4037915527344Q439.477,497.62669155273437,439.554,496.84499155273437Q439.631,496.0631915527344,439.67,495.2785915527344Q439.70799999999997,494.49399155273437,439.70799999999997,493.7083915527344Q439.70799999999997,492.92289155273437,439.67,492.13829155273436Q439.631,491.3535915527344,439.554,490.57189155273437Q439.477,489.7900915527344,439.36199999999997,489.0129915527344Q439.247,488.2359915527344,439.093,487.46549155273436Q438.94,486.69509155273437,438.749,485.93309155273437Q438.558,485.1709915527344,438.33,484.41929155273436Q438.102,483.6675915527344,437.83799999999997,482.92789155273437Q437.573,482.18829155273437,437.272,481.46259155273435Q436.972,480.73679155273436,436.63599999999997,480.0266915527344Q436.3,479.31649155273436,435.93,478.6236915527344Q435.55899999999997,477.93089155273435,435.156,477.2570915527344Q434.752,476.5832915527344,434.315,475.93019155273436Q433.879,475.2769915527344,433.411,474.6460915527344Q432.943,474.01509155273436,432.445,473.4078915527344Q431.946,472.8005915527344,431.419,472.21849155273435Q430.891,471.63649155273436,430.336,471.08099155273436L337.6274,378.37269155273435Q337.0719,377.81719155273436,336.4899,377.2896915527344Q335.9078,376.7620915527344,335.3006,376.26379155273435Q334.6933,375.7653915527344,334.0624,375.29749155273436Q333.4314,374.8294915527344,332.77819999999997,374.3930915527344Q332.1251,373.9565915527344,331.4513,373.5527915527344Q330.7775,373.14889155273437,330.0847,372.7785915527344Q329.3919,372.4082915527344,328.6818,372.07239155273436Q327.9716,371.73659155273435,327.2459,371.4359915527344Q326.5201,371.1352915527344,325.7805,370.8706915527344Q325.0408,370.6059915527344,324.28911,370.3779915527344Q323.53738,370.1499915527344,322.77537,369.9590915527344Q322.01335,369.7681915527344,321.24289,369.61499155273435Q320.47243,369.46169155273435,319.69537,369.34639155273436Q318.91832,369.2311915527344,318.13655,369.15419155273435Q317.35477,369.07719155273435,316.57017,369.0385915527344Q315.785556,369.0000915527344,315,369.0000915527344Q314.214444,369.0000915527344,313.42983,369.0385915527344Q312.64523,369.07719155273435,311.86345,369.15419155273435Q311.08168,369.2311915527344,310.30463,369.34639155273436Q309.52757,369.46169155273435,308.75711,369.61499155273435Q307.98665,369.7681915527344,307.22463,369.9590915527344Q306.46262,370.1499915527344,305.71089,370.3779915527344Q304.9592,370.6059915527344,304.2195,370.8706915527344Q303.4799,371.1352915527344,302.7541,371.4359915527344Q302.0284,371.73659155273435,301.3182,372.07239155273436Q300.6081,372.4082915527344,299.9153,372.7785915527344Q299.2225,373.14889155273437,298.5487,373.5527915527344Q297.8749,373.9565915527344,297.22180000000003,374.3930915527344Q296.5686,374.8294915527344,295.9376,375.29749155273436Q295.3067,375.7653915527344,294.6994,376.26379155273435Q294.0922,376.7620915527344,293.5101,377.2896915527344Q292.9281,377.81719155273436,292.3726,378.37269155273435Q291.8171,378.92819155273435,291.2896,379.5101915527344Q290.762,380.09229155273437,290.2637,380.6994915527344Q289.7653,381.30679155273435,289.2974,381.93769155273435Q288.8294,382.5686915527344,288.39300000000003,383.2218915527344Q287.9565,383.8749915527344,287.5527,384.5487915527344Q287.1488,385.2225915527344,286.7785,385.9153915527344Q286.4082,386.60819155273435,286.0723,387.31829155273437Q285.7365,388.02849155273435,285.4359,388.75419155273437Q285.1352,389.47999155273436,284.8706,390.21959155273436Q284.6059,390.9592915527344,284.3779,391.7109815527344Q284.1499,392.4627115527344,283.959,393.22472155273437Q283.7681,393.9867415527344,283.6149,394.7572015527344Q283.4616,395.5276615527344,283.3463,396.30472155273435Q283.2311,397.0817715527344,283.15409999999997,397.8635415527344Q283.0771,398.6453215527344,283.0385,399.42992155273436Q283,400.2145355527344,283,401.0000915527344Q283,401.78564755273436,283.0385,402.5702615527344Q283.0771,403.35486155273435,283.15409999999997,404.1366415527344Q283.2311,404.91841155273437,283.3463,405.6954615527344Q283.4616,406.47252155273435,283.6149,407.24298155273436Q283.7681,408.0134415527344,283.959,408.7754615527344Q284.1499,409.53747155273436,284.3779,410.28920155273437Q284.6059,411.04089155273437,284.8706,411.7805915527344Q285.1352,412.5201915527344,285.4359,413.2459915527344Q285.7365,413.9716915527344,286.0723,414.6818915527344Q286.4082,415.3919915527344,286.7785,416.0847915527344Q287.1488,416.77759155273435,287.5527,417.4513915527344Q287.9565,418.12519155273435,288.39300000000003,418.77829155273434Q288.8294,419.43149155273437,289.2974,420.0624915527344Q289.7653,420.6933915527344,290.2637,421.30069155273435Q290.762,421.9078915527344,291.2896,422.48999155273435Q291.8171,423.0719915527344,292.3726,423.6274915527344L292.3764,423.63129155273435L362.4535,493.7083915527344L292.3846,563.7770915527344Z" fill-rule="evenodd" fill="#323232" fill-opacity="1"/></g></g></g></g></svg>