<svg xmlns="http://www.w3.org/2000/svg" xmlns:xlink="http://www.w3.org/1999/xlink" fill="none" version="1.1" width="1024" height="1024" viewBox="0 0 1024 1024"><defs><clipPath id="master_svg0_0_181"><rect x="0" y="0" width="1024" height="1024" rx="0"/></clipPath></defs><g clip-path="url(#master_svg0_0_181)"><rect x="0" y="0" width="1024" height="1024" rx="0" fill="#FFFFFF" fill-opacity="1"/><g><path d="M539.1371796875001,685.3980190429687C476.4501796875,753.8700190429688,354.5384796875,887.0300190429688,354.5384796875,887.0300190429688C354.5384796875,887.0300190429688,376.7391796875,720.9790190429687,388.9811796875,629.4181190429688C392.1781796875,605.5072190429687,366.4122796875,588.4335190429688,345.6245796875,600.6736190429688C338.0064796875,605.1592190429687,332.8189796875,612.9449190429688,331.6414796875,621.7516190429687C324.2229796875,677.2360190429688,297.1974796875,879.3660190429687,297.1974796875,879.3660190429687C297.1974796875,879.3660190429687,297.0332796875,880.5940190429687,296.7318796875,882.8480190429688C289.2719796875,938.6560190429688,357.82707968750003,971.1300190429688,396.3001796875,930.0210190429688C469.4551796875,851.8530190429688,553.8321796875,761.6940190429688,585.3051796875,728.0650190429687C593.1501796875,719.6830190429687,595.7851796875,707.7520190429688,592.2041796875001,696.8450190429687C592.1991796875,696.8300190429687,592.1941796875001,696.8140190429688,592.1891796875,696.7990190429688C584.6921796875,673.9590190429687,555.3701796875,667.6677190429688,539.1371796875001,685.3980190429687" fill="#323232" fill-opacity="1"/></g><g><path d="M757.896,492.65700000000004C757.896,492.65700000000004,920.926,304.509,920.926,304.509C920.926,304.509,920.934,304.5,920.949,304.482C958.177,261.519,917.56,196.278,862.564,210.67C862.582,210.666,862.564,210.67,862.564,210.67C862.564,210.67,631.148,271.22,631.148,271.22C631.148,271.22,521.618,91.84899999999999,521.618,91.84899999999999C521.618,91.84899999999999,521.61,91.83600000000001,521.594,91.81C493.89599999999996,46.45399999999999,424.757,59.37949999999999,415.315,111.725C415.317,111.71000000000001,415.315,111.725,415.315,111.725C415.315,111.725,373.24,345.02,373.24,345.02C373.24,345.02,136.907,418.685,136.907,418.685C136.907,418.685,136.892,418.69,136.861,418.7C84.873,434.906,82.09,507.51199999999994,132.731,527.664C132.716,527.658,132.731,527.664,132.731,527.664C132.731,527.664,272.893,583.432,272.893,583.432C272.893,583.432,279.251,585.964,285.711,588.535C294.192,591.912,303.76,591.129,311.587,586.432C332.02,574.17,329.626,543.751,307.443,534.924C245.98399999999998,510.46799999999996,154.117,473.911,154.117,473.911C154.117,473.911,423.947,389.807,423.947,389.807C423.947,389.807,472.249,121.993,472.249,121.993C472.249,121.993,604.195,338.07,604.195,338.07C604.195,338.07,877.206,266.629,877.206,266.629C877.206,266.629,688.2,484.75699999999995,688.2,484.75699999999995C688.2,484.75699999999995,807.365,709.069,807.365,709.069C807.365,709.069,718.37,684.773,659.793,668.781C637.78,662.771,617.7,683.169,623.993,705.103C626.675,714.453,634.044,721.716,643.428,724.277C683.985,735.349,792.135,764.873,792.135,764.873C792.135,764.873,792.148,764.877,792.173,764.884C841.072,778.231,882.232,726.688,858.451,681.926C858.457,681.938,858.451,681.926,858.451,681.926C858.451,681.926,757.896,492.65700000000004,757.896,492.65700000000004Z" fill="#323232" fill-opacity="1"/></g></g></svg>