<svg xmlns="http://www.w3.org/2000/svg" xmlns:xlink="http://www.w3.org/1999/xlink" fill="none" version="1.1" width="1024" height="1024" viewBox="0 0 1024 1024"><defs><clipPath id="master_svg0_0_140"><rect x="0" y="0" width="1024" height="1024" rx="0"/></clipPath></defs><g clip-path="url(#master_svg0_0_140)"><rect x="0" y="0" width="1024" height="1024" rx="0" fill="#FFFFFF" fill-opacity="1"/><g><g transform="matrix(0.7071067690849304,-0.7071067690849304,0.7071067690849304,0.7071067690849304,-115.66804853930807,205.31243093952799)"><ellipse cx="359.9034881591797" cy="412.1833953857422" rx="137.9034881591797" ry="137.9034881591797" fill-opacity="0" stroke-opacity="1" stroke="#323232" fill="none" stroke-width="64"/></g><g><path d="M557,896L683,896L683,832L463,832L463,359L399,359.0000305176L399,862.024Q399,869.037,401.775,875.471Q404.4331,881.635,409.2394,886.326Q413.9534,890.927,420.046,893.436Q426.27194,896,433.0108,896L557,896Z" fill-rule="evenodd" fill="#323232" fill-opacity="1"/></g><g><ellipse cx="730" cy="595.5" rx="94" ry="94.5" fill="#323232" fill-opacity="1"/></g><g><ellipse cx="735.5" cy="863.5" rx="88.5" ry="88.5" fill="#323232" fill-opacity="1"/></g><g><path d="" fill="#323232" fill-opacity="1"/><path d="M683,628L431,628L431,564L683,564L683,628Z" fill-rule="evenodd" fill="#323232" fill-opacity="1"/></g></g></g></svg>