<?xml version="1.0" standalone="no"?>
<!DOCTYPE svg PUBLIC "-//W3C//DTD SVG 1.1//EN" "http://www.w3.org/Graphics/SVG/1.1/DTD/svg11.dtd" >
<svg xmlns="http://www.w3.org/2000/svg">
<metadata>
<json>
<![CDATA[
{
	"fontFamily": "font-dws-icon",
	"description": "Font generated by IcoMoon.",
	"majorVersion": 1,
	"minorVersion": 0,
	"version": "Version 1.0",
	"fontId": "font-dws-icon",
	"psName": "font-dws-icon",
	"subFamily": "Regular",
	"fullName": "font-dws-icon"
}
]]>
</json>
</metadata>
<defs>
<font id="font-dws-icon" horiz-adv-x="1024">
<font-face units-per-em="1024" ascent="960" descent="-64" />
<missing-glyph horiz-adv-x="1024" />
<glyph unicode="&#x20;" horiz-adv-x="512" d="" />
<glyph unicode="&#xe600;" glyph-name="ide_intl" data-tags="ide_intl" d="M700.859 653.251v-404.224h309.005l-26.57 94.329h-174.646v67.368h175.158v80.829h-175.158v80.856h176.344l26.705 80.842zM404.434 343.354v229.053h43.951c25.29 0 44.099-8.232 56.428-24.455 4.541-5.834 7.613-14.498 9.243-25.843 1.617-11.358 2.425-34.25 2.425-68.621 0-24.010-0.323-42.024-0.97-54.016-0.647-12.005-1.792-20.44-3.409-25.304s-4.056-6.090-7.289-11.277c-12.328-15.562-31.138-19.537-56.428-19.537h-43.951zM583.607 287.519c14.929 12.975 25.95 25.236 33.091 39.181 7.128 13.945 11.803 27.459 13.743 41.728s3.045 30.868 3.045 50.971v69.080c0 20.103-1.105 37.295-3.045 51.564s-6.548 28.376-13.689 42.321c-7.128 13.945-18.189 22.232-33.105 35.193-30.491 27.244-73 35.692-127.488 35.692h-172.989v-404.211h172.989c54.488 0 96.97 11.237 127.448 38.481v0zM13.703 249.035h121.263v404.211h-121.263zM209.231 877.237c53.747 25.021 117.517 22.016 189.575-8.866 122.732-52.601 196.864-85.558 241.475-105.984 0.795-35.988 30.087-64.957 66.277-64.957 36.675 0 66.412 29.736 66.412 66.412 0 36.689-29.736 66.425-66.412 66.425-12.463 0-23.97-3.638-33.927-9.607-44.84 20.588-120.32 54.178-247.673 108.76-90.408 38.723-171.938 39.936-244.251 7.801-128.579-57.142-172.167-218.26-173.972-224.296l69.43-0.701c0.364 1.199 37.511 120.522 133.066 165.012M320.842 732.401c34.951 16.775 74.698 41.472 151.7 75.614l-83.496 35.422c-48.182-21.747-70.791-38.548-96.957-51.119-10.617 7.181-23.404 11.372-37.174 11.372-36.675 0-66.412-29.736-66.412-66.412s29.736-66.412 66.412-66.412c35.005 0 63.38 27.176 65.927 61.534M628.79 869.284c72.057 30.882 131.476 32.97 185.223 7.949 95.542-44.49 132.702-163.813 133.066-165.012l69.416 0.701c-1.792 6.036-45.379 167.155-173.959 224.296-72.327 32.135-153.856 30.922-244.251-7.801-22.070-9.459-39.464-16.923-59.163-25.465 0 0 3.948-1.671 89.667-34.668M814.006 23.036c-53.747-25.021-117.517-22.016-189.575 8.866-122.732 52.601-196.864 85.558-241.475 105.984-0.795 35.988-30.087 64.957-66.277 64.957-36.675 0-66.412-29.736-66.412-66.412 0-36.689 29.736-66.425 66.412-66.425 12.463 0 23.97 3.638 33.927 9.607 44.84-20.588 120.32-54.178 247.673-108.76 90.408-38.723 171.938-39.936 244.251-7.801 128.579 57.142 172.167 218.26 173.972 224.296l-69.43 0.701c-0.364-1.199-37.511-120.522-133.066-165.012M702.395 167.871c-34.951-16.775-74.698-41.472-151.7-75.614l83.496-35.422c48.182 21.747 70.791 38.548 96.957 51.119 10.617-7.181 23.404-11.372 37.174-11.372 36.675 0 66.412 29.736 66.412 66.412s-29.736 66.412-66.412 66.412c-35.005 0-63.38-27.176-65.927-61.534M394.447 30.988c-72.057-30.882-131.476-32.97-185.223-7.949-95.542 44.49-132.702 163.813-133.066 165.012l-69.416-0.701c1.792-6.036 45.379-167.155 173.959-224.296 72.327-32.135 153.856-30.922 244.251 7.801 22.070 9.459 39.464 16.923 59.163 25.465 0 0-3.948 1.671-89.667 34.668" />
<glyph unicode="&#xe601;" glyph-name="ziyuan" data-tags="ziyuan" d="M559.787 451.413c0-40.96-30.72-71.68-68.267-71.68h-423.253c-37.547 0-68.267 30.72-68.267 71.68v436.907c0 40.96 30.72 71.68 68.267 71.68h423.253c37.547 0 68.267-30.72 68.267-71.68v-436.907zM1024 444.587c0-40.96-30.72-71.68-68.267-71.68h-218.453c-37.547 0-68.267 30.72-68.267 71.68v228.693c0 40.96 30.72 71.68 68.267 71.68h218.453c37.547 0 68.267-30.72 68.267-71.68v-228.693zM556.373 7.68c0-40.96-30.72-71.68-68.267-71.68h-218.453c-37.547 0-68.267 30.72-68.267 71.68v228.693c0 40.96 30.72 71.68 68.267 71.68h218.453c37.547 0 68.267-30.72 68.267-71.68v-228.693zM1020.587 7.68c0-40.96-30.72-71.68-68.267-71.68h-218.453c-37.547 0-68.267 30.72-68.267 71.68v228.693c0 40.96 30.72 71.68 68.267 71.68h218.453c37.547 0 68.267-30.72 68.267-71.68v-228.693z" />
<glyph unicode="&#xe602;" glyph-name="shujujiaohuan" data-tags="shujujiaohuan" d="M785.015 635.794h-136.48c-13.324 0-44.659-14.31-53.047-24.92l-83.519-77.474 68.221-68.221 68.221 68.221h136.566v-68.221l136.566 102.394-136.566 136.566zM819.188 294.563h-170.652l-238.96 341.231c-8.389 1.11-20.725 0-34.172 0h-136.443v68.16l-136.566-136.443 136.566-102.394v68.221h134.099l207.132-307.181c8.512-10.856 20.849-34.172 34.172-34.172h194.425c24.55 0 44.412 20.849 44.412 46.509s-9.623 56.008-34.049 56.008M375.403 192.108c13.2 0 25.66 23.563 34.172 34.172l68.221 102.394-68.221 68.221-68.221-102.394h-136.529c-24.55 0-34.172-23.193-34.172-48.483s9.623-53.911 34.172-53.911zM959.911 32.102c-0.007-17.644-14.308-31.945-31.951-31.952h-831.944c-17.644 0.007-31.945 14.308-31.952 31.951v831.92c0.007 17.644 14.308 31.945 31.951 31.952h831.981c17.644-0.007 31.945-14.308 31.952-31.951v-831.858zM921.544 959.938h-819.151c-56.551 0-102.394-45.843-102.394-102.394v0-819.151c0.035-56.536 45.857-102.359 102.39-102.394h819.154c56.536 0.035 102.359 45.857 102.394 102.39v819.154c0 0.018 0 0.040 0 0.062 0 56.538-45.822 102.373-102.355 102.394h-0.002z" />
<glyph unicode="&#xe603;" glyph-name="suanfa" data-tags="suanfa" d="M386.844 960h-318.578c-37.703 0-68.267-30.564-68.267-68.267v0-318.578c0-37.703 30.564-68.267 68.267-68.267v0h318.578c37.703 0 68.267 30.564 68.267 68.267v0 318.578c0 37.703-30.564 68.267-68.267 68.267v0zM369.778 704h-113.778v-113.778h-56.889v113.778h-113.778v56.889h113.778v113.778h56.889v-113.778h113.778v-56.889zM955.733 960h-318.578c-37.703 0-68.267-30.564-68.267-68.267v0-318.578c0-37.703 30.564-68.267 68.267-68.267h318.578c37.703 0 68.267 30.564 68.267 68.267v0 318.578c0 37.703-30.564 68.267-68.267 68.267v0zM938.667 704h-284.444v56.889h284.444v-56.889zM386.844 391.111h-318.578c-37.703 0-68.267-30.564-68.267-68.267v0-318.578c0-37.703 30.564-68.267 68.267-68.267v0h318.578c37.703 0 68.267 30.564 68.267 68.267v318.578c0 37.703-30.564 68.267-68.267 68.267v0zM348.217 83.115l-40.22-40.22-80.441 80.441-80.441-80.441-40.22 40.22 80.441 80.441-80.441 80.441 40.22 40.22 80.441-80.441 80.441 80.441 40.22-40.22-80.441-80.441 80.441-80.441zM955.733 391.111h-318.578c-37.703 0-68.267-30.564-68.267-68.267v0-318.578c0-37.703 30.564-68.267 68.267-68.267h318.578c37.703 0 68.267 30.564 68.267 68.267v0 318.578c0 37.703-30.564 68.267-68.267 68.267v0zM910.222 78.222h-227.556v56.889h227.556v-56.889zM910.222 192h-227.556v56.889h227.556v-56.889z" />
<glyph unicode="&#xe604;" glyph-name="workflow" data-tags="workflow" d="M1023.949 634.179v279.282c0 25.702-20.836 46.538-46.538 46.538h-279.231c-0.015 0-0.033 0-0.051 0-25.674 0-46.487-20.813-46.487-46.487 0-0.018 0-0.036 0-0.054v0.003-116.372c-227.368 0-418.385-156.255-472.706-366.881l-48.382 8.499c-1.176 0.21-2.53 0.33-3.911 0.33-12.894 0-23.346-10.452-23.346-23.346 0-3.816 0.916-7.419 2.539-10.599l-0.061 0.132 50.429-99.528c-89.035-14.935-156.060-91.365-156.203-183.476v-0.015c0.116-102.781 83.42-186.066 186.197-186.154h0.008c94.527 0.163 172.534 70.677 184.466 161.97l0.1 0.94h164.497v-46.538c0.058-12.85 10.488-23.244 23.346-23.244 5.246 0 10.088 1.73 13.987 4.652l-0.061-0.043 81.353 61.027c13.823-90.249 90.83-158.597 183.832-158.763h0.018c102.785 0.087 186.089 83.373 186.205 186.143v0.011c-0.166 94.542-70.706 172.558-162.023 184.467l-0.939 0.1v164.497h46.59c12.827 0.051 23.205 10.461 23.205 23.295 0 5.248-1.735 10.091-4.664 13.986l0.043-0.060-59.389 79.1h110.484c0.015 0 0.033 0 0.051 0 25.741 0 46.612 20.853 46.641 46.587v0.003zM186.205 29.128c-51.351 0-93.077 41.726-93.077 93.026s41.777 93.077 93.077 93.077 93.077-41.777 93.077-93.077-41.777-93.026-93.077-93.026zM930.923 122.205c0-51.3-41.777-93.026-93.077-93.026s-93.026 41.726-93.026 93.026 41.726 93.077 93.026 93.077 93.077-41.777 93.077-93.077zM747.175 484.171c3.9-7.679 11.739-12.849 20.786-12.851h46.539v-164.497c-82.817-10.878-147.935-74.83-160.474-156.135l-0.132-1.041-81.404 61.079c-3.835 2.885-8.678 4.621-13.926 4.621-12.852 0-23.273-10.408-23.295-23.254v-46.54h-164.497c-11.069 84.371-77.219 150.416-160.696 161.224l-0.934 0.099c0.051 0.512 0.307 0.973 0.307 1.536v0.256l70.448 65.942c4.579 4.249 7.435 10.3 7.435 17.017 0 11.438-8.28 20.943-19.174 22.846l-0.139 0.020-43.211 7.628c50.378 188.765 222.35 328.432 426.782 328.432v-116.372c0-25.701 20.837-46.538 46.538-46.538h110.535l-59.338-79.151c-2.898-3.817-4.642-8.648-4.642-13.886 0-3.806 0.921-7.397 2.552-10.562l-0.061 0.129zM930.923 680.769h-186.205v186.154h186.205v-186.154z" />
<glyph unicode="&#xe605;" glyph-name="BI" data-tags="BI" horiz-adv-x="1219" d="M998.185 704.717l-154.89-283.966c28.683 0 54.498-8.605 77.444-20.079l149.155 272.493c-25.816 5.737-51.63 14.342-71.71 31.552zM731.429 377.725l-111.866 80.315c-14.342-22.947-34.42-40.157-57.367-54.498l123.339-88.92c11.473 22.948 25.815 45.894 45.894 63.104zM352.807 435.092l-154.891-197.916c22.947-11.473 45.894-25.815 63.104-45.893l157.759 200.784c-25.815 8.605-48.762 22.947-65.972 43.025zM111.866 816.583c0 17.21 14.341 31.551 31.551 31.551h783.060c0 25.816 8.604 48.762 20.078 68.84h-803.138c-57.367 2.871-103.26-43.024-103.26-100.39v-590.88c20.078 11.473 45.893 20.079 68.84 20.079v570.8zM1092.84 673.165v-610.958c0-17.21-14.341-31.552-31.551-31.552h-757.244c-5.737-25.815-17.21-48.761-34.42-68.84h791.664c57.366 0 103.26 45.894 103.26 103.26v619.565c-20.078-8.605-43.025-14.342-71.709-11.474 2.869-2.868 2.869 0 0 0zM1092.84 960c-68.84 0-126.207-57.367-126.207-126.207s57.367-126.208 126.207-126.208 126.208 57.367 126.208 126.208-57.368 126.207-126.208 126.207zM1092.84 790.768c-22.946 0-43.025 20.078-43.025 43.025s20.079 43.025 43.025 43.025 43.026-20.079 43.026-43.025-20.079-43.025-43.026-43.025zM840.426 148.258c68.84 0 126.207 57.367 126.207 126.207s-57.367 126.207-126.207 126.207-126.208-57.367-126.208-126.207 57.367-126.207 126.208-126.207zM840.426 317.49c22.947 0 43.025-20.078 43.025-43.025s-20.078-43.025-43.025-43.025-43.025 20.078-43.025 43.025 20.078 43.025 43.025 43.025zM479.014 647.35c-68.84 0-126.207-57.367-126.207-126.207s57.367-126.207 126.207-126.207 126.207 57.367 126.207 126.207-57.367 126.207-126.207 126.207zM479.014 480.986c-22.947 0-43.025 20.078-43.025 43.025s20.078 43.025 43.025 43.025 43.025-20.078 43.025-43.025-20.078-43.025-43.025-43.025zM126.207 185.546c-68.84 0-126.207-54.498-126.207-123.339s57.367-126.207 126.207-126.207 126.208 57.367 126.208 126.207-57.367 123.34-126.208 123.34zM126.207 19.182c-22.946 0-43.025 20.079-43.025 43.025s20.079 43.025 43.025 43.025 43.025-20.078 43.025-43.025-20.078-43.025-43.025-43.025z" />
<glyph unicode="&#xe62b;" glyph-name="uniE" data-tags="uniE" d="M934.56 633.856c0.552 2.393 0.868 5.141 0.868 7.962 0 20.412-16.548 36.96-36.96 36.96-3.591 0-7.062-0.512-10.345-1.467l0.261 0.065-3.584 3.584-485.792-503.904-250.624 250.624c-6.608 6.699-15.785 10.848-25.931 10.848-0.064 0-0.127 0-0.191 0h0.010c-20.403-0.059-36.92-16.613-36.92-37.024 0-10.206 4.13-19.448 10.809-26.145l277.151-277.151c7.008-7.008 16.224-10.848 26.112-10.848 4.768 0 9.472 0.928 13.824 2.656l2.912-1.632 522.496 541.952-4.096 3.488z" />
<glyph unicode="&#xe8ff;" glyph-name="addproject" data-tags="addproject" d="M468.892 715.84l-63.044 119.227h-328.165v-774.652h368.684c-9.062 19.030-16.441 38.966-21.878 59.549h-290.883v536.327h782.031v-197.158c7.249-6.473 15.017-12.039 21.748-19.159 12.816-13.722 23.82-28.609 34.046-44.144v320.010h-502.54zM133.606 775.518h239.748l31.457-59.549h-271.206v59.549zM747.994 239.191h111.719v-59.549h-111.719v-119.227h-55.924v119.227h-111.719v59.549h111.719v119.227h55.924v-119.227zM720.162 477.515c-138.775 0-251.399-120.004-251.399-268.099s112.495-268.228 251.27-268.228c138.904 0 251.399 120.004 251.399 268.099 0 71.070-26.409 139.292-73.53 189.65s-111.071 78.578-177.74 78.578zM720.032 0.866c-107.835 0.259-195.216 93.466-195.346 208.55 0.129 115.214 87.511 208.421 195.475 208.68 52.17 0 101.362-21.748 138.257-61.102 37.024-39.354 57.219-91.783 57.219-147.577-0.129-115.214-87.64-208.55-195.605-208.55z" />
<glyph unicode="&#xe901;" glyph-name="workflow1" data-tags="workflow1" d="M1003.52 162.304c-12.698 4.966-20.736 20.582-36.198 18.381-39.27-5.632-41.779 16.077-40.858 47.309 2.048 69.376 0.102 138.803 0.87 208.23 0.358 36.147-16.486 50.432-51.763 50.176-97.69-0.87-195.43 1.024-293.069-1.229-30.208-0.717-39.117 9.011-34.355 36.506 0.205 1.28 0 2.56 0 3.891 0.717 35.84-11.52 81.152 5.837 104.96 16.742 23.040 64.768 6.144 98.97 7.322 29.952 1.024 46.592 14.848 46.95 44.032 0.922 71.987 0.102 143.974 0.358 215.962 0.102 18.176-12.339 29.696-20.685 43.52h-339.456c-16.128-17.92-21.658-38.554-21.197-62.822 1.126-61.645-0.051-123.392 0.512-185.037 0.461-43.366 11.981-54.272 54.938-55.296 2.56-0.051 5.12 0.154 7.68-0.051 29.030-2.56 78.336 11.366 83.456-6.042 12.39-42.65 6.554-91.187 4.608-137.216-0.666-15.872-18.944-8.499-28.979-8.55-96.358-0.563-192.717-0.307-289.126-0.358-48.845 0-59.238-9.933-59.392-57.549-0.154-73.216-0.614-146.483 0.358-219.75 0.256-19.302-4.096-29.594-25.293-26.675-20.634 2.867-35.84-9.114-51.507-19.763v-185.088l23.142-23.142h223.693c14.131 17.408 19.814 36.966 19.149 59.648-1.126 38.502 0.256 77.056-0.512 115.507-0.819 41.472-11.315 51.302-53.453 52.89-59.494 2.15-59.494 2.15-59.494 61.286 0 47.514 0.819 95.027-0.358 142.49-0.41 18.534 5.581 24.064 23.962 23.859 86.016-0.819 172.032-0.768 258.048 0 17.203 0.154 21.658-5.734 21.504-22.118-0.387-26.92-0.608-58.695-0.608-90.522 0-31.831 0.221-63.61 0.66-95.337l-0.053 4.815c0.205-17.254-3.277-24.064-22.886-25.088-91.75-4.608-91.648-5.427-91.648-99.533 0-21.862 1.126-43.725-0.358-65.434-1.638-24.422 4.915-45.005 21.76-62.464h262.246c16.845 17.459 22.835 38.042 21.811 62.464-1.536 35.84-0.051 71.834-0.512 107.776-0.512 45.568-11.571 56.576-56.832 57.805-57.242 1.536-57.242 1.536-57.242 59.136 0 47.514 0.87 95.027-0.512 142.49-0.512 19.814 4.762 26.419 25.549 26.112 84.685-1.126 169.421-0.922 254.157-0.102 18.432 0.205 24.218-5.325 23.962-23.808-1.024-60.365-1.126-120.73 0-181.043 0.358-19.814-8.243-22.426-25.19-23.194-88.32-3.891-88.32-4.352-88.32-94.874 0-23.040 0.973-46.234-0.307-69.274-1.229-23.859 3.738-45.056 19.149-63.488h223.693l23.091 23.142v185.088z" />
<glyph unicode="&#xe902;" glyph-name="exchange" data-tags="exchange" d="M44.867 635.996h86.246c2.115 86.912 34.596 158.705 103.163 212.398 54.006 42.312 116.511 55.357 184.31 50.12v-105.216c-2.365 0-4.582 0.092-6.799 0-18.053-0.783-36.244-0.404-54.093-2.703-27.802-3.584-51.871-16.348-72.796-34.806-26.45-23.332-43.039-52.552-50.314-86.932-2.212-10.455-2.836-21.233-4.26-32.44h78.024c-44.411-51.917-87.967-102.83-131.912-154.179-43.832 51.231-87.327 102.067-131.569 153.759zM485.852 5.873c-9.108-6.907-19.63-9.523-30.822-9.533-111.043-0.036-222.085-0.108-333.123 0.026-24.914 0.036-42.578 13.44-48.968 36.598-1.275 4.618-1.736 9.615-1.736 14.418-0.097 98.678-0.097 197.376-0.067 296.064 0.015 24.924 13.379 43.039 36.721 49.418 5.12 1.388 10.655 1.736 15.985 1.751 54.83 0.108 109.655 0.092 164.475 0.092 54.994 0 109.998-0.031 165.002 0 12.308 0 23.767-2.611 33.638-10.481 11.238-8.97 17.254-20.644 18.401-34.903 0.154-1.884 0.184-3.809 0.184-5.734 0.010-98.673-0.015-197.361 0.046-296.054 0.015-17.091-5.944-31.201-19.738-41.661zM526.449 511.191c-13.338 10.030-19.763 23.675-19.799 40.064-0.108 99.732-0.148 199.46 0.036 299.203 0.036 24.033 14.213 41.964 37.228 47.933 4.808 1.249 9.979 1.541 14.981 1.556 110.008 0.087 220.001 0.051 329.999 0.067 21.079 0 37.76-8.013 47.002-27.535 3.139-6.702 4.92-14.684 4.951-22.088 0.312-99.727 0.271-199.455 0.159-299.187-0.031-23.782-13.778-41.585-36.69-47.811-5.12-1.388-10.66-1.7-16.010-1.7-54.81-0.123-109.64-0.072-164.47-0.072h-164.982c-11.761 0.010-22.804 2.365-32.404 9.569zM904.97 259.497c-2.519-90.404-37.228-164.045-110.449-217.61-52.618-38.497-112.671-49.731-177.070-44.826v105.329c10.25 0 20.311-0.379 30.341 0.087 11.428 0.548 23.060 0.748 34.212 3.011 42.24 8.591 74.619 32.020 97.838 68.019 16.63 25.743 24.612 54.246 25.129 85.54h-77.46c44.58 52.086 88.131 102.989 132.081 154.348 43.909-51.308 87.398-102.149 131.702-153.902l-86.323 0.005z" />
<glyph unicode="&#xe903;" glyph-name="schedule" data-tags="schedule" d="M703.13 737.562c-162.829 0-295.283-130.97-295.283-291.981s132.454-291.981 295.283-291.981c162.803 0 295.27 130.982 295.27 291.994s-132.467 291.968-295.27 291.968zM703.13 223.68c-123.75 0-224.422 99.546-224.422 221.914 0 122.355 100.672 221.901 224.422 221.901 123.738 0 224.397-99.546 224.397-221.901 0-122.368-100.659-221.914-224.397-221.914zM53.043 819.2h917.901c22.234 0 40.256 17.203 40.256 38.4s-18.022 38.4-40.256 38.4h-917.901c-22.234 0-40.243-17.203-40.243-38.4s18.010-38.4 40.243-38.4zM807.053 479.846h-68.506v93.427c0 19.354-15.846 35.034-35.43 35.034s-35.443-15.693-35.443-35.034v-128.461c0-19.354 15.859-35.034 35.443-35.034h103.923c19.571 0 35.456 15.693 35.456 35.034s-15.872 35.034-35.443 35.034zM53.043 614.4h290.163c14.728 29.307 32.072 54.553 52.34 77.12l-0.282-0.32h-342.221c-22.234 0-40.243-17.203-40.243-38.4s18.010-38.4 40.243-38.4zM53.043 204.8h342.221c-19.981 22.248-37.324 47.494-51.15 74.821l-0.908 1.979h-290.163c-22.234 0-40.243-17.203-40.243-38.4s18.010-38.4 40.243-38.4zM970.944 76.8h-917.901c-22.234 0-40.243-17.203-40.243-38.4s18.010-38.4 40.243-38.4h917.901c22.234 0 40.256 17.203 40.256 38.4s-18.022 38.4-40.256 38.4zM53.043 409.6h256.333c-1.395 12.608-2.176 25.408-2.176 38.4s0.781 25.792 2.176 38.4h-256.333c-22.234 0-40.243-17.203-40.243-38.4s18.010-38.4 40.243-38.4z" />
<glyph unicode="&#xe904;" glyph-name="export" data-tags="export" d="M375.616 755.456c9.088 0 17.696 3.552 24.128 10.016l78.304 78.304v-600.448c0-18.857 15.287-34.144 34.144-34.144s34.144 15.287 34.144 34.144v0 600.448l78.304-78.368c6.11-5.811 14.393-9.385 23.512-9.385 18.857 0 34.144 15.287 34.144 34.144 0 9.142-3.593 17.446-9.445 23.574l-136.531 136.563c-6.256 6.008-14.768 9.707-24.144 9.707s-17.888-3.699-24.156-9.718l0.012 0.011-136.576-136.576c-6.117-6.178-9.896-14.68-9.896-24.064 0-18.828 15.211-34.103 34.014-34.207h0.010zM967.456 732.736h-364.224c-18.857 0-34.144-15.287-34.144-34.144s15.287-34.144 34.144-34.144v0h352.8v-68.288h-352.8c-18.857 0-34.144-15.287-34.144-34.144s15.287-34.144 34.144-34.144v0h261.76v-523.552h-705.632v523.552h261.76c18.857 0 34.144 15.287 34.144 34.144s-15.287 34.144-34.144 34.144h-352.8v68.288h352.8c18.857 0 34.144 15.287 34.144 34.144s-15.287 34.144-34.144 34.144v0h-364.224c-31.408-0.036-56.86-25.488-56.896-56.892v-91.044c0-31.424 25.536-56.96 56.896-56.96h34.144v-534.88c0-31.424 25.536-56.96 56.896-56.96h728.384c31.431 0.036 56.896 25.524 56.896 56.96 0 0 0 0 0 0v0 534.88h34.144c31.408 0.036 56.86 25.488 56.896 56.892v91.108c0 31.4-25.437 56.86-56.829 56.896h-0.003z" />
<glyph unicode="&#xe905;" glyph-name="download" data-tags="download" horiz-adv-x="1126" d="M413.504 560.384c-20.665-0.063-37.394-16.83-37.394-37.504 0-10.313 4.163-19.654 10.9-26.434l149.822-149.822c6.777-6.788 16.146-10.988 26.496-10.988s19.718 4.199 26.495 10.987l149.825 149.825c5.954 6.611 9.595 15.407 9.595 25.053 0 20.713-16.791 37.504-37.504 37.504-9.63 0-18.413-3.63-25.054-9.596l0.035 0.031-85.952-85.952v459.072c0 20.608-16.768 37.44-37.44 37.44s-37.44-16.832-37.44-37.44v-459.008l-85.952 85.888c-6.734 6.761-16.052 10.944-26.346 10.944-0.030 0-0.060 0-0.091 0h0.005zM1126.912 328.704l-255.36 510.656-5.824 11.072-1.856-0.96c-6.848 6.72-16 10.56-25.792 10.56h-174.848c-20.672 0-37.44-16.832-37.44-37.44s16.832-37.44 37.44-37.44h151.68l212.288-424.576h-289.024c-20.672 0-37.44-16.832-37.44-37.44 0-75.712-61.632-137.344-137.344-137.344s-137.344 61.632-137.344 137.344c0 20.672-16.832 37.44-37.44 37.44h-289.152l212.288 424.576h151.68c20.036 0.854 35.955 17.304 35.955 37.472s-15.919 36.618-35.878 37.469l-0.077 0.003h-174.848c-9.792 0-19.008-3.904-25.792-10.56l-2.112 1.024-255.36-510.72-5.312-11.264 1.664-0.832c-0.164-1.307-0.257-2.821-0.257-4.356 0-0.089 0-0.177 0.001-0.266v0.014-349.632c0-20.672 16.768-37.504 37.44-37.504h1048.96c20.672 0 37.44 16.832 37.44 37.44v349.696c0 1.536-0.128 3.072-0.32 4.608l1.984 0.96zM1050.368 285.632v-274.752h-974.080v274.752h278.208c17.856-100.416 105.792-174.848 208.832-174.848s190.912 74.432 208.832 174.848h278.208z" />
<glyph unicode="&#xe906;" glyph-name="quit" data-tags="quit" d="M543.040 246.272c-25.664 0-46.528-20.864-46.528-46.528v-170.688h-403.392v837.824h403.392v-170.688c0-25.664 20.864-46.528 46.528-46.528s46.528 20.864 46.528 46.528v217.28c0 25.664-20.864 46.528-46.528 46.528h-496.512c-25.664 0-46.528-20.864-46.528-46.528v-930.88c0-25.728 20.864-46.592 46.528-46.592h496.512c25.664 0 46.528 20.864 46.528 46.528v217.216c0 25.664-20.864 46.528-46.528 46.528zM1010.368 480.896l-248.256 248.256c-8.27 7.645-19.37 12.334-31.566 12.334-25.714 0-46.56-20.846-46.56-46.56 0-12.195 4.689-23.296 12.362-31.597l-0.028 0.031 168.768-168.768h-570.304c-25.714 0-46.56-20.846-46.56-46.56s20.846-46.56 46.56-46.56v0h570.304l-168.768-168.768c-7.645-8.27-12.334-19.37-12.334-31.566 0-25.714 20.846-46.56 46.56-46.56 12.195 0 23.296 4.689 31.597 12.362l-0.031-0.028 248.256 248.256c8.768 8.704 13.632 20.416 13.632 32.832s-4.864 24.128-13.632 32.896z" />
<glyph unicode="&#xe907;" glyph-name="search" data-tags="search" d="M1010.944 12.032l-221.376 221.376c62.708 75.915 100.758 174.214 100.8 281.398v0.010c0.064 245.44-199.68 445.184-445.12 445.184s-445.248-199.744-445.248-445.248 199.744-445.248 445.248-445.248c102.72 0 201.856 35.648 281.408 100.8l221.312-221.312c7.951-7.466 18.682-12.053 30.484-12.053 24.619 0 44.576 19.957 44.576 44.576 0 11.818-4.599 22.562-12.105 30.54l0.021-0.023zM445.248 158.592c-196.416 0-356.16 159.808-356.16 356.224s159.808 356.16 356.16 356.16 356.16-159.808 356.16-356.16c0-196.416-159.808-356.224-356.16-356.224z" />
<glyph unicode="&#xe908;" glyph-name="undo" data-tags="undo" d="M325.809 820.535v116.155c0 0.004 0 0.009 0 0.015 0 12.865-10.429 23.295-23.295 23.295-6.42 0-12.234-2.597-16.448-6.799l0.001 0.001-279.283-255.988c-4.193-4.217-6.785-10.029-6.785-16.447 0-6.45 2.618-12.288 6.849-16.511v0l279.219-255.988c4.212-4.255 10.054-6.889 16.511-6.889 12.83 0 23.231 10.401 23.231 23.231 0 0.037 0 0.074 0 0.111v-0.006 114.107c49.47-2.752 172.28-15.295 307.058-72.061 229.109-96.508 344.496-267.252 344.496-507.497 0.018-12.852 10.441-23.263 23.295-23.263 12.865 0 23.295 10.43 23.295 23.295 0 0.011 0 0.022 0 0.034v-0.002c0 764.125-575.013 851.353-698.144 861.208z" />
<glyph unicode="&#xe909;" glyph-name="redo" data-tags="redo" d="M1017.201 697.205l-279.292 255.996c-4.213 4.201-10.027 6.798-16.448 6.798-12.866 0-23.296-10.43-23.296-23.296 0-0.005 0-0.010 0-0.015v0.001-116.222c-123.134-9.792-698.166-97.023-698.166-861.171 0-12.866 10.43-23.296 23.296-23.296s23.296 10.43 23.296 23.296v0c0 240.252 115.454 411.002 344.571 507.513 134.782 56.767 257.66 69.247 307.067 72.063v-114.11c0.028-12.845 10.447-23.246 23.296-23.246 6.421 0 12.235 2.598 16.448 6.799l-0.001-0.001 279.228 255.996c4.191 4.192 6.784 9.984 6.784 16.38 0 0.001 0 0.002 0 0.004v0c-0.011 6.436-2.599 12.266-6.787 16.515l0.003-0.003z" />
<glyph unicode="&#xe90a;" glyph-name="format" data-tags="format" horiz-adv-x="1293" d="M497.216 461.184l-260.608 260.608c-3.372 3.379-8.034 5.47-13.184 5.47-10.274 0-18.604-8.319-18.624-18.588v-167.554h-130.304c-41.143 0-74.496-33.353-74.496-74.496v0-37.248c0-41.143 33.353-74.496 74.496-74.496v0h130.304v-167.552c0-0.032 0-0.070 0-0.108 0-10.268 8.324-18.592 18.592-18.592 5.169 0 9.845 2.109 13.215 5.514l260.674 260.61c3.303 3.406 5.34 8.057 5.34 13.183 0 5.159-2.062 9.836-5.407 13.252l0.003-0.003zM968.128 122.176h-325.824c-25.728 0-46.528-20.864-46.528-46.528v-93.12c0-25.728 20.864-46.528 46.528-46.528h325.824c25.728 0 46.528 20.864 46.528 46.528v93.12c0 25.664-20.8 46.528-46.528 46.528zM642.304 494.528h325.824c25.728 0 46.528 20.864 46.528 46.528v93.12c0 25.728-20.864 46.528-46.528 46.528h-325.824c-25.728 0-46.528-20.864-46.528-46.528v-93.12c0-25.664 20.864-46.528 46.528-46.528zM1247.424 960h-605.056c-25.728 0-46.592-20.864-46.592-46.528v-93.12c0-25.728 20.864-46.528 46.528-46.528h605.056c25.728 0 46.528 20.864 46.528 46.528v93.12c0 0.028 0 0.062 0 0.096 0 25.644-20.788 46.432-46.432 46.432-0.011 0-0.023 0-0.034 0h0.002zM1247.424 401.472h-605.056c-25.728 0-46.528-20.864-46.528-46.528v-93.056c0-25.728 20.864-46.528 46.528-46.528h605.056c25.728 0 46.528 20.8 46.528 46.528v92.992c0 25.728-20.8 46.592-46.528 46.592z" />
<glyph unicode="&#xe90b;" glyph-name="play" data-tags="play" d="M64 960l886.784-512-886.784-512z" />
<glyph unicode="&#xe90c;" glyph-name="stop" data-tags="stop" d="M0 960h1024v-1024h-1024v1024z" />
<glyph unicode="&#xe90d;" glyph-name="save" data-tags="save" d="M844.8 960h-25.6v-307.2c0-28.277-22.923-51.2-51.2-51.2v0h-512c-28.277 0-51.2 22.923-51.2 51.2v0 307.2h-153.6c-28.277 0-51.2-22.923-51.2-51.2v0-921.6c0-28.277 22.923-51.2 51.2-51.2v0h51.2v460.8c0 28.277 22.923 51.2 51.2 51.2h716.8c28.277 0 51.2-22.923 51.2-51.2v0-460.8h51.2c28.277 0 51.2 22.923 51.2 51.2v0 793.6l-179.2 179.2zM153.6-64h716.8v460.8h-716.8v-460.8zM768 960h-512v-307.2h512v307.2zM716.8 704h-102.4v204.8h102.4v-204.8z" />
<glyph unicode="&#xe90e;" glyph-name="disconnect" data-tags="disconnect" d="M528.128 633.952c0-21.915-17.765-39.68-39.68-39.68v0c-21.504 0-39.072 18.176-39.072 39.68 0 23.712 4.768 46.944 13.984 69.888 9.223 22.736 22.448 42.091 38.962 58.068l0.046 0.044v0.512l72.096 72.096 2.208 1.696 69.792 70.656c16.611 16.237 36.258 29.451 57.999 38.702l1.233 0.466c22.112 9.12 45.92 13.92 69.376 13.92s46.944-4.768 69.28-13.92c21.76-9.216 42.496-22.112 58.976-39.168l33.536-33.536h0.256l33.536-33.536 2.208-2.56c15.253-15.92 27.623-34.748 36.176-55.548l0.432-1.188c9.728-22.368 13.92-46.080 13.92-69.28 0-23.712-4.192-47.52-13.92-69.536-9.147-22.943-22.313-42.499-38.792-58.697l-0.024-0.023-72.096-72.288-72.096-72.096-2.72-2.208c-16.224-16.48-35.744-28.256-56.48-37.12-20.458-8.761-44.257-13.894-69.245-13.984h-0.035c-0.001 0-0.003 0-0.005 0-21.579 0-39.072 17.493-39.072 39.072 0 0.214 0.002 0.427 0.005 0.64v-0.032c0 21.76 17.312 39.424 39.072 39.424 13.92 0 27.392 2.56 39.68 7.84 12.273 4.903 22.77 11.804 31.605 20.405l-0.021-0.021 1.44 1.696 72.096 72.032v-0.256l72.096 72.352c10.080 9.472 17.92 20.896 22.368 33.28 4.919 11.732 7.796 25.364 7.84 39.663v0.017c0 13.408-2.816 27.136-7.84 39.68-5.206 12.028-12.157 22.322-20.666 31.098l0.026-0.026-1.792 2.048-33.536 33.536-31.584 31.328-1.952 2.304c-9.331 8.928-20.22 16.324-32.204 21.724l-0.724 0.292c-11.736 4.862-25.358 7.732-39.637 7.84h-0.043c-13.664 0-27.392-2.816-39.936-7.84-11.52-5.28-22.688-12.288-32.768-22.016h-0.512l-69.888-70.496-1.632-1.888-72.096-72.096v0.256c-9.562-9.214-17.158-20.396-22.145-32.902l-0.223-0.634c-4.918-11.706-7.776-25.311-7.776-39.584 0-0.034 0-0.067 0-0.101v0.005zM763.296 290.304c-12.994 0.179-23.458 10.755-23.458 23.774 0 0.102 0.001 0.204 0.002 0.306v-0.015c0 12.288 10.656 23.2 23.456 23.2h126.304c12.8 0 23.456-10.912 23.456-23.2 0.001-0.086 0.002-0.188 0.002-0.29 0-13.019-10.464-23.594-23.441-23.774h-126.321zM311.2 681.984c4.269-4.302 6.907-10.227 6.907-16.768s-2.638-12.466-6.908-16.77l0.001 0.002c-4.302-4.269-10.227-6.907-16.768-6.907s-12.466 2.638-16.77 6.908l0.002-0.001-88.832 89.44c-4.269 4.254-6.911 10.138-6.911 16.64s2.642 12.386 6.91 16.639l0.001 0.001c4.302 4.269 10.227 6.907 16.768 6.907s12.466-2.638 16.77-6.908l-0.002 0.001 88.832-89.184zM712.448 214.272c-4.158 4.351-6.717 10.261-6.717 16.768s2.559 12.417 6.726 16.777l-0.009-0.009c4.186 4.273 10.016 6.922 16.464 6.922s12.278-2.649 16.46-6.918l89.444-89.444c4.428-4.227 7.181-10.176 7.181-16.768s-2.753-12.541-7.172-16.759l-0.009-0.009c-4.305-4.157-10.173-6.718-16.64-6.718s-12.335 2.561-16.647 6.724l0.007-0.007-89.088 89.44zM401.248 699.552c-0.127-12.805-10.536-23.136-23.359-23.136-0.034 0-0.068 0-0.102 0h0.005c-0.049 0-0.106-0.001-0.164-0.001-12.861 0-23.315 10.309-23.548 23.115v126.326c0 12.896 10.912 23.2 23.712 23.2s23.456-10.336 23.456-23.2v-126.304zM622.24 196.704c0 12.8 10.912 23.712 23.712 23.712 13.408 0 23.456-10.912 23.456-23.712v-126.56c0-12.8-10.080-23.2-23.456-23.2-0.048 0-0.105-0.001-0.163-0.001-12.884 0-23.351 10.345-23.549 23.182v126.579zM260.448 606.048c12.8 0 23.456-10.592 23.456-23.456s-10.656-23.808-23.456-23.808h-126.304c-12.896 0-23.456 10.912-23.456 23.808s10.592 23.456 23.456 23.456h126.304zM495.712 262.048c0-13.408-2.56-27.392-7.84-39.584-5.226-12.95-12.723-23.981-22.091-33.099l-0.021-0.021-143.872-144.384c-10.336-9.824-21.76-16.992-32.928-22.112-12.8-5.28-26.272-7.84-40.192-7.84-13.408 0-27.392 2.464-39.68 7.84-12.823 5.392-23.763 12.864-32.921 22.105l-0.007 0.007-33.632 33.536-33.536 33.536-1.696 1.952c-8.566 8.672-15.53 18.95-20.397 30.337l-0.243 0.639c-4.759 11.653-7.521 25.174-7.521 39.34 0 0.119 0 0.239 0.001 0.358v-0.018c0 13.984 2.56 27.392 7.584 39.68 4.768 12.032 12.032 23.712 22.368 33.28l72.096 72.352 72.096 72.096 1.12 1.376c9.089 8.366 19.602 15.375 31.099 20.595l0.741 0.301c11.641 4.799 25.157 7.585 39.323 7.585 0.126 0 0.251 0 0.377-0.001h-0.019c21.504 0 39.072 17.568 39.072 39.072 0 22.112-17.568 39.68-39.072 39.68-23.456 0-47.2-4.768-69.28-13.984-22.102-8.956-40.99-21.517-56.853-37.141l0.021 0.021-2.56-1.952-72.032-72.352-72.096-72.096c-16.351-16.331-29.557-35.808-38.633-57.445l-0.439-1.179c-8.788-20.647-13.922-44.66-13.984-69.864v-0.024c0-23.2 4.768-46.944 13.984-69.024 8.96-20.64 20.64-39.936 36.864-56.736l2.208-2.464 34.048-33.536 33.024-33.536h0.512c16.407-16.195 35.747-29.467 57.143-38.94l1.225-0.484c20.585-8.522 44.472-13.607 69.508-13.919l0.124-0.001c25.115 0.199 48.986 5.295 70.778 14.379l-1.242-0.459c22.811 10.034 42.338 23.299 59.027 39.474l-0.051-0.050 69.792 70.656 2.208 1.44 71.776 72.352c16.84 16.139 30.249 35.711 39.122 57.608l0.398 1.112c8.842 20.43 13.984 44.221 13.984 69.213 0 0.114 0 0.227 0 0.341v-0.018c0 21.856-17.312 39.424-39.328 39.424-0.019 0-0.042 0-0.064 0-21.738 0-39.36-17.622-39.36-39.36 0-0.023 0-0.045 0-0.068v0.004z" />
<glyph unicode="&#xe90f;" glyph-name="warn" data-tags="warn" horiz-adv-x="1026" d="M1026.046 448.609c0-282.463-229.887-513.439-514.655-512.607-210.406 0.722-390.938 127.869-469.66 309.413l-1.283 3.322c-25.571 58.75-40.448 127.191-40.448 199.106 0 0.258 0 0.515 0.001 0.773v-0.040c0 282.367 229.791 512.255 515.071 511.391 283.647-0.768 510.975-229.791 510.975-511.391zM513.023 132.194c31.136 0 57.44 25.44 57.44 57.088 0 31.136-26.272 56.992-57.44 56.992-31.502 0-57.040-25.538-57.040-57.040s25.538-57.040 57.040-57.040v0zM455.935 348.257c0.163-31.334 25.602-56.672 56.959-56.672 0.045 0 0.091 0 0.136 0h-0.007c31.136 0 57.44 25.44 57.44 56.672v358.495c0 0.019 0 0.042 0 0.064 0 31.688-25.688 57.376-57.376 57.376-0.023 0-0.045 0-0.068 0h0.004c-31.584 0-57.088-25.184-57.088-57.44v-358.495zM515.071 846.752c-222.56 0.768-400.991-178.848-400.991-398.175 0-55.456 11.36-107.616 31.136-155.392 62.343-143.563 202.669-242.254 366.107-242.783h0.068c162.656-0.768 307.455 95.488 369.823 242.783 19.593 45.894 30.983 99.289 30.983 155.344s-11.39 109.45-31.983 157.997l1-2.653c-61.536 145.664-204.8 242.015-366.175 242.847z" />
<glyph unicode="&#xe910;" glyph-name="expand-right" data-tags="expand-right" d="M762.497 482.076l-439.241 463.654c-8.688 8.084-20.376 13.046-33.223 13.046-26.966 0-48.826-21.86-48.826-48.826 0-12.624 4.791-24.129 12.654-32.796l-0.036 0.041 406.541-429.162-406.029-428.65c-8.816-8.832-14.267-21.025-14.267-34.492 0-26.931 21.804-48.77 48.722-48.826h0.005c12.958 0 25.149 5.055 34.972 14.782l438.377 462.726c8.759 8.794 14.174 20.924 14.174 34.319 0 0.049 0 0.099 0 0.148v-0.008c0.001 0.131 0.002 0.286 0.002 0.441 0 13.096-5.28 24.958-13.827 33.574l0.003-0.003z" />
<glyph unicode="&#xe911;" glyph-name="cross" data-tags="cross" horiz-adv-x="1027" d="M587.996 448.045l418.64 418.64c10.809 9.867 17.564 24.018 17.564 39.746 0 29.687-24.066 53.754-53.754 53.754-15.672 0-29.778-6.707-39.604-17.408l-0.035-0.039-418.735-418.735-418.735 418.735c-9.498 8.622-22.169 13.9-36.072 13.9-29.687 0-53.754-24.066-53.754-53.754 0-13.903 5.278-26.573 13.94-36.116l-0.040 0.045 418.735-418.735-418.64-418.64c-10.809-9.867-17.564-24.018-17.564-39.746 0-29.687 24.066-53.754 53.754-53.754 15.672 0 29.778 6.707 39.604 17.408l0.035 0.039 418.735 418.735 418.735-418.735c9.715-9.742 23.151-15.769 37.994-15.769 29.634 0 53.658 24.023 53.658 53.658 0 0.026 0 0.052 0 0.077v-0.004c0 14.387-5.615 27.977-15.727 37.962l-418.735 418.735z" />
<glyph unicode="&#xe912;" glyph-name="tick" data-tags="tick" horiz-adv-x="1472" d="M1465.12 878.816c0.905 4.028 1.423 8.654 1.423 13.402 0 35.24-28.568 63.808-63.808 63.808-6.123 0-12.044-0.862-17.65-2.472l0.45 0.111-6.176 6.304-838.144-869.28-432.416 432.416c-11.255 10.155-26.237 16.367-42.671 16.367-35.24 0-63.808-28.568-63.808-63.808 0-16.434 6.213-31.416 16.417-42.728l-0.050 0.056 478.208-478.208c11.54-11.536 27.481-18.671 45.088-18.671 8.591 0 16.784 1.698 24.264 4.778l-0.424-0.155 4.96-2.912 901.376 935.072-7.040 5.952z" />
<glyph unicode="&#xe913;" glyph-name="dir-fold" data-tags="dir-fold" d="M762.336 595.936c-4.512 0-8.992-0.928-13.184-2.752l-1.408 1.536-235.744-214.336-235.2 213.536-1.152-1.12c-4.085 1.959-8.88 3.104-13.942 3.104-0.003 0-0.007 0-0.010 0h0.001c-18.816 0-34.112-15.328-34.112-34.112 0-5.856 1.504-11.456 4.32-16.48l-1.216-1.504 267.264-242.72 1.312 1.536c3.764-1.606 8.143-2.54 12.74-2.54 4.937 0 9.623 1.077 13.835 3.009l-0.207-0.085 1.344-1.344 267.040 242.976-1.44 1.44c2.56 4.8 3.904 10.112 3.904 15.68 0 18.848-15.328 34.176-34.112 34.176zM921.6 960h-819.2c-56.525-0.073-102.327-45.875-102.4-102.393v-819.207c0-56.448 45.952-102.4 102.4-102.4h819.2c56.448 0 102.4 45.952 102.4 102.4v819.2c0 56.448-45.952 102.4-102.4 102.4zM955.712 857.6v-819.2c0-18.816-15.328-34.112-34.112-34.112h-819.2c-18.825 0.036-34.076 15.287-34.112 34.109v819.203c0 18.816 15.328 34.112 34.112 34.112h819.2c18.816 0 34.112-15.328 34.112-34.112z" />
<glyph unicode="&#xe914;" glyph-name="dir-unfold" data-tags="dir-unfold" d="M261.664 300.064c4.512 0 8.992 0.928 13.184 2.752l1.408-1.536 235.744 214.336 235.2-213.536 1.152 1.056c4.384-2.048 9.12-3.104 13.952-3.104 18.816 0 34.112 15.328 34.112 34.112 0 5.856-1.504 11.456-4.32 16.48l1.216 1.504-267.264 242.72-1.312-1.536c-3.771 1.654-8.167 2.617-12.787 2.617-4.926 0-9.596-1.094-13.781-3.053l0.2 0.084-1.344 1.344-267.040-242.976 1.44-1.44c-2.56-4.8-3.904-10.112-3.904-15.68 0-18.848 15.328-34.176 34.112-34.176zM102.4-64h819.2c56.448 0 102.4 45.952 102.4 102.4v819.2c0 56.448-45.952 102.4-102.4 102.4h-819.2c-56.525-0.073-102.327-45.875-102.4-102.393v-819.207c0-56.448 45.952-102.4 102.4-102.4zM68.288 38.4v819.2c0 18.816 15.328 34.112 34.112 34.112h819.2c18.816 0 34.112-15.328 34.112-34.112v-819.2c0-18.816-15.328-34.112-34.112-34.112h-819.2c-18.825 0.036-34.076 15.287-34.112 34.109v0.003z" />
<glyph unicode="&#xe915;" glyph-name="more-things" data-tags="more-things" horiz-adv-x="4160" d="M1319.296 448c0-203.232-164.768-368-368-368s-368 164.768-368 368 164.768 368 368 368 368-164.768 368-368zM2441.952 448c0-203.232-164.768-368-368-368s-368 164.768-368 368 164.768 368 368 368 368-164.768 368-368zM3564.608 448c0-203.232-164.768-368-368-368s-368 164.768-368 368 164.768 368 368 368 368-164.768 368-368z" />
<glyph unicode="&#xe916;" glyph-name="untitled" horiz-adv-x="1025" d="M451.31 430.311l-400.62 190.454c-27.302 10.793-46.265 36.956-46.265 67.549s18.962 56.755 45.774 67.377l0.49 0.171 400.684 190.518c17.89 8.508 38.875 13.476 61.021 13.476s43.131-4.968 61.902-13.851l-0.881 0.375 400.492-190.518c27.259-10.814 46.182-36.956 46.182-67.517s-18.924-56.702-45.693-67.345l-0.49-0.172-400.492-190.582c-38.718-17.983-83.388-17.983-122.042 0z" />
<glyph unicode="&#xe917;" glyph-name="untitled1" horiz-adv-x="1025" d="M512.299 175.54c-29.119 0-57.853 6.656-84.028 19.519l-392.94 195.19c-20.465 8.1-34.677 27.717-34.677 50.653 0 30.007 24.326 54.333 54.333 54.333 10.562 0 20.42-3.014 28.762-8.228l-0.228 0.133 392.556-195.19c22.911-11.135 49.597-11.135 72.444 0l392.94 195.19c8.113 5.081 17.971 8.095 28.533 8.095 30.007 0 54.333-24.326 54.333-54.333 0-22.936-14.212-42.553-34.309-50.524l-0.368-0.129-393.324-195.19c-24.431-12.311-53.249-19.519-83.75-19.519-0.098 0-0.195 0-0.293 0h0.015zM512.299-54.081c-0.082 0-0.18 0-0.278 0-30.501 0-59.319 7.209-84.842 20.015l1.092-0.496-392.94 195.19c-20.465 8.1-34.677 27.717-34.677 50.653 0 30.007 24.326 54.333 54.333 54.333 10.562 0 20.42-3.014 28.762-8.228l-0.228 0.133 392.556-195.19c22.847-11.263 49.597-11.263 72.444 0l392.94 195.19c8.175 5.185 18.13 8.264 28.804 8.264 30.007 0 54.333-24.326 54.333-54.333 0-23.038-14.338-42.727-34.578-50.63l-0.37-0.127-393.324-195.19c-24.465-12.35-53.328-19.583-83.879-19.583-0.052 0-0.104 0-0.156 0h0.008z" />
<glyph unicode="&#xe918;" glyph-name="radio-on" data-tags="radio-on" d="M1024 448c0-282.784-229.216-512-512-512s-512 229.216-512 512 229.216 512 512 512 512-229.216 512-512z" />
<glyph unicode="&#xe91a;" glyph-name="newProject" data-tags="newProject" d="M912.839 823.467c61.326 0 111.161-53.191 111.161-118.556v-650.354c0-65.422-49.835-118.556-111.161-118.556h-801.678c-61.326 0-111.161 53.191-111.161 118.556v786.887c0 65.422 49.835 118.556 111.161 118.556h255.886c42.382 0 80.498-25.145 99.442-65.536l20.252-43.236c7.384-16.349 23.464-27.563 42.186-27.762h383.912zM960 54.556v564.11h-896v-564.11c0-27.705 21.163-50.29 47.218-50.29h801.564c26.055 0 47.218 22.585 47.218 50.29zM64 686.933h896v17.977c0 27.705-21.163 50.29-47.218 50.29h-383.772c-42.382 0-80.498 25.145-99.442 65.536l-20.252 43.236c-7.384 16.349-23.464 27.563-42.186 27.762h-255.969c-25.998 0-47.161-22.585-47.161-50.29v-154.51zM672.028 482.133c17.636 0 31.972-15.303 31.972-34.133s-14.336-34.133-32.028-34.133h-447.886c-17.692 0-32.028 15.303-32.028 34.133s14.336 34.133 32.028 34.133h447.943zM223.915 277.333c-17.636 0-31.972 15.303-31.972 34.133s14.336 34.133 32.028 34.133h256c17.636 0 31.972-15.303 31.972-34.133s-14.336-34.133-32.028-34.133h-256zM607.915 209.067c17.692 0 32.028-15.303 32.028-34.133s-14.336-34.133-32.028-34.133h-384c-17.636 0-31.972 15.303-31.972 34.133s14.336 34.133 32.028 34.133h384z" />
<glyph unicode="&#xe91b;" glyph-name="visualis" data-tags="visualis" d="M470.47 624.29l-127.75-80.65-52.010 40.89-6.040 4.52-6.56-2.82-113.63-48.36 9.58-28.29 106.59 45.53 53-41.46 7.060-5.65 7.56 4.53 133.83 84.62 8.92-19.46 36.94 63.82-66.91 3.37 9.42-20.59zM475.96 546.84h43.34v-137.31h-43.34zM401.070 509.060h43.33v-99.53h-43.33zM326.17 460.87h43.33v-51.34h-43.33zM251.28 492.63h43.33v-83.1h-43.33zM176.38 501.39h43.33v-91.86h-43.33zM757 644.2c-65.66 24.85-139.4-7.46-164.91-72s7-137.17 72.7-162c13.587-5.292 29.315-8.358 45.759-8.358 17.84 0 34.837 3.609 50.301 10.137l-0.85-0.319 3.080 1.27-52.72 114.37zM846.17 510.2c11.14 58.090-21.29 115.76-77.35 137l-45.28-113.93zM779.32 405.62c36.982 16.552 63.976 49.641 71.782 89.597l0.128 0.783-124.49 23.6zM952 226.56v593.75h-880v-593.75h345.61v-97l-20.49-4.78q-11.090-2.59-22.34-4.56c-11-1.93-19.27-10.82-19.5-21.59-0.27-12.64 11-22.89 24.5-22.89h249c0.306-0.014 0.664-0.021 1.024-0.021 8.5 0 15.986 4.343 20.36 10.931l0.056 0.090c2.122 3.235 3.385 7.2 3.385 11.46s-1.263 8.225-3.435 11.54l0.049-0.080c-3.637 5.589-9.418 9.522-16.151 10.641l-0.139 0.019c-6.46 1.11-12.93 2.17-19.31 3.65l-24.22 5.65v96.94zM110.26 271.56v503.77h803.48v-503.79z" />
<glyph unicode="&#xe91c;" glyph-name="Qualitis" data-tags="Qualitis" d="M512 948.676l-429.176-142.999v-429.237c0.034-236.968 192.143-429.056 429.116-429.056 0.021 0 0.042 0 0.063 0h-0.003c0.018 0 0.039 0 0.060 0 236.994 0 429.116 192.122 429.116 429.116 0 0.022 0 0.043 0 0.065v-0.004 428.996l-429.176 143.179zM860.762 376.44c0-192.616-156.146-348.762-348.762-348.762s-348.762 156.146-348.762 348.762v0 368.881l348.762 122.88 348.762-122.88v-368.82zM362.616 489.321c-7.266 7.298-17.321 11.814-28.431 11.814s-21.165-4.516-28.43-11.813l-0.001-0.001c-7.316-7.269-11.844-17.336-11.844-28.461s4.528-21.192 11.842-28.459l146.978-146.977c6.87-6.886 16.37-11.146 26.865-11.146s19.995 4.26 26.864 11.146l249.796 249.798c6.904 6.873 11.177 16.385 11.177 26.895s-4.272 20.022-11.175 26.894l-3.133 3.133c-6.87 6.886-16.37 11.146-26.865 11.146s-19.995-4.26-26.864-11.146l-219.861-219.739-116.856 116.855z" />
<glyph unicode="&#xe91d;" glyph-name="ide" data-tags="ide" horiz-adv-x="1251" d="M1248.288 375.232l0.288 0.128-284.448 568.896-0.288-0.128c-4.653 9.421-14.165 15.802-25.175 15.872h-625.801c-11.019-0.070-20.531-6.451-25.11-15.707l-0.074-0.165-0.288 0.128-284.448-568.896 0.288-0.128c-1.976-3.642-3.174-7.959-3.264-12.548v-398.236c0-15.744 12.704-28.448 28.448-28.448h1194.656c0.009 0 0.021 0 0.032 0 15.694 0 28.416 12.722 28.416 28.416 0 0.011 0 0.022 0 0.034v-0.002 398.208c-0.090 4.617-1.288 8.934-3.337 12.724l0.073-0.148zM330.464 903.104h590.624l256-512h-352.192c-0.009 0-0.021 0-0.032 0-15.694 0-28.416-12.722-28.416-28.416 0-0.011 0-0.022 0-0.034v0.002c0-94.251-76.405-170.656-170.656-170.656s-170.656 76.405-170.656 170.656v0c0 0.009 0 0.021 0 0.032 0 15.694-12.722 28.416-28.416 28.416-0.011 0-0.022 0-0.034 0h-352.19l256 512zM1194.656-7.104h-1137.792v341.344h343.296c14.016-112.224 109.568-199.104 225.6-199.104s211.584 86.912 225.632 199.104h343.264v-341.344z" />
<glyph unicode="&#xe91e;" glyph-name="hivedb-o" data-tags="hivedb-o" d="M933.376 812.096c0 82.912-184.896 147.904-420.96 147.904s-420.96-64.992-420.96-147.904v-182.048c0-15.616 6.496-30.912 19.36-45.504-12.832-14.656-19.36-29.952-19.36-45.536v-182.048c0-15.616 6.496-30.912 19.36-45.504-12.832-14.656-19.36-29.92-19.36-45.536v-182.048c0-82.912 184.896-147.904 420.96-147.904s420.96 64.992 420.96 147.904v182.048c0 15.616-6.496 30.88-19.36 45.504 12.832 14.624 19.36 29.888 19.36 45.504v182.048c0 15.616-6.496 30.88-19.36 45.504 12.832 14.624 19.36 29.888 19.36 45.504v182.112zM159.712 539.040c0 2.304 0.864 4.832 2.56 7.488 77.376-40.416 207.136-64.416 350.176-64.416 143.008 0 272.736 24 350.176 64.416 1.728-2.72 2.56-5.216 2.56-7.488 0-33.28-134.176-79.648-352.704-79.648s-352.768 46.368-352.768 79.648zM159.712 456.8c76.352-40.8 208.48-65.696 352.704-65.696s276.384 24.896 352.704 65.696v-99.84c0-33.28-134.176-79.648-352.704-79.648s-352.704 46.368-352.704 79.648v99.84zM159.712 630.048v99.84c76.352-40.8 208.48-65.696 352.704-65.696s276.384 24.896 352.704 65.696v-99.84c0-33.28-134.176-79.648-352.704-79.648s-352.704 46.368-352.704 79.648zM512.416 732.448c-218.56 0-352.704 46.368-352.704 79.648s134.176 79.648 352.704 79.648 352.704-46.368 352.704-79.648-134.144-79.648-352.704-79.648zM159.712 265.952c0 2.304 0.864 4.832 2.56 7.488 77.376-40.416 207.136-64.416 350.176-64.416 143.008 0 272.736 24 350.176 64.416 1.728-2.72 2.56-5.216 2.56-7.488 0-33.28-134.176-79.648-352.704-79.648s-352.768 46.4-352.768 79.648zM159.712 183.744c76.352-40.8 208.48-65.696 352.704-65.696s276.384 24.896 352.704 65.696v-99.84c0-33.28-134.176-79.648-352.704-79.648s-352.704 46.368-352.704 79.648v99.84z" />
<glyph unicode="&#xe91f;" glyph-name="hivedb" data-tags="hivedb" d="M512.416 960c-236.064 0-420.96-64.992-420.96-147.904v-183.008c0-82.944 184.896-147.904 420.96-147.904s420.96 64.992 420.96 147.904v183.008c0 82.912-184.896 147.904-420.96 147.904zM512.416 391.584c-236.064 0-420.96 64.992-420.96 147.936v-182.976c0-82.944 184.896-147.904 420.96-147.904s420.96 64.992 420.96 147.904v182.976c0-82.944-184.896-147.936-420.96-147.936zM512.416 117.568c-236.064 0-420.96 64.992-420.96 147.904v-181.568c0-82.912 184.896-147.904 420.96-147.904s420.96 64.992 420.96 147.904v181.568c0-82.912-184.896-147.904-420.96-147.904z" />
<glyph unicode="&#xe920;" glyph-name="disk-o" data-tags="disk-o" d="M159.264 834.848c0.010-0.311 0.016-0.677 0.016-1.045 0-18.84-15.272-34.112-34.112-34.112s-34.112 15.272-34.112 34.112c0 0.367 0.006 0.733 0.017 1.098l-0.001-0.053c0.581 18.385 15.624 33.067 34.096 33.067s33.515-14.683 34.095-33.014l0.001-0.053zM273.088 732.448h295.84c25.088 0 45.504 20.416 45.504 45.504s-20.416 45.504-45.504 45.504h-295.84c-24.404-0.944-43.829-20.955-43.829-45.504s19.426-44.56 43.744-45.501l0.086-0.003zM159.264 197.696c0.010-0.311 0.016-0.677 0.016-1.045 0-18.84-15.272-34.112-34.112-34.112s-34.112 15.272-34.112 34.112c0 0.367 0.006 0.733 0.017 1.098l-0.001-0.053c0.581 18.385 15.624 33.067 34.096 33.067s33.515-14.683 34.095-33.014l0.001-0.053zM796.448 890.784l-170.080-218.688c-34.099 9.45-73.255 14.881-113.679 14.881-0.242 0-0.484 0-0.726-0.001h0.037c-181.952 0-329.952-107.2-329.952-238.912s148-238.944 329.952-238.944 329.952 107.2 329.952 238.912c0 42.432-15.712 84.16-45.504 120.832v321.952zM512 277.312c-144.32 0-261.696 76.544-261.696 170.688s117.408 170.688 261.696 170.688c47.2 0 93.792-8.512 134.656-24.672l7.744-3.072 73.76 90.592v-137.664l3.328-3.328c27.616-27.68 42.208-59.68 42.208-92.512 0-94.112-117.408-170.688-261.696-170.688zM921.6 960h-819.2c-56.532-0.055-102.345-45.868-102.4-102.395v-819.205c0-56.48 45.92-102.4 102.4-102.4h819.2c56.48 0 102.4 45.92 102.4 102.4v819.2c0 56.48-45.92 102.4-102.4 102.4zM921.6 4.288h-819.2c-18.832 0.018-34.094 15.28-34.112 34.11v40.226c11.008-4.064 22.464-6.080 34.112-6.080h819.2c0.009 0 0.020 0 0.031 0 12.235 0 23.95 2.23 34.76 6.304l-0.679-0.224v-40.224c0-18.848-15.296-34.112-34.112-34.112zM921.6 140.8h-819.2c-18.832 0.018-34.094 15.28-34.112 34.11v682.69c0 18.848 15.328 34.112 34.112 34.112h819.2c18.848 0 34.112-15.328 34.112-34.112v-682.688c0-18.784-15.296-34.112-34.112-34.112zM512 527.648c-56.48 0-102.4-35.744-102.4-79.648s45.92-79.648 102.4-79.648 102.4 35.744 102.4 79.648-45.92 79.648-102.4 79.648zM512 459.36c22.016 0 34.112-8.544 34.112-11.36s-12.096-11.36-34.112-11.36-34.112 8.544-34.112 11.36 12.096 11.36 34.112 11.36zM932.96 834.848c0.010-0.311 0.016-0.677 0.016-1.045 0-18.84-15.272-34.112-34.112-34.112s-34.112 15.272-34.112 34.112c0 0.367 0.006 0.733 0.017 1.098l-0.001-0.053c0.581 18.385 15.624 33.067 34.096 33.067s33.515-14.683 34.095-33.014l0.001-0.053zM932.96 197.696c0.010-0.311 0.016-0.677 0.016-1.045 0-18.84-15.272-34.112-34.112-34.112s-34.112 15.272-34.112 34.112c0 0.367 0.006 0.733 0.017 1.098l-0.001-0.053c0.581 18.385 15.624 33.067 34.096 33.067s33.515-14.683 34.095-33.014l0.001-0.053z" />
<glyph unicode="&#xe921;" glyph-name="disk" data-tags="disk" d="M512 459.36c-22.016 0-34.112-8.544-34.112-11.36s12.096-11.36 34.112-11.36 34.112 8.544 34.112 11.36-12.096 11.36-34.112 11.36zM731.488 540.512l-3.328 3.328v137.632l-73.76-90.592-7.744 3.072c-40.864 16.16-87.456 24.736-134.656 24.736-144.32 0-261.696-76.544-261.696-170.688s117.408-170.688 261.696-170.688 261.696 76.544 261.696 170.688c0 32.8-14.592 64.8-42.208 92.512zM512 368.352c-56.48 0-102.4 35.744-102.4 79.648s45.92 79.648 102.4 79.648 102.4-35.744 102.4-79.648-45.92-79.648-102.4-79.648zM921.6 960h-819.2c-56.532-0.055-102.345-45.868-102.4-102.395v-819.205c0-56.48 45.92-102.4 102.4-102.4h819.2c56.48 0 102.4 45.92 102.4 102.4v819.2c0 56.48-45.92 102.4-102.4 102.4zM898.848 868.96c18.21-0.813 32.666-15.775 32.666-34.112s-14.456-33.299-32.593-34.109l-0.073-0.003c-18.784 0-34.112 15.328-34.112 34.112s15.296 34.112 34.112 34.112zM898.848 231.84c18.21-0.813 32.666-15.775 32.666-34.112s-14.456-33.299-32.593-34.109l-0.073-0.003c-18.784 0-34.112 15.328-34.112 34.112s15.296 34.112 34.112 34.112zM273.088 823.488h295.84c25.088 0 45.504-20.416 45.504-45.504s-20.416-45.504-45.504-45.504h-295.84c-24.404 0.944-43.829 20.955-43.829 45.504s19.426 44.56 43.744 45.501l0.086 0.003zM512 686.912c39.008 0 77.472-5.024 114.368-14.88l170.080 218.688v-321.888c29.792-36.704 45.504-78.4 45.504-120.832 0-131.776-148-238.912-329.952-238.912s-329.952 107.168-329.952 238.912 148 238.912 329.952 238.912zM125.152 868.96c18.843-0.018 34.112-15.298 34.112-34.144 0-18.857-15.287-34.144-34.144-34.144-0.011 0-0.023 0-0.034 0h0.002c-18.843 0.018-34.112 15.298-34.112 34.144 0 18.857 15.287 34.144 34.144 34.144 0.011 0 0.023 0 0.034 0h-0.002zM125.152 231.84c18.21-0.813 32.666-15.775 32.666-34.112s-14.456-33.299-32.593-34.109l-0.073-0.003c-18.784 0-34.112 15.328-34.112 34.112s15.328 34.112 34.112 34.112zM955.712 78.624c-11.008-4.064-22.464-6.080-34.112-6.080h-819.2c-0.009 0-0.020 0-0.031 0-12.235 0-23.95 2.23-34.76 6.304l0.679-0.224v96.32c0-18.848 15.328-34.112 34.112-34.112h819.2c18.848 0 34.112 15.328 34.112 34.112v-96.32z" />
<glyph unicode="&#xe922;" glyph-name="project-o" data-tags="project-o" d="M921.6 777.568h-409.6c-40.8 0-60.352 19.52-82.976 42.176-22.88 22.88-48.864 48.832-99.072 48.832h-227.552c-56.521-0.055-102.327-45.85-102.4-102.361v-637.159c0-56.48 45.92-102.4 102.4-102.4h819.2c56.48 0 102.4 45.92 102.4 102.4v546.112c0 56.48-45.92 102.4-102.4 102.4zM955.712 572.768v-443.712c0-18.848-15.328-34.112-34.112-34.112h-819.2c-18.832 0.018-34.094 15.28-34.112 34.11v443.714h887.456zM955.712 675.168v-34.144h-887.456v125.184c0 18.784 15.328 34.112 34.112 34.112h227.552c24.992 0 39.232-14.752 57.344-33.44 24.864-25.664 55.776-57.632 124.704-57.632h409.6c18.848 0 34.112-15.296 34.112-34.080z" />
<glyph unicode="&#xe923;" glyph-name="project" data-tags="project" d="M1024 641.024v34.144c0 56.48-45.92 102.4-102.4 102.4h-409.6c-40.8 0-60.352 19.52-82.976 42.176-22.88 22.88-48.864 48.832-99.072 48.832h-227.552c-56.521-0.055-102.327-45.85-102.4-102.361v-125.191h1024zM0 572.768v-443.712c0-56.48 45.92-102.4 102.4-102.4h819.2c56.48 0 102.4 45.92 102.4 102.4v443.712h-1024z" />
<glyph unicode="&#xe924;" glyph-name="caret-down" data-tags="caret-down" d="M853.344 789.344v-682.656h-682.656z" />
<glyph unicode="&#xe925;" glyph-name="caret-right" data-tags="caret-right" d="M270.688 936.8l482.656-482.72-482.656-482.72z" />
<glyph unicode="&#xe926;" glyph-name="folder" data-tags="folder" horiz-adv-x="1037" d="M934.048 782.432h-415.136c-41.376 0-61.184 19.808-84.128 42.752-23.136 23.2-49.408 49.504-100.352 49.504h-230.656c-57.292-0.055-103.721-46.484-103.776-103.771v-645.797c0.091-57.277 46.499-103.685 103.767-103.776h830.313c57.285 0.073 103.703 46.491 103.776 103.769v553.575c-0.036 57.299-46.477 103.74-103.773 103.776h-0.003z" />
<glyph unicode="&#xe927;" glyph-name="folder-o" data-tags="folder-o" horiz-adv-x="1037" d="M934.048 782.432h-415.136c-41.376 0-61.184 19.808-84.128 42.752-23.136 23.2-49.408 49.504-100.352 49.504h-230.656c-57.292-0.055-103.721-46.484-103.776-103.771v-645.797c0.091-57.277 46.499-103.685 103.767-103.776h830.313c57.285 0.073 103.703 46.491 103.776 103.769v553.575c-0.036 57.299-46.477 103.74-103.773 103.776h-0.003zM934.048 90.528h-830.304c-19.087 0-34.56 15.473-34.56 34.56v0 449.696h899.488v-449.696c0-19.040-15.52-34.56-34.656-34.56zM103.776 805.472h230.656c25.344 0 39.776-14.944 58.112-33.888 25.184-26.016 56.48-58.368 126.368-58.368h415.136c19.104 0 34.56-15.52 34.56-34.56v-34.656h-899.424v126.88c0 19.040 15.52 34.56 34.56 34.56z" />
<glyph unicode="&#xe928;" glyph-name="file" data-tags="file" d="M932.992 686.944v15.744l-233.888 257.312h-38.656v-273.056zM649.088 618.656c-31.433 0.018-56.91 25.495-56.928 56.926v284.418h-398.752c-56.5-0.091-102.277-45.868-102.368-102.359v-819.241c0.073-56.507 45.861-102.295 102.361-102.368h637.223c56.507 0.073 102.295 45.861 102.368 102.361v580.295h-283.904z" />
<glyph unicode="&#xe929;" glyph-name="file-o" data-tags="file-o" d="M699.104 960h-505.696c-56.5-0.091-102.277-45.868-102.368-102.359v-819.241c0.073-56.507 45.861-102.295 102.361-102.368h637.223c56.507 0.073 102.295 45.861 102.368 102.361v664.327l-233.888 257.312zM830.624 4.288h-637.216c-18.832 0.018-34.094 15.28-34.112 34.11v819.234c0 18.848 15.328 34.112 34.112 34.112h398.24v-216.224c0.018-31.433 25.495-56.91 56.926-56.928h216.226v-580.288c-0.163-18.777-15.386-33.944-34.169-34.016h-0.007zM850.592 686.944h-190.624v204.768h6.304l184.32-204.768z" />
<glyph unicode="&#xe92a;" glyph-name="scriptis" data-tags="scriptis" horiz-adv-x="1137" d="M1089.82 960h-1041.863c-26.453 0-47.957-22.983-47.957-51.2v-921.6c0-28.217 21.504-51.2 47.9-51.2h1041.92c26.453 0 47.957 22.983 47.957 51.2v921.6c0 28.217-21.504 51.2-47.957 51.2zM1052.444 749.056h-455.452v119.751h455.452v-119.808zM267.15 749.056v119.751h79.644v-119.808h-79.644zM432.128 868.807h79.588v-119.808h-79.644v119.808zM181.817 868.807v-119.808h-96.484v119.808h96.484zM85.333 27.193v630.67h967.111v-630.67h-967.111zM422.343 399.474l-124.188 126.521c-7.439 7.58-17.791 12.277-29.241 12.277s-21.802-4.698-29.235-12.271l-0.006-0.006c-7.495-7.689-12.118-18.21-12.118-29.81s4.623-22.12 12.127-29.819l-0.009 0.009 94.891-96.711-94.891-96.654c-7.495-7.689-12.118-18.21-12.118-29.81s4.623-22.12 12.127-29.819l-0.009 0.009c7.432-7.594 17.787-12.302 29.241-12.302s21.809 4.708 29.234 12.295l0.007 0.007 124.132 126.521c7.495 7.689 12.118 18.21 12.118 29.81s-4.623 22.12-12.127 29.819l0.009-0.009h0.057zM641.365 201.045h-165.547c-22.922-0.224-41.417-18.858-41.417-41.811 0-0.141 0.001-0.281 0.002-0.422v0.021c0-23.268 18.546-42.098 41.358-42.098h165.547c22.89 0.224 41.36 18.833 41.36 41.755 0 0.121-0.001 0.241-0.002 0.362v-0.018c0.002 0.136 0.003 0.296 0.003 0.457 0 22.922-18.47 41.531-41.34 41.754h-0.021z" />
<glyph unicode="&#xe92b;" glyph-name="untitled2" d="M447.7 898h-353.6c-17.7 0-32.1-12.6-32.1-28.1v-478.1c0-15.5 14.4-28.1 32.1-28.1h353.6c17.8 0 32.1 12.6 32.1 28.1v478.1c0.1 15.5-14.3 28.1-32.1 28.1zM415.6 419.9h-289.3v421.8h289.3v-421.8z" />
<glyph unicode="&#xe92c;" glyph-name="untitled3" d="M447.7 307.4h-353.6c-17.8 0-32.1-12.6-32.1-28.1v-253.1c0-15.5 14.4-28.1 32.1-28.1h353.6c17.8 0 32.1 12.6 32.1 28.1v253c0.1 15.6-14.3 28.2-32.1 28.2zM415.6 54.2h-289.3v196.9h289.3v-196.9zM929.9 898h-353.6c-17.8 0-32.1-12.6-32.1-28.1v-253.1c0-15.5 14.4-28.1 32.1-28.1h353.6c17.8 0 32.1 12.6 32.1 28.1v253.1c0 15.5-14.4 28.1-32.1 28.1zM897.7 644.9h-289.3v196.8h289.3v-196.8z" />
<glyph unicode="&#xe92d;" glyph-name="open-in" data-tags="open-in" d="M183.68 761.6h592c14.784 0 26.88-12.288 26.88-27.264v-211.072h37.952c14.795-0.036 26.78-12.021 26.816-26.813v-347.459c0-15.36-12.096-27.456-26.816-27.456h-526.784c-0.029 0-0.063 0-0.098 0-15.004 0-27.168 12.164-27.168 27.168 0 0.101 0.001 0.202 0.002 0.304v-0.015 80.576h-102.784c-14.986 0.163-27.072 12.349-27.072 27.358 0 0.034 0 0.069 0 0.103v-0.005 477.312c0 0.019 0 0.042 0 0.064 0 14.977 12.105 27.127 27.065 27.2h0.007zM748.48 523.328v49.472h-537.792v-288.896h75.776v212.544c0 14.784 12.096 26.816 27.264 26.816l434.752 0.064zM571.008 445.44c14.987 0 27.136-12.149 27.136-27.136s-12.149-27.136-27.136-27.136v0c-14.914 0.036-26.999 12.099-27.072 27.001v0.007c0 14.784 12.096 27.264 27.072 27.264zM483.52 445.44c15.168 0 27.264-12.48 27.264-27.264-0.109-14.939-12.245-27.008-27.199-27.008-0.023 0-0.045 0-0.068 0h0.004c-14.426 0.722-25.85 12.595-25.85 27.136s11.423 26.414 25.785 27.133l0.064 0.003zM396.608 445.44c14.592 0 26.688-12.48 26.688-27.264 0-14.72-12.096-27.008-26.688-27.008-0.019 0-0.042 0-0.065 0-14.955 0-27.091 12.069-27.199 26.998v0.010c0 14.784 12.096 27.264 27.264 27.264zM813.312 334.912h-472.896v-159.424h472.896v159.424zM340.416 367.36h472.896v101.696h-472.896v-101.696zM441.088 683.328c15.36 0 27.072-12.096 27.072-26.88s-11.712-27.264-27.072-27.264c-14.931 0.215-26.966 12.317-27.072 27.254v0.010c0.18 14.84 12.216 26.809 27.065 26.88h0.007zM353.856 683.328c15.168 0 26.816-12.096 26.816-26.88s-11.712-27.264-26.816-27.264c-14.976 0-27.264 12.48-27.264 27.264s12.288 26.88 27.264 26.88zM266.368 683.328c15.168 0 27.264-12.096 27.264-26.88s-12.096-27.264-27.264-27.264c-14.784 0-26.88 12.48-26.88 27.264s12.096 26.88 26.88 26.88zM210.688 605.44h537.728v102.016h-537.728v-102.016z" />
<glyph unicode="&#xe92e;" glyph-name="dock-show" data-tags="dock-show" d="M194.816 729.6h634.176c14.464 0 26.112-11.456 26.112-26.304v-523.2c0.001-0.095 0.002-0.208 0.002-0.32 0-14.435-11.684-26.141-26.111-26.176h-634.179c-14.325 0.034-25.925 11.654-25.925 25.984 0 0.18 0.002 0.36 0.005 0.539v-0.027 523.2c0 14.848 11.456 26.304 25.92 26.304zM443.648 654.4c14.592 0 25.92-11.648 25.92-26.304 0-14.464-11.328-25.92-25.92-25.92-13.872 0.708-24.851 12.128-24.851 26.112s10.979 25.404 24.788 26.109l0.063 0.003zM359.168 654.4c0.386 0.020 0.838 0.032 1.293 0.032 14.439 0 26.144-11.705 26.144-26.144s-11.705-26.144-26.144-26.144c-0.455 0-0.907 0.012-1.356 0.035l0.063-0.003c-0.039 0-0.084 0-0.13 0-14.138 0-25.6 11.462-25.6 25.6 0 0.113 0.001 0.225 0.002 0.337v-0.017c-0.003 0.152-0.005 0.332-0.005 0.512 0 14.224 11.514 25.758 25.73 25.792h0.003zM275.072 654.4c14.272 0 25.92-11.648 25.92-26.304 0-14.464-11.648-25.92-25.92-25.92-0.086-0.001-0.187-0.002-0.288-0.002-14.262 0-25.824 11.562-25.824 25.824 0 0.034 0 0.069 0 0.103v-0.005c-0.001 0.095-0.002 0.208-0.002 0.32 0 14.351 11.633 25.984 25.984 25.984 0.046 0 0.091 0 0.137 0h-0.007zM802.88 547.648h-581.952v-342.016h581.952v342.016zM220.928 578.816h581.952v98.944h-581.952v-98.944z" />
<glyph unicode="&#xe92f;" glyph-name="dock-hide" data-tags="dock-hide" d="M343.168 654.4c-14.219-0.034-25.733-11.568-25.733-25.792 0-0.18 0.002-0.36 0.006-0.539v0.027c-0.001-0.095-0.002-0.208-0.002-0.32 0-14.138 11.462-25.6 25.6-25.6 0.046 0 0.091 0 0.137 0h-0.007c14.656 0 26.304 11.52 26.304 25.92 0 0.038 0 0.083 0 0.128 0 14.457-11.719 26.176-26.176 26.176-0.045 0-0.090 0-0.135 0h0.007zM259.072 654.4c-0.039 0-0.084 0-0.13 0-14.351 0-25.984-11.633-25.984-25.984 0-0.113 0.001-0.225 0.002-0.337v0.017c0-14.464 11.456-25.92 26.112-25.92 13.872 0.708 24.851 12.128 24.851 26.112s-10.979 25.404-24.788 26.109l-0.063 0.003zM484.224 205.632h-279.296v342.016h581.952v-38.976c19.2-10.688 37.056-23.296 52.288-38.912v233.536c0.001 0.095 0.002 0.208 0.002 0.32 0 14.351-11.633 25.984-25.984 25.984-0.046 0-0.091 0-0.137 0h-634.233c-0.030 0-0.065 0-0.1 0-14.262 0-25.824-11.562-25.824-25.824 0-0.169 0.002-0.337 0.005-0.505v0.025-523.2c0-14.848 11.52-26.496 25.92-26.496h344.256c-15.052 14.993-27.968 32.112-38.266 50.874l-0.582 1.158zM204.928 677.76h581.952v-98.944h-581.952v98.944zM427.648 654.4c0 0 0 0-0.001 0-14.421 0-26.112-11.691-26.112-26.112 0-0.068 0-0.135 0.001-0.202v0.010c0-14.464 11.648-25.92 26.112-25.92 14.592 0 25.92 11.52 25.92 25.92 0.002 0.114 0.003 0.249 0.003 0.384 0 14.315-11.605 25.92-25.92 25.92-0.001 0-0.002 0-0.003 0v0zM679.104 505.6c105.856 0 192-86.336 192-192 0-0.027 0-0.060 0-0.092 0-53.020-21.526-101.011-56.316-135.712l-1.028-1.028c-34.489-34.064-81.909-55.104-134.243-55.104-0.123 0-0.245 0-0.368 0h0.019c-105.664 0-192 86.336-192 192 0 52.992 21.504 100.992 56.32 135.808l1.152 1.024c34.573 34.061 82.061 55.096 134.462 55.104h0.002zM559.488 224.256l208.96 208.96c-24.611 18.502-55.671 29.647-89.333 29.696h-0.011c-0.146 0.001-0.319 0.001-0.491 0.001-40.631 0-77.457-16.296-104.297-42.708l0.020 0.019-0.576-1.216c-27.11-26.724-43.905-63.849-43.905-104.898 0-0.179 0-0.359 0.001-0.538v0.028c0-33.472 11.2-64.192 29.632-89.344zM798.72 402.944l-208.96-208.96c24.96-18.752 56-29.696 89.344-29.696 40.783 0.020 77.759 16.303 104.797 42.716l-0.029-0.028 0.768 0.896c27.045 26.995 43.776 64.316 43.776 105.543 0 0.042 0 0.085 0 0.127v-0.007c0 0.101 0 0.221 0 0.341 0 33.587-11.157 64.569-29.967 89.44l0.27-0.373z" />
<glyph unicode="&#xe930;" glyph-name="logo-" data-tags="logo-" d="M458.265-23.034v205.111c-2.072 29.55-10.84 56.662-24.783 80.364l0.468-0.86c-15.731 27.031-37.288 49.069-63.063 64.908l-0.796 0.455-149.41 86.255c-16.795 11.503-28.277 29.711-30.589 50.68l-0.028 0.317v57.268c-2.297 21.066-13.55 39.116-29.814 50.495l-0.228 0.151-66.131 38.2c-6.125 3.484-13.457 5.538-21.268 5.538-22.801 0-41.515-17.499-43.443-39.8l-0.011-0.163h0.032v-327.518c1.504-28.026 9.47-56.149 24.475-82.095 14.764-25.329 34.542-46.191 58.117-61.769l0.687-0.426 283.175-163.519c5.58-2.784 12.155-4.414 19.11-4.414 22.996 0 41.832 17.813 43.461 40.394l0.008 0.141zM565.508-23.034v205.111c2.072 29.55 10.84 56.662 24.783 80.364l-0.468-0.86c15.731 27.031 37.288 49.069 63.063 64.908l0.796 0.455 149.41 86.255c16.795 11.503 28.277 29.711 30.589 50.68l0.028 0.317v57.268c2.297 21.066 13.55 39.116 29.814 50.495l0.228 0.151 66.131 38.2c6.133 3.496 13.477 5.557 21.301 5.557 22.796 0 41.507-17.492 43.442-39.786l0.011-0.163h-0.032v-327.518c-1.688-30.459-10.563-58.52-24.942-82.954l0.467 0.858c-14.764-25.329-34.542-46.191-58.117-61.769l-0.687-0.426-283.175-163.519c-5.58-2.784-12.155-4.414-19.11-4.414-22.996 0-41.832 17.813-43.461 40.394l-0.008 0.141zM878.181 704.244l-177.628-102.539c-23.571-11.786-51.351-18.684-80.743-18.684-0.093 0-0.186 0-0.279 0h0.015c-0.061 0-0.133 0-0.205 0-32.405 0-62.852 8.383-89.29 23.098l0.937-0.479-149.41 86.255c-8.994 4.483-19.59 7.107-30.8 7.107-10.385 0-20.245-2.252-29.116-6.295l0.44 0.18-49.59-28.634c-8.447-3.848-18.32-6.091-28.716-6.091-10.964 0-21.346 2.494-30.608 6.947l0.424-0.184-66.131 38.136c-12.852 7.734-21.316 21.609-21.316 37.461 0 14.755 7.333 27.796 18.554 35.68l0.139 0.093v-0.032l283.655 163.775c24.154 12.544 52.737 19.9 83.038 19.9 0.107 0 0.215 0 0.322 0h-0.017c29.978 0 58.228-7.135 83.279-19.836l283.175-163.519c11.651-7.941 19.201-21.149 19.201-36.121s-7.55-28.179-19.051-36.024l-0.151-0.097z" />
<glyph unicode="&#xe931;" glyph-name="table" data-tags="table" d="M853.344-64h-682.656c-93.856 0-170.656 76.8-170.656 170.656v640c0 25.6 17.056 42.656 42.656 42.656h938.656c25.6 0 42.656-17.056 42.656-42.656v-640c0-93.856-76.8-170.656-170.656-170.656zM85.344 704v-597.344c0-46.944 38.4-85.344 85.344-85.344h682.656c46.944 0 85.344 38.4 85.344 85.344v597.344h-853.344zM981.344 746.656h-938.656v42.656c0 72.544 55.456 128 128 128h682.656c72.544 0 128-55.456 128-128v-42.656zM981.344 704h-938.656c-25.6 0-42.656 17.056-42.656 42.656v42.656c0 93.856 76.8 170.656 170.656 170.656h682.656c93.856 0 170.656-76.8 170.656-170.656v-42.656c0-25.6-17.056-42.656-42.656-42.656zM85.344 789.344h853.344c0 46.944-38.4 85.344-85.344 85.344h-682.656c-47.076-0.145-85.199-38.268-85.344-85.33v-0.014zM298.656-64c-25.6 0-42.656 17.056-42.656 42.656v768c0 25.6 17.056 42.656 42.656 42.656s42.656-17.056 42.656-42.656v-768c0-25.6-17.056-42.656-42.656-42.656zM981.344 448h-938.656c-25.6 0-42.656 17.056-42.656 42.656s17.056 42.656 42.656 42.656h938.656c25.6 0 42.656-17.056 42.656-42.656s-17.056-42.656-42.656-42.656zM981.344 192h-938.656c-25.6 0-42.656 17.056-42.656 42.656s17.056 42.656 42.656 42.656h938.656c25.6 0 42.656-17.056 42.656-42.656s-17.056-42.656-42.656-42.656z" />
<glyph unicode="&#xe932;" glyph-name="field" data-tags="field" d="M843.153 862.252c45.941 0 83.348-37.407 83.348-83.348v-661.395c-0.071-46.003-37.344-83.277-83.341-83.348h-662.024c-46.011 0.071-83.295 37.339-83.389 83.338v661.404c0 45.941 37.407 83.389 83.389 83.389h662.017zM843.153 945.103h-662.017c-91.797 0-166.216-74.404-166.239-166.196v-661.397c0.024-91.794 74.443-166.198 166.239-166.198h662.141c91.789 0 166.198 74.409 166.198 166.198v661.395c-0.118 91.808-74.546 166.192-166.359 166.239h-0.005zM802.349 732.674h-166.074c-22.023-1.017-39.492-19.119-39.492-41.301s17.47-40.284 39.401-41.298l0.091-0.003h165.949c22.051 0.984 39.555 19.1 39.555 41.304 0 22.16-17.436 40.249-39.337 41.295l-0.094 0.004zM802.349 566.725h-166.074c-22.023-1.017-39.492-19.119-39.492-41.301s17.47-40.284 39.401-41.298l0.091-0.003h165.949c22.051 0.984 39.555 19.1 39.555 41.304 0 22.16-17.436 40.249-39.337 41.295l-0.094 0.004zM802.349 401.148h-166.074c-22.023-1.017-39.492-19.119-39.492-41.301s17.47-40.284 39.401-41.298l0.091-0.003h165.949c22.051 0.984 39.555 19.1 39.555 41.304 0 22.16-17.436 40.249-39.337 41.295l-0.094 0.004zM802.349 235.696h-578.006c-22.023-1.017-39.492-19.119-39.492-41.301s17.47-40.284 39.401-41.298l0.091-0.003h578.006c22.023 1.017 39.492 19.119 39.492 41.301s-17.47 40.284-39.401 41.298l-0.091 0.003zM222.148 566.725c22.879 0 41.425 18.547 41.425 41.425v41.922h41.425v-289.977c1.020-22.157 19.232-39.735 41.55-39.735s40.529 17.578 41.546 39.644l0.003 0.092v289.977h41.301v-41.798c1.020-22.157 19.232-39.735 41.55-39.735s40.529 17.578 41.546 39.644l0.003 0.092v82.85c0 22.908-18.641 41.55-41.55 41.55h-248.676c-22.8-0.024-41.277-18.501-41.301-41.299v-83.391c-0.001-0.111-0.002-0.242-0.002-0.374 0-22.604 18.324-40.928 40.928-40.928 0.088 0 0.176 0 0.264 0.001h-0.013z" />
<glyph unicode="&#xe933;" glyph-name="untitled4" d="M929.9 532.4h-353.6c-17.8 0-32.1-12.6-32.1-28.1v-478.1c0-15.5 14.4-28.1 32.1-28.1h353.6c17.8 0 32.1 12.6 32.1 28.1v478c0 15.6-14.4 28.2-32.1 28.2zM897.7 54.2h-289.3v421.9h289.3v-421.9z" />
<glyph unicode="&#xe93a;" glyph-name="hive-copy" data-tags="hive-copy" horiz-adv-x="1027" d="M820.304 296.231h-8.529l2.007 49.168c80.274-3.010 140.48 49.67 158.542 103.855 14.55 43.147 3.010 85.793-34.117 109.876-107.367 70.24-237.813-40.639-239.318-41.642l-33.615 35.622c1.505 1.505 38.632 36.123 92.817 59.704 74.756 32.11 146.501 30.605 207.208-11.038 55.189-38.13 75.257-102.852 53.683-167.573-24.082-69.738-98.838-137.972-198.679-137.972zM511.749 572.676l-47.663 10.034c1.505 6.522 36.625 165.064 176.102 173.092 87.298 5.017 131.951-42.144 143.992-70.24l-44.653-19.567c0 0.502-20.57 45.154-96.329 41.141-101.848-6.021-129.944-129.442-131.449-134.46zM219.751 802.963c0.502 2.509 0.502 5.017 0.502 7.526 0 29.099-23.581 53.182-53.182 53.182-29.099 0-53.182-23.581-53.182-53.182 0-29.099 23.581-53.182 53.182-53.182 15.051 0 28.096 6.021 37.629 16.055 24.082-14.55 21.072-39.134 20.069-44.653l32.11-6.522c4.515 20.57 0.502 59.704-37.127 80.776zM165.064 785.403c-13.546 0-24.584 11.038-24.584 24.584s11.038 24.584 24.584 24.584 24.584-11.038 24.584-24.584-11.038-24.584-24.584-24.584zM375.784 847.616c0 29.099-23.581 53.182-53.182 53.182s-53.182-23.581-53.182-53.182c0-29.099 23.581-53.182 53.182-53.182 3.512 0 7.024 0.502 10.034 1.003 3.512-11.038 9.031-42.144-28.096-78.268l22.577-23.581c55.189 53.683 40.639 102.852 34.117 117.903 9.031 9.533 14.55 22.075 14.55 36.123zM323.104 825.039c-13.546 0-24.584 11.038-24.584 24.584s11.038 24.584 24.584 24.584 24.584-11.038 24.584-24.584-11.038-24.584-24.584-24.584zM749.562 173.311l-68.233-95.326 186.638-76.261zM550.883 27.312c-52.178 0-104.858 15.051-152.020 43.649-94.824 57.697-149.009 160.047-136.968 260.39l48.666-5.519c-9.533-81.78 35.12-165.566 113.889-213.229 51.677-31.106 110.879-43.147 166.569-32.611 54.687 10.034 99.841 40.137 126.934 84.288s32.611 97.834 16.055 151.518c-16.557 54.185-54.185 101.346-105.862 132.954-53.683 32.611-116.9 43.649-174.095 31.106l-10.536 47.663c69.237 15.051 145.999 1.505 209.717-37.127 61.711-37.629 107.367-94.322 127.436-160.047 20.57-66.728 13.045-134.46-21.072-191.153-34.117-56.192-90.81-94.322-159.545-106.865-16.557-3.512-33.113-5.017-49.168-5.017zM290.493 208.431l-12.543 55.69c144.494 32.611 219.751 250.857 220.755 252.864l54.185-18.563c-3.512-10.034-86.797-250.356-262.397-289.991zM362.238 110.095l-15.553 54.687c246.844 70.24 262.397 298.52 262.397 301.029l57.195-3.010c0-3.010-4.014-69.237-43.649-145.999-36.625-70.742-111.381-164.061-260.39-206.707zM485.66 35.841l-18.062 54.185c206.205 69.237 239.318 288.486 239.318 290.493l46.659-7.024c-0.502-2.509-3.010-69.237-40.137-140.982-49.67-95.326-128.439-163.559-227.779-196.672zM244.837 737.74v-40.137c68.735 0 109.374-54.185 124.425-104.858 17.56-58.701 7.526-136.466-54.185-177.105-23.079-15.051-46.659-22.577-70.742-22.577-60.707 0-112.384 46.158-137.972 73.752-41.141 44.653-62.213 90.81-63.718 108.37-0.502 8.529 12.041 32.611 62.714 66.226 36.625 24.584 74.756 41.642 79.773 43.649 20.57 8.027 40.639 12.041 59.704 12.041v40.639M244.837 737.74c-23.079 0-48.165-4.515-75.257-15.051 0 0-172.59-74.756-167.071-150.013 4.515-61.209 112.384-219.751 241.325-219.751 30.103 0 61.711 8.529 92.817 29.099 146.501 95.828 80.274 355.716-91.814 355.716zM134.961 594.752c0-13.577 11.007-24.584 24.584-24.584s24.584 11.007 24.584 24.584v0c0 13.577-11.007 24.584-24.584 24.584s-24.584-11.007-24.584-24.584v0z" />
<glyph unicode="&#xe93b;" glyph-name="spark1" data-tags="spark1" d="M814.8 458.9s41.3 43.3 110.1 119.1 118.3 151.6 88.1 184.1c-8.3 51.5-352.2-43.3-352.2-43.3s-63.4 103-132.2 205.9c-85.3 94.8-143.1-43.3-143.1-43.3l-55-260s-214.6-62.3-297.2-97.5c-63.3-43.3-11-119.1-11-119.1l220.1-97.5 121.1 75.8-198.1 86.7 264.2 65 44 270.8 132.1-205.8 242.2 54.2-165.2-205.9 110.1-205.8-187.1 54.2 22-130s165.1-48.7 220.1-54.2c99.1-8.1 88.1 97.5 88.1 97.5l-121.1 249.1zM369.8 101.3l13.3 188.6-106.2-67.7s-19.8-169.5-23.4-218.2c-6-79 99.1-65 99.1-65l193 196.9-33.6 142-142.2-176.6z" />
<glyph unicode="&#xe93c;" glyph-name="scala" data-tags="scala" d="M157.851 848.546l772.047 113.826v-256.256l-772.047-113.826zM157.778 520.080l772.047 113.826v-256.256l-772.047-113.826zM157.747 192.417l772.047 113.826v-256.256l-772.047-113.826zM172.443 637.448l495.057-160.124-14.665-45.345-495.057 160.119zM434.763 794.263l495.052-160.119-14.665-45.345-495.057 160.119zM172.443 309.277l495.057-160.119-14.67-45.35-495.052 160.124zM434.83 466.6l495.052-160.124-14.665-45.345-495.057 160.119z" />
<glyph unicode="&#xe93d;" glyph-name="JDBC" data-tags="JDBC" d="M396.516 516.039c218.34 0 394.012 73.842 394.012 164.181 0 16.384-4.892 31.175-16.384 45.966-4.892 6.599-9.899 11.492-14.791 18.091-3.3 3.3-6.599 6.599-9.899 8.192-3.3 3.3-8.192 6.599-13.084 9.899-3.3 1.593-6.599 4.892-9.899 6.599-6.599 4.892-14.791 8.192-21.39 13.084-14.791 8.192-32.882 14.791-50.859 22.983-18.091 6.599-37.774 13.084-59.051 18.091-13.084 3.3-27.876 6.599-42.667 9.899-36.068 6.599-75.548 11.492-116.508 13.084-13.084-1.593-26.283-1.593-39.367-1.593s-26.283 0-41.074-1.593c-41.074-1.593-80.441-6.599-116.508-13.084-14.791-3.3-29.582-4.892-42.667-8.192-19.684-4.892-39.367-9.899-57.458-16.384-18.091-6.599-32.882-13.084-47.559-19.684-4.892-3.3-11.492-6.599-16.384-9.899-16.384-9.899-29.582-19.684-41.074-31.175-8.192-8.192-14.791-16.384-19.684-24.576-8.192-13.084-11.492-26.283-11.492-39.367-0.228-90.567 175.445-164.523 393.785-164.523zM790.528 450.389v105.017c-85.333-68.949-239.73-105.017-394.012-105.017s-308.679 36.068-394.012 105.017v-105.017c0-81.692 143.588-149.845 332.572-162.133v116.622c0 6.372 5.234 11.605 11.605 11.605h435.428c5.461 10.923 8.42 22.3 8.42 33.906zM117.419 384.74c-18.091 0-32.882 14.791-32.882 32.882s14.791 32.882 32.882 32.882c18.091 0 32.882-14.791 32.882-32.882s-14.791-32.882-32.882-32.882zM2.503 204.174h1.593c17.749-75.207 154.51-134.485 330.866-145.749v164.068c-132.779 8.306-258.503 43.349-332.572 103.196v-121.515zM117.419 220.558c18.091 0 32.882-14.791 32.882-32.882s-14.791-32.882-32.882-32.882c-18.091 0-32.882 14.791-32.882 32.882 0.114 18.091 14.791 32.882 32.882 32.882zM455.225 127.716c0-7.396-0.91-13.426-2.844-17.977s-4.437-8.078-7.396-10.468c-3.072-2.731-6.144-4.551-9.444-5.575-3.3-0.91-6.144-1.479-8.647-1.479-4.437 0-8.647 1.024-12.629 3.072s-7.509 4.551-10.468 7.623l-32.996-26.396c5.234-5.803 12.288-11.605 21.276-17.522 8.875-5.916 20.139-8.875 33.564-8.875 11.492 0 21.618 1.934 30.265 5.803s16.156 9.102 22.414 15.701c12.629 13.426 19.001 30.265 19.001 50.29v224.256h-42.098v-218.453zM599.154 346.169h-62.236v-293.547h58.482c25.031 0 44.146 6.485 57.458 19.57s20.025 33.337 20.025 60.757v137.33c0 24.235-6.258 42.894-18.773 56.092s-30.834 19.797-54.955 19.797zM630.898 128.967c0-12.629-2.503-21.959-7.396-27.876s-13.312-8.875-25.145-8.875h-19.342v214.357h19.342c12.402 0 20.935-3.186 25.6-9.444 4.665-6.372 7.054-15.246 7.054-26.852v-141.312zM831.602 323.527c-6.030 6.827-13.767 12.402-23.324 16.498-9.444 4.096-20.935 6.144-34.475 6.144h-61.44v-293.547h57.344c27.534 0 47.445 6.827 59.961 20.594s18.773 33.564 18.773 59.392v16.498c0 15.701-2.389 27.989-7.054 37.092s-11.947 15.929-21.845 20.594c9.671 5.461 16.725 12.060 21.39 19.797 2.503 4.096 4.324 8.875 5.575 14.45 1.252 5.461 1.82 12.174 1.82 20.252v10.695c0 9.671-1.252 18.887-3.868 27.876-2.503 8.875-6.827 16.725-12.857 23.666zM808.164 124.416c-0.569-6.030-2.048-11.264-4.551-15.701s-6.144-7.851-10.923-10.354c-4.779-2.503-11.492-3.755-20.025-3.755h-18.091v93.98h18.546c7.737 0 13.881-0.91 18.546-2.731s8.42-4.551 11.15-8.42c2.503-3.868 4.096-8.533 4.892-13.995s1.252-11.947 1.252-19.342c0-7.054-0.341-13.653-0.796-19.684zM801.678 236.373c-4.779-7.054-14.222-10.468-28.217-10.468h-19.001v80.782h17.294c13.995 0 23.666-3.3 29.013-9.899s8.078-16.498 8.078-29.696c0.114-13.54-2.276-23.78-7.168-30.72zM1021.611 262.087v16.498c0 10.126-1.707 19.57-5.12 28.217s-8.192 16.156-14.222 22.414c-12.402 12.971-28.444 19.342-48.242 19.342-10.126 0-19.456-1.707-27.876-5.12s-15.588-8.192-21.618-14.222c-6.030-6.030-10.695-13.198-13.995-21.39s-4.892-17.18-4.892-26.852v-161.564c0-13.426 2.162-24.576 6.372-33.223s9.671-15.701 16.27-21.276c6.599-5.461 13.995-9.33 22.3-11.492s16.384-3.3 24.348-3.3c9.33 0 18.091 1.82 26.169 5.575s15.132 8.761 21.276 15.019c6.030 6.372 10.809 13.54 14.222 21.618s5.12 16.725 5.12 25.714v18.091h-42.098v-14.45c0-5.803-0.796-10.581-2.503-14.45-1.593-3.868-3.755-6.827-6.144-9.102-2.731-2.162-5.689-3.755-8.875-4.779-3.186-0.91-6.144-1.479-8.875-1.479-9.671 0-16.27 2.844-20.025 8.647s-5.575 12.971-5.575 21.39v150.528c0 9.899 1.707 18.091 5.12 24.576s10.354 9.671 20.821 9.671c7.964 0 14.336-3.072 19.001-9.102s7.054-13.198 7.054-21.39v-13.995h41.984z" />
<glyph unicode="&#xe93e;" glyph-name="python" data-tags="python" d="M807.342 721.531h-30.74v55.194c0 109.199-85.545 182.579-212.89 182.579h-109.875c-127.324 0-212.89-73.359-212.89-182.579v-55.194h-24.289c-127.324 0-212.89-73.359-212.89-182.579v-200.827c0-61.112 27.648-163.635 212.89-163.635h30.74v-55.214c0-109.199 85.565-182.579 212.89-182.579h109.875c127.345 0 212.89 73.38 212.89 182.579v55.214h24.289c127.345 0 212.89 73.38 212.89 182.579v200.827c0 61.112-27.668 163.635-212.89 163.635zM249.897 364.872c-9.503-40.714-8.97-45.507-8.97-68.444v-59.924h-24.289c-41.267 0-150.876 0-150.876 101.622v200.827c0 88.883 77.926 120.566 150.876 120.566l238.244 1.024v59.372h-151.941v56.812c0 88.883 77.926 120.566 150.876 120.566h109.875c72.95 0 150.876-31.662 150.876-120.566v-200.827c0-6.922-0.41-14.295-1.679-21.791-25.027-63.795-102.605-71.926-139.571-71.926 0 0-117.432 0.082-121.262 0.143-10.547 0.205-21.053 0.43-34.161-0.614-116.081-11.469-158.474-76.124-167.997-116.838zM958.218 357.069c0-88.883-77.926-120.566-150.876-120.566l-251.392 0.881v-59.085h165.089v-59.023c0-88.883-77.926-120.566-150.876-120.566h-109.875c-72.929 0-150.876 31.683-150.876 120.566v200.847c0 6.922 0.41 14.316 1.679 21.811 25.027 63.754 102.584 71.885 139.551 71.885l134.328-0.328c6.533 0 13.292 0.184 21.053 0.819 116.163 11.469 154.829 70.82 166.216 122.020 6.839 18.536 10.796 39.943 10.796 62.275 0 0.347-0.001 0.694-0.003 1.041v-0.053 59.924h24.289c41.267 0 150.876 0 150.876-101.622v-200.827zM352.604 789.975c0-18.482 14.982-33.464 33.464-33.464s33.464 14.982 33.464 33.464v0c0 18.482-14.982 33.464-33.464 33.464s-33.464-14.982-33.464-33.464v0zM602.87 107.93c0-18.482 14.982-33.464 33.464-33.464s33.464 14.982 33.464 33.464v0c0 18.482-14.982 33.464-33.464 33.464s-33.464-14.982-33.464-33.464v0z" />
<glyph unicode="&#xe93f;" glyph-name="pyspark" data-tags="pyspark" horiz-adv-x="1275" d="M732.96 202.607l198.75-58.18-118.625 244.331 179.994 230.806-269.497-67.494-132.149 228.605-53.077-285.222-268.445-95.787 197.697-89.28-134.222-94.702-159.198 70.747s-87.398 41.37-87.398 113.202 89.471 96.871 89.471 96.871l265.319 86.377 44.401 269.976s20.797 107.429 91.576 107.429 99.901-85.643 135.977-142.26l73.522-129.183 263.596 72.566s216.421 47.909 87.398-145.131l-187.299-229.339 111.001-226.436s86.026-184.332-116.551-159.676l-191.445 63.858-20.797 137.89zM519.378 438.23c-48.707-9.059-57.574-27.942-57.574-62.901v-46.059h115.212v-15.406h-158.432c-33.524 0-62.837-21.148-71.991-61.306-10.558-46.059-11.004-74.766 0-122.867 8.198-35.756 27.687-61.306 61.21-61.306h39.552v55.214c0 39.935 32.854 75.117 71.991 75.117h115.116c32.025 0 57.574 27.718 57.574 61.434v115.307c0 32.822-26.315 57.351-57.574 62.901-38.595 6.666-80.508 6.347-115.116-0.096zM512.169 406.11c11.866 0 21.658-10.398 21.658-23.061s-9.697-22.966-21.658-22.966c-11.961 0-21.658 10.303-21.658 22.966 0.096 12.791 9.697 23.061 21.658 23.061zM711.78 314.023v-53.746c0-41.626-33.619-76.712-71.991-76.712h-115.116c-31.482 0-57.574-28.293-57.574-61.434v-115.18c0-32.822 27.176-52.056 57.574-61.434 36.426-11.196 71.449-13.237 115.116 0 28.994 8.835 57.542 26.602 57.542 61.434v46.059h-114.988v15.406h172.658c33.524 0 45.932 24.561 57.574 61.306 12.057 37.894 11.547 74.32 0 122.867-8.293 34.959-24.018 61.306-57.574 61.306h-43.22v0.096zM646.998 22.453c11.961 0 21.658-10.303 21.658-22.966 0-12.791-9.697-23.061-21.658-23.061-11.866 0-21.658 10.398-21.658 23.061 0.096 12.791 9.824 22.966 21.658 22.966z" />
<glyph unicode="&#xe940;" glyph-name="storage" data-tags="storage" d="M196.136 959.801h629.501q157.375 0 157.375-157.375v-708.189q0-157.375-157.375-157.375h-629.501q-157.375 0-157.375 157.375v708.189q0 157.375 157.375 157.375zM919.276 448.331v374.553c0.141 1.707 0.221 3.695 0.221 5.701 0 40.633-32.94 73.573-73.573 73.573-3.268 0-6.486-0.213-9.642-0.626l0.372 0.040h-652.714c-2.784 0.373-6.002 0.586-9.27 0.586-40.633 0-73.573-32.94-73.573-73.573 0-2.006 0.080-3.994 0.238-5.96l-0.017 0.259v-747.533c-0.105-1.481-0.165-3.209-0.165-4.951 0-41.068 33.292-74.36 74.36-74.36 3.387 0 6.722 0.227 9.989 0.665l-0.382-0.042h649.96c2.878-0.392 6.203-0.617 9.581-0.617 41.285 0 74.753 33.468 74.753 74.753 0 1.601-0.050 3.19-0.15 4.766l0.011-0.216zM983.013 841.769v-786.876c-0.126-0.71-0.198-1.527-0.198-2.361s0.072-1.651 0.21-2.445l-0.012 0.085c-11.118-65.172-67.177-114.161-134.679-114.161-5.363 0-10.653 0.309-15.855 0.911l0.634-0.060h-647.993c-3.43-0.31-7.419-0.487-11.449-0.487-74.53 0-134.949 60.419-134.949 134.949 0 1.139 0.014 2.276 0.042 3.408l-0.003-0.168v747.533c-0.032 1.133-0.049 2.467-0.049 3.806 0 10.775 1.164 21.279 3.374 31.391l-0.177-0.968c14.785 59.929 68.077 103.671 131.585 103.671 2.568 0 5.118-0.071 7.651-0.213l-0.352 0.016h663.73c1.173 0.037 2.552 0.058 3.937 0.058 63.231 0 116.245-43.742 130.433-102.617l0.186-0.915c1.574-5.115 3.934-10.623 3.934-14.557zM681.246 440.463c34.364 37.72 55.409 88.098 55.409 143.391 0 37.913-9.894 73.515-27.241 104.365l0.553-1.071c-38.192 67.984-109.843 113.163-192.045 113.163-121.248 0-219.539-98.291-219.539-219.539 0-1.608 0.017-3.213 0.052-4.813l-0.004 0.239c2.069-84.698 53.489-156.897 126.51-189.103l1.357-0.534c0 8.262 2.361 16.131 4.328 24 2.206 9.44 4.907 17.579 8.244 25.381l-0.376-0.988c20.448 44.43 64.583 74.719 115.792 74.719 32.117 0 61.452-11.914 83.825-31.564l-0.143 0.123 43.672-39.344M791.015 589.182c0.012-0.947 0.018-2.067 0.018-3.188 0-77.415-31.942-147.371-83.365-197.405l-0.063-0.061c-4.922-6.699-12.77-10.999-21.623-10.999-7.779 0-14.783 3.32-19.671 8.62l-0.017 0.018c-20.459 16.131-39.344 32.655-59.803 49.967-13.481 12.685-31.689 20.48-51.717 20.48-14.802 0-28.61-4.257-40.265-11.614l0.311 0.184c-20.23-13.153-33.42-35.647-33.42-61.222 0-9.246 1.724-18.089 4.868-26.225l-0.169 0.497c1.751-3.49 2.775-7.604 2.775-11.958 0-7.268-2.856-13.868-7.507-18.741l0.010 0.011c-5.053-5.51-12.285-8.951-20.321-8.951-3.588 0-7.017 0.686-10.16 1.935l0.186-0.065c-117.299 31.716-202.182 137.185-202.182 262.481 0 149.93 121.542 271.472 271.472 271.472 130.59 0 239.644-92.208 265.605-215.069l0.313-1.772c3.541-18.098 4.721-36.983 5.902-47.213M681.246 440.463c34.364 37.72 55.409 88.098 55.409 143.391 0 37.913-9.894 73.515-27.241 104.365l0.553-1.071c-38.192 67.984-109.843 113.163-192.045 113.163-121.248 0-219.539-98.291-219.539-219.539 0-1.608 0.017-3.213 0.052-4.813l-0.004 0.239c2.069-84.698 53.489-156.897 126.51-189.103l1.357-0.534c0 8.262 2.361 16.131 4.328 24 2.206 9.44 4.907 17.579 8.244 25.381l-0.376-0.988c20.448 44.43 64.583 74.719 115.792 74.719 32.117 0 61.452-11.914 83.825-31.564l-0.143 0.123 43.672-39.344M517.575 537.642c-25.063 0.211-45.377 20.25-46.031 45.185l-0.001 0.061c-0.001 0.116-0.002 0.254-0.002 0.392 0 25.206 20.433 45.639 45.639 45.639s45.639-20.433 45.639-45.639c0-25.067-20.209-45.413-45.222-45.637h-0.021M281.513 139.876c-24.429 0.443-44.063 20.351-44.063 44.845 0 24.771 20.081 44.852 44.852 44.852 24.63 0 44.624-19.853 44.85-44.43v-0.022c-0.439-24.947-20.658-45.029-45.618-45.245h-0.021M552.985 385.775v-5.115l142.425-192.391c3.826-5.743 7.839-10.755 12.243-15.393l-0.046 0.049c6.855-5.947 15.865-9.572 25.721-9.572 11.447 0 21.752 4.889 28.942 12.692l0.025 0.027c6.84 7.069 11.055 16.714 11.055 27.344s-4.215 20.275-11.066 27.355l0.010-0.011c-4.952 4.791-10.351 9.19-16.104 13.107l-0.421 0.27q-93.245 68.458-187.277 136.523l-5.902 2.754M726.885 111.942c-27.963 2.312-52.016 17.247-66.683 39.027l-0.201 0.317c-29.901 39.344-59.803 78.688-89.31 118.031l-58.229 78.688c-6.476 8.745-10.367 19.745-10.367 31.653 0 29.551 23.956 53.508 53.508 53.508 11.214 0 21.622-3.45 30.221-9.345l-0.182 0.118 196.719-143.605c22.49-14.454 38.406-37.468 43.192-64.335l0.086-0.583c0.246-2.54 0.386-5.491 0.386-8.474 0-51.498-41.747-93.245-93.245-93.245-2.212 0-4.407 0.077-6.581 0.229l0.293-0.016" />
<glyph unicode="&#xe941;" glyph-name="SAS-" data-tags="SAS-" d="M4.779 448.91c0 0 0-0.001 0-0.002 0-280.57 227.447-508.018 508.018-508.018s508.018 227.447 508.018 508.018c0 0.001 0 0.001 0 0.002v0c0 0 0 0.001 0 0.002 0 280.57-227.447 508.018-508.018 508.018s-508.018-227.447-508.018-508.018c0-0.001 0-0.001 0-0.002v0zM570.14 579.641l-9.33 11.264c-12.971 15.36-34.020 15.36-49.493 2.503-15.701-12.857-20.252-34.247-7.396-49.835 0 0 1.593-1.934 4.21-5.12M507.904 538.795c29.696-35.612 69.518-83.513 69.518-83.513 49.721-60.302 27.42-134.599-39.936-176.924-59.392-37.205-168.391-24.007-205.938 37.205 29.127-85.902 126.748-141.995 234.724-115.029 93.639 23.438 198.201 143.701 83.854 282.51l-85.106 102.628M517.12 409.771c-28.9 34.702-64.057 77.028-64.057 77.028-49.721 60.302-27.42 134.599 39.936 176.924 59.392 37.319 168.391 24.007 205.938-37.205-29.127 85.902-126.748 141.995-234.724 115.029-93.639-23.438-198.201-143.701-83.854-282.51l81.010-97.849M448.512 376.206l19.342-23.324c12.971-15.36 34.020-15.246 49.607-2.503 15.588 12.857 20.252 34.133 7.396 49.835 0 0-7.623 9.216-18.66 22.414" />
<glyph unicode="&#xe942;" glyph-name="r" data-tags="r" horiz-adv-x="1162" d="M1162 506.8c0 215-260.2 389.2-581 389.2s-581-174.2-581-389.2c0-191.6 206.6-350.8 478.8-383v-123.8h198.2v123c48.6 5.4 95.2 14.8 138.8 27.8l80.2-150.8h224l-134.8 227.4c109 70.8 176.8 169.8 176.8 279.4zM228.4 477.8c0 147 197.8 266 441.6 266s423.8-81.4 423.8-266c0-100.2-53-170-140.6-212.8-4.8 3.2-9.4 5.8-12.8 7.4-20.4 10.4-55.6 21-55.6 21s173.2 12.8 173.2 185.4-181.2 175.8-181.2 175.8h-398v-416.6c-148.2 43-250.4 134.2-250.4 239.8zM678.6 401.2v111.2c115.6 0 175.6 13.6 175.6-54.6 0-73-76.4-56.6-175.6-56.6zM676.8 256.2h53.2c21.6 0 37.8-23.4 48-38.4-32.2-3.8-66-5.6-101.2-5.8v44.2z" />
<glyph unicode="&#xe943;" glyph-name="txt2" data-tags="txt2" d="M664.781 932.966l-2.048-238.797h238.797l-236.749 238.797zM607.437 638.874v310.067h-433.357c-0.122 0.001-0.266 0.001-0.411 0.001-36.956 0-66.942-29.843-67.173-66.744v-868.374c0.232-36.923 30.217-66.766 67.173-66.766 0.144 0 0.289 0 0.433 0.001h675.818c0.122-0.001 0.266-0.001 0.411-0.001 36.956 0 66.942 29.843 67.173 66.744v625.072zM415.744 327.578h-63.078v-186.778h-44.646v186.778h-62.259v36.864h170.394zM552.55 140.8l-24.986 49.152c-5.734 11.469-10.65 23.347-17.203 36.864-5.734-13.517-11.059-25.395-16.384-36.864l-24.986-49.152h-47.104l62.259 114.688-58.573 107.725h49.562l22.118-45.875c5.325-10.24 9.83-21.299 16.384-34.816 5.325 13.517 9.83 24.576 14.746 34.816l20.89 45.875h48.742l-58.573-109.773 62.259-112.64zM778.24 327.578h-63.078v-186.778h-44.237v186.778h-62.669v36.864h169.984z" />
<glyph unicode="&#xe944;" glyph-name="log" data-tags="log" d="M871.93-63.9h-662.571c-66.487 0-120.476 53.889-120.476 120.476v60.188h90.382c49.89 0 90.382 40.492 90.382 90.382s-40.492 90.382-90.382 90.382h-90.282v301.141h90.382c49.89 0 90.382 40.392 90.382 90.282s-40.492 90.382-90.382 90.382h-90.382v60.188c0 66.587 53.889 120.476 120.476 120.476h662.471c66.487 0 120.476-53.889 120.476-120.476v-782.947c0-66.487-53.989-120.476-120.476-120.476zM781.547 719.147h-361.329c-16.597 0-30.094-13.497-30.094-30.094s13.497-30.094 30.094-30.094h361.329c16.597 0 30.094 13.497 30.094 30.094 0.1 16.597-13.397 30.094-30.094 30.094zM781.547 478.194h-361.329c-16.597 0-30.094-13.497-30.094-30.094s13.497-30.094 30.094-30.094h361.329c16.597 0 30.094 13.497 30.094 30.094 0.1 16.597-13.397 30.094-30.094 30.094zM781.547 237.341h-361.329c-16.597 0-30.094-13.497-30.094-30.094s13.497-30.094 30.094-30.094h361.329c16.597 0 30.094 13.497 30.094 30.094 0.1 16.597-13.397 30.094-30.094 30.094zM209.459 688.953c0-16.597-13.497-30.094-30.094-30.094h-120.476c-16.597 0-30.094 13.497-30.094 30.094s13.497 30.094 30.094 30.094h120.476c16.597 0.1 30.094-13.397 30.094-30.094zM58.888 237.341h120.476c16.597 0 30.094-13.497 30.094-30.094s-13.497-30.094-30.094-30.094h-120.476c-16.597 0-30.094 13.497-30.094 30.094-0.1 16.597 13.397 30.094 30.094 30.094z" />
<glyph unicode="&#xe945;" glyph-name="xls" data-tags="xls" d="M671.785 935.342l-1.966-238.94h238.981l-237.015 238.94zM614.318 640.901v310.641h-434.094c-37.376 0-67.666-29.962-67.666-66.929v-869.765c0-36.925 30.29-66.867 67.707-66.867h677.007c37.356 0 67.666 29.942 67.666 66.929v625.992h-310.62zM198.472 140.247l82.903 126.607-75.121 115.999h57.242l48.66-77.926 47.657 77.926h56.75l-75.469-117.801 82.903-124.805h-59.044l-53.78 83.927-53.944-83.927h-58.757zM450.499 140.247v240.64h48.988v-199.762h121.795v-40.878h-170.783zM643.768 219.197l47.677 4.608c2.888-15.954 8.684-27.73 17.449-35.246 8.806-7.475 20.603-11.244 35.512-11.244 15.77 0 27.648 3.318 35.635 9.994s12.001 14.479 12.001 23.45c0 5.714-1.679 10.609-5.038 14.643-3.359 3.994-9.236 7.516-17.633 10.486-5.714 2.007-18.801 5.53-39.199 10.609-26.235 6.513-44.687 14.52-55.276 24.003-14.889 13.353-22.323 29.635-22.323 48.845 0 12.329 3.482 23.88 10.486 34.632s17.121 18.964 30.29 24.596c13.21 5.591 29.123 8.438 47.759 8.438 30.433 0 53.35-6.676 68.751-20.050s23.47-31.15 24.248-53.432l-49.009-2.15c-2.089 12.472-6.554 21.443-13.476 26.87-6.881 5.489-17.244 8.192-31.007 8.192-14.234 0-25.395-2.929-33.444-8.765-4.737-3.22-7.808-8.583-7.808-14.664 0-0.144 0.002-0.288 0.005-0.431v0.021c0-5.714 2.437-10.65 7.27-14.725 6.205-5.202 21.197-10.609 45.036-16.2 23.798-5.632 41.431-11.489 52.879-17.49 11.407-6.001 20.316-14.234 26.808-24.637 6.431-10.445 9.687-23.327 9.687-38.646 0-13.926-3.871-26.911-11.592-39.076-7.721-12.124-18.637-21.115-32.768-27.034-14.111-5.878-31.724-8.847-52.797-8.847-30.638 0-54.19 7.086-70.636 21.238-16.466 14.213-26.296 34.857-29.491 62.013z" />
<glyph unicode="&#xe946;" glyph-name="xlsx" data-tags="xlsx" d="M672.031 933.437l-1.987-238.879h238.899l-236.913 238.879zM614.584 639.078v310.538h-433.951c-37.356 0-67.604-29.921-67.604-66.908v-869.458c0-36.905 30.29-66.867 67.645-66.867h676.7c37.396 0 67.727 29.962 67.727 66.929v625.766h-310.518zM180.019 156.324l64.86 99.041-58.778 90.767h44.81l38.052-60.969 37.294 60.969h44.401l-59.023-92.16 64.86-97.649h-46.223l-42.086 65.638-42.209-65.638h-45.957zM377.201 156.324v188.232h38.318v-156.242h95.273v-31.99h-133.591zM528.404 218.071l37.274 3.645c2.232-12.513 6.799-21.729 13.66-27.607 6.861-5.837 16.118-8.806 27.771-8.806 12.349 0 21.647 2.601 27.894 7.844s9.38 11.325 9.38 18.33c0.004 0.141 0.006 0.306 0.006 0.472 0 4.182-1.487 8.018-3.962 11.005l0.023-0.029c-2.642 3.154-7.25 5.919-13.804 8.233-4.485 1.556-14.725 4.321-30.679 8.274-20.541 5.079-34.959 11.366-43.233 18.76-11.653 10.445-17.49 23.204-17.49 38.195 0 9.687 2.744 18.719 8.212 27.116 5.489 8.438 13.373 14.848 23.695 19.231 10.301 4.403 22.753 6.595 37.335 6.595 23.818 0 41.759-5.243 53.801-15.688s18.35-24.351 18.964-41.8l-38.318-1.679c-1.638 9.769-5.161 16.753-10.547 21.033-5.407 4.28-13.496 6.39-24.289 6.39-11.141 0-19.866-2.273-26.153-6.84-3.694-2.537-6.086-6.739-6.086-11.499 0-0.105 0.001-0.209 0.003-0.313v0.016c0-4.485 1.905-8.315 5.693-11.51 4.813-4.076 16.568-8.274 35.226-12.677 18.637-4.403 32.42-8.97 41.37-13.681 8.929-4.69 15.913-11.121 20.951-19.272 5.059-8.151 7.578-18.248 7.578-30.249 0-10.875-3.011-21.033-9.052-30.556-6.148-9.483-14.915-16.806-25.277-21.025l-0.364-0.131c-11.039-4.608-24.801-6.922-41.308-6.922-23.982 0-42.414 5.55-55.276 16.63s-20.5 27.279-22.999 48.517zM695.685 156.324l64.86 99.041-58.778 90.767h44.81l38.052-60.969 37.274 60.969h44.421l-59.044-92.16 64.86-97.649h-46.223l-42.086 65.638-42.209-65.638h-45.937z" />
<glyph unicode="&#xe947;" glyph-name="CSV1" data-tags="CSV1" d="M671.744 923.832v-240.312h239.616zM622.449 631.276v310.62h-416.768c-35.84 0-64.020-28.938-64.020-65.864v-870.4c0-36.884 28.18-67.256 64.082-67.256h649.892c35.881 0 64.266 30.372 64.266 67.256v625.807l-297.452-0.164zM354.222 201.871l46.285-14.684c-7.086-25.825-18.883-45.015-35.389-57.569-16.507-12.513-37.458-18.801-62.812-18.801-31.396 0-57.201 10.732-77.414 32.195-20.214 21.484-30.31 50.811-30.31 88.044 0 39.383 10.158 69.98 30.474 91.75s47.022 32.686 80.159 32.686c28.918 0 52.429-8.54 70.472-25.661 10.752-10.117 18.801-24.637 24.187-43.561l-47.247-11.325c-2.806 12.268-8.622 21.955-17.51 29.061-8.868 7.107-19.64 10.65-32.338 10.65-17.51 0-31.744-6.287-42.66-18.883-10.916-12.575-16.364-32.973-16.364-61.153 0-29.921 5.366-51.22 16.138-63.918 10.732-12.677 24.719-19.046 41.923-19.046 12.677 0 23.593 4.014 32.727 12.124 9.134 8.090 15.708 20.767 19.681 38.093zM430.817 191.795l48.742 4.526c2.929-15.585 8.888-27.034 17.859-34.365 8.97-7.291 21.074-10.957 36.291-10.957 16.138 0 28.303 3.236 36.475 9.769 8.172 6.492 12.288 14.111 12.288 22.835 0 5.571-1.72 10.342-5.161 14.254-3.441 3.932-9.462 7.332-18.043 10.24-5.857 1.946-19.231 5.386-40.1 10.342-26.87 6.349-45.711 14.131-56.545 23.388-15.237 13.025-22.856 28.856-22.856 47.575 0 12.042 3.584 23.327 10.752 33.792 7.168 10.486 17.49 18.452 30.966 23.941 13.496 5.509 29.778 8.212 48.845 8.212 31.15 0 54.6-6.492 70.349-19.517 15.749-13.005 24.003-30.372 24.801-52.081l-50.115-2.109c-2.13 12.145-6.738 20.91-13.783 26.214-7.066 5.304-17.633 7.987-31.744 7.987-14.561 0-25.969-2.867-34.202-8.561-5.304-3.666-7.967-8.54-7.967-14.684 0-5.571 2.478-10.383 7.455-14.336 6.328-5.059 21.668-10.342 46.060-15.811 24.351-5.489 42.394-11.162 54.088-17.019s20.828-13.865 27.423-24.044c6.595-10.158 9.892-22.712 9.892-37.663 0-13.537-3.932-26.235-11.837-38.052s-19.087-20.623-33.526-26.358c-14.438-5.755-32.44-8.643-54.006-8.643-31.375 0-55.46 6.902-72.274 20.746-16.814 13.824-26.87 33.935-30.126 60.375zM731.996 111.002l-86.733 244.326h53.125l61.399-180.818 59.433 180.818h51.978l-86.917-244.326h-52.285z" />
<glyph unicode="&#xe948;" glyph-name="JAR" data-tags="JAR" d="M745.863 476.132h-42.965v-79.792h41.942c26.597 0 43.988 13.299 43.988 38.873 0 27.62-18.414 40.919-42.965 40.919zM493.187 466.925l-29.666-102.298h62.402l-29.666 102.298zM710.059 960h-506.374c-50.126 0-91.045-39.896-91.045-90.022v-843.956c0-49.103 40.919-90.022 91.045-90.022h615.832c50.126 0 91.045 39.896 91.045 90.022v736.543l-200.503 197.435zM345.879 345.191c0-61.379-34.781-91.045-86.953-91.045-57.287 0-84.907 39.896-84.907 83.884h52.172c1.023-20.46 14.322-33.758 32.735-33.758 21.483 0 33.758 12.276 33.758 38.873v176.975h54.218v-174.929zM554.566 254.146l-18.414 64.448h-82.861l-19.437-64.448h-54.218l83.884 265.974h63.425l83.884-265.974h-56.264zM789.851 254.146l-43.988 97.183h-41.942v-97.183h-53.195v265.974h103.321c61.379 0 90.022-36.827 90.022-85.93 0-43.988-27.62-67.516-46.034-74.677l51.149-105.367h-59.333zM710.059 764.611v144.24l147.309-145.263h-147.309z" />
<glyph unicode="&#xe94a;" glyph-name="hanshubao" data-tags="hanshubao" d="M864 729.856h-59.712v54.976c0 9.408-8.128 17.024-18.176 17.024h-274.112v56h274.112c43.008 0 77.888-32.704 77.888-73.024v-55.040zM945.792 0h-867.584c-43.193 0-78.208 35.015-78.208 78.208v0 739.584c0 43.2 35.008 78.208 78.208 78.208h396.608l133.184-128h337.792c43.2 0 78.208-20.8 78.208-64v-625.792c0-43.2-35.008-78.208-78.208-78.208zM82.048 832c-9.968 0-18.048-8.080-18.048-18.048v0-728.448c0-9.984 8.064-18.048 18.048-18.048h859.264c9.968 0 18.048 8.080 18.048 18.048v0 600.448c0 9.968-8.080 18.048-18.048 18.048v0h-358.464l-134.848 128h-365.952zM533.888 650.112c0.005-0.206 0.008-0.449 0.008-0.692 0-8.164-3.088-15.607-8.16-21.224l0.025 0.028c-4.911-5.697-12.138-9.282-20.201-9.282-0.12 0-0.241 0.001-0.361 0.002h0.018c-8.448 0-14.592 2.56-18.432 8-3.776 5.376-7.68 14.080-11.456 26.048-1.104 4.128-2.957 7.724-5.421 10.811l0.045-0.059c-2.176 2.56-5.44 3.84-9.6 3.84-0.124 0.004-0.269 0.007-0.414 0.007-4.684 0-8.771-2.554-10.945-6.345l-0.033-0.062c-2.826-4.789-5.149-10.327-6.683-16.184l-0.101-0.456-34.752-117.376h48.256l-8.32-27.264h-48.128l-49.984-168.96c-12.265-42.611-24.493-77.095-38.434-110.689l2.53 6.881c-10.817-25.509-26.086-47.18-45.022-64.997l-0.098-0.091c-19.392-18.112-43.904-27.2-73.6-27.2-21.12 0-37.696 4.8-49.28 14.464-11.52 9.6-17.344 20.48-17.344 32.448-0.002 0.131-0.003 0.287-0.003 0.442 0 9.052 3.48 17.292 9.176 23.453l-0.021-0.023c5.596 6.306 13.722 10.26 22.771 10.26 0.387 0 0.772-0.007 1.156-0.022l-0.055 0.002c11.584 0 19.328-3.2 23.040-9.6 3.832-7.326 6.283-15.932 6.777-25.058l0.007-0.158c1.152-13.44 6.784-20.16 16.64-20.16s17.856 5.632 24.192 16.64c6.4 11.328 12.736 28.416 19.328 51.52l80.128 270.528h-50.624l8 27.264h50.56l5.44 19.008c7.424 26.88 15.744 50.368 24.768 70.528 8.96 20.096 22.336 37.888 40.064 53.568 17.728 15.744 39.872 23.488 66.496 23.488 9.984 0 19.456-1.792 28.48-5.184 8.96-3.456 16.128-8.384 21.504-14.848 5.44-6.4 8.064-14.272 8.064-23.296zM866.112 438.4h-35.072c4.864 17.28 7.36 33.024 7.36 47.168-0.109 3.863-1.139 7.462-2.877 10.617l0.061-0.121c-1.92 3.712-5.44 5.632-10.816 5.632-0.11 0.003-0.24 0.005-0.37 0.005-3.603 0-6.913-1.256-9.515-3.355l0.029 0.023c-7-6.649-13.58-13.452-19.863-20.523l-0.297-0.341-68.032-73.984 30.72-100.096c3.392-10.88 6.848-19.84 10.24-27.136 3.328-7.168 7.68-10.752 12.8-10.752 8.576 0 16.192 6.848 23.040 20.48 6.784 13.632 11.584 25.6 14.528 36.16h32.832c-7.296-27.456-16.768-49.92-28.544-67.2-11.712-17.408-24.256-30.080-37.632-38.016-13.44-7.936-26.176-11.904-38.016-11.904-19.328 0-33.92 6.784-43.968 20.608-10.112 13.76-19.136 33.088-26.88 58.368l-14.080 47.36-80.064-87.936c-23.424-25.536-42.88-38.208-58.496-38.208-21.376 0-32.128 14.72-32.128 44.288 0 20.928 4.224 41.728 12.8 62.784h39.488c-8.96-26.24-13.504-42.944-13.504-50.304 0-7.872 2.304-11.776 6.912-11.776 3.84 0 10.624 4.928 20.16 14.784l93.632 102.72-17.92 58.88c-3.493 12.058-6.481 20.932-9.745 29.673l0.977-2.985c-1.979 5.343-4.803 9.937-8.352 13.86l0.032-0.036c-3.005 3.27-7.303 5.313-12.077 5.313-0.052 0-0.103 0-0.155-0.001h0.008c-13.952 0-25.6-18.688-35.072-56h-33.6c7.872 26.496 16.64 48.384 26.88 65.92 10.048 17.536 21.504 30.976 34.24 40.32 12.672 9.216 26.24 13.952 40.576 13.952 19.008 0 34.368-7.040 45.888-21.056 11.52-13.952 20.992-33.28 28.352-57.92l5.888-19.264 56.256 62.72c21.888 23.68 41.6 35.52 59.2 35.52 17.28 0 28.416-5.76 33.344-17.344 4.928-11.712 7.488-23.232 7.488-34.496 0-16-2.24-31.68-6.656-46.4z" />
<glyph unicode="&#xe94b;" glyph-name="udf" data-tags="udf" d="M512 857.6c-226.236 0-409.6-183.364-409.6-409.6s183.364-409.6 409.6-409.6 409.6 183.364 409.6 409.6-183.364 409.6-409.6 409.6zM512 206.985c-133.086 0-241.033 107.93-241.033 241.015s107.947 241.033 241.033 241.033 241.015-107.947 241.015-241.033-107.93-241.015-241.015-241.015zM389.12 448c0-67.865 55.015-122.88 122.88-122.88s122.88 55.015 122.88 122.88v0c0 67.865-55.015 122.88-122.88 122.88s-122.88-55.015-122.88-122.88v0zM512 942.933c-273.067 0-494.933-221.867-494.933-494.933s221.867-494.933 494.933-494.933 494.933 221.867 494.933 494.933-221.867 494.933-494.933 494.933zM512 4.267c-245.641 0-443.733 198.093-443.733 443.733s198.093 443.733 443.733 443.733 443.733-198.093 443.733-443.733-198.093-443.733-443.733-443.733z" />
<glyph unicode="&#xea0a;" glyph-name="plus" data-tags="plus, add, sum" d="M992 576h-352v352c0 17.672-14.328 32-32 32h-192c-17.672 0-32-14.328-32-32v-352h-352c-17.672 0-32-14.328-32-32v-192c0-17.672 14.328-32 32-32h352v-352c0-17.672 14.328-32 32-32h192c17.672 0 32 14.328 32 32v352h352c17.672 0 32 14.328 32 32v192c0 17.672-14.328 32-32 32z" />
<glyph unicode="&#xea0f;" glyph-name="cross1" data-tags="cross, cancel, close, quit, remove" d="M1014.662 137.34c-0.004 0.004-0.008 0.008-0.012 0.010l-310.644 310.65 310.644 310.65c0.004 0.004 0.008 0.006 0.012 0.010 3.344 3.346 5.762 7.254 7.312 11.416 4.246 11.376 1.824 24.682-7.324 33.83l-146.746 146.746c-9.148 9.146-22.45 11.566-33.828 7.32-4.16-1.55-8.070-3.968-11.418-7.31 0-0.004-0.004-0.006-0.008-0.010l-310.648-310.652-310.648 310.65c-0.004 0.004-0.006 0.006-0.010 0.010-3.346 3.342-7.254 5.76-11.414 7.31-11.38 4.248-24.682 1.826-33.83-7.32l-146.748-146.748c-9.148-9.148-11.568-22.452-7.322-33.828 1.552-4.16 3.97-8.072 7.312-11.416 0.004-0.002 0.006-0.006 0.010-0.010l310.65-310.648-310.65-310.652c-0.002-0.004-0.006-0.006-0.008-0.010-3.342-3.346-5.76-7.254-7.314-11.414-4.248-11.376-1.826-24.682 7.322-33.83l146.748-146.746c9.15-9.148 22.452-11.568 33.83-7.322 4.16 1.552 8.070 3.97 11.416 7.312 0.002 0.004 0.006 0.006 0.010 0.010l310.648 310.65 310.648-310.65c0.004-0.002 0.008-0.006 0.012-0.008 3.348-3.344 7.254-5.762 11.414-7.314 11.378-4.246 24.684-1.826 33.828 7.322l146.746 146.748c9.148 9.148 11.57 22.454 7.324 33.83-1.552 4.16-3.97 8.068-7.314 11.414z" />
</font>
</defs>
</svg>
