<?xml version="1.0" standalone="no"?><!DOCTYPE svg PUBLIC "-//W3C//DTD SVG 1.1//EN" "http://www.w3.org/Graphics/SVG/1.1/DTD/svg11.dtd"><svg t="1629094898552" class="icon" viewBox="0 0 1024 1024" version="1.1" xmlns="http://www.w3.org/2000/svg" p-id="14255" xmlns:xlink="http://www.w3.org/1999/xlink" width="36" height="36"><defs><style type="text/css"></style></defs><path d="M328 544H480v152c0 4.416 3.584 8 8 8h48a8 8 0 0 0 8-8V544h152A8 8 0 0 0 704 536v-48a8 8 0 0 0-8-8H544V328A8 8 0 0 0 536 320h-48a8 8 0 0 0-8 8V480H328A8 8 0 0 0 320 488v48c0 4.416 3.584 8 8 8z" p-id="14256"></path><path d="M880 112H144a32 32 0 0 0-32 32v736a32 32 0 0 0 32 32h736a32 32 0 0 0 32-32V144a32 32 0 0 0-32-32z m-40 728H184V184h656v656z" p-id="14257"></path></svg>
