<?xml version="1.0" standalone="no"?><!DOCTYPE svg PUBLIC "-//W3C//DTD SVG 1.1//EN" "http://www.w3.org/Graphics/SVG/1.1/DTD/svg11.dtd"><svg t="1629097035118" class="icon" viewBox="0 0 1024 1024" version="1.1" xmlns="http://www.w3.org/2000/svg" p-id="15251" xmlns:xlink="http://www.w3.org/1999/xlink" width="36" height="36"><defs><style type="text/css"></style></defs><path d="M924.8 625.728l-65.472-56a359.616 359.616 0 0 0 0-115.648l65.472-56a32 32 0 0 0 9.28-35.2l-0.896-2.56a443.712 443.712 0 0 0-79.68-137.92l-1.792-2.112a32.128 32.128 0 0 0-35.136-9.472l-81.28 28.864a352.384 352.384 0 0 0-99.712-57.6l-15.68-84.992a32 32 0 0 0-25.792-25.664l-2.688-0.512a451.776 451.776 0 0 0-159.04 0l-2.688 0.512a32 32 0 0 0-25.792 25.664l-15.808 85.44a351.872 351.872 0 0 0-99.008 57.344l-81.92-29.056a32 32 0 0 0-35.072 9.472l-1.792 2.112A446.08 446.08 0 0 0 90.624 360.32l-0.896 2.56a32.128 32.128 0 0 0 9.28 35.2l66.304 56.64a351.872 351.872 0 0 0 0 114.176l-66.304 56.576a32 32 0 0 0-9.28 35.2l0.896 2.624A444.864 444.864 0 0 0 170.24 801.28l1.792 2.112a32.128 32.128 0 0 0 35.072 9.472l81.92-29.12a349.44 349.44 0 0 0 99.008 57.408l15.808 85.44a32 32 0 0 0 25.792 25.664l2.688 0.512a449.408 449.408 0 0 0 159.04 0l2.688-0.512a32 32 0 0 0 25.792-25.664l15.68-85.056a350.016 350.016 0 0 0 99.712-57.6l81.28 28.928a32 32 0 0 0 35.136-9.472l1.792-2.112a446.08 446.08 0 0 0 79.68-137.92l0.896-2.56a31.872 31.872 0 0 0-9.28-35.008zM788.288 465.92a283.008 283.008 0 0 1 0 92.16l-6.592 40.128 74.688 63.872c-11.264 26.112-25.6 50.688-42.56 73.6l-92.8-32.896-31.424 25.792c-23.872 19.648-50.56 35.008-79.36 45.824l-38.016 14.272-17.92 97.024c-28.16 3.2-56.832 3.2-84.992 0l-17.92-97.216-37.76-14.464a279.744 279.744 0 0 1-78.72-45.696l-31.36-25.92-93.44 33.216a377.856 377.856 0 0 1-42.624-73.6l75.52-64.512-6.528-40a275.648 275.648 0 0 1 0-91.008l6.528-40-75.52-64.512c11.328-26.112 25.6-50.688 42.624-73.6l93.44 33.216 31.36-25.92c23.68-19.456 50.176-34.88 78.72-45.696l37.888-14.272 17.92-97.216c28.032-3.2 56.768-3.2 84.928 0l17.92 97.024 38.08 14.272c28.736 10.816 55.424 26.24 79.36 45.824l31.36 25.792 92.8-32.896c17.024 22.912 31.232 47.616 42.624 73.6l-74.688 63.872 6.464 39.936zM512 326.016a176 176 0 1 0 0 352 176 176 0 0 0 0-352zM591.232 581.12c-21.248 21.12-49.28 32.832-79.232 32.832-29.888 0-57.984-11.712-79.168-32.832a111.616 111.616 0 0 1-32.832-79.168c0-29.888 11.712-58.048 32.832-79.232 21.12-21.184 49.28-32.768 79.168-32.768 29.888 0 57.984 11.584 79.232 32.768 21.12 21.248 32.768 49.28 32.768 79.232 0 29.888-11.712 57.984-32.768 79.168z" p-id="15252"></path></svg>