<?xml version="1.0" standalone="no"?><!DOCTYPE svg PUBLIC "-//W3C//DTD SVG 1.1//EN" "http://www.w3.org/Graphics/SVG/1.1/DTD/svg11.dtd"><svg t="1629097047428" class="icon" viewBox="0 0 1024 1024" version="1.1" xmlns="http://www.w3.org/2000/svg" p-id="15678" xmlns:xlink="http://www.w3.org/1999/xlink" width="36" height="36"><defs><style type="text/css"></style></defs><path d="M915.2 173.44H277.696c-58.88 0-106.432 47.616-106.432 106.496v637.632c0 58.88 47.552 106.432 106.432 106.432H915.2c58.88 0 106.432-47.616 106.432-106.432V279.424a106.24 106.24 0 0 0-106.432-105.92z m45.568 736.96a52.416 52.416 0 0 1-52.16 52.16H284.288a52.416 52.416 0 0 1-52.224-52.16V286.08c0-28.672 23.552-52.224 52.224-52.224h624.32c28.672 0 52.16 23.552 52.16 52.224v624.32z m-760.96-116.672H115.392a52.416 52.416 0 0 1-52.16-52.224V117.184c0-28.672 23.488-52.224 52.16-52.224h624.32c28.672 0 52.224 23.552 52.224 52.224v79.36l60.864 1.472V111.04c0-58.88-47.552-106.432-106.432-106.432H108.8A106.24 106.24 0 0 0 2.304 110.528v637.632c0 58.88 47.616 106.432 106.432 106.432h92.608l-1.536-60.864z m635.584-289.664a29.824 29.824 0 0 1 2.56 41.984 29.12 29.12 0 0 1-21.44 9.728H376.896a29.696 29.696 0 0 1 0-59.392h366.912l-76.224-76.8a29.824 29.824 0 0 1 0-41.92 29.376 29.376 0 0 1 41.92 0l125.888 126.4zM356.48 692.48a29.824 29.824 0 0 1-1.536-41.984 28.672 28.672 0 0 1 21.504-9.216h438.592a29.696 29.696 0 0 1 0 59.392H448.512L524.8 777.344a29.824 29.824 0 0 1 0 41.984 29.376 29.376 0 0 1-41.984 0L356.48 692.416z" p-id="15679"></path></svg>