<?xml version="1.0" standalone="no"?><!DOCTYPE svg PUBLIC "-//W3C//DTD SVG 1.1//EN" "http://www.w3.org/Graphics/SVG/1.1/DTD/svg11.dtd"><svg t="1629095670037" class="icon" viewBox="0 0 1024 1024" version="1.1" xmlns="http://www.w3.org/2000/svg" p-id="14683" xmlns:xlink="http://www.w3.org/1999/xlink" width="36" height="36"><defs><style type="text/css"></style></defs><path d="M461.76 432.256l24.128 24.192c8.32 8.32 8.32 21.76 0 30.144l-59.648 59.648-0.704 0.64 66.432 66.432 0.64-0.64 59.648-59.712c8.32-8.32 21.888-8.32 30.208 0l24.128 24.128c8.32 8.32 8.32 21.888 0 30.208l-59.648 59.648-0.768 0.64 36.288 36.224c16.64 16.64 16.64 43.712 0 60.352l-90.496 90.496a213.376 213.376 0 0 1-275.84 22.144 20.928 20.928 0 0 1-1.728 1.984l-59.648 59.648a21.312 21.312 0 0 1-30.208 0l-24.128-24.128a21.312 21.312 0 0 1 0-30.144l59.648-59.648a22.336 22.336 0 0 1 3.264-2.688 213.376 213.376 0 0 1 26.88-268.864l90.56-90.496a42.688 42.688 0 0 1 60.352 0l30.144 30.208 0.64-0.704 59.712-59.712a21.312 21.312 0 0 1 30.144 0zM310.912 522.88L235.52 598.208a149.312 149.312 0 0 0-3.584 207.488l3.584 3.712c56.896 56.896 148.672 58.496 207.488 3.584l3.648-3.584 75.456-75.392-211.2-211.2z m573.248-422.4a21.312 21.312 0 0 1 30.144 0l24.128 24.128a21.312 21.312 0 0 1 0 30.208l-59.648 59.648c-0.64 0.64-1.28 1.216-1.984 1.728a213.376 213.376 0 0 1-22.144 275.84L764.16 582.4a42.688 42.688 0 0 1-60.352 0L462.464 341.12a42.688 42.688 0 0 1 0-60.352L552.96 190.272a213.376 213.376 0 0 1 268.864-26.88 22.592 22.592 0 0 1 2.688-3.328l59.648-59.648z m-78.464 131.52a149.312 149.312 0 0 0-207.488 3.584L522.88 310.912l211.2 211.2 75.392-75.456 3.584-3.648a149.312 149.312 0 0 0-3.584-207.488l-3.712-3.584z" p-id="14684"></path></svg>