<?xml version="1.0" standalone="no"?><!DOCTYPE svg PUBLIC "-//W3C//DTD SVG 1.1//EN" "http://www.w3.org/Graphics/SVG/1.1/DTD/svg11.dtd"><svg t="1562832653951" class="icon" viewBox="0 0 1024 1024" version="1.1" xmlns="http://www.w3.org/2000/svg" p-id="2015" xmlns:xlink="http://www.w3.org/1999/xlink" width="200" height="200"><defs><style type="text/css"></style></defs><path d="M390.656 626.688c-71.168 34.816-167.936 11.776-212.992-52.224S158.208 429.056 229.376 394.24c45.056-23.04 109.568-23.04 155.136 0 25.6 11.776 57.856 0 71.168-17.408 12.8-23.04 6.656-46.592-19.456-58.368-38.912-23.04-77.312-34.816-122.88-34.816C158.208 283.136 61.44 382.464 61.44 510.464c0 122.368 109.568 226.816 251.904 226.816 45.056 0 90.624-11.776 122.88-29.184 25.6-11.776 32.256-40.96 19.456-64-13.312-23.04-38.912-29.184-65.024-17.408z m323.072-343.552c-45.056 0-90.624 11.776-122.88 29.184-25.6 11.776-32.256 40.96-19.456 64s45.056 29.184 64.512 17.408c71.168-34.816 167.936-11.776 212.992 52.224 12.8 23.04 19.456 46.592 19.456 69.632 0 75.776-71.168 133.632-155.136 133.632-25.6 0-51.712-5.632-77.312-17.408s-51.712-5.632-71.168 17.408c-12.8 23.04-6.656 46.592 19.456 64 38.912 17.408 83.968 29.184 122.88 29.184 135.68 0 251.904-98.816 251.904-226.816s-103.424-232.448-245.248-232.448z" p-id="2016"></path><path d="M308.736 512c0 25.6 19.456 51.2 51.2 51.2H660.48c25.6 0 51.2-19.456 51.2-51.2s-19.456-51.2-51.2-51.2H359.936c-32.256 0-51.2 25.6-51.2 51.2z"  p-id="2017"></path></svg>
