<?xml version="1.0" standalone="no"?><!DOCTYPE svg PUBLIC "-//W3C//DTD SVG 1.1//EN" "http://www.w3.org/Graphics/SVG/1.1/DTD/svg11.dtd"><svg t="1629098692085" class="icon" viewBox="0 0 1024 1024" version="1.1" xmlns="http://www.w3.org/2000/svg" p-id="16674" xmlns:xlink="http://www.w3.org/1999/xlink" width="36" height="36"><defs><style type="text/css"></style></defs><path d="M800 64a160 160 0 0 1 159.68 149.504L960 224v576a160 160 0 0 1-149.504 159.68L800 960h-320c-50.368 0-97.792-23.68-128-63.936L320 896c-54.016 0-101.76-26.752-130.752-67.776a160.128 160.128 0 0 1-124.8-144.832L64 672v-320l0.32-10.496a160.064 160.064 0 0 1 124.928-145.728 159.744 159.744 0 0 1 120.256-67.456L320 128h32a159.808 159.808 0 0 1 116.032-63.552L480 64h320z m0 64h-320a96 96 0 0 0-95.552 86.784L384 224v576a96 96 0 0 0 86.784 95.552L480 896h320a96 96 0 0 0 95.552-86.784L896 800v-576A96 96 0 0 0 800 128zM323.2 192H320a96 96 0 0 0-95.552 86.784L224 288v448a96 96 0 0 0 86.784 95.552L320 832h3.2a160 160 0 0 1-2.816-21.12L320 800v-576c0-10.944 1.088-21.632 3.2-32zM160.256 280.32c-17.28 15.36-29.056 36.928-31.68 61.184L128 352v320l0.448 9.216c2.368 24.832 14.144 46.912 31.808 62.528L160 736v-448l0.256-7.744v0.064z m580.672 86.72a32 32 0 0 1 56.768 28.928l-128 320-2.688 5.312a32 32 0 0 1-56.704-5.312l-128-320L480.64 390.4a32 32 0 0 1 19.456-36.032l5.568-1.664a32 32 0 0 1 36.032 19.456L640 617.856l98.304-245.76 2.624-5.056z" p-id="16675"></path></svg>