<?xml version="1.0" standalone="no"?><!DOCTYPE svg PUBLIC "-//W3C//DTD SVG 1.1//EN" "http://www.w3.org/Graphics/SVG/1.1/DTD/svg11.dtd"><svg class="icon" width="16px" height="16.00px" viewBox="0 0 1024 1024" version="1.1" xmlns="http://www.w3.org/2000/svg"><path d="M941.248 352L672 82.752A64 64 0 0 0 626.752 64H128a64 64 0 0 0-64 64v768a64 64 0 0 0 64 64h768a64 64 0 0 0 64-64V397.248a64 64 0 0 0-18.752-45.248zM256 128h48v160H256V128z m112 0H512v160H368V128zM256 896v-192h512v192H256z m640 0h-64v-224a32 32 0 0 0-32-32h-576a32 32 0 0 0-32 32V896H128V128h64v192a32 32 0 0 0 32 32h320A32 32 0 0 0 576 320V128h50.752L896 397.248V896z" /></svg>
