<?xml version="1.0" standalone="no"?><!DOCTYPE svg PUBLIC "-//W3C//DTD SVG 1.1//EN" "http://www.w3.org/Graphics/SVG/1.1/DTD/svg11.dtd"><svg t="1634554805103" class="icon" viewBox="0 0 1024 1024" version="1.1" xmlns="http://www.w3.org/2000/svg" p-id="5771" xmlns:xlink="http://www.w3.org/1999/xlink" width="16" height="16"><defs><style type="text/css"></style></defs><path d="M840.533333 124.672c63.616 0 115.2 50.261333 115.2 112.213333v540.245334c0 61.994667-51.584 112.213333-115.2 112.213333h-682.666666c-63.616 0-115.2-50.218667-115.2-112.213333V236.885333c0-61.952 51.584-112.213333 115.2-112.213333zM313.557333 687.786667h-198.4l0.042667 89.344c0 21.333333 16.469333 38.869333 37.674667 41.301333l4.992 0.256h155.690666V687.786667z m569.6 0h-177.066666v130.901333H840.533333a42.282667 42.282667 0 0 0 42.368-36.693333l0.298667-4.864-0.042667-89.344z m-249.6 0h-247.466666v130.901333h247.466666V687.786667z m-320-187.050667h-198.4v116.394667h198.4v-116.394667z m569.6 0h-177.066666v116.394667h177.066666v-116.394667z m-249.6 0h-247.466666v116.394667h247.466666v-116.394667zM840.533333 195.328h-682.666666c-23.552 0-42.666667 18.602667-42.666667 41.557333l-0.042667 193.28h768l0.042667-193.28c0-21.333333-16.469333-38.869333-37.674667-41.301333l-4.992-0.256z" p-id="5772"></path></svg>
