<?xml version="1.0" standalone="no"?><!DOCTYPE svg PUBLIC "-//W3C//DTD SVG 1.1//EN" "http://www.w3.org/Graphics/SVG/1.1/DTD/svg11.dtd"><svg class="icon" width="16px" height="16.00px" viewBox="0 0 1024 1024" version="1.1" xmlns="http://www.w3.org/2000/svg"><path d="M512 512m-512 0a512 512 0 1 0 1024 0 512 512 0 1 0-1024 0Z" /><path d="M676.5824 314.88A65.8176 65.8176 0 0 1 742.4 380.6976v263.3216a65.8176 65.8176 0 0 1-65.8176 65.8432H347.392A65.8176 65.8176 0 0 1 281.6 644.0192V380.6976a65.8176 65.8176 0 0 1 65.8176-65.8176H676.608zM413.2608 611.0976h-98.7392v32.9216c0 16.6912 12.4928 30.72 29.056 32.6912l3.84 0.2304h65.8432V611.072z m148.1216 0h-115.2v65.8432h115.2V611.072z m148.096 0h-115.2v65.8432h82.304c16.6656 0 30.72-12.4928 32.6656-29.056l0.256-3.84V611.072z m-296.2176-98.7392h-98.7392v65.8432h98.7392v-65.8432z m148.1216 0h-115.2v65.8432h115.2v-65.8432z m148.096 0h-115.2v65.8432h115.2v-65.8432z m-32.896-164.5568H347.392c-16.6656 0-30.72 12.4928-32.6656 29.056l-0.256 3.84v98.7648h395.008V380.672c0-16.6656-12.5184-30.72-29.0816-32.6656l-3.84-0.256z" /></svg>
