<?xml version="1.0" standalone="no"?><!DOCTYPE svg PUBLIC "-//W3C//DTD SVG 1.1//EN" "http://www.w3.org/Graphics/SVG/1.1/DTD/svg11.dtd"><svg t="1629102971881" class="icon" viewBox="0 0 1024 1024" version="1.1" xmlns="http://www.w3.org/2000/svg" p-id="18379" xmlns:xlink="http://www.w3.org/1999/xlink" width="36" height="36"><defs><style type="text/css"></style></defs><path d="M886.656 886.656a32 32 0 0 1-45.248 0l-158.72-158.656v93.376l-0.32 4.352a32 32 0 0 1-63.68-4.352V640l0.32-3.84A21.312 21.312 0 0 1 640 618.688h181.376l4.352 0.32a32 32 0 0 1 27.648 31.68l-0.32 4.352a32 32 0 0 1-31.68 27.648h-93.44l158.72 158.72 3.072 3.584a32 32 0 0 1-3.072 41.6z m-749.312 0a32 32 0 0 1-3.072-41.6l3.072-3.648 158.72-158.72h-93.44a32 32 0 0 1-31.68-27.648l-0.32-4.352a32 32 0 0 1 27.648-31.68l4.352-0.32H384c10.24 0 19.136 7.36 20.992 17.472l0.32 3.84v181.376a32 32 0 0 1-63.68 4.352l-0.32-4.352v-93.376l-158.72 158.656a32 32 0 0 1-45.248 0z m502.72-481.408a21.312 21.312 0 0 1-20.992-17.536l-0.32-3.84V202.56a32 32 0 0 1 63.68-4.352l0.32 4.352v93.376l158.72-158.656a32 32 0 0 1 48.32 41.6l-3.136 3.648-158.72 158.72h93.44a32 32 0 0 1 31.744 27.648l0.256 4.352a32 32 0 0 1-27.648 31.68l-4.352 0.32h-181.312z m-437.44 0l-4.352-0.32a32 32 0 0 1-27.648-31.68l0.256-4.352a32 32 0 0 1 31.744-27.648h93.44l-158.72-158.72-3.2-3.584a32 32 0 0 1 48.384-41.6l158.72 158.592V202.56l0.32-4.352a32 32 0 0 1 63.68 4.352v181.312l-0.32 3.84a21.312 21.312 0 0 1-20.992 17.536H202.624z" p-id="18380"></path></svg>