<?xml version="1.0" standalone="no"?><!DOCTYPE svg PUBLIC "-//W3C//DTD SVG 1.1//EN" "http://www.w3.org/Graphics/SVG/1.1/DTD/svg11.dtd"><svg class="icon" width="16px" height="16.00px" viewBox="0 0 1024 1024" version="1.1" xmlns="http://www.w3.org/2000/svg"><path d="M224 64a32 32 0 0 1 32 32v100.032l-1.536-0.384a128 128 0 0 1 0 248.704L256 443.968 256 928a32 32 0 1 1-64 0l-0.064-484.032 1.92 0.448a128 128 0 0 1 0-248.832l-1.92 0.448L192 96a32 32 0 0 1 32-32zM512 64a32 32 0 0 1 32 32v292.032l-1.536-0.384a128 128 0 0 1 0 248.704l1.6-0.384L544 928a32 32 0 1 1-64 0l-0.064-292.032 1.92 0.448a128 128 0 0 1 0-248.832l-1.92 0.448L480 96A32 32 0 0 1 512 64z m288 0a32 32 0 0 1 32 32v484.032l-1.536-0.384a128 128 0 0 1 0 248.704l1.6-0.384L832 928a32 32 0 1 1-64 0l-0.064-100.032 1.92 0.448a128 128 0 0 1 0-248.832l-1.92 0.448L768 96a32 32 0 0 1 32-32z m0 576a64 64 0 1 0 0 128 64 64 0 0 0 0-128zM512 448a64 64 0 1 0 0 128 64 64 0 0 0 0-128zM224 256a64 64 0 1 0 0 128 64 64 0 0 0 0-128z" /></svg>
