<?xml version="1.0" standalone="no"?><!DOCTYPE svg PUBLIC "-//W3C//DTD SVG 1.1//EN" "http://www.w3.org/Graphics/SVG/1.1/DTD/svg11.dtd"><svg t="1640681407904" class="icon" viewBox="0 0 1024 1024" version="1.1" xmlns="http://www.w3.org/2000/svg" p-id="24163" xmlns:xlink="http://www.w3.org/1999/xlink" width="32" height="32"><defs><style type="text/css"></style></defs><path d="M928 128H640V32c0-19.2-12.8-32-32-32h-256c-19.2 0-32 12.8-32 32V128H32c-19.2 0-32 12.8-32 32s12.8 32 32 32H64v800c0 19.2 12.8 32 32 32h768c19.2 0 32-12.8 32-32V192h32c19.2 0 32-12.8 32-32s-12.8-32-32-32zM384 64h192v64H384V64z m448 896H128V192h704v768z" opacity=".6" p-id="24164"></path><path d="M480 256c-19.2 0-32 12.8-32 32v576c0 19.2 12.8 32 32 32s32-12.8 32-32v-576c0-19.2-12.8-32-32-32zM288 256c-19.2 0-32 12.8-32 32v576c0 19.2 12.8 32 32 32s32-12.8 32-32v-576c0-19.2-12.8-32-32-32zM672 896c19.2 0 32-12.8 32-32v-576c0-19.2-12.8-32-32-32s-32 12.8-32 32v576c0 19.2 12.8 32 32 32z" opacity=".6" p-id="24165"></path></svg>