<?xml version="1.0" standalone="no"?><!DOCTYPE svg PUBLIC "-//W3C//DTD SVG 1.1//EN" "http://www.w3.org/Graphics/SVG/1.1/DTD/svg11.dtd"><svg t="1629102938692" class="icon" viewBox="0 0 1024 1024" version="1.1" xmlns="http://www.w3.org/2000/svg" p-id="17952" xmlns:xlink="http://www.w3.org/1999/xlink" width="36" height="36"><defs><style type="text/css"></style></defs><path d="M624 706.304H549.888V464a8 8 0 0 0-8-8H481.92a8 8 0 0 0-8 8v242.304H400a8 8 0 0 0-6.272 12.928l112 141.696c3.2 4.096 9.344 4.096 12.544 0l112-141.696a8 8 0 0 0-6.272-12.928z" p-id="17953"></path><path d="M811.392 366.72A320.128 320.128 0 0 0 512.192 160a320 320 0 0 0-299.2 206.592 200.064 200.064 0 0 0 50.88 393.408h40.128a8 8 0 0 0 8-8v-60.032a8 8 0 0 0-8-7.936h-40.128a123.968 123.968 0 0 1-97.728-200.384c16.768-21.376 40.128-36.864 66.176-43.776l37.888-9.856 13.888-36.608a245.632 245.632 0 0 1 88.128-113.28 242.112 242.112 0 0 1 139.968-44.224c50.56 0 98.88 15.296 140.032 44.16a245.76 245.76 0 0 1 88.064 113.28l13.824 36.544 37.76 9.984c54.208 14.656 92.16 63.936 92.16 120.128 0 33.088-12.928 64.32-36.352 87.68a123.072 123.072 0 0 1-87.552 36.352h-40.128a8 8 0 0 0-8 7.936v60.032c0 4.416 3.584 8 8 8h40.128a199.936 199.936 0 0 0 51.264-393.28z" p-id="17954"></path></svg>