<?xml version="1.0" standalone="no"?><!DOCTYPE svg PUBLIC "-//W3C//DTD SVG 1.1//EN" "http://www.w3.org/Graphics/SVG/1.1/DTD/svg11.dtd"><svg t="1681719254991" class="icon" viewBox="0 0 1024 1024" version="1.1" xmlns="http://www.w3.org/2000/svg" p-id="7034" xmlns:xlink="http://www.w3.org/1999/xlink" width="200" height="200"><path d="M883.712 749.568c0-13.312-9.216-22.528-22.528-22.528h-67.072v-98.816c0-13.312-9.216-22.528-22.528-22.528-13.312 0-22.528 9.216-22.528 22.528v143.36h116.736c8.704 0.512 17.92-8.704 17.92-22.016zM188.928 937.472h349.696c13.312 0 23.552-15.872 23.552-29.184s-9.728-29.696-23.552-29.696H203.776c-31.232 0-58.368-12.8-58.368-44.032V189.44c0-31.232 26.112-44.032 57.344-44.032h486.912c31.232 0 44.544 13.312 44.544 44.544v242.176c0 13.312 16.384 21.504 29.696 21.504 13.312 0 29.696-8.192 29.696-21.504V189.44c0-58.368-45.056-102.912-102.912-102.912h-501.76c-58.368 0-102.912 45.056-102.912 102.912v645.12c0 58.368 44.544 102.912 102.912 102.912z" p-id="7035" fill="#707070"></path><path d="M771.584 937.472c116.736 0 210.432-94.208 210.432-210.432s-94.208-210.432-210.432-210.432-210.432 94.208-210.432 210.432 93.696 210.432 210.432 210.432z m0-376.32c89.6 0 165.888 71.68 165.888 165.888 0 89.6-71.68 165.888-165.888 165.888-89.6 0-165.888-71.68-165.888-165.888 0-89.6 76.288-165.888 165.888-165.888zM229.376 301.568H650.24c13.312 0 22.528-9.216 22.528-22.528 0-13.312-9.216-22.528-22.528-22.528H229.376c-13.312 0-22.528 9.216-22.528 22.528s8.704 22.528 22.528 22.528z m165.888 420.864H229.376c-13.312 0-22.528 9.216-22.528 22.528s9.216 22.528 22.528 22.528h165.888c13.312 0 22.528-9.216 22.528-22.528s-9.216-22.528-22.528-22.528zM471.04 565.76H229.376c-13.312 0-22.528 9.216-22.528 22.528 0 13.312 9.216 22.528 22.528 22.528H471.04c13.312 0 22.528-9.216 22.528-22.528 0-13.312-8.704-22.528-22.528-22.528z m179.2-152.576H229.376c-13.312 0-22.528 9.216-22.528 22.528 0 13.312 9.216 22.528 22.528 22.528H650.24c13.312 0 22.528-9.216 22.528-22.528 0-13.312-8.704-22.528-22.528-22.528z" p-id="7036" fill="#707070"></path></svg>