<?xml version="1.0" standalone="no"?><!DOCTYPE svg PUBLIC "-//W3C//DTD SVG 1.1//EN" "http://www.w3.org/Graphics/SVG/1.1/DTD/svg11.dtd"><svg t="1681719101294" class="icon" viewBox="0 0 1024 1024" version="1.1" xmlns="http://www.w3.org/2000/svg" p-id="737" xmlns:xlink="http://www.w3.org/1999/xlink" width="200" height="200"><path d="M614.144 103.424V52.394667a51.2 51.2 0 0 1 51.029333-51.114667h102.144a51.2 51.2 0 0 1 51.114667 51.114667v51.029333h153.173333a51.2 51.2 0 0 1 51.114667 51.114667v547.84l-134.656-140.117334a229.717333 229.717333 0 1 0-72.448 69.632l207.104 205.653334v134.058666a51.2 51.2 0 0 1-51.114667 51.114667H52.394667a51.2 51.2 0 0 1-51.114667-51.114667V154.538667a51.2 51.2 0 0 1 51.114667-51.114667h153.173333V52.394667a51.2 51.2 0 0 1 51.114667-51.114667h102.144a51.2 51.2 0 0 1 51.029333 51.114667v51.029333h204.288zM696.490667 563.2a127.573333 127.573333 0 1 1 0-255.146667 127.573333 127.573333 0 0 1 0 255.146667zM154.538667 307.712a51.2 51.2 0 0 0 51.029333 51.114667h153.258667a51.2 51.2 0 0 0 0-102.144H205.568a51.2 51.2 0 0 0-51.029333 51.029333z m0 255.402667a51.2 51.2 0 0 0 51.029333 51.029333h51.114667a51.2 51.2 0 0 0 0-102.144h-51.114667a51.2 51.2 0 0 0-51.029333 51.114667z m0 255.317333a51.2 51.2 0 0 0 51.029333 51.029333h459.605333a51.2 51.2 0 0 0 0-102.144H205.653333a51.2 51.2 0 0 0-51.029333 51.114667z" fill="#707070" p-id="738"></path></svg>