<?xml version="1.0" standalone="no"?><!DOCTYPE svg PUBLIC "-//W3C//DTD SVG 1.1//EN" "http://www.w3.org/Graphics/SVG/1.1/DTD/svg11.dtd"><svg t="1668604799199" class="icon" viewBox="0 0 1024 1024" version="1.1" xmlns="http://www.w3.org/2000/svg" p-id="3200" xmlns:xlink="http://www.w3.org/1999/xlink" width="200" height="200"><path d="M719.768116 237.449275H304.231884a59.362319 59.362319 0 0 0-59.362319 59.362319v415.536232a59.362319 59.362319 0 0 0 59.362319 59.362319h415.536232a59.362319 59.362319 0 0 0 59.362319-59.362319V296.811594a59.362319 59.362319 0 0 0-59.362319-59.362319z m0 474.898551H304.231884V296.811594h415.536232v415.536232z m267.130435-237.449275a29.681159 29.681159 0 0 0 0-59.362319h-103.884058v-89.043478h103.884058a29.681159 29.681159 0 0 0 0-59.362319h-103.884058v-50.265044A78.313739 78.313739 0 0 0 801.391304 133.565217H764.289855V29.681159a29.681159 29.681159 0 0 0-59.362319 0v103.884058h-89.043478V29.681159a29.681159 29.681159 0 0 0-59.362319 0v103.884058h-89.043478V29.681159a29.681159 29.681159 0 0 0-59.362319 0v103.884058h-89.043478V29.681159a29.681159 29.681159 0 0 0-59.362319 0v103.884058h-37.101449C173.516058 133.565217 126.144928 167.698551 126.144928 216.865391V267.130435H37.101449a29.681159 29.681159 0 0 0 0 59.362319h89.043479v89.043478H37.101449a29.681159 29.681159 0 0 0 0 59.362319h89.043479v89.043478H37.101449a29.681159 29.681159 0 0 0 0 59.362319h89.043479v89.043478H37.101449a29.681159 29.681159 0 0 0 0 59.362319h89.043479v23.937855A100.826899 100.826899 0 0 0 222.608696 890.434783H259.710145v103.884058a29.681159 29.681159 0 0 0 59.362319 0v-103.884058h89.043478v103.884058a29.681159 29.681159 0 0 0 59.362319 0v-103.884058h89.043478v103.884058a29.681159 29.681159 0 0 0 59.362319 0v-103.884058h89.043478v103.884058a29.681159 29.681159 0 0 0 59.362319 0v-103.884058h37.101449c49.092638 0 81.623188-45.694145 81.623189-94.786783V771.710145h103.884058a29.681159 29.681159 0 0 0 0-59.362319h-103.884058v-89.043478h103.884058a29.681159 29.681159 0 0 0 0-59.362319h-103.884058v-89.043478h103.884058zM823.652174 801.391304a29.681159 29.681159 0 0 1-29.68116 29.68116H215.188406a29.681159 29.681159 0 0 1-29.68116-29.68116V222.608696a29.681159 29.681159 0 0 1 29.68116-29.68116h578.782608a29.681159 29.681159 0 0 1 29.68116 29.68116v578.782608z" p-id="3201" fill="#707070"></path></svg>
