<?xml version="1.0" standalone="no"?><!DOCTYPE svg PUBLIC "-//W3C//DTD SVG 1.1//EN" "http://www.w3.org/Graphics/SVG/1.1/DTD/svg11.dtd"><svg class="icon" width="16px" height="16.00px" viewBox="0 0 1024 1024" version="1.1" xmlns="http://www.w3.org/2000/svg"><path d="M166.464 448.704l212.608 128.768a32 32 0 1 1-33.152 54.656l-266.496-161.28a32 32 0 0 1 4.288-56.96l832-347.392a32 32 0 0 1 43.712 35.456l-145.728 768a32 32 0 0 1-48.64 21.12l-270.208-171.392a32 32 0 0 1 34.24-54.08l230.464 146.176L885.44 148.48 166.464 448.704zM416 632.064V896a32 32 0 1 1-64 0V617.344a32 32 0 0 1 11.2-24.32l388.992-333.056a32 32 0 1 1 41.6 48.64L416 632.128z" /></svg>
