<?xml version="1.0" standalone="no"?><!DOCTYPE svg PUBLIC "-//W3C//DTD SVG 1.1//EN" "http://www.w3.org/Graphics/SVG/1.1/DTD/svg11.dtd"><svg t="1640680441611" class="icon" viewBox="0 0 1024 1024" version="1.1" xmlns="http://www.w3.org/2000/svg" p-id="15545" xmlns:xlink="http://www.w3.org/1999/xlink" width="32" height="32"><defs><style type="text/css"></style></defs><path d="M512 32C246.4 32 32 246.4 32 512s214.4 480 480 480 480-214.4 480-480S777.6 32 512 32zM512 928C281.6 928 96 742.4 96 512S281.6 96 512 96s416 185.6 416 416S742.4 928 512 928z" p-id="15546"></path><path d="M649.6 524.8c-22.4-12.8-64-28.8-131.2-48-48-12.8-80-25.6-92.8-32C396.8 428.8 384 409.6 384 384c0-28.8 12.8-51.2 35.2-64 19.2-12.8 48-19.2 86.4-19.2 41.6 0 73.6 9.6 96 25.6 22.4 19.2 35.2 44.8 41.6 80l57.6 0c-6.4-54.4-25.6-92.8-57.6-118.4-32-25.6-76.8-38.4-134.4-38.4-51.2 0-96 12.8-128 35.2-38.4 22.4-54.4 57.6-54.4 102.4 0 41.6 19.2 73.6 57.6 96 19.2 9.6 57.6 22.4 115.2 41.6 57.6 16 92.8 28.8 105.6 35.2 32 19.2 51.2 41.6 51.2 73.6 0 25.6-12.8 48-38.4 64-25.6 16-57.6 22.4-99.2 22.4-44.8 0-76.8-9.6-102.4-28.8-25.6-19.2-41.6-54.4-44.8-96L313.6 595.2c3.2 60.8 25.6 108.8 64 137.6 35.2 25.6 80 38.4 140.8 38.4 57.6 0 105.6-12.8 140.8-38.4 35.2-25.6 51.2-60.8 51.2-105.6C710.4 585.6 691.2 550.4 649.6 524.8z" p-id="15547"></path></svg>