<?xml version="1.0" standalone="no"?><!DOCTYPE svg PUBLIC "-//W3C//DTD SVG 1.1//EN" "http://www.w3.org/Graphics/SVG/1.1/DTD/svg11.dtd"><svg t="1640679704178" class="icon" viewBox="0 0 1024 1024" version="1.1" xmlns="http://www.w3.org/2000/svg" p-id="3241" xmlns:xlink="http://www.w3.org/1999/xlink" width="32" height="32"><defs><style type="text/css"></style></defs><path d="M670.73024 468.196693c-64.641707-0.12288-117.005653-52.473173-117.121707-117.118293V120.521387c0.109227-64.631467 52.476587-116.988587 117.121707-117.111467h230.54336a123.648 123.648 0 0 1 90.487467 39.652693 101.676373 101.676373 0 0 1 27.241813 77.66016v230.355627c-0.109227 64.641707-52.476587 116.992-117.121707 117.118293h-231.150933z m12.806827-396.260693c-31.935147 2.348373-56.60672 28.975787-56.528214 60.992853v212.456107c1.757867 31.300267 28.4672 55.302827 59.774294 53.671253h207.383893c30.409387 0.600747 55.7056-23.261867 56.9344-53.671253V132.11648c-1.44384-33.068373-27.93472-59.5456-60.99968-60.98944l-206.564693 0.80896zM121.777493 468.196693c-64.62464-0.12288-116.985173-52.473173-117.101226-117.118293V120.521387C4.788907 55.88992 57.152853 3.529387 121.777493 3.40992h230.355627a123.630933 123.630933 0 0 1 90.671787 39.652693 101.6832 101.6832 0 0 1 26.443093 77.66016v230.355627c-0.126293 64.641707-52.476587 116.992-117.121707 117.118293H121.777493z m12.806827-396.260693c-31.921493 2.348373-56.603307 28.975787-56.511147 60.992853v212.456107c1.7408 31.300267 28.4672 55.302827 59.774294 53.671253h207.38048c30.4128 0.600747 55.709013-23.261867 56.92416-53.671253V132.11648c-1.44384-33.068373-27.921067-59.5456-60.99968-60.98944l-206.568107 0.80896zM121.777493 1020.398933c-64.62464-0.126293-116.985173-52.476587-117.101226-117.128533v-230.33856c0.109227-64.62464 52.476587-117.00224 117.101226-117.101227h230.355627a123.55584 123.55584 0 0 1 90.671787 39.63904 101.70368 101.70368 0 0 1 26.443093 77.68064v230.335147c-0.126293 64.628053-52.476587 117.005653-117.121707 117.10464l-230.3488-0.191147z m12.806827-396.274346c-31.921493 2.351787-56.603307 28.99968-56.511147 61.013333v212.44928c1.518933 31.41632 28.23168 55.616853 59.634347 54.07744h207.520427c30.569813 0.566613 55.934293-23.507627 56.92416-54.07744V684.509867c-1.44384-33.05472-27.921067-59.538773-60.99968-60.982614l-206.568107 0.597334zM670.73024 1020.398933c-64.641707-0.126293-117.005653-52.476587-117.121707-117.128533v-230.33856c0.109227-64.62464 52.476587-117.00224 117.121707-117.101227h230.54336a123.648 123.648 0 0 1 90.487467 39.63904 101.707093 101.707093 0 0 1 27.241813 77.68064v230.335147c-0.109227 64.628053-52.476587 117.005653-117.121707 117.10464l-231.150933-0.191147z m12.806827-396.274346c-31.935147 2.351787-56.60672 28.99968-56.528214 61.013333v212.44928c1.532587 31.41632 28.23168 55.616853 59.634347 54.07744H894.16704c30.5664 0.566613 55.927467-23.507627 56.9344-54.07744V684.509867c-1.44384-33.05472-27.93472-59.538773-60.99968-60.982614l-206.564693 0.597334z" p-id="3242"></path></svg>