<?xml version="1.0" standalone="no"?><!DOCTYPE svg PUBLIC "-//W3C//DTD SVG 1.1//EN" "http://www.w3.org/Graphics/SVG/1.1/DTD/svg11.dtd"><svg t="1640679614065" class="icon" viewBox="0 0 1024 1024" version="1.1" xmlns="http://www.w3.org/2000/svg" p-id="2411" xmlns:xlink="http://www.w3.org/1999/xlink" width="32" height="32"><defs><style type="text/css"></style></defs><path d="M412.013714 644.388571l19.017143 10.971429v133.851429h161.938286V655.36l19.017143-10.971429a197.997714 197.997714 0 0 0 99.84-171.739428A199.094857 199.094857 0 0 0 512 274.212571a199.094857 199.094857 0 0 0-199.826286 198.436572c0 71.606857 38.546286 136.484571 99.84 171.812571zM236.397714 472.722286c0-151.552 123.392-274.285714 275.602286-274.285715 152.137143 0 275.602286 122.733714 275.602286 274.285715a273.554286 273.554286 0 0 1-118.857143 225.572571v90.916572c0 41.910857-33.938286 75.849143-75.776 75.849142H431.030857a75.849143 75.849143 0 0 1-75.776-75.849142V698.221714a273.554286 273.554286 0 0 1-118.857143-225.572571zM510.317714 0h3.364572c20.992 0 37.961143 16.969143 37.961143 37.888v42.349714a37.888 37.888 0 0 1-37.961143 37.888h-3.364572a37.888 37.888 0 0 1-37.961143-37.888V37.888c0-20.918857 16.969143-37.888 37.961143-37.888z m396.141715 433.225143h43.081142c20.918857 0 37.888 16.969143 37.888 37.888v2.925714a37.888 37.888 0 0 1-37.888 37.961143h-43.081142a37.888 37.888 0 0 1-37.888-37.888v-2.925714c0-20.992 16.969143-37.961143 37.888-37.961143z m-832 0h43.081142c20.918857 0 37.888 16.969143 37.888 37.888v2.925714A37.888 37.888 0 0 1 117.540571 512H74.459429A37.888 37.888 0 0 1 36.571429 474.112v-2.925714c0-20.992 16.969143-37.961143 37.888-37.961143z m156.013714-296.082286l30.427428 30.427429a37.888 37.888 0 0 1 0 53.613714l-2.048 2.048a37.888 37.888 0 0 1-53.613714 0l-30.427428-30.427429a37.888 37.888 0 0 1 0-53.613714l2.048-2.048a37.888 37.888 0 0 1 53.613714 0z m618.788571 55.661714l-30.500571 30.427429a37.888 37.888 0 0 1-53.613714 0l-2.048-2.048a37.888 37.888 0 0 1 0-53.613714l30.427428-30.427429a37.888 37.888 0 0 1 53.613714 0l2.048 2.048a37.888 37.888 0 0 1 0 53.613714zM432.420571 1024a39.350857 39.350857 0 1 1 0-78.774857h159.012572a39.350857 39.350857 0 0 1 0 78.774857H432.493714z" p-id="2412"></path></svg>