<?xml version="1.0" standalone="no"?><!DOCTYPE svg PUBLIC "-//W3C//DTD SVG 1.1//EN" "http://www.w3.org/Graphics/SVG/1.1/DTD/svg11.dtd"><svg t="1679019924841" class="icon" viewBox="0 0 1024 1024" version="1.1" xmlns="http://www.w3.org/2000/svg" p-id="2944" xmlns:xlink="http://www.w3.org/1999/xlink" width="128" height="128"><path d="M618.52464 139.830699c-8.547677-13.734816-19.503193-20.119223-29.150924-24.572652-8.43716-3.837398-17.681708-5.78168-27.514657-5.78168-13.169951 0-27.191292 3.471055-41.669028 10.272971-14.658861 6.860245-25.796526 15.34243-28.658713 17.616216l-206.79995 157.046802c-29.1806 24.13263-70.936609 26.01142-83.043345 26.01142l-4.152577-0.044002c-67.195402 0-124.132158 51.258431-132.496663 119.552863l-1.416256 15.540951 0.065492 114.255207 1.50426 14.476713c8.29799 67.986417 65.242933 119.244848 134.058229 119.244848 44.897559 0 85.640496 26.464745 85.956697 26.670429 2.75167 1.899256 67.576071 47.353494 100.550067 119.890554 4.666276 10.31595 14.923898 17.000186 26.149567 17.000186 4.175089 0 8.188496-0.895393 11.997242-2.677992 14.388708-6.67605 20.74958-24.044626 14.137998-38.755676-40.74396-89.411379-117.587092-141.734048-120.858602-143.926993-5.591345-3.749394-56.336076-36.510542-119.626541-36.510542-38.109969-0.089028-70.459748-29.275767-75.222215-67.524906l-1.12973-10.889001-0.044002-108.355847 1.12973-11.709693c4.805446-38.513152 37.045731-67.693752 74.414827-67.88511 0.99056 0.044002 2.971681 0.11768 5.767354 0.11768 21.424962 0 75.838246-3.786233 118.071116-38.630832L526.934642 183.400007c7.734148-6.310729 24.080441-15.658631 34.544771-15.658631 1.664919 0 3.044336 0.242524 4.057409 0.712221 4.174066 1.952468 7.469112 3.50687 8.841366 26.054399l0 634.988102c-0.433882 20.881586-3.075035 24.859177-4.623297 25.548886-1.12973 0.366344-2.575662 0.573051-4.263094 0.573051-12.985756 0-32.833803-11.094686-39.935548-16.202007l-33.414017-23.603581c-4.849448-3.426029-10.558473-5.260817-16.464997-5.260817-9.420557 0-18.262946 4.6673-23.626094 12.495592-4.402263 6.383384-6.089695 14.132882-4.739954 21.820981 1.356904 7.703449 5.554506 14.388708 11.864212 18.86465l33.127492 23.428595c6.222725 4.483104 38.98285 26.883277 73.321936 26.883277 8.144494 0 15.561417-1.196245 22.61916-3.6399 42.409902-14.668071 43.268456-58.632375 43.701315-79.999009l-0.021489-638.07644C630.653889 169.33364 626.397958 152.671145 618.52464 139.830699zM805.052894 511.808642c0-32.599466-8.525164-64.714907-24.623817-92.860944-15.58393-27.213805-37.904285-50.157353-64.560388-66.328661-4.468778-2.744507-9.56075-4.189416-14.770402-4.189416-10.051937 0-19.524682 5.459339-24.690332 14.2127-3.969405 6.632047-5.113461 14.439874-3.295046 21.989827 1.877767 7.609305 6.567579 14.021342 13.257955 18.0941 18.270109 10.991332 33.5757 26.691919 44.310182 45.417399 10.984169 19.135826 16.780175 41.11849 16.780175 63.548338 0 22.49534-5.9055 44.655036-17.117866 64.053851-10.866489 18.798135-26.399253 34.558074-44.963051 45.542242-6.647397 3.933589-11.387351 10.250458-13.32447 17.793248-1.958608 7.550976-0.902556 15.423271 2.994194 22.218024 5.164626 8.892531 14.702863 14.432711 24.894993 14.432711 4.579295 0 9.383718-1.211595 14.615882-3.889587 26.993794-16.060791 49.628304-39.048341 65.521273-66.474994C796.417213 577.088414 805.052894 544.744775 805.052894 511.808642zM918.288888 352.640526c-26.700105-46.605457-64.912405-85.84618-110.491487-113.440655-4.461615-2.744507-9.575076-4.197602-14.763239-4.197602-10.082636 0-19.547195 5.480828-24.667819 14.219863-3.969405 6.647397-5.142114 14.46955-3.295046 22.019503 1.871627 7.593955 6.560416 13.999852 13.236466 18.049075 37.230949 22.466688 68.413136 54.464449 90.199325 92.551906 22.391986 39.174208 34.227546 83.960227 34.227546 129.524982 0 45.960775-12.041244 91.070158-34.83846 130.463354-22.099321 38.309514-53.759391 70.409606-91.523483 92.780103-6.655584 3.933589-11.395538 10.243295-13.346983 17.814738-1.944282 7.549953-0.887206 15.400758 2.993171 22.144346 5.166673 8.922207 14.70491 14.462387 24.918529 14.462387 4.982478 0 9.91993-1.285273 14.475689-3.867074 46.203298-27.382651 85.010139-66.659189 112.201431-113.603361 27.939329-48.352241 42.709731-103.712083 42.709731-160.076812C960.32426 455.627085 945.773869 400.707264 918.288888 352.640526z" p-id="2945"></path></svg>
