<?xml version="1.0" standalone="no"?><!DOCTYPE svg PUBLIC "-//W3C//DTD SVG 1.1//EN" "http://www.w3.org/Graphics/SVG/1.1/DTD/svg11.dtd"><svg t="1629100138481" class="icon" viewBox="0 0 1024 1024" version="1.1" xmlns="http://www.w3.org/2000/svg" p-id="17384" xmlns:xlink="http://www.w3.org/1999/xlink" width="36" height="36"><defs><style type="text/css"></style></defs><path d="M885.290667 636.330667l-59.306667-50.645334a325.376 325.376 0 0 0 0-104.618666l59.306667-50.645334a29.013333 29.013333 0 0 0 8.405333-31.872l-0.853333-2.346666a401.493333 401.493333 0 0 0-72.106667-124.757334l-1.621333-1.877333a29.056 29.056 0 0 0-31.744-8.618667l-73.557334 26.154667a318.805333 318.805333 0 0 0-90.197333-52.096l-14.208-76.928a29.013333 29.013333 0 0 0-23.338667-23.253333l-2.432-0.426667a408.746667 408.746667 0 0 0-143.872 0l-2.432 0.426667a29.013333 29.013333 0 0 0-23.338666 23.253333l-14.293334 77.269333a318.336 318.336 0 0 0-89.6 51.925334l-74.069333-26.325334a28.970667 28.970667 0 0 0-31.786667 8.618667l-1.621333 1.877333a403.541333 403.541333 0 0 0-72.106667 124.757334l-0.810666 2.346666a29.056 29.056 0 0 0 8.405333 31.872l59.989333 51.2a318.336 318.336 0 0 0-4.138666 51.626667c0 17.408 1.322667 34.773333 4.138666 51.712l-59.989333 51.2a29.013333 29.013333 0 0 0-8.405333 31.829333l0.853333 2.346667a402.517333 402.517333 0 0 0 72.106667 124.8l1.578666 1.877333a29.056 29.056 0 0 0 31.786667 8.618667l74.069333-26.325333a316.16 316.16 0 0 0 89.6 51.925333l14.293334 77.226667a29.013333 29.013333 0 0 0 23.338666 23.296l2.432 0.426666a406.613333 406.613333 0 0 0 143.872 0l2.432-0.426666a29.013333 29.013333 0 0 0 23.338667-23.253334l14.208-76.928a316.672 316.672 0 0 0 90.197333-52.096l73.557334 26.154667a28.970667 28.970667 0 0 0 31.744-8.618667l1.664-1.877333a403.541333 403.541333 0 0 0 72.106666-124.8l0.810667-2.346667a28.842667 28.842667 0 0 0-8.405333-31.658666z m-123.52-144.554667a256.042667 256.042667 0 0 1 0 83.413333l-5.973334 36.266667 67.584 57.813333a334.762667 334.762667 0 0 1-38.528 66.56l-83.968-29.738666-28.416 23.338666a252.842667 252.842667 0 0 1-71.722666 41.429334l-34.474667 12.970666-16.213333 87.765334a341.546667 341.546667 0 0 1-76.885334 0l-16.213333-87.978667-34.218667-13.098667a253.141333 253.141333 0 0 1-71.168-41.386666l-28.416-23.381334-84.48 30.037334a341.888 341.888 0 0 1-38.570666-66.602667l68.266666-58.368-5.845333-36.181333a260.48 260.48 0 0 1-3.328-41.173334c0-13.824 1.066667-27.690667 3.328-41.173333l5.888-36.181333L200.106667 397.738667c10.24-23.594667 23.168-45.866667 38.528-66.56l84.48 30.037333 28.458666-23.466667a253.141333 253.141333 0 0 1 71.168-41.344l34.304-12.928 16.213334-87.936a341.546667 341.546667 0 0 1 76.885333 0l16.213333 87.765334 34.474667 12.928a254.08 254.08 0 0 1 71.722667 41.429333l28.416 23.338667 83.968-29.738667c15.36 20.693333 28.245333 43.093333 38.528 66.56l-67.584 57.813333 5.888 36.138667z m-249.984-126.592a159.232 159.232 0 1 0 0 318.464 159.232 159.232 0 0 0 0-318.464z m71.68 230.912a100.992 100.992 0 0 1-71.68 29.653333c-27.050667 0-52.48-10.581333-71.68-29.653333a100.992 100.992 0 0 1-29.653334-71.68c0-27.050667 10.581333-52.48 29.696-71.68a100.608 100.608 0 0 1 71.68-29.653333c27.008 0 52.437333 10.496 71.637334 29.696 19.072 19.2 29.653333 44.586667 29.653333 71.68 0 27.008-10.581333 52.437333-29.653333 71.637333z" p-id="17385"></path></svg>