<?xml version="1.0" standalone="no"?><!DOCTYPE svg PUBLIC "-//W3C//DTD SVG 1.1//EN" "http://www.w3.org/Graphics/SVG/1.1/DTD/svg11.dtd"><svg t="1629095657321" class="icon" viewBox="0 0 1024 1024" version="1.1" xmlns="http://www.w3.org/2000/svg" p-id="14541" xmlns:xlink="http://www.w3.org/1999/xlink" width="36" height="36"><defs><style type="text/css"></style></defs><path d="M431.633655 87.958069a80.366345 80.366345 0 1 0 160.697379 0 80.366345 80.366345 0 1 0-160.732689 0h0.03531zM119.966897 220.689655a78.035862 78.035862 0 1 0 156.071724 0 78.035862 78.035862 0 1 0-156.071724 0zM1.182897 514.153931a71.044414 71.044414 0 0 0 142.088827 0 71.044414 71.044414 0 0 0-142.088827 0z m125.775448 320.211862a61.722483 61.722483 0 0 0 123.444965 0 61.722483 61.722483 0 0 0-123.444965 0z m333.806345 133.755586a53.707034 53.707034 0 0 0 107.414069 0 53.707034 53.707034 0 0 0-107.414069 0z m345.829517-123.233103a38.488276 38.488276 0 1 0 76.976552 0 38.488276 38.488276 0 1 0-76.976552 0z m160.114759-332.199724a27.277241 27.277241 0 1 0 54.554482 0 27.277241 27.277241 0 1 0-54.554482 0z m-81.937656-286.102069a19.473655 19.473655 0 0 0 38.964966 0 19.473655 19.473655 0 0 0-38.964966 0z" p-id="14542"></path></svg>