<?xml version="1.0" encoding="UTF-8"?>
<svg viewBox="0 0 12 12" version="1.1" xmlns="http://www.w3.org/2000/svg" xmlns:xlink="http://www.w3.org/1999/xlink">
    <title>大数据,数据结构,关系,关系分析,共同联系人,组织</title>
    <g id="节点路径关系查询-0613" stroke="none" stroke-width="1" fill="none" fill-rule="evenodd">
        <g id="DSS-工作流管理-工作流节点路径查询备份" transform="translate(-1882.000000, -292.000000)" fill="#000000" fill-rule="nonzero">
            <g id="编组-16" transform="translate(1870.000000, 171.000000)">
                <g id="大数据,数据结构,关系,关系分析,共同联系人,组织" transform="translate(12.000000, 121.000000)">
                    <rect id="矩形" opacity="0" x="4.02074589e-05" y="0" width="11.9999246" height="11.9999246"></rect>
                    <path d="M10.5000094,4.12497409 C11.3285198,4.12497409 12,3.45349394 12,2.62498351 C12,1.79764496 11.327348,1.12499293 10.5000094,1.12499293 C9.671499,1.12499293 9.00001884,1.79647309 9.00001884,2.62498351 C9.00001884,2.84529463 9.04806541,3.05505894 9.13243988,3.24372963 C9.16408031,3.31404169 9.14884603,3.39724429 9.09376825,3.45232207 L8.81017628,3.73591404 C8.74337983,3.80271049 8.635568,3.8097417 8.56174034,3.74997645 C8.11525877,3.39724429 7.55041857,3.18747998 6.93753179,3.18747998 C6.71722068,3.18747998 6.5027689,3.21443294 6.29769206,3.26599511 C6.2168332,3.28591686 6.13245873,3.24958897 6.09027149,3.17810504 L6.01292823,3.04451213 C5.97308473,2.97654381 5.9812878,2.89099747 6.03167811,2.83006035 C6.24964549,2.56521826 6.3797228,2.22537665 6.37503533,1.85506647 C6.36448852,1.0429622 5.6988677,0.382028851 4.88676342,0.374942352 C4.05942487,0.367966439 3.38560098,1.03241539 3.37505417,1.85506647 C3.36450736,2.66951448 4.03715938,3.36208826 4.85160739,3.37380694 C4.96176295,3.3749788 5.06840291,3.36560386 5.17269913,3.34451025 C5.25238613,3.3281041 5.33207313,3.364432 5.37308849,3.43474405 L5.39886958,3.47927502 C5.44574429,3.56130576 5.42465067,3.66560198 5.34965114,3.72185163 C4.85277926,4.10036487 4.49418776,4.65231453 4.36528232,5.28746679 C4.34770431,5.374185 4.27036104,5.43629398 4.1812991,5.43629398 L3.07857165,5.43629398 C3.00122839,5.43629398 2.93091633,5.38941928 2.90396338,5.31676348 C2.69185533,4.75426702 2.15045248,4.35348828 1.51530022,4.34645708 C0.687961668,4.33942587 0.00593470169,5.01090603 3.74379707e-05,5.83707272 C-0.00578397471,6.67027061 0.668039918,7.3476101 1.50006594,7.3476101 C2.1645149,7.3476101 2.72818323,6.91519095 2.92505699,6.31753845 C2.95083808,6.24019518 3.02232201,6.18746114 3.10318087,6.18746114 L4.1812991,6.18746114 C4.27036104,6.18746114 4.34770431,6.25074199 4.36528232,6.33863207 C4.47660975,6.88589425 4.75785798,7.36987559 5.15043364,7.73549829 C5.2137145,7.79409168 5.22777691,7.89018482 5.1844178,7.96518435 L4.93012253,8.40580658 C4.88676342,8.47963425 4.80004522,8.51596214 4.71684262,8.49252479 C4.58676531,8.45619689 4.45082866,8.43744701 4.30903268,8.43744701 C3.49224093,8.43861888 2.82076077,9.10306783 2.81138583,9.92103144 C2.80201089,10.7612605 3.48403786,11.4444594 4.32426696,11.4374282 C5.13871497,11.430397 5.80433579,10.765948 5.81136699,9.9515 C5.81488259,9.62337706 5.71175824,9.31986334 5.5359781,9.0714274 C5.49379086,9.01166215 5.49027526,8.93314702 5.52660316,8.86986617 L5.8183982,8.36479122 C5.86410104,8.28627608 5.95902231,8.25112006 6.04456865,8.28276048 C6.32230128,8.3835411 6.6222994,8.43744701 6.93518806,8.43744701 C7.34416987,8.43744701 7.73088619,8.3436976 8.07541527,8.17729239 C8.16447721,8.13393329 8.27111717,8.16674559 8.32033561,8.25229192 L8.75392664,9.00228721 C8.44572545,9.27767611 8.25002355,9.67845484 8.25002355,10.1249364 C8.25002355,10.9557906 8.92970678,11.6307863 9.76056094,11.6249649 C10.5773527,11.6190677 11.2394579,10.960478 11.2500047,10.1448582 C11.2605515,9.32337895 10.5820402,8.6296333 9.76056094,8.62494583 C9.68790515,8.62494583 9.61642122,8.6296333 9.54610916,8.63900824 C9.46993776,8.64955505 9.3961101,8.61322716 9.35743847,8.54760257 L8.89806636,7.75190444 C8.85822286,7.68276425 8.86642593,7.59604604 8.91798811,7.53628079 C9.31876684,7.07573681 9.56134344,6.47339684 9.56134344,5.81363536 C9.56134344,5.35777885 9.44532854,4.9288753 9.24025171,4.55504952 C9.20040821,4.48239372 9.21447062,4.39215992 9.273064,4.33356653 L9.60587441,4.00075612 C9.66329593,3.94333461 9.751186,3.93044407 9.82501366,3.96677196 C10.0289186,4.06755258 10.2574328,4.12497409 10.5000094,4.12497409 L10.5000094,4.12497409 Z M10.5000094,1.87498822 C10.9136787,1.87498822 11.2500141,2.21131424 11.2500141,2.62498351 C11.2500141,3.03865279 10.9136787,3.37498822 10.5000094,3.37498822 C10.0863401,3.37498822 9.75001413,3.03865279 9.75001413,2.62498351 C9.75001413,2.21131424 10.0863401,1.87498822 10.5000094,1.87498822 Z M1.50006594,6.59762424 C1.08639667,6.59762424 0.750070653,6.2612888 0.750070653,5.84761953 C0.750070653,5.43395025 1.08639667,5.09762424 1.50006594,5.09762424 C1.91373522,5.09762424 2.25007065,5.43395025 2.25007065,5.84761953 C2.25007065,6.2612888 1.91373522,6.59762424 1.50006594,6.59762424 Z M4.31254828,10.6874423 C3.898879,10.6874423 3.56255299,10.3511069 3.56255299,9.93743759 C3.56255299,9.52376831 3.898879,9.1874423 4.31254828,9.1874423 C4.72621756,9.1874423 5.06255299,9.52376831 5.06255299,9.93743759 C5.06255299,10.3511069 4.72621756,10.6874423 4.31254828,10.6874423 Z M9.75001413,9.37494112 C10.1636834,9.37494112 10.5000188,9.71126714 10.5000188,10.1249364 C10.5000188,10.5386057 10.1636834,10.8749411 9.75001413,10.8749411 C9.33634485,10.8749411 9.00001884,10.5386057 9.00001884,10.1249364 C9.00001884,9.71126714 9.33634485,9.37494112 9.75001413,9.37494112 Z M4.87504475,2.62499293 C4.46137547,2.62499293 4.12504946,2.2886575 4.12504946,1.87498822 C4.12504946,1.46131895 4.46137547,1.12499293 4.87504475,1.12499293 C5.28871402,1.12499293 5.62504946,1.46131895 5.62504946,1.87498822 C5.62504946,2.2886575 5.28871402,2.62499293 4.87504475,2.62499293 Z M8.2629141,7.1378458 C7.90901007,7.49292169 7.43791928,7.68745172 6.93753179,7.68745172 C6.43714431,7.68745172 5.96605352,7.49292169 5.61214949,7.1378458 C5.2570736,6.78394177 5.06254357,6.31285098 5.06254357,5.8124635 C5.06254357,5.31207601 5.2570736,4.84098522 5.61214949,4.48708119 C5.96605352,4.1320053 6.43714431,3.93747527 6.93753179,3.93747527 C7.43791928,3.93747527 7.90901007,4.1320053 8.2629141,4.48708119 C8.61798999,4.84098522 8.81252002,5.31207601 8.81252002,5.8124635 C8.81252002,6.31285098 8.61798999,6.78394177 8.2629141,7.1378458 Z" id="形状"></path>
                </g>
            </g>
        </g>
    </g>
</svg>
