<?xml version="1.0" encoding="UTF-8"?>
<svg width="20px" height="106px" viewBox="0 0 20 106" version="1.1" xmlns="http://www.w3.org/2000/svg" xmlns:xlink="http://www.w3.org/1999/xlink">
    <!-- Generator: Sketch 64 (93537) - https://sketch.com -->
    <title>编组 15</title>
    <desc>Created with Sketch.</desc>
    <g id="任务运维" stroke="none" stroke-width="1" fill="none" fill-rule="evenodd">
        <g id="点击工作流-收起表格备份-2" transform="translate(-275.000000, -465.000000)">
            <g id="编组-15" transform="translate(275.000000, 465.000000)">
                <g id="编组-13">
                    <path d="M1,0 L16,0 C18.209139,-4.05812251e-16 20,1.790861 20,4 L20,102 C20,104.209139 18.209139,106 16,106 L1,106 C0.44771525,106 6.76353751e-17,105.552285 0,105 L0,1 C-6.76353751e-17,0.44771525 0.44771525,1.01453063e-16 1,0 Z" id="矩形" fill="#DCE7F6"></path>
                    <path d="M6.9341766,42.2517498 L6.9716676,42.3338287 L10.7011598,52.9080475 C10.7311729,52.9931436 10.7374185,53.0842163 10.7200697,53.1716615 L10.6948624,53.2575418 L6.9653702,62.7292215 C6.86419894,62.9861631 6.57389111,63.1124399 6.31694951,63.0112686 C6.08855697,62.9213386 5.96340574,62.6819674 6.00946982,62.4494257 L6.03490233,62.3628479 L9.69513626,53.0651363 L6.02860493,42.6664438 C5.94696127,42.4349598 6.04586276,42.1836036 6.2517498,42.0660959 L6.33382871,42.0286049 C6.56531277,41.9469613 6.81666893,42.0458628 6.9341766,42.2517498 Z M10.1636688,42.2517498 L10.2011598,42.3338287 L13.930652,52.9080475 C13.9606651,52.9931436 13.9669107,53.0842163 13.9495619,53.1716615 L13.9243546,53.2575418 L10.1948624,62.7292215 C10.0936911,62.9861631 9.8033833,63.1124399 9.54644169,63.0112686 C9.31804915,62.9213386 9.19289793,62.6819674 9.23896201,62.4494257 L9.26439452,62.3628479 L12.9251363,53.0641363 L9.25809712,42.6664438 C9.17645345,42.4349598 9.27535495,42.1836036 9.48124199,42.0660959 L9.5633209,42.0286049 C9.79480496,41.9469613 10.0461611,42.0458628 10.1636688,42.2517498 Z" id="形状结合" fill="#648AB8" fill-rule="nonzero"></path>
                </g>
            </g>
        </g>
    </g>
</svg>