<?xml version="1.0" encoding="UTF-8"?>
<svg width="20px" height="51px" viewBox="0 0 20 51" version="1.1" xmlns="http://www.w3.org/2000/svg" xmlns:xlink="http://www.w3.org/1999/xlink">
    <!-- Generator: Sketch 64 (93537) - https://sketch.com -->
    <title>编组 13备份</title>
    <desc>Created with Sketch.</desc>
    <g id="任务运维" stroke="none" stroke-width="1" fill="none" fill-rule="evenodd">
        <g id="点击工作流备份" transform="translate(-576.000000, -520.000000)">
            <g id="编组-15" transform="translate(576.000000, 465.000000)">
                <g id="编组-13备份" transform="translate(10.000000, 80.500000) scale(-1, 1) translate(-10.000000, -80.500000) translate(0.000000, 55.000000)">
                    <path d="M4,0 L19,0 C19.5522847,-1.01453063e-16 20,0.44771525 20,1 L20,50 C20,50.5522847 19.5522847,51 19,51 L4,51 C1.790861,51 2.705415e-16,49.209139 0,47 L0,4 C-2.705415e-16,1.790861 1.790861,4.05812251e-16 4,0 Z" id="矩形" fill="#DCE7F6"></path>
                    <path d="M6.9341766,15.2517498 L6.9716676,15.3338287 L10.7011598,25.9080475 C10.7311729,25.9931436 10.7374185,26.0842163 10.7200697,26.1716615 L10.6948624,26.2575418 L6.9653702,35.7292215 C6.86419894,35.9861631 6.57389111,36.1124399 6.31694951,36.0112686 C6.08855697,35.9213386 5.96340574,35.6819674 6.00946982,35.4494257 L6.03490233,35.3628479 L9.69513626,26.0651363 L6.02860493,15.6664438 C5.94696127,15.4349598 6.04586276,15.1836036 6.2517498,15.0660959 L6.33382871,15.0286049 C6.56531277,14.9469613 6.81666893,15.0458628 6.9341766,15.2517498 Z M10.1636688,15.2517498 L10.2011598,15.3338287 L13.930652,25.9080475 C13.9606651,25.9931436 13.9669107,26.0842163 13.9495619,26.1716615 L13.9243546,26.2575418 L10.1948624,35.7292215 C10.0936911,35.9861631 9.8033833,36.1124399 9.54644169,36.0112686 C9.31804915,35.9213386 9.19289793,35.6819674 9.23896201,35.4494257 L9.26439452,35.3628479 L12.9251363,26.0641363 L9.25809712,15.6664438 C9.17645345,15.4349598 9.27535495,15.1836036 9.48124199,15.0660959 L9.5633209,15.0286049 C9.79480496,14.9469613 10.0461611,15.0458628 10.1636688,15.2517498 Z" id="形状结合" fill="#648AB8" fill-rule="nonzero"></path>
                </g>
            </g>
        </g>
    </g>
</svg>