<?xml version="1.0" standalone="no"?><!DOCTYPE svg PUBLIC "-//W3C//DTD SVG 1.1//EN" "http://www.w3.org/Graphics/SVG/1.1/DTD/svg11.dtd"><svg t="1629078414665" class="icon" viewBox="0 0 1024 1024" version="1.1" xmlns="http://www.w3.org/2000/svg" p-id="13686" xmlns:xlink="http://www.w3.org/1999/xlink" width="36" height="36"><defs><style type="text/css"></style></defs><path d="M280.021333 752h80a8.021333 8.021333 0 0 0 7.978667-8.021333V280.021333a8.021333 8.021333 0 0 0-8.021333-7.978666H280.021333a8.021333 8.021333 0 0 0-8.021333 8.021333v464c0 4.394667 3.584 7.978667 8.021333 7.978667z m192-280.021333h79.957334a8.021333 8.021333 0 0 0 8.021333-7.978667V279.978667a8.021333 8.021333 0 0 0-8.021333-7.978667h-79.957334a8.021333 8.021333 0 0 0-8.021333 8.021333v183.978667c0 4.394667 3.584 8.021333 8.021333 8.021333z m192 72.021333h79.957334a8.021333 8.021333 0 0 0 8.021333-8.021333v-256a8.021333 8.021333 0 0 0-8.021333-7.978667h-80a8.021333 8.021333 0 0 0-7.978667 8.021333v256c0 4.394667 3.584 7.978667 8.021333 7.978667z m215.978667-432H144a32 32 0 0 0-32 32v736c0 17.706667 14.293333 32 32 32h736a32 32 0 0 0 32-32V144a32 32 0 0 0-32-32z m-40.021333 728.021333H184.021333V184.021333h656v656z" p-id="13687"></path></svg>