<?xml version="1.0" standalone="no"?><!DOCTYPE svg PUBLIC "-//W3C//DTD SVG 1.1//EN" "http://www.w3.org/Graphics/SVG/1.1/DTD/svg11.dtd"><svg t="1629101451613" class="icon" viewBox="0 0 1024 1024" version="1.1" xmlns="http://www.w3.org/2000/svg" p-id="17810" xmlns:xlink="http://www.w3.org/1999/xlink" width="36" height="36"><defs><style type="text/css"></style></defs><path d="M860.0064 491.008H333.4144l315.1872-273.6128A7.168 7.168 0 0 0 643.9424 204.8H564.224a14.4384 14.4384 0 0 0-9.4208 3.5328L214.7328 503.3984a28.7744 28.7744 0 0 0 0 43.52l342.0672 296.8576a7.0656 7.0656 0 0 0 4.7104 1.8432h82.3296a7.168 7.168 0 0 0 4.6592-12.5952l-315.0848-273.6128h526.592c3.9936 0 7.168-3.2256 7.168-7.168V498.176a7.2192 7.2192 0 0 0-7.168-7.168z" p-id="17811"></path></svg>