<?xml version="1.0" standalone="no"?><!DOCTYPE svg PUBLIC "-//W3C//DTD SVG 1.1//EN" "http://www.w3.org/Graphics/SVG/1.1/DTD/svg11.dtd"><svg t="1629078433667" class="icon" viewBox="0 0 1024 1024" version="1.1" xmlns="http://www.w3.org/2000/svg" p-id="13828" xmlns:xlink="http://www.w3.org/1999/xlink" width="36" height="36"><defs><style type="text/css"></style></defs><path d="M531.84 818.56a70.72 70.72 0 1 1 0 141.44 70.72 70.72 0 0 1 0-141.44zM523.52 64a267.52 267.52 0 0 1 267.648 267.52c0 131.712-95.168 252.8-220.416 275.136v49.536a47.168 47.168 0 0 1-94.336 0V563.648c0-26.048 21.12-47.168 47.168-47.168 95.68 0 173.248-89.216 173.248-184.96a173.312 173.312 0 0 0-346.496 0A47.168 47.168 0 0 1 256 331.52 267.52 267.52 0 0 1 523.52 64z" p-id="13829"></path></svg>