<?xml version="1.0" encoding="UTF-8"?>
<svg width="14px" height="14px" viewBox="0 0 14 14" version="1.1" xmlns="http://www.w3.org/2000/svg" xmlns:xlink="http://www.w3.org/1999/xlink">
    <title>34模板、框架-线性</title>
    <g id="资源模板需求-0613" stroke="none" stroke-width="1" fill="none" fill-rule="evenodd">
        <g id="资源模板管理" transform="translate(-16.000000, -344.000000)" fill-rule="nonzero">
            <g id="编组-8" transform="translate(0.000000, 54.000000)">
                <g id="编组-2备份-27" transform="translate(0.000000, 270.000000)">
                    <g id="34模板、框架-线性" transform="translate(16.000000, 20.000000)">
                        <rect id="矩形" opacity="0" x="0" y="0" width="14" height="14"></rect>
                        <path d="M12.5,1 L1.5,1 C1.225,1 1,1.225 1,1.5 L1,12.5 C1,12.775 1.225,13 1.5,13 L12.5,13 C12.775,13 13,12.775 13,12.5 L13,1.5 C13,1.225 12.775,1 12.5,1 Z M12,2 L12,4 L2,4 L2,2 L12,2 Z M2,5 L4,5 L4,12 L2,12 L2,5 Z M5,12 L5,5 L12,5 L12,12 L5,12 Z" id="形状" fill="#5384FF"></path>
                    </g>
                </g>
            </g>
        </g>
    </g>
</svg>
