<?xml version="1.0" standalone="no"?><!DOCTYPE svg PUBLIC "-//W3C//DTD SVG 1.1//EN" "http://www.w3.org/Graphics/SVG/1.1/DTD/svg11.dtd"><svg t="1681719181882" class="icon" viewBox="0 0 1024 1024" version="1.1" xmlns="http://www.w3.org/2000/svg" p-id="4168" xmlns:xlink="http://www.w3.org/1999/xlink" width="200" height="200"><path d="M960.0064 640a64 64 0 0 1 64 64v192a64 64 0 0 1-64 64h-192a64 64 0 0 1-64-64v-192a64 64 0 0 1 64-64h192zM188.8704 576.192a187.712 187.712 0 0 1 188.928 189.12 189.184 189.184 0 0 1-188.928 190.912A189.184 189.184 0 0 1 0.0064 765.312a187.712 187.712 0 0 1 188.864-189.12z m359.68 250.176v81.472h-61.44a40.128 40.128 0 0 1-39.296-34.688l-0.448-6.016c0-20.48 14.72-37.376 33.92-40.32l5.888-0.384 61.44-0.064zM928.0064 704h-128a32 32 0 0 0-31.488 26.24L768.0064 736v128a32 32 0 0 0 26.24 31.488l5.76 0.512h128a32 32 0 0 0 31.488-26.24L960.0064 864v-128a32 32 0 0 0-32-32z m-739.136-47.36c-60.288 0-109.376 46.912-109.376 108.672s49.088 110.144 109.44 110.144c60.288 0 109.312-48.384 109.312-110.08 0-61.824-49.024-108.672-109.376-108.672zM880.7104 512a32 32 0 1 1 0 64H672.0064a32 32 0 0 0-32 32v214.848a32 32 0 0 1-64 0V576a64 64 0 0 1 64-64h240.64zM548.4864 597.312v81.408h-61.44a40.128 40.128 0 0 1-39.296-34.624L447.3664 638.08c0-20.48 14.72-37.376 33.92-40.32l5.888-0.448h61.44zM188.8704 64C293.1264 64 377.7984 149.568 377.7984 256.256A188.032 188.032 0 0 1 188.8064 445.76 188.032 188.032 0 0 1 0.0064 256.256C0.0064 149.568 84.7424 64 188.8704 64zM984.3264 342.784a40.32 40.32 0 0 1 39.744 40.704c0 20.48-14.72 37.376-33.92 40.32l-5.824 0.448H487.1744a40.32 40.32 0 0 1-39.808-40.768c0-20.416 14.72-37.376 33.92-40.256l5.888-0.448h497.088zM188.8064 147.584c-60.288 0-109.376 46.912-109.376 108.608 0 61.76 49.088 108.16 109.44 108.16 60.288 0 109.312-46.4 109.312-108.16 0-61.696-49.024-108.608-109.376-108.608z m795.392-33.92a40.32 40.32 0 0 1 39.744 40.768c0 20.416-14.72 37.312-33.92 40.256l-5.824 0.448H487.1744a40.32 40.32 0 0 1-39.808-40.704c0-20.48 14.72-37.376 33.92-40.32l5.888-0.448h497.088z" fill="#707070" p-id="4169"></path></svg>