<?xml version="1.0" standalone="no"?><!DOCTYPE svg PUBLIC "-//W3C//DTD SVG 1.1//EN" "http://www.w3.org/Graphics/SVG/1.1/DTD/svg11.dtd"><svg t="1636360855535" class="icon" viewBox="0 0 1024 1024" version="1.1" xmlns="http://www.w3.org/2000/svg" p-id="3231" xmlns:xlink="http://www.w3.org/1999/xlink" width="16" height="16"><defs><style type="text/css"></style></defs><path d="M949.504 898.56l-205.696-205.632A384 384 0 1 0 64 448a384 384 0 0 0 628.928 295.808l205.696 205.696a36.032 36.032 0 0 0 51.008 0 36.288 36.288 0 0 0-0.128-51.008z m-380.16-163.072c-38.4 16.32-79.168 24.512-121.344 24.512a311.296 311.296 0 0 1-220.608-91.392 311.296 311.296 0 0 1-66.88-342.016 311.296 311.296 0 0 1 66.88-99.2 311.296 311.296 0 0 1 342.016-66.88c37.12 15.68 70.464 38.208 99.2 66.88a311.296 311.296 0 0 1 66.88 342.016 311.296 311.296 0 0 1-66.88 99.2c-28.736 28.672-62.016 51.2-99.2 66.88z" p-id="3232"></path></svg>
