<?xml version="1.0" encoding="UTF-8"?>
<svg width="16px" height="16px" viewBox="0 0 16 16" version="1.1" xmlns="http://www.w3.org/2000/svg" xmlns:xlink="http://www.w3.org/1999/xlink">
    <!-- Generator: Sketch 64 (93537) - https://sketch.com -->
    <title>shell</title>
    <desc>Created with Sketch.</desc>
    <g id="shell" stroke="none" stroke-width="1" fill="none" fill-rule="evenodd">
        <g id="cloudshell-云命令行" fill="#000000" fill-rule="nonzero">
            <rect id="矩形" opacity="0" x="0" y="0" width="16" height="16"></rect>
            <path d="M13.5,3 C13.7761424,3 14,3.22385763 14,3.5 L14,3.5 L14,12.5 C14,12.7761424 13.7761424,13 13.5,13 L13.5,13 L2.5,13 C2.22385763,13 2,12.7761424 2,12.5 L2,12.5 L2,3.5 C2,3.22385763 2.22385763,3 2.5,3 L2.5,3 Z M13,4 L3,4 L3,12 L13,12 L13,4 Z M11.0785937,9.1886543 C11.3547361,9.1886543 11.5785937,9.41251192 11.5785937,9.6886543 C11.5785937,9.93411419 11.4017186,10.1382627 11.1684694,10.1805986 L11.0785937,10.1886543 L7.55859375,10.1886543 C7.28245138,10.1886543 7.05859375,9.96479667 7.05859375,9.6886543 C7.05859375,9.44319441 7.23546891,9.23904593 7.46871812,9.19670997 L7.55859375,9.1886543 L11.0785937,9.1886543 Z M4.78790363,5.59110105 L4.85664132,5.64956175 L6.61811593,7.44221605 C6.78908679,7.61621325 6.80699465,7.88379736 6.6725745,8.07740131 L6.615028,8.14620769 L4.85355339,9.9076823 C4.65829124,10.1029444 4.34170876,10.1029444 4.14644661,9.9076823 C3.97288026,9.73411594 3.95359511,9.46469154 4.08859116,9.2698234 L4.14644661,9.20057552 L5.557,7.789 L4.14335868,6.35043825 C3.97132161,6.17535597 3.95440072,5.90577276 4.09110105,5.71209637 L4.14956175,5.64335868 C4.32464403,5.47132161 4.59422724,5.45440072 4.78790363,5.59110105 Z" id="形状结合" fill-opacity="0.65"></path>
        </g>
    </g>
</svg>