<svg t="1656904394054" class="icon" viewBox="0 0 1024 1024" version="1.1" xmlns="http://www.w3.org/2000/svg" p-id="32854" width="128" height="128"><path d="M256 235.456h357.376c78.784-4.32 130.016 6.496 154.528 30.432 24.448 23.872 35.808 72.64 32.128 146.56L800 768h32V413.28c4.096-81.408-9.184-138.528-41.76-170.304-32.512-31.712-91.744-44.224-177.728-39.488L256 203.456v32z" p-id="32855"></path><path d="M176 288a80 80 0 1 1 0-160 80 80 0 0 1 0 160z m640 640a80 80 0 1 1 0-160 80 80 0 0 1 0 160z" p-id="32856"></path><path d="M176 304a96 96 0 1 0 0-192 96 96 0 0 0 0 192z m0-32a64 64 0 1 1 0-128 64 64 0 0 1 0 128z" p-id="32857"></path><path d="M816 944a96 96 0 1 0 0-192 96 96 0 0 0 0 192z m0-32a64 64 0 1 1 0-128 64 64 0 0 1 0 128z" p-id="32858"></path></svg>
