<svg t="1657537071205" class="icon" viewBox="0 0 1024 1024" version="1.1" xmlns="http://www.w3.org/2000/svg" p-id="2172" width="128" height="128"><path d="M204.770104 0.149482h136.513402v859.351868H204.770104z" p-id="2173"></path><path d="M273.026805 1024l273.026805-273.026805H0l273.026805 273.026805zM1023.850518 358.497163h-55.287928L930.338837 273.176287h-204.770103l-34.128351 85.320876h-55.970495L784.952064 0.149482h38.223752a63.478732 63.478732 0 0 1 43.001722 12.968773 107.163021 107.163021 0 0 1 25.25498 40.271454z m-115.353825-136.513402l-68.256701-157.67298c-4.095402-10.238505-9.555938-15.016474-17.064176-15.016474H819.080414l-72.352103 172.689454zM1023.850518 1024h-309.202857v-51.192526L955.593817 716.844845h-242.993857v-51.192526H1023.850518v53.240227l-238.898454 253.914928H1023.850518z" p-id="2174"></path></svg>
