<?xml version="1.0" standalone="no"?><!DOCTYPE svg PUBLIC "-//W3C//DTD SVG 1.1//EN" "http://www.w3.org/Graphics/SVG/1.1/DTD/svg11.dtd"><svg t="1629097456865" class="icon" viewBox="0 0 1024 1024" version="1.1" xmlns="http://www.w3.org/2000/svg" p-id="15962" xmlns:xlink="http://www.w3.org/1999/xlink" width="36" height="36"><defs><style type="text/css"></style></defs><path d="M512 512m-512 0a512 512 0 1 0 1024 0 512 512 0 1 0-1024 0Z" fill="#DAECFF" p-id="15963"></path><path d="M524.032 392.4992h-24.0384a4.0192 4.0192 0 0 0-3.9936 3.9936v137.6512c0 1.3056 0.5888 2.5088 1.6384 3.2512l82.6624 60.3648c1.792 1.28 4.3008 0.9472 5.6064-0.8704l14.2848-19.4816a3.9424 3.9424 0 0 0-0.8448-5.632l-71.296-51.5328v-123.7504a4.0192 4.0192 0 0 0-3.9936-3.9936z m109.9264 37.6064l78.3872 19.1488a4.0192 4.0192 0 0 0 4.9664-3.84l0.384-80.768c0-3.328-3.84-5.248-6.4512-3.1488l-78.7968 61.5424a3.9936 3.9936 0 0 0 1.5104 7.0656z m83.84 150.528l-28.3392-9.728a3.9936 3.9936 0 0 0-5.0688 2.4064 175.6928 175.6928 0 0 1-40.96 63.7952 176.4864 176.4864 0 0 1-125.0816 51.84 176.4864 176.4864 0 0 1-125.1072-51.84 177.3056 177.3056 0 0 1-37.9392-56.2688 176.7168 176.7168 0 0 1-13.824-68.8384c0-23.9104 4.6592-47.104 13.9264-68.8896a175.6928 175.6928 0 0 1 37.9392-56.2688 176.4864 176.4864 0 0 1 193.8944-37.9392 176.4864 176.4864 0 0 1 70.5536 54.0928l29.9008-23.3984a214.4 214.4 0 0 0-169.3952-82.5856 214.6048 214.6048 0 0 0-214.784 217.1904c1.1776 117.76 96.9472 212.7872 214.8864 212.7872a214.9632 214.9632 0 0 0 201.856-141.1328 4.096 4.096 0 0 0-2.4576-5.1968z" fill="#2E92F7" p-id="15964"></path></svg>