<?xml version="1.0" standalone="no"?><!DOCTYPE svg PUBLIC "-//W3C//DTD SVG 1.1//EN" "http://www.w3.org/Graphics/SVG/1.1/DTD/svg11.dtd"><svg t="1640681544949" class="icon" viewBox="0 0 1024 1024" version="1.1" xmlns="http://www.w3.org/2000/svg" p-id="28289" xmlns:xlink="http://www.w3.org/1999/xlink" width="32" height="32"><defs><style type="text/css"></style></defs><path d="M929.661 1023.995H94.341c-52.017 0-94.335-42.319-94.335-94.336V94.339C0.006 42.322 42.324 0.004 94.341 0.004h571.208c16.612 0 30.08 13.467 30.08 30.08s-13.468 30.08-30.08 30.08H94.341c-18.845 0-34.176 15.331-34.176 34.176v835.32c0 18.846 15.331 34.177 34.176 34.177h835.32c18.844 0 34.174-15.331 34.174-34.177V358.45c0-16.612 13.468-30.079 30.079-30.079 16.612 0 30.08 13.467 30.08 30.079v571.21c0 52.016-42.318 94.335-94.333 94.335z" p-id="28290"></path><path d="M284.24 778.776h-0.005c-14.549-0.001-23.424-5.823-28.307-10.707-13.691-13.691-10.758-33.036-9.794-39.393 1.282-8.454 3.95-18.668 8.157-31.226 8.936-26.674 22.501-57.011 32.307-77.763 23.017-48.711 58.276-113.975 81.899-137.598L813.308 37.281C836.467 14.12 867.26 1.365 900.014 1.365S963.56 14.12 986.72 37.28c23.161 23.16 35.916 53.954 35.916 86.707 0 32.754-12.755 63.547-35.916 86.708l-444.81 444.81c-26.885 26.886-101.873 64.564-124.215 75.472-36.568 17.851-102.53 47.799-133.455 47.799zM900.014 61.365c-16.727 0-32.452 6.514-44.279 18.342l-444.811 444.81c-10.819 10.819-36.18 51.244-63.717 107.575-16.611 33.979-27.579 60.426-34.125 78.828 18.402-6.545 44.847-17.513 78.829-34.125 56.33-27.537 96.754-52.897 107.574-63.717l444.81-444.81c11.828-11.828 18.342-27.554 18.342-44.281s-6.514-32.453-18.342-44.28-27.555-18.342-44.281-18.342z" p-id="28291"></path><path d="M834.61 58.394L965.596 189.38l-42.425 42.426L792.185 100.82zM429.346 463.67l130.987 130.986-42.426 42.426L386.92 506.095z" p-id="28292"></path></svg>