<?xml version="1.0" standalone="no"?><!DOCTYPE svg PUBLIC "-//W3C//DTD SVG 1.1//EN" "http://www.w3.org/Graphics/SVG/1.1/DTD/svg11.dtd"><svg class="icon" width="200px" height="200.00px" viewBox="0 0 1024 1024" version="1.1" xmlns="http://www.w3.org/2000/svg"><path d="M419.842 518.276h-239.04a62.33 62.33 0 0 1-62.33-62.321V216.906a62.33 62.33 0 0 1 62.33-62.33h239.04a62.33 62.33 0 0 1 62.33 62.33v239.049a62.33 62.33 0 0 1-62.33 62.32z m62.33 326.901V606.13a62.33 62.33 0 0 0-62.33-62.33h-239.04a62.33 62.33 0 0 0-62.33 62.33v239.048a62.33 62.33 0 0 0 62.33 62.33h239.04a62.33 62.33 0 0 0 62.33-62.33z m390.134 0V606.13a62.33 62.33 0 0 0-62.33-62.33h-239.04a62.33 62.33 0 0 0-62.33 62.33v239.048a62.33 62.33 0 0 0 62.33 62.33h239.04a62.33 62.33 0 0 0 62.33-62.33zM703.181 162.07a16.681 16.681 0 0 0-11.85 4.904L551.34 307.002a16.772 16.772 0 0 0 0 23.7l140.01 140.01a16.754 16.754 0 0 0 23.7 0l139.984-140.01a16.772 16.772 0 0 0 0-23.7L715.03 166.972a16.681 16.681 0 0 0-11.85-4.903m0-45.577a62.13 62.13 0 0 1 44.073 18.23l140.01 140.012a62.33 62.33 0 0 1 0 88.144L747.254 502.89a62.33 62.33 0 0 1-88.145 0L519.098 362.88a62.33 62.33 0 0 1 0-88.145l140.02-140.011a62.13 62.13 0 0 1 44.063-18.23z" /></svg>
