<?xml version="1.0" standalone="no"?><!DOCTYPE svg PUBLIC "-//W3C//DTD SVG 1.1//EN" "http://www.w3.org/Graphics/SVG/1.1/DTD/svg11.dtd"><svg class="icon" width="16px" height="16.00px" viewBox="0 0 1024 1024" version="1.1" xmlns="http://www.w3.org/2000/svg"><path d="M958.08 747.52a32 32 0 0 1-13.888 38.528l-5.248 2.432-416 151.296a32 32 0 0 1-16.448 1.408l-5.44-1.408-416-151.296a32 32 0 0 1 16.32-61.632l5.568 1.472L512 875.648l405.12-147.328a32 32 0 0 1 40.96 19.2z m0-160a32 32 0 0 1-13.888 38.528l-5.248 2.432-416 151.296a32 32 0 0 1-16.448 1.408l-5.44-1.408-416-151.296a32 32 0 0 1 16.32-61.632l5.568 1.472L512 715.648l405.12-147.328a32 32 0 0 1 40.96 19.2z m0-160a32 32 0 0 1-13.888 38.528l-5.248 2.432-416 151.296a32 32 0 0 1-16.448 1.408l-5.44-1.408-416-151.296a32 32 0 0 1 16.32-61.632l5.568 1.472L512 555.648l405.12-147.328a32 32 0 0 1 40.96 19.2z m-456.96-339.2a32 32 0 0 1 21.76 0l416 151.296a32 32 0 0 1 0 60.16l-416 151.296a32 32 0 0 1-21.76 0l-416-151.296a32 32 0 0 1 0-60.16zM512 152.384L189.504 269.696 512 386.944l322.432-117.248L512 152.384z" /></svg>
