<?xml version="1.0" standalone="no"?><!DOCTYPE svg PUBLIC "-//W3C//DTD SVG 1.1//EN" "http://www.w3.org/Graphics/SVG/1.1/DTD/svg11.dtd"><svg class="icon" width="200px" height="200.00px" viewBox="0 0 1024 1024" version="1.1" xmlns="http://www.w3.org/2000/svg"><path fill="#6666FF" d="M185.6 710.4v115.2c0 32 38.4 64 108.8 89.6 70.4 25.6 166.4 38.4 262.4 38.4 96 0 192-12.8 262.4-38.4 70.4-25.6 108.8-57.6 108.8-83.2V627.2 416v-128c-32 25.6-83.2 51.2-147.2 64-64 19.2-140.8 25.6-224 25.6s-160-12.8-224-25.6-115.2-38.4-147.2-64v422.4z m633.6-435.2c70.4-25.6 108.8-57.6 108.8-89.6 0-32-38.4-64-108.8-89.6-76.8-19.2-166.4-38.4-262.4-38.4-96 0-192 12.8-262.4 38.4-70.4 25.6-108.8 57.6-108.8 89.6 0 32 38.4 64 108.8 89.6 70.4 25.6 166.4 38.4 262.4 38.4 96 0 185.6-12.8 262.4-38.4z m38.4-224c83.2 32 128 83.2 128 134.4v652.8c0 51.2-44.8 102.4-128 134.4s-185.6 51.2-300.8 51.2c-115.2 0-224-19.2-300.8-51.2-83.2-32-128-83.2-128-134.4V185.6c0-51.2 44.8-102.4 128-134.4C332.8 19.2 441.6 0 556.8 0s217.6 19.2 300.8 51.2z"  /><path fill="#6666FF" d="M403.2 467.2h76.8v230.4c0 32 0 51.2-6.4 70.4-6.4 19.2-19.2 38.4-38.4 51.2s-44.8 19.2-76.8 19.2c-38.4 0-64-12.8-83.2-32s-32-51.2-32-89.6l70.4-6.4c0 19.2 6.4 38.4 6.4 44.8 6.4 12.8 19.2 19.2 38.4 19.2s25.6-6.4 32-12.8 12.8-32 12.8-57.6V467.2z m153.6 0h134.4c32 0 51.2 0 70.4 6.4 19.2 6.4 38.4 19.2 57.6 32s25.6 38.4 32 57.6 12.8 51.2 12.8 89.6c0 32-6.4 57.6-12.8 76.8-6.4 25.6-19.2 51.2-38.4 64-12.8 12.8-32 19.2-51.2 32-19.2 6.4-38.4 6.4-64 6.4H556.8V467.2z m76.8 57.6V768h57.6c19.2 0 38.4 0 44.8-6.4 12.8 0 19.2-6.4 32-12.8s12.8-19.2 19.2-38.4 6.4-38.4 6.4-64 0-51.2-6.4-64-19.2-25.6-25.6-32-19.2-12.8-32-19.2c-12.8 0-32-6.4-57.6-6.4h-38.4z"  /></svg>